<svg xmlns="http://www.w3.org/2000/svg" xmlns:xlink="http://www.w3.org/1999/xlink" width="80" height="78.889" viewBox="0 0 80 78.889">
  <defs>
    <linearGradient id="linear-gradient" x1="0.228" y1="2.956" x2="0.772" y2="-1.705" gradientUnits="objectBoundingBox">
      <stop offset="0.015" stop-color="#af9cd4"/>
      <stop offset="1" stop-color="#ebe6f4"/>
    </linearGradient>
  </defs>
  <g id="_04-game" data-name="04-game" transform="translate(-4 -11)">
    <g id="linear_color" data-name="linear color" transform="translate(4 11)">
      <path id="Trazado_145327" data-name="Trazado 145327" d="M19.81,440H88.381a3.81,3.81,0,0,1,3.81,3.81v5.079H16V443.81A3.81,3.81,0,0,1,19.81,440Z" transform="translate(-14.095 -371.905)" fill="url(#linear-gradient)"/>
      <rect id="Rectángulo_31440" data-name="Rectángulo 31440" width="7.619" height="15.238" rx="3.81" transform="translate(17.143 24.921)" fill="#ff7758"/>
      <rect id="Rectángulo_31441" data-name="Rectángulo 31441" width="7.619" height="15.238" rx="3.81" transform="translate(24.762 24.921)" fill="#ff7758"/>
      <rect id="Rectángulo_31442" data-name="Rectángulo 31442" width="7.619" height="15.238" rx="3.81" transform="translate(32.381 24.921)" fill="#ff7758"/>
      <rect id="Rectángulo_31443" data-name="Rectángulo 31443" width="7.619" height="15.238" rx="3.81" transform="translate(55.238 4.603)" fill="#ffba5b"/>
      <rect id="Rectángulo_31444" data-name="Rectángulo 31444" width="7.619" height="15.238" rx="3.81" transform="translate(47.619 4.603)" fill="#ffba5b"/>
      <rect id="Rectángulo_31445" data-name="Rectángulo 31445" width="7.619" height="15.238" rx="3.81" transform="translate(40 4.603)" fill="#ffba5b"/>
      <rect id="Rectángulo_31446" data-name="Rectángulo 31446" width="7.619" height="15.238" rx="3.81" transform="translate(55.238 46.508)" fill="#675d84"/>
      <rect id="Rectángulo_31447" data-name="Rectángulo 31447" width="7.619" height="15.238" rx="3.81" transform="translate(47.619 46.508)" fill="#675d84"/>
      <rect id="Rectángulo_31448" data-name="Rectángulo 31448" width="7.619" height="15.238" rx="3.81" transform="translate(40 46.508)" fill="#675d84"/>
      <path id="Trazado_145328" data-name="Trazado 145328" d="M78.286,77.19h-1.9V12.9a1.9,1.9,0,1,0-3.81,0v8.413h-3.81v-1.9a5.711,5.711,0,0,0-9.524-4.254,5.7,5.7,0,0,0-7.619,0A5.711,5.711,0,0,0,42.1,19.413v1.9H15.429V12.9a1.9,1.9,0,1,0-3.81,0V77.19h-1.9A5.721,5.721,0,0,0,4,82.9v5.079a1.9,1.9,0,0,0,1.9,1.9H82.1a1.9,1.9,0,0,0,1.9-1.9V82.9a5.721,5.721,0,0,0-5.714-5.714ZM61.143,61.317a1.9,1.9,0,0,1,3.81,0v7.619a1.9,1.9,0,1,1-3.81,0Zm1.9-5.714a5.691,5.691,0,0,0-3.81,1.46,5.7,5.7,0,0,0-7.619,0A5.711,5.711,0,0,0,42.1,61.317v1.9H15.429V45.444h3.81v1.9A5.711,5.711,0,0,0,28.762,51.6a5.7,5.7,0,0,0,7.619,0A5.711,5.711,0,0,0,45.9,47.349v-1.9H72.571V63.222h-3.81v-1.9A5.721,5.721,0,0,0,63.048,55.6Zm-9.524,5.714a1.9,1.9,0,1,1,3.81,0v7.619a1.9,1.9,0,1,1-3.81,0Zm-7.619,0a1.9,1.9,0,0,1,3.81,0v7.619a1.9,1.9,0,0,1-3.81,0ZM26.857,47.349a1.9,1.9,0,0,1-3.81,0V39.73a1.9,1.9,0,1,1,3.81,0Zm7.619,0a1.9,1.9,0,0,1-3.81,0V39.73a1.9,1.9,0,1,1,3.81,0Zm7.619,0a1.9,1.9,0,0,1-3.81,0V39.73a1.9,1.9,0,0,1,3.81,0ZM63.048,17.508a1.907,1.907,0,0,1,1.9,1.9v7.619a1.9,1.9,0,1,1-3.81,0V19.413A1.907,1.907,0,0,1,63.048,17.508Zm-7.619,0a1.907,1.907,0,0,1,1.9,1.9v7.619a1.9,1.9,0,1,1-3.81,0V19.413A1.907,1.907,0,0,1,55.429,17.508Zm-9.524,1.9a1.9,1.9,0,1,1,3.81,0v7.619a1.9,1.9,0,0,1-3.81,0ZM42.1,25.127v1.9a5.711,5.711,0,0,0,9.524,4.254,5.7,5.7,0,0,0,7.619,0,5.711,5.711,0,0,0,9.524-4.254v-1.9h3.81V41.635H45.9v-1.9a5.711,5.711,0,0,0-9.524-4.254,5.7,5.7,0,0,0-7.619,0,5.711,5.711,0,0,0-9.524,4.254v1.9h-3.81V25.127Zm-26.667,41.9H42.1v1.9a5.711,5.711,0,0,0,9.524,4.254,5.7,5.7,0,0,0,7.619,0,5.711,5.711,0,0,0,9.524-4.254v-1.9h3.81V77.19H15.429ZM80.19,86.079H7.81V82.9a1.907,1.907,0,0,1,1.9-1.9H78.286a1.907,1.907,0,0,1,1.9,1.9Z" transform="translate(-4 -11)"/>
    </g>
  </g>
</svg>
