<svg id="relaciones" xmlns="http://www.w3.org/2000/svg" width="174.5" height="174.5" viewBox="0 0 174.5 174.5">
  <g id="Grupo_83727" data-name="Grupo 83727" transform="translate(5.453 5.453)">
    <path id="Trazado_145329" data-name="Trazado 145329" d="M13.474,45.2A12.724,12.724,0,1,1,26.2,32.474,12.738,12.738,0,0,1,13.474,45.2Z" transform="translate(-0.75 118.396)" fill="#c3b5ec"/>
    <path id="Trazado_145330" data-name="Trazado 145330" d="M13.474,26.2A12.724,12.724,0,1,1,26.2,13.474,12.738,12.738,0,0,1,13.474,26.2Z" transform="translate(-0.75 -0.75)" fill="#ff7758"/>
    <path id="Trazado_145331" data-name="Trazado 145331" d="M32.474,26.2A12.724,12.724,0,1,1,45.2,13.474,12.738,12.738,0,0,1,32.474,26.2Z" transform="translate(118.396 -0.75)" fill="#978cb7"/>
    <path id="Trazado_145332" data-name="Trazado 145332" d="M32.474,45.2A12.724,12.724,0,1,1,45.2,32.474,12.738,12.738,0,0,1,32.474,45.2Z" transform="translate(118.396 118.396)" fill="#ffba5b"/>
    <path id="Trazado_145343" data-name="Trazado 145343" d="M45.443,0A45.443,45.443,0,1,1,0,45.443,45.443,45.443,0,0,1,45.443,0Z" transform="translate(36.354 36.354)" fill="#ffba5b"/>
  </g>
  <circle id="Elipse_4328" data-name="Elipse 4328" cx="10.906" cy="10.906" r="10.906" transform="translate(76.344 58.167)"/>
  <path id="Trazado_145333" data-name="Trazado 145333" d="M47.172,33.813a5.455,5.455,0,0,1-5.453-5.453,5.46,5.46,0,0,0-5.453-5.453H25.359a5.46,5.46,0,0,0-5.453,5.453A5.453,5.453,0,0,1,9,28.359,16.379,16.379,0,0,1,25.359,12H36.266A16.379,16.379,0,0,1,52.625,28.359,5.455,5.455,0,0,1,47.172,33.813Z" transform="translate(56.438 75.25)"/>
  <path id="Trazado_145334" data-name="Trazado 145334" d="M55.9,106.792a50.9,50.9,0,1,1,50.9-50.9A50.956,50.956,0,0,1,55.9,106.792Zm0-90.885A39.99,39.99,0,1,0,95.885,55.9,40.037,40.037,0,0,0,55.9,15.906Z" transform="translate(31.354 31.354)"/>
  <path id="Trazado_145335" data-name="Trazado 145335" d="M46.677,52.136a5.41,5.41,0,0,1-3.854-1.6L17.448,25.161a5.455,5.455,0,0,1,7.714-7.714L50.538,42.822a5.457,5.457,0,0,1-3.861,9.314Z" transform="translate(99.394 99.388)"/>
  <path id="Trazado_145336" data-name="Trazado 145336" d="M33.987,39.446a5.41,5.41,0,0,1-3.854-1.6L4.758,12.471a5.455,5.455,0,0,1,7.714-7.714L37.848,30.132a5.457,5.457,0,0,1-3.861,9.314Z" transform="translate(19.817 19.811)"/>
  <path id="Trazado_145337" data-name="Trazado 145337" d="M21.3,39.446a5.457,5.457,0,0,1-3.854-9.314L42.823,4.757a5.455,5.455,0,0,1,7.714,7.714L25.162,37.847a5.451,5.451,0,0,1-3.861,1.6Z" transform="translate(99.394 19.811)"/>
  <path id="Trazado_145338" data-name="Trazado 145338" d="M8.612,52.136a5.457,5.457,0,0,1-3.854-9.314L30.133,17.447a5.455,5.455,0,0,1,7.714,7.714L12.472,50.537a5.427,5.427,0,0,1-3.861,1.6Z" transform="translate(19.817 99.388)"/>
  <path id="Trazado_145339" data-name="Trazado 145339" d="M18.177,55.354A18.177,18.177,0,1,1,36.354,37.177,18.2,18.2,0,0,1,18.177,55.354Zm0-25.448a7.271,7.271,0,1,0,7.271,7.271A7.278,7.278,0,0,0,18.177,29.906Z" transform="translate(0 119.146)"/>
  <path id="Trazado_145340" data-name="Trazado 145340" d="M18.177,36.354A18.177,18.177,0,1,1,36.354,18.177,18.2,18.2,0,0,1,18.177,36.354Zm0-25.448a7.271,7.271,0,1,0,7.271,7.271A7.278,7.278,0,0,0,18.177,10.906Z"/>
  <path id="Trazado_145341" data-name="Trazado 145341" d="M37.177,36.354A18.177,18.177,0,1,1,55.354,18.177,18.2,18.2,0,0,1,37.177,36.354Zm0-25.448a7.271,7.271,0,1,0,7.271,7.271A7.278,7.278,0,0,0,37.177,10.906Z" transform="translate(119.146)"/>
  <path id="Trazado_145342" data-name="Trazado 145342" d="M37.177,55.354A18.177,18.177,0,1,1,55.354,37.177,18.2,18.2,0,0,1,37.177,55.354Zm0-25.448a7.271,7.271,0,1,0,7.271,7.271A7.278,7.278,0,0,0,37.177,29.906Z" transform="translate(119.146 119.146)"/>
</svg>
