<svg xmlns="http://www.w3.org/2000/svg" xmlns:xlink="http://www.w3.org/1999/xlink" width="255.566" height="253.751" viewBox="0 0 255.566 253.751">
  <defs>
    <clipPath id="clip-path">
      <path id="Trazado_141230" data-name="Trazado 141230" d="M489.136-2597.76c-16.879,3.58-34.813-3.724-44.851-16.386-4.083-5.151-20.8-23.13-22.256-30-5.036-23.746,28.14-40.181,51.885-45.216s50.288,11.22,55.323,34.966c2.247,10.595-7.355,32.164-12.119,41.006C511.2-2602.412,502.287-2600.549,489.136-2597.76Z" transform="translate(-421.517 2690.275)" fill="none"/>
    </clipPath>
    <linearGradient id="linear-gradient" x1="-35.375" y1="-0.339" x2="-36.423" y2="0.95" gradientUnits="objectBoundingBox">
      <stop offset="0" stop-color="#febbba"/>
      <stop offset="1" stop-color="#ff928e"/>
    </linearGradient>
    <linearGradient id="linear-gradient-2" x1="1.085" y1="-2.263" x2="0.465" y2="-1.615" gradientUnits="objectBoundingBox">
      <stop offset="0" stop-color="#09005d"/>
      <stop offset="1" stop-color="#1a0f91"/>
    </linearGradient>
    <linearGradient id="linear-gradient-3" x1="0.299" y1="-4.574" x2="0.488" y2="-5.495" xlink:href="#linear-gradient"/>
    <linearGradient id="linear-gradient-4" x1="0.013" y1="-4.61" x2="1.298" y2="-3.47" xlink:href="#linear-gradient"/>
    <linearGradient id="linear-gradient-5" x1="2.233" y1="-7.653" x2="0.388" y2="-5.697" xlink:href="#linear-gradient-2"/>
    <linearGradient id="linear-gradient-6" x1="-1.354" y1="-18.731" x2="2.074" y2="-14.638" xlink:href="#linear-gradient"/>
    <linearGradient id="linear-gradient-7" x1="-58.825" y1="1.047" x2="-55.691" y2="-1.146" xlink:href="#linear-gradient"/>
    <clipPath id="clip-path-2">
      <path id="Trazado_141249" data-name="Trazado 141249" d="M149.235-2552.928c-17.45,3.7-35.989-3.85-46.366-16.939-4.221-5.324-17.287-22.944-18.793-30.042-5.206-24.548,24.87-42.49,49.417-47.7s51.992,11.584,57.2,36.132c2.323,10.953-1.772,33.644-6.7,42.784C177.879-2557.344,162.83-2555.811,149.235-2552.928Z" transform="translate(-83.482 2648.555)" fill="none"/>
    </clipPath>
    <linearGradient id="linear-gradient-8" x1="-113.871" y1="0.5" x2="-112.146" y2="0.5" gradientUnits="objectBoundingBox">
      <stop offset="0" stop-color="#a22b25"/>
      <stop offset="1" stop-color="#c0423c"/>
    </linearGradient>
    <linearGradient id="linear-gradient-9" x1="2.28" y1="-1.017" x2="1.535" y2="-0.346" gradientUnits="objectBoundingBox">
      <stop offset="0" stop-color="#4f52ff"/>
      <stop offset="1" stop-color="#4042e2"/>
    </linearGradient>
    <linearGradient id="linear-gradient-10" x1="51.197" y1="0.372" x2="51.173" y2="-0.738" xlink:href="#linear-gradient-8"/>
    <linearGradient id="linear-gradient-11" x1="174.963" y1="-76.737" x2="175.705" y2="-75.614" xlink:href="#linear-gradient-8"/>
    <linearGradient id="linear-gradient-12" x1="246.379" y1="17.128" x2="247.261" y2="17.957" xlink:href="#linear-gradient-2"/>
    <linearGradient id="linear-gradient-13" x1="688.225" y1="-305.355" x2="691.147" y2="-300.908" xlink:href="#linear-gradient-8"/>
    <linearGradient id="linear-gradient-14" x1="24.524" y1="-0.394" x2="24.959" y2="1.885" xlink:href="#linear-gradient-8"/>
    <linearGradient id="linear-gradient-15" x1="50.69" y1="-3.765" x2="51.668" y2="2.657" xlink:href="#linear-gradient-8"/>
    <linearGradient id="linear-gradient-16" x1="-219.758" y1="0.5" x2="-218.758" y2="0.5" xlink:href="#linear-gradient-8"/>
    <clipPath id="clip-path-3">
      <path id="Trazado_141261" data-name="Trazado 141261" d="M310.75-2919.282c16.181,3.151,83.268,3.344,93.045-8.99,3.977-5.017-28.014-18.042-26.6-24.73,4.905-23.129-9.555-41.37-32.683-46.275s-47.114,4.995-52.019,28.123c-2.188,10.32-4.641,29.313,0,37.925C298.257-2922.539,297.9-2921.785,310.75-2919.282Z" transform="translate(-289.858 3000.502)" fill="none"/>
    </clipPath>
    <linearGradient id="linear-gradient-17" x1="59.22" y1="18.093" x2="60.218" y2="18.093" xlink:href="#linear-gradient"/>
    <linearGradient id="linear-gradient-18" x1="-121.507" y1="0.5" x2="-120.507" y2="0.5" xlink:href="#linear-gradient"/>
    <linearGradient id="linear-gradient-19" x1="-60.089" y1="0.5" x2="-59.089" y2="0.5" xlink:href="#linear-gradient"/>
    <linearGradient id="linear-gradient-20" x1="318.451" y1="0.175" x2="317.135" y2="1.493" xlink:href="#linear-gradient"/>
    <linearGradient id="linear-gradient-21" x1="-77.771" y1="-0.149" x2="-78.236" y2="1.601" xlink:href="#linear-gradient-2"/>
    <linearGradient id="linear-gradient-22" x1="1067.172" y1="2.7" x2="1070.622" y2="0.456" xlink:href="#linear-gradient"/>
  </defs>
  <g id="Grupo_82336" data-name="Grupo 82336" transform="translate(-28.382 3042.238)">
    <path id="Trazado_141212" data-name="Trazado 141212" d="M254.009-2824.07a97.542,97.542,0,0,1-17.134,13.908c-44.374,29.629-95.1,21.089-110.78,18.17-25.3-4.709-46.66-8.031-65.011-24.61-41.7-37.673-39.67-116.26-7.808-164.942,3.778-5.772,35.592-52.93,86.426-59.575,1.243-.163,2.171-.255,2.983-.341,7.864-.833,56.595-5.227,96.33,28.063a118.547,118.547,0,0,1,23.329,26.47C293.382-2939,293.48-2864.756,254.009-2824.07Z" transform="translate(-0.76 -0.084)" fill="#ffcbbf"/>
    <g id="Grupo_82307" data-name="Grupo 82307" transform="translate(203.914 -3036.999)">
      <path id="Trazado_141262" data-name="Trazado 141262" d="M0,0H20.433V2.461H0Z" transform="matrix(0.402, -0.916, 0.916, 0.402, 38.304, 127.785)" fill="#ff7758"/>
      <g id="Grupo_82305" data-name="Grupo 82305" transform="translate(28.542 63.212)">
        <path id="Trazado_141213" data-name="Trazado 141213" d="M610.58-2818.439l.511,3a2.388,2.388,0,0,0,1.965,1.954l2.381.392a2,2,0,0,1,1.471,1.113,21.306,21.306,0,0,0,2.59,4.113,2,2,0,0,1,.368,1.811l-.678,2.318a2.387,2.387,0,0,0,.911,2.617l2.48,1.757a2.386,2.386,0,0,0,2.771-.009l1.963-1.408a2,2,0,0,1,1.83-.253,21.341,21.341,0,0,0,4.739,1.08,2,2,0,0,1,1.538,1.019l1.159,2.117a2.387,2.387,0,0,0,2.494,1.206l3-.511a2.386,2.386,0,0,0,1.953-1.965l.392-2.381a1.994,1.994,0,0,1,1.113-1.471,21.308,21.308,0,0,0,4.112-2.591,2,2,0,0,1,1.811-.368l2.318.678a2.387,2.387,0,0,0,2.617-.911l1.757-2.48a2.387,2.387,0,0,0-.008-2.771l-1.408-1.962a2,2,0,0,1-.253-1.83,21.308,21.308,0,0,0,1.08-4.739,2,2,0,0,1,1.019-1.538l2.117-1.159a2.386,2.386,0,0,0,1.206-2.494l-.511-3a2.386,2.386,0,0,0-1.965-1.954l-2.381-.392a2,2,0,0,1-1.472-1.113,21.313,21.313,0,0,0-2.59-4.113,2,2,0,0,1-.368-1.811l.678-2.319a2.386,2.386,0,0,0-.911-2.617l-2.48-1.757a2.387,2.387,0,0,0-2.771.008l-1.963,1.408a2,2,0,0,1-1.83.253,21.286,21.286,0,0,0-4.739-1.08,2,2,0,0,1-1.538-1.02l-1.159-2.117a2.387,2.387,0,0,0-2.495-1.206l-3,.511a2.386,2.386,0,0,0-1.953,1.965l-.392,2.381a2,2,0,0,1-1.113,1.472,21.309,21.309,0,0,0-4.113,2.59,2,2,0,0,1-1.81.368l-2.318-.678a2.387,2.387,0,0,0-2.617.911l-1.757,2.48a2.387,2.387,0,0,0,.008,2.771l1.408,1.963a2,2,0,0,1,.253,1.83,21.323,21.323,0,0,0-1.08,4.739,2,2,0,0,1-1.019,1.538l-2.117,1.159A2.386,2.386,0,0,0,610.58-2818.439Zm8.011-1.634a17.689,17.689,0,0,1,16.445-18.85,17.688,17.688,0,0,1,18.85,16.445,17.689,17.689,0,0,1-16.445,18.85A17.689,17.689,0,0,1,618.591-2820.073Z" transform="translate(-610.546 2846.968)" fill="#ddd4f8"/>
      </g>
      <rect id="Rectángulo_30841" data-name="Rectángulo 30841" width="2.461" height="33.398" transform="translate(37.624 35.765) rotate(-12.506)" fill="#ff7758"/>
      <rect id="Rectángulo_30842" data-name="Rectángulo 30842" width="24.067" height="2.461" transform="matrix(0.994, -0.11, 0.11, 0.994, 0, 26.466)" fill="#ff7758"/>
      <g id="Grupo_82306" data-name="Grupo 82306" transform="translate(20.44)">
        <path id="Trazado_141214" data-name="Trazado 141214" d="M587.458-3006.207l.378,2.215a1.763,1.763,0,0,0,1.452,1.443l1.76.29a1.474,1.474,0,0,1,1.087.823,15.75,15.75,0,0,0,1.915,3.039,1.478,1.478,0,0,1,.272,1.338l-.5,1.714a1.764,1.764,0,0,0,.673,1.934l1.833,1.3a1.764,1.764,0,0,0,2.048-.006l1.451-1.041a1.476,1.476,0,0,1,1.353-.187,15.735,15.735,0,0,0,3.5.8,1.476,1.476,0,0,1,1.137.753l.857,1.564a1.764,1.764,0,0,0,1.844.891l2.215-.378a1.764,1.764,0,0,0,1.444-1.452l.29-1.76a1.475,1.475,0,0,1,.822-1.088,15.743,15.743,0,0,0,3.04-1.915,1.477,1.477,0,0,1,1.338-.272l1.714.5a1.764,1.764,0,0,0,1.934-.673l1.3-1.833a1.764,1.764,0,0,0-.006-2.048l-1.041-1.451a1.476,1.476,0,0,1-.187-1.353,15.75,15.75,0,0,0,.8-3.5,1.475,1.475,0,0,1,.754-1.137l1.564-.857a1.763,1.763,0,0,0,.891-1.844l-.378-2.215a1.764,1.764,0,0,0-1.452-1.444l-1.76-.29a1.474,1.474,0,0,1-1.088-.823,15.763,15.763,0,0,0-1.915-3.04,1.477,1.477,0,0,1-.272-1.338l.5-1.714a1.763,1.763,0,0,0-.673-1.934l-1.833-1.3a1.764,1.764,0,0,0-2.048.006l-1.451,1.041a1.476,1.476,0,0,1-1.353.187,15.715,15.715,0,0,0-3.5-.8,1.475,1.475,0,0,1-1.137-.754l-.857-1.564a1.763,1.763,0,0,0-1.843-.891l-2.215.377a1.764,1.764,0,0,0-1.444,1.452l-.29,1.76a1.474,1.474,0,0,1-.822,1.088,15.783,15.783,0,0,0-3.04,1.915,1.475,1.475,0,0,1-1.338.272l-1.714-.5a1.763,1.763,0,0,0-1.934.673l-1.3,1.833a1.764,1.764,0,0,0,.006,2.048l1.041,1.451a1.476,1.476,0,0,1,.187,1.353,15.749,15.749,0,0,0-.8,3.5,1.475,1.475,0,0,1-.753,1.137l-1.564.857A1.763,1.763,0,0,0,587.458-3006.207Zm5.921-1.207a13.074,13.074,0,0,1,12.154-13.933,13.074,13.074,0,0,1,13.932,12.155,13.074,13.074,0,0,1-12.155,13.932A13.073,13.073,0,0,1,593.379-3007.414Z" transform="translate(-587.433 3027.292)" fill="#ddd4f8"/>
      </g>
    </g>
    <g id="Grupo_82310" data-name="Grupo 82310" transform="translate(37.852 -3042.239)">
      <rect id="Rectángulo_30843" data-name="Rectángulo 30843" width="2.461" height="31.124" transform="matrix(0.288, -0.958, 0.958, 0.288, 55.78, 38.406)" fill="#ff7758"/>
      <g id="Grupo_82309" data-name="Grupo 82309">
        <g id="Grupo_82308" data-name="Grupo 82308">
          <path id="Trazado_141215" data-name="Trazado 141215" d="M56.554-3021.937l-1.041,3.571a2.921,2.921,0,0,0,1.117,3.2l2.411,1.705a2.443,2.443,0,0,1,1.024,2.013,26.06,26.06,0,0,0,.65,5.912,2.442,2.442,0,0,1-.564,2.189l-1.987,2.189a2.921,2.921,0,0,0-.4,3.367l1.789,3.261a2.921,2.921,0,0,0,3.054,1.474l2.914-.5a2.443,2.443,0,0,1,2.149.7,26.081,26.081,0,0,0,4.637,3.724,2.443,2.443,0,0,1,1.147,1.945l.143,2.949a2.921,2.921,0,0,0,2.1,2.662l3.571,1.041a2.92,2.92,0,0,0,3.2-1.117l1.705-2.411a2.443,2.443,0,0,1,2.012-1.024,26.067,26.067,0,0,0,5.912-.649,2.443,2.443,0,0,1,2.189.564l2.189,1.986a2.92,2.92,0,0,0,3.367.4l3.261-1.789a2.92,2.92,0,0,0,1.474-3.053l-.5-2.913a2.443,2.443,0,0,1,.7-2.149,26.087,26.087,0,0,0,3.725-4.637,2.441,2.441,0,0,1,1.944-1.147l2.949-.143a2.92,2.92,0,0,0,2.662-2.1l1.041-3.571a2.92,2.92,0,0,0-1.117-3.2l-2.411-1.705a2.441,2.441,0,0,1-1.024-2.012,26.07,26.07,0,0,0-.65-5.912,2.444,2.444,0,0,1,.564-2.19l1.986-2.189a2.92,2.92,0,0,0,.4-3.367l-1.789-3.261a2.92,2.92,0,0,0-3.054-1.473l-2.913.5a2.444,2.444,0,0,1-2.149-.7,26.082,26.082,0,0,0-4.637-3.724,2.441,2.441,0,0,1-1.147-1.945l-.143-2.95a2.921,2.921,0,0,0-2.1-2.662l-3.571-1.041a2.919,2.919,0,0,0-3.2,1.117l-1.706,2.411a2.441,2.441,0,0,1-2.012,1.024,26.067,26.067,0,0,0-5.912.65,2.443,2.443,0,0,1-2.19-.564l-2.189-1.986a2.92,2.92,0,0,0-3.367-.4l-3.261,1.789a2.92,2.92,0,0,0-1.474,3.053l.5,2.914a2.443,2.443,0,0,1-.7,2.149,26.079,26.079,0,0,0-3.725,4.636,2.441,2.441,0,0,1-1.945,1.147l-2.949.143A2.92,2.92,0,0,0,56.554-3021.937Zm9.69,2.49a21.645,21.645,0,0,1,28.184-11.943,21.645,21.645,0,0,1,11.943,28.184,21.645,21.645,0,0,1-28.184,11.943A21.645,21.645,0,0,1,66.244-3019.448Z" transform="translate(-55.396 3042.239)" fill="#ddd4f8"/>
        </g>
      </g>
    </g>
    <g id="Grupo_82311" data-name="Grupo 82311" transform="translate(68.325 -3005.466)">
      <path id="Trazado_141216" data-name="Trazado 141216" d="M142.376-2935.5a1.481,1.481,0,0,1,2.4-1.48c11.107,9.431,38.089,37.985,34.348,90.436-4.694,65.807,10.127,88.991,27.815,102.7,0,0-23.634-5.68-39.5-29.164C128.48-2830.667,148.693-2910.781,142.376-2935.5Z" transform="translate(-142.328 2937.337)" fill="#ffd69f"/>
      <path id="Trazado_141217" data-name="Trazado 141217" d="M168.4-2875.844c1.692,7.215,3.24,14.46,4.522,21.75q1.979,10.924,3.286,21.945c.84,7.346,1.543,14.707,1.931,22.086.422,7.377.526,14.764.605,22.182.12,7.412.2,14.88,1.043,22.363a75.184,75.184,0,0,0,5.632,21.9c.764,1.731,1.562,3.456,2.454,5.116.862,1.677,1.8,3.317,2.763,4.939a80.733,80.733,0,0,0,6.5,9.285,80.747,80.747,0,0,0,16.648,15.264,1.433,1.433,0,0,0,1.993-.365,1.432,1.432,0,0,0-.33-1.968l0,0c-1.475-1.082-2.935-2.179-4.342-3.338-.713-.568-1.4-1.167-2.1-1.752-.674-.611-1.372-1.2-2.026-1.828a75.48,75.48,0,0,1-7.414-7.977,82.788,82.788,0,0,1-11.25-18.624,72.164,72.164,0,0,1-3.522-10.28,81.793,81.793,0,0,1-1.988-10.73c-.875-7.26-1.014-14.651-1.188-22.062s-.418-14.86-.959-22.287q-.391-5.57-.981-11.122c-.186-1.851-.408-3.7-.626-5.546q-.354-2.769-.744-5.531-1.588-11.046-3.856-21.97c-1.548-7.271-3.288-14.5-5.3-21.645a.384.384,0,0,0-.474-.265A.385.385,0,0,0,168.4-2875.844Z" transform="translate(-159.252 2897.707)" fill="#b17728"/>
    </g>
    <g id="Grupo_82313" data-name="Grupo 82313" transform="translate(28.382 -2973.951)">
      <g id="Grupo_82312" data-name="Grupo 82312" transform="translate(0 0)">
        <path id="Trazado_141218" data-name="Trazado 141218" d="M91.845-2685.373a3.723,3.723,0,0,1-5.794,2.152c-11.863-8.49-43.233-35.527-46.317-85.792-2.6-42.446-8.05-65.215-11.238-75.38a2.335,2.335,0,0,1,3.607-2.582C52.171-2832.312,113.824-2778.618,91.845-2685.373Z" transform="translate(-28.382 2847.434)" fill="#ffba5b"/>
        <path id="Trazado_141219" data-name="Trazado 141219" d="M126.247-2601.368a1.038,1.038,0,0,1-.164.114,1.033,1.033,0,0,1-1.4-.4c-.315-.564-31.562-57.106-37.849-115.962a1.034,1.034,0,0,1,.917-1.136,1.033,1.033,0,0,1,1.136.917c6.241,58.427,37.286,114.615,37.6,115.175A1.032,1.032,0,0,1,126.247-2601.368Z" transform="translate(-66.338 2763.864)" fill="#b17728"/>
      </g>
    </g>
    <path id="Trazado_141220" data-name="Trazado 141220" d="M196.689-2765.891l87.03-156.953,50.591,138.185Zm86.226-146.622-78.291,141.194,123.8-16.884Z" transform="translate(-109.308 -77.541)" fill="#ff7758"/>
    <g id="Grupo_82319" data-name="Grupo 82319" transform="translate(166.193 -2924.323)">
      <circle id="Elipse_4183" data-name="Elipse 4183" cx="45.947" cy="45.947" r="45.947" transform="translate(14.467 12.459)" fill="#fff"/>
      <g id="Grupo_82315" data-name="Grupo 82315" transform="translate(0.068 0)">
        <g id="Grupo_82314" data-name="Grupo 82314">
          <path id="Trazado_141221" data-name="Trazado 141221" d="M422.155-2654.263l-.434,6.9a5.428,5.428,0,0,0,3.329,5.35l5.066,2.111a4.539,4.539,0,0,1,2.676,3.232,48.463,48.463,0,0,0,3.585,10.456,4.542,4.542,0,0,1-.131,4.2l-2.711,4.778a5.428,5.428,0,0,0,.65,6.269l4.572,5.185a5.428,5.428,0,0,0,6.138,1.429l5.08-2.092a4.542,4.542,0,0,1,4.183.4,48.462,48.462,0,0,0,9.925,4.866,4.538,4.538,0,0,1,2.872,3.06l1.46,5.291a5.427,5.427,0,0,0,4.892,3.972l6.9.434a5.428,5.428,0,0,0,5.35-3.329l2.111-5.066a4.539,4.539,0,0,1,3.232-2.676,48.481,48.481,0,0,0,10.456-3.585,4.543,4.543,0,0,1,4.2.131l4.778,2.711a5.428,5.428,0,0,0,6.268-.65l5.185-4.572a5.428,5.428,0,0,0,1.429-6.138l-2.092-5.081a4.541,4.541,0,0,1,.4-4.183,48.476,48.476,0,0,0,4.866-9.926,4.539,4.539,0,0,1,3.06-2.872l5.29-1.46a5.427,5.427,0,0,0,3.973-4.891l.433-6.9a5.427,5.427,0,0,0-3.329-5.35l-5.066-2.111a4.539,4.539,0,0,1-2.676-3.232,48.431,48.431,0,0,0-3.585-10.456,4.543,4.543,0,0,1,.131-4.2l2.711-4.778a5.427,5.427,0,0,0-.65-6.268l-4.572-5.185a5.428,5.428,0,0,0-6.138-1.429l-5.08,2.092a4.542,4.542,0,0,1-4.183-.4,48.45,48.45,0,0,0-9.925-4.866,4.538,4.538,0,0,1-2.872-3.06l-1.46-5.291a5.428,5.428,0,0,0-4.892-3.973l-6.9-.434a5.427,5.427,0,0,0-5.35,3.329l-2.111,5.066a4.539,4.539,0,0,1-3.232,2.677,48.433,48.433,0,0,0-10.456,3.585,4.542,4.542,0,0,1-4.2-.131l-4.778-2.711a5.428,5.428,0,0,0-6.268.649l-5.185,4.573a5.427,5.427,0,0,0-1.429,6.137l2.092,5.08a4.542,4.542,0,0,1-.4,4.183,48.462,48.462,0,0,0-4.866,9.925,4.538,4.538,0,0,1-3.06,2.872l-5.291,1.46A5.428,5.428,0,0,0,422.155-2654.263Zm18.586.568a40.229,40.229,0,0,1,46.248-33.135,40.229,40.229,0,0,1,33.135,46.248,40.229,40.229,0,0,1-46.248,33.135A40.229,40.229,0,0,1,440.741-2653.7Z" transform="translate(-421.71 2705.861)" fill="#c3b5ec"/>
        </g>
      </g>
      <g id="Grupo_82318" data-name="Grupo 82318" transform="translate(0 5.463)">
        <g id="Grupo_82317" data-name="Grupo 82317" clip-path="url(#clip-path)">
          <g id="Grupo_82316" data-name="Grupo 82316" transform="translate(11.039 5.188)">
            <path id="Trazado_141222" data-name="Trazado 141222" d="M453.607-2599.762a.657.657,0,0,1,1.221-.023c.85,2.031,2.727,5.526,5.86,6.457.158.047.308.1.453.145a1.523,1.523,0,0,0-.358-1.342c-1.1-1.3.324-3.432.324-3.432a4.33,4.33,0,0,0,1.748,2.59,4.163,4.163,0,0,1,1.47,4.538c-.823,6.445-2.191,15.005,7.943,19.859s21.147-14.223,21.147-14.223l-3.941,21.6s-9.176,8.736-22.261-.281-7.206-25.27-7.206-25.27S450.578-2591.638,453.607-2599.762Z" transform="translate(-453.007 2626.58)" fill="url(#linear-gradient)"/>
            <path id="Trazado_141223" data-name="Trazado 141223" d="M559.068-2664.82s-4.248-11.842,10.114-10.372c0,0,6.635-1.959,7.784,4.393,0,0,4.729,2.328,2.227,8.264,0,0,12.348-6.645,19.432,4.02s2.674,17.577-2.57,19.892a5.468,5.468,0,0,1,3.233,6.929c-1.46,5.268-11.6,10.126-18.615,4.826,0,0-17.492,4.587-18.715-8.022,0,0-8.945-4.3-1.561-15.778S559.068-2664.82,559.068-2664.82Z" transform="translate(-520.855 2675.477)" fill="url(#linear-gradient-2)"/>
            <path id="Trazado_141224" data-name="Trazado 141224" d="M554.8-2567.127c2.7-1.193,10.669-3.772,19.337,2.419a4.848,4.848,0,0,1,1.988,4.618c-1.12,7.943-3.772,31.325,2.289,40.537,0,0-7.326,10.445-17.555,4.055,0,0-6.444-17.62-12.9-24.9-4.456-5.026,3.407-21.4,5.418-25.375A2.918,2.918,0,0,1,554.8-2567.127Z" transform="translate(-513.799 2606.122)" fill="#ffba5b"/>
            <path id="Trazado_141225" data-name="Trazado 141225" d="M576.677-2610.543s5.623,11.211,6.585,16.347a8.942,8.942,0,0,1-9.084-.314s-1.926-11.661-2.845-13.677Z" transform="translate(-529.855 2633.305)" fill="url(#linear-gradient-3)"/>
            <path id="Trazado_141226" data-name="Trazado 141226" d="M555.878-2655.077s-8.94,16.546-1.9,20.14,13.405-8.165,13.405-8.165,1.472-8.626-1.514-11.114S555.878-2655.077,555.878-2655.077Z" transform="translate(-516.829 2662.567)" fill="url(#linear-gradient-4)"/>
            <path id="Trazado_141227" data-name="Trazado 141227" d="M567.673-2667.275s-4.835,1.807-5.25,4.15,7.614,3.458,9.8,3.286l2.9,8.879s4.107-9.211,1.432-13.9S567.673-2667.275,567.673-2667.275Z" transform="translate(-524.057 2670.506)" fill="url(#linear-gradient-5)"/>
            <path id="Trazado_141228" data-name="Trazado 141228" d="M590.826-2628.563s3.607-5.421,5.688-2.444-3.1,6.059-5.193,4.732Z" transform="translate(-542.514 2647.176)" fill="url(#linear-gradient-6)"/>
            <path id="Trazado_141229" data-name="Trazado 141229" d="M617.5-2554.493s14.635,9.346,19.815,23.979-17.269,19.08-17.269,19.08-3.507-3.047-7-1.364-1.036-5.957,3.237-6.475,2.72,3.108,8.418-.388c5.551-3.406,8.152-12.109-8.437-22.72a6.853,6.853,0,0,1-2.323-2.451C610.1-2551.809,611.808-2556.914,617.5-2554.493Z" transform="translate(-555.863 2597.299)" fill="url(#linear-gradient-7)"/>
          </g>
        </g>
      </g>
    </g>
    <g id="Grupo_82327" data-name="Grupo 82327" transform="translate(43.617 -2909.897)">
      <circle id="Elipse_4184" data-name="Elipse 4184" cx="49.199" cy="49.199" r="49.199" transform="translate(11.505 10.704)" fill="#fff"/>
      <g id="Grupo_82320" data-name="Grupo 82320" transform="translate(0 0)">
        <path id="Trazado_141231" data-name="Trazado 141231" d="M72.3-2611.366l-.448,7.133A5.611,5.611,0,0,0,75.3-2598.7l5.237,2.183a4.691,4.691,0,0,1,2.767,3.341,50.067,50.067,0,0,0,3.706,10.809,4.694,4.694,0,0,1-.136,4.342l-2.8,4.939a5.612,5.612,0,0,0,.672,6.48l4.726,5.36a5.611,5.611,0,0,0,6.345,1.478l5.252-2.163a4.7,4.7,0,0,1,4.324.409,50.1,50.1,0,0,0,10.26,5.03,4.692,4.692,0,0,1,2.968,3.163l1.509,5.469a5.612,5.612,0,0,0,5.057,4.107l7.132.448a5.611,5.611,0,0,0,5.531-3.442l2.183-5.237a4.691,4.691,0,0,1,3.341-2.767,50.1,50.1,0,0,0,10.809-3.707,4.7,4.7,0,0,1,4.342.135l4.94,2.8a5.611,5.611,0,0,0,6.48-.671l5.36-4.727a5.611,5.611,0,0,0,1.478-6.345l-2.163-5.252a4.7,4.7,0,0,1,.409-4.324,50.109,50.109,0,0,0,5.03-10.26,4.69,4.69,0,0,1,3.163-2.969l5.469-1.51a5.61,5.61,0,0,0,4.107-5.056l.448-7.133a5.611,5.611,0,0,0-3.442-5.531l-5.237-2.182a4.692,4.692,0,0,1-2.766-3.342,50.111,50.111,0,0,0-3.706-10.809,4.7,4.7,0,0,1,.135-4.342l2.8-4.94a5.61,5.61,0,0,0-.672-6.479l-4.726-5.36a5.612,5.612,0,0,0-6.345-1.478l-5.251,2.162a4.7,4.7,0,0,1-4.324-.409,50.1,50.1,0,0,0-10.26-5.03,4.692,4.692,0,0,1-2.968-3.163l-1.51-5.47a5.611,5.611,0,0,0-5.057-4.107l-7.133-.448a5.611,5.611,0,0,0-5.531,3.442l-2.182,5.237a4.691,4.691,0,0,1-3.341,2.767,50.086,50.086,0,0,0-10.809,3.706,4.7,4.7,0,0,1-4.341-.135l-4.94-2.8a5.612,5.612,0,0,0-6.48.671l-5.36,4.727a5.61,5.61,0,0,0-1.477,6.344l2.162,5.251a4.694,4.694,0,0,1-.409,4.324,50.105,50.105,0,0,0-5.03,10.26,4.692,4.692,0,0,1-3.163,2.969l-5.469,1.509A5.611,5.611,0,0,0,72.3-2611.366Zm19.213.588a41.588,41.588,0,0,1,47.81-34.254,41.588,41.588,0,0,1,34.254,47.81,41.588,41.588,0,0,1-47.809,34.254A41.588,41.588,0,0,1,91.515-2610.779Z" transform="translate(-71.842 2664.706)" fill="#c3b5ec"/>
      </g>
      <g id="Grupo_82326" data-name="Grupo 82326" transform="translate(4.08 5.662)">
        <g id="Grupo_82325" data-name="Grupo 82325" clip-path="url(#clip-path-2)">
          <g id="Grupo_82324" data-name="Grupo 82324" transform="translate(26.821 7.138)">
            <path id="Trazado_141232" data-name="Trazado 141232" d="M313.185-2429.363a7.47,7.47,0,0,0,8.73.935l1.544,3.5s-1.55,7.742-9.318,8.443a9.386,9.386,0,0,1-2.285-.085C308.255-2422.185,310.927-2426.834,313.185-2429.363Z" transform="translate(-257.477 2499.061)" fill="url(#linear-gradient-8)"/>
            <path id="Trazado_141233" data-name="Trazado 141233" d="M282.428-2455.879l3.709-22.093c.146.23,3.149,12.26,9.081,17.039-2.258,2.529-4.93,7.178-1.329,12.793C287.608-2449.114,282.428-2455.879,282.428-2455.879Z" transform="translate(-239.51 2530.63)" fill="url(#linear-gradient-9)"/>
            <path id="Trazado_141234" data-name="Trazado 141234" d="M196.453-2515.01a74.962,74.962,0,0,1,31.3-2.03c1.842.263,6.6,10.193,5.895,17.093-1.2,11.686-7.577,31.3-7.805,31.358-7.353,1.952-31.579.305-31.579.305Z" transform="translate(-182.248 2556.498)" fill="#ff7758"/>
            <path id="Trazado_141235" data-name="Trazado 141235" d="M238.932-2562.3l.762,11.838a2.569,2.569,0,0,0,1.783,2.33,16.961,16.961,0,0,0,10.909-.214,1.7,1.7,0,0,0,.918-2.08l-5.636-18.1Z" transform="translate(-211.261 2589.444)" fill="url(#linear-gradient-10)"/>
            <g id="Grupo_82321" data-name="Grupo 82321" transform="translate(17.805)">
              <path id="Trazado_141236" data-name="Trazado 141236" d="M240.179-2602.661s6.349,6.406,8.146,10.364,3.688,6.245-.674,8.877-9.208,1.832-12.908-1.37c0,0-5.757-4.911-5.994-7.746S240.179-2602.661,240.179-2602.661Z" transform="translate(-222.45 2611.61)" fill="url(#linear-gradient-11)"/>
              <path id="Trazado_141237" data-name="Trazado 141237" d="M223.553-2604.889l.591-.23s-4.378-4.052-2.578-5.761,9.61-6.733,10.271-10.453a6,6,0,0,0-5.152-6.858.338.338,0,0,0-.343.3l-.052.445a.341.341,0,0,1-.609.167.34.34,0,0,0-.6.134c-.211,1.118-1.159,3.17-4.936,5.5-5.359,3.307-8.268,7.125-6.812,11.151a.341.341,0,0,1-.391.452c-.527-.094-1.256.049-1.87,1.169-1.067,1.948.924,5.154,5.5,6.648a.339.339,0,0,1,.183.515c-.47.655-1.031,2,1.908,2.351,3.006.364,4.422-.353,4.923-.711a.341.341,0,0,0,.113-.422l-1.591-3.451a.34.34,0,0,1,.186-.46Z" transform="translate(-210.787 2628.191)" fill="url(#linear-gradient-12)"/>
              <path id="Trazado_141238" data-name="Trazado 141238" d="M238.8-2564.994s-3.192-4.427-4.864-2.189,3.288,5.073,5.135,4.567Z" transform="translate(-225.601 2588.979)" fill="url(#linear-gradient-13)"/>
            </g>
            <g id="Grupo_82322" data-name="Grupo 82322" transform="translate(0 41.489)">
              <path id="Trazado_141239" data-name="Trazado 141239" d="M174.3-2475.8c-.739-5.22,4.667-12.894,6.9-15.805a4.842,4.842,0,0,0,1.006-2.9c.065-7.393-3.039-12.141-8.013-15.329,0,0-18.052,21.031-13.456,37.208a13.6,13.6,0,0,0,2.239,4.534C163.707-2474.188,170.752-2475.518,174.3-2475.8Z" transform="translate(-159.994 2509.836)" fill="#ff7758"/>
              <path id="Trazado_141240" data-name="Trazado 141240" d="M200.5-2444.433l-.688-.079c.583-5.119,5.075-11.439,6.979-13.919l.549.422C205.47-2455.574,201.061-2449.38,200.5-2444.433Z" transform="translate(-185.853 2476.45)" fill="#7d97f4"/>
              <path id="Trazado_141241" data-name="Trazado 141241" d="M179.981-2412.017a6.014,6.014,0,0,1-.142-.723c-3.55.281-10.6,1.611-11.32,7.706,8.056,10.655,30.261,6.811,30.261,6.811v-4.146S181.726-2405.537,179.981-2412.017Z" transform="translate(-165.531 2446.776)" fill="url(#linear-gradient-14)"/>
            </g>
            <path id="Trazado_141242" data-name="Trazado 141242" d="M248.756-2382.061s1.207-8.28,9.056-4.992c5.9,2.471,5.323,4.54,5.323,4.54Z" transform="translate(-217.641 2472.084)" fill="url(#linear-gradient-15)"/>
            <g id="Grupo_82323" data-name="Grupo 82323" transform="translate(48.952 48.79)">
              <path id="Trazado_141243" data-name="Trazado 141243" d="M320.985-2477.5l-3.95,24.082a1.093,1.093,0,0,1-.78.879,15.9,15.9,0,0,1-9.049-.044,1.5,1.5,0,0,1-.982-1.169l-4.184-24.269Z" transform="translate(-301.199 2481.873)" fill="#91b3fa"/>
              <path id="Trazado_141244" data-name="Trazado 141244" d="M322.872-2486.256l-.9-2.01a.589.589,0,0,0-.486-.347c-1.756-.151-9.832-.779-15.124-.046a.907.907,0,0,0-.713.552l-.7,1.688Z" transform="translate(-303.086 2489.007)" fill="#7d97f4"/>
              <path id="Trazado_141245" data-name="Trazado 141245" d="M320.139-2482.23l.169,1.659a.721.721,0,0,1-.664.8c-3.057.21-14.776.89-19.534-.63a.682.682,0,0,1-.446-.824l.223-.853a1.075,1.075,0,0,1,1.041-.808l18.556.06A.663.663,0,0,1,320.139-2482.23Z" transform="translate(-299.641 2485.034)" fill="#91b3fa"/>
              <path id="Trazado_141246" data-name="Trazado 141246" d="M320.948-2460.753s-10.843,1.739-16.864,0l-.092-.531-.321.337a.706.706,0,0,0-.182.614l1.763,9.612s7.595,1.826,14.448.117l1.712-9.726a.948.948,0,0,0-.174-.763l-.192-.253Z" transform="translate(-302.133 2471.043)" fill="#7d97f4"/>
              <path id="Trazado_141247" data-name="Trazado 141247" d="M315.419-2447.729a.206.206,0,0,1-.2-.21l.163-8.789a.2.2,0,0,1,.21-.2.206.206,0,0,1,.2.21l-.163,8.789a.206.206,0,0,1-.206.2Zm-2.078-.026a.206.206,0,0,1-.2-.209l.161-8.691a.207.207,0,0,1,.21-.2.206.206,0,0,1,.2.209l-.161,8.691a.206.206,0,0,1-.206.2Zm4.157-.1a.206.206,0,0,1-.2-.209l.163-8.808a.2.2,0,0,1,.21-.2.206.206,0,0,1,.2.21l-.163,8.809a.206.206,0,0,1-.206.2Zm-6.625-.058a.206.206,0,0,1-.2-.21l.158-8.558a.221.221,0,0,1,.21-.2.206.206,0,0,1,.2.209l-.158,8.558a.206.206,0,0,1-.206.2Zm8.259-.139a.206.206,0,0,1-.2-.21l.194-8.767a.2.2,0,0,1,.21-.2.207.207,0,0,1,.2.21l-.194,8.768a.206.206,0,0,1-.206.2Zm-10.639-.354-.621-8.5a.206.206,0,0,1,.19-.22.2.2,0,0,1,.22.19l.621,8.5a.206.206,0,0,1-.19.22H308.7A.206.206,0,0,1,308.494-2448.4Zm11.859.133a.206.206,0,0,1-.188-.222l.745-8.767a.206.206,0,0,1,.223-.188.206.206,0,0,1,.188.222l-.746,8.767a.206.206,0,0,1-.2.189Zm-13.474-.417-1.07-8.593a.206.206,0,0,1,.179-.229.2.2,0,0,1,.23.179l1.071,8.593a.206.206,0,0,1-.179.23h-.026A.206.206,0,0,1,306.878-2448.686Z" transform="translate(-303.645 2468.551)" fill="#fff" style="mix-blend-mode: soft-light;isolation: isolate"/>
            </g>
            <path id="Trazado_141248" data-name="Trazado 141248" d="M343.167-2445.564s-3.344-2.057-5.553-.5c-2.1,1.483,1.328,10.429,2.564,11.3S345.638-2440.827,343.167-2445.564Z" transform="translate(-274.917 2510.286)" fill="url(#linear-gradient-16)"/>
          </g>
        </g>
      </g>
    </g>
    <g id="Grupo_82335" data-name="Grupo 82335" transform="translate(106.834 -3040.916)">
      <circle id="Elipse_4185" data-name="Elipse 4185" cx="45.947" cy="45.947" r="45.947" transform="translate(11.248 11.454)" fill="#fff"/>
      <g id="Grupo_82329" data-name="Grupo 82329">
        <g id="Grupo_82328" data-name="Grupo 82328">
          <path id="Trazado_141250" data-name="Trazado 141250" d="M362.27-2992.974l-5.153-1.422a4.421,4.421,0,0,1-2.98-2.8,47.224,47.224,0,0,0-4.739-9.667,4.423,4.423,0,0,1-.386-4.074l2.037-4.948a5.288,5.288,0,0,0-1.392-5.978l-5.051-4.453a5.287,5.287,0,0,0-6.105-.633l-4.654,2.641a4.424,4.424,0,0,1-4.091.128,47.213,47.213,0,0,0-10.184-3.492,4.42,4.42,0,0,1-3.148-2.606l-2.056-4.935a5.286,5.286,0,0,0-5.211-3.243l-6.72.422a5.287,5.287,0,0,0-4.765,3.869l-1.422,5.153a4.42,4.42,0,0,1-2.8,2.98,47.2,47.2,0,0,0-9.667,4.74,4.424,4.424,0,0,1-4.074.385l-4.948-2.037a5.287,5.287,0,0,0-5.978,1.392l-4.453,5.05a5.287,5.287,0,0,0-.633,6.105l2.641,4.654a4.424,4.424,0,0,1,.128,4.091,47.169,47.169,0,0,0-3.492,10.184,4.421,4.421,0,0,1-2.607,3.148l-4.935,2.056a5.287,5.287,0,0,0-3.243,5.211l.422,6.72a5.286,5.286,0,0,0,3.869,4.764l5.153,1.422a4.42,4.42,0,0,1,2.98,2.8,47.229,47.229,0,0,0,4.739,9.667,4.423,4.423,0,0,1,.386,4.074l-2.037,4.948a5.287,5.287,0,0,0,1.392,5.978l5.05,4.453a5.287,5.287,0,0,0,6.105.633l4.654-2.641a4.424,4.424,0,0,1,4.091-.128,47.191,47.191,0,0,0,10.184,3.492,4.42,4.42,0,0,1,3.148,2.607l2.056,4.935a5.287,5.287,0,0,0,5.211,3.243l6.72-.422a5.286,5.286,0,0,0,4.765-3.869l1.422-5.153a4.42,4.42,0,0,1,2.8-2.98,47.2,47.2,0,0,0,9.667-4.74,4.425,4.425,0,0,1,4.074-.385l4.948,2.037a5.287,5.287,0,0,0,5.978-1.392l4.453-5.05a5.287,5.287,0,0,0,.633-6.105l-2.641-4.654a4.423,4.423,0,0,1-.128-4.091,47.183,47.183,0,0,0,3.492-10.185,4.421,4.421,0,0,1,2.607-3.148l4.934-2.056a5.286,5.286,0,0,0,3.243-5.211l-.422-6.72A5.287,5.287,0,0,0,362.27-2992.974Zm-46.507,50.364a39.184,39.184,0,0,1-45.046-32.274,39.184,39.184,0,0,1,32.274-45.046,39.184,39.184,0,0,1,45.046,32.274A39.184,39.184,0,0,1,315.762-2942.611Z" transform="translate(-252.181 3038.466)" fill="#c3b5ec"/>
        </g>
      </g>
      <g id="Grupo_82334" data-name="Grupo 82334" transform="translate(13.207 13.308)">
        <g id="Grupo_82333" data-name="Grupo 82333" clip-path="url(#clip-path-3)">
          <g id="Grupo_82332" data-name="Grupo 82332" transform="translate(4.798 -0.34)">
            <path id="Trazado_141251" data-name="Trazado 141251" d="M415.4-2896.7s16.935,30.624,41.2,32.84l1.294,3.648s-33.434,6.529-50.561-21.014Z" transform="translate(-370.947 2933.429)" fill="#675d84"/>
            <path id="Trazado_141252" data-name="Trazado 141252" d="M546.032-2805.494a2.347,2.347,0,0,1,2.013-3.4c.084,0,.17,0,.259,0,2.855.107,5.749-.333,6.818-1.065a.767.767,0,0,1,1.085.19c.3.478.061,1.288-2.644,2.467,0,0,5.987,2.333,10.808.042,4.7-2.234-2.089,9.592-16.386,3.917a3.131,3.131,0,0,1-1.644-1.53Z" transform="translate(-460.87 2877.183)" fill="url(#linear-gradient-17)"/>
            <path id="Trazado_141253" data-name="Trazado 141253" d="M361.313-2853.762s15.7-43.01,3.34-52.778c0,0-18.523-2.989-31.993,2.12l1.537,39.44S344.081-2847.6,361.313-2853.762Z" transform="translate(-322.454 2940.382)" fill="#675d84"/>
            <path id="Trazado_141254" data-name="Trazado 141254" d="M382.288-2950.442a51.672,51.672,0,0,0-3.019,10.44,3.087,3.087,0,0,1-2.566,2.633c-2.876.478-7.643.745-10.544-1.9a2.168,2.168,0,0,1-.569-2.33c1.195-3.345,7.406-17.27,10.79-19.405Z" transform="translate(-343.757 2975.191)" fill="url(#linear-gradient-18)"/>
            <g id="Grupo_82330" data-name="Grupo 82330" transform="translate(0 35.961)">
              <path id="Trazado_141255" data-name="Trazado 141255" d="M327.038-2808.262c0,.025,0,.051,0,.076-.051,7.274,9.786,7.969,9.786,7.969s2.813-4.677,6.423-4.829,8.618,5.727,8.618,5.727l-8.01,1.283s-15.275,9.162-25.743-1.723C319.96-2806.537,324.371-2808.018,327.038-2808.262Z" transform="translate(-313.005 2840.029)" fill="url(#linear-gradient-19)"/>
              <path id="Trazado_141256" data-name="Trazado 141256" d="M313.752-2898.885c9.925,3.519,8.488,11.313,8.488,11.313s-4.579,13.165-4.661,20.454c-2.667.244-7.078,1.725-8.928,8.5-.249-.258-.5-.524-.738-.805C295.4-2873.918,313.752-2898.885,313.752-2898.885Z" transform="translate(-303.546 2898.885)" fill="#675d84"/>
              <path id="Trazado_141257" data-name="Trazado 141257" d="M342.864-2843.479a.386.386,0,0,0,.386-.381c.063-5.672,2.889-14.978,4.1-18.715a.386.386,0,0,0-.248-.486.385.385,0,0,0-.486.248c-1.223,3.771-4.075,13.167-4.139,18.945a.386.386,0,0,0,.382.39Z" transform="translate(-328.83 2875.632)" fill="#463c5f"/>
            </g>
            <g id="Grupo_82331" data-name="Grupo 82331" transform="translate(27.833)">
              <path id="Trazado_141258" data-name="Trazado 141258" d="M413.367-2979.863c0,.291-6.5,18.4-6.5,18.4l-10.26-3.931,3.61-18.077S413.367-2984.734,413.367-2979.863Z" transform="translate(-391.819 2989.877)" fill="url(#linear-gradient-20)"/>
              <path id="Trazado_141259" data-name="Trazado 141259" d="M393.815-2990.663l-2.646,9.367a1.348,1.348,0,0,0-.052.366c0,.764.188,3.393,2.866,3.035,2.43-.324,4.652-.584,6.065.081a1.358,1.358,0,0,1,.7,1.689,58.767,58.767,0,0,1-3.7,8.341,1.357,1.357,0,0,1-1.744.559,43.8,43.8,0,0,1-8.8-5.175,1.36,1.36,0,0,1-.481-1.305c.449-2.4,1.789-9.685,1.848-11.773.055-1.96-2.144-3.457-3.113-4.019a1.338,1.338,0,0,1-.629-.845c-.3-1.262-.562-4.117,3.081-4.747a1.361,1.361,0,0,0,1.1-1.619c-.308-1.509-.21-3.73,2.656-4.548a4.981,4.981,0,0,1,5.678,2.266,1.36,1.36,0,0,0,1.686.45,1.076,1.076,0,0,1,1.206.216,1.339,1.339,0,0,0,1.959-.3,4.061,4.061,0,0,1,5-1.653c4.635,1.5,4.414,6.844,2.715,9.75s-6.632.994-8.968-.931c-1.776-1.464-4.479-.588-5.673-.084A1.35,1.35,0,0,0,393.815-2990.663Z" transform="translate(-383.616 3001.472)" fill="url(#linear-gradient-21)"/>
              <path id="Trazado_141260" data-name="Trazado 141260" d="M386.8-2960.234s2.226-5.256.411-6.885-4.345-1.07-4.262,2.988C383.05-2959.084,386.8-2960.234,386.8-2960.234Z" transform="translate(-382.945 2979.715)" fill="url(#linear-gradient-22)"/>
            </g>
          </g>
        </g>
      </g>
    </g>
  </g>
</svg>
