<svg xmlns="http://www.w3.org/2000/svg" width="101.481" height="80" viewBox="0 0 101.481 80">
  <g id="clasificacion" transform="translate(0 -54.189)">
    <g id="Grupo_83725" data-name="Grupo 83725" transform="translate(1.982 56.171)">
      <path id="Trazado_145326" data-name="Trazado 145326" d="M16.392,0A16.4,16.4,0,1,1,0,16.4,16.394,16.394,0,0,1,16.392,0Z" transform="translate(0 43.246)" fill="#ffba5b"/>
      <path id="Trazado_145325" data-name="Trazado 145325" d="M16.392,0A16.4,16.4,0,1,1,0,16.4,16.394,16.394,0,0,1,16.392,0Z" transform="translate(0 0)" fill="#ff7758"/>
      <g id="Grupo_83724" data-name="Grupo 83724" transform="translate(44.153 3.596)">
        <path id="Trazado_145312" data-name="Trazado 145312" d="M286.127,107.93H232.966l-.2-25.6h53.161Z" transform="translate(-232.763 -82.333)" fill="#ffe9cb"/>
        <path id="Trazado_145313" data-name="Trazado 145313" d="M250.454,326.118H232.966l-.2-25.6h53.161l.2,25.6H268.436" transform="translate(-232.763 -257.275)" fill="#ffe9cb"/>
      </g>
    </g>
    <g id="Grupo_83726" data-name="Grupo 83726" transform="translate(0 54.189)">
      <path id="Trazado_145314" data-name="Trazado 145314" d="M277.906,290.521H224.745a1.982,1.982,0,0,0-1.982,2l.2,25.6a1.982,1.982,0,0,0,1.982,1.966h17.488a1.982,1.982,0,0,0,0-3.964H226.914l-.171-21.633h49.2l.171,21.633H260.417a1.982,1.982,0,0,0,0,3.964h17.691a1.982,1.982,0,0,0,1.982-2l-.2-25.6A1.982,1.982,0,0,0,277.906,290.521Z" transform="translate(-178.61 -243.679)"/>
      <path id="Trazado_145315" data-name="Trazado 145315" d="M361.387,420.889a1.982,1.982,0,1,0-.729,2.406A2,2,0,0,0,361.387,420.889Z" transform="translate(-286.704 -347.226)"/>
      <path id="Trazado_145316" data-name="Trazado 145316" d="M18.374,272.377a18.377,18.377,0,1,0,18.374,18.377,18.4,18.4,0,0,0-18.374-18.377Zm0,32.79a14.413,14.413,0,1,1,14.41-14.413,14.428,14.428,0,0,1-14.41,14.413Z" transform="translate(0 -229.131)"/>
      <path id="Trazado_145317" data-name="Trazado 145317" d="M18.374,54.189A18.377,18.377,0,1,0,36.748,72.566,18.4,18.4,0,0,0,18.374,54.189Zm0,32.79a14.413,14.413,0,1,1,14.41-14.413,14.428,14.428,0,0,1-14.41,14.413Z" transform="translate(0 -54.189)"/>
      <path id="Trazado_145318" data-name="Trazado 145318" d="M74.587,118.431a1.982,1.982,0,0,0-2.8,0l-2.375,2.375-2.374-2.375a1.982,1.982,0,1,0-2.8,2.8l2.375,2.375-2.375,2.375a1.982,1.982,0,1,0,2.8,2.8l2.375-2.375,2.375,2.375a1.982,1.982,0,0,0,2.8-2.8l-2.375-2.375,2.375-2.375a1.982,1.982,0,0,0,0-2.8Z" transform="translate(-51.035 -105.232)"/>
      <path id="Trazado_145319" data-name="Trazado 145319" d="M224.948,101.9h53.161a1.982,1.982,0,0,0,1.982-2l-.2-25.6a1.982,1.982,0,0,0-1.982-1.966H224.745a1.982,1.982,0,0,0-1.982,2l.2,25.6a1.982,1.982,0,0,0,1.982,1.966ZM275.94,76.3l.171,21.633h-49.2L226.743,76.3Z" transform="translate(-178.61 -68.738)"/>
      <path id="Trazado_145320" data-name="Trazado 145320" d="M287.526,119.818H319.6a1.982,1.982,0,1,0,0-3.964H287.526a1.982,1.982,0,1,0,0,3.964Z" transform="translate(-228.948 -103.632)"/>
      <path id="Trazado_145321" data-name="Trazado 145321" d="M287.526,161.922h20.666a1.982,1.982,0,1,0,0-3.964H287.526a1.982,1.982,0,1,0,0,3.964Z" transform="translate(-228.948 -137.391)"/>
      <path id="Trazado_145322" data-name="Trazado 145322" d="M287.526,341.228H319.6a1.982,1.982,0,0,0,0-3.964H287.526a1.982,1.982,0,1,0,0,3.964Z" transform="translate(-228.948 -281.157)"/>
      <path id="Trazado_145323" data-name="Trazado 145323" d="M310.174,381.349a1.982,1.982,0,0,0-1.982-1.982H287.526a1.982,1.982,0,0,0,0,3.964h20.666A1.982,1.982,0,0,0,310.174,381.349Z" transform="translate(-228.948 -314.915)"/>
      <path id="Trazado_145324" data-name="Trazado 145324" d="M74.118,339.84a1.983,1.983,0,0,0-2.768.444L68.2,344.64l-1.576-1.5A1.982,1.982,0,0,0,63.885,346l3.219,3.073a1.982,1.982,0,0,0,1.368.549c.06,0,.12,0,.18-.008a1.982,1.982,0,0,0,1.425-.812l4.484-6.2a1.982,1.982,0,0,0-.444-2.768Z" transform="translate(-50.731 -282.921)"/>
    </g>
  </g>
</svg>
