<svg xmlns="http://www.w3.org/2000/svg" xmlns:xlink="http://www.w3.org/1999/xlink" width="241.947" height="242.059" viewBox="0 0 241.947 242.059">
  <defs>
    <linearGradient id="linear-gradient" x1="0.055" y1="0.5" x2="0.945" y2="0.5" gradientUnits="objectBoundingBox">
      <stop offset="0" stop-color="#4f52ff"/>
      <stop offset="1" stop-color="#4042e2"/>
    </linearGradient>
    <linearGradient id="linear-gradient-2" x1="-3.535" y1="0.5" x2="4.535" y2="0.5" xlink:href="#linear-gradient"/>
    <linearGradient id="linear-gradient-3" x1="0.089" y1="0.5" x2="0.911" y2="0.5" xlink:href="#linear-gradient"/>
    <linearGradient id="linear-gradient-4" x1="-4.325" y1="0.5" x2="5.325" y2="0.5" xlink:href="#linear-gradient"/>
    <linearGradient id="linear-gradient-5" x1="1.134" y1="-0.631" x2="-0.366" y2="2.044" xlink:href="#linear-gradient"/>
    <linearGradient id="linear-gradient-6" y1="0.5" x2="1" y2="0.5" gradientUnits="objectBoundingBox">
      <stop offset="0" stop-color="#dae3fe"/>
      <stop offset="1" stop-color="#e9effd"/>
    </linearGradient>
    <clipPath id="clip-path">
      <circle id="Elipse_4175" data-name="Elipse 4175" cx="48.594" cy="48.594" r="48.594" fill="none"/>
    </clipPath>
    <linearGradient id="linear-gradient-7" x1="0.361" y1="1.881" x2="0.51" y2="0.385" gradientUnits="objectBoundingBox">
      <stop offset="0" stop-color="#febbba"/>
      <stop offset="1" stop-color="#ff928e"/>
    </linearGradient>
    <linearGradient id="linear-gradient-8" x1="1.504" y1="-0.425" x2="0.633" y2="0.44" gradientUnits="objectBoundingBox">
      <stop offset="0" stop-color="#09005d"/>
      <stop offset="1" stop-color="#1a0f91"/>
    </linearGradient>
    <linearGradient id="linear-gradient-9" x1="0.53" y1="0.952" x2="0.493" y2="0.191" xlink:href="#linear-gradient-7"/>
    <linearGradient id="linear-gradient-10" x1="0.634" y1="2.157" x2="0.371" y2="-0.947" xlink:href="#linear-gradient-7"/>
    <linearGradient id="linear-gradient-11" x1="0.605" y1="2.226" x2="0.399" y2="-1.045" xlink:href="#linear-gradient-7"/>
    <linearGradient id="linear-gradient-12" x1="-0.382" y1="-2.02" x2="1.066" y2="1.655" xlink:href="#linear-gradient-8"/>
    <linearGradient id="linear-gradient-13" x1="-0.022" y1="-0.9" x2="1.22" y2="2.65" xlink:href="#linear-gradient-8"/>
    <linearGradient id="linear-gradient-14" x1="1.274" y1="0.023" x2="0.383" y2="0.908" xlink:href="#linear-gradient-8"/>
    <linearGradient id="linear-gradient-15" x1="1.486" y1="-0.223" x2="0.537" y2="0.533" xlink:href="#linear-gradient-8"/>
    <linearGradient id="linear-gradient-16" x1="1.101" y1="-0.005" x2="0.119" y2="0.744" xlink:href="#linear-gradient-8"/>
    <linearGradient id="linear-gradient-18" x1="-173.305" y1="0.5" x2="-172.305" y2="0.5" xlink:href="#linear-gradient-7"/>
    <linearGradient id="linear-gradient-19" x1="-258.539" y1="-0.222" x2="-259.358" y2="2.966" xlink:href="#linear-gradient-7"/>
    <linearGradient id="linear-gradient-20" x1="-137.158" y1="-150.762" x2="-138.231" y2="-149.48" xlink:href="#linear-gradient-7"/>
    <linearGradient id="linear-gradient-21" x1="0.33" y1="0.152" x2="0.965" y2="2.043" xlink:href="#linear-gradient-8"/>
    <linearGradient id="linear-gradient-22" x1="-396.217" y1="-499.609" x2="-393.759" y2="-502.258" xlink:href="#linear-gradient-7"/>
    <linearGradient id="linear-gradient-23" x1="-184.108" y1="-1.461" x2="-187.34" y2="3.372" xlink:href="#linear-gradient-7"/>
    <linearGradient id="linear-gradient-24" x1="-183.019" y1="-1.014" x2="-186.228" y2="5.177" xlink:href="#linear-gradient-7"/>
    <linearGradient id="linear-gradient-25" x1="4.339" y1="-0.631" x2="2.839" y2="2.044" xlink:href="#linear-gradient"/>
    <linearGradient id="linear-gradient-26" x1="54.134" y1="0.893" x2="53.04" y2="2.095" xlink:href="#linear-gradient-7"/>
    <linearGradient id="linear-gradient-27" x1="0.369" y1="-0.098" x2="0.634" y2="1.284" xlink:href="#linear-gradient-8"/>
    <linearGradient id="linear-gradient-28" x1="-346.191" y1="29.744" x2="-345.966" y2="28.834" xlink:href="#linear-gradient-7"/>
    <linearGradient id="linear-gradient-29" x1="-199.865" y1="24.26" x2="-198.656" y2="25.424" xlink:href="#linear-gradient-7"/>
    <linearGradient id="linear-gradient-30" x1="0.37" y1="-0.396" x2="1.183" y2="3.847" xlink:href="#linear-gradient-8"/>
    <linearGradient id="linear-gradient-31" x1="-559.466" y1="87.535" x2="-556.09" y2="91.854" xlink:href="#linear-gradient-7"/>
    <linearGradient id="linear-gradient-32" x1="69.555" y1="2.069" x2="72.525" y2="-0.108" xlink:href="#linear-gradient-7"/>
    <linearGradient id="linear-gradient-33" x1="4.662" y1="-0.631" x2="3.162" y2="2.044" xlink:href="#linear-gradient"/>
    <linearGradient id="linear-gradient-34" x1="-38.505" y1="1.133" x2="-37.54" y2="-1.146" xlink:href="#linear-gradient-7"/>
    <linearGradient id="linear-gradient-35" x1="-60.379" y1="1.647" x2="-58.87" y2="-0.283" xlink:href="#linear-gradient-7"/>
    <linearGradient id="linear-gradient-36" x1="-17.366" y1="-0.598" x2="-18.456" y2="0.869" xlink:href="#linear-gradient-7"/>
    <linearGradient id="linear-gradient-37" x1="-33.826" y1="0.153" x2="-36.036" y2="2.844" xlink:href="#linear-gradient-7"/>
    <linearGradient id="linear-gradient-38" x1="-23.136" y1="0.5" x2="-22.136" y2="0.5" xlink:href="#linear-gradient-7"/>
    <linearGradient id="linear-gradient-39" x1="3.106" y1="-1.625" x2="2.061" y2="-0.774" xlink:href="#linear-gradient-8"/>
    <linearGradient id="linear-gradient-40" x1="-63.998" y1="0.5" x2="-62.998" y2="0.5" xlink:href="#linear-gradient-7"/>
    <linearGradient id="linear-gradient-41" x1="42.218" y1="-55.056" x2="43.647" y2="-54.319" xlink:href="#linear-gradient-7"/>
    <linearGradient id="linear-gradient-42" x1="-30.102" y1="0.258" x2="-30.937" y2="-1.677" xlink:href="#linear-gradient-8"/>
    <linearGradient id="linear-gradient-43" x1="179.276" y1="-177.279" x2="185.443" y2="-174.919" xlink:href="#linear-gradient-7"/>
    <linearGradient id="linear-gradient-44" x1="-17.068" y1="0.828" x2="-17.52" y2="-0.614" xlink:href="#linear-gradient-8"/>
    <linearGradient id="linear-gradient-46" x1="0.016" y1="1.099" x2="1.007" y2="0.106" xlink:href="#linear-gradient-7"/>
    <linearGradient id="linear-gradient-47" x1="0.261" y1="0.662" x2="0.91" y2="0.408" xlink:href="#linear-gradient-7"/>
    <linearGradient id="linear-gradient-48" x1="-0.514" y1="1.226" x2="1.024" y2="0.11" xlink:href="#linear-gradient-8"/>
    <linearGradient id="linear-gradient-49" x1="0.756" y1="0.445" x2="3.415" y2="-0.385" xlink:href="#linear-gradient-7"/>
    <linearGradient id="linear-gradient-50" x1="-86.352" y1="-0.394" x2="-85.917" y2="1.885" xlink:href="#linear-gradient-7"/>
    <linearGradient id="linear-gradient-51" x1="-179.643" y1="-3.58" x2="-178.729" y2="2.625" xlink:href="#linear-gradient-7"/>
    <linearGradient id="linear-gradient-52" x1="-76.914" y1="-1.365" x2="-77.12" y2="-0.035" xlink:href="#linear-gradient-8"/>
    <linearGradient id="linear-gradient-53" x1="-210.5" y1="-1.488" x2="-211.066" y2="0.798" xlink:href="#linear-gradient-8"/>
    <linearGradient id="linear-gradient-54" x1="-0.038" y1="-0.676" x2="0.567" y2="0.605" xlink:href="#linear-gradient-8"/>
    <linearGradient id="linear-gradient-55" x1="-139.765" y1="-0.247" x2="-139.381" y2="1.667" xlink:href="#linear-gradient-8"/>
    <linearGradient id="linear-gradient-56" x1="-90.686" y1="-0.421" x2="-89.951" y2="4.282" xlink:href="#linear-gradient-8"/>
  </defs>
  <g id="Grupo_82221" data-name="Grupo 82221" transform="translate(125.304 2050.393)">
    <path id="Trazado_140921" data-name="Trazado 140921" d="M87.736-1842.118a85.339,85.339,0,0,1-13.054,10.991c-42.587,30.556-92.978,21.649-103.687,19.474-15.815-3.212-46.384-9.421-68.485-35.411-33.437-39.322-28.23-101.271-2.295-142.165,4.744-7.481,29.8-49,80.738-55.656,30.824-4.029,66.756,4.1,92.777,25.9C128.349-1973.225,124.461-1880.781,87.736-1842.118Z" transform="translate(-2.86 -2.942)" fill="#ffcbbf"/>
    <g id="Grupo_82186" data-name="Grupo 82186" transform="translate(-76.782 -2050.393)">
      <path id="Trazado_140922" data-name="Trazado 140922" d="M80.953-1912.75s-1.45-30.743-16.17-37.953-41.962-10.436-46.1-54.433c-2.423-25.759-3.863-36.993-4.64-41.882a2.912,2.912,0,0,1,3.21-3.354c13.567,1.571,57.8,8.862,69.024,37.9C99.586-1978.05,80.953-1912.75,80.953-1912.75Z" transform="translate(-14.005 2050.393)" fill="#db993e"/>
      <path id="Trazado_140923" data-name="Trazado 140923" d="M53.828-2017.461c15.627,12.063,34.268,34.052,44.974,56.6,1.434,3.74,5.413,11.629,7.916,25.968a121.916,121.916,0,0,1,1.423,33.27.984.984,0,0,1-1.092.863,1,1,0,0,1-.866-1.072,134.978,134.978,0,0,0-6.562-48.263c-6.758-19.473-20.052-37.874-33.548-53.323l-1.384-1.517c-10.43-11.6-12.448-11.543-11.615-12.462A.561.561,0,0,1,53.828-2017.461Z" transform="translate(-39.356 2029.007)" fill="#b17728"/>
    </g>
    <g id="Grupo_82187" data-name="Grupo 82187" transform="translate(16.632 -1973.404)">
      <path id="Trazado_140924" data-name="Trazado 140924" d="M282.2-1777.12c2.817-5.245,8.2-9.261,11.863-13.952,11.64-14.9,23.011-35.358,36.688-38.092,11.383-2.276,35.447,16.467,43.2,22.819a1.479,1.479,0,0,1-.652,2.6c-6.06,1.183-19.446,4.476-26.324,11.458-9.066,9.2-23.248,10.394-33.549,7.137-5-1.58-10.145-2.967-15.333-1.413a26.5,26.5,0,0,0-8.281,4.566C287.963-1780.593,284.795-1775.677,282.2-1777.12Z" transform="translate(-282.201 1829.354)" fill="#db993e"/>
      <path id="Trazado_140925" data-name="Trazado 140925" d="M377.384-1778.7c-11.259-5.633-25.852-7.155-37.06-1.058l-1.063.585a241.348,241.348,0,0,0-29.162,22.4.338.338,0,0,0-.02.477.344.344,0,0,0,.467.028c6.75-5.427,15.79-12.04,22.751-16.874,7.534-5.309,12.715-8.861,23.34-9.127a51.033,51.033,0,0,1,20.519,4.064.271.271,0,0,0,.355-.143A.272.272,0,0,0,377.384-1778.7Z" transform="translate(-300.311 1799.586)" fill="#b17728"/>
    </g>
    <g id="Grupo_82188" data-name="Grupo 82188" transform="translate(-110.722 -1947.156)">
      <path id="Trazado_140926" data-name="Trazado 140926" d="M4.259-1687.314c1.24.342-8.914-10.729-11.931-21.784s-9.723-29.581-21.866-38.88-22.928-8.026-33.954,5.267c-9.189,11.077-15.146,16.957-19.023,18.657a1.568,1.568,0,0,0-.538,2.459c3.651,4.219,13.417,13.608,25.594,10.126,15.532-4.441,32.373-18.865,40.063-11.6s7.991,12.207,9.057,16.216S-3.946-1689.579,4.259-1687.314Z" transform="translate(83.438 1753.994)" fill="#db993e"/>
      <path id="Trazado_140927" data-name="Trazado 140927" d="M-4.813-1708.735c3.81-5.683,10.671-11.952,17.724-12.61,9.25-.52,16.511,4.141,21.7,12.311a55.478,55.478,0,0,1,4.824,9.849.3.3,0,0,1-.549.245c-1.022-2.051-2.062-4.206-3.386-6.38-8.036-14.138-18.538-13.977-19-14.2-.744.241-6.107-2.2-15.75,6.083a49.627,49.627,0,0,0-5.066,5.071l-.009.01a.313.313,0,0,1-.441.033A.313.313,0,0,1-4.813-1708.735Z" transform="translate(32.233 1732.743)" fill="#b17728"/>
    </g>
    <g id="Grupo_82189" data-name="Grupo 82189" transform="translate(-75.313 -1873.345)">
      <path id="Trazado_140928" data-name="Trazado 140928" d="M21.994-1497.449a.783.783,0,0,1-.959-.419c-.366-.8-.7-1.637-1-2.473a.782.782,0,0,1,.475-1l.014-.005a.782.782,0,0,1,.985.48c.282.8.6,1.586.949,2.35a.782.782,0,0,1-.389,1.036A.79.79,0,0,1,21.994-1497.449Zm-2.111-6.48a.814.814,0,0,1-.09.024.782.782,0,0,1-.925-.607c-.18-.869-.325-1.754-.43-2.631a.782.782,0,0,1,.683-.87.783.783,0,0,1,.87.684c.1.833.238,1.674.409,2.5A.783.783,0,0,1,19.883-1503.929Zm-.632-6.784a.778.778,0,0,1-.263.04.782.782,0,0,1-.767-.8c.017-.885.074-1.781.168-2.663a.783.783,0,0,1,.861-.7.783.783,0,0,1,.7.861c-.089.836-.142,1.687-.159,2.528A.782.782,0,0,1,19.252-1510.713Zm.9-6.756a.779.779,0,0,1-.437.016.782.782,0,0,1-.569-.949c.215-.859.471-1.72.758-2.558a.783.783,0,0,1,.994-.485.782.782,0,0,1,.486.994c-.273.8-.516,1.613-.72,2.43A.782.782,0,0,1,20.153-1517.468Zm2.385-6.385a.779.779,0,0,1-.6-.044.782.782,0,0,1-.344-1.051c.4-.789.839-1.571,1.305-2.325a.781.781,0,0,1,1.077-.254.782.782,0,0,1,.254,1.077c-.443.717-.861,1.461-1.241,2.21A.779.779,0,0,1,22.538-1523.854Zm3.738-5.7a.781.781,0,0,1-.748-.139.782.782,0,0,1-.1-1.1c.565-.682,1.166-1.348,1.787-1.979a.782.782,0,0,1,1.106-.009.782.782,0,0,1,.009,1.106c-.59.6-1.162,1.232-1.7,1.88A.777.777,0,0,1,26.276-1529.552Zm26.6-10.847a.782.782,0,0,1-.329.036c-.836-.087-1.687-.14-2.529-.155a.782.782,0,0,1-.768-.8.782.782,0,0,1,.8-.768c.887.016,1.783.07,2.663.162a.782.782,0,0,1,.7.859A.781.781,0,0,1,52.875-1540.4Zm-21.695,6.122a.782.782,0,0,1-.868-.266.783.783,0,0,1,.145-1.1c.7-.539,1.437-1.054,2.183-1.531a.784.784,0,0,1,1.08.238.782.782,0,0,1-.238,1.08c-.708.452-1.406.941-2.073,1.453A.777.777,0,0,1,31.18-1534.276Zm14.88-6.062a.785.785,0,0,1-.154.035c-.835.1-1.676.241-2.5.414a.782.782,0,0,1-.926-.605.782.782,0,0,1,.605-.926c.868-.181,1.753-.328,2.632-.435a.782.782,0,0,1,.871.682A.782.782,0,0,1,46.061-1540.338Zm-9.043,2.551a.783.783,0,0,1-.959-.417.783.783,0,0,1,.386-1.037c.8-.368,1.636-.705,2.471-1l.016-.005a.782.782,0,0,1,.984.479.782.782,0,0,1-.473,1c-.793.284-1.583.6-2.347.954A.818.818,0,0,1,37.018-1537.787Z" transform="translate(-18.222 1542.081)" fill="#675d84"/>
      <path id="Trazado_140929" data-name="Trazado 140929" d="M129-1537.662a.778.778,0,0,1-.467.009c-.387-.114-.783-.221-1.177-.32a.782.782,0,0,1-.569-.948.782.782,0,0,1,.949-.569c.414.1.83.216,1.238.335a.783.783,0,0,1,.53.971A.782.782,0,0,1,129-1537.662Z" transform="translate(-88.958 1540.408)" fill="#675d84"/>
    </g>
    <g id="Grupo_82190" data-name="Grupo 82190" transform="translate(-54.745 -1858.104)">
      <path id="Trazado_140930" data-name="Trazado 140930" d="M183.095-1495.7a.783.783,0,0,1-.94-.38c-.187-.358-.384-.717-.587-1.069a.782.782,0,0,1,.288-1.068.781.781,0,0,1,1.068.288c.213.37.421.749.618,1.125a.782.782,0,0,1-.332,1.055A.831.831,0,0,1,183.095-1495.7Z" transform="translate(-145.174 1498.323)" fill="#675d84"/>
      <path id="Trazado_140931" data-name="Trazado 140931" d="M107.73-1443.52q-.512.172-1.034.326a.782.782,0,0,1-.972-.527.783.783,0,0,1,.527-.973c.8-.238,1.594-.509,2.36-.807a.782.782,0,0,1,1.013.445.782.782,0,0,1-.445,1.013C108.7-1443.859,108.217-1443.683,107.73-1443.52Zm-5.064,1.229a.808.808,0,0,1-.13.031c-.862.133-1.74.231-2.609.291a.782.782,0,0,1-.835-.726.782.782,0,0,1,.727-.834c.825-.057,1.659-.151,2.479-.277a.782.782,0,0,1,.892.654A.783.783,0,0,1,102.666-1442.292ZM112.9-1445.8a.782.782,0,0,1-.93-.361.783.783,0,0,1,.3-1.064c.722-.4,1.436-.841,2.124-1.3a.783.783,0,0,1,1.086.212.782.782,0,0,1-.211,1.086c-.724.488-1.476.95-2.236,1.373A.749.749,0,0,1,112.9-1445.8Zm-16.937,3.794a.78.78,0,0,1-.3.038c-.87-.06-1.748-.157-2.609-.29a.782.782,0,0,1-.654-.892.782.782,0,0,1,.892-.654c.818.126,1.652.219,2.478.275a.782.782,0,0,1,.727.834A.782.782,0,0,1,95.964-1442.006Zm22.395-7.685a.782.782,0,0,1-.831-.22.782.782,0,0,1,.061-1.1c.615-.551,1.216-1.136,1.785-1.739a.782.782,0,0,1,1.106-.032.783.783,0,0,1,.032,1.106c-.6.635-1.231,1.251-1.879,1.831A.782.782,0,0,1,118.359-1449.69Zm4.472-4.994a.782.782,0,0,1-.7-.105.782.782,0,0,1-.182-1.091c.481-.675.94-1.377,1.363-2.088a.782.782,0,0,1,1.072-.272.783.783,0,0,1,.272,1.073c-.445.748-.928,1.488-1.435,2.2A.781.781,0,0,1,122.83-1454.685Zm3.277-5.85a.78.78,0,0,1-.553-.022.782.782,0,0,1-.415-1.026c.324-.763.619-1.549.876-2.335a.782.782,0,0,1,.987-.5.782.782,0,0,1,.5.987c-.272.827-.582,1.654-.922,2.457A.781.781,0,0,1,126.107-1460.535Zm1.922-6.425a.778.778,0,0,1-.388.028.782.782,0,0,1-.629-.91c.149-.816.264-1.646.343-2.47a.783.783,0,0,1,.853-.7.782.782,0,0,1,.7.853c-.083.867-.2,1.742-.361,2.6A.782.782,0,0,1,128.029-1466.96Zm.465-6.693a.779.779,0,0,1-.215.039.782.782,0,0,1-.814-.749c-.035-.826-.105-1.661-.21-2.483a.783.783,0,0,1,.677-.874.782.782,0,0,1,.875.677c.11.866.184,1.745.22,2.614A.783.783,0,0,1,128.494-1473.653Zm-1.016-6.627-.046.014a.783.783,0,0,1-.958-.553c-.157-.589-.335-1.181-.528-1.757q-.1-.314-.216-.623a.782.782,0,0,1,.473-1,.773.773,0,0,1,1,.472c.078.217.154.435.227.655.2.607.39,1.229.555,1.849A.782.782,0,0,1,127.478-1480.28Z" transform="translate(-87.126 1489.152)" fill="#675d84"/>
      <path id="Trazado_140932" data-name="Trazado 140932" d="M79.5-1369.985a.778.778,0,0,1-.471.008c-.406-.121-.817-.253-1.222-.393a.782.782,0,0,1-.485-.994.782.782,0,0,1,.994-.485c.385.132.775.258,1.16.373a.782.782,0,0,1,.526.973A.781.781,0,0,1,79.5-1369.985Z" transform="translate(-77.275 1415.929)" fill="#675d84"/>
    </g>
    <path id="Trazado_140933" data-name="Trazado 140933" d="M53.6-1475.7a.366.366,0,0,0,.424-.024l3.475-2.779a19.389,19.389,0,0,0,6.188,1.073l2.337,3.783a.366.366,0,0,0,.392.164l5.207-1.172a.366.366,0,0,0,.283-.317l.491-4.42a19.382,19.382,0,0,0,5.132-3.621l4.33,1.024a.366.366,0,0,0,.393-.161l2.853-4.511a.366.366,0,0,0-.023-.424l-2.78-3.475a19.374,19.374,0,0,0,1.073-6.187l3.783-2.338a.365.365,0,0,0,.164-.391l-1.172-5.207a.365.365,0,0,0-.316-.283l-4.42-.491a19.383,19.383,0,0,0-3.62-5.132l1.023-4.331a.366.366,0,0,0-.16-.393l-4.511-2.854a.366.366,0,0,0-.424.024l-3.475,2.779a19.379,19.379,0,0,0-6.188-1.073l-2.337-3.783a.366.366,0,0,0-.391-.164l-5.208,1.172a.364.364,0,0,0-.283.316l-.491,4.42a19.38,19.38,0,0,0-5.132,3.62l-4.33-1.023a.366.366,0,0,0-.393.161l-2.853,4.51a.365.365,0,0,0,.023.424l2.78,3.475a19.385,19.385,0,0,0-1.073,6.188l-3.783,2.338a.366.366,0,0,0-.165.391l1.172,5.207a.365.365,0,0,0,.316.283l4.42.491a19.369,19.369,0,0,0,3.62,5.131l-1.023,4.331a.365.365,0,0,0,.16.393Z" transform="translate(-107.999 -345.397)" fill="#c3b5ec"/>
    <path id="Trazado_140934" data-name="Trazado 140934" d="M99.426-1458a5.373,5.373,0,0,1-6.483-2.667,5.371,5.371,0,0,1,2.363-7.21,5.329,5.329,0,0,1,4.095-.312,5.329,5.329,0,0,1,3.116,2.675,5.372,5.372,0,0,1-2.364,7.21A5.45,5.45,0,0,1,99.426-1458Zm-2.991-9a4.238,4.238,0,0,0-.563.235,4.119,4.119,0,0,0-1.812,5.528,4.118,4.118,0,0,0,5.528,1.813,4.119,4.119,0,0,0,1.812-5.529A4.084,4.084,0,0,0,99.011-1467,4.083,4.083,0,0,0,96.435-1466.993Z" transform="translate(-141.854 -379.246)" fill="#fff"/>
    <path id="Trazado_140935" data-name="Trazado 140935" d="M87.434-1465.518a13.455,13.455,0,0,1-1.306.364h0q-.209.047-.421.088a13.283,13.283,0,0,1-2.1.231h-.029l-.082,0-.159,0a.313.313,0,0,1-.3-.214.316.316,0,0,1-.016-.1.313.313,0,0,1,.31-.316,12.621,12.621,0,0,0,2.658-.309,12.566,12.566,0,0,0,9.066-8.016,12.487,12.487,0,0,0,.435-7,12.687,12.687,0,0,0-.347-1.246,12.471,12.471,0,0,0-5.195-6.615,12.485,12.485,0,0,0-9.477-1.64,12.579,12.579,0,0,0-9.5,15.019,12.512,12.512,0,0,0,.343,1.23,12.526,12.526,0,0,0,2.811,4.675.318.318,0,0,1,.07.117.312.312,0,0,1-.081.325.312.312,0,0,1-.442-.01,13.155,13.155,0,0,1-2.952-4.907,13.233,13.233,0,0,1-.36-1.291,13.209,13.209,0,0,1,9.974-15.767,13.1,13.1,0,0,1,9.949,1.722,13.091,13.091,0,0,1,5.453,6.944,13.43,13.43,0,0,1,.364,1.308,13.106,13.106,0,0,1-1.721,9.949A13.092,13.092,0,0,1,87.434-1465.518Z" transform="translate(-127.303 -364.409)" fill="#fff"/>
    <g id="Grupo_82191" data-name="Grupo 82191" transform="translate(-21.576 -1892.284)">
      <path id="Trazado_140936" data-name="Trazado 140936" d="M175.409-1562.073a.6.6,0,0,1-.739-.322c-.282-.62-.541-1.261-.77-1.906a.6.6,0,0,1,.366-.77l.011,0a.6.6,0,0,1,.759.37c.218.613.464,1.222.731,1.811a.6.6,0,0,1-.3.8A.567.567,0,0,1,175.409-1562.073Zm-1.626-4.992a.624.624,0,0,1-.069.018.6.6,0,0,1-.713-.468c-.139-.669-.25-1.351-.332-2.027a.6.6,0,0,1,.526-.67.6.6,0,0,1,.67.526c.077.642.183,1.29.315,1.926A.6.6,0,0,1,173.783-1567.064Zm-.487-5.226a.6.6,0,0,1-.2.031.6.6,0,0,1-.591-.615c.014-.682.057-1.372.129-2.051a.6.6,0,0,1,.663-.536.6.6,0,0,1,.535.663c-.068.644-.11,1.3-.122,1.947A.6.6,0,0,1,173.3-1572.291Zm.694-5.2a.594.594,0,0,1-.336.012.6.6,0,0,1-.438-.731c.166-.662.363-1.325.584-1.971a.6.6,0,0,1,.766-.374.6.6,0,0,1,.374.766c-.21.612-.4,1.242-.554,1.872A.6.6,0,0,1,173.99-1577.495Zm1.838-4.919a.6.6,0,0,1-.464-.034.6.6,0,0,1-.265-.81c.308-.607.646-1.21,1.006-1.791a.6.6,0,0,1,.829-.2.6.6,0,0,1,.2.83c-.342.553-.663,1.125-.956,1.7A.6.6,0,0,1,175.828-1582.414Zm2.879-4.39a.6.6,0,0,1-.576-.107.6.6,0,0,1-.079-.849c.435-.525.9-1.038,1.377-1.525a.6.6,0,0,1,.852-.007.6.6,0,0,1,.007.852c-.455.462-.895.949-1.308,1.449A.6.6,0,0,1,178.707-1586.8Zm20.491-8.356a.6.6,0,0,1-.253.027c-.644-.068-1.3-.108-1.948-.119a.6.6,0,0,1-.592-.614.6.6,0,0,1,.613-.592c.683.012,1.374.054,2.052.125a.6.6,0,0,1,.536.662A.6.6,0,0,1,199.2-1595.159Zm-16.713,4.716a.6.6,0,0,1-.669-.205.6.6,0,0,1,.112-.845c.541-.415,1.107-.812,1.682-1.179a.6.6,0,0,1,.832.183.6.6,0,0,1-.184.832c-.546.349-1.083.726-1.6,1.12A.6.6,0,0,1,182.486-1590.443Zm11.463-4.67a.6.6,0,0,1-.118.027c-.643.079-1.291.186-1.927.319a.6.6,0,0,1-.713-.467.6.6,0,0,1,.466-.713c.668-.14,1.351-.253,2.027-.336a.6.6,0,0,1,.672.525A.6.6,0,0,1,193.949-1595.113Zm-6.966,1.965a.6.6,0,0,1-.738-.321.6.6,0,0,1,.3-.8c.62-.283,1.26-.543,1.9-.773l.012,0a.6.6,0,0,1,.758.368.6.6,0,0,1-.365.771c-.611.218-1.219.466-1.808.735C187.023-1593.163,187-1593.155,186.983-1593.148Z" transform="translate(-172.503 1596.456)" fill="#675d84"/>
      <path id="Trazado_140937" data-name="Trazado 140937" d="M257.844-1593.052a.6.6,0,0,1-.36.006c-.3-.087-.6-.17-.906-.246a.6.6,0,0,1-.439-.731.6.6,0,0,1,.731-.438c.319.079.64.167.954.259a.6.6,0,0,1,.409.748A.6.6,0,0,1,257.844-1593.052Z" transform="translate(-226.996 1595.167)" fill="#675d84"/>
    </g>
    <g id="Grupo_82192" data-name="Grupo 82192" transform="translate(-5.731 -1880.543)">
      <path id="Trazado_140938" data-name="Trazado 140938" d="M299.517-1560.726a.6.6,0,0,1-.724-.293c-.144-.275-.3-.553-.452-.823a.6.6,0,0,1,.222-.823.6.6,0,0,1,.823.222c.164.285.324.577.475.867a.6.6,0,0,1-.255.813A.6.6,0,0,1,299.517-1560.726Z" transform="translate(-270.303 1562.746)" fill="#675d84"/>
      <path id="Trazado_140939" data-name="Trazado 140939" d="M241.457-1520.527q-.394.131-.8.251a.6.6,0,0,1-.75-.406.6.6,0,0,1,.406-.75c.618-.184,1.228-.392,1.818-.622a.6.6,0,0,1,.78.343.6.6,0,0,1-.343.78C242.208-1520.788,241.833-1520.652,241.457-1520.527Zm-3.9.946a.622.622,0,0,1-.1.024c-.665.1-1.341.178-2.01.224a.6.6,0,0,1-.643-.559.6.6,0,0,1,.56-.643c.636-.044,1.278-.116,1.909-.213a.6.6,0,0,1,.688.5A.6.6,0,0,1,237.556-1519.581Zm7.885-2.7a.6.6,0,0,1-.717-.278.6.6,0,0,1,.233-.82c.556-.31,1.107-.648,1.636-1a.6.6,0,0,1,.837.163.6.6,0,0,1-.163.837c-.558.376-1.138.731-1.723,1.058A.631.631,0,0,1,245.442-1522.283Zm-13.048,2.923a.609.609,0,0,1-.232.029c-.67-.046-1.347-.121-2.01-.223a.6.6,0,0,1-.5-.687.6.6,0,0,1,.687-.5c.63.1,1.272.168,1.909.212a.6.6,0,0,1,.56.642A.6.6,0,0,1,232.393-1519.36Zm17.252-5.92a.6.6,0,0,1-.64-.17.6.6,0,0,1,.047-.851c.474-.425.937-.875,1.375-1.34a.6.6,0,0,1,.852-.025.6.6,0,0,1,.025.852c-.462.489-.948.964-1.448,1.411A.6.6,0,0,1,249.646-1525.28Zm3.445-3.847a.6.6,0,0,1-.542-.081.6.6,0,0,1-.14-.841c.371-.52.724-1.061,1.05-1.609a.6.6,0,0,1,.826-.21.6.6,0,0,1,.21.826c-.343.577-.715,1.146-1.105,1.693A.6.6,0,0,1,253.09-1529.128Zm2.524-4.507a.6.6,0,0,1-.426-.017.6.6,0,0,1-.32-.79c.249-.589.477-1.193.675-1.8a.6.6,0,0,1,.761-.385.6.6,0,0,1,.385.761c-.209.637-.448,1.274-.711,1.893A.6.6,0,0,1,255.614-1533.635Zm1.481-4.95a.6.6,0,0,1-.3.021.6.6,0,0,1-.484-.7c.115-.628.2-1.268.264-1.9a.6.6,0,0,1,.657-.542.6.6,0,0,1,.542.657c-.064.668-.158,1.342-.278,2A.6.6,0,0,1,257.1-1538.584Zm.358-5.156a.6.6,0,0,1-.166.03.6.6,0,0,1-.627-.577c-.027-.636-.081-1.28-.162-1.913a.6.6,0,0,1,.522-.674.6.6,0,0,1,.674.522c.085.667.142,1.344.17,2.014A.6.6,0,0,1,257.454-1543.74Zm-.783-5.106-.036.011a.6.6,0,0,1-.738-.427c-.122-.454-.258-.909-.407-1.354q-.08-.242-.166-.48a.6.6,0,0,1,.364-.771.6.6,0,0,1,.77.364c.06.168.118.336.175.505.156.468.3.947.428,1.424A.6.6,0,0,1,256.671-1548.846Z" transform="translate(-225.584 1555.681)" fill="#675d84"/>
      <path id="Trazado_140940" data-name="Trazado 140940" d="M219.706-1463.877a.6.6,0,0,1-.363.006c-.312-.093-.629-.2-.941-.3a.6.6,0,0,1-.374-.766.6.6,0,0,1,.766-.374c.3.1.6.2.894.287a.6.6,0,0,1,.4.75A.6.6,0,0,1,219.706-1463.877Z" transform="translate(-217.995 1499.271)" fill="#675d84"/>
    </g>
    <path id="Trazado_140941" data-name="Trazado 140941" d="M199.758-1545.32a.282.282,0,0,0,.326-.018l2.677-2.141a14.946,14.946,0,0,0,4.767.827l1.8,2.914a.281.281,0,0,0,.3.127l4.011-.9a.282.282,0,0,0,.218-.243l.378-3.4a14.938,14.938,0,0,0,3.953-2.79l3.336.788a.282.282,0,0,0,.3-.123l2.2-3.475a.281.281,0,0,0-.018-.327l-2.141-2.677a14.927,14.927,0,0,0,.827-4.767l2.915-1.8a.282.282,0,0,0,.127-.3l-.9-4.012a.282.282,0,0,0-.244-.218l-3.4-.378a14.919,14.919,0,0,0-2.789-3.953l.788-3.337a.283.283,0,0,0-.124-.3l-3.475-2.2a.28.28,0,0,0-.326.018l-2.677,2.141a14.925,14.925,0,0,0-4.767-.827l-1.8-2.915a.282.282,0,0,0-.3-.127l-4.012.9a.281.281,0,0,0-.218.243l-.379,3.405a14.943,14.943,0,0,0-3.953,2.789l-3.336-.788a.281.281,0,0,0-.3.124l-2.2,3.475a.283.283,0,0,0,.018.327l2.141,2.677a14.947,14.947,0,0,0-.827,4.767l-2.914,1.8a.282.282,0,0,0-.127.3l.9,4.011a.282.282,0,0,0,.244.218l3.4.379a14.932,14.932,0,0,0,2.789,3.953l-.788,3.336a.282.282,0,0,0,.124.3Z" transform="translate(-205.221 -306.716)" fill="#c3b5ec"/>
    <path id="Trazado_140942" data-name="Trazado 140942" d="M235.06-1531.68a4.139,4.139,0,0,1-4.994-2.054,4.138,4.138,0,0,1,1.821-5.555,4.1,4.1,0,0,1,3.154-.24,4.106,4.106,0,0,1,2.4,2.061,4.138,4.138,0,0,1-1.821,5.555A4.161,4.161,0,0,1,235.06-1531.68Zm-2.3-6.93a3.185,3.185,0,0,0-.434.181,3.173,3.173,0,0,0-1.4,4.259,3.172,3.172,0,0,0,4.259,1.4,3.173,3.173,0,0,0,1.4-4.259,3.148,3.148,0,0,0-1.84-1.58A3.143,3.143,0,0,0,232.755-1538.61Z" transform="translate(-231.302 -332.792)" fill="#fff"/>
    <path id="Trazado_140943" data-name="Trazado 140943" d="M225.822-1537.474a10.283,10.283,0,0,1-1.006.281h0c-.108.024-.216.047-.324.068a10.219,10.219,0,0,1-1.618.178h-.085l-.122,0a.241.241,0,0,1-.231-.164.239.239,0,0,1-.012-.075.241.241,0,0,1,.239-.243,9.73,9.73,0,0,0,2.048-.238,9.682,9.682,0,0,0,6.984-6.175,9.624,9.624,0,0,0,.335-5.4,9.8,9.8,0,0,0-.267-.96,9.608,9.608,0,0,0-4-5.1,9.617,9.617,0,0,0-7.3-1.263,9.691,9.691,0,0,0-7.319,11.57,9.629,9.629,0,0,0,.264.947,9.65,9.65,0,0,0,2.165,3.6.24.24,0,0,1,.054.09.242.242,0,0,1-.062.251.241.241,0,0,1-.341-.008,10.136,10.136,0,0,1-2.274-3.781,10.221,10.221,0,0,1-.277-.994,10.176,10.176,0,0,1,7.683-12.147,10.1,10.1,0,0,1,7.665,1.326,10.088,10.088,0,0,1,4.2,5.35q.165.493.281,1.008a10.1,10.1,0,0,1-1.326,7.665A10.088,10.088,0,0,1,225.822-1537.474Z" transform="translate(-220.093 -321.362)" fill="#fff"/>
    <g id="Grupo_82193" data-name="Grupo 82193" transform="translate(-6.788 -2035.814)">
      <path id="Trazado_140944" data-name="Trazado 140944" d="M230.268-1920.812a.439.439,0,0,1-.522-.068c-.267-.26-.53-.532-.782-.809a.439.439,0,0,1,.029-.621.439.439,0,0,1,.621.029c.24.263.49.522.745.771a.44.44,0,0,1,.008.622A.44.44,0,0,1,230.268-1920.812Z" transform="translate(-224.013 1952.417)" fill="#675d84"/>
      <path id="Trazado_140945" data-name="Trazado 140945" d="M219.023-1979.5a.44.44,0,0,1-.574-.13,19.172,19.172,0,0,1-1.033-1.634c-.066-.118-.131-.237-.2-.356a.455.455,0,0,1,.18-.6.439.439,0,0,1,.595.18c.062.115.124.228.187.341a18.332,18.332,0,0,0,.985,1.559.439.439,0,0,1-.105.612Zm-2.154-4.022a.449.449,0,0,1-.057.027.44.44,0,0,1-.569-.251,19.011,19.011,0,0,1-.71-2.229.441.441,0,0,1,.319-.534.439.439,0,0,1,.533.319,18.226,18.226,0,0,0,.678,2.126A.44.44,0,0,1,216.869-1983.524Zm-1.114-4.425a.447.447,0,0,1-.162.053.439.439,0,0,1-.49-.383,18.969,18.969,0,0,1-.141-2.336.439.439,0,0,1,.44-.438.439.439,0,0,1,.439.44,18.035,18.035,0,0,0,.134,2.228A.44.44,0,0,1,215.755-1987.948Zm.007-4.564a.436.436,0,0,1-.27.053.44.44,0,0,1-.381-.491,18.985,18.985,0,0,1,.435-2.3.44.44,0,0,1,.534-.318.439.439,0,0,1,.318.534,18.131,18.131,0,0,0-.415,2.193A.438.438,0,0,1,215.762-1992.512Zm1.122-4.423a.438.438,0,0,1-.375.027.44.44,0,0,1-.25-.569,19.149,19.149,0,0,1,.98-2.124.439.439,0,0,1,.6-.179.44.44,0,0,1,.179.6,18.352,18.352,0,0,0-.935,2.026A.436.436,0,0,1,216.884-1996.936Zm2.161-4.017a.438.438,0,0,1-.47-.024.439.439,0,0,1-.1-.612,18.987,18.987,0,0,1,1.468-1.82.44.44,0,0,1,.621-.027.439.439,0,0,1,.028.62,18.038,18.038,0,0,0-1.4,1.735A.436.436,0,0,1,219.045-2000.952Zm3.077-3.365a.439.439,0,0,1-.549-.1.44.44,0,0,1,.049-.62,19.106,19.106,0,0,1,1.87-1.405.442.442,0,0,1,.609.126.44.44,0,0,1-.125.609,17.981,17.981,0,0,0-1.784,1.34A.466.466,0,0,1,222.122-2004.317Zm5.918-3.4a.416.416,0,0,1-.071.032,18.2,18.2,0,0,0-1.794.74c-.089.042-.176.083-.262.127a.44.44,0,0,1-.589-.2.435.435,0,0,1,.2-.589c.092-.046.184-.091.278-.134a19.07,19.07,0,0,1,1.879-.774.439.439,0,0,1,.56.269A.44.44,0,0,1,228.04-2007.713Z" transform="translate(-214.962 2008.535)" fill="#675d84"/>
    </g>
    <g id="Grupo_82194" data-name="Grupo 82194" transform="translate(9.165 -2019.196)">
      <path id="Trazado_140946" data-name="Trazado 140946" d="M279.617-1943.091a.439.439,0,0,1-.6-.162.439.439,0,0,1,.159-.6,18.2,18.2,0,0,0,1.828-1.214.442.442,0,0,1,.616.086.44.44,0,0,1-.086.616,19.209,19.209,0,0,1-1.917,1.272Zm-2.009,1.01-.043.021a19.222,19.222,0,0,1-2.165.78.439.439,0,0,1-.545-.3.441.441,0,0,1,.3-.546,18.474,18.474,0,0,0,2.066-.744.44.44,0,0,1,.577.23A.44.44,0,0,1,277.608-1942.08Zm5.589-3.715a.44.44,0,0,1-.531-.077.44.44,0,0,1,.01-.622,18.154,18.154,0,0,0,1.481-1.62.439.439,0,0,1,.618-.065.439.439,0,0,1,.066.618,19.084,19.084,0,0,1-1.553,1.7A.436.436,0,0,1,283.2-1945.8Zm-9.9,4.978a.445.445,0,0,1-.144.051,18.925,18.925,0,0,1-2.29.234.44.44,0,0,1-.457-.421.44.44,0,0,1,.421-.457,17.958,17.958,0,0,0,2.184-.223.44.44,0,0,1,.505.362A.44.44,0,0,1,273.3-1940.818Zm12.717-8.468a.438.438,0,0,1-.449-.01.439.439,0,0,1-.14-.6,18.083,18.083,0,0,0,1.047-1.929.439.439,0,0,1,.584-.212.439.439,0,0,1,.212.584,19.128,19.128,0,0,1-1.1,2.022A.441.441,0,0,1,286.017-1949.286Zm1.9-4.065a.436.436,0,0,1-.353.035.439.439,0,0,1-.281-.554,18.324,18.324,0,0,0,.556-2.124.44.44,0,0,1,.517-.346.439.439,0,0,1,.345.516,19.155,19.155,0,0,1-.583,2.227A.437.437,0,0,1,287.917-1953.351Zm.872-4.4a.436.436,0,0,1-.248.055.44.44,0,0,1-.406-.471,17.885,17.885,0,0,0,.03-2.195.439.439,0,0,1,.418-.459.439.439,0,0,1,.46.418,18.962,18.962,0,0,1-.031,2.3A.441.441,0,0,1,288.788-1957.754Z" transform="translate(-267.047 1960.825)" fill="#675d84"/>
      <path id="Trazado_140947" data-name="Trazado 140947" d="M262.507-1904.627a.434.434,0,0,1-.251.055c-.375-.031-.75-.073-1.117-.125a.44.44,0,0,1-.373-.5.441.441,0,0,1,.5-.374c.349.05.708.09,1.065.12a.439.439,0,0,1,.4.474A.439.439,0,0,1,262.507-1904.627Z" transform="translate(-260.761 1924.817)" fill="#675d84"/>
    </g>
    <path id="Trazado_140948" data-name="Trazado 140948" d="M239.614-1969.521a.222.222,0,0,0,.25-.063l1.757-2.062a11.787,11.787,0,0,0,3.822-.072l1.833,1.992a.221.221,0,0,0,.253.053l2.977-1.3a.224.224,0,0,0,.133-.222l-.216-2.7a11.8,11.8,0,0,0,2.65-2.755l2.706.112a.222.222,0,0,0,.216-.141l1.186-3.025a.223.223,0,0,0-.063-.25l-2.062-1.757a11.8,11.8,0,0,0-.072-3.822l1.992-1.832a.223.223,0,0,0,.053-.253l-1.3-2.977a.222.222,0,0,0-.222-.133l-2.7.216a11.8,11.8,0,0,0-2.755-2.65l.113-2.706a.223.223,0,0,0-.141-.217L247-1997.268a.223.223,0,0,0-.251.063l-1.756,2.062a11.789,11.789,0,0,0-3.822.072l-1.833-1.992a.223.223,0,0,0-.253-.053l-2.977,1.3a.223.223,0,0,0-.133.222l.216,2.7a11.8,11.8,0,0,0-2.65,2.755l-2.706-.113a.223.223,0,0,0-.217.142l-1.185,3.024a.222.222,0,0,0,.063.25l2.062,1.757a11.807,11.807,0,0,0,.072,3.822l-1.992,1.833a.223.223,0,0,0-.053.253l1.3,2.977a.224.224,0,0,0,.222.133l2.7-.216a11.8,11.8,0,0,0,2.755,2.65l-.113,2.706a.222.222,0,0,0,.141.216Z" transform="translate(-231.17 -34.612)" fill="#c3b5ec"/>
    <path id="Trazado_140949" data-name="Trazado 140949" d="M264.7-1960.724a3.3,3.3,0,0,1-2.044.4,3.3,3.3,0,0,1-2.209-1.262,3.328,3.328,0,0,1,.592-4.664,3.329,3.329,0,0,1,4.664.593,3.3,3.3,0,0,1,.67,2.454,3.3,3.3,0,0,1-1.262,2.21A3.424,3.424,0,0,1,264.7-1960.724Zm-2.824-5.032a2.461,2.461,0,0,0-.3.2,2.448,2.448,0,0,0-.435,3.431,2.43,2.43,0,0,0,1.625.928,2.436,2.436,0,0,0,1.806-.493h0a2.432,2.432,0,0,0,.929-1.625,2.429,2.429,0,0,0-.493-1.806A2.449,2.449,0,0,0,261.876-1965.756Z" transform="translate(-250.939 -54.381)" fill="#fff"/>
    <path id="Trazado_140950" data-name="Trazado 140950" d="M257.919-1965.885a8.392,8.392,0,0,1-.753.375,8.343,8.343,0,0,1-1.606.516l-.074.015a.439.439,0,0,1-.47-.215.429.429,0,0,1-.048-.129.441.441,0,0,1,.344-.518,7.388,7.388,0,0,0,1.5-.475h0l.079-.035a7.325,7.325,0,0,0,2.84-2.25,7.423,7.423,0,0,0,.983-1.733l.006-.015.019-.047a7.351,7.351,0,0,0-.109-5.662,7.459,7.459,0,0,0-.339-.682,7.344,7.344,0,0,0-3.741-3.246,7.352,7.352,0,0,0-5.662.109,7.358,7.358,0,0,0-3.927,4.081,7.35,7.35,0,0,0,.109,5.662,7.408,7.408,0,0,0,.335.673,7.371,7.371,0,0,0,2.147,2.389.442.442,0,0,1,.128.142.44.44,0,0,1-.025.471.44.44,0,0,1-.613.1,8.259,8.259,0,0,1-2.4-2.673,8.314,8.314,0,0,1-.375-.752,8.226,8.226,0,0,1-.122-6.335,8.215,8.215,0,0,1,4.394-4.565,8.221,8.221,0,0,1,6.335-.122,8.214,8.214,0,0,1,4.185,3.631q.207.368.38.762A8.291,8.291,0,0,1,257.919-1965.885Z" transform="translate(-241.696 -44.976)" fill="#fff"/>
    <rect id="Rectángulo_30819" data-name="Rectángulo 30819" width="39.048" height="4.085" transform="matrix(0.832, -0.556, 0.556, 0.832, -71.543, -1884.417)" fill="url(#linear-gradient)"/>
    <rect id="Rectángulo_30820" data-name="Rectángulo 30820" width="4.085" height="41.667" transform="translate(29.943 -1905.341) rotate(-46.35)" fill="url(#linear-gradient-2)"/>
    <rect id="Rectángulo_30821" data-name="Rectángulo 30821" width="50.872" height="4.085" transform="translate(23.091 -1966.464) rotate(-39.617)" fill="url(#linear-gradient-3)"/>
    <rect id="Rectángulo_30822" data-name="Rectángulo 30822" width="4.085" height="47.473" transform="matrix(0.631, -0.776, 0.776, 0.631, -59.178, -1988.207)" fill="url(#linear-gradient-4)"/>
    <g id="Grupo_82201" data-name="Grupo 82201" transform="translate(-59.69 -1986.456)">
      <g id="Grupo_82195" data-name="Grupo 82195">
        <circle id="Elipse_4173" data-name="Elipse 4173" cx="55.631" cy="55.631" r="55.631" fill="url(#linear-gradient-5)"/>
        <path id="Trazado_140951" data-name="Trazado 140951" d="M76.033-1772.235a.292.292,0,0,1-.264-.166,52.712,52.712,0,0,1-5.142-22.845,53.052,53.052,0,0,1,28.74-47.251.292.292,0,0,1,.393.125.292.292,0,0,1-.125.394,52.47,52.47,0,0,0-28.425,46.733,52.133,52.133,0,0,0,5.085,22.594.292.292,0,0,1-.138.389A.3.3,0,0,1,76.033-1772.235Z" transform="translate(-67.997 1850.992)" fill="#bdd0fb"/>
        <path id="Trazado_140952" data-name="Trazado 140952" d="M112.314-1607.49a.289.289,0,0,1-.154-.044,53.807,53.807,0,0,1-16.309-15.853.292.292,0,0,1,.082-.4.292.292,0,0,1,.4.082,53.214,53.214,0,0,0,16.131,15.68.292.292,0,0,1,.093.4A.292.292,0,0,1,112.314-1607.49Z" transform="translate(-84.403 1708.473)" fill="#bdd0fb"/>
        <path id="Trazado_140953" data-name="Trazado 140953" d="M278.924-1842.592a.29.29,0,0,1-.2-.079,52.469,52.469,0,0,0-25.377-13.158.292.292,0,0,1-.227-.344.291.291,0,0,1,.344-.227,53.051,53.051,0,0,1,25.659,13.3.292.292,0,0,1,.014.412A.291.291,0,0,1,278.924-1842.592Z" transform="translate(-186.923 1860.036)" fill="#bdd0fb"/>
        <circle id="Elipse_4174" data-name="Elipse 4174" cx="49.533" cy="49.533" r="49.533" transform="translate(6.289 5.858)" fill="url(#linear-gradient-6)"/>
      </g>
      <g id="Grupo_82200" data-name="Grupo 82200" transform="translate(7.423 8.754)">
        <g id="Grupo_82199" data-name="Grupo 82199" clip-path="url(#clip-path)">
          <g id="Grupo_82198" data-name="Grupo 82198" transform="translate(4.162 1.801)">
            <g id="Grupo_82197" data-name="Grupo 82197">
              <path id="Trazado_140954" data-name="Trazado 140954" d="M211.99-1641.479l-6.886-72.154c-16.538-6.112-37.39.719-37.39.719l-3.22,71.435Z" transform="translate(-140.754 1758.092)" fill="#fff"/>
              <path id="Trazado_140955" data-name="Trazado 140955" d="M206.187-1743.971l-.31,10.242a2.324,2.324,0,0,0,1.553,2.263c2.619.924,8.04,2.328,13.178.488a2.318,2.318,0,0,0,1.5-2.521l-1.54-10.472Z" transform="translate(-167.723 1776.207)" fill="url(#linear-gradient-7)"/>
              <path id="Trazado_140956" data-name="Trazado 140956" d="M137.719-1621.924a37.223,37.223,0,0,0,2.835-3.127l-2.157-6.112s-17.616,10.066-23.369,5.033,3.955-34.513,3.955-34.513l-14.021-25.526s-11.769,39.237-7.811,60.678a4.355,4.355,0,0,0,4.279,3.566Z" transform="translate(-96.337 1738.538)" fill="url(#linear-gradient-8)"/>
              <path id="Trazado_140957" data-name="Trazado 140957" d="M200.833-1726.224l8,7.674-5.78,3.942-5.11-6.878Z" transform="translate(-162.556 1764.641)" fill="#fff"/>
              <path id="Trazado_140958" data-name="Trazado 140958" d="M235.268-1726.224l-8,7.674,5.78,3.942,5.11-6.878Z" transform="translate(-181.661 1764.641)" fill="#fff"/>
              <g id="Grupo_82196" data-name="Grupo 82196" transform="translate(31.07)">
                <path id="Trazado_140959" data-name="Trazado 140959" d="M191.657-1819.962s1.8,18.335,5.752,23.009c0,0,11.864,1.079,16.178-1.438a68.176,68.176,0,0,0,2.7-21.391s.589-11.124-11.684-12.044C190.219-1832.9,191.657-1819.962,191.657-1819.962Z" transform="translate(-189.501 1833.503)" fill="url(#linear-gradient-9)"/>
                <path id="Trazado_140960" data-name="Trazado 140960" d="M258.824-1787.183s1.078-3.235,2.876-3.235-.359,8.628-2.876,8.628Z" transform="translate(-233.299 1806.477)" fill="url(#linear-gradient-10)"/>
                <path id="Trazado_140961" data-name="Trazado 140961" d="M189.333-1783.988s-1.505-3.061-3.286-2.818,1.52,8.5,4.013,8.162Z" transform="translate(-185.541 1804.132)" fill="url(#linear-gradient-11)"/>
                <path id="Trazado_140962" data-name="Trazado 140962" d="M195.295-1770.818s.4,10.952,5.22,16.507a2.476,2.476,0,0,0,1.755.838c2.459.118,8.744.33,12.288-.376a2.514,2.514,0,0,0,1.9-1.649c.871-2.554,2.384-6.583,1.864-15.826l-2.891,6.89c-2.142,5.693-3.3-1.218-4.3-1.138H204.66c-.682.055-1.438,4.314-3.965,3.067Z" transform="translate(-191.898 1794.033)" fill="url(#linear-gradient-12)"/>
                <path id="Trazado_140963" data-name="Trazado 140963" d="M209.995-1827.295s-9.16,9.42-19.14,9.384c0,0-5.667-15.136,5.478-17.653s11.5.719,11.5.719,12.826-3.215,7.029,15.282Z" transform="translate(-188.065 1836.522)" fill="url(#linear-gradient-13)"/>
              </g>
              <path id="Trazado_140964" data-name="Trazado 140964" d="M255.286-1619.233h33.378a4.358,4.358,0,0,0,3.7-2.049h0c14.381-23.009-6.111-60.758-6.111-60.758l-10.786,28.4s9.347,9.348,4.314,24.088-25.525,3.235-25.525,3.235l.719,6.831S255.081-1619.393,255.286-1619.233Z" transform="translate(-199.249 1735.847)" fill="url(#linear-gradient-14)"/>
              <path id="Trazado_140965" data-name="Trazado 140965" d="M220.228-1702.97l-2.986,2.033,2.1,4.094h3.432l2.294-3.806-3.909-2.674Z" transform="translate(-175.13 1749.718)" fill="#ff7758"/>
              <path id="Trazado_140966" data-name="Trazado 140966" d="M218.926-1684.721l-2.33,38.786,5.925,10.714,5.964-10.327-6.127-39.173Z" transform="translate(-174.709 1737.594)" fill="#ff7758"/>
              <path id="Trazado_140967" data-name="Trazado 140967" d="M131.61-1677.908a47.589,47.589,0,0,1,3.575,19.524l-.557,19.229H161.66l-1.375-27.392-12.421-46.062c-11.5,1.8-26.767,9.209-26.767,9.209Z" transform="translate(-112.473 1755.769)" fill="url(#linear-gradient-15)"/>
              <path id="Trazado_140968" data-name="Trazado 140968" d="M259.746-1640.539l.825-15.953a71.808,71.808,0,0,1,4.12-23.973l8.1-22.881c-10.426-9.347-30.957-11.387-30.957-11.387l-8.23,46.8v27.392Z" transform="translate(-185.795 1757.152)" fill="url(#linear-gradient-16)"/>
              <path id="Trazado_140969" data-name="Trazado 140969" d="M194.3-1664.785a.2.2,0,0,1-.15-.069l-11.067-12.763a.2.2,0,0,1-.046-.1l-1.116-6.841-4.1-.824a.2.2,0,0,1-.16-.187l-.881-21.657a.2.2,0,0,1,.191-.207.2.2,0,0,1,.207.191l.874,21.5,4.078.821a.2.2,0,0,1,.157.164l1.129,6.921,11.03,12.72a.2.2,0,0,1-.02.281A.2.2,0,0,1,194.3-1664.785Z" transform="translate(-148.762 1752.395)" fill="#91b3fa"/>
              <path id="Trazado_140970" data-name="Trazado 140970" d="M237.353-1665.464a.2.2,0,0,1-.13-.049.2.2,0,0,1-.02-.283l11.03-12.829,1.129-6.98a.2.2,0,0,1,.157-.165l4.078-.828.874-21.684a.194.194,0,0,1,.207-.192.2.2,0,0,1,.191.209l-.881,21.841a.2.2,0,0,1-.16.189l-4.1.831-1.115,6.9a.2.2,0,0,1-.046.1L237.5-1665.533A.2.2,0,0,1,237.353-1665.464Z" transform="translate(-188.106 1753.073)" fill="#91b3fa"/>
            </g>
          </g>
        </g>
      </g>
    </g>
    <g id="Grupo_82207" data-name="Grupo 82207" transform="translate(-122.783 -1902.91)">
      <g id="Grupo_82202" data-name="Grupo 82202" transform="translate(0 6.424)">
        <circle id="Elipse_4176" data-name="Elipse 4176" cx="35.004" cy="35.004" r="35.004" fill="url(#linear-gradient-5)"/>
        <path id="Trazado_140971" data-name="Trazado 140971" d="M-110.114-1549.092a.291.291,0,0,1-.264-.166,33.275,33.275,0,0,1-3.246-14.422,33.49,33.49,0,0,1,18.143-29.828.292.292,0,0,1,.393.125.292.292,0,0,1-.125.393,32.908,32.908,0,0,0-17.827,29.309,32.7,32.7,0,0,0,3.189,14.171.292.292,0,0,1-.138.389A.29.29,0,0,1-110.114-1549.092Z" transform="translate(115.171 1598.756)" fill="#bdd0fb"/>
        <path id="Trazado_140972" data-name="Trazado 140972" d="M-87.286-1445.43a.291.291,0,0,1-.154-.044,33.965,33.965,0,0,1-10.3-10.007.292.292,0,0,1,.082-.4.292.292,0,0,1,.4.082,33.375,33.375,0,0,0,10.117,9.834.292.292,0,0,1,.093.4A.292.292,0,0,1-87.286-1445.43Z" transform="translate(104.847 1509.08)" fill="#bdd0fb"/>
        <circle id="Elipse_4177" data-name="Elipse 4177" cx="31.168" cy="31.168" r="31.168" transform="translate(3.957 3.686)" fill="#f2edff"/>
      </g>
      <g id="Grupo_82206" data-name="Grupo 82206" transform="translate(9.209 0)">
        <g id="Grupo_82205" data-name="Grupo 82205">
          <path id="Trazado_140973" data-name="Trazado 140973" d="M-70.87-1460.815a21.708,21.708,0,0,1-5.049,3.691,41.933,41.933,0,0,0,9.228,8.207l.751.65.917.4,3.131-2.872S-68.455-1454.005-70.87-1460.815Z" transform="translate(81.39 1518.684)" fill="url(#linear-gradient-18)"/>
          <path id="Trazado_140974" data-name="Trazado 140974" d="M-47.537-1548.751a30.231,30.231,0,0,1-3.077-4.695c-1.207-2.281-.1,1.476-.427-1.1-9.039-6.522-22.649-3.221-27.913-2.558a7.031,7.031,0,0,0-4.443,2.385c-4.511,5.221-14.41,19.514-2.759,33.917a21.709,21.709,0,0,0,5.049-3.691c-1.289-3.634-1.395-8.277,1.307-13.972a13.452,13.452,0,0,0,.345,1.338,82.854,82.854,0,0,1,3.914,23.875c0,.307-.382,1.343-.114,1.492,8.983,5,19.663.994,19.663.994-2.236-11.121,5.667-32.31,7.84-37.1A3.085,3.085,0,0,1-47.537-1548.751Z" transform="translate(91.625 1582.361)" fill="#ff7758"/>
          <path id="Trazado_140975" data-name="Trazado 140975" d="M-32.693-1582.168l-.945,9.649s5.429,1.635,9.377-1.151l-2.775-8.77Z" transform="translate(53.835 1597.947)" fill="url(#linear-gradient-19)"/>
          <g id="Grupo_82203" data-name="Grupo 82203" transform="translate(16.717)">
            <path id="Trazado_140976" data-name="Trazado 140976" d="M-26.273-1614c.131.123,5.514,10.695,5.514,10.695l-6.1,2.945-6.591-9.261S-28.46-1616.057-26.273-1614Z" transform="translate(36.997 1618.777)" fill="url(#linear-gradient-20)"/>
            <path id="Trazado_140977" data-name="Trazado 140977" d="M-37.386-1617.546a.974.974,0,0,0,.073.855l3.043,5.073a.955.955,0,0,0,.167.208,1.6,1.6,0,0,0,2.56-.017,8.59,8.59,0,0,1,2.4-2.6.973.973,0,0,1,1.313.432,36.381,36.381,0,0,1,2.083,4.94.968.968,0,0,1-.564,1.188,26.992,26.992,0,0,1-5.844,1.705.973.973,0,0,1-.92-.391c-.932-1.277-3.56-4.846-4.457-5.74-.833-.83-2.371-.517-3.064-.318a.979.979,0,0,1-.777-.1,2.144,2.144,0,0,1-.807-3.263.974.974,0,0,0-.3-1.323,2.153,2.153,0,0,1-.825-3.055,3.035,3.035,0,0,1,3.287-1.609,1.012,1.012,0,0,0,1.06-.59.645.645,0,0,1,.5-.4.945.945,0,0,0,.765-1.109,2.493,2.493,0,0,1,1.392-2.856c2.633-1.447,4.939.911,5.525,2.9s-2.357,3.4-4.209,3.633C-36.34-1619.806-37.086-1618.322-37.386-1617.546Z" transform="translate(43.631 1626.961)" fill="url(#linear-gradient-21)"/>
            <path id="Trazado_140978" data-name="Trazado 140978" d="M-31.137-1584.532s-1.171-3.425-2.669-3.3-2.678,1.619-.821,3.3C-32.317-1582.447-31.137-1584.532-31.137-1584.532Z" transform="translate(38.384 1601.463)" fill="url(#linear-gradient-22)"/>
          </g>
          <path id="Trazado_140979" data-name="Trazado 140979" d="M-61.679-1525.911c-1.975-5.406-1.259-11.933-1.251-12l.544.062c-.007.064-.708,6.466,1.222,11.748Z" transform="translate(73.012 1568.926)" fill="#ff7758"/>
          <g id="Grupo_82204" data-name="Grupo 82204" transform="translate(28.929 24.553)">
            <path id="Trazado_140980" data-name="Trazado 140980" d="M24.938-1544.375c-10.223,1.534-16.885-4.916-21.851-8.829-6.555-5.166-11.656-2.653-11.656-2.653l6.99,13.342c10.44,9.843,21.143,7.657,27.891,4.468A13.015,13.015,0,0,0,24.938-1544.375Z" transform="translate(8.569 1556.468)" fill="#ff7758"/>
            <path id="Trazado_140981" data-name="Trazado 140981" d="M102-1539.259l-3.39,1.824a29.663,29.663,0,0,1-10.978,4.274,13.014,13.014,0,0,1,1.375,6.327,31.287,31.287,0,0,0,6.988-4.467C103.673-1535.879,102-1539.259,102-1539.259Z" transform="translate(-54.123 1545.253)" fill="url(#linear-gradient-23)"/>
          </g>
          <path id="Trazado_140982" data-name="Trazado 140982" d="M130.893-1540.871a2.5,2.5,0,0,0-1.462-1.6l-6.88-2.767s-.1-.882,1.453-1.482a2.07,2.07,0,0,0,1.194-2.344s-2.128.971-5.243,2.51a7.294,7.294,0,0,0-3.311,3.605l1.771,2.329a31.476,31.476,0,0,0,12.858,1.012Z" transform="translate(-44.103 1576.196)" fill="url(#linear-gradient-24)"/>
        </g>
      </g>
    </g>
    <g id="Grupo_82210" data-name="Grupo 82210" transform="translate(35.894 -1890.387)">
      <g id="Grupo_82208" data-name="Grupo 82208" transform="translate(6.364 7.669)">
        <circle id="Elipse_4178" data-name="Elipse 4178" cx="37.192" cy="37.192" r="37.192" fill="url(#linear-gradient-25)"/>
        <path id="Trazado_140983" data-name="Trazado 140983" d="M524.008-1505.836a.292.292,0,0,1-.125-.028.292.292,0,0,1-.138-.389,34.755,34.755,0,0,0,3.39-15.064,34.983,34.983,0,0,0-18.951-31.158.292.292,0,0,1-.125-.393.292.292,0,0,1,.393-.125,35.564,35.564,0,0,1,19.266,31.676A35.333,35.333,0,0,1,524.272-1506,.291.291,0,0,1,524.008-1505.836Z" transform="translate(-454.996 1558.587)" fill="#bdd0fb"/>
        <path id="Trazado_140984" data-name="Trazado 140984" d="M515.218-1395.694a.291.291,0,0,1-.248-.137.292.292,0,0,1,.094-.4,35.486,35.486,0,0,0,10.755-10.454.292.292,0,0,1,.4-.082.292.292,0,0,1,.082.4,36.07,36.07,0,0,1-10.933,10.627A.289.289,0,0,1,515.218-1395.694Z" transform="translate(-459.493 1463.304)" fill="#bdd0fb"/>
        <circle id="Elipse_4179" data-name="Elipse 4179" cx="33.116" cy="33.116" r="33.116" transform="translate(3.948 3.916)" fill="#f2edff"/>
      </g>
      <g id="Grupo_82209" data-name="Grupo 82209" transform="translate(0 0)">
        <path id="Trazado_140985" data-name="Trazado 140985" d="M338.411-1538.651a.579.579,0,0,1,1.071.114c.52,1.869,1.777,5.132,4.415,6.291.133.058.259.117.38.177a1.341,1.341,0,0,0-.165-1.213c-.82-1.254.66-2.965.66-2.965a3.815,3.815,0,0,0,1.244,2.457,3.67,3.67,0,0,1,.786,4.13c-1.428,5.546-3.566,12.881,4.762,18.239s20.056-10.113,20.056-10.113l-5.821,18.454s-8.985,6.63-19.436-2.693-3.524-22.89-3.524-22.89S334.869-1531.88,338.411-1538.651Z" transform="translate(-337.504 1557.089)" fill="url(#linear-gradient-26)"/>
        <path id="Trazado_140986" data-name="Trazado 140986" d="M432.3-1582.568s-2.413-10.823,9.984-7.958c0,0,6.018-.983,6.324,4.7,0,0,3.879,2.556,1.039,7.471,0,0,11.528-4.453,16.551,5.652s.406,15.665-4.434,17.112a4.821,4.821,0,0,1,2.065,6.415c-1.856,4.446-11.256,7.58-16.809,2.173,0,0-15.8,2.088-15.484-9.073,0,0-7.349-4.745.37-13.969S432.3-1582.568,432.3-1582.568Z" transform="translate(-396.728 1591.008)" fill="url(#linear-gradient-27)"/>
        <path id="Trazado_140987" data-name="Trazado 140987" d="M419.584-1495.995a17.006,17.006,0,0,1,16.644,4.241,4.273,4.273,0,0,1,1.231,4.257c-1.853,6.822-7.039,26.317-2.752,35.038a27.543,27.543,0,0,1-16.284-.845s-2.915-13-7.759-20.071c-3.344-4.885,5.332-18.343,7.528-21.594A2.573,2.573,0,0,1,419.584-1495.995Z" transform="translate(-384.689 1529.522)" fill="#ff7758"/>
        <path id="Trazado_140988" data-name="Trazado 140988" d="M448.21-1533.665s3.684,10.421,3.962,15.019a7.88,7.88,0,0,1-7.909-1.274s-.4-10.409-.984-12.273Z" transform="translate(-406.436 1553.638)" fill="url(#linear-gradient-28)"/>
        <path id="Trazado_140989" data-name="Trazado 140989" d="M432.058-1574.6s-9.637,13.486-3.876,17.4,12.62-5.667,12.62-5.667,2.236-7.381-.1-9.885S432.058-1574.6,432.058-1574.6Z" transform="translate(-395.402 1580.367)" fill="url(#linear-gradient-29)"/>
        <path id="Trazado_140990" data-name="Trazado 140990" d="M446.033-1584.05s-4.427,1.049-5.048,3.052,6.278,3.861,8.211,3.951l1.557,8.083s4.6-7.6,2.78-12S446.033-1584.05,446.033-1584.05Z" transform="translate(-404.917 1586.591)" fill="url(#linear-gradient-30)"/>
        <path id="Trazado_140991" data-name="Trazado 140991" d="M462.487-1548.237s3.751-4.344,5.243-1.512-3.376,4.958-5.062,3.568Z" transform="translate(-418.955 1564.744)" fill="url(#linear-gradient-31)"/>
        <path id="Trazado_140992" data-name="Trazado 140992" d="M469.854-1480.243s11.77,9.781,14.691,23.147-17.2,14.787-17.2,14.787-2.732-3.05-5.974-1.962-.251-5.323,3.543-5.306,2.037,3.017,7.4.586c5.228-2.368,8.46-9.693-4.88-20.8a6.04,6.04,0,0,1-1.762-2.4C463.085-1478.709,465.14-1482.986,469.854-1480.243Z" transform="translate(-417.327 1519.373)" fill="url(#linear-gradient-32)"/>
      </g>
    </g>
    <g id="Grupo_82215" data-name="Grupo 82215" transform="translate(22.046 -2042.4)">
      <g id="Grupo_82211" data-name="Grupo 82211" transform="translate(17.369 0)">
        <circle id="Elipse_4180" data-name="Elipse 4180" cx="35.163" cy="35.163" r="35.163" fill="url(#linear-gradient-33)"/>
        <path id="Trazado_140993" data-name="Trazado 140993" d="M506.639-1967.749a.291.291,0,0,1-.125-.028.291.291,0,0,1-.138-.389,32.847,32.847,0,0,0,3.2-14.236,33.059,33.059,0,0,0-17.909-29.443.291.291,0,0,1-.125-.393.291.291,0,0,1,.393-.125,33.64,33.64,0,0,1,18.224,29.961,33.428,33.428,0,0,1-3.261,14.487A.291.291,0,0,1,506.639-1967.749Z" transform="translate(-441.393 2017.637)" fill="#bdd0fb"/>
        <path id="Trazado_140994" data-name="Trazado 140994" d="M498.327-1863.617a.291.291,0,0,1-.248-.138.292.292,0,0,1,.093-.4,33.528,33.528,0,0,0,10.163-9.879.291.291,0,0,1,.4-.082.292.292,0,0,1,.082.4,34.117,34.117,0,0,1-10.341,10.052A.293.293,0,0,1,498.327-1863.617Z" transform="translate(-445.643 1927.554)" fill="#bdd0fb"/>
        <circle id="Elipse_4181" data-name="Elipse 4181" cx="31.309" cy="31.309" r="31.309" transform="translate(3.733 3.703)" fill="#f2edff"/>
      </g>
      <g id="Grupo_82214" data-name="Grupo 82214" transform="translate(0 2.948)">
        <path id="Trazado_140995" data-name="Trazado 140995" d="M427.325-1947.724c.535.231-2.222,21.8,1.24,35.31a38.517,38.517,0,0,1-13.259,1.7s-12.458-19.019-12.784-21.21c-.369-2.482,1.538-15.213,1.538-15.213S414.136-1953.425,427.325-1947.724Z" transform="translate(-365.997 1974.101)" fill="#ff7758"/>
        <path id="Trazado_140996" data-name="Trazado 140996" d="M415.868-1939.058c-6.157.209-6.647-5.067-6.3-8.585a25.952,25.952,0,0,1,13.971-2.312C423.669-1946.953,423.26-1939.309,415.868-1939.058Z" transform="translate(-370.567 1974.098)" fill="url(#linear-gradient-34)"/>
        <path id="Trazado_140997" data-name="Trazado 140997" d="M415.38-1976.1s3.058,6.462,4.845,9.187a1.87,1.87,0,0,1-.378,2.474,6.81,6.81,0,0,1-4.362,1.393,1.985,1.985,0,0,1-1.925-1.467l-2.016-7.382Z" transform="translate(-371.907 1991.034)" fill="url(#linear-gradient-35)"/>
        <path id="Trazado_140998" data-name="Trazado 140998" d="M356.307-1941.577s-9,16.445-25.256,3.2l-1.853,2.935s11.9,18.385,26.576,5.626Z" transform="translate(-318.243 1968.537)" fill="url(#linear-gradient-36)"/>
        <path id="Trazado_140999" data-name="Trazado 140999" d="M298.094-1939.1a2.287,2.287,0,0,1,1.336-1.462l6.288-2.529s.1-.806-1.328-1.354a1.892,1.892,0,0,1-1.091-2.142s1.945.887,4.792,2.294a6.667,6.667,0,0,1,3.026,3.295l-1.619,2.129a28.764,28.764,0,0,1-11.752.925Z" transform="translate(-297.746 1971.802)" fill="url(#linear-gradient-37)"/>
        <path id="Trazado_141000" data-name="Trazado 141000" d="M452.8-1943.25s15.271,7.909,13.584,22.829-24.819,1.223-24.819,1.223l.561-3.591s14.152,4.107,16.509.575c1.729-2.591-4.067-8.661-7.28-11.712a3.8,3.8,0,0,1-.84-4.337Z" transform="translate(-391.473 1969.627)" fill="url(#linear-gradient-38)"/>
        <g id="Grupo_82212" data-name="Grupo 82212" transform="translate(22.861 29.09)">
          <path id="Trazado_141001" data-name="Trazado 141001" d="M392.7-1905l-6.4-22.365a.652.652,0,0,0-.552-.47c-1.16-.135-4.522-.515-8.4-.844a95.407,95.407,0,0,0-13.351-.443.654.654,0,0,0-.535.942c1.845,3.734,9.436,18.919,13.237,23.894a.655.655,0,0,0,.528.259l14.859-.138A.655.655,0,0,0,392.7-1905Z" transform="translate(-363.38 1931.396)" fill="url(#linear-gradient-39)"/>
          <path id="Trazado_141002" data-name="Trazado 141002" d="M392.123-1934.682l-4.643-.773a.333.333,0,0,0-.371.433l.459,1.393a.335.335,0,0,0,.272.226l4.468.6a.334.334,0,0,0,.369-.406l-.285-1.216A.335.335,0,0,0,392.123-1934.682Z" transform="translate(-378.833 1935.46)" fill="#7d97f4"/>
          <path id="Trazado_141003" data-name="Trazado 141003" d="M391.548-1928.148l-.383-1.992a.46.46,0,0,0-.406-.372l-9.378-.952a.461.461,0,0,0-.494.566l.6,2.483a.46.46,0,0,0,.425.352l9.164.462A.461.461,0,0,0,391.548-1928.148Z" transform="translate(-374.781 1932.857)" fill="#7d97f4"/>
          <path id="Trazado_141004" data-name="Trazado 141004" d="M428.295-1889.458s.892-3.668.532-4.97-1.057-2.975-3.381-2.6a33.992,33.992,0,0,0-5.065,1.351,1.331,1.331,0,0,0,1.9,1.148l-1.1.848s.157,1.357,1.649.632l-1.019,1.124a1.187,1.187,0,0,0,1.738.4C424.655-1892.243,425.181-1889.016,428.295-1889.458Z" transform="translate(-400.527 1910.45)" fill="url(#linear-gradient-40)"/>
        </g>
        <g id="Grupo_82213" data-name="Grupo 82213" transform="translate(29.216)">
          <path id="Trazado_141005" data-name="Trazado 141005" d="M391.485-1994.574s-1.416,3.271.248,8.244,4.383,5.406,6.105,4.176a9.8,9.8,0,0,0,4.233-7.931C402.348-1994.59,393.436-1998.712,391.485-1994.574Z" transform="translate(-387.685 2004.188)" fill="url(#linear-gradient-41)"/>
          <path id="Trazado_141006" data-name="Trazado 141006" d="M392.651-1999.754s-3-6.73-7.512-2.538l-.348,1.733s-4.292-1.223-2.881-5.112a7.883,7.883,0,0,1,11.13-4.007c4.591,2.521,6.151,5.49,5.9,9.031s-2.9,2.329-2.9,2.329-.511-2.6-1.757-3.065-1.22,1.508-1.22,1.508Z" transform="translate(-381.626 2013.564)" fill="url(#linear-gradient-42)"/>
          <path id="Trazado_141007" data-name="Trazado 141007" d="M415.234-1985.793s-1.565-3.451.627-3.576,1.3,3.327.863,4.586Z" transform="translate(-403.175 1999.685)" fill="url(#linear-gradient-43)"/>
          <path id="Trazado_141008" data-name="Trazado 141008" d="M417.384-2012.6a1.54,1.54,0,0,1-.887-2.579c2.7-2.946,7.786-6.215,15.036-1.2,8.168,5.65,12.587,8.206,14.593,7.67a1.547,1.547,0,0,1,1.841,2.165,6.561,6.561,0,0,1-3.127,2.688C431.489-1997.267,424.588-2011.723,417.384-2012.6Z" transform="translate(-404.082 2018.98)" fill="url(#linear-gradient-44)"/>
        </g>
      </g>
    </g>
    <g id="Grupo_82220" data-name="Grupo 82220" transform="translate(-125.304 -2038.238)">
      <g id="Grupo_82216" data-name="Grupo 82216" transform="translate(14.286 1.881)">
        <circle id="Elipse_4182" data-name="Elipse 4182" cx="33.772" cy="33.772" r="33.772" fill="url(#linear-gradient-5)"/>
        <path id="Trazado_141009" data-name="Trazado 141009" d="M-76.636-1952.772a.291.291,0,0,1-.264-.167,32.116,32.116,0,0,1-3.133-13.918,32.319,32.319,0,0,1,17.509-28.786.292.292,0,0,1,.393.124.292.292,0,0,1-.125.394,31.739,31.739,0,0,0-17.194,28.268,31.535,31.535,0,0,0,3.076,13.667.291.291,0,0,1-.138.389A.288.288,0,0,1-76.636-1952.772Z" transform="translate(81.514 2000.698)" fill="#bdd0fb"/>
        <path id="Trazado_141010" data-name="Trazado 141010" d="M-54.612-1852.761a.292.292,0,0,1-.154-.044,32.784,32.784,0,0,1-9.935-9.658.292.292,0,0,1,.082-.4.292.292,0,0,1,.4.082,32.193,32.193,0,0,0,9.757,9.484.292.292,0,0,1,.093.4A.292.292,0,0,1-54.612-1852.761Z" transform="translate(71.555 1914.179)" fill="#fff"/>
        <path id="Trazado_141025" data-name="Trazado 141025" d="M30.07,0A30.07,30.07,0,1,1,0,30.07,30.07,30.07,0,0,1,30.07,0Z" transform="translate(3.818 3.556)" fill="#f2edff"/>
      </g>
      <g id="Grupo_82219" data-name="Grupo 82219" transform="translate(0 0)">
        <path id="Trazado_141011" data-name="Trazado 141011" d="M-25.288-1934.28a73.039,73.039,0,0,0-24.951-1.208,12.461,12.461,0,0,0-8.747,5.695c-3.507,5.549-8.465,15.439-7.416,25.752l5.5,1.361s3.8-12.24,8.085-17.221c0,0,5.07,11.557,4.814,17.9q-.011.269-.035.525c-.582,6.209,24.339,1.159,24.339,1.159Z" transform="translate(87.011 1963.739)" fill="#ff7758"/>
        <path id="Trazado_141012" data-name="Trazado 141012" d="M4.142-1969.334l-.554,8.605a1.868,1.868,0,0,1-1.3,1.694,12.331,12.331,0,0,1-7.93-.156A1.233,1.233,0,0,1-6.3-1960.7l4.1-13.158Z" transform="translate(47.791 1988.362)" fill="url(#linear-gradient-46)"/>
        <g id="Grupo_82217" data-name="Grupo 82217" transform="translate(38.127)">
          <path id="Trazado_141013" data-name="Trazado 141013" d="M8.135-1996.645s2.617,6.011,2.793,9.167.855,5.2-2.793,5.838a7.756,7.756,0,0,1-8.387-4.325s-2.608-4.843-2.023-6.826S8.135-1996.645,8.135-1996.645Z" transform="translate(7.056 2003.21)" fill="url(#linear-gradient-47)"/>
          <path id="Trazado_141014" data-name="Trazado 141014" d="M-7.79-2000.509h.461s-1.9-3.9-.231-4.583,8.284-2.033,9.711-4.38a4.365,4.365,0,0,0-1.687-6,.246.246,0,0,0-.312.115l-.152.288a.248.248,0,0,1-.457-.047h0a.247.247,0,0,0-.444-.068c-.437.7-1.62,1.843-4.792,2.428-4.5.831-7.477,2.653-7.551,5.764a.248.248,0,0,1-.383.2c-.332-.2-.864-.3-1.575.3-1.236,1.04-.73,3.736,1.979,5.953a.246.246,0,0,1-.011.4c-.491.32-1.224,1.081.674,2.095,1.941,1.038,3.089.925,3.523.813a.248.248,0,0,0,.188-.256l-.17-2.757a.248.248,0,0,1,.247-.263Z" transform="translate(15.841 2015.495)" fill="url(#linear-gradient-48)"/>
          <path id="Trazado_141015" data-name="Trazado 141015" d="M1.448-1976.341s-1-3.84-2.72-2.763.893,4.3,2.278,4.446Z" transform="translate(6.716 1991.904)" fill="url(#linear-gradient-49)"/>
        </g>
        <g id="Grupo_82218" data-name="Grupo 82218" transform="translate(47.878 29.458)">
          <path id="Trazado_141016" data-name="Trazado 141016" d="M40.928-1906.177c.537-3.795-3.392-9.373-5.018-11.49a3.518,3.518,0,0,1-.732-2.109c-.047-5.374,2.209-8.826,5.825-11.144,0,0,13.123,15.289,9.782,27.048a9.9,9.9,0,0,1-1.628,3.3C48.631-1905.005,43.509-1905.972,40.928-1906.177Z" transform="translate(-27.159 1930.919)" fill="#ff7758"/>
          <path id="Trazado_141017" data-name="Trazado 141017" d="M41.681-1883.135l.5-.057c-.424-3.721-3.689-8.316-5.073-10.118l-.4.307C38.066-1891.234,41.271-1886.731,41.681-1883.135Z" transform="translate(-28.156 1906.409)" fill="#ff7758"/>
          <path id="Trazado_141018" data-name="Trazado 141018" d="M25.822-1859.356a4.41,4.41,0,0,0,.1-.526c2.581.2,7.7,1.171,8.229,5.6-5.856,7.745-22,4.951-22,4.951v-3.014S24.553-1854.646,25.822-1859.356Z" transform="translate(-12.156 1884.624)" fill="url(#linear-gradient-50)"/>
        </g>
        <path id="Trazado_141019" data-name="Trazado 141019" d="M-2.957-1839.564s-2.383-5.624-6.583-3.629-3.869,3.3-3.869,3.3Z" transform="translate(52.387 1903.485)" fill="url(#linear-gradient-51)"/>
        <path id="Trazado_141020" data-name="Trazado 141020" d="M-26.731-1836.222h0a.8.8,0,0,1-.822.734l-21.762-.759a.8.8,0,0,1-.733-.559l-.631-2.021a.8.8,0,0,1,.719-1.034l7.936-.421a.8.8,0,0,1,.215.018l14.457,3.2A.8.8,0,0,1-26.731-1836.222Z" transform="translate(76.696 1901.31)" fill="url(#linear-gradient-52)"/>
        <path id="Trazado_141021" data-name="Trazado 141021" d="M-40.105-1836.123l-.6-2.79-8.152.389.536,2.315Z" transform="translate(75.483 1900.418)" fill="url(#linear-gradient-53)"/>
        <path id="Trazado_141022" data-name="Trazado 141022" d="M-85.747-1922.9c.462,3.77,2.537,19.086,3.131,23.462a1,1,0,0,1-1.026,1.139l-35.207-1.007a1.006,1.006,0,0,1-.953-.788l-5.477-24.664a1.006,1.006,0,0,1,1.041-1.223l37.551,2.2A1,1,0,0,1-85.747-1922.9Z" transform="translate(125.304 1957.158)" fill="url(#linear-gradient-54)"/>
        <path id="Trazado_141023" data-name="Trazado 141023" d="M-67.158-1874.874l5.2,14.769-12.1.257-1.007-14.937a1.161,1.161,0,0,1,1.235-1.236l5.65.375A1.16,1.16,0,0,1-67.158-1874.874Z" transform="translate(92.563 1924.603)" fill="url(#linear-gradient-55)"/>
        <path id="Trazado_141024" data-name="Trazado 141024" d="M-61.088-1832.046h0a.629.629,0,0,1-.6.824H-80.634a.629.629,0,0,1-.628-.629v-.813a.629.629,0,0,1,.655-.628l18.948.813A.629.629,0,0,1-61.088-1832.046Z" transform="translate(96.602 1896.754)" fill="url(#linear-gradient-56)"/>
      </g>
    </g>
  </g>
</svg>
