<svg xmlns="http://www.w3.org/2000/svg" width="80" height="80" viewBox="0 0 80 80">
  <g id="descripcion" transform="translate(-2 -2)">
    <rect id="Rectángulo_31439" data-name="Rectángulo 31439" width="48" height="77.333" rx="2" transform="translate(32.667 3.333)" fill="#ffe9cb"/>
    <g id="Grupo_83723" data-name="Grupo 83723" transform="translate(38 40.667)">
      <path id="Trazado_145290" data-name="Trazado 145290" d="M29,51H47.667v8H29Z" transform="translate(-29 -24.333)" fill="#c3b5ec"/>
      <path id="Trazado_145291" data-name="Trazado 145291" d="M29,41H47.667v8H29Z" transform="translate(-29 -27.667)" fill="#c3b5ec"/>
      <path id="Trazado_145292" data-name="Trazado 145292" d="M29,31H47.667v8H29Z" transform="translate(-29 -31)" fill="#c3b5ec"/>
    </g>
    <path id="Trazado_145310" data-name="Trazado 145310" d="M2,0H19.333a2,2,0,0,1,2,2V19.333a2,2,0,0,1-2,2H2a2,2,0,0,1-2-2V2A2,2,0,0,1,2,0Z" transform="translate(3.333 31.333)" fill="#c3b5ec"/>
    <path id="Trazado_145309" data-name="Trazado 145309" d="M2,0H19.333a2,2,0,0,1,2,2V19.333a2,2,0,0,1-2,2H2a2,2,0,0,1-2-2V2A2,2,0,0,1,2,0Z" transform="translate(3.333 3.333)" fill="#675d84"/>
    <path id="Trazado_145311" data-name="Trazado 145311" d="M2,0H19.333a2,2,0,0,1,2,2V19.333a2,2,0,0,1-2,2H2a2,2,0,0,1-2-2V2A2,2,0,0,1,2,0Z" transform="translate(3.333 59.333)" fill="#ffba5b"/>
    <path id="Trazado_145293" data-name="Trazado 145293" d="M14.333,45V55.667L11.667,53,9,55.667V45Z" transform="translate(2.333 14.333)" fill="#ffd69f"/>
    <path id="Trazado_145294" data-name="Trazado 145294" d="M14.333,24V34.667L11.667,32,9,34.667V24Z" transform="translate(2.333 7.333)" fill="#ffd69f"/>
    <path id="Trazado_145295" data-name="Trazado 145295" d="M14.333,3V13.667L11.667,11,9,13.667V3Z" transform="translate(2.333 0.333)" fill="#ffd69f"/>
    <path id="Trazado_145308" data-name="Trazado 145308" d="M2,0H19.333a2,2,0,0,1,2,2V19.333a2,2,0,0,1-2,2H2a2,2,0,0,1-2-2V2A2,2,0,0,1,2,0Z" transform="translate(46 11.333)" fill="#ff7758"/>
    <path id="Trazado_145296" data-name="Trazado 145296" d="M46.333,9V19.667L43.667,17,41,19.667V9Z" transform="translate(13 2.333)" fill="#ffd69f"/>
    <path id="Trazado_145297" data-name="Trazado 145297" d="M78,2H35.333a4,4,0,0,0-4,4v6.667H26V6a4,4,0,0,0-4-4H6A4,4,0,0,0,2,6V22a4,4,0,0,0,4,4H22a4,4,0,0,0,4-4V15.333h5.333V40.667H26V34a4,4,0,0,0-4-4H6a4,4,0,0,0-4,4V50a4,4,0,0,0,4,4H22a4,4,0,0,0,4-4V43.333h5.333V68.667H26V62a4,4,0,0,0-4-4H6a4,4,0,0,0-4,4V78a4,4,0,0,0,4,4H22a4,4,0,0,0,4-4V71.333h5.333V78a4,4,0,0,0,4,4H78a4,4,0,0,0,4-4V6A4,4,0,0,0,78,2ZM12.667,4.667h2.667v6.115l-.391-.391a1.333,1.333,0,0,0-1.885,0l-.391.391ZM23.333,22A1.333,1.333,0,0,1,22,23.333H6A1.333,1.333,0,0,1,4.667,22V6A1.333,1.333,0,0,1,6,4.667h4V14a1.333,1.333,0,0,0,2.276.943L14,13.219l1.724,1.724a1.333,1.333,0,0,0,.943.391,1.316,1.316,0,0,0,.511-.1A1.333,1.333,0,0,0,18,14V4.667h4A1.333,1.333,0,0,1,23.333,6ZM12.667,32.667h2.667v6.115l-.391-.391a1.333,1.333,0,0,0-1.885,0l-.391.391ZM23.333,50A1.333,1.333,0,0,1,22,51.333H6A1.333,1.333,0,0,1,4.667,50V34A1.333,1.333,0,0,1,6,32.667h4V42a1.333,1.333,0,0,0,2.276.943L14,41.219l1.724,1.724a1.333,1.333,0,0,0,.943.391,1.316,1.316,0,0,0,.511-.1A1.333,1.333,0,0,0,18,42V32.667h4A1.333,1.333,0,0,1,23.333,34ZM12.667,60.667h2.667v6.115l-.391-.391a1.333,1.333,0,0,0-1.885,0l-.391.391ZM23.333,78A1.333,1.333,0,0,1,22,79.333H6A1.333,1.333,0,0,1,4.667,78V62A1.333,1.333,0,0,1,6,60.667h4V70a1.333,1.333,0,0,0,2.276.943L14,69.219l1.724,1.724a1.333,1.333,0,0,0,.943.391,1.316,1.316,0,0,0,.511-.1A1.333,1.333,0,0,0,18,70V60.667h4A1.333,1.333,0,0,1,23.333,62Zm56,0A1.333,1.333,0,0,1,78,79.333H35.333A1.333,1.333,0,0,1,34,78V6a1.333,1.333,0,0,1,1.333-1.333H78A1.333,1.333,0,0,1,79.333,6Z" transform="translate(0)"/>
    <path id="Trazado_145298" data-name="Trazado 145298" d="M48,30H29.333A1.333,1.333,0,0,0,28,31.333v8a1.333,1.333,0,0,0,1.333,1.333H48a1.333,1.333,0,0,0,1.333-1.333v-8A1.333,1.333,0,0,0,48,30Zm-1.333,8h-16V32.667h16Z" transform="translate(8.667 9.333)"/>
    <path id="Trazado_145299" data-name="Trazado 145299" d="M46,35H62v2.667H46Z" transform="translate(14.667 11)"/>
    <path id="Trazado_145300" data-name="Trazado 145300" d="M46,31H62v2.667H46Z" transform="translate(14.667 9.667)"/>
    <path id="Trazado_145301" data-name="Trazado 145301" d="M48,40H29.333A1.333,1.333,0,0,0,28,41.333v8a1.333,1.333,0,0,0,1.333,1.333H48a1.333,1.333,0,0,0,1.333-1.333v-8A1.333,1.333,0,0,0,48,40Zm-1.333,8h-16V42.667h16Z" transform="translate(8.667 12.667)"/>
    <path id="Trazado_145302" data-name="Trazado 145302" d="M46,45H62v2.667H46Z" transform="translate(14.667 14.333)"/>
    <path id="Trazado_145303" data-name="Trazado 145303" d="M46,41H62v2.667H46Z" transform="translate(14.667 13)"/>
    <path id="Trazado_145304" data-name="Trazado 145304" d="M48,50H29.333A1.333,1.333,0,0,0,28,51.333v8a1.333,1.333,0,0,0,1.333,1.333H48a1.333,1.333,0,0,0,1.333-1.333v-8A1.333,1.333,0,0,0,48,50Zm-1.333,8h-16V52.667h16Z" transform="translate(8.667 16)"/>
    <path id="Trazado_145305" data-name="Trazado 145305" d="M46,55H62v2.667H46Z" transform="translate(14.667 17.667)"/>
    <path id="Trazado_145306" data-name="Trazado 145306" d="M46,51H62v2.667H46Z" transform="translate(14.667 16.333)"/>
    <path id="Trazado_145307" data-name="Trazado 145307" d="M38,32H54a4,4,0,0,0,4-4V12a4,4,0,0,0-4-4H38a4,4,0,0,0-4,4V28A4,4,0,0,0,38,32Zm6.667-21.333h2.667v6.115l-.391-.391a1.333,1.333,0,0,0-1.885,0l-.391.391Zm-8,1.333A1.333,1.333,0,0,1,38,10.667h4V20a1.333,1.333,0,0,0,2.276.943L46,19.219l1.724,1.724a1.333,1.333,0,0,0,.943.391,1.316,1.316,0,0,0,.511-.1A1.333,1.333,0,0,0,50,20V10.667h4A1.333,1.333,0,0,1,55.333,12V28A1.333,1.333,0,0,1,54,29.333H38A1.333,1.333,0,0,1,36.667,28Z" transform="translate(10.667 2)"/>
  </g>
</svg>
