<svg id="diagrama-de-flujo" xmlns="http://www.w3.org/2000/svg" width="66.23" height="77.088" viewBox="0 0 66.23 77.088">
  <g id="Grupo_82174" data-name="Grupo 82174" transform="translate(1.524 1.522)">
    <path id="Trazado_140649" data-name="Trazado 140649" d="M45.741,140.342H71.469v34.4H45.741Z" transform="translate(-45.741 -120.529)" fill="#ffcbbf"/>
    <path id="Trazado_140650" data-name="Trazado 140650" d="M348.223,10.014h17.2v17.2h-17.2Z" transform="translate(-302.239 -10.014)" fill="#c3b5ec"/>
    <path id="Trazado_140651" data-name="Trazado 140651" d="M348.178,196.976h17.2v17.2h-17.2Z" transform="translate(-302.201 -168.554)" fill="#c3b5ec"/>
    <path id="Trazado_140652" data-name="Trazado 140652" d="M348.134,383.939h17.2v17.2h-17.2Z" transform="translate(-302.164 -327.095)" fill="#c3b5ec"/>
  </g>
  <g id="Grupo_82175" data-name="Grupo 82175" transform="translate(0 0)">
    <path id="Trazado_140653" data-name="Trazado 140653" d="M300.461,0l-17.2,0a1.52,1.52,0,0,0-1.521,1.52l0,7.079-8.6,0a1.52,1.52,0,0,0-1.521,1.52l0,8.264a1.521,1.521,0,0,0,3.04,0l0-6.744,7.084,0,0,7.079a1.52,1.52,0,0,0,1.52,1.521l17.2,0a1.52,1.52,0,0,0,1.521-1.52l0-17.2A1.521,1.521,0,0,0,300.461,0Zm-1.524,17.2-14.159,0,0-7.079h0l0-7.079,14.159,0Z" transform="translate(-235.752 0)"/>
    <path id="Trazado_140654" data-name="Trazado 140654" d="M100.418,138.937l-17.2,0a1.52,1.52,0,0,0-1.521,1.52l0,7.079-7.084,0,0-6.414a1.521,1.521,0,0,0-3.04,0l0,6.414-7.084,0,0-15.679a1.52,1.52,0,0,0-1.52-1.521l-25.728-.006a1.52,1.52,0,0,0-1.521,1.52l-.008,34.4a1.52,1.52,0,0,0,1.52,1.521l25.728.006a1.52,1.52,0,0,0,1.521-1.52l0-15.679,7.084,0-.006,26.9a1.52,1.52,0,0,0,1.52,1.521l8.6,0,0,7.079a1.52,1.52,0,0,0,1.52,1.521l17.2,0a1.52,1.52,0,0,0,1.521-1.52l0-17.2a1.52,1.52,0,0,0-1.52-1.521l-17.2,0a1.52,1.52,0,0,0-1.521,1.52l0,7.079-7.084,0,.006-25.382,7.084,0,0,7.079a1.52,1.52,0,0,0,1.52,1.521l17.2,0a1.52,1.52,0,0,0,1.521-1.52l0-17.2a1.521,1.521,0,0,0-1.52-1.52Zm-38.974,25.79-22.688-.005.007-31.358,22.688.005ZM98.89,170.4l0,14.159-14.159,0,0-14.159Zm0-14.263-14.159,0,0-7.079h0l0-7.079,14.159,0Z" transform="translate(-35.715 -110.51)"/>
    <path id="Trazado_140655" data-name="Trazado 140655" d="M271.724,153.752a1.52,1.52,0,1,0,.823-1.985A1.533,1.533,0,0,0,271.724,153.752Z" transform="translate(-235.749 -128.6)"/>
  </g>
</svg>
