<svg xmlns="http://www.w3.org/2000/svg" xmlns:xlink="http://www.w3.org/1999/xlink" width="505" height="189" viewBox="0 0 505 189">
  <defs>
    <linearGradient id="linear-gradient" x1="-38.27" y1="0.5" x2="-37.27" y2="0.5" gradientUnits="objectBoundingBox">
      <stop offset="0" stop-color="#4f52ff"/>
      <stop offset="0.866" stop-color="#4244e6"/>
      <stop offset="1" stop-color="#4042e2"/>
    </linearGradient>
    <linearGradient id="linear-gradient-2" x1="-35.947" y1="-12.946" x2="-39.645" y2="11.133" gradientUnits="objectBoundingBox">
      <stop offset="0" stop-color="#09005d"/>
      <stop offset="1" stop-color="#1a0f91"/>
    </linearGradient>
    <linearGradient id="linear-gradient-3" x1="66.143" y1="-0.843" x2="65.637" y2="2.39" gradientUnits="objectBoundingBox">
      <stop offset="0" stop-color="#febbba"/>
      <stop offset="1" stop-color="#ff928e"/>
    </linearGradient>
    <linearGradient id="linear-gradient-4" x1="18.751" y1="1.455" x2="18.751" y2="7.363" xlink:href="#linear-gradient-2"/>
    <linearGradient id="linear-gradient-5" x1="18.33" y1="0.5" x2="19.33" y2="0.5" xlink:href="#linear-gradient"/>
    <linearGradient id="linear-gradient-6" x1="71.726" y1="-0.224" x2="71.212" y2="2.539" xlink:href="#linear-gradient-3"/>
    <linearGradient id="linear-gradient-7" x1="0.769" y1="1.719" x2="0.358" y2="0.245" xlink:href="#linear-gradient-3"/>
    <linearGradient id="linear-gradient-8" x1="0.799" y1="-0.337" x2="0.056" y2="1.68" xlink:href="#linear-gradient-3"/>
    <linearGradient id="linear-gradient-9" x1="-85.655" y1="-0.337" x2="-86.398" y2="1.68" xlink:href="#linear-gradient-3"/>
    <linearGradient id="linear-gradient-10" x1="-58.754" y1="-11.216" x2="-59.076" y2="-12.281" xlink:href="#linear-gradient-3"/>
    <linearGradient id="linear-gradient-11" x1="-192.689" y1="-56.828" x2="-193.632" y2="-61.476" xlink:href="#linear-gradient-3"/>
    <linearGradient id="linear-gradient-12" x1="1.121" y1="-0.158" x2="-1.164" y2="1.904" xlink:href="#linear-gradient-3"/>
    <linearGradient id="linear-gradient-13" x1="0.642" y1="0.453" x2="-5.223" y2="3.274" xlink:href="#linear-gradient-3"/>
    <linearGradient id="linear-gradient-14" x1="-3.272" y1="6.633" x2="-0.019" y2="1.511" xlink:href="#linear-gradient-3"/>
    <linearGradient id="linear-gradient-15" x1="-3.88" y1="0.008" x2="-2.111" y2="0.206" xlink:href="#linear-gradient"/>
    <linearGradient id="linear-gradient-16" x1="0" y1="0.5" x2="1" y2="0.5" xlink:href="#linear-gradient-2"/>
    <linearGradient id="linear-gradient-17" x1="0" y1="0.5" x2="1" y2="0.5" xlink:href="#linear-gradient-3"/>
    <linearGradient id="linear-gradient-18" x1="0" y1="0.5" x2="1" y2="0.5" xlink:href="#linear-gradient"/>
    <linearGradient id="linear-gradient-21" x1="0.891" y1="0.756" x2="-1.329" y2="-0.937" xlink:href="#linear-gradient-3"/>
    <linearGradient id="linear-gradient-22" x1="-0.292" y1="-67.618" x2="0.724" y2="19.786" gradientUnits="objectBoundingBox">
      <stop offset="0" stop-color="#cb236d"/>
      <stop offset="1" stop-color="#4c246d"/>
    </linearGradient>
    <linearGradient id="linear-gradient-23" x1="0.276" y1="1.206" x2="0.6" y2="0.434" xlink:href="#linear-gradient-3"/>
    <linearGradient id="linear-gradient-24" x1="-69.867" y1="-22.542" x2="-70.189" y2="-23.607" xlink:href="#linear-gradient-3"/>
    <linearGradient id="linear-gradient-25" x1="-228.904" y1="-111.734" x2="-229.847" y2="-116.381" xlink:href="#linear-gradient-3"/>
    <linearGradient id="linear-gradient-26" x1="0.992" y1="-1.808" x2="0.225" y2="1.905" xlink:href="#linear-gradient-2"/>
    <linearGradient id="linear-gradient-28" x1="2.291" y1="-3.41" x2="0.394" y2="0.938" xlink:href="#linear-gradient-2"/>
    <linearGradient id="linear-gradient-30" x1="-0.46" y1="1.345" x2="0.941" y2="0.21" xlink:href="#linear-gradient-3"/>
    <linearGradient id="linear-gradient-31" x1="0.062" y1="0.884" x2="6.791" y2="-3.707" xlink:href="#linear-gradient-3"/>
    <linearGradient id="linear-gradient-34" x1="0.042" y1="1.418" x2="0.73" y2="0.179" xlink:href="#linear-gradient-3"/>
    <linearGradient id="linear-gradient-35" x1="-22.639" y1="2.773" x2="-22.149" y2="4.442" xlink:href="#linear-gradient-3"/>
    <linearGradient id="linear-gradient-36" x1="-74.91" y1="11.441" x2="-73.315" y2="19.534" xlink:href="#linear-gradient-3"/>
    <linearGradient id="linear-gradient-37" x1="0.519" y1="2.383" x2="0.477" y2="-0.75" xlink:href="#linear-gradient-2"/>
    <linearGradient id="linear-gradient-38" x1="0.382" y1="-0.274" x2="1.098" y2="3.943" xlink:href="#linear-gradient-2"/>
    <linearGradient id="linear-gradient-39" x1="0.514" y1="2.023" x2="0.472" y2="-1.11" xlink:href="#linear-gradient-2"/>
    <linearGradient id="linear-gradient-40" x1="0.34" y1="-0.442" x2="1.055" y2="3.435" xlink:href="#linear-gradient-2"/>
    <linearGradient id="linear-gradient-41" x1="2.408" y1="-4.503" x2="1.515" y2="-2.192" xlink:href="#linear-gradient-2"/>
  </defs>
  <g id="Grupo_83633" data-name="Grupo 83633" transform="translate(-285 -2349.221)">
    <path id="Rectángulo_31432" data-name="Rectángulo 31432" d="M92,0H505a0,0,0,0,1,0,0V150a0,0,0,0,1,0,0H0a0,0,0,0,1,0,0V92A92,92,0,0,1,92,0Z" transform="translate(285 2388.221)" fill="#c3b5ec"/>
    <path id="Trazado_144970" data-name="Trazado 144970" d="M633.385,630.822a67.075,67.075,0,0,1-10.262,8.64c-33.475,24.019-73.085,17.017-81.5,15.308-12.431-2.525-36.46-7.405-53.832-27.835-26.283-30.908-22.19-79.6-1.8-111.748,3.729-5.88,23.427-38.514,63.464-43.747,24.23-3.167,52.474,3.221,72.927,20.357C665.308,527.766,662.252,600.431,633.385,630.822Z" transform="translate(-24.627 1879.611)" fill="#ffe9cb"/>
    <path id="Trazado_144971" data-name="Trazado 144971" d="M650.024,961.215a.532.532,0,0,1,.468.535c-.008.6-.043,1.209-.1,1.81a.532.532,0,0,1-.582.476h-.01a.532.532,0,0,1-.466-.581c.057-.57.09-1.149.1-1.719a.532.532,0,0,1,.539-.524A.5.5,0,0,1,650.024,961.215Zm-.581,4.594a.542.542,0,0,1,.062.011.532.532,0,0,1,.393.641c-.141.586-.309,1.172-.5,1.742a.532.532,0,1,1-1.009-.335c.18-.541.339-1.1.473-1.655A.532.532,0,0,1,649.442,965.809Zm-1.578,4.352a.532.532,0,0,1,.413.764c-.267.539-.562,1.073-.875,1.588a.532.532,0,1,1-.908-.553c.3-.488.577-1,.831-1.507A.532.532,0,0,1,647.864,970.161Zm-2.512,3.89a.532.532,0,0,1,.348.865c-.382.466-.788.921-1.208,1.352a.532.532,0,1,1-.762-.741c.4-.41.785-.842,1.147-1.284A.531.531,0,0,1,645.352,974.051Zm-3.317,3.232a.532.532,0,0,1,.263.948c-.474.369-.971.722-1.476,1.051a.532.532,0,1,1-.579-.891c.48-.312.953-.648,1.4-1A.53.53,0,0,1,642.035,977.284Zm-3.949,2.418a.532.532,0,0,1,.163,1.009c-.545.255-1.108.49-1.672.7a.532.532,0,0,1-.367-1c.537-.2,1.071-.421,1.589-.663A.528.528,0,0,1,638.086,979.7Zm-19.491-1.046a.529.529,0,0,1,.212.073c.488.3,1,.575,1.509.828a.532.532,0,0,1-.471.953c-.541-.267-1.076-.56-1.59-.872a.532.532,0,0,1,.339-.983Zm15.107,2.527a.532.532,0,0,1,.05,1.047c-.588.128-1.189.231-1.786.308a.532.532,0,1,1-.135-1.055c.567-.073,1.137-.171,1.7-.292A.534.534,0,0,1,633.7,981.183Zm-10.9-.589a.531.531,0,0,1,.1.023c.543.179,1.1.338,1.657.47a.532.532,0,1,1-.247,1.034c-.586-.14-1.173-.306-1.744-.495a.532.532,0,0,1,.229-1.033Zm6.3,1.054a.532.532,0,0,1-.07,1.059c-.6-.007-1.21-.041-1.809-.1h-.011a.531.531,0,0,1,.115-1.057c.57.056,1.148.087,1.719.094Z" transform="translate(-163.304 1421.895)" fill="#91b3fa"/>
    <path id="Trazado_144972" data-name="Trazado 144972" d="M573.723,1188.667a.528.528,0,0,1,.29.13c.2.182.417.363.63.537a.531.531,0,1,1-.673.823c-.225-.184-.448-.374-.663-.565a.532.532,0,0,1,.416-.925Z" transform="translate(-121.436 1209.668)" fill="#91b3fa"/>
    <path id="Trazado_144973" data-name="Trazado 144973" d="M469.838,969.992a.532.532,0,0,1,.468.506c.011.274.028.552.05.827a.532.532,0,1,1-1.06.087c-.024-.289-.042-.582-.053-.87a.532.532,0,0,1,.51-.553A.522.522,0,0,1,469.838,969.992Z" transform="translate(-24.504 1413.705)" fill="#91b3fa"/>
    <path id="Trazado_144974" data-name="Trazado 144974" d="M494.057,648.757q.364.043.73.1a.532.532,0,0,1-.161,1.051c-.562-.086-1.127-.149-1.684-.188a.532.532,0,0,1,.074-1.061C493.36,648.683,493.711,648.716,494.057,648.757Zm3.468.713a.539.539,0,0,1,.089.018c.569.168,1.137.363,1.688.578a.531.531,0,1,1-.386.99c-.523-.2-1.063-.388-1.6-.549a.531.531,0,0,1,.213-1.037Zm-7.307-.812a.532.532,0,0,1-.028,1.058c-.56.038-1.127.1-1.683.186a.532.532,0,1,1-.161-1.051c.586-.09,1.183-.156,1.773-.2A.537.537,0,0,1,490.218,648.659Zm11.509,2.579a.53.53,0,0,1,.2.064c.517.289,1.029.6,1.519.935a.532.532,0,0,1-.595.881c-.466-.315-.951-.613-1.443-.888a.532.532,0,0,1,.322-.992Zm-15.991-1.77a.532.532,0,0,1,.089,1.037c-.538.16-1.077.346-1.6.551a.531.531,0,0,1-.388-.99c.552-.217,1.119-.412,1.686-.581A.53.53,0,0,1,485.736,649.468Zm-4.2,1.773a.531.531,0,0,1,.2.992c-.491.275-.977.573-1.443.888a.532.532,0,1,1-.594-.881c.491-.331,1-.645,1.519-.934A.528.528,0,0,1,481.541,651.241Zm-3.709,2.645a.531.531,0,0,1,.291.924c-.42.376-.829.773-1.215,1.181a.532.532,0,0,1-.772-.731c.407-.429.837-.848,1.279-1.243A.53.53,0,0,1,477.831,653.886Zm-3.044,3.391a.532.532,0,0,1,.369.837c-.328.458-.64.935-.927,1.418a.532.532,0,1,1-.914-.543c.3-.509.631-1.011.976-1.493A.532.532,0,0,1,474.787,657.277Zm-2.226,3.978a.532.532,0,0,1,.427.734c-.218.518-.417,1.051-.591,1.587a.532.532,0,1,1-1.011-.329c.183-.564.393-1.126.622-1.671A.532.532,0,0,1,472.561,661.256Zm-1.3,4.367.033,0a.531.531,0,0,1,.428.618c-.074.408-.136.823-.185,1.233q-.027.223-.048.445a.531.531,0,0,1-.58.478.525.525,0,0,1-.478-.58q.023-.234.051-.469c.051-.432.117-.868.195-1.3A.532.532,0,0,1,471.264,665.623Z" transform="translate(-25.613 1713.529)" fill="#91b3fa"/>
    <path id="Trazado_144975" data-name="Trazado 144975" d="M985.223,726.886a.529.529,0,0,1,.292.132c.214.192.428.392.637.6a.532.532,0,0,1-.742.762c-.2-.193-.4-.383-.6-.565a.532.532,0,0,1,.418-.923Z" transform="translate(-505.391 1640.537)" fill="#91b3fa"/>
    <path id="Trazado_144976" data-name="Trazado 144976" d="M575.949,735.259a.248.248,0,0,0-.267-.108l-2.941.7a13.169,13.169,0,0,0-3.492-2.453l-.34-3a.248.248,0,0,0-.193-.215l-3.54-.789a.249.249,0,0,0-.266.112l-1.583,2.574a13.172,13.172,0,0,0-4.2.737l-2.365-1.884a.248.248,0,0,0-.288-.015l-3.061,1.945a.248.248,0,0,0-.108.267l.7,2.941a13.173,13.173,0,0,0-2.453,3.492l-3,.34a.248.248,0,0,0-.215.193l-.789,3.54a.248.248,0,0,0,.112.266l2.574,1.583a13.172,13.172,0,0,0,.737,4.2l-1.884,2.365a.248.248,0,0,0-.015.288l1.945,3.061a.248.248,0,0,0,.267.109l2.941-.7a13.17,13.17,0,0,0,3.492,2.453l.34,3a.248.248,0,0,0,.193.215l3.54.789a.248.248,0,0,0,.266-.112l1.583-2.574a13.17,13.17,0,0,0,4.2-.737l2.365,1.884a.248.248,0,0,0,.288.015l3.061-1.945a.249.249,0,0,0,.109-.267l-.7-2.941a13.17,13.17,0,0,0,2.453-3.492l3-.34a.248.248,0,0,0,.214-.193l.789-3.54a.249.249,0,0,0-.112-.266l-2.574-1.583a13.169,13.169,0,0,0-.737-4.2l1.884-2.365a.249.249,0,0,0,.015-.288Z" transform="translate(-97.558 1638.201)" fill="#5f4d90"/>
    <path id="Trazado_144977" data-name="Trazado 144977" d="M735.331,913.127a3.647,3.647,0,1,1-.535-.024A3.651,3.651,0,0,1,735.331,913.127Zm-.77,6.4a2.829,2.829,0,0,0,.414.019,2.787,2.787,0,1,0-.414-.019Z" transform="translate(-268.974 1466.787)" fill="#bdd0fb"/>
    <path id="Trazado_144978" data-name="Trazado 144978" d="M660.844,834.362a9.152,9.152,0,0,1,.908.155h0q.143.032.284.068a9.008,9.008,0,0,1,1.358.467l.018.008.051.022.1.044a.213.213,0,0,1,.122.218.211.211,0,0,1-.018.064.213.213,0,0,1-.282.1,8.549,8.549,0,0,0-9.618,1.717,8.486,8.486,0,0,0-2.3,4.177,8.627,8.627,0,0,0-.148.866,8.539,8.539,0,0,0,16.816,2.851,8.541,8.541,0,0,0-.227-4.543.209.209,0,0,1-.009-.092.213.213,0,0,1,.413-.042,8.965,8.965,0,1,1-17.416,1.776,9.187,9.187,0,0,1,.155-.909,8.966,8.966,0,0,1,9.792-6.953Z" transform="translate(-193.939 1540.313)" fill="#bdd0fb"/>
    <path id="Trazado_144979" data-name="Trazado 144979" d="M1385.094,785.47a.328.328,0,0,1,.285.271c.046.275.085.555.115.832a.328.328,0,1,1-.653.07c-.028-.264-.065-.531-.109-.793a.328.328,0,0,1,.363-.38Z" transform="translate(-878.707 1585.873)" fill="#91b3fa"/>
    <path id="Trazado_144980" data-name="Trazado 144980" d="M1138.758,823.09a.328.328,0,0,1,.289.331,14.32,14.32,0,0,1-.1,1.441q-.018.15-.039.3a.34.34,0,0,1-.371.28.329.329,0,0,1-.28-.371q.021-.144.038-.288a13.683,13.683,0,0,0,.093-1.374.328.328,0,0,1,.334-.323Zm-.474,3.376a.322.322,0,0,1,.047.009.329.329,0,0,1,.232.4,14.258,14.258,0,0,1-.554,1.657.328.328,0,1,1-.609-.246,13.621,13.621,0,0,0,.529-1.581A.328.328,0,0,1,1138.283,826.465Zm-1.279,3.16a.328.328,0,0,1,.248.486,14.156,14.156,0,0,1-.945,1.471.328.328,0,0,1-.529-.388,13.465,13.465,0,0,0,.9-1.4A.329.329,0,0,1,1137,829.625Zm-2.017,2.749a.328.328,0,0,1,.2.551,14.247,14.247,0,0,1-1.276,1.195.328.328,0,0,1-.418-.506,13.589,13.589,0,0,0,1.217-1.139A.327.327,0,0,1,1134.988,832.374Zm-2.627,2.173a.328.328,0,0,1,.138.6,14.376,14.376,0,0,1-1.527.849.328.328,0,1,1-.283-.592,13.69,13.69,0,0,0,1.457-.81A.328.328,0,0,1,1132.361,834.547Zm-3.074,1.469a.328.328,0,0,1,.065.637,14.093,14.093,0,0,1-1.688.45.328.328,0,1,1-.13-.644,13.484,13.484,0,0,0,1.609-.429A.325.325,0,0,1,1129.287,836.016Zm-3.339.673a.328.328,0,0,1-.015.653,14.261,14.261,0,0,1-1.748.022.328.328,0,0,1,.032-.656,13.5,13.5,0,0,0,1.667-.021A.314.314,0,0,1,1125.948,836.689Zm-5.066-.561a.325.325,0,0,1,.057.012,13.6,13.6,0,0,0,1.408.345l.214.039a.328.328,0,0,1-.111.647l-.226-.042a14.292,14.292,0,0,1-1.475-.362.328.328,0,0,1,.134-.64Z" transform="translate(-632.181 1550.773)" fill="#91b3fa"/>
    <path id="Trazado_144981" data-name="Trazado 144981" d="M1021.294,612.987a.328.328,0,0,1-.073.652,13.592,13.592,0,0,0-1.638-.074.328.328,0,0,1-.01-.657,14.315,14.315,0,0,1,1.717.078Zm1.657.277.035.006a14.349,14.349,0,0,1,1.65.484.328.328,0,0,1-.222.618,13.72,13.72,0,0,0-1.574-.462.328.328,0,0,1,.112-.646Zm-5.008-.224a.328.328,0,0,1,.006.651,13.606,13.606,0,0,0-1.607.325.328.328,0,0,1-.168-.635,14.235,14.235,0,0,1,1.685-.34A.329.329,0,0,1,1017.943,613.04Zm8.163,1.362a.331.331,0,0,1,.109.033,14.092,14.092,0,0,1,1.485.869.328.328,0,1,1-.365.545,13.463,13.463,0,0,0-1.416-.828.328.328,0,0,1,.187-.619Zm-11.4-.5a.328.328,0,0,1,.084.631,13.508,13.508,0,0,0-1.482.7.328.328,0,0,1-.316-.576,14.262,14.262,0,0,1,1.554-.735A.327.327,0,0,1,1014.7,613.9Zm-2.938,1.614a.328.328,0,0,1,.153.593,13.7,13.7,0,0,0-1.272,1.036.328.328,0,0,1-.445-.483,14.369,14.369,0,0,1,1.333-1.086A.327.327,0,0,1,1011.765,615.515Zm-2.467,2.271a.325.325,0,0,1,.174.076.328.328,0,0,1,.037.463,13.424,13.424,0,0,0-.986,1.31.328.328,0,0,1-.548-.362,14.18,14.18,0,0,1,1.034-1.374A.329.329,0,0,1,1009.3,617.786Z" transform="translate(-527.124 1746.885)" fill="#91b3fa"/>
    <path id="Trazado_144982" data-name="Trazado 144982" d="M1316.268,663.241a.327.327,0,0,1,.176.078c.213.184.42.375.618.568a.328.328,0,1,1-.458.47c-.189-.184-.387-.366-.59-.542a.328.328,0,0,1,.254-.574Z" transform="translate(-814.488 1699.922)" fill="#91b3fa"/>
    <path id="Trazado_144983" data-name="Trazado 144983" d="M1044.843,670.922a.166.166,0,0,0-.179-.073l-1.968.469a8.807,8.807,0,0,0-2.336-1.642l-.227-2.009a.166.166,0,0,0-.129-.144l-2.369-.528a.166.166,0,0,0-.178.075l-1.059,1.722a8.813,8.813,0,0,0-2.812.493L1032,668.025a.166.166,0,0,0-.193-.01l-2.048,1.3a.166.166,0,0,0-.073.179l.469,1.968a8.806,8.806,0,0,0-1.642,2.337l-2.009.227a.166.166,0,0,0-.144.129l-.528,2.369a.166.166,0,0,0,.075.178l1.722,1.059a8.815,8.815,0,0,0,.493,2.813l-1.261,1.582a.167.167,0,0,0-.01.193l1.3,2.048a.166.166,0,0,0,.179.073L1030.3,684a8.811,8.811,0,0,0,2.336,1.642l.227,2.009a.166.166,0,0,0,.129.144l2.369.528a.166.166,0,0,0,.178-.075l1.059-1.722a8.817,8.817,0,0,0,2.813-.493l1.582,1.261a.166.166,0,0,0,.193.01l2.048-1.3a.166.166,0,0,0,.073-.179l-.469-1.968a8.82,8.82,0,0,0,1.642-2.337l2.009-.227a.166.166,0,0,0,.143-.129l.528-2.369a.166.166,0,0,0-.075-.178l-1.722-1.06a8.808,8.808,0,0,0-.493-2.812l1.261-1.583a.166.166,0,0,0,.01-.193Z" transform="translate(-543.834 1696.42)" fill="#5f4d90"/>
    <path id="Trazado_144984" data-name="Trazado 144984" d="M1150.892,789.29a2.49,2.49,0,1,1-.368-.017A2.522,2.522,0,0,1,1150.892,789.29Zm-.516,4.28a1.827,1.827,0,0,0,2.043-1.865,1.827,1.827,0,0,0-1.877-1.775h0a1.827,1.827,0,0,0-.166,3.64Z" transform="translate(-657.929 1582.326)" fill="#bdd0fb"/>
    <path id="Trazado_144985" data-name="Trazado 144985" d="M1099.085,734.479a6.241,6.241,0,0,1,1.816.5l.051.024a.328.328,0,0,1,.189.337.332.332,0,0,1-.028.1.329.329,0,0,1-.435.161,5.551,5.551,0,0,0-1.115-.376h0l-.063-.014a5.474,5.474,0,0,0-2.705.1,5.558,5.558,0,0,0-1.357.612l-.01.007-.032.02a5.492,5.492,0,0,0-2.431,3.463,5.576,5.576,0,0,0-.1.561,5.528,5.528,0,1,0,10.74-1.095.328.328,0,1,1,.623-.207,6.185,6.185,0,1,1-12.015,1.225,6.306,6.306,0,0,1,.107-.627A6.194,6.194,0,0,1,1099.085,734.479Z" transform="translate(-605.735 1633.49)" fill="#bdd0fb"/>
    <path id="Trazado_144986" data-name="Trazado 144986" d="M2459.771,472.874a.523.523,0,0,1-.245-.063l-4.23-2.224a2.129,2.129,0,0,0-1.981,0l-4.23,2.224a.522.522,0,0,1-.245.063.541.541,0,0,1-.406-.194.5.5,0,0,1-.111-.423l.808-4.711a2.128,2.128,0,0,0-.612-1.884l-3.422-3.336a.525.525,0,0,1,.291-.9l4.729-.687a2.128,2.128,0,0,0,1.6-1.164l2.115-4.286a.525.525,0,0,1,.942,0l2.115,4.286a2.128,2.128,0,0,0,1.6,1.164l4.729.687a.525.525,0,0,1,.291.9l-3.422,3.336a2.128,2.128,0,0,0-.612,1.884l.808,4.711a.5.5,0,0,1-.111.423A.54.54,0,0,1,2459.771,472.874Z" transform="translate(-1867.945 1894.221)" fill="#ffba5b"/>
    <path id="Trazado_144987" data-name="Trazado 144987" d="M2487.729,587.658a.12.12,0,0,1-.115-.083,2.821,2.821,0,0,0-.711-1.144l-1.3-1.269a.12.12,0,0,1,.168-.172l1.3,1.269a3.061,3.061,0,0,1,.772,1.242.12.12,0,0,1-.077.152A.119.119,0,0,1,2487.729,587.658Z" transform="translate(-1905.855 1772.965)" fill="#fff" opacity="0.76"/>
    <path id="Trazado_144988" data-name="Trazado 144988" d="M2554.407,671.3a.12.12,0,0,1-.056-.227l.566-.3a3.05,3.05,0,0,1,2.839,0,.12.12,0,1,1-.112.213,2.81,2.81,0,0,0-2.615,0l-.566.3A.122.122,0,0,1,2554.407,671.3Z" transform="translate(-1969.977 1693.213)" fill="#fff" opacity="0.76"/>
    <path id="Trazado_144989" data-name="Trazado 144989" d="M2490,500.7a.969.969,0,0,1-.282-.042.12.12,0,0,1,.07-.23.732.732,0,0,0,.7-.156.724.724,0,0,0,.239-.679l-.419-2.441a3.05,3.05,0,0,1,.877-2.7l1.774-1.729a.74.74,0,0,0-.41-1.262l-2.451-.356a3.05,3.05,0,0,1-2.3-1.669l-1.1-2.221a.74.74,0,0,0-1.327,0l-1.1,2.221a3.049,3.049,0,0,1-2.3,1.669l-2.451.356a.735.735,0,0,0-.386.177.12.12,0,1,1-.16-.179.976.976,0,0,1,.511-.236l2.451-.356a2.809,2.809,0,0,0,2.116-1.537l1.1-2.221a.98.98,0,0,1,1.758,0l1.1,2.221a2.809,2.809,0,0,0,2.116,1.537l2.451.356a.98.98,0,0,1,.544,1.672l-1.774,1.729a2.809,2.809,0,0,0-.808,2.487l.418,2.441A.983.983,0,0,1,2490,500.7Z" transform="translate(-1899.68 1864.771)" fill="#fff" opacity="0.76"/>
    <path id="Trazado_144990" data-name="Trazado 144990" d="M2980.514,582.938a.315.315,0,0,1-.138-.063l-2.264-1.752a1.276,1.276,0,0,0-1.169-.206l-2.727.872a.313.313,0,0,1-.151.012.324.324,0,0,1-.22-.157.3.3,0,0,1-.021-.261l.967-2.7a1.275,1.275,0,0,0-.166-1.175l-1.672-2.324a.315.315,0,0,1,.265-.5l2.862.086a1.275,1.275,0,0,0,1.066-.52l1.694-2.309a.315.315,0,0,1,.556.1l.8,2.749a1.275,1.275,0,0,0,.824.854l2.719.9a.315.315,0,0,1,.079.559l-2.366,1.612a1.275,1.275,0,0,0-.557,1.048l-.013,2.863a.3.3,0,0,1-.11.238A.324.324,0,0,1,2980.514,582.938Z" transform="translate(-2360.561 1785.221)" fill="#ffba5b"/>
    <path id="Trazado_144991" data-name="Trazado 144991" d="M2995.034,640.208a.072.072,0,0,1-.059-.061,1.688,1.688,0,0,0-.3-.749l-.636-.884a.072.072,0,1,1,.117-.084l.636.884a1.834,1.834,0,0,1,.326.813.072.072,0,0,1-.061.081A.074.074,0,0,1,2995.034,640.208Z" transform="translate(-2380.279 1723.098)" fill="#fff" opacity="0.76"/>
    <path id="Trazado_144992" data-name="Trazado 144992" d="M3024.752,698.92a.071.071,0,0,1-.056-.049.072.072,0,0,1,.046-.091l.365-.117a1.828,1.828,0,0,1,1.675.3.072.072,0,0,1-.088.114,1.684,1.684,0,0,0-1.543-.272l-.365.117A.071.071,0,0,1,3024.752,698.92Z" transform="translate(-2408.895 1666.949)" fill="#fff" opacity="0.76"/>
    <path id="Trazado_144993" data-name="Trazado 144993" d="M2998.362,599.141a.578.578,0,0,1-.162-.054.072.072,0,1,1,.066-.128.438.438,0,0,0,.43-.019.433.433,0,0,0,.211-.376l.007-1.484a1.827,1.827,0,0,1,.8-1.5l1.226-.835a.443.443,0,0,0-.111-.787l-1.409-.465a1.826,1.826,0,0,1-1.181-1.223l-.416-1.424a.443.443,0,0,0-.783-.138l-.878,1.2a1.826,1.826,0,0,1-1.528.746l-1.483-.045a.442.442,0,0,0-.246.064.072.072,0,1,1-.076-.122.585.585,0,0,1,.326-.086l1.483.045a1.683,1.683,0,0,0,1.408-.687l.878-1.2a.587.587,0,0,1,1.037.183l.416,1.424a1.683,1.683,0,0,0,1.088,1.127l1.409.465a.587.587,0,0,1,.146,1.043l-1.226.835a1.683,1.683,0,0,0-.735,1.383l-.007,1.484a.589.589,0,0,1-.689.577Z" transform="translate(-2379.13 1767.904)" fill="#fff" opacity="0.76"/>
    <path id="Trazado_144994" data-name="Trazado 144994" d="M1472.838,563.961l33.773,7.6a3.586,3.586,0,0,1,2.747,4.108l-8.531,49.526a2.645,2.645,0,0,1-3.14,2.141l-38.866-8.011a2.511,2.511,0,0,1-1.943-3.01l11.095-49.28A4.071,4.071,0,0,1,1472.838,563.961Z" transform="translate(-945.97 1792.646)" fill="#675d84"/>
    <path id="Trazado_144995" data-name="Trazado 144995" d="M1482.867,1245.5a.229.229,0,0,1-.053-.006l-4.319-1.031a2.869,2.869,0,0,1-2.125-3.408l1.472-6.54a.226.226,0,0,1,.44.1l-1.472,6.539a2.416,2.416,0,0,0,1.789,2.87l4.319,1.031a.226.226,0,0,1-.052.445Z" transform="translate(-964.152 1167.049)" fill="#fff"/>
    <path id="Trazado_144996" data-name="Trazado 144996" d="M1506.29,1189.77a.226.226,0,0,1-.22-.275l.238-1.059a.226.226,0,0,1,.44.1l-.238,1.059A.226.226,0,0,1,1506.29,1189.77Z" transform="translate(-991.922 1210.045)" fill="#fff"/>
    <path id="Trazado_144997" data-name="Trazado 144997" d="M1519,558.738c4.471,1.664,19.9,7.169,33.234,9.114a1.093,1.093,0,0,1,.922,1.265l-8.459,49.771a1.258,1.258,0,0,1-1.444,1.031c-5.589-.915-28.584-4.767-36.494-7.439a1,1,0,0,1-.653-1.158l11.327-51.728A1.182,1.182,0,0,1,1519,558.738Z" transform="translate(-991.942 1797.498)" fill="#91b3fa"/>
    <path id="Trazado_144998" data-name="Trazado 144998" d="M1528.871,579.5c4.3,1.6,19.146,6.9,31.983,8.771a1.052,1.052,0,0,1,.888,1.217l-8.141,47.9a1.211,1.211,0,0,1-1.39.992c-5.378-.881-27.508-4.588-35.12-7.159a.959.959,0,0,1-.629-1.115l10.9-49.78A1.138,1.138,0,0,1,1528.871,579.5Z" transform="translate(-1001.604 1778.125)" fill="#f6f6f6"/>
    <path id="Trazado_144999" data-name="Trazado 144999" d="M1968.484,717.818c.484.109.911.044.948-.144s-.328-.439-.811-.557l-11.165-2.724c-.482-.118-.851.007-.819.278s.454.581.939.69Z" transform="translate(-1412.331 1652.232)" fill="#5f4d90"/>
    <path id="Trazado_145000" data-name="Trazado 145000" d="M1951.094,742.654c-.482-.118-.851.007-.819.278s.454.581.939.69l10.909,2.456c.484.109.911.044.948-.144s-.328-.439-.811-.557Z" transform="translate(-1406.396 1625.863)" fill="#5f4d90"/>
    <path id="Trazado_145001" data-name="Trazado 145001" d="M1944.638,771.324c-.482-.118-.851.008-.819.278s.454.581.939.69l10.909,2.456c.485.109.911.044.948-.144s-.328-.439-.81-.557Z" transform="translate(-1400.372 1599.113)" fill="#5f4d90"/>
    <path id="Trazado_145002" data-name="Trazado 145002" d="M1734.012,786.487c.484.109.905.043.935-.147s-.342-.438-.825-.551l-27.517-6.423c-.484-.113-.762.037-.619.332a1.845,1.845,0,0,0,1.141.736Z" transform="translate(-1178.427 1591.604)" fill="#5f4d90"/>
    <path id="Trazado_145003" data-name="Trazado 145003" d="M1700.243,807.625c-.484-.113-.762.037-.619.333a1.845,1.845,0,0,0,1.141.736l26.884,6.053c.485.109.905.043.935-.147s-.342-.438-.825-.551Z" transform="translate(-1172.49 1565.234)" fill="#5f4d90"/>
    <path id="Trazado_145004" data-name="Trazado 145004" d="M1679.711,877.771a1.172,1.172,0,0,0-.4-.153c-.005,0-.01,0-.015-.006-.118-.02-.254-.04-.4-.063-.717-.107-1.719-.212-2.623-.3-.5-.055-.947-.1-1.272-.141a.865.865,0,0,0-.651.178.714.714,0,0,0-.267.5l-.277,3.274a1.055,1.055,0,0,0,.888,1.086l3.821.766s.005,0,.01,0a.969.969,0,0,0,1.156-.691,16.279,16.279,0,0,0,.551-3.647A1.032,1.032,0,0,0,1679.711,877.771Zm.2.831a16.23,16.23,0,0,1-.542,3.558c-.067.318-.452.383-.785.455l-.009,0-3.818-.775a.746.746,0,0,1-.639-.749l.281-3.28a.385.385,0,0,1,.152-.28.531.531,0,0,1,.407-.11c.33.037.781.087,1.282.142.8.081,1.739.177,2.448.272.206.032.389.061.55.09a.815.815,0,0,1,.359.149A.74.74,0,0,1,1679.914,878.6Z" transform="translate(-1148.433 1500.377)" fill="#9c8cc9"/>
    <path id="Trazado_145005" data-name="Trazado 145005" d="M1684.964,887.839c.814.1,2.6.256,3.426.4a.754.754,0,0,1,.644.654,13.26,13.26,0,0,1-.436,2.879.648.648,0,0,1-.784.453l-3.052-.615a.72.72,0,0,1-.61-.732l.222-2.617A.506.506,0,0,1,1684.964,887.839Z" transform="translate(-1158.086 1490.361)" fill="#fff" opacity="0.6"/>
    <path id="Trazado_145006" data-name="Trazado 145006" d="M1801.094,925.389a.643.643,0,0,0-.82.71l.014.207a1.239,1.239,0,0,0,.949,1.071l18.122,3.468a.81.81,0,0,0,1.008-.547.879.879,0,0,0-.762-.907Z" transform="translate(-1266.436 1455.338)" fill="#5f4d90"/>
    <path id="Trazado_145007" data-name="Trazado 145007" d="M1691.521,868.31h0a.6.6,0,0,1,.768.375l.5,1.5a.192.192,0,0,0,.339.05l2.67-3.809a.213.213,0,0,1,.382.167,8.378,8.378,0,0,1-3.49,5.268,4.555,4.555,0,0,1-1.563-2.809A.627.627,0,0,1,1691.521,868.31Z" transform="translate(-1164.576 1510.424)" fill="#ff7758"/>
    <path id="Trazado_145008" data-name="Trazado 145008" d="M1656.264,1000.3a1.174,1.174,0,0,0-.4-.153c-.005,0-.01,0-.015-.006-.118-.02-.254-.04-.4-.063-.721-.106-1.719-.212-2.623-.305-.5-.051-.946-.1-1.272-.136a.864.864,0,0,0-.651.177.718.718,0,0,0-.268.5l-.276,3.279a1.057,1.057,0,0,0,.888,1.086l3.821.766s.005,0,.009,0a.969.969,0,0,0,1.156-.691,16.219,16.219,0,0,0,.549-3.651A1.017,1.017,0,0,0,1656.264,1000.3Zm.2.831a16.225,16.225,0,0,1-.543,3.554.653.653,0,0,1-.787.447,0,0,0,0,1-.006,0l-3.82-.766a.739.739,0,0,1-.638-.746l.281-3.275a.39.39,0,0,1,.152-.282.55.55,0,0,1,.406-.111c.331.041.781.089,1.283.143.8.081,1.739.18,2.449.275.207.032.394.06.55.089a.831.831,0,0,1,.353.145A.753.753,0,0,1,1656.467,1001.129Z" transform="translate(-1126.556 1386.051)" fill="#9c8cc9"/>
    <path id="Trazado_145009" data-name="Trazado 145009" d="M1661.519,1010.358c.814.1,2.6.256,3.426.4a.754.754,0,0,1,.643.654,13.24,13.24,0,0,1-.436,2.879.648.648,0,0,1-.784.454l-3.052-.615a.719.719,0,0,1-.61-.732l.222-2.617A.506.506,0,0,1,1661.519,1010.358Z" transform="translate(-1136.211 1376.043)" fill="#fff" opacity="0.6"/>
    <path id="Trazado_145010" data-name="Trazado 145010" d="M1777.649,1047.908a.643.643,0,0,0-.821.71l.014.207a1.239,1.239,0,0,0,.949,1.07l18.122,3.468a.81.81,0,0,0,1.008-.547.879.879,0,0,0-.762-.907Z" transform="translate(-1244.56 1341.02)" fill="#5f4d90"/>
    <path id="Trazado_145011" data-name="Trazado 145011" d="M1668.075,990.828h0a.6.6,0,0,1,.768.375l.5,1.5a.192.192,0,0,0,.339.05l2.67-3.809a.213.213,0,0,1,.382.167,8.377,8.377,0,0,1-3.49,5.268,4.556,4.556,0,0,1-1.563-2.809A.627.627,0,0,1,1668.075,990.828Z" transform="translate(-1142.7 1396.107)" fill="#ff7758"/>
    <path id="Trazado_145012" data-name="Trazado 145012" d="M1628.411,1116.916a1.266,1.266,0,0,0-.417-.163c-.122-.019-.254-.045-.4-.062-.731-.109-1.761-.216-2.619-.306-.5-.051-.946-.1-1.277-.14a.874.874,0,0,0-.646.181.708.708,0,0,0-.268.5l-.277,3.275a1.056,1.056,0,0,0,.889,1.085l3.821.771a.015.015,0,0,1,.01,0,.969.969,0,0,0,1.156-.691,16.313,16.313,0,0,0,.549-3.651A1.032,1.032,0,0,0,1628.411,1116.916Zm.2.822a16.16,16.16,0,0,1-.542,3.559.672.672,0,0,1-.8.445l-3.816-.767a.747.747,0,0,1-.639-.75l.278-3.275a.4.4,0,0,1,.153-.278.541.541,0,0,1,.411-.112c.327.042.781.089,1.277.14.8.085,1.744.183,2.45.28.205.028.393.055.549.085a.878.878,0,0,1,.364.152A.731.731,0,0,1,1628.612,1117.739Z" transform="translate(-1100.564 1277.244)" fill="#9c8cc9"/>
    <path id="Trazado_145013" data-name="Trazado 145013" d="M1633.658,1126.981c.814.1,2.6.256,3.426.4a.754.754,0,0,1,.643.654,13.243,13.243,0,0,1-.436,2.879.648.648,0,0,1-.784.453l-3.052-.615a.719.719,0,0,1-.609-.732l.222-2.617A.505.505,0,0,1,1633.658,1126.981Z" transform="translate(-1110.215 1267.227)" fill="#fff" opacity="0.6"/>
    <path id="Trazado_145014" data-name="Trazado 145014" d="M1749.787,1164.533a.643.643,0,0,0-.82.71l.014.207a1.239,1.239,0,0,0,.949,1.071l18.122,3.468a.81.81,0,0,0,1.008-.547.879.879,0,0,0-.762-.908Z" transform="translate(-1218.563 1232.201)" fill="#5f4d90"/>
    <path id="Trazado_145015" data-name="Trazado 145015" d="M1640.214,1107.453h0a.6.6,0,0,1,.768.375l.5,1.5a.192.192,0,0,0,.34.05l2.669-3.809a.213.213,0,0,1,.382.167,8.378,8.378,0,0,1-3.49,5.268,4.554,4.554,0,0,1-1.563-2.809A.627.627,0,0,1,1640.214,1107.453Z" transform="translate(-1116.704 1287.289)" fill="#ff7758"/>
    <path id="Trazado_145016" data-name="Trazado 145016" d="M1598.683,1236.986a1.241,1.241,0,0,0-.421-.162c-.122-.019-.259-.043-.4-.062-.717-.107-1.714-.213-2.615-.307-.5-.05-.95-.1-1.277-.14a.865.865,0,0,0-.649.182.719.719,0,0,0-.268.5l-.278,3.275a1.056,1.056,0,0,0,.889,1.086l3.821.771s0,0,.01,0a.977.977,0,0,0,1.159-.7,16.148,16.148,0,0,0,.546-3.646A1.024,1.024,0,0,0,1598.683,1236.986Zm.2.823a16.161,16.161,0,0,1-.542,3.559.655.655,0,0,1-.787.447,0,0,0,0,0-.005,0l-3.821-.771a.739.739,0,0,1-.638-.746l.281-3.275a.4.4,0,0,1,.153-.278.532.532,0,0,1,.406-.111c.33.037.781.089,1.282.139.8.085,1.74.184,2.45.28q.308.042.549.085a.924.924,0,0,1,.36.153A.732.732,0,0,1,1598.879,1237.809Z" transform="translate(-1072.822 1165.213)" fill="#9c8cc9"/>
    <path id="Trazado_145017" data-name="Trazado 145017" d="M1603.948,1247.063c.814.1,2.6.256,3.426.4a.754.754,0,0,1,.643.654,13.235,13.235,0,0,1-.436,2.879.648.648,0,0,1-.784.454l-3.052-.615a.72.72,0,0,1-.61-.732l.222-2.617A.506.506,0,0,1,1603.948,1247.063Z" transform="translate(-1082.493 1155.182)" fill="#fff" opacity="0.6"/>
    <path id="Trazado_145018" data-name="Trazado 145018" d="M1720.077,1284.614a.643.643,0,0,0-.821.71l.014.207a1.239,1.239,0,0,0,.949,1.071l18.122,3.468a.81.81,0,0,0,1.008-.547.879.879,0,0,0-.762-.907Z" transform="translate(-1190.841 1120.16)" fill="#5f4d90"/>
    <path id="Trazado_145019" data-name="Trazado 145019" d="M1610.5,1227.534h0a.6.6,0,0,1,.768.375l.5,1.5a.192.192,0,0,0,.339.05l2.67-3.809a.213.213,0,0,1,.382.167,8.378,8.378,0,0,1-3.49,5.268,4.556,4.556,0,0,1-1.563-2.809A.627.627,0,0,1,1610.5,1227.534Z" transform="translate(-1088.982 1175.246)" fill="#ff7758"/>
    <path id="Trazado_145020" data-name="Trazado 145020" d="M1935.721,511.335a3.522,3.522,0,0,0-2.888-1.3,1.53,1.53,0,0,0-1.412,1.327l-.408,3.149-.059.439,3.752,1.2a5.56,5.56,0,0,0,.526-.54C1936,514.739,1937.182,512.927,1935.721,511.335Zm-3.062,1.286a.979.979,0,1,1,.739,1.168A.979.979,0,0,1,1932.659,512.621Z" transform="translate(-1388.369 1842.871)" fill="#ddd4f8"/>
    <path id="Trazado_145021" data-name="Trazado 145021" d="M1942.136,517.793a3.037,3.037,0,0,0-1.459-.268,1.557,1.557,0,0,0-1.439,1.351l-.055.434a.19.19,0,0,0,.086.19.149.149,0,0,0,.079.028.189.189,0,0,0,.218-.165l.06-.435a1.163,1.163,0,0,1,1.077-1.014,2.665,2.665,0,0,1,1.274.231.188.188,0,0,0,.256-.1A.192.192,0,0,0,1942.136,517.793Zm-2.807,1.9a.194.194,0,0,0-.217.169l-.076.57a.191.191,0,0,0,.087.19.172.172,0,0,0,.079.028.189.189,0,0,0,.218-.165l.075-.574A.19.19,0,0,0,1939.329,519.69Z" transform="translate(-1395.91 1835.887)" fill="#5f4d90"/>
    <path id="Trazado_145022" data-name="Trazado 145022" d="M1845.163,563.259l.4-1.767a1.105,1.105,0,0,1,1.358-.827l12.09,3.16a1.075,1.075,0,0,1,.789,1.213l-.28,1.721Z" transform="translate(-1308.321 1795.662)" fill="#c3b5ec"/>
    <path id="Trazado_145023" data-name="Trazado 145023" d="M1912.843,579.5l.524.118Z" transform="translate(-1371.472 1778.051)" fill="#91b3fa"/>
    <path id="Trazado_145024" data-name="Trazado 145024" d="M1854.375,569.808a.2.2,0,0,1-.084-.206l.161-.715a1.127,1.127,0,0,1,1.347-.852l1.926.434a.195.195,0,0,1-.086.38l-1.926-.434a.738.738,0,0,0-.881.558l-.161.715a.2.2,0,0,1-.233.147A.193.193,0,0,1,1854.375,569.808Z" transform="translate(-1316.834 1788.777)" fill="#5f4d90"/>
    <path id="Trazado_145025" data-name="Trazado 145025" d="M1766.708,577.013l21.306,4.8a1.614,1.614,0,0,1,1.258,1.655l-.005.108a1.386,1.386,0,0,1-1.689,1.283l-21.859-4.921a.9.9,0,0,1-.671-1.119l.267-.968A1.177,1.177,0,0,1,1766.708,577.013Z" transform="translate(-1233.539 1780.402)" fill="#91b3fa"/>
    <path id="Rectángulo_31433" data-name="Rectángulo 31433" d="M20.954,0h5.2A20.954,20.954,0,0,1,47.108,20.954V94.493a0,0,0,0,1,0,0H0a0,0,0,0,1,0,0V20.954A20.954,20.954,0,0,1,20.954,0Z" transform="translate(583.153 2439.209)" fill="#c6563d"/>
    <path id="Trazado_145093" data-name="Trazado 145093" d="M20.954,0h5.2A20.954,20.954,0,0,1,47.108,20.954V94.493H0V20.954A20.954,20.954,0,0,1,20.954,0Z" transform="translate(577.854 2439.209)" fill="#ff7758"/>
    <path id="Rectángulo_31435" data-name="Rectángulo 31435" d="M17.371,0h0A17.371,17.371,0,0,1,34.741,17.371V38.24a0,0,0,0,1,0,0H0a0,0,0,0,1,0,0V17.371A17.371,17.371,0,0,1,17.371,0Z" transform="translate(483.699 2495.395)" fill="#c6563d"/>
    <path id="Rectángulo_31436" data-name="Rectángulo 31436" d="M17.371,0h0A17.371,17.371,0,0,1,34.741,17.371V38.24a0,0,0,0,1,0,0H0a0,0,0,0,1,0,0V17.371A17.371,17.371,0,0,1,17.371,0Z" transform="translate(478.495 2495.395)" fill="#ff7758"/>
    <path id="Trazado_145026" data-name="Trazado 145026" d="M2739.681,1755.97a.4.4,0,0,1,.011-.107,5.6,5.6,0,0,1,2.724-3.21l1.053.083c.6,1.871,1,2.784.9,3.295,0,.014-.007.028-.011.042A24.994,24.994,0,0,1,2739.681,1755.97Z" transform="translate(-2142.961 683.432)" fill="url(#linear-gradient)"/>
    <path id="Trazado_145027" data-name="Trazado 145027" d="M2744.358,1802.317a.457.457,0,0,1-.334.337,14.447,14.447,0,0,1-4.024-.057.383.383,0,0,1-.318-.382A24.983,24.983,0,0,0,2744.358,1802.317Z" transform="translate(-2142.962 637.186)" fill="url(#linear-gradient-2)"/>
    <path id="Trazado_145028" data-name="Trazado 145028" d="M2767.591,1728.174l.461,2.219a.363.363,0,0,0,.31.3,3.071,3.071,0,0,0,.714-.011.456.456,0,0,0,.362-.536l-.321-1.97Z" transform="translate(-2169.003 706.271)" fill="url(#linear-gradient-3)"/>
    <path id="Trazado_145029" data-name="Trazado 145029" d="M2915.2,1799.459a6.075,6.075,0,0,1-2.007-.287c0,.112,0,.226,0,.344a.222.222,0,0,0,.212.226l6.174-.04a.282.282,0,0,0,.227-.411C2919,1799.358,2916.943,1799.507,2915.2,1799.459Z" transform="translate(-2304.862 640.025)" fill="url(#linear-gradient-4)"/>
    <path id="Trazado_145030" data-name="Trazado 145030" d="M2919.818,1758.781a.308.308,0,0,0-.024-.047,7.868,7.868,0,0,0-4.678-2.937l-1.317-.042a6.317,6.317,0,0,0-.6,2.906,6.075,6.075,0,0,0,2.007.287C2916.946,1759,2919.008,1758.848,2919.818,1758.781Z" transform="translate(-2304.866 680.535)" fill="url(#linear-gradient-5)"/>
    <path id="Trazado_145031" data-name="Trazado 145031" d="M2918.477,1721.5c.015.1.2,1.59.265,2.168a.287.287,0,0,0,.242.259,3.016,3.016,0,0,0,.9-.014.389.389,0,0,0,.295-.391v-2.341Z" transform="translate(-2309.789 712.797)" fill="url(#linear-gradient-6)"/>
    <path id="Trazado_145032" data-name="Trazado 145032" d="M2762.749,1292.825s-2.106,18.726-.936,30.429a9.057,9.057,0,0,0,2.106-.234s2.189-18.309,2.9-23.548a.176.176,0,0,1,.347-.011c.874,4.408,4.306,21.693,4.714,23.325a2.918,2.918,0,0,0,2.107,0s-1.873-25.046-3.277-29.493Z" transform="translate(-2163.281 1112.479)" fill="#675d84"/>
    <path id="Trazado_145033" data-name="Trazado 145033" d="M2717.36,960.577s8.895-1.4,15.917.468l-.468,7.256s-1.873,10.065-3.277,14.513c0,0-5.384.936-7.958-.468,0,0-2.106-12.64-3.277-14.512C2718.3,967.833,2717.125,962.918,2717.36,960.577Z" transform="translate(-2122.105 1422.957)" fill="#c3b5ec"/>
    <path id="Trazado_145034" data-name="Trazado 145034" d="M2797.748,872.076l-.886,5.992s2.476,1.137,4.209-.049l-.373-4.229Z" transform="translate(-2196.314 1505.063)" fill="url(#linear-gradient-7)"/>
    <path id="Trazado_145035" data-name="Trazado 145035" d="M2597.81,816s-20.1-5.471-10.119-19.54l.675.956s-3.007,9.529,6.954,10.435C2595.32,807.851,2597.9,814.5,2597.81,816Z" transform="translate(-1998.552 1575.617)" fill="#c3b5ec"/>
    <path id="Trazado_145036" data-name="Trazado 145036" d="M2625.229,756.171s-.226-2.716,1.132-2.943,1.811,1.132,2.037,1.811-2.037,2.037-2.49,2.037S2625.229,756.171,2625.229,756.171Z" transform="translate(-2036.157 1615.979)" fill="url(#linear-gradient-8)"/>
    <path id="Trazado_145037" data-name="Trazado 145037" d="M2885.884,826.145s20.1-5.471,10.119-19.54l-.675.956s3.007,9.529-6.954,10.435C2888.374,818,2885.794,824.649,2885.884,826.145Z" transform="translate(-2279.376 1566.15)" fill="#c3b5ec"/>
    <path id="Trazado_145038" data-name="Trazado 145038" d="M2993.7,766.316s.226-2.716-1.132-2.943-1.811,1.132-2.037,1.811,2.037,2.037,2.49,2.037S2993.7,766.316,2993.7,766.316Z" transform="translate(-2377.002 1606.512)" fill="url(#linear-gradient-9)"/>
    <path id="Trazado_145039" data-name="Trazado 145039" d="M2791.767,825.655s1.982,3.73,1.728,5.237-2.71,1.4-4.855.175l-1.5-4.028Z" transform="translate(-2187.245 1548.375)" fill="url(#linear-gradient-10)"/>
    <path id="Trazado_145040" data-name="Trazado 145040" d="M2750.733,791.28a.154.154,0,0,0,.067-.225,4.015,4.015,0,0,1-.551-1.171s-.356-.228.907-.53,3.146-.772,3.543-1.847c.386-1.048-.628-3.684-2.246-1.584a.154.154,0,0,1-.244,0,1.585,1.585,0,0,0-1.931-.627,1.454,1.454,0,0,0-1,1.405.153.153,0,0,1-.181.157,1.773,1.773,0,0,0-2.071.965,1.426,1.426,0,0,0,.1,1.712.153.153,0,0,1-.066.254.923.923,0,0,0-.651,1.053c.054.975,1.144.889,1.454.845a.153.153,0,0,1,.136.048,5.242,5.242,0,0,0,2.763,1.7.155.155,0,0,0,.163-.2l-.562-1.633a.155.155,0,0,1,.084-.191Z" transform="translate(-2149.244 1586.186)" fill="#675d84"/>
    <path id="Trazado_145041" data-name="Trazado 145041" d="M2793.137,873.737s-1.411-.968-1.514-.153,1.271,1.181,1.951.877Z" transform="translate(-2191.422 1503.961)" fill="url(#linear-gradient-11)"/>
    <path id="Rectángulo_31437" data-name="Rectángulo 31437" d="M19.983,0h0A19.983,19.983,0,0,1,39.967,19.983v35.9a0,0,0,0,1,0,0H0a0,0,0,0,1,0,0v-35.9A19.983,19.983,0,0,1,19.983,0Z" transform="translate(531.491 2477.816)" fill="#c6563d"/>
    <path id="Rectángulo_31438" data-name="Rectángulo 31438" d="M19.983,0h0A19.983,19.983,0,0,1,39.967,19.983v35.9a0,0,0,0,1,0,0H0a0,0,0,0,1,0,0v-35.9A19.983,19.983,0,0,1,19.983,0Z" transform="translate(525.61 2477.816)" fill="#ff7758"/>
    <path id="Trazado_145042" data-name="Trazado 145042" d="M1945.554,1991.871l-3.066,4.717c1.427,2.779,3.011,4.313,4.6,5.042a8.482,8.482,0,0,1,2.037-4.022C1946.293,1996,1945.554,1991.871,1945.554,1991.871Z" transform="translate(-1399.132 460.227)" fill="#c6563d"/>
    <path id="Trazado_145043" data-name="Trazado 145043" d="M2020.151,2064.932c-3.139,1.858-5.383,1.749-6.969.847a8.479,8.479,0,0,0-2.036,4.022c5.039,2.318,10.085-3.517,10.085-3.517Z" transform="translate(-1463.194 392.057)" fill="url(#linear-gradient-12)"/>
    <path id="Trazado_145044" data-name="Trazado 145044" d="M2144.233,2032.032a2.168,2.168,0,0,1,.371-2.612s.393-.448.824.21c0,0,1.311-1.19,1.67-.711a2.436,2.436,0,0,1,.381,3.021A2.1,2.1,0,0,1,2144.233,2032.032Z" transform="translate(-1587.104 425.764)" fill="url(#linear-gradient-13)"/>
    <path id="Trazado_145045" data-name="Trazado 145045" d="M2157.025,2043.266a.809.809,0,0,1-.414-.1.714.714,0,0,1-.334-.557.226.226,0,0,1,.448-.057c.021.17.092.212.115.226a.461.461,0,0,0,.287.033l-.272-.863a.226.226,0,0,1,.431-.136l.344,1.091a.226.226,0,0,1-.132.278A1.392,1.392,0,0,1,2157.025,2043.266Z" transform="translate(-1598.608 413.779)" fill="url(#linear-gradient-14)"/>
    <path id="Trazado_145046" data-name="Trazado 145046" d="M1476.861,2538.2a.811.811,0,0,0-.347.849c.256,1.334,1.1,4.857,3.141,6.943a.307.307,0,0,0,.45,0,11.708,11.708,0,0,1-1.909-3.026A10.535,10.535,0,0,1,1476.861,2538.2Z" transform="translate(-964.334 -49.529)" fill="url(#linear-gradient-15)"/>
    <path id="Trazado_145047" data-name="Trazado 145047" d="M1484.52,2533.188a2.859,2.859,0,0,0-2.63.043l-.009.006a10.536,10.536,0,0,0,1.334,4.768,11.72,11.72,0,0,0,1.909,3.026.358.358,0,0,0,.085-.15C1485.594,2539.547,1486.4,2535.842,1484.52,2533.188Z" transform="translate(-969.354 -44.568)" fill="url(#linear-gradient-16)"/>
    <path id="Trazado_145048" data-name="Trazado 145048" d="M1513.129,2514.824l-1.194,1.146a.626.626,0,0,1-.779.073,1.64,1.64,0,0,1-.607-.748.629.629,0,0,1,.115-.666l1.192-1.311a.628.628,0,0,1,1.006.1l.373.631A.628.628,0,0,1,1513.129,2514.824Z" transform="translate(-996.061 -26.123)" fill="url(#linear-gradient-17)"/>
    <path id="Trazado_145049" data-name="Trazado 145049" d="M2126.3,2359.856a.811.811,0,0,0,.91-.118c1.033-.882,3.68-3.354,4.483-6.162a.307.307,0,0,0-.221-.392,11.7,11.7,0,0,1-1.687,3.155A10.538,10.538,0,0,1,2126.3,2359.856Z" transform="translate(-1570.643 123.1)" fill="url(#linear-gradient-18)"/>
    <path id="Trazado_145050" data-name="Trazado 145050" d="M2106.172,2357.44a2.86,2.86,0,0,0,1.337,2.265l.01,0a10.533,10.533,0,0,0,3.485-3.516,11.7,11.7,0,0,0,1.687-3.155.362.362,0,0,0-.173,0C2111.17,2353.364,2107.548,2354.491,2106.172,2357.44Z" transform="translate(-1551.859 123.244)" fill="url(#linear-gradient-16)"/>
    <path id="Trazado_145051" data-name="Trazado 145051" d="M2081.99,2379.693l1.248,1.087a.626.626,0,0,1,.143.769,1.64,1.64,0,0,1-.691.671.63.63,0,0,1-.674-.055l-1.412-1.07a.629.629,0,0,1,.012-1.011l.595-.428A.628.628,0,0,1,2081.99,2379.693Z" transform="translate(-1527.77 98.51)" fill="url(#linear-gradient-17)"/>
    <path id="Trazado_145052" data-name="Trazado 145052" d="M1537.991,2217.506s-2.435,8.294-4.009,11.939a15.321,15.321,0,0,0-4.455,1.415c-1.7,1-5.371,6.51-5.371,6.51s.958,1.819,2.114,2.1l10.442-7.235,8.334-9.692-.4-4.5Z" transform="translate(-1008.804 249.695)" fill="#db993e"/>
    <path id="Trazado_145053" data-name="Trazado 145053" d="M1723.136,2207.4l-.712,2.271s.651,5.954,8.158,4.95,8.45-2.23,8.45-2.23-.652,3.8,7.557,8.375a4.612,4.612,0,0,0,1.522-2.011l-5.752-9.481a2.538,2.538,0,0,0-3-1.343,78.9,78.9,0,0,1-10.2,1.007Z" transform="translate(-1193.799 259.127)" fill="#b17728"/>
    <path id="Trazado_145054" data-name="Trazado 145054" d="M1710.822,1954.881a13.8,13.8,0,0,0-7.879,3.208,26.98,26.98,0,0,1,2.53,3.208,6.9,6.9,0,0,1,3.137-1.563,92.917,92.917,0,0,1-4.454,13.045.476.476,0,0,0,.278.641c1.371.478,5.413,1.615,8.654-.217l7.187-10.292a8.806,8.806,0,0,0,1.485-3.711l.284-1.856S1715.589,1954.638,1710.822,1954.881Z" transform="translate(-1175.622 494.756)" fill="#ff7758"/>
    <path id="Trazado_145055" data-name="Trazado 145055" d="M1676.767,2015.378a4.728,4.728,0,0,0-1.892-1.611c-.444-.915-2.217-5.032.463-7.548a26.982,26.982,0,0,0-2.531-3.208c-2.577,2.373-3.521,6.1,1,11.319a3.433,3.433,0,0,0,.994,2.992C1675,2017.419,1677.183,2016.295,1676.767,2015.378Z" transform="translate(-1145.486 449.832)" fill="url(#linear-gradient-21)"/>
    <path id="Trazado_145056" data-name="Trazado 145056" d="M1793.816,2019.161l2-.431Z" transform="translate(-1260.412 435.166)" fill="url(#linear-gradient-22)"/>
    <path id="Trazado_145057" data-name="Trazado 145057" d="M1866.071,1914.258l-1.878,3.676a.606.606,0,0,0,.088.682,3.044,3.044,0,0,0,3.4.74.566.566,0,0,0,.385-.46l.489-3.338Z" transform="translate(-1326.016 532.645)" fill="url(#linear-gradient-23)"/>
    <path id="Trazado_145058" data-name="Trazado 145058" d="M1876.35,1860.033s1.8,3.394,1.572,4.765-2.466,1.273-4.417.159l-1.364-3.665Z" transform="translate(-1333.493 583.24)" fill="url(#linear-gradient-24)"/>
    <path id="Trazado_145059" data-name="Trazado 145059" d="M1839.017,1828.759a.14.14,0,0,0,.061-.2,3.653,3.653,0,0,1-.5-1.065s-.324-.208.825-.483,2.863-.7,3.223-1.68c.351-.954-.572-3.352-2.044-1.441a.14.14,0,0,1-.222,0,1.442,1.442,0,0,0-1.757-.571,1.322,1.322,0,0,0-.906,1.278.139.139,0,0,1-.165.143,1.613,1.613,0,0,0-1.884.878,1.3,1.3,0,0,0,.093,1.557.139.139,0,0,1-.06.231.84.84,0,0,0-.592.958c.049.887,1.041.809,1.323.768a.14.14,0,0,1,.124.044,4.767,4.767,0,0,0,2.514,1.543.141.141,0,0,0,.148-.186l-.511-1.486a.14.14,0,0,1,.076-.174Z" transform="translate(-1298.92 617.639)" fill="#675d84"/>
    <path id="Trazado_145060" data-name="Trazado 145060" d="M1877.6,1903.778s-1.284-.881-1.378-.139,1.156,1.074,1.775.8Z" transform="translate(-1337.293 542.83)" fill="url(#linear-gradient-25)"/>
    <path id="Trazado_145061" data-name="Trazado 145061" d="M970.105,3115.672s-.519,2.938-.773,5.846a2,2,0,0,0,1.917,2.171c3.873.162,12.156.475,15.129.342a.652.652,0,0,0,.574-.893h0a1.458,1.458,0,0,0-.746-.786l-13.683-6.289Z" transform="translate(-491.11 -588.348)" fill="url(#linear-gradient-26)"/>
    <path id="Trazado_145062" data-name="Trazado 145062" d="M974.641,3082.323l.417,3.514s2.4,1.116,4.034-.141l-.993-3.916Z" transform="translate(-496.071 -556.725)" fill="url(#linear-gradient-17)"/>
    <path id="Trazado_145063" data-name="Trazado 145063" d="M827.846,2102.961c-.18.917-.967,45.792,3.83,65.9a.683.683,0,0,1-.4.794,11.876,11.876,0,0,1-3.906.794,1.176,1.176,0,0,1-1.166-.844c-1.371-4.666-7.941-28.042-8.8-50.374-.958-24.953,0-.85,0-.85l.562-15.424Z" transform="translate(-348.963 356.574)" fill="#5f4d90"/>
    <path id="Trazado_145064" data-name="Trazado 145064" d="M722.841,3138.567a21.135,21.135,0,0,0-1.626,5.424,1.223,1.223,0,0,0,1.076,1.464c1.279.126,3.247.287,4.824.277a1.219,1.219,0,0,0,1.207-1.36,10.278,10.278,0,0,0-2.4-5.638Z" transform="translate(-259.587 -609.711)" fill="url(#linear-gradient-28)"/>
    <path id="Trazado_145065" data-name="Trazado 145065" d="M735.014,3068.169l.974,5.314a3.435,3.435,0,0,0,2.869.2l-.465-5.717Z" transform="translate(-272.484 -543.832)" fill="url(#linear-gradient-17)"/>
    <path id="Trazado_145066" data-name="Trazado 145066" d="M674.647,2088.939c-3.923,23.676.851,58.518,2.461,65.337a1.063,1.063,0,0,0,.859.807,7.147,7.147,0,0,0,3.068-.122.975.975,0,0,0,.7-.9c.216-5.513-.173-39.359,3.483-52.735a3.04,3.04,0,0,1,1.172-1.676l7.095-5.044.544-8.153Z" transform="translate(-214.749 371.973)" fill="#5f4d90"/>
    <path id="Trazado_145067" data-name="Trazado 145067" d="M700.276,1426.585c-11.757-.194-24.729,3.087-24.729,3.087-3.5,20.448-.613,44.034-.613,44.034,9.1,2.387,19.369-1.459,19.369-1.459,1.513-8.547,8.571-32.6,8.571-32.6a38.729,38.729,0,0,0,14.373-4.561,25.207,25.207,0,0,1-4.982-10.421A39.449,39.449,0,0,1,700.276,1426.585Z" transform="translate(-215.381 989.467)" fill="#ffba5b"/>
    <path id="Trazado_145068" data-name="Trazado 145068" d="M1270.984,1182.258a2.249,2.249,0,0,0-2.616-.735c-1.73,7.308-10.8,13.234-20.122,16.13a25.207,25.207,0,0,0,4.982,10.422C1268.7,1199.378,1270.984,1182.258,1270.984,1182.258Z" transform="translate(-751.361 1216.477)" fill="#ffba5b"/>
    <path id="Trazado_145069" data-name="Trazado 145069" d="M1551.177,1024.935c.121.384-1.279.969-2.1-.6-.029-.753-.487-3.979-.037-4.593a60.088,60.088,0,0,1,7.043-7.363,1.106,1.106,0,0,1,.138,1.536l-2.254,2.348a10.912,10.912,0,0,1,1.316,2.6,3.159,3.159,0,0,1-.315,2.325c-.4.713-.936,1.639-1.446,2.365A3.119,3.119,0,0,1,1551.177,1024.935Z" transform="translate(-1031.835 1374.154)" fill="url(#linear-gradient-30)"/>
    <path id="Trazado_145070" data-name="Trazado 145070" d="M1573.042,1093.161l-2.054,1.741-.645,1.734,1.831,2.032a23.619,23.619,0,0,1,1.073-4.184C1573.705,1093.739,1573.468,1093.379,1573.042,1093.161Z" transform="translate(-1051.897 1298.777)" fill="url(#linear-gradient-31)"/>
    <path id="Trazado_145071" data-name="Trazado 145071" d="M525.984,1510.875l-4.509-11.384s-10.981,7.461-12.787,16.922a25.988,25.988,0,0,1,9.546,2.559C519.046,1514.5,525.984,1510.875,525.984,1510.875Z" transform="translate(-61.308 919.646)" fill="#ffba5b"/>
    <path id="Trazado_145072" data-name="Trazado 145072" d="M532.091,1757.457s-12.329,6.968-16.489,1.018a4.676,4.676,0,0,1-.858-3.634,25.991,25.991,0,0,0-9.546-2.559,13.058,13.058,0,0,0,1.419,8.951c7.287,13.33,27.106-.737,27.106-.737Z" transform="translate(-57.818 683.777)" fill="url(#linear-gradient-17)"/>
    <path id="Trazado_145073" data-name="Trazado 145073" d="M887.938,1606.505l6.729-23.5a.685.685,0,0,1,.58-.494c1.219-.142,4.752-.542,8.831-.886a100.2,100.2,0,0,1,14.028-.466.688.688,0,0,1,.562.989c-1.939,3.922-9.914,19.878-13.908,25.105a.69.69,0,0,1-.555.272l-15.612-.145A.688.688,0,0,1,887.938,1606.505Z" transform="translate(-415.147 843.543)" fill="#963c28"/>
    <path id="Trazado_145074" data-name="Trazado 145074" d="M1131.594,1547.772l4.879-.813a.35.35,0,0,1,.39.455l-.483,1.463a.35.35,0,0,1-.286.237l-4.695.627a.35.35,0,0,1-.387-.427l.3-1.277A.349.349,0,0,1,1131.594,1547.772Z" transform="translate(-641.966 875.361)" fill="#ddd4f8"/>
    <path id="Trazado_145075" data-name="Trazado 145075" d="M1085.148,1572.279l.4-2.094a.484.484,0,0,1,.426-.39l9.854-1a.484.484,0,0,1,.519.594l-.626,2.609a.484.484,0,0,1-.446.37l-9.629.485A.484.484,0,0,1,1085.148,1572.279Z" transform="translate(-599.173 854.984)" fill="#f2edff"/>
    <path id="Trazado_145076" data-name="Trazado 145076" d="M903.553,1764.777s-.937-3.854-.559-5.222,1.111-3.126,3.552-2.735a35.735,35.735,0,0,1,5.322,1.419,1.4,1.4,0,0,1-2,1.206l1.151.89s-.164,1.426-1.732.664l1.07,1.181a1.248,1.248,0,0,1-1.827.42C907.376,1761.851,906.824,1765.241,903.553,1764.777Z" transform="translate(-429.137 679.594)" fill="url(#linear-gradient-17)"/>
    <path id="Trazado_145077" data-name="Trazado 145077" d="M838.793,1310.789l-3.741,10.818a.39.39,0,0,0,.178.469,8.794,8.794,0,0,0,9.121-.614,1.835,1.835,0,0,0,.845-1.311l1.211-9.363Z" transform="translate(-365.806 1095.717)" fill="url(#linear-gradient-34)"/>
    <path id="Trazado_145078" data-name="Trazado 145078" d="M879.182,1161.132s4.108,7.732,3.581,10.856-5.617,2.9-10.063.363L869.594,1164Z" transform="translate(-398.056 1235.357)" fill="url(#linear-gradient-35)"/>
    <path id="Trazado_145079" data-name="Trazado 145079" d="M794.13,1089.882a.319.319,0,0,0,.139-.466,8.323,8.323,0,0,1-1.143-2.427s-.738-.473,1.88-1.1,6.522-1.6,7.343-3.828c.8-2.172-1.3-7.636-4.656-3.283a.319.319,0,0,1-.505,0,3.286,3.286,0,0,0-4-1.3,3.014,3.014,0,0,0-2.064,2.912.317.317,0,0,1-.375.324,3.675,3.675,0,0,0-4.292,2c-.876,1.925-.307,3.015.212,3.548a.318.318,0,0,1-.136.528,1.912,1.912,0,0,0-1.349,2.182c.112,2.021,2.371,1.843,3.015,1.751a.319.319,0,0,1,.283.1c.552.61,3.037,3.2,5.727,3.515a.321.321,0,0,0,.337-.425l-1.164-3.384a.32.32,0,0,1,.173-.4Z" transform="translate(-319.289 1313.725)" fill="#b17728"/>
    <path id="Trazado_145080" data-name="Trazado 145080" d="M882.022,1260.793s-2.925-2.007-3.138-.317,2.634,2.448,4.044,1.818Z" transform="translate(-406.713 1143.295)" fill="url(#linear-gradient-36)"/>
    <path id="Trazado_145081" data-name="Trazado 145081" d="M2175.2,2939.181l.5,15.437a5.023,5.023,0,0,0,5,4.85l36.967.218a3.624,3.624,0,0,0,3.613-3.084,67.8,67.8,0,0,0,.485-17.421Z" transform="translate(-1616.262 -423.67)" fill="#5f4d90"/>
    <path id="Trazado_145082" data-name="Trazado 145082" d="M2230.877,2957.225h0l-.677,0a.113.113,0,0,1,0-.226h0l.677,0a.113.113,0,0,1,0,.226Zm-2.257-.013h0l-.677,0a.113.113,0,0,1,0-.226h0l.677,0a.113.113,0,0,1,0,.226Zm-2.258-.013h0l-.677,0a.113.113,0,0,1,0-.226l.677,0a.113.113,0,0,1,0,.226Zm-2.257-.013h0l-.677,0a.113.113,0,0,1,0-.226h0l.677,0a.113.113,0,0,1,0,.226Zm-2.257-.013h0l-.677,0a.113.113,0,0,1,0-.226h0l.677,0a.113.113,0,0,1,0,.226Zm-2.257-.013h0l-.677,0a.113.113,0,0,1,0-.226h0l.677,0a.113.113,0,0,1,0,.226Zm-2.257-.013h0l-.677,0a.113.113,0,0,1,0-.226h0l.677,0a.113.113,0,0,1,0,.226Zm-2.257-.013h0l-.677,0a.113.113,0,0,1,0-.226h0l.677,0a.113.113,0,0,1,0,.226Zm-2.257-.013h0l-.677,0a.113.113,0,0,1,0-.226h0l.677,0a.113.113,0,0,1,0,.226Zm-2.257-.013h0l-.677,0a.113.113,0,0,1-.112-.114.121.121,0,0,1,.114-.112l.677,0a.113.113,0,0,1,0,.226Zm-2.257-.013h0l-.677,0a.113.113,0,0,1,0-.226h0l.677,0a.113.113,0,0,1,0,.226Zm-2.257-.013h0l-.677,0a.113.113,0,0,1,0-.226h0l.677,0a.113.113,0,0,1,0,.226Zm-2.257-.013h0l-.677,0a.113.113,0,0,1,0-.226h0l.677,0a.113.113,0,0,1,0,.226Zm-2.257-.013h0l-.677,0a.113.113,0,0,1,0-.226h0l.677,0a.113.113,0,0,1,0,.226Zm-2.257-.013h0l-.677,0a.113.113,0,0,1,0-.226h0l.677,0a.113.113,0,0,1,0,.226Zm-2.257-.013h0l-.677,0a.113.113,0,0,1,0-.226h0l.677,0a.113.113,0,0,1,0,.226Zm35.4-.1a.113.113,0,0,1-.046-.216,3.357,3.357,0,0,0,.568-.324.113.113,0,1,1,.13.184,3.594,3.594,0,0,1-.606.346A.119.119,0,0,1,2232.414,2956.923Zm-37.645-.021a.107.107,0,0,1-.025,0,4.922,4.922,0,0,1-.663-.2.113.113,0,0,1,.08-.211,4.7,4.7,0,0,0,.633.189.113.113,0,0,1-.025.223Zm-2.007-.985a.111.111,0,0,1-.072-.026,4.928,4.928,0,0,1-.5-.478.113.113,0,0,1,.167-.152,4.758,4.758,0,0,0,.478.456.113.113,0,0,1-.072.2Zm41.278-.5a.115.115,0,0,1-.054-.014.113.113,0,0,1-.045-.153,3.318,3.318,0,0,0,.252-.6.113.113,0,1,1,.216.066,3.544,3.544,0,0,1-.27.644A.113.113,0,0,1,2234.04,2955.417Zm-42.62-1.288a.113.113,0,0,1-.1-.068,4.844,4.844,0,0,1-.228-.655.113.113,0,1,1,.218-.059,4.641,4.641,0,0,0,.218.624.113.113,0,0,1-.059.148A.115.115,0,0,1,2191.42,2954.129Zm43.144-.892h-.015a.113.113,0,0,1-.1-.127q.043-.325.087-.671a.114.114,0,0,1,.126-.1.113.113,0,0,1,.1.126q-.044.346-.087.673A.113.113,0,0,1,2234.564,2953.237Zm-43.543-1.312a.113.113,0,0,1-.113-.109l-.021-.677a.113.113,0,0,1,.109-.116.11.11,0,0,1,.116.109l.021.677a.112.112,0,0,1-.109.116Zm43.811-.93h-.012a.113.113,0,0,1-.1-.124q.034-.33.068-.673a.113.113,0,0,1,.225.021q-.033.343-.068.675A.113.113,0,0,1,2234.832,2950.995Zm-43.884-1.326a.113.113,0,0,1-.113-.109l-.022-.677a.113.113,0,0,1,.226-.007l.022.677a.113.113,0,0,1-.11.116Zm44.087-.922h-.009a.113.113,0,0,1-.1-.121q.025-.333.048-.675a.11.11,0,0,1,.12-.1.113.113,0,0,1,.1.12q-.023.342-.048.677A.113.113,0,0,1,2235.035,2948.746Zm-44.159-1.334a.113.113,0,0,1-.113-.109l-.022-.677a.113.113,0,0,1,.11-.116.108.108,0,0,1,.116.109l.022.677a.113.113,0,0,1-.109.116Zm44.293-.92h0a.113.113,0,0,1-.108-.117q.015-.335.026-.676a.113.113,0,0,1,.226.008q-.012.342-.026.678A.113.113,0,0,1,2235.169,2946.493Zm-44.366-1.336a.113.113,0,0,1-.113-.109l-.022-.677a.113.113,0,0,1,.109-.116.111.111,0,0,1,.116.109l.022.677a.113.113,0,0,1-.109.116Zm44.425-.92h0a.113.113,0,0,1-.112-.114q0-.246,0-.493v-.183a.113.113,0,0,1,.112-.113h0a.113.113,0,0,1,.113.113v.184q0,.248,0,.495A.113.113,0,0,1,2235.229,2944.236Zm-44.5-1.336a.113.113,0,0,1-.113-.109l-.022-.677a.113.113,0,0,1,.109-.116.11.11,0,0,1,.116.109l.022.677a.113.113,0,0,1-.109.116Zm44.472-.921a.113.113,0,0,1-.113-.109q-.011-.337-.026-.675a.113.113,0,0,1,.107-.118.11.11,0,0,1,.118.108q.015.339.026.678a.113.113,0,0,1-.109.116Zm-44.545-1.335a.113.113,0,0,1-.113-.109l-.022-.677a.113.113,0,0,1,.226-.007l.022.677a.113.113,0,0,1-.109.116Zm44.423-.918a.113.113,0,0,1-.112-.1q-.026-.337-.058-.673a.113.113,0,1,1,.225-.021q.031.338.057.677a.113.113,0,0,1-.1.121Zm-44.5-1.338a.113.113,0,0,1-.113-.109l-.022-.677a.113.113,0,0,1,.226-.007l.022.677a.113.113,0,0,1-.109.116Zm44.059-.677h-.677a.113.113,0,0,1,0-.226h.677a.113.113,0,0,1,0,.226Zm-2.257,0h-.677a.113.113,0,0,1,0-.226h.677a.113.113,0,0,1,0,.226Zm-2.257,0h-.677a.113.113,0,0,1,0-.226h.677a.113.113,0,0,1,0,.226Zm-2.257,0h-.677a.113.113,0,0,1,0-.226h.677a.113.113,0,0,1,0,.226Zm-2.257,0h-.677a.113.113,0,1,1,0-.226h.677a.113.113,0,0,1,0,.226Zm-2.258,0h-.677a.113.113,0,0,1,0-.226h.677a.113.113,0,1,1,0,.226Zm-2.257,0h-.677a.113.113,0,1,1,0-.226h.677a.113.113,0,0,1,0,.226Zm-2.257,0h-.677a.113.113,0,0,1,0-.226h.677a.113.113,0,0,1,0,.226Zm-2.257,0h-.677a.113.113,0,0,1,0-.226h.677a.113.113,0,0,1,0,.226Zm-2.257,0h-.677a.113.113,0,0,1,0-.226h.677a.113.113,0,1,1,0,.226Zm-2.257,0h-.677a.113.113,0,1,1,0-.226h.677a.113.113,0,0,1,0,.226Zm-2.258,0h-.677a.113.113,0,0,1,0-.226h.677a.113.113,0,1,1,0,.226Zm-2.257,0h-.677a.113.113,0,1,1,0-.226h.677a.113.113,0,1,1,0,.226Zm-2.257,0h-.677a.113.113,0,0,1,0-.226h.677a.113.113,0,0,1,0,.226Zm-2.257,0h-.677a.113.113,0,0,1,0-.226h.677a.113.113,0,0,1,0,.226Zm-2.257,0h-.677a.113.113,0,0,1,0-.226h.677a.113.113,0,0,1,0,.226Zm-2.257,0h-.677a.113.113,0,1,1,0-.226h.677a.113.113,0,0,1,0,.226Zm-2.257,0h-.677a.113.113,0,0,1,0-.226h.677a.113.113,0,0,1,0,.226Zm-2.257,0h-.677a.113.113,0,0,1,0-.226h.677a.113.113,0,0,1,0,.226Zm-2.257,0h-.677a.113.113,0,1,1,0-.226h.677a.113.113,0,0,1,0,.226Z" transform="translate(-1630.496 -422.088)" fill="#fff"/>
    <path id="Trazado_145083" data-name="Trazado 145083" d="M2337.042,2744.983l.111-1.19a.915.915,0,0,1,.694-.535c1.152-.183,4.008-.506,5.383.522l.205,1.384Z" transform="translate(-1767.274 -240.68)" fill="url(#linear-gradient-37)"/>
    <path id="Trazado_145084" data-name="Trazado 145084" d="M2372.023,2692.954a1.651,1.651,0,0,1-.8,0,.72.72,0,0,1-.549-.7v-3.728h1.9v3.725A.723.723,0,0,1,2372.023,2692.954Z" transform="translate(-1798.658 -189.797)" fill="url(#linear-gradient-38)"/>
    <path id="Trazado_145085" data-name="Trazado 145085" d="M2611.556,2744.983l.111-1.19a.915.915,0,0,1,.694-.535c1.152-.183,4.008-.506,5.383.522l.206,1.384Z" transform="translate(-2023.412 -240.68)" fill="url(#linear-gradient-39)"/>
    <path id="Trazado_145086" data-name="Trazado 145086" d="M2646.537,2687.48a1.655,1.655,0,0,1-.8,0,.72.72,0,0,1-.549-.7v-4.121h1.9v4.118A.723.723,0,0,1,2646.537,2687.48Z" transform="translate(-2054.796 -184.322)" fill="url(#linear-gradient-40)"/>
    <path id="Trazado_145087" data-name="Trazado 145087" d="M2354.057,2617.306l20.4-.676a.983.983,0,0,0,.94-.807,8.311,8.311,0,0,0,.063-2.586,2.353,2.353,0,0,0-2.281-1.992c-3.806-.091-13.5-.088-18.836,2.025a1.865,1.865,0,0,0-1.127,1.294,4.521,4.521,0,0,0-.049,2.072A.878.878,0,0,0,2354.057,2617.306Z" transform="translate(-1782.23 -117.66)" fill="#5f4d90"/>
    <path id="Trazado_145088" data-name="Trazado 145088" d="M2359.161,2632.358a.226.226,0,0,1-.225-.2,4.933,4.933,0,0,1,.126-1.586,1.836,1.836,0,0,1,1.251-1.272,22.541,22.541,0,0,1,5.117-.956.226.226,0,1,1,.013.451,22.122,22.122,0,0,0-5,.938,1.383,1.383,0,0,0-.943.957,4.529,4.529,0,0,0-.113,1.423.226.226,0,0,1-.2.248Z" transform="translate(-1787.688 -133.637)" fill="#91b3fa"/>
    <path id="Trazado_145089" data-name="Trazado 145089" d="M2165.167,2763.331c6.591-.084,35.106-.384,43.389.615a1.687,1.687,0,0,1,1.45,1.306,55.691,55.691,0,0,1,1.357,12.448,1.476,1.476,0,0,1-1.209,1.408l-18.907,3.577h-6.716l-20.146-4a1.575,1.575,0,0,1-1.27-1.462,65.522,65.522,0,0,1,.357-12.449A1.744,1.744,0,0,1,2165.167,2763.331Z" transform="translate(-1604.865 -259.492)" fill="#9c8cc9"/>
    <path id="Trazado_145090" data-name="Trazado 145090" d="M2210.687,2802.307h-.677a.113.113,0,1,1,0-.226h.677a.113.113,0,0,1,0,.226Zm-2.257,0h-.677a.113.113,0,0,1,0-.226h.677a.113.113,0,0,1,0,.226Zm-2.257,0h-.346l-.686-.134a.113.113,0,1,1,.044-.221l.664.132.324,0a.113.113,0,1,1,0,.226Zm6.094-.007a.113.113,0,0,1-.021-.224l.666-.126a.113.113,0,0,1,.042.222l-.666.126Zm2.218-.419a.113.113,0,0,1-.021-.224l.665-.126a.113.113,0,0,1,.042.222l-.666.126Zm-10.872-.014-.022,0-.664-.132a.113.113,0,1,1,.044-.221l.664.132a.113.113,0,0,1-.022.223Zm13.089-.406a.113.113,0,0,1-.021-.224l.666-.126a.113.113,0,1,1,.042.222l-.666.126Zm-15.3-.034-.022,0-.664-.132a.113.113,0,0,1,.044-.221l.665.132a.113.113,0,0,1-.022.224Zm17.521-.386a.113.113,0,0,1-.021-.224l.666-.126a.113.113,0,1,1,.042.222l-.665.126Zm-19.736-.054-.022,0-.664-.132a.113.113,0,1,1,.044-.221l.664.132a.113.113,0,0,1-.022.224Zm21.953-.365a.113.113,0,0,1-.021-.224l.665-.126a.113.113,0,1,1,.042.222l-.666.126Zm-24.167-.075-.022,0-.664-.132a.113.113,0,0,1,.044-.222l.664.132a.113.113,0,0,1-.022.223Zm26.385-.345a.113.113,0,0,1-.021-.224l.665-.126a.113.113,0,0,1,.042.222l-.665.126Zm-28.6-.1-.022,0-.664-.132a.113.113,0,0,1,.044-.221l.664.132a.113.113,0,0,1-.022.224Zm30.817-.324a.113.113,0,0,1-.021-.224l.666-.126a.113.113,0,0,1,.042.222l-.666.126Zm-33.031-.116-.022,0-.664-.132a.113.113,0,0,1,.044-.221l.664.132a.113.113,0,0,1-.022.224Zm35.249-.3a.113.113,0,0,1-.021-.224l.665-.125a.113.113,0,0,1,.042.222l-.665.126Zm-37.463-.136-.022,0-.664-.132a.113.113,0,1,1,.044-.221l.664.132a.113.113,0,0,1-.021.224Zm39.681-.284a.113.113,0,0,1-.021-.224l.665-.126a.114.114,0,0,1,.132.09.112.112,0,0,1-.09.132l-.666.126Zm-41.895-.156-.022,0-.664-.132a.113.113,0,1,1,.044-.221l.664.132a.113.113,0,0,1-.021.224Zm-2.214-.44-.022,0-.112-.022,0-.088c-.01-.2-.02-.413-.031-.651a.113.113,0,0,1,.226-.01c.009.211.019.407.028.585a.113.113,0,0,1-.084.188Zm44.971-.946a.113.113,0,0,1-.113-.111q-.006-.338-.018-.675a.113.113,0,0,1,.109-.117.109.109,0,0,1,.117.109q.012.338.019.679a.113.113,0,0,1-.111.115Zm-45.085-1.289a.113.113,0,0,1-.113-.109q-.01-.329-.017-.678a.113.113,0,0,1,.11-.115.117.117,0,0,1,.115.111c.005.232.011.458.017.676a.113.113,0,0,1-.109.116Zm44.981-.966a.113.113,0,0,1-.112-.1q-.024-.339-.052-.674a.113.113,0,0,1,.1-.122.114.114,0,0,1,.122.1q.029.336.053.677a.113.113,0,0,1-.1.12Zm-45.021-1.292a.113.113,0,0,1-.113-.112q0-.227,0-.458v-.221a.113.113,0,0,1,.113-.113h0a.113.113,0,0,1,.113.113v.22q0,.23,0,.456a.113.113,0,0,1-.112.114Zm44.811-.957a.113.113,0,0,1-.112-.1q-.039-.341-.081-.671a.113.113,0,0,1,.1-.126.115.115,0,0,1,.126.1q.042.332.081.674a.113.113,0,0,1-.1.125Zm-44.791-1.3h0a.113.113,0,0,1-.11-.116q.008-.339.021-.679a.116.116,0,0,1,.117-.108.113.113,0,0,1,.109.117q-.012.338-.02.676A.113.113,0,0,1,2185.767,2791.6Zm44.49-.937a.113.113,0,0,1-.111-.1q-.053-.343-.107-.668a.113.113,0,0,1,.222-.037q.054.326.107.67a.113.113,0,0,1-.094.129Zm-44.391-1.318h-.008a.113.113,0,0,1-.1-.12q.023-.343.051-.678a.114.114,0,0,1,.122-.1.112.112,0,0,1,.1.122q-.028.333-.05.674A.113.113,0,0,1,2185.866,2789.34Zm44.007-.907a.113.113,0,0,1-.111-.092c-.045-.236-.089-.458-.131-.664a.113.113,0,1,1,.221-.045q.063.311.131.666a.113.113,0,0,1-.09.132Zm-43.787-1.339h-.016a.113.113,0,0,1-.1-.127q.048-.346.1-.673a.113.113,0,0,1,.223.038q-.055.323-.1.666A.113.113,0,0,1,2186.087,2787.094Zm42.837-.344h-.012q-.318-.033-.672-.063a.113.113,0,1,1,.019-.225q.357.031.676.063a.113.113,0,0,1-.011.225Zm-2.25-.181h-.007l-.675-.041a.113.113,0,0,1,.013-.226l.677.042a.113.113,0,0,1-.007.225Zm-2.254-.123h-.005l-.676-.03a.113.113,0,0,1-.108-.117.108.108,0,0,1,.118-.108l.677.03a.113.113,0,0,1-.005.226Zm-2.256-.091h0l-.676-.023a.113.113,0,0,1-.11-.116.11.11,0,0,1,.116-.109l.677.023a.113.113,0,0,1,0,.226Zm-2.256-.069h0l-.677-.018a.113.113,0,0,1,0-.226h0l.677.018a.113.113,0,0,1,0,.226Zm-2.257-.054h0l-.677-.013a.113.113,0,0,1-.111-.115.115.115,0,0,1,.115-.111l.677.014a.113.113,0,0,1,0,.226Zm-30.028-.037a.113.113,0,0,1,0-.226l.678-.008a.117.117,0,0,1,.114.112.113.113,0,0,1-.112.114l-.677.007Zm27.771,0h0l-.677-.01a.113.113,0,0,1,0-.226h0l.677.01a.113.113,0,0,1,0,.226Zm-25.512-.02a.113.113,0,0,1,0-.226l.678-.006h0a.113.113,0,0,1,0,.226l-.678.006Zm23.255-.012h0l-.677-.008a.113.113,0,0,1,0-.226h0l.677.008a.113.113,0,0,1,0,.226Zm-21-.009a.113.113,0,0,1,0-.226l.677-.006h0a.113.113,0,0,1,0,.226l-.677.006Zm18.739-.015h0l-.677-.006a.113.113,0,0,1,0-.226h0l.677.006a.113.113,0,0,1,0,.226Zm-16.481,0a.113.113,0,0,1,0-.226l.678,0h0a.113.113,0,0,1,0,.226l-.677,0Zm2.258-.014a.113.113,0,0,1,0-.226l.677,0h0a.113.113,0,0,1,0,.226l-.677,0Zm11.966,0h0l-.677,0a.113.113,0,0,1,0-.226h0l.677,0a.113.113,0,0,1,0,.226Zm-9.708-.009a.113.113,0,0,1,0-.226l.677,0a.113.113,0,1,1,0,.226l-.678,0Zm7.45,0h0l-.677,0a.113.113,0,0,1,0-.226h0l.677,0a.113.113,0,0,1,0,.226Zm-5.192,0a.113.113,0,0,1,0-.226h.678a.113.113,0,0,1,0,.226Zm2.935,0h-.677a.113.113,0,1,1,0-.226h.677a.113.113,0,0,1,0,.226Z" transform="translate(-1626 -280.629)" fill="#fff"/>
    <path id="Trazado_145091" data-name="Trazado 145091" d="M2463.072,2974.922h-5.884a1.52,1.52,0,0,1-1.512-1.336l-.68-5.662a1.518,1.518,0,0,1,1.512-1.7h7.068a1.519,1.519,0,0,1,1.517,1.649l-.5,5.662A1.52,1.52,0,0,1,2463.072,2974.922Z" transform="translate(-1877.322 -448.908)" fill="url(#linear-gradient-41)"/>
    <path id="Trazado_145092" data-name="Trazado 145092" d="M2479.188,2988.311h-4.478a1.157,1.157,0,0,1-1.151-1.017l-.517-4.309a1.155,1.155,0,0,1,1.151-1.29h5.38a1.156,1.156,0,0,1,1.155,1.255l-.384,4.309A1.157,1.157,0,0,1,2479.188,2988.311Z" transform="translate(-1894.162 -463.34)" fill="#c3b5ec"/>
  </g>
</svg>
