<svg xmlns="http://www.w3.org/2000/svg" width="72.852" height="72.852" viewBox="0 0 72.852 72.852">
  <g id="XMLID_2603_" transform="translate(0.5 0.5)">
    <g id="XMLID_636_">
      <path id="XMLID_1699_" d="M12.987,25.975A12.987,12.987,0,1,0,0,12.987,13,13,0,0,0,12.987,25.975Zm0-23.168A10.181,10.181,0,1,1,2.807,12.987,10.192,10.192,0,0,1,12.987,2.807Z" fill="#ff7758" stroke="#ff7758" stroke-width="1"/>
      <path id="XMLID_1701_" d="M85.123,45.3A1.4,1.4,0,1,0,87.1,43.313l-1.685-1.68V35.4a1.4,1.4,0,0,0-2.807,0v6.813a1.4,1.4,0,0,0,.413.994Z" transform="translate(-71.019 -29.229)" fill="#ff7758" stroke="#ff7758" stroke-width="1"/>
      <path id="XMLID_1706_" d="M70.448,164.3H61.811a8.288,8.288,0,0,0-5.006-3.33l-6.17-1.349a9.469,9.469,0,0,0,4.189-7.857V146.4a9.471,9.471,0,0,0-18.941,0v5.369a9.469,9.469,0,0,0,4.179,7.851L33.9,160.972c-.263.058-.522.129-.777.211V149.569a1.4,1.4,0,0,0-1.4-1.4H22.173a1.4,1.4,0,1,0,0,2.807h8.139v19.647H20.77V163.6a4.21,4.21,0,1,0-8.42,0v7.017H2.807V150.972h8.139a1.4,1.4,0,0,0,0-2.807H1.4a1.4,1.4,0,0,0-1.4,1.4v22.454a1.4,1.4,0,0,0,1.4,1.4H12.349v2.666h-.14a4.355,4.355,0,0,0-4.35,4.35v.7H1.4a1.4,1.4,0,0,0-1.4,1.4v5.613a1.4,1.4,0,0,0,1.4,1.4H70.448a1.4,1.4,0,0,0,1.4-1.4V165.708A1.4,1.4,0,0,0,70.448,164.3Zm-8.535,16.84H53.889v-2.807H69.045v2.807Zm7.132-5.613H53.889v-2.807H69.045Zm0-5.613H53.889v-2.807H69.045ZM38.689,146.4A6.664,6.664,0,0,1,52,145.878l-3.262-1.917a1.4,1.4,0,0,0-1.786.309,7.442,7.442,0,0,1-5.718,2.669H38.689V146.4Zm0,3.345H41.23a10.239,10.239,0,0,0,7.046-2.8l3.741,2.2v2.623a6.664,6.664,0,1,1-13.328,0v-2.023Zm8.862,11.234-2.219,5.935-2.223-5.946a9.421,9.421,0,0,0,4.443.011ZM31.716,173.426a1.4,1.4,0,0,0,1.4-1.4v-7.806a5.46,5.46,0,0,1,1.378-.5l6.138-1.347,3.382,9.046a1.4,1.4,0,0,0,2.629,0l3.383-9.046,6.176,1.35a5.463,5.463,0,0,1,1.53.588h-5.25a1.4,1.4,0,0,0-1.4,1.4v15.437H30.2v-7.718h1.519Zm-4.325,0v7.718H25.26v-.7a4.355,4.355,0,0,0-4.35-4.35h-.14v-2.666ZM15.156,163.6a1.4,1.4,0,0,1,2.807,0v12.49H15.156Zm-4.491,16.84a1.545,1.545,0,0,1,1.544-1.544h8.7a1.545,1.545,0,0,1,1.544,1.544v.7H10.665Zm58.379,6.315H2.807v-2.807H69.045Z" transform="translate(0 -117.713)" fill="#ff7758" stroke="#ff7758" stroke-width="1"/>
      <path id="XMLID_1768_" d="M108.411,217.411A1.4,1.4,0,1,0,109.4,217,1.414,1.414,0,0,0,108.411,217.411Z" transform="translate(-92.844 -186.547)" fill="#ff7758" stroke="#ff7758" stroke-width="1"/>
    </g>
  </g>
</svg>
