<svg xmlns="http://www.w3.org/2000/svg" width="65.333" height="80" viewBox="0 0 65.333 80">
  <g id="manual-2" transform="translate(0)">
    <path id="Trazado_102574" data-name="Trazado 102574" d="M66.134,8.533A10.7,10.7,0,0,0,55.467,19.2V72.941c.016-.027.024-.055.04-.08a1.028,1.028,0,0,1,.82-.507,10.7,10.7,0,0,1,9.807-6.488h52V8.533Z" transform="translate(-54.133 -7.2)" fill="#ff7758"/>
    <path id="Trazado_102575" data-name="Trazado 102575" d="M66.134,349.867a10.667,10.667,0,0,0,0,21.333h9.333V360.534h8V371.2h34.666V349.867Z" transform="translate(-54.133 -295.201)" fill="#c3b5ec"/>
    <path id="Trazado_102576" data-name="Trazado 102576" d="M94.934,384a5.333,5.333,0,0,0,0,10.667h9.333v-5.333h8v5.333h34.666V384Z" transform="translate(-82.934 -324)" fill="#fff"/>
    <path id="Trazado_102577" data-name="Trazado 102577" d="M125.867,412.268h-9.333a1.333,1.333,0,0,1,0-2.667h9.333a1.333,1.333,0,0,1,0,2.667Z" transform="translate(-104.534 -345.601)" fill="#ad9b41"/>
    <path id="Trazado_102578" data-name="Trazado 102578" d="M64.8,9.131A10.7,10.7,0,0,0,55.467,19.7V73.037A10.7,10.7,0,0,1,64.8,62.464V9.131Z" transform="translate(-54.133 -7.704)" fill="#ff7758"/>
    <g id="Grupo_54018" data-name="Grupo 54018" transform="translate(1.334 10.573)">
      <path id="Trazado_102579" data-name="Trazado 102579" d="M55.467,78.242v8.187A10.7,10.7,0,0,1,64.8,75.856V67.669A10.7,10.7,0,0,0,55.467,78.242Z" transform="translate(-55.467 -67.669)" fill="#675d84"/>
      <path id="Trazado_102580" data-name="Trazado 102580" d="M55.467,215.373v8.187A10.7,10.7,0,0,1,64.8,212.987V204.8A10.7,10.7,0,0,0,55.467,215.373Z" transform="translate(-55.467 -183.373)" fill="#675d84"/>
    </g>
    <path id="Trazado_102581" data-name="Trazado 102581" d="M191.467,424.267l-4-4-4,4V409.6h8Z" transform="translate(-162.134 -345.6)" fill="#ffba5b"/>
    <path id="Trazado_102582" data-name="Trazado 102582" d="M209.6,84.533A19.579,19.579,0,0,1,195.156,91.2a20,20,0,1,1,0-40c5.659,0,10.773,2.963,14.444,6.667L194.934,71.2Z" transform="translate(-154.934 -43.2)" fill="#c3b5ec"/>
    <ellipse id="Elipse_4132" data-name="Elipse 4132" cx="3.333" cy="3.333" rx="3.333" ry="3.333" transform="translate(32 14.667)" fill="#fff"/>
    <g id="Grupo_54019" data-name="Grupo 54019" transform="translate(0)">
      <path id="Trazado_102583" data-name="Trazado 102583" d="M48.267,66.666a1.333,1.333,0,0,1-1.333-1.333V12a12.013,12.013,0,0,1,12-12h52a1.333,1.333,0,0,1,1.333,1.333V54.666A1.333,1.333,0,0,1,110.933,56h-52A9.344,9.344,0,0,0,49.6,65.333,1.333,1.333,0,0,1,48.267,66.666Zm10.667-64A9.344,9.344,0,0,0,49.6,12V57.8a11.985,11.985,0,0,1,9.333-4.465H109.6V2.667Z" transform="translate(-46.934)"/>
      <path id="Trazado_102584" data-name="Trazado 102584" d="M125.867,412.268h-9.333a1.333,1.333,0,0,1,0-2.667h9.333a1.333,1.333,0,0,1,0,2.667Z" transform="translate(-104.534 -345.601)"/>
      <path id="Trazado_102585" data-name="Trazado 102585" d="M235.467,412.268h-8a1.333,1.333,0,0,1,0-2.667h8a1.333,1.333,0,0,1,0,2.667Z" transform="translate(-198.134 -345.601)"/>
      <path id="Trazado_102586" data-name="Trazado 102586" d="M413.334,412.268h-6.667a1.333,1.333,0,0,1,0-2.667h6.667a1.333,1.333,0,0,1,0,2.667Z" transform="translate(-349.335 -345.601)"/>
      <path id="Trazado_102587" data-name="Trazado 102587" d="M48.267,67.176a1.333,1.333,0,0,1-1.333-1.333V12.51a12.019,12.019,0,0,1,10.5-11.9,1.334,1.334,0,0,1,1.5,1.323V55.269a1.333,1.333,0,0,1-1.167,1.323A9.348,9.348,0,0,0,49.6,65.843,1.333,1.333,0,0,1,48.267,67.176Zm8-63.6A9.348,9.348,0,0,0,49.6,12.51V58.319a12.018,12.018,0,0,1,6.667-4.167V3.576Z" transform="translate(-46.934 -0.51)"/>
      <path id="Trazado_102588" data-name="Trazado 102588" d="M48.267,80.565a1.333,1.333,0,0,1-1.333-1.333V71.045a12.019,12.019,0,0,1,10.5-11.9,1.345,1.345,0,0,1,1.048.324,1.329,1.329,0,0,1,.452,1V68.66a1.333,1.333,0,0,1-1.167,1.323A9.345,9.345,0,0,0,49.6,79.232,1.333,1.333,0,0,1,48.267,80.565Zm8-18.455A9.35,9.35,0,0,0,49.6,71.045v.663a12.018,12.018,0,0,1,6.667-4.167Z" transform="translate(-46.934 -49.899)"/>
      <path id="Trazado_102589" data-name="Trazado 102589" d="M48.267,217.7a1.333,1.333,0,0,1-1.333-1.333v-8.187a12.019,12.019,0,0,1,10.5-11.9,1.349,1.349,0,0,1,1.049.323,1.332,1.332,0,0,1,.451,1v8.187a1.333,1.333,0,0,1-1.167,1.323,9.348,9.348,0,0,0-8.167,9.251A1.333,1.333,0,0,1,48.267,217.7Zm8-18.455a9.349,9.349,0,0,0-6.667,8.933v.664a12.013,12.013,0,0,1,6.667-4.168Z" transform="translate(-46.934 -165.608)"/>
      <path id="Trazado_102590" data-name="Trazado 102590" d="M184.268,425.6a1.333,1.333,0,0,1-.943-.391l-3.057-3.057-3.057,3.057a1.333,1.333,0,0,1-2.276-.943V410.934a1.333,1.333,0,0,1,1.333-1.333h8a1.333,1.333,0,0,1,1.333,1.333v13.333a1.334,1.334,0,0,1-.823,1.232A1.319,1.319,0,0,1,184.268,425.6Zm-4-6.667a1.329,1.329,0,0,1,.943.391l1.724,1.724v-8.781H177.6v8.781l1.724-1.724A1.33,1.33,0,0,1,180.268,418.934Z" transform="translate(-154.935 -345.601)"/>
      <path id="Trazado_102591" data-name="Trazado 102591" d="M139.734,388.8H105.068a1.333,1.333,0,0,1-1.333-1.333v-4H98.4v4a1.333,1.333,0,0,1-1.333,1.333H87.735a6.667,6.667,0,0,1,0-13.333h52a1.333,1.333,0,0,1,1.333,1.333v10.667A1.333,1.333,0,0,1,139.734,388.8ZM106.4,386.133h32v-8H87.734a4,4,0,0,0,0,8h8v-4a1.333,1.333,0,0,1,1.333-1.333h8a1.333,1.333,0,0,1,1.333,1.333v4Z" transform="translate(-75.735 -316.8)"/>
      <path id="Trazado_102592" data-name="Trazado 102592" d="M110.934,365.333H76.268A1.333,1.333,0,0,1,74.935,364v-9.333H69.6V364a1.333,1.333,0,0,1-1.333,1.333H58.935a12,12,0,0,1,0-24h52a1.333,1.333,0,0,1,1.333,1.333V364A1.333,1.333,0,0,1,110.934,365.333ZM77.6,362.666h32V344H58.935a9.333,9.333,0,0,0,0,18.667h8v-9.333A1.333,1.333,0,0,1,68.268,352h8a1.333,1.333,0,0,1,1.333,1.333v9.333Z" transform="translate(-46.935 -288)"/>
      <path id="Trazado_102593" data-name="Trazado 102593" d="M187.957,85.333a21.334,21.334,0,1,1,0-42.666c7.3,0,12.778,4.424,15.392,7.061a1.334,1.334,0,0,1-.051,1.925L189.717,64,203.3,76.347a1.334,1.334,0,0,1,.076,1.9A20.863,20.863,0,0,1,187.957,85.333Zm0-40a18.668,18.668,0,1,0,0,37.333,18.041,18.041,0,0,0,12.518-5.283l-13.638-12.4a1.335,1.335,0,0,1,0-1.973l13.608-12.369C197.874,48.324,193.485,45.334,187.957,45.334Z" transform="translate(-147.734 -36)"/>
      <path id="Trazado_102594" data-name="Trazado 102594" d="M247.868,94.666A4.667,4.667,0,1,1,252.534,90,4.672,4.672,0,0,1,247.868,94.666Zm0-6.667a2,2,0,1,0,2,2A2,2,0,0,0,247.868,88Z" transform="translate(-212.535 -72)"/>
    </g>
  </g>
</svg>
