<svg xmlns="http://www.w3.org/2000/svg" width="79.998" height="80" viewBox="0 0 79.998 80">
  <g id="objetivo" transform="translate(0 0)">
    <g id="Grupo_54000" data-name="Grupo 54000" transform="translate(1.171 1.172)">
      <path id="Trazado_102093" data-name="Trazado 102093" d="M35.8,0A35.8,35.8,0,1,1,0,35.8,35.8,35.8,0,0,1,35.8,0Z" transform="translate(0 6.05)" fill="#ffba5b"/>
      <ellipse id="Elipse_4123" data-name="Elipse 4123" cx="25.961" cy="25.962" rx="25.961" ry="25.962" transform="translate(9.841 15.891)" fill="#ebebeb"/>
      <path id="Trazado_102094" data-name="Trazado 102094" d="M16.12,0A16.12,16.12,0,1,1,0,16.12,16.12,16.12,0,0,1,16.12,0Z" transform="translate(19.683 25.733)" fill="#ffba5b"/>
      <path id="Trazado_102095" data-name="Trazado 102095" d="M6.278,0A6.278,6.278,0,1,1,0,6.278,6.278,6.278,0,0,1,6.278,0Z" transform="translate(29.524 35.575)" fill="#ff7758"/>
      <g id="Grupo_53999" data-name="Grupo 53999" transform="translate(60.652)">
        <path id="Trazado_102089" data-name="Trazado 102089" d="M404.021,7.664l-7.854,7.854a1.664,1.664,0,0,0-.484,1.28l.455,7.247,9.253-9.254-.425-6.771A.554.554,0,0,0,404.021,7.664Z" transform="translate(-395.68 -7.5)" fill="#c3b5ec"/>
        <path id="Trazado_102090" data-name="Trazado 102090" d="M414.993,55.534l-7.854,7.854a1.664,1.664,0,0,1-1.28.484l-7.247-.455,9.254-9.254,6.771.425A.554.554,0,0,1,414.993,55.534Z" transform="translate(-398.154 -46.873)" fill="#c3b5ec"/>
      </g>
    </g>
    <path id="Trazado_102091" data-name="Trazado 102091" d="M69.633,19.348a2.836,2.836,0,0,0,2-.83l7.854-7.854A1.728,1.728,0,0,0,78.379,7.72L74.2,7.458,76.927,4.73a1.172,1.172,0,1,0-1.657-1.657L72.542,5.8l-.262-4.18A1.728,1.728,0,0,0,69.336.508L61.482,8.362a2.836,2.836,0,0,0-.825,2.182l.27,4.3A36.98,36.98,0,0,0,9.618,67.9a1.172,1.172,0,0,0,1.734-1.577A34.649,34.649,0,0,1,60.642,17.7l-5.347,5.347A27.116,27.116,0,0,0,12.846,55.43h0a27.132,27.132,0,0,0,50.7-6.887,1.172,1.172,0,1,0-2.295-.476,24.789,24.789,0,0,1-46.32,6.288h0a24.467,24.467,0,0,1-2.743-11.328A24.764,24.764,0,0,1,53.638,24.7l-5.3,5.3A17.313,17.313,0,1,0,50,31.662l5.3-5.3a24.684,24.684,0,0,1,6.467,16.52,1.172,1.172,0,0,0,1.172,1.165h.007a1.172,1.172,0,0,0,1.165-1.179A27.021,27.021,0,0,0,56.953,24.7L62.3,19.357a34.649,34.649,0,0,1-47.106,50.6,1.172,1.172,0,0,0-1.475,1.821,36.975,36.975,0,0,0,60.23-28.747A36.677,36.677,0,0,0,66.677,21q-.739-.995-1.536-1.931c4.594.289,4.346.277,4.491.277ZM51.922,43.026a14.966,14.966,0,1,1-5.245-11.361L41.345,37A7.461,7.461,0,1,0,43,38.656l5.333-5.333A14.884,14.884,0,0,1,51.922,43.026Zm-15.776.829a1.172,1.172,0,0,0,1.657,0l3.513-3.513a5.112,5.112,0,1,1-1.657-1.657L36.145,42.2A1.172,1.172,0,0,0,36.145,43.855ZM63,10.4a.491.491,0,0,1,.143-.378l6.887-6.887.306,4.878-7.044,7.044Zm1.949,6.313L71.99,9.667l4.877.306L69.98,16.861A.49.49,0,0,1,69.6,17Z" transform="translate(0 -0.001)"/>
  </g>
</svg>
