<svg xmlns="http://www.w3.org/2000/svg" xmlns:xlink="http://www.w3.org/1999/xlink" width="257.26" height="256.988" viewBox="0 0 257.26 256.988">
  <defs>
    <linearGradient id="linear-gradient" x1="0.531" y1="0.127" x2="0.328" y2="1.542" gradientUnits="objectBoundingBox">
      <stop offset="0" stop-color="#09005d"/>
      <stop offset="1" stop-color="#1a0f91"/>
    </linearGradient>
    <linearGradient id="linear-gradient-2" x1="0.639" y1="-14.128" x2="0.128" y2="39.266" gradientUnits="objectBoundingBox">
      <stop offset="0" stop-color="#53d8ff"/>
      <stop offset="1" stop-color="#3840f7"/>
    </linearGradient>
    <linearGradient id="linear-gradient-3" x1="0.598" y1="-8.038" x2="0.176" y2="28.076" xlink:href="#linear-gradient-2"/>
    <linearGradient id="linear-gradient-4" x1="0.583" y1="-6.864" x2="0.168" y2="29.22" xlink:href="#linear-gradient-2"/>
    <linearGradient id="linear-gradient-5" x1="0.574" y1="-5.734" x2="0.135" y2="30.691" xlink:href="#linear-gradient-2"/>
    <linearGradient id="linear-gradient-6" x1="17.369" y1="-3.753" x2="9.002" y2="-1.648" gradientUnits="objectBoundingBox">
      <stop offset="0" stop-color="#e1473d"/>
      <stop offset="1" stop-color="#e9605a"/>
    </linearGradient>
    <linearGradient id="linear-gradient-7" x1="18.048" y1="-3.911" x2="9.682" y2="-1.806" xlink:href="#linear-gradient-6"/>
    <linearGradient id="linear-gradient-8" x1="78.656" y1="-0.005" x2="75.818" y2="6.383" xlink:href="#linear-gradient"/>
    <linearGradient id="linear-gradient-9" x1="310.552" y1="1.386" x2="311.559" y2="1.386" gradientUnits="objectBoundingBox">
      <stop offset="0" stop-color="#febbba"/>
      <stop offset="1" stop-color="#ff928e"/>
    </linearGradient>
    <linearGradient id="linear-gradient-10" x1="99.222" y1="0.092" x2="96.206" y2="0.947" xlink:href="#linear-gradient"/>
    <linearGradient id="linear-gradient-11" x1="195.338" y1="-1.632" x2="188.318" y2="5.932" xlink:href="#linear-gradient"/>
    <linearGradient id="linear-gradient-12" x1="362.022" y1="1.203" x2="363.036" y2="1.203" xlink:href="#linear-gradient-9"/>
    <linearGradient id="linear-gradient-13" x1="66.47" y1="0.023" x2="64.453" y2="0.866" xlink:href="#linear-gradient"/>
    <linearGradient id="linear-gradient-14" x1="59.913" y1="0.64" x2="60.907" y2="0.64" xlink:href="#linear-gradient-9"/>
    <linearGradient id="linear-gradient-15" x1="173.594" y1="1.869" x2="175.575" y2="4.553" xlink:href="#linear-gradient-9"/>
    <linearGradient id="linear-gradient-16" x1="431.372" y1="1.364" x2="433.374" y2="-0.416" xlink:href="#linear-gradient-9"/>
    <linearGradient id="linear-gradient-17" x1="47.745" y1="0.788" x2="48.747" y2="0.788" xlink:href="#linear-gradient-9"/>
    <linearGradient id="linear-gradient-18" x1="119.425" y1="0.832" x2="120.416" y2="0.832" xlink:href="#linear-gradient-9"/>
    <linearGradient id="linear-gradient-19" x1="2.375" y1="20.371" x2="2.051" y2="19.305" xlink:href="#linear-gradient-9"/>
    <linearGradient id="linear-gradient-20" x1="1.898" y1="14.537" x2="2.103" y2="15.72" xlink:href="#linear-gradient"/>
    <linearGradient id="linear-gradient-21" x1="6.509" y1="95.607" x2="5.562" y2="90.994" xlink:href="#linear-gradient-9"/>
    <linearGradient id="linear-gradient-22" x1="42.406" y1="-0.062" x2="42.919" y2="2.428" xlink:href="#linear-gradient"/>
    <linearGradient id="linear-gradient-23" x1="144.507" y1="0.5" x2="145.507" y2="0.5" xlink:href="#linear-gradient-9"/>
    <linearGradient id="linear-gradient-24" x1="0.389" y1="-10.035" x2="0.496" y2="0.398" gradientUnits="objectBoundingBox">
      <stop offset="0" stop-color="#4f52ff"/>
      <stop offset="1" stop-color="#4042e2"/>
    </linearGradient>
    <linearGradient id="linear-gradient-25" x1="0" y1="0.5" x2="1" y2="0.5" xlink:href="#linear-gradient-9"/>
    <linearGradient id="linear-gradient-26" x1="0.384" y1="-3.582" x2="0.505" y2="0.525" xlink:href="#linear-gradient-24"/>
    <linearGradient id="linear-gradient-27" x1="0" y1="0.5" x2="1" y2="0.5" xlink:href="#linear-gradient"/>
    <linearGradient id="linear-gradient-29" x1="0.708" y1="0.132" x2="0.066" y2="1.227" xlink:href="#linear-gradient"/>
    <linearGradient id="linear-gradient-30" x1="0.367" y1="0.85" x2="0.601" y2="0.282" xlink:href="#linear-gradient-9"/>
    <linearGradient id="linear-gradient-32" x1="48.176" y1="7.351" x2="47.135" y2="8.101" xlink:href="#linear-gradient-9"/>
    <linearGradient id="linear-gradient-33" x1="38.992" y1="5.623" x2="39.761" y2="6.517" xlink:href="#linear-gradient"/>
    <linearGradient id="linear-gradient-34" x1="197.326" y1="23.374" x2="193.049" y2="25.984" xlink:href="#linear-gradient-9"/>
    <linearGradient id="linear-gradient-35" x1="40.501" y1="-812.947" x2="39.271" y2="-798.616" xlink:href="#linear-gradient"/>
    <linearGradient id="linear-gradient-36" x1="36.833" y1="-26.354" x2="34.207" y2="-25.054" xlink:href="#linear-gradient"/>
    <linearGradient id="linear-gradient-37" x1="-1.05" y1="2.829" x2="0.734" y2="-0.03" xlink:href="#linear-gradient-9"/>
    <linearGradient id="linear-gradient-38" x1="3.826" y1="-5.067" x2="1.474" y2="-1.022" xlink:href="#linear-gradient"/>
    <linearGradient id="linear-gradient-39" x1="0.47" y1="0.997" x2="0.639" y2="-1.153" xlink:href="#linear-gradient-9"/>
    <linearGradient id="linear-gradient-41" x1="3.608" y1="-17.351" x2="1.775" y2="-6.678" xlink:href="#linear-gradient"/>
    <linearGradient id="linear-gradient-42" x1="0.619" y1="-0.242" x2="0.442" y2="0.664" xlink:href="#linear-gradient"/>
    <linearGradient id="linear-gradient-43" x1="0.751" y1="1.908" x2="0.44" y2="0.311" xlink:href="#linear-gradient-9"/>
    <linearGradient id="linear-gradient-44" x1="16.606" y1="63.761" x2="18.006" y2="64.514" xlink:href="#linear-gradient-9"/>
    <linearGradient id="linear-gradient-45" x1="11.469" y1="86.541" x2="11.133" y2="89.521" xlink:href="#linear-gradient"/>
    <linearGradient id="linear-gradient-46" x1="66.963" y1="206.231" x2="72.833" y2="208.675" xlink:href="#linear-gradient-9"/>
    <linearGradient id="linear-gradient-47" x1="0.623" y1="0.5" x2="1.623" y2="0.5" xlink:href="#linear-gradient-9"/>
    <linearGradient id="linear-gradient-48" x1="1.822" y1="6.276" x2="1.083" y2="8.713" xlink:href="#linear-gradient"/>
    <linearGradient id="linear-gradient-49" x1="0.733" y1="0.134" x2="0.333" y2="0.8" xlink:href="#linear-gradient"/>
    <linearGradient id="linear-gradient-50" x1="-127.748" y1="4.474" x2="-127.732" y2="8.118" xlink:href="#linear-gradient"/>
    <linearGradient id="linear-gradient-51" x1="-405.064" y1="1.164" x2="-405.326" y2="-0.58" xlink:href="#linear-gradient-9"/>
    <linearGradient id="linear-gradient-52" x1="-235.948" y1="3.704" x2="-235.921" y2="7.136" xlink:href="#linear-gradient"/>
    <linearGradient id="linear-gradient-53" x1="-463.308" y1="1.13" x2="-463.593" y2="-0.791" xlink:href="#linear-gradient-9"/>
    <linearGradient id="linear-gradient-54" x1="0.262" y1="-0.145" x2="0.562" y2="0.725" xlink:href="#linear-gradient"/>
    <linearGradient id="linear-gradient-55" x1="-2004.835" y1="2.369" x2="-2003.454" y2="1.878" xlink:href="#linear-gradient-24"/>
    <linearGradient id="linear-gradient-56" x1="-114.106" y1="0.5" x2="-113.106" y2="0.5" xlink:href="#linear-gradient-9"/>
    <linearGradient id="linear-gradient-57" x1="-59.651" y1="0.5" x2="-58.651" y2="0.5" xlink:href="#linear-gradient-9"/>
    <linearGradient id="linear-gradient-58" x1="-226.064" y1="1.029" x2="-224.775" y2="0.222" xlink:href="#linear-gradient-9"/>
    <linearGradient id="linear-gradient-59" x1="-182.945" y1="0.175" x2="-184.261" y2="1.493" xlink:href="#linear-gradient-9"/>
    <linearGradient id="linear-gradient-60" x1="1.637" y1="-2.121" x2="0.754" y2="-0.158" xlink:href="#linear-gradient-6"/>
    <linearGradient id="linear-gradient-61" x1="-574.022" y1="2.763" x2="-570.76" y2="0.44" xlink:href="#linear-gradient-9"/>
    <linearGradient id="linear-gradient-62" x1="-1.288" y1="3.145" x2="0.762" y2="0.112" xlink:href="#linear-gradient-24"/>
    <linearGradient id="linear-gradient-63" x1="-1.297" y1="3.157" x2="0.754" y2="0.125" xlink:href="#linear-gradient-24"/>
    <linearGradient id="linear-gradient-64" x1="-1.74" y1="3.813" x2="0.31" y2="0.78" xlink:href="#linear-gradient-24"/>
    <linearGradient id="linear-gradient-65" x1="-1.749" y1="3.825" x2="0.302" y2="0.793" xlink:href="#linear-gradient-24"/>
    <linearGradient id="linear-gradient-66" x1="0.857" y1="-10.914" x2="0.637" y2="-3.932" xlink:href="#linear-gradient"/>
    <linearGradient id="linear-gradient-67" x1="0.211" y1="32.998" x2="0.464" y2="4.261" xlink:href="#linear-gradient-24"/>
  </defs>
  <g id="Grupo_82302" data-name="Grupo 82302" transform="translate(1290.167 3000.187)">
    <path id="Trazado_141104" data-name="Trazado 141104" d="M-1064.655-2779.962a92.217,92.217,0,0,1-14.11,11.88c-46.027,33.025-100.491,23.4-112.065,21.048-17.092-3.472-50.132-10.182-74.019-38.273-36.139-42.5-30.511-109.454-2.479-153.652,5.127-8.085,32.212-52.956,87.262-60.152,33.315-4.355,72.15,4.428,100.274,27.989C-1020.76-2921.663-1024.962-2821.749-1064.655-2779.962Z" transform="translate(0 0)" fill="#ffcbbf"/>
    <g id="Grupo_82272" data-name="Grupo 82272" transform="translate(-1286.062 -2985.48)">
      <g id="Grupo_82266" data-name="Grupo 82266" transform="translate(0 1.674)">
        <g id="Grupo_82262" data-name="Grupo 82262">
          <path id="Trazado_141105" data-name="Trazado 141105" d="M-1276.3-2724.949a.73.73,0,0,1-.428-.657c0-.955.013-1.926.049-2.886a.706.706,0,0,1,.752-.675c.971.047.64,1,.65,3.58a.7.7,0,0,1-.723.7A.743.743,0,0,1-1276.3-2724.949Z" transform="translate(1276.724 2795.54)" fill="#91b3fa"/>
          <path id="Trazado_141106" data-name="Trazado 141106" d="M-1273.564-2888.427c.306-1.809.69-3.627,1.14-5.4a.713.713,0,0,1,.879-.506c1.059.284.316.839-.587,6.17a.711.711,0,0,1-.835.573A.729.729,0,0,1-1273.564-2888.427Zm3.891-13.934c.676-1.714,1.433-3.432,2.225-5.048a.729.729,0,0,1,1.309.639c-.788,1.611-1.519,3.27-2.18,4.947a.718.718,0,0,1-.938.393A.722.722,0,0,1-1269.673-2902.362Zm6.675-12.824c1.011-1.527,2.1-3.033,3.23-4.477a.728.728,0,0,1,1.154.886c-1.109,1.414-2.174,2.891-3.164,4.386A.728.728,0,0,1-1263-2915.186Zm9.229-10.156a.707.707,0,0,1-.006-1.01c1.311-1.286,2.693-2.536,4.106-3.716.726-.606,1.676.491.949,1.1-1.384,1.156-2.738,2.381-4.024,3.64A.732.732,0,0,1-1253.77-2925.343Zm11.17-9.056a.7.7,0,0,1,.2-.988c1.556-.991,3.17-1.934,4.8-2.8a.723.723,0,0,1,.707,1.261c-1.6.85-3.18,1.772-4.7,2.744A.74.74,0,0,1-1242.6-2934.4Zm13.215-6.209a.734.734,0,0,1-.375-.391.7.7,0,0,1,.4-.923c1.733-.657,3.514-1.255,5.292-1.775a.741.741,0,0,1,.91.483.7.7,0,0,1-.475.888c-1.743.51-3.487,1.1-5.186,1.74A.735.735,0,0,1-1229.385-2940.608Zm14.012-3.737a.734.734,0,0,1-.417-.532.7.7,0,0,1,.585-.82c1.836-.294,3.708-.521,5.564-.672a.737.737,0,0,1,.794.653.7.7,0,0,1-.65.771c-1.819.149-3.653.371-5.452.66A.742.742,0,0,1-1215.372-2944.345Zm14.113-1.513a.707.707,0,0,1,.746-.682c1.863.083,3.75.24,5.608.467a.714.714,0,1,1-.154,1.419c-1.82-.223-3.669-.376-5.495-.457A.735.735,0,0,1-1201.26-2945.858Zm45.328,18.76c-4.105-3.622-5.085-3.637-4.426-4.494a.729.729,0,0,1,1.015-.127c1.495,1.126,2.965,2.324,4.368,3.563A.713.713,0,1,1-1155.932-2927.1Zm-30.849-16.783a.713.713,0,0,1,.874-.515c1.813.456,3.634.989,5.412,1.583a.712.712,0,1,1-.444,1.353c-1.743-.582-3.528-1.1-5.3-1.551A.727.727,0,0,1-1186.781-2943.881Zm19.075,8.348c-4.744-2.722-5.717-2.545-5.25-3.523a.739.739,0,0,1,.964-.329c1.7.808,3.379,1.689,5,2.619a.716.716,0,0,1,.275.978A.724.724,0,0,1-1167.706-2935.533Z" transform="translate(1274.536 2946.541)" fill="#675d84"/>
          <path id="Trazado_141107" data-name="Trazado 141107" d="M-866.02-2862.5c-1.539-1.9-2.529-2.57-1.788-3.2a.734.734,0,0,1,1.024.082c1.669,1.9,2.52,2.665,1.785,3.24A.828.828,0,0,1-866.02-2862.5Z" transform="translate(992.839 2890.502)" fill="#91b3fa"/>
        </g>
        <g id="Grupo_82263" data-name="Grupo 82263" transform="translate(13.956 77.088)">
          <path id="Trazado_141108" data-name="Trazado 141108" d="M-810.911-2689.872a.727.727,0,0,1-.422-.747c.117-.932.215-1.877.292-2.809a.708.708,0,0,1,.783-.641.735.735,0,0,1,.664.782c-.079.951-.18,1.916-.3,2.867a.71.71,0,0,1-.809.608A.74.74,0,0,1-810.911-2689.872Z" transform="translate(939.481 2694.072)" fill="#675d84"/>
          <path id="Trazado_141109" data-name="Trazado 141109" d="M-1185.319-2609.171c-1.81-.9-3.6-1.875-5.332-2.914a.716.716,0,0,1-.254-.984c.577-.947.922,0,6.219,2.622a.719.719,0,0,1,.337.96A.74.74,0,0,1-1185.319-2609.171Zm8.652,2.871c.35-1.049.926-.188,6.621,1.24a.726.726,0,0,1,.539.87.713.713,0,0,1-.873.516c-1.949-.488-3.908-1.066-5.823-1.716A.724.724,0,0,1-1176.667-2606.3Zm-22.078-11.423c-1.57-1.26-3.108-2.6-4.571-3.988a.709.709,0,0,1-.029-1.011c.776-.8.9.2,5.5,3.9a.711.711,0,0,1,.115,1.007A.731.731,0,0,1-1198.745-2617.723Zm37.831,15.735a.728.728,0,0,1-.424-.728.708.708,0,0,1,.791-.629c1.963.219,3.955.358,5.92.412a.735.735,0,0,1,.718.735.706.706,0,0,1-.733.695c-2.006-.056-4.039-.2-6.042-.422A.751.751,0,0,1-1160.914-2601.988Zm15.688.031a.732.732,0,0,1-.422-.569.7.7,0,0,1,.629-.789c1.951-.21,3.917-.506,5.844-.878a.74.74,0,0,1,.861.565.7.7,0,0,1-.558.839c-1.967.38-3.974.681-5.965.9A.739.739,0,0,1-1145.226-2601.957Zm15.257-3.362a.732.732,0,0,1-.385-.416.7.7,0,0,1,.436-.907c1.852-.627,3.7-1.339,5.489-2.117a.741.741,0,0,1,.962.368.7.7,0,0,1-.357.942c-1.827.794-3.711,1.521-5.6,2.161A.733.733,0,0,1-1129.969-2605.318Zm14.093-6.571a.738.738,0,0,1-.314-.274.7.7,0,0,1,.224-.983c1.662-1.011,3.3-2.105,4.869-3.252a.736.736,0,0,1,1.017.154.7.7,0,0,1-.139,1c-1.6,1.171-3.272,2.287-4.969,3.319A.734.734,0,0,1-1115.877-2611.889Zm12.035-9.617c-.8-.8.214-.875,4.006-5.25a.727.727,0,0,1,1.11.939c-1.294,1.493-2.67,2.948-4.09,4.326A.733.733,0,0,1-1103.842-2621.506Zm9.917-11.829c-.954-.608.006-.9,2.717-6.008a.729.729,0,0,1,1.289.679c-.925,1.744-1.936,3.468-3,5.123A.726.726,0,0,1-1093.925-2633.336Zm6.939-13.749a.722.722,0,0,1-.385-.9c.664-1.824,1.256-3.691,1.758-5.55a.714.714,0,0,1,.888-.492.728.728,0,0,1,.516.883c-.513,1.9-1.117,3.8-1.795,5.662a.716.716,0,0,1-.927.418A.579.579,0,0,1-1086.986-2647.084Z" transform="translate(1211.931 2666.271)" fill="#675d84"/>
          <path id="Trazado_141110" data-name="Trazado 141110" d="M-1229.094-2579.852c-1.583-1.971-2.395-2.775-1.633-3.315.793-.562,1.145.422,2.765,2.441a.7.7,0,0,1-.113,1A.736.736,0,0,1-1229.094-2579.852Z" transform="translate(1231.016 2617.139)" fill="#675d84"/>
        </g>
        <g id="Grupo_82265" data-name="Grupo 82265" transform="translate(18.968 17.921)">
          <path id="Trazado_141111" data-name="Trazado 141111" d="M-1208.494-2808.837l10.389-.547a46.2,46.2,0,0,0,10.493,10.319c-.3,9.959-1.028,10.636.008,11.064l11.589,4.794a.857.857,0,0,0,.966-.213l6.822-7.626a46.056,46.056,0,0,0,14.7.1l6.982,7.732a.873.873,0,0,0,.97.227l11.493-4.626a.824.824,0,0,0,.518-.826l-.735-10.247a43.886,43.886,0,0,0,10.293-10.16l10.395.7a.838.838,0,0,0,.837-.513l4.665-11.336a.843.843,0,0,0-.233-.956l-7.861-6.855a44.052,44.052,0,0,0-.152-14.481c7.407-6.747,8.376-6.685,7.942-7.7-5-11.1-4.606-11.99-5.744-11.93l-10.389.547a46.2,46.2,0,0,0-10.494-10.319c.3-9.953,1.028-10.635-.008-11.065-11.6-4.565-11.821-5.4-12.555-4.581l-6.822,7.627a46.041,46.041,0,0,0-14.7-.1c-6.893-7.325-6.916-8.376-7.952-7.959-11.292,4.778-12.091,4.345-12.011,5.452l.735,10.247a43.887,43.887,0,0,0-10.292,10.16c-9.937-.462-10.806-1.219-11.232-.184-4.413,11.3-5.282,11.549-4.432,12.291l7.861,6.855a44.052,44.052,0,0,0,.152,14.481c-7.381,6.724-8.378,6.679-7.941,7.7C-1209.24-2809.665-1209.632-2808.778-1208.494-2808.837Z" transform="translate(1214.602 2887.847)" fill="#ffba5b"/>
          <g id="Grupo_82264" data-name="Grupo 82264" transform="translate(41.092 40.468)">
            <path id="Trazado_141112" data-name="Trazado 141112" d="M-1079.909-2745.136a11.925,11.925,0,0,1,13.714-10.035,12.292,12.292,0,0,1,10.425,13.688,11.926,11.926,0,0,1-13.714,10.035h0A12.29,12.29,0,0,1-1079.909-2745.136Zm10.572,12.628.006,0Zm2.848-20.542a9.782,9.782,0,0,0-11.263,8.24,10.093,10.093,0,0,0,8.562,11.242,9.794,9.794,0,0,0,11.263-8.241A10.093,10.093,0,0,0-1066.489-2753.05Z" transform="translate(1080.021 2755.312)" fill="#fff"/>
          </g>
          <path id="Trazado_141113" data-name="Trazado 141113" d="M-1123.26-2758.425h0a32.243,32.243,0,0,1-4.7-2.66,1.076,1.076,0,0,1-.384-1.334,1.047,1.047,0,0,1,.092-.16,1.092,1.092,0,0,1,1.511-.261,30.154,30.154,0,0,0,5.465,2.954h0c14.492,5.995,30.978-.346,37.336-14.145q.244-.528.467-1.071c6.019-14.627-1.267-31.374-16.1-37.516-14.817-6.13-31.793.63-37.8,15.216-3.573,8.684-1.423,14.833-1.833,15.724a1.1,1.1,0,0,1-2.068-.307,30.133,30.133,0,0,1,2.384-17.4c11.138-24.167,46.581-23.178,57.2,1.572a30.157,30.157,0,0,1,.239,23.551q-.241.587-.506,1.162a30.052,30.052,0,0,1-16.227,15.369,31.461,31.461,0,0,1-23.9-.175Q-1122.678-2758.156-1123.26-2758.425Z" transform="translate(1163.932 2838.605)" fill="#fff"/>
        </g>
      </g>
      <g id="Grupo_82271" data-name="Grupo 82271" transform="translate(131.449 0)">
        <path id="Trazado_141114" data-name="Trazado 141114" d="M-809.734-2880.312a25.323,25.323,0,0,0,6.247,5.316l.117,5.807c.013.645.564.4,6.966,2.585.592.191.527-.362,4.016-4.812a25.335,25.335,0,0,0,8.176-.664l4.192,4.027c.466.447.678-.12,6.753-3.1a.478.478,0,0,0,.255-.492l-.819-5.754a25.32,25.32,0,0,0,5.316-6.248c5.547-.227,6.057.156,6.252-.448,2-6.607,2.474-6.787,1.972-7.163l-4.645-3.488a25.312,25.312,0,0,0-.664-8.176l4.027-4.191c.447-.465-.119-.678-3.1-6.753-.282-.552-.6-.119-6.246.564a25.3,25.3,0,0,0-6.247-5.316l-.117-5.808c-.013-.645-.564-.395-6.966-2.584-.589-.19-.51.34-4.016,4.813a25.309,25.309,0,0,0-8.176.664l-4.191-4.027a.478.478,0,0,0-.548-.08l-6.2,3.179a.477.477,0,0,0-.255.492l.819,5.754a25.314,25.314,0,0,0-5.316,6.247c-5.547.227-6.058-.156-6.252.448-2,6.6-2.474,6.786-1.972,7.163l4.645,3.488a25.326,25.326,0,0,0,.664,8.176c-3.762,4.083-4.4,4.173-4.107,4.739l3.179,6.2C-815.7-2879.194-815.347-2879.633-809.734-2880.312Z" transform="translate(828.385 2934.669)" fill="#ffba5b"/>
        <g id="Grupo_82270" data-name="Grupo 82270">
          <g id="Grupo_82267" data-name="Grupo 82267" transform="translate(30.784 30.588)">
            <path id="Trazado_141115" data-name="Trazado 141115" d="M-745.383-2845.042a7.271,7.271,0,0,1,7.73-6.789,7.271,7.271,0,0,1,6.789,7.729,7.284,7.284,0,0,1-7.729,6.79h0A7.283,7.283,0,0,1-745.383-2845.042Zm6.859,6.647.006,0Zm-4.7-6.508a5.114,5.114,0,0,0,4.765,5.426h0a5.115,5.115,0,0,0,4.167-8.466A5.113,5.113,0,0,0-743.22-2844.9Z" transform="translate(745.398 2851.846)" fill="#fff"/>
          </g>
          <g id="Grupo_82268" data-name="Grupo 82268">
            <path id="Trazado_141116" data-name="Trazado 141116" d="M-842.855-2800.884c-.279-.936-.526-1.9-.732-2.854a.723.723,0,0,1,.554-.858c.982-.211.842.885,1.562,3.3a.723.723,0,0,1-.486.9A.722.722,0,0,1-842.855-2800.884Z" transform="translate(844.401 2849.628)" fill="#675d84"/>
            <path id="Trazado_141117" data-name="Trazado 141117" d="M-846.217-2915.759a38.566,38.566,0,0,1,.709-5.911.723.723,0,0,1,1.418.283c-1.034,5.175-.227,6.432-1.435,6.381A.722.722,0,0,1-846.217-2915.759Zm4.126-14.1a.723.723,0,0,1-.334-.966,38.106,38.106,0,0,1,3.018-5.134.723.723,0,0,1,1.185.828,36.592,36.592,0,0,0-2.9,4.938A.735.735,0,0,1-842.091-2929.861Zm9.339-12.048a.725.725,0,0,1-.246-.186.723.723,0,0,1,.079-1.019,38.388,38.388,0,0,1,4.811-3.507.724.724,0,0,1,.994.237.722.722,0,0,1-.236.994,36.938,36.938,0,0,0-4.628,3.375A.724.724,0,0,1-832.752-2941.908Zm13.351-7.345a.721.721,0,0,1-.389-.445.722.722,0,0,1,.479-.9,37.914,37.914,0,0,1,5.812-1.291.724.724,0,0,1,.817.616.723.723,0,0,1-.615.816,36.42,36.42,0,0,0-5.59,1.241A.72.72,0,0,1-819.4-2949.254Zm14.76-2.126a.723.723,0,0,1,.8-.637,38.262,38.262,0,0,1,5.847,1.128.723.723,0,0,1-.384,1.393,36.783,36.783,0,0,0-5.625-1.085A.723.723,0,0,1-804.641-2951.38Z" transform="translate(846.217 2952.022)" fill="#675d84"/>
            <path id="Trazado_141118" data-name="Trazado 141118" d="M-659.862-2933.481c-2.183-1.5-3.145-1.66-2.656-2.5a.715.715,0,0,1,.988-.262c.842.488,1.679,1.018,2.488,1.576a.723.723,0,0,1,.185,1.006A.723.723,0,0,1-659.862-2933.481Z" transform="translate(718.695 2941.134)" fill="#675d84"/>
          </g>
          <g id="Grupo_82269" data-name="Grupo 82269" transform="translate(14.757 29.517)">
            <path id="Trazado_141119" data-name="Trazado 141119" d="M-603.508-2851.687c-.338-2.64-.863-3.452.093-3.65a.723.723,0,0,1,.855.561c.2.954.362,1.931.486,2.906a.722.722,0,0,1-.625.808A.722.722,0,0,1-603.508-2851.687Z" transform="translate(663.172 2855.352)" fill="#675d84"/>
            <path id="Trazado_141120" data-name="Trazado 141120" d="M-762.461-2784.076c.377-1.14,1.232.034,6.382.894a.723.723,0,0,1-.238,1.426,38.052,38.052,0,0,1-5.685-1.406A.723.723,0,0,1-762.461-2784.076Zm14.854,2.056a.723.723,0,0,1,.661-.779c5.248-.431,6.149-1.532,6.433-.361a.724.724,0,0,1-.533.873,37.962,37.962,0,0,1-5.782.929A.722.722,0,0,1-747.607-2782.02Zm14.464-3.937c-.564-1.063.863-.859,5.058-3.991a.723.723,0,0,1,.865,1.158,38.3,38.3,0,0,1-4.946,3.133A.722.722,0,0,1-733.143-2785.957Zm11.755-9.309c-.937-.759.46-1.13,3.092-5.653a.723.723,0,0,1,1.25.726,38.208,38.208,0,0,1-3.326,4.821A.723.723,0,0,1-721.388-2795.266Zm6.66-14.068c1.43-5.063.715-6.3,1.914-6.153a.723.723,0,0,1,.63.805,38.228,38.228,0,0,1-1.153,5.742.723.723,0,0,1-.892.5A.723.723,0,0,1-714.728-2809.333Z" transform="translate(773.303 2827.667)" fill="#675d84"/>
            <path id="Trazado_141121" data-name="Trazado 141121" d="M-795.188-2729.9c-.823-.53-1.635-1.1-2.413-1.689a.723.723,0,0,1-.138-1.013c.608-.8,1.213.121,3.334,1.487a.723.723,0,0,1,.216,1A.724.724,0,0,1-795.188-2729.9Z" transform="translate(797.886 2770.291)" fill="#91b3fa"/>
          </g>
          <path id="Trazado_141122" data-name="Trazado 141122" d="M-770.849-2853.5a1.086,1.086,0,0,1-.433-1.5,1.086,1.086,0,0,1,1.481-.4,15.876,15.876,0,0,0,3.064,1.359,15.707,15.707,0,0,0,12.006-.971c12.421-6.364,10.953-24.7-2.345-28.986a15.762,15.762,0,0,0-19.121,8.383c-3.307,7.177.431,10.912-1.857,11.441a1.084,1.084,0,0,1-1.3-.811,17.877,17.877,0,0,1,.407-9.531,17.927,17.927,0,0,1,22.538-11.546,17.925,17.925,0,0,1,10.753,24.569,17.906,17.906,0,0,1-21.746,9.515h0A18.065,18.065,0,0,1-770.849-2853.5Z" transform="translate(800.09 2906.803)" fill="#fff"/>
        </g>
      </g>
    </g>
    <g id="Grupo_82274" data-name="Grupo 82274" transform="translate(-1156.499 -2958.46)">
      <path id="Trazado_141123" data-name="Trazado 141123" d="M-795.362-2700.426c-.027-.339-.373-.632-.959-.867.637-.351.989-.728.959-1.1-.09-1.117-3.626-1.742-7.9-1.4s-7.662,1.529-7.572,2.645c.027.339.373.632.959.867-.637.352-.989.728-.959,1.1.027.339.373.632.959.867-.637.351-.989.727-.959,1.1.027.338.373.632.959.867-.637.351-.989.727-.959,1.1.04.494.755.892,1.908,1.152a9.829,9.829,0,0,0,.029,1.207c.167,2.057,2.481,3.671,5.542,3.671s5.711-2.2,5.741-4.264a10.429,10.429,0,0,0-.06-1.347c1.465-.489,2.357-1.086,2.31-1.666-.027-.339-.373-.632-.959-.867.637-.351.989-.728.959-1.1-.027-.338-.373-.632-.959-.867C-795.684-2699.681-795.332-2700.058-795.362-2700.426Z" transform="translate(823.525 2752.628)" fill="url(#linear-gradient)"/>
      <g id="Grupo_82273" data-name="Grupo 82273" transform="translate(13.831 51.438)">
        <path id="Trazado_141124" data-name="Trazado 141124" d="M-800.4-2672.943a18.471,18.471,0,0,1-3.389-.277.1.1,0,0,1-.081-.12.1.1,0,0,1,.12-.082,22.107,22.107,0,0,0,5.645.178,24.253,24.253,0,0,0,4.734-.817.1.1,0,0,1,.127.07.1.1,0,0,1-.07.128,24.494,24.494,0,0,1-4.775.824C-798.885-2672.975-799.662-2672.943-800.4-2672.943Z" transform="translate(804.858 2680.477)" fill="url(#linear-gradient-2)"/>
        <path id="Trazado_141125" data-name="Trazado 141125" d="M-802.068-2680.6a16.113,16.113,0,0,1-4.161-.451.1.1,0,0,1-.071-.127.1.1,0,0,1,.127-.071,19.874,19.874,0,0,0,6.378.35,20.072,20.072,0,0,0,6.2-1.349.1.1,0,0,1,.136.05.1.1,0,0,1-.05.136,20.251,20.251,0,0,1-6.271,1.368C-800.561-2680.629-801.332-2680.6-802.068-2680.6Z" transform="translate(806.546 2686.167)" fill="url(#linear-gradient-3)"/>
        <path id="Trazado_141126" data-name="Trazado 141126" d="M-802.641-2687.026a14.993,14.993,0,0,1-4.386-.528.1.1,0,0,1-.065-.129.1.1,0,0,1,.13-.065,18.745,18.745,0,0,0,6.616.422,20.038,20.038,0,0,0,6.2-1.349.1.1,0,0,1,.136.05.1.1,0,0,1-.05.136,20.252,20.252,0,0,1-6.271,1.367C-801.125-2687.057-801.9-2687.026-802.641-2687.026Z" transform="translate(807.097 2690.633)" fill="url(#linear-gradient-4)"/>
        <path id="Trazado_141127" data-name="Trazado 141127" d="M-801.045-2693.424a17.72,17.72,0,0,1-3.694-.336.1.1,0,0,1-.078-.123.1.1,0,0,1,.122-.078,21.4,21.4,0,0,0,5.931.237,20.19,20.19,0,0,0,6.17-1.334.1.1,0,0,1,.136.05.1.1,0,0,1-.051.136,20.375,20.375,0,0,1-6.238,1.353C-799.533-2693.455-800.306-2693.424-801.045-2693.424Z" transform="translate(805.515 2695.067)" fill="url(#linear-gradient-5)"/>
      </g>
      <path id="Trazado_141128" data-name="Trazado 141128" d="M-842.571-2821.237a14.448,14.448,0,0,0-2.587-5.051,33.439,33.439,0,0,1-7.2-18.621c-.743-12.94,10.734-19.419,21.207-18.54s20.808,8.677,19.676,20.717c-.7,7.408-4.842,13.026-7.929,16.253a17.143,17.143,0,0,0-4.116,7.292c-.926,3.345-3.131,7.513-8.371,7.767C-838.675-2811.092-841.491-2817.413-842.571-2821.237Z" transform="translate(852.395 2863.529)" fill="#c3b5ec"/>
      <path id="Trazado_141129" data-name="Trazado 141129" d="M-779.6-2757.26l3.664-23.834c.076-.492.318-.823.541-.739s.343.552.267,1.044l-.007.043-4.174,23.613c-.031.177-.121.29-.2.25S-779.624-2757.087-779.6-2757.26Z" transform="translate(801.831 2806.787)" fill="url(#linear-gradient-6)"/>
      <path id="Trazado_141130" data-name="Trazado 141130" d="M-802.265-2756.639l-3.665-23.834c-.076-.492-.318-.823-.541-.739s-.343.552-.267,1.045c0,.013,0,.029.007.042l4.174,23.613c.031.178.122.29.2.25S-802.239-2756.467-802.265-2756.639Z" transform="translate(820.694 2806.356)" fill="url(#linear-gradient-7)"/>
      <path id="Trazado_141131" data-name="Trazado 141131" d="M-792.127-2792.644a.384.384,0,0,0-.481-.125l-2.041.953-.708-2.018a.434.434,0,0,0-.248-.25.5.5,0,0,0-.627.193l0,.007-1.678,3.06-1.557-4.355,0-.008a.5.5,0,0,0-.235-.265.612.612,0,0,0-.771.151l-2.346,3.23a.283.283,0,0,0,.083.408.394.394,0,0,0,.5-.054l2.065-2.3,1.86,4.143,0,0a.331.331,0,0,0,.164.16.389.389,0,0,0,.487-.126l1.795-2.88.675,1.457.006.013a.293.293,0,0,0,.017.031.384.384,0,0,0,.481.125l2.422-1.132A.288.288,0,0,0-792.127-2792.644Z" transform="translate(817.998 2816.291)" fill="#fff"/>
      <path id="Trazado_141132" data-name="Trazado 141132" d="M-745.153-2760.347a.462.462,0,0,1-.277-.091.466.466,0,0,1-.1-.651,27.019,27.019,0,0,0,1.7-2.582.466.466,0,0,1,.635-.17.465.465,0,0,1,.17.635,27.861,27.861,0,0,1-1.758,2.672A.464.464,0,0,1-745.153-2760.347Z" transform="translate(778.221 2794.323)" fill="#fff"/>
      <path id="Trazado_141133" data-name="Trazado 141133" d="M-735.28-2809.665a.468.468,0,0,1-.185-.038.466.466,0,0,1-.242-.612,21.712,21.712,0,0,0,.5-16.478.464.464,0,0,1,.229-.616.465.465,0,0,1,.617.229,22.3,22.3,0,0,1-.491,17.236A.465.465,0,0,1-735.28-2809.665Z" transform="translate(771.363 2838.467)" fill="#fff"/>
    </g>
    <g id="Grupo_82301" data-name="Grupo 82301" transform="translate(-1289.801 -2915.238)">
      <g id="Grupo_82280" data-name="Grupo 82280" transform="translate(57.63 0)">
        <path id="Trazado_141134" data-name="Trazado 141134" d="M-990.047-2213.9s-.6,3.242-.917,6.453a2.215,2.215,0,0,0,2.1,2.419c4.278.219,13.431.653,16.718.538a.721.721,0,0,0,.643-.981h0a1.611,1.611,0,0,0-.817-.877l-15.057-7.095Z" transform="translate(1024.333 2369.034)" fill="url(#linear-gradient-8)"/>
        <path id="Trazado_141135" data-name="Trazado 141135" d="M-989.418-2221.444l.424,3.888s2.638,1.259,4.46-.113l-1.056-4.339Z" transform="translate(1023.252 2374.665)" fill="url(#linear-gradient-9)"/>
        <path id="Trazado_141136" data-name="Trazado 141136" d="M-1013.447-2459.523c-.209,1.013-1.551,50.6,3.538,72.878a.754.754,0,0,1-.451.873,13.146,13.146,0,0,1-4.326.836,1.3,1.3,0,0,1-1.28-.944c-1.466-5.171-8.481-31.078-9.193-55.769-.8-27.589.009-.938.009-.938l.783-17.042Z" transform="translate(1048.324 2539.732)" fill="url(#linear-gradient-10)"/>
        <path id="Trazado_141137" data-name="Trazado 141137" d="M-1049.254-2208.9a23.374,23.374,0,0,0-1.854,5.978,1.351,1.351,0,0,0,1.173,1.63c1.412.152,3.586.352,5.329.357a1.348,1.348,0,0,0,1.348-1.49,11.358,11.358,0,0,0-2.593-6.256Z" transform="translate(1066.126 2365.558)" fill="url(#linear-gradient-11)"/>
        <path id="Trazado_141138" data-name="Trazado 141138" d="M-1047.437-2225.719l1.021,5.884a3.8,3.8,0,0,0,3.169.248l-.454-6.324Z" transform="translate(1063.556 2377.377)" fill="url(#linear-gradient-12)"/>
        <path id="Trazado_141139" data-name="Trazado 141139" d="M-1059.11-2460.732c-4.585,26.127.323,64.685,2.031,72.239a1.175,1.175,0,0,0,.941.9,7.9,7.9,0,0,0,3.393-.1,1.077,1.077,0,0,0,.784-.984c.3-6.091.224-43.5,4.405-58.248a3.357,3.357,0,0,1,1.313-1.841l7.9-5.5.687-9.005Z" transform="translate(1072.989 2542.264)" fill="url(#linear-gradient-13)"/>
        <g id="Grupo_82275" data-name="Grupo 82275" transform="translate(12.447 12.435)">
          <path id="Trazado_141140" data-name="Trazado 141140" d="M-1029.927-2621.022c-12.992-.34-27.364,3.151-27.364,3.151-4.089,22.563-1.142,48.662-1.142,48.662,10.035,2.734,21.423-1.409,21.423-1.409,1.762-9.43,9.817-35.942,9.817-35.942a42.8,42.8,0,0,0,15.934-4.889,27.859,27.859,0,0,1-5.4-11.571A43.637,43.637,0,0,1-1029.927-2621.022Z" transform="translate(1059.46 2640.8)" fill="#ff7758"/>
          <path id="Trazado_141141" data-name="Trazado 141141" d="M-893.979-2680.245a2.486,2.486,0,0,0-2.884-.84c-1.989,8.059-12.078,14.513-22.41,17.616a27.863,27.863,0,0,0,5.4,11.571C-896.69-2661.348-893.979-2680.245-893.979-2680.245Z" transform="translate(962.077 2681.249)" fill="url(#linear-gradient-14)"/>
        </g>
        <g id="Grupo_82276" data-name="Grupo 82276" transform="translate(77.691)">
          <path id="Trazado_141142" data-name="Trazado 141142" d="M-843.243-2708.146c.129.426-1.424,1.058-2.318-.687-.024-.833-.5-4.4.008-5.076a66.417,66.417,0,0,1,7.862-8.064,1.222,1.222,0,0,1,.137,1.7l-2.516,2.571a12.055,12.055,0,0,1,1.427,2.889,3.491,3.491,0,0,1-.372,2.566c-.445.783-1.051,1.8-1.623,2.6A3.447,3.447,0,0,1-843.243-2708.146Z" transform="translate(845.784 2721.974)" fill="url(#linear-gradient-15)"/>
          <path id="Trazado_141143" data-name="Trazado 141143" d="M-837.561-2702.507l-2.289,1.9-.731,1.909,2,2.265a26.133,26.133,0,0,1,1.23-4.614C-836.834-2701.861-837.093-2702.262-837.561-2702.507Z" transform="translate(842.17 2708.451)" fill="url(#linear-gradient-16)"/>
        </g>
        <path id="Trazado_141144" data-name="Trazado 141144" d="M-1080.053-2593.527l-4.864-12.63s-12.216,8.13-14.312,18.567a28.73,28.73,0,0,1,10.524,2.929C-1087.759-2589.59-1080.053-2593.527-1080.053-2593.527Z" transform="translate(1099.533 2641.52)" fill="#ff7758"/>
        <path id="Trazado_141145" data-name="Trazado 141145" d="M-1070.252-2539.344s-13.7,7.572-18.236.952a5.171,5.171,0,0,1-.909-4.025,28.721,28.721,0,0,0-10.524-2.929,14.429,14.429,0,0,0,1.474,9.908c7.913,14.811,29.966-.528,29.966-.528Z" transform="translate(1100.226 2599.278)" fill="url(#linear-gradient-17)"/>
        <path id="Trazado_141146" data-name="Trazado 141146" d="M-1015.238-2651.438l-4.248,11.917a.431.431,0,0,0,.191.521,9.72,9.72,0,0,0,10.087-.582,2.029,2.029,0,0,0,.948-1.44l1.438-10.336Z" transform="translate(1044.157 2672.975)" fill="url(#linear-gradient-18)"/>
        <g id="Grupo_82277" data-name="Grupo 82277" transform="translate(21.114 4.333)">
          <path id="Trazado_141147" data-name="Trazado 141147" d="M-999.883-2687.42s4.459,8.59,3.844,12.036-6.24,3.145-11.126.295l-3.345-9.261Z" transform="translate(1016.79 2693.637)" fill="url(#linear-gradient-19)"/>
          <path id="Trazado_141148" data-name="Trazado 141148" d="M-1021.19-2693.764a.352.352,0,0,0,.159-.514,9.192,9.192,0,0,1-1.238-2.694s-.811-.531,2.089-1.2,7.225-1.7,8.156-4.153c.907-2.392-1.359-8.454-5.111-3.677a.352.352,0,0,1-.558,0,3.631,3.631,0,0,0-4.409-1.48,3.331,3.331,0,0,0-2.312,3.2.35.35,0,0,1-.418.355,4.063,4.063,0,0,0-4.765,2.166c-.988,2.118-.37,3.329.2,3.924a.351.351,0,0,1-.156.582,2.113,2.113,0,0,0-1.514,2.4c.1,2.235,2.6,2.062,3.313,1.967a.352.352,0,0,1,.312.114c.6.68,3.323,3.571,6.293,3.945a.355.355,0,0,0,.377-.466l-1.251-3.753a.354.354,0,0,1,.2-.437Z" transform="translate(1031.075 2707.782)" fill="url(#linear-gradient-20)"/>
          <path id="Trazado_141149" data-name="Trazado 141149" d="M-1004.942-2662.672s-3.212-2.249-3.465-.383,2.885,2.733,4.451,2.052Z" transform="translate(1015.339 2677.226)" fill="url(#linear-gradient-21)"/>
        </g>
        <g id="Grupo_82279" data-name="Grupo 82279" transform="translate(27.144 43.67)">
          <g id="Grupo_82278" data-name="Grupo 82278">
            <path id="Trazado_141150" data-name="Trazado 141150" d="M-1011.3-2550.723l7.463-26.063a.759.759,0,0,1,.643-.547c1.352-.158,5.271-.6,9.795-.983a111.122,111.122,0,0,1,15.559-.517.762.762,0,0,1,.624,1.1c-2.151,4.351-11,22.048-15.425,27.845a.767.767,0,0,1-.615.3l-17.316-.162A.762.762,0,0,1-1011.3-2550.723Z" transform="translate(1011.327 2578.952)" fill="url(#linear-gradient-22)"/>
            <path id="Trazado_141151" data-name="Trazado 141151" d="M-1006.962-2527.34s-1.04-4.275-.62-5.792,1.232-3.467,3.94-3.034a39.619,39.619,0,0,1,5.9,1.574,1.55,1.55,0,0,1-2.22,1.338l1.276.988s-.182,1.581-1.921.737l1.187,1.309a1.383,1.383,0,0,1-2.026.466C-1002.721-2530.586-1003.334-2526.825-1006.962-2527.34Z" transform="translate(1008.795 2549.272)" fill="url(#linear-gradient-23)"/>
          </g>
          <path id="Trazado_141152" data-name="Trazado 141152" d="M-954.234-2556.375a2.191,2.191,0,0,0,2.191,2.19,2.191,2.191,0,0,0,2.191-2.19,2.191,2.191,0,0,0-2.191-2.191A2.191,2.191,0,0,0-954.234-2556.375Z" transform="translate(971.667 2564.791)" fill="#91b3fa"/>
          <path id="Trazado_141153" data-name="Trazado 141153" d="M-985.292-2565.278l-.558-.165,1.519-5.154a2.35,2.35,0,0,1,1.768-1.646c4.816-1.005,17.5-1.21,18.039-1.219l.009.583c-.131,0-13.167.213-17.929,1.206a1.768,1.768,0,0,0-1.329,1.24Z" transform="translate(993.629 2575.138)" fill="#91b3fa"/>
        </g>
      </g>
      <g id="Grupo_82281" data-name="Grupo 82281" transform="translate(0 120.608)">
        <path id="Trazado_141154" data-name="Trazado 141154" d="M-1283.428-2307.778c-.8,1.178-3.957,27.831-4.452,37.675a1.164,1.164,0,0,0,1.165,1.221h0a1.167,1.167,0,0,0,1.153-.987l5.783-37.062Z" transform="translate(1288.214 2313.64)" fill="#7d97f4"/>
        <path id="Trazado_141155" data-name="Trazado 141155" d="M-1198.34-2307.778c.8,1.178,3.958,27.831,4.453,37.675a1.164,1.164,0,0,1-1.166,1.221h0a1.166,1.166,0,0,1-1.153-.987l-5.783-37.062Z" transform="translate(1228.547 2313.64)" fill="#7d97f4"/>
        <path id="Trazado_141156" data-name="Trazado 141156" d="M-1288.966-2323.193l0,.291a3.962,3.962,0,0,0,4.038,3.844l26.732.455a4,4,0,0,0,4.184-3.627l.014-.267a3.947,3.947,0,0,0-4.029-4l-26.744-.479A3.981,3.981,0,0,0-1288.966-2323.193Z" transform="translate(1288.969 2326.973)" fill="#7d97f4"/>
      </g>
      <g id="Grupo_82285" data-name="Grupo 82285" transform="translate(7.939 41.385)">
        <g id="Grupo_82282" data-name="Grupo 82282" transform="translate(40.533 116.935)">
          <path id="Trazado_141157" data-name="Trazado 141157" d="M-1122.269-2189.333c-4.752,0-6.854-.408-7.794-.78a1.8,1.8,0,0,0,1.756,1.4h16.811a.818.818,0,0,0,.788-1.033C-1112.624-2189.595-1116.694-2189.333-1122.269-2189.333Z" transform="translate(1130.111 2194.189)" fill="#91b3fa"/>
          <path id="Trazado_141158" data-name="Trazado 141158" d="M-1110.818-2199.022a.794.794,0,0,0-.137-.286c-1.281-1.635-3.853-4.2-7.352-4.154-5.126.072-6.914.629-10.9.031l-.94,3.115a1.787,1.787,0,0,0-.028.929c.94.372,3.042.779,7.794.779C-1116.8-2198.607-1112.734-2198.868-1110.818-2199.022Z" transform="translate(1130.221 2203.463)" fill="url(#linear-gradient-24)"/>
        </g>
        <path id="Trazado_141159" data-name="Trazado 141159" d="M-1125.738-2214.351l-1.153,3.924a6.783,6.783,0,0,0,4.8.229l.441-3.4Z" transform="translate(1168.441 2327.962)" fill="url(#linear-gradient-25)"/>
        <g id="Grupo_82283" data-name="Grupo 82283" transform="translate(69.217 111.264)">
          <path id="Trazado_141160" data-name="Trazado 141160" d="M-1023.931-2212.859c-3.7,2.977-5.6,3.978-6.562,4.278a1.8,1.8,0,0,0,2.24-.017l13.1-10.529a.814.814,0,0,0-.029-1.294C-1016.576-2219.1-1019.586-2216.35-1023.931-2212.859Z" transform="translate(1032.259 2220.915)" fill="#91b3fa"/>
          <path id="Trazado_141161" data-name="Trazado 141161" d="M-1019.2-2221.544a.8.8,0,0,0-.286-.136c-2.017-.466-5.623-.847-8.32,1.383-3.951,3.267-5,4.818-8.475,6.85l1.209,3.006a1.769,1.769,0,0,0,.557.738c.965-.3,2.858-1.3,6.562-4.277C-1023.6-2217.472-1020.594-2220.224-1019.2-2221.544Z" transform="translate(1036.277 2222.036)" fill="url(#linear-gradient-26)"/>
        </g>
        <path id="Trazado_141162" data-name="Trazado 141162" d="M-1216.394-2360.745s28.45,2.323,34.287,5.07-4.763,41.254-4.763,41.254-1.589.765-5.124-.334c0,0,3.625-28.417.927-34.579l-30.8-5.039Z" transform="translate(1234.42 2429.656)" fill="url(#linear-gradient-27)"/>
        <path id="Trazado_141163" data-name="Trazado 141163" d="M-1045.535-2215.439c.264.241,2.827,5.409,2.827,5.409s2.853-.617,3.434-2.423l-2.567-4.665Z" transform="translate(1111.925 2329.883)" fill="url(#linear-gradient-25)"/>
        <path id="Trazado_141164" data-name="Trazado 141164" d="M-1262.078-2361.524a14.4,14.4,0,0,0-.889,5.2,7.8,7.8,0,0,0,7.443,7.631l33.633,1.534a1.613,1.613,0,0,1,1.489,1.213c.79,3.057,4.653,12.444,23.537,31.177a1.522,1.522,0,0,0,1.884.205l2.688-1.7a.618.618,0,0,0,.2-.836l-19.583-33.441a7.577,7.577,0,0,0-4.6-3.415l-28.665-7.327Z" transform="translate(1262.969 2430.198)" fill="url(#linear-gradient-29)"/>
        <path id="Trazado_141165" data-name="Trazado 141165" d="M-1168.055-2532.6s-3.6,6.371-7.276,9.457l7.592,4.236s1.711-6.743,5.62-8.718Z" transform="translate(1202.09 2549.04)" fill="url(#linear-gradient-30)"/>
        <path id="Trazado_141166" data-name="Trazado 141166" d="M-1262.053-2461.044s9.08,2.213,17.746,0c0,0,12.127-16.3,16.818-20.739,0,0,7.484,11.809,24.141,13.482l.929-2.076s-13.261-6.113-17.344-15.505-5.722-13.4-9.436-15.85c-2.313-1.526-3.7-2.569-4.414-3.138a1.188,1.188,0,0,0-1.36-.086C-1238.913-2502.554-1257.46-2489.852-1262.053-2461.044Z" transform="translate(1262.333 2529.955)" fill="#ffd69f"/>
        <path id="Trazado_141167" data-name="Trazado 141167" d="M-1162-2450.168a.583.583,0,0,1-.463-.228,36.232,36.232,0,0,1-4.569-8.1.582.582,0,0,1,.335-.753.582.582,0,0,1,.752.335,35.734,35.734,0,0,0,4.406,7.809.583.583,0,0,1-.108.817A.58.58,0,0,1-1162-2450.168Z" transform="translate(1196.35 2498.111)" fill="#b17728"/>
        <path id="Trazado_141168" data-name="Trazado 141168" d="M-1073.069-2399.152l1.875-.5,5.693-1.319a2.642,2.642,0,0,1,2,.338l4.895,3.08-13.517-.023Z" transform="translate(1131.052 2457.646)" fill="url(#linear-gradient-25)"/>
        <g id="Grupo_82284" data-name="Grupo 82284" transform="translate(24.668)">
          <path id="Trazado_141169" data-name="Trazado 141169" d="M-1155.959-2563.888s3.5,5.82,4.109,9.038,1.583,5.228-2.078,6.375a8.035,8.035,0,0,1-9.2-3.308s-3.335-4.621-3-6.738S-1155.959-2563.888-1155.959-2563.888Z" transform="translate(1171.047 2570.772)" fill="url(#linear-gradient-32)"/>
          <path id="Trazado_141170" data-name="Trazado 141170" d="M-1173.286-2569.935l.474-.063s-2.479-3.746-.857-4.676,8.234-3.209,9.382-5.813a4.521,4.521,0,0,0-2.545-5.937.254.254,0,0,0-.305.161l-.117.316a.257.257,0,0,1-.476.014h0a.255.255,0,0,0-.465-.01c-.354.78-1.414,2.112-4.594,3.143-4.511,1.462-7.321,3.737-6.975,6.942a.257.257,0,0,1-.367.261c-.369-.163-.928-.188-1.577.521-1.129,1.235-.245,3.936,2.838,5.847a.255.255,0,0,1,.042.41c-.461.395-1.11,1.275.976,2.061,2.134.8,3.3.531,3.729.359a.257.257,0,0,0,.158-.289l-.548-2.809a.256.256,0,0,1,.218-.3Z" transform="translate(1182.18 2586.434)" fill="url(#linear-gradient-33)"/>
          <path id="Trazado_141171" data-name="Trazado 141171" d="M-1160.659-2536.778s-1.545-3.809-3.168-2.47,1.5,4.3,2.941,4.259Z" transform="translate(1169.747 2553.854)" fill="url(#linear-gradient-34)"/>
        </g>
      </g>
      <g id="Grupo_82288" data-name="Grupo 82288" transform="translate(59.472 75.16)">
        <g id="Grupo_82286" data-name="Grupo 82286" transform="translate(0 26.362)">
          <path id="Trazado_141172" data-name="Trazado 141172" d="M-1092.965-2386.873h.067l28.877-.029a1.291,1.291,0,0,0,1.291-1.291,1.285,1.285,0,0,0-1.294-1.289l-28.877.029a1.291,1.291,0,0,0-1.291,1.291A1.292,1.292,0,0,0-1092.965-2386.873Z" transform="translate(1094.193 2389.48)" fill="url(#linear-gradient-35)"/>
        </g>
        <g id="Grupo_82287" data-name="Grupo 82287" transform="translate(29.054)">
          <path id="Trazado_141173" data-name="Trazado 141173" d="M-986.739-2475.128c-.01.02-.02.039-.029.06l-12.15,26.2a1.291,1.291,0,0,0,.627,1.715,1.285,1.285,0,0,0,1.714-.63l12.15-26.2a1.291,1.291,0,0,0-.627-1.716A1.293,1.293,0,0,0-986.739-2475.128Z" transform="translate(999.039 2475.818)" fill="url(#linear-gradient-36)"/>
        </g>
      </g>
      <g id="Grupo_82294" data-name="Grupo 82294" transform="translate(109.784 38.18)">
        <g id="Grupo_82289" data-name="Grupo 82289" transform="translate(48.882 84.892)">
          <rect id="Rect치ngulo_30833" data-name="Rect치ngulo 30833" width="3.048" height="32.96" transform="translate(14.73 7.385)" fill="#7d97f4"/>
          <path id="Trazado_141174" data-name="Trazado 141174" d="M-733.113-2189.2h-26.694a1.984,1.984,0,0,1,1.984-1.984H-735.1a1.984,1.984,0,0,1,1.984,1.984Z" transform="translate(762.714 2230.184)" fill="#7d97f4"/>
          <rect id="Rect치ngulo_30834" data-name="Rect치ngulo 30834" width="33.563" height="9.519" rx="4.759" fill="#7d97f4"/>
        </g>
        <g id="Grupo_82290" data-name="Grupo 82290" transform="translate(3.274 64.11)">
          <path id="Trazado_141175" data-name="Trazado 141175" d="M-814.266-2366.693a26.523,26.523,0,0,0-9.621,4.106,2.538,2.538,0,0,0-1.12,2.426,107.612,107.612,0,0,0,11.383,35.729,3.842,3.842,0,0,1,.369,2.637l-1.436,6.684-2.664,2.5h6.86l4.568-12.361-1.953-.618a3.7,3.7,0,0,1-2.581-3.46l-.229-13.26a15.085,15.085,0,0,0-3.622-9.984l10.956-.533Z" transform="translate(853.628 2372.883)" fill="url(#linear-gradient-37)"/>
          <path id="Trazado_141176" data-name="Trazado 141176" d="M-808.758-2217.971c-.625.818,6.724,1.9,10.437.108,0,0,5.147-8.955,5.147-13.566,0,0-.409-.94-3.431-.727,0,0-1.728,10.6-3.553,11.791s-5.106.12-5.106.12A10.74,10.74,0,0,0-808.758-2217.971Z" transform="translate(842.353 2279.446)" fill="url(#linear-gradient-38)"/>
          <path id="Trazado_141177" data-name="Trazado 141177" d="M-862.632-2348.229c-.058-.1-11.8-1.411-11.8-1.411a27.127,27.127,0,0,1-.816,8.481c-1.2,4.913-18.434,26.2-18.434,26.2l1.807,5.728a29.067,29.067,0,0,1-16.491.992l11.2-6.72s10.481-35.716,16.9-42.087l11.766-4.071Z" transform="translate(911.518 2369.01)" fill="url(#linear-gradient-39)"/>
          <path id="Trazado_141178" data-name="Trazado 141178" d="M-772.113-2386.966s6.763,10.059,7.318,14.647-1.852,6.453-8.948,6.76-26.038.3-26.038.3l-16.167-13.817s11.782-4.2,14.845-5.393S-772.113-2386.966-772.113-2386.966Z" transform="translate(847.322 2386.966)" fill="url(#linear-gradient-27)"/>
          <path id="Trazado_141179" data-name="Trazado 141179" d="M-899.735-2197.5s1.946,1.884.631,3.98c0,0-15.411,2.732-19.6,1.493,0,0,.869-1.983,5.58-4.24l-.347.267a.563.563,0,0,0,.372,1.01C-909.99-2195.172-903.565-2195.741-899.735-2197.5Z" transform="translate(918.699 2255.354)" fill="url(#linear-gradient-41)"/>
        </g>
        <g id="Grupo_82292" data-name="Grupo 82292" transform="translate(36.694)">
          <path id="Trazado_141180" data-name="Trazado 141180" d="M-779.366-2596.611c13.824-2.35,20.332,8.924,19.857,11.293a.433.433,0,0,0,.543.5c1.587-.427,5.093-.966,7.266,1.758,1.919,2.4.485,4.673-.684,5.919a.436.436,0,0,0,.364.737c2.918-.368,9.258-.456,10.3,5.483.967,5.539-2.888,7.1-5.174,7.541a.434.434,0,0,0-.145.794c1.141.724,2.462,2.219,1.928,5.17-.837,4.625-9.9,4.246-10.965,4.186a.429.429,0,0,1-.189-.056l-14.524-8.284a.435.435,0,0,1-.214-.3l-2.932-16.934a.436.436,0,0,1,.115-.377l-9.469-13.363C-786.73-2593.058-779.529-2596.583-779.366-2596.611Z" transform="translate(791.863 2596.931)" fill="url(#linear-gradient-42)"/>
          <path id="Trazado_141181" data-name="Trazado 141181" d="M-764.071-2474.278a154.457,154.457,0,0,1-11.752-12.466,10.538,10.538,0,0,1-1.784-9.484c1.77-5.962,4.915-12.138,5.2-13.1.44-1.473,9.27-1.412,9.27-1.412s17.376,11.277,24.2,30.379l-7.667,2.387a89.589,89.589,0,0,0-9.02-12.45s7.757,10.247,8.03,14.442Z" transform="translate(787.572 2537.057)" fill="#fff"/>
          <path id="Trazado_141182" data-name="Trazado 141182" d="M-763.071-2542.575c.092.307,2.4,7.947,2.577,8.105s5.055.42,7.349-1.147l-5.691-11.132Z" transform="translate(777.17 2562.071)" fill="url(#linear-gradient-43)"/>
          <g id="Grupo_82291" data-name="Grupo 82291" transform="translate(0 1.377)">
            <path id="Trazado_141183" data-name="Trazado 141183" d="M-793.776-2571.715s-1.114,4.377,1.968,10.264,6.57,5.88,8.477,4a12.421,12.421,0,0,0,3.7-10.773C-780.19-2573.919-792.168-2577.283-793.776-2571.715Z" transform="translate(798.636 2580.016)" fill="url(#linear-gradient-44)"/>
            <path id="Trazado_141184" data-name="Trazado 141184" d="M-794.5-2580.324s-5.113-7.816-9.907-1.664l-.087,2.237s-5.615-.667-4.632-5.815,5.836-8.367,12.085-6.136,9.83,4.517,10.234,9-3.16,3.5-3.16,3.5-1.162-3.154-2.815-3.481-1.223,2.131-1.223,2.131Z" transform="translate(809.246 2592.421)" fill="url(#linear-gradient-45)"/>
            <path id="Trazado_141185" data-name="Trazado 141185" d="M-759.316-2563.731s-2.652-4,.065-4.6,2.3,3.9,2,5.563Z" transform="translate(775.367 2575.724)" fill="url(#linear-gradient-46)"/>
          </g>
          <path id="Trazado_141186" data-name="Trazado 141186" d="M-784.822-2404.605l5.786-5.577,8,3.381s7.967,1.235,12.527,0l4.56-1.234,10.3-3.208,1.619,4.574a2.754,2.754,0,0,1-1.006,3.164,18.231,18.231,0,0,1-2.6,1.621c-1.357.594-33.452-.411-33.452-.411Z" transform="translate(792.28 2467.94)" fill="url(#linear-gradient-47)"/>
        </g>
        <g id="Grupo_82293" data-name="Grupo 82293" transform="translate(0 35.491)">
          <path id="Trazado_141187" data-name="Trazado 141187" d="M-793.061-2387.808l-.077,0-33.564-.037a1.5,1.5,0,0,1-1.5-1.5,1.5,1.5,0,0,1,1.5-1.5l33.564.037a1.5,1.5,0,0,1,1.5,1.5A1.5,1.5,0,0,1-793.061-2387.808Z" transform="translate(859.108 2418.281)" fill="url(#linear-gradient-48)"/>
          <path id="Trazado_141188" data-name="Trazado 141188" d="M-927.186-2480.7h27.952a5.328,5.328,0,0,1,4.818,3.055l12.922,27.4H-916.23a3.238,3.238,0,0,1-3.011-2.048l-10.021-25.355A2.232,2.232,0,0,1-927.186-2480.7Z" transform="translate(929.42 2480.696)" fill="url(#linear-gradient-49)"/>
          <path id="Trazado_141189" data-name="Trazado 141189" d="M-867.761-2441.053c.605,1.882.158,3.709-1,4.082s-2.587-.851-3.193-2.733-.158-3.71,1-4.082S-868.367-2442.935-867.761-2441.053Z" transform="translate(889.688 2455.102)" fill="#7d97f4"/>
        </g>
      </g>
      <g id="Grupo_82298" data-name="Grupo 82298" transform="translate(175.447 7.951)">
        <g id="Grupo_82295" data-name="Grupo 82295" transform="translate(20.504 73.532)">
          <path id="Trazado_141190" data-name="Trazado 141190" d="M-629.071-2201.608a40.816,40.816,0,0,1,.492,4.278,1.842,1.842,0,0,1-1.661,1.944c-3.435.333-11.255.949-16.249.228a.838.838,0,0,1-.46-1.442,25.935,25.935,0,0,1,15.215-6.465Z" transform="translate(647.216 2280.023)" fill="url(#linear-gradient-50)"/>
          <path id="Trazado_141191" data-name="Trazado 141191" d="M-595.69-2216.921l-1.737,4.257a1.418,1.418,0,0,1-1.456.88,7.669,7.669,0,0,1-1.419-.275,1.864,1.864,0,0,1-1.24-2.318l1.311-4.385Z" transform="translate(615.542 2290.927)" fill="url(#linear-gradient-51)"/>
          <path id="Trazado_141192" data-name="Trazado 141192" d="M-496.151-2187.19a18.224,18.224,0,0,0-4.833,6.643,1.587,1.587,0,0,0,1.507,2.109h7.157a1.688,1.688,0,0,0,1.668-1.975C-491.107-2182.99-492.422-2187.179-496.151-2187.19Z" transform="translate(545.699 2268.996)" fill="url(#linear-gradient-52)"/>
          <path id="Trazado_141193" data-name="Trazado 141193" d="M-482.964-2200.8s-.7,3.11-1.243,5.165a.658.658,0,0,1-.859.448,5.976,5.976,0,0,0-2.605-.473.507.507,0,0,1-.558-.506l-.068-5.165Z" transform="translate(536.821 2278.819)" fill="url(#linear-gradient-53)"/>
          <path id="Trazado_141194" data-name="Trazado 141194" d="M-579.544-2447.065l-21.156,64.541s4.058,2.657,5.991,2.547l25.128-51.869s4.4,31.96,2.266,54.905l7.2.549s11.7-58.635,2.839-78.719Z" transform="translate(614.903 2455.111)" fill="url(#linear-gradient-54)"/>
          <path id="Trazado_141195" data-name="Trazado 141195" d="M-501.561-2396.5h.026a.2.2,0,0,0,.178-.229l-.821-6.517a.205.205,0,0,0-.229-.177.2.2,0,0,0-.178.229l.821,6.517A.2.2,0,0,0-501.561-2396.5Z" transform="translate(546.747 2419.207)" fill="url(#linear-gradient-55)"/>
        </g>
        <path id="Trazado_141196" data-name="Trazado 141196" d="M-591.26-2614.76s17.14,1.522,14.716,13.735a166.49,166.49,0,0,1,13.9,38.834,1.235,1.235,0,0,1-1,1.468l-28.544,4.887a1.537,1.537,0,0,1-1.747-1.13l-6.82-26.359-2.658,12.255-8.445-2.2,7.109-36.011S-603.755-2614.534-591.26-2614.76Z" transform="translate(643.156 2639.545)" fill="#c3b5ec"/>
        <path id="Trazado_141197" data-name="Trazado 141197" d="M-581.867-2541.488a.224.224,0,0,0,.045,0,.213.213,0,0,0,.162-.253l-2.379-10.926a.213.213,0,0,0-.253-.163.213.213,0,0,0-.162.253l2.379,10.926A.213.213,0,0,0-581.867-2541.488Z" transform="translate(624.125 2596.53)" fill="#5f4d90"/>
        <path id="Trazado_141198" data-name="Trazado 141198" d="M-583.764-2451.961a4.076,4.076,0,0,1,2.947-.384l1.986.495a.72.72,0,0,0,.889-.618l2.055-18.292c2.57,1.22,6.277,1.074,7.5.985l-4.73,21.565H-589.67Z" transform="translate(627.745 2539.513)" fill="url(#linear-gradient-56)"/>
        <path id="Trazado_141199" data-name="Trazado 141199" d="M-714.367-2567.437l.5-1.663a3.29,3.29,0,0,1,1.922-2.1l9.049-3.639s.136-1.161-1.912-1.949a2.723,2.723,0,0,1-1.569-3.083s2.8,1.276,6.9,3.3a9.591,9.591,0,0,1,4.355,4.741l20.5,25-2.408,1.654a6.427,6.427,0,0,1-9.318-2.286l-11.108-21.3A41.4,41.4,0,0,1-714.367-2567.437Z" transform="translate(714.367 2615.311)" fill="url(#linear-gradient-57)"/>
        <g id="Grupo_82297" data-name="Grupo 82297" transform="translate(26.564)">
          <path id="Trazado_141200" data-name="Trazado 141200" d="M-575.01-2653.344l5.272,14.755s-4.668,3.65-8.075,2.416l-2.657-8.457S-578.441-2654.969-575.01-2653.344Z" transform="translate(594.789 2666.469)" fill="url(#linear-gradient-58)"/>
          <g id="Grupo_82296" data-name="Grupo 82296">
            <path id="Trazado_141201" data-name="Trazado 141201" d="M-614.119-2676.983c0,.228,5.078,14.376,5.078,14.376l8.017-3.071-2.821-14.125S-614.119-2680.789-614.119-2676.983Z" transform="translate(618.164 2684.808)" fill="url(#linear-gradient-59)"/>
            <path id="Trazado_141202" data-name="Trazado 141202" d="M-614.453-2687.487l2.067,7.32a1.053,1.053,0,0,1,.04.286c0,.6-.147,2.651-2.24,2.372-1.9-.254-3.635-.457-4.739.063a1.061,1.061,0,0,0-.548,1.32,45.843,45.843,0,0,0,2.888,6.517,1.059,1.059,0,0,0,1.363.437,34.245,34.245,0,0,0,6.874-4.043,1.063,1.063,0,0,0,.376-1.02c-.352-1.872-1.4-7.567-1.444-9.2-.043-1.532,1.676-2.7,2.432-3.141a1.045,1.045,0,0,0,.492-.661,2.754,2.754,0,0,0-2.407-3.709,1.064,1.064,0,0,1-.863-1.266,2.759,2.759,0,0,0-2.075-3.553,3.892,3.892,0,0,0-4.437,1.771,1.063,1.063,0,0,1-1.318.352.84.84,0,0,0-.942.168,1.047,1.047,0,0,1-1.531-.233,3.172,3.172,0,0,0-3.91-1.292c-3.622,1.172-3.449,5.348-2.121,7.618s5.182.776,7.007-.728c1.387-1.144,3.5-.46,4.433-.066A1.054,1.054,0,0,1-614.453-2687.487Z" transform="translate(627.367 2695.933)" fill="url(#linear-gradient-60)"/>
            <path id="Trazado_141203" data-name="Trazado 141203" d="M-570.264-2660.034s-2.143-4.055-.726-5.328,3.819-1.065,3.754,2.106C-567.316-2659.312-570.264-2660.034-570.264-2660.034Z" transform="translate(588.541 2675.204)" fill="url(#linear-gradient-61)"/>
          </g>
        </g>
        <path id="Trazado_141204" data-name="Trazado 141204" d="M-541.529-2533.687a20.69,20.69,0,0,0,2.1-.1l.152-.017,6.241-29.1a.212.212,0,0,0-.163-.252.211.211,0,0,0-.252.163l-6.177,28.8c-.929.081-5.889.411-8.507-1.444l5.407-25.281-1.128-2.126a.212.212,0,0,0-.288-.088.212.212,0,0,0-.088.287l1.056,1.99-5.432,25.4.108.082C-546.612-2533.956-543.565-2533.687-541.529-2533.687Z" transform="translate(599.224 2603.699)" fill="#5f4d90"/>
      </g>
      <g id="Grupo_82299" data-name="Grupo 82299" transform="translate(44.947 106.442)">
        <path id="Trazado_141205" data-name="Trazado 141205" d="M-1140.678-2313.127a1.008,1.008,0,0,1-.429-.1,1.229,1.229,0,0,1-.569-1.559l22.806-57.868a1.056,1.056,0,0,1,1.429-.621,1.23,1.23,0,0,1,.569,1.559l-22.807,57.868A1.089,1.089,0,0,1-1140.678-2313.127Z" transform="translate(1141.765 2373.369)" fill="url(#linear-gradient-62)"/>
        <path id="Trazado_141206" data-name="Trazado 141206" d="M-1108.422-2313.127a1.089,1.089,0,0,1-1-.718l-22.807-57.868a1.23,1.23,0,0,1,.569-1.559,1.055,1.055,0,0,1,1.429.621l22.807,57.868a1.23,1.23,0,0,1-.569,1.559A1.009,1.009,0,0,1-1108.422-2313.127Z" transform="translate(1135.202 2373.37)" fill="url(#linear-gradient-63)"/>
        <path id="Trazado_141207" data-name="Trazado 141207" d="M-633.752-2313.127a1.008,1.008,0,0,1-.429-.1,1.23,1.23,0,0,1-.569-1.559l22.806-57.868a1.056,1.056,0,0,1,1.429-.621,1.23,1.23,0,0,1,.569,1.559l-22.806,57.868A1.089,1.089,0,0,1-633.752-2313.127Z" transform="translate(789.622 2373.369)" fill="url(#linear-gradient-64)"/>
        <path id="Trazado_141208" data-name="Trazado 141208" d="M-601.5-2313.127a1.089,1.089,0,0,1-1-.718l-22.807-57.868a1.23,1.23,0,0,1,.569-1.559,1.055,1.055,0,0,1,1.429.621l22.807,57.868a1.23,1.23,0,0,1-.569,1.559A1.007,1.007,0,0,1-601.5-2313.127Z" transform="translate(783.059 2373.37)" fill="url(#linear-gradient-65)"/>
      </g>
      <g id="Grupo_82300" data-name="Grupo 82300" transform="translate(196.501 98.893)">
        <path id="Trazado_141209" data-name="Trazado 141209" d="M-642.116-2392.158h33.032v-3.409h-33.032C-641.409-2395.567-641.409-2392.158-642.116-2392.158Z" transform="translate(643.123 2396.338)" fill="#91b3fa"/>
        <path id="Trazado_141210" data-name="Trazado 141210" d="M-611.686-2393.911a.312.312,0,0,0,.31-.311v-2.788a.311.311,0,0,0-.31-.31h-33.419a.311.311,0,0,1-.31-.31v-.15a.311.311,0,0,1,.31-.31h35.621a1.426,1.426,0,0,1,1.426,1.426v2.179a1.345,1.345,0,0,1-1.345,1.345h-35.7a.311.311,0,0,1-.31-.31v-.15a.311.311,0,0,1,.31-.31Z" transform="translate(645.415 2398.091)" fill="url(#linear-gradient-66)"/>
      </g>
      <path id="Trazado_141211" data-name="Trazado 141211" d="M-978.045-2380.392a1,1,0,0,0-.412-1.073,2.452,2.452,0,0,0-1.51-.472h-197.926a2.675,2.675,0,0,0-1.9.689,1.076,1.076,0,0,0-.147,1.432l2.145,3.08a3.346,3.346,0,0,0,2.726,1.156h193.742a2.233,2.233,0,0,0,2.233-1.222Z" transform="translate(1213.374 2485.763)" fill="url(#linear-gradient-67)"/>
    </g>
  </g>
</svg>
