<svg xmlns="http://www.w3.org/2000/svg" width="84.963" height="84.16" viewBox="0 0 84.963 84.16">
  <g id="Grupo_83513" data-name="Grupo 83513" transform="translate(-783.504 -3527.756)">
    <g id="Grupo_83512" data-name="Grupo 83512">
      <g id="vision-2" transform="translate(783.504 3527.756)">
        <path id="Trazado_102167" data-name="Trazado 102167" d="M298.037,401.871l9.593,13.951H272l9.593-13.951v7.1a2.749,2.749,0,0,0,2.741,2.741,2.76,2.76,0,0,0,2.741-2.741v-2.741a2.749,2.749,0,0,1,2.741-2.741,2.76,2.76,0,0,1,2.741,2.741v1.37a2.749,2.749,0,0,0,2.741,2.741,2.76,2.76,0,0,0,2.741-2.741Zm0,0" transform="translate(-225.407 -333.032)" fill="#b4dd7f"/>
        <path id="Trazado_102168" data-name="Trazado 102168" d="M42.037,401.871l9.593,13.951H16l9.593-13.951v7.1a2.749,2.749,0,0,0,2.741,2.741,2.76,2.76,0,0,0,2.741-2.741v-2.741a2.749,2.749,0,0,1,2.741-2.741,2.76,2.76,0,0,1,2.741,2.741v1.37A2.749,2.749,0,0,0,39.3,410.34a2.76,2.76,0,0,0,2.741-2.741Zm0,0" transform="translate(-13.259 -333.032)" fill="#b4dd7f"/>
        <g id="Grupo_54010" data-name="Grupo 54010" transform="translate(12.333 40.308)">
          <path id="Trazado_102169" data-name="Trazado 102169" d="M344.444,363.288v5.728a2.76,2.76,0,0,1-2.741,2.741,2.749,2.749,0,0,1-2.741-2.741v-1.37a2.76,2.76,0,0,0-2.741-2.741,2.749,2.749,0,0,0-2.741,2.741v2.741a2.76,2.76,0,0,1-2.741,2.741A2.749,2.749,0,0,1,328,370.387v-7.1l3.933-5.714a5.2,5.2,0,0,1,8.578,0Zm0,0" transform="translate(-284.148 -334.757)" fill="#e6e9ed"/>
          <path id="Trazado_102170" data-name="Trazado 102170" d="M88.444,363.288v5.728a2.76,2.76,0,0,1-2.741,2.741,2.749,2.749,0,0,1-2.741-2.741v-1.37a2.76,2.76,0,0,0-2.741-2.741,2.749,2.749,0,0,0-2.741,2.741v2.741a2.76,2.76,0,0,1-2.741,2.741A2.749,2.749,0,0,1,72,370.387v-7.1l3.933-5.714a5.2,5.2,0,0,1,8.578,0Zm0,0" transform="translate(-72 -334.757)" fill="#e6e9ed"/>
          <path id="Trazado_102171" data-name="Trazado 102171" d="M350.191,240.794a5.481,5.481,0,0,1,0,10.963h-16.02l-5.852-10.415a6.832,6.832,0,0,1,12.634-2.727,5.552,5.552,0,0,1,2.385-.562,5.46,5.46,0,0,1,4.919,3.111A5.33,5.33,0,0,1,350.191,240.794Zm0,0" transform="translate(-284.414 -235.313)" fill="#e6e9ed"/>
        </g>
        <path id="Trazado_102172" data-name="Trazado 102172" d="M147.545,230.239a19.837,19.837,0,0,0,4.084-1.727l4.056,7.194,5.852,10.415,2.316,4.111a5.216,5.216,0,0,0-4.289,2.261l-3.933,5.714-9.593,13.951h-8.222l-9.593-13.951-3.933-5.714A5.216,5.216,0,0,0,120,250.232l6.167-10.963,6.057-10.758a19.868,19.868,0,0,0,15.321,1.727Zm0,0" transform="translate(-99.444 -189.368)" fill="#c3b5ec"/>
        <path id="Trazado_102173" data-name="Trazado 102173" d="M257.7,147.962A19.71,19.71,0,0,1,248,150.5a9.593,9.593,0,0,0,0-19.185,19.835,19.835,0,0,1,14.033,5.81l3.782,3.783-3.782,3.782A19.593,19.593,0,0,1,257.7,147.962Zm0,0" transform="translate(-205.519 -108.819)" fill="#e6e9ed"/>
        <path id="Trazado_102174" data-name="Trazado 102174" d="M201.593,131.313A9.593,9.593,0,1,1,192,140.905,9.585,9.585,0,0,1,201.593,131.313Zm0,0" transform="translate(-159.111 -108.819)" fill="#ffcbbf"/>
        <path id="Trazado_102175" data-name="Trazado 102175" d="M232.222,167.424a4.111,4.111,0,1,1-4.111-4.111A4.111,4.111,0,0,1,232.222,167.424Zm0,0" transform="translate(-185.63 -135.338)" fill="#4fc1e9"/>
        <path id="Trazado_102176" data-name="Trazado 102176" d="M156.2,149.689a19.838,19.838,0,0,1-4.084-1.727,19.594,19.594,0,0,1-4.331-3.275L144,140.905l2.1-2.1,1.686-1.686a19.866,19.866,0,0,1,14.033-5.81,9.593,9.593,0,0,0,0,19.185A19.843,19.843,0,0,1,156.2,149.689Zm0,0" transform="translate(-119.333 -108.819)" fill="#e6e9ed"/>
        <path id="Trazado_102177" data-name="Trazado 102177" d="M39.409,174.481l-6.057,10.758H13.481a5.481,5.481,0,0,1,0-10.963,6.854,6.854,0,0,1,6.852-6.852,6.944,6.944,0,0,1,1.85.288,6.815,6.815,0,0,1,11.209-2.385l-2.1,2.1,3.782,3.782A19.594,19.594,0,0,0,39.409,174.481Zm0,0" transform="translate(-6.63 -135.338)" fill="#e6e9ed"/>
        <path id="Trazado_102178" data-name="Trazado 102178" d="M218.741,175.944a2.7,2.7,0,0,1,.278-1.173l-2.475-1.177a5.426,5.426,0,0,0-.544,2.35,5.459,5.459,0,0,0,7.834,4.938l-1.18-2.474A2.751,2.751,0,0,1,218.741,175.944Zm0,0" transform="translate(-179 -143.858)"/>
        <path id="Trazado_102179" data-name="Trazado 102179" d="M236.618,155.313a5.442,5.442,0,0,0-2.353.544l1.18,2.474a2.75,2.75,0,0,1,3.914,2.464,2.7,2.7,0,0,1-.278,1.173l2.475,1.177a5.426,5.426,0,0,0,.544-2.35A5.487,5.487,0,0,0,236.618,155.313Zm0,0" transform="translate(-194.137 -128.708)"/>
        <path id="Trazado_102180" data-name="Trazado 102180" d="M322.741,52.107h10.4l-1.772,1.772,1.938,1.938,5.08-5.08-5.08-5.08-1.938,1.938,1.772,1.772H320V60.329h2.741Zm0,0" transform="translate(-265.185 -37.835)"/>
        <path id="Trazado_102181" data-name="Trazado 102181" d="M75.705,53.878l-1.772-1.772h10.4v8.222H87.07V49.366H73.933l1.772-1.772-1.938-1.938-5.08,5.08,5.08,5.08Zm0,0" transform="translate(-56.922 -37.835)"/>
        <path id="Trazado_102182" data-name="Trazado 102182" d="M176.23,348.124l.685-2.741,2.659.664-.685,2.741Zm0,0" transform="translate(-146.043 -286.22)"/>
        <path id="Trazado_102183" data-name="Trazado 102183" d="M240,387.313h2.741v2.741H240Zm0,0" transform="translate(-198.889 -320.967)"/>
        <path id="Trazado_102184" data-name="Trazado 102184" d="M300.211,346.032l2.659-.664.685,2.741-2.659.665Zm0,0" transform="translate(-248.786 -286.207)"/>
        <path id="Trazado_102185" data-name="Trazado 102185" d="M78.111,58.123a6.852,6.852,0,0,0,0-13.7,6.506,6.506,0,0,0-1.293.131,6.82,6.82,0,0,0-7.443-2.6A8.175,8.175,0,0,0,55.95,43.031l-1.916-3.407a21.326,21.326,0,0,0,3.453-2.792l4.747-4.747-4.747-4.748A21.05,21.05,0,0,0,43.852,21.19V5.246l1.772,1.772L47.562,5.08,42.481,0,37.4,5.08l1.938,1.938,1.772-1.772V21.19a21.059,21.059,0,0,0-13.635,6.148l-.792.792a8.192,8.192,0,0,0-11.91,2.67,7.03,7.03,0,0,0-1.07-.084,8.235,8.235,0,0,0-8.128,6.971A6.852,6.852,0,0,0,6.852,51.271H24.379l-4.655,8.277a6.578,6.578,0,0,0-4.591,2.8L.136,84.16H84.827l-15-21.814a6.572,6.572,0,0,0-4.591-2.8l-.8-1.425ZM63.037,41.679a5.439,5.439,0,0,1,4.667,2.65l.648,1.066,1.121-.545a4.061,4.061,0,0,1,5.472,1.906l.545,1.127,1.172-.442a4.068,4.068,0,0,1,5.56,3.83,4.116,4.116,0,0,1-4.111,4.111H62.9l-5.217-9.276A5.467,5.467,0,0,1,63.037,41.679ZM34.259,32.086a8.222,8.222,0,1,1,8.222,8.222A8.23,8.23,0,0,1,34.259,32.086Zm24.1,0L55.55,34.9a18.517,18.517,0,0,1-3.691,2.84,10.858,10.858,0,0,0,0-11.3,18.539,18.539,0,0,1,3.691,2.839ZM33.1,26.436a10.858,10.858,0,0,0,0,11.3,18.567,18.567,0,0,1-3.691-2.84L26.6,32.086l2.809-2.811A18.577,18.577,0,0,1,33.1,26.436ZM6.852,48.531a4.111,4.111,0,0,1,0-8.222h1.37v-1.37a5.393,5.393,0,0,1,6.958-5.25l1.2.335.448-1.161a5.412,5.412,0,0,1,7.865-2.738l-1.963,1.963,4.747,4.748a21.587,21.587,0,0,0,3.453,2.792l-5.008,8.9ZM17.391,63.9a3.84,3.84,0,0,1,6.329,0l3.688,5.364v5.3a1.37,1.37,0,0,1-2.741,0V73.2a4.111,4.111,0,1,0-8.222,0v2.741a1.37,1.37,0,0,1-2.741,0V69.263ZM5.346,81.419l5.617-8.17v2.689a4.111,4.111,0,1,0,8.222,0V73.2a1.37,1.37,0,1,1,2.741,0v1.37a4.111,4.111,0,0,0,8.222,0V73.249l5.617,8.17Zm33.745,0L25.98,62.347a6.576,6.576,0,0,0-3.286-2.487l10.632-18.9q.931.446,1.9.8L31.559,56.421l2.659.663,3.639-14.556a21.283,21.283,0,0,0,3.253.454V63.6h2.741V42.982a21.283,21.283,0,0,0,3.253-.454l3.639,14.556,2.659-.663L49.738,41.756q.971-.352,1.9-.8l10.632,18.9a6.569,6.569,0,0,0-3.286,2.487L45.872,81.419Zm10.106,0,5.617-8.17v2.689a4.111,4.111,0,1,0,8.222,0V73.2a1.37,1.37,0,1,1,2.741,0v1.37a4.111,4.111,0,0,0,8.222,0V73.249l5.617,8.17ZM67.572,63.9l3.688,5.364v5.3a1.37,1.37,0,0,1-2.741,0V73.2a4.111,4.111,0,1,0-8.222,0v2.741a1.37,1.37,0,0,1-2.741,0V69.263L61.243,63.9a3.84,3.84,0,0,1,6.329,0Zm0,0"/>
        <path id="Trazado_102186" data-name="Trazado 102186" d="M416,211.313h2.741v2.741H416Zm0,0" transform="translate(-344.741 -175.115)"/>
        <path id="Trazado_102187" data-name="Trazado 102187" d="M448,211.313h2.741v2.741H448Zm0,0" transform="translate(-371.259 -175.115)"/>
        <path id="Trazado_102188" data-name="Trazado 102188" d="M480,211.313h2.741v2.741H480Zm0,0" transform="translate(-397.778 -175.115)"/>
        <path id="Trazado_102189" data-name="Trazado 102189" d="M0,315.313H2.741v2.741H0Zm0,0" transform="translate(0 -261.3)"/>
        <path id="Trazado_102190" data-name="Trazado 102190" d="M32,315.313h2.741v2.741H32Zm0,0" transform="translate(-26.519 -261.3)"/>
        <path id="Trazado_102191" data-name="Trazado 102191" d="M64,315.313h2.741v2.741H64Zm0,0" transform="translate(-53.037 -261.3)"/>
      </g>
    </g>
  </g>
</svg>
