<svg xmlns="http://www.w3.org/2000/svg" width="205.924" height="116.525" viewBox="0 0 205.924 116.525">
  <g id="Grupo_83647" data-name="Grupo 83647" transform="translate(-1066.593 -5463.22)">
    <g id="barco-de-carga" transform="translate(1066.593 5464.777)">
      <path id="Trazado_144541" data-name="Trazado 144541" d="M253.955,243.379H234.572V254.85h19.383Z" transform="translate(-190.734 -188.771)" fill="#c3b5ec"/>
      <path id="Trazado_144542" data-name="Trazado 144542" d="M46.868,188.072l-5.035,2.07-3.4-3.159V161.612a1.919,1.919,0,0,1,1.919-1.919H67.092a1.919,1.919,0,0,1,1.919,1.919V183.4l-3.819,4.558H47.46A1.553,1.553,0,0,0,46.868,188.072Z" transform="translate(38.907 -124.156)" fill="#e7ecf6"/>
      <path id="Trazado_144544" data-name="Trazado 144544" d="M209.3,98.662h8.945V36.122a1.452,1.452,0,0,0-2.488-1.017l-5.422,5.525a3.615,3.615,0,0,0-1.035,2.532Z" transform="translate(-149.263 -27.621)" fill="#675d84"/>
      <path id="Trazado_144546" data-name="Trazado 144546" d="M7.5,270.551A70.283,70.283,0,0,1,18.886,283.62a44.332,44.332,0,0,1,3.614,6.641q.5,1.145.9,2.29a31.63,31.63,0,0,1,1.919,11.474,3.231,3.231,0,0,0,3.24,3.284h73.854a9.683,9.683,0,0,0,9.68-9.683V286.954a5.331,5.331,0,0,1,.36-1.921l.549-1.413,7.75-19.905h-28.6a1.56,1.56,0,0,0-.592.116L76.07,270.2a4.622,4.622,0,0,1-1.759.349Z" transform="translate(-5.792 -204.473)" fill="#ff7758"/>
      <path id="Trazado_144548" data-name="Trazado 144548" d="M70.124,65.464H83.35a1.884,1.884,0,0,1,1.884,1.884V86.937H68.24V67.348a1.884,1.884,0,0,1,1.884-1.884Z" transform="translate(15.891 -51.4)" fill="#c3d5ef"/>
      <path id="Trazado_144549" data-name="Trazado 144549" d="M117.991,65.464h4.2a1.884,1.884,0,0,0-1.884,1.884V86.937h-4.2V67.348A1.884,1.884,0,0,1,117.991,65.464Z" transform="translate(-31.977 -51.4)" fill="#b7c8ea"/>
      <path id="Trazado_144550" data-name="Trazado 144550" d="M87.087,233.554h8.4v-7.817a1.085,1.085,0,0,0-1.085-1.085H88.172a1.085,1.085,0,0,0-1.085,1.085v7.817Z" transform="translate(1.338 -174.312)" fill="#c3b5ec"/>
      <path id="Trazado_144551" data-name="Trazado 144551" d="M424.07,243.379H404.687V254.85H424.07Z" transform="translate(-399.615 -188.771)" fill="#c3b5ec"/>
      <path id="Trazado_144553" data-name="Trazado 144553" d="M339.013,243.379H319.63V254.85h19.383Z" transform="translate(-295.175 -188.771)" fill="#ffba5b"/>
      <path id="Trazado_144555" data-name="Trazado 144555" d="M424.07,193.043H404.687v11.471H424.07Z" transform="translate(-399.615 -149.906)" fill="#675d84"/>
      <path id="Trazado_144557" data-name="Trazado 144557" d="M362.365,98.649H342.982V110.12h19.383Z" transform="translate(-323.849 -77.023)" fill="#c3b5ec"/>
      <path id="Trazado_144559" data-name="Trazado 144559" d="M339.013,193.043H319.63v11.471h19.383Z" transform="translate(-295.175 -149.906)" fill="#ff7758"/>
      <g id="Grupo_83460" data-name="Grupo 83460" transform="translate(1.709 94.859)">
        <path id="Trazado_144562" data-name="Trazado 144562" d="M120.758,426.849c-9.438,0-9.438-6.836-18.877-6.836S92.443,426.849,83,426.849s-9.438-6.836-18.876-6.836-9.438,6.836-18.876,6.836-9.438-6.836-18.876-6.836-9.438,6.836-18.876,6.836v13.271H120.758Z" transform="translate(-7.501 -420.013)" fill="#d3effb"/>
        <path id="Trazado_144563" data-name="Trazado 144563" d="M26.376,420.013c9.438,0,9.438,6.836,18.876,6.836s9.438-6.836,18.876-6.836,9.438,6.836,18.876,6.836,9.438-6.836,18.877-6.836,9.438,6.836,18.877,6.836V432c-9.438,0-9.438-6.836-18.877-6.836S92.442,432,83,432s-9.438-6.836-18.876-6.836S54.689,432,45.251,432s-9.438-6.836-18.876-6.836S16.938,432,7.5,432v-5.149C16.938,426.849,16.938,420.013,26.376,420.013Z" transform="translate(-7.5 -420.013)" fill="#b1e4f9"/>
      </g>
      <path id="Trazado_144564" data-name="Trazado 144564" d="M41.511,351.065a44.333,44.333,0,0,1,3.614,6.64q.5,1.145.9,2.29h88.694v-5.6a5.331,5.331,0,0,1,.36-1.921l.549-1.413Z" transform="translate(-28.417 -271.918)" fill="#e7ecf6"/>
      <path id="Trazado_144565" data-name="Trazado 144565" d="M417.424,357.705q.5,1.145.9,2.29h-6.168a42.389,42.389,0,0,0-4.519-8.931h6.168A44.352,44.352,0,0,1,417.424,357.705Z" transform="translate(-394.548 -271.918)" fill="#d8e2f1"/>
      <g id="Grupo_83461" data-name="Grupo 83461" transform="translate(0 0)">
        <path id="Trazado_144566" data-name="Trazado 144566" d="M99.736,84.554a1.709,1.709,0,0,1,1.709,1.709v1.463a1.709,1.709,0,1,1-3.418,0V86.263A1.709,1.709,0,0,1,99.736,84.554Z" transform="translate(-7.109 -66.14)"/>
        <path id="Trazado_144567" data-name="Trazado 144567" d="M99.736,114.317a1.709,1.709,0,0,1,1.709,1.709v1.463a1.709,1.709,0,1,1-3.418,0v-1.463A1.709,1.709,0,0,1,99.736,114.317Z" transform="translate(-7.109 -89.121)"/>
        <path id="Trazado_144568" data-name="Trazado 144568" d="M59.5,185.022v-1.463a1.709,1.709,0,1,1,3.418,0v1.463a1.709,1.709,0,1,1-3.418,0Z" transform="translate(40.202 -141.263)"/>
        <path id="Trazado_144569" data-name="Trazado 144569" d="M98.027,185.022v-1.463a1.709,1.709,0,1,1,3.418,0v1.463a1.709,1.709,0,1,1-3.418,0Z" transform="translate(-7.109 -141.263)"/>
        <path id="Trazado_144570" data-name="Trazado 144570" d="M138.266,186.731a1.709,1.709,0,0,1-1.709-1.709v-1.463a1.709,1.709,0,1,1,3.418,0v1.463A1.709,1.709,0,0,1,138.266,186.731Z" transform="translate(-54.419 -141.263)"/>
        <path id="Trazado_144571" data-name="Trazado 144571" d="M1.709,103.736c7.743,0,8.338-5.17,15.6-6.545C15.374,87,8.218,78.133.553,71.086a1.709,1.709,0,0,1,1.157-2.967H3.363V46.886a1.709,1.709,0,0,1,1.709-1.709H43.837a1.709,1.709,0,0,1,1.709,1.709v9.762H58.326V24.742L30.533,13.516V23.667h7.982a1.709,1.709,0,0,1,1.709,1.709V36.846a1.709,1.709,0,0,1-1.709,1.709H32.83a1.709,1.709,0,0,1,0-3.418h3.977V27.085H20.842v8.052H26a1.709,1.709,0,0,1,0,3.418H19.133a1.709,1.709,0,0,1-1.709-1.709V25.376a1.709,1.709,0,0,1,1.709-1.709h7.982V12.136L22.6,10.314a1.709,1.709,0,0,1,1.28-3.17L58.325,21.055V19.291a5.294,5.294,0,0,1,1.524-3.729l5.422-5.525a3.161,3.161,0,0,1,5.417,2.214v13.8L75.8,28.115a1.709,1.709,0,1,1-1.28,3.169l-3.836-1.549V67.462l4.939-2.031V41.205a3.632,3.632,0,0,1,3.628-3.628h3.165V19.7A3.6,3.6,0,0,1,86.014,16.1h4.9v-4.69H89.287a1.709,1.709,0,0,1,0-3.418h1.631V5.459a1.709,1.709,0,1,1,3.418,0V8h1.631a1.709,1.709,0,0,1,0,3.418H94.336V16.1h4.9a3.6,3.6,0,0,1,3.593,3.593v17.88H106a3.632,3.632,0,0,1,3.628,3.628v8.31a1.709,1.709,0,1,1-3.418,0v-8.31A.21.21,0,0,0,106,41H79.256a.21.21,0,0,0-.21.21V64.026l6.08-2.5a3.258,3.258,0,0,1,1.24-.244h.349V55.174A2.8,2.8,0,0,1,89.51,52.38h6.234a2.8,2.8,0,0,1,2.794,2.794v6.108h7.67V56.349a1.709,1.709,0,1,1,3.418,0v4.933h5.339a1.709,1.709,0,0,1,1.593,2.329l-7.75,19.9-.548,1.41a3.609,3.609,0,0,0-.245,1.3V96.9a11.4,11.4,0,0,1-.815,4.222,11.891,11.891,0,0,0,7.765,2.611,1.709,1.709,0,0,1,0,3.418c-9.783,0-10.482-6.836-18.877-6.836-8.612,0-8.835,6.836-18.877,6.836s-10.254-6.836-18.876-6.836-8.834,6.836-18.876,6.836-10.254-6.836-18.876-6.836-8.831,6.836-18.875,6.836a1.709,1.709,0,0,1,0-3.418ZM99.415,37.577V19.7a.175.175,0,0,0-.175-.175H86.014a.175.175,0,0,0-.175.175v17.88ZM42.128,68.119V60.066H26.163v8.052ZM22.745,60.066H6.781v8.052H22.745ZM6.781,56.648H22.745V48.6H6.781ZM42.128,48.6H26.163v8.052H42.128Zm3.418,11.471v8.052H58.326V60.066ZM67.271,12.88,62.29,17.956a1.9,1.9,0,0,0-.546,1.335V68.119h5.527ZM95.12,55.8H90.134v5.484H95.12ZM86.4,64.7,70.929,71.059a6.3,6.3,0,0,1-2.41.478H5.949a68.73,68.73,0,0,1,8.059,9.651h92.04L112.466,64.7ZM39.46,103.736c8.614,0,8.831-6.836,18.876-6.836,10.062,0,10.241,6.836,18.876,6.836,8.615,0,8.832-6.836,18.877-6.836a14.872,14.872,0,0,1,8.193,2.209A7.969,7.969,0,0,0,104.6,96.9V93.537H47.254a1.709,1.709,0,1,1,0-3.418H104.6V86.23a6.98,6.98,0,0,1,.191-1.625H16.142A42.58,42.58,0,0,1,18.8,90.118H40.421a1.709,1.709,0,1,1,0,3.418H19.953q.478,1.678.781,3.365C30.636,96.973,30.887,103.736,39.46,103.736Z" transform="translate(0 -3.75)"/>
        <path id="Trazado_144572" data-name="Trazado 144572" d="M62.45,470.081c2.177,0,2.577-2.234,6.168-2.234s3.985,2.234,6.168,2.234a1.709,1.709,0,0,1,0,3.418c-3.593,0-3.985-2.234-6.168-2.234-2.148,0-2.607,2.234-6.168,2.234a1.709,1.709,0,0,1,0-3.418Z" transform="translate(26.338 -362.088)"/>
        <path id="Trazado_144573" data-name="Trazado 144573" d="M223.143,470.081c2.177,0,2.577-2.234,6.168-2.234s3.976,2.234,6.168,2.234a1.709,1.709,0,0,1,0,3.418c-3.593,0-3.985-2.234-6.168-2.234s-2.577,2.234-6.168,2.234a1.709,1.709,0,0,1,0-3.418Z" transform="translate(-170.974 -362.088)"/>
        <path id="Trazado_144574" data-name="Trazado 144574" d="M377.138,470.081c2.148,0,2.607-2.234,6.168-2.234,3.593,0,3.985,2.234,6.168,2.234a1.709,1.709,0,0,1,0,3.418c-3.593,0-3.985-2.234-6.168-2.234s-2.577,2.234-6.168,2.234a1.709,1.709,0,1,1,0-3.418Z" transform="translate(-360.062 -362.088)"/>
        <path id="Trazado_144575" data-name="Trazado 144575" d="M393.594,319.371h-3.132a1.709,1.709,0,1,1,0-3.418h3.132a1.709,1.709,0,1,1,0,3.418Z" transform="translate(-367.217 -244.807)"/>
      </g>
    </g>
    <g id="agente-de-ventas" transform="translate(1155.993 5463.221)">
      <g id="Grupo_83422" data-name="Grupo 83422" transform="translate(1.879 62.021)">
        <path id="Trazado_144506" data-name="Trazado 144506" d="M2,86.624V58.433A24.432,24.432,0,0,1,26.432,34H48.985A24.432,24.432,0,0,1,73.418,58.433V86.624Z" transform="translate(-2 -34)" fill="#e8eff4"/>
      </g>
      <g id="Grupo_83424" data-name="Grupo 83424" transform="translate(30.071 75.177)">
        <path id="Trazado_144508" data-name="Trazado 144508" d="M28.276,41l-3.759,3.759L20.759,41,17,65.433l7.518,7.518,7.518-7.518Z" transform="translate(-17 -41)" fill="#ff7758"/>
      </g>
      <g id="Grupo_83426" data-name="Grupo 83426" transform="translate(28.191 62.021)">
        <path id="Trazado_144510" data-name="Trazado 144510" d="M16,34l9.4,7.518L34.794,34Z" transform="translate(-16 -34)" fill="#fadfb2"/>
      </g>
      <g id="Grupo_83427" data-name="Grupo 83427" transform="translate(37.588 62.021)">
        <path id="Trazado_144511" data-name="Trazado 144511" d="M21,41.518l7.518,7.518L36.035,34H30.4Z" transform="translate(-21 -34)" fill="#c7e2fc"/>
      </g>
      <g id="Grupo_83428" data-name="Grupo 83428" transform="translate(22.553 62.021)">
        <path id="Trazado_144512" data-name="Trazado 144512" d="M28.035,41.518l-7.518,7.518L13,34h5.638Z" transform="translate(-13 -34)" fill="#c7e2fc"/>
      </g>
      <g id="Grupo_83429" data-name="Grupo 83429" transform="translate(33.829 69.538)">
        <path id="Trazado_144513" data-name="Trazado 144513" d="M26.518,41.759,22.759,38,19,41.759,22.759,47.4Z" transform="translate(-19 -38)" fill="#a8575d"/>
      </g>
      <g id="Grupo_83430" data-name="Grupo 83430" transform="translate(16.915 13.156)">
        <path id="Trazado_144514" data-name="Trazado 144514" d="M30.674,8A11.276,11.276,0,0,1,19.4,19.277H10V36.191a20.674,20.674,0,1,0,41.347,0V19.277h-9.4A11.276,11.276,0,0,1,30.674,8Z" transform="translate(-10 -8)" fill="#fadfb2"/>
      </g>
      <g id="Grupo_83431" data-name="Grupo 83431" transform="translate(16.915 13.156)">
        <path id="Trazado_144515" data-name="Trazado 144515" d="M45.666,19.277H41.95A11.276,11.276,0,0,1,30.674,8,11.276,11.276,0,0,1,19.4,19.277H10V36.191a20.6,20.6,0,0,0,6.463,14.99C32.4,50.708,45.215,36.7,45.666,19.277Z" transform="translate(-10 -8)" fill="#fcecd1"/>
      </g>
      <g id="Grupo_83432" data-name="Grupo 83432" transform="translate(22.553 31.95)">
        <path id="Trazado_144516" data-name="Trazado 144516" d="M13,18H24.276v7.518H13Z" transform="translate(-13 -18)" fill="#c7e2fc"/>
      </g>
      <g id="Grupo_83433" data-name="Grupo 83433" transform="translate(41.347 31.95)">
        <path id="Trazado_144517" data-name="Trazado 144517" d="M23,18H34.277v7.518H23Z" transform="translate(-23 -18)" fill="#c7e2fc"/>
      </g>
      <g id="Grupo_83434" data-name="Grupo 83434" transform="translate(58.262 31.95)">
        <path id="Trazado_144518" data-name="Trazado 144518" d="M32,18V29.277h1.879a5.638,5.638,0,0,0,0-11.277Z" transform="translate(-32 -18)" fill="#fadfb2"/>
      </g>
      <g id="Grupo_83435" data-name="Grupo 83435" transform="translate(9.397 31.95)">
        <path id="Trazado_144519" data-name="Trazado 144519" d="M13.518,18V29.277H11.638a5.638,5.638,0,0,1,0-11.277Z" transform="translate(-6 -18)" fill="#fadfb2"/>
      </g>
      <g id="Grupo_83436" data-name="Grupo 83436" transform="translate(9.397 1.879)">
        <path id="Trazado_144520" data-name="Trazado 144520" d="M50.578,2a7.8,7.8,0,0,0-5.514,2.284L43.588,5.759,42.113,4.284A7.8,7.8,0,0,0,36.6,2H20.425a14.427,14.427,0,0,0-12,22.429l5.1,7.642V24.553h9.4A11.276,11.276,0,0,0,34.191,13.277,11.276,11.276,0,0,0,45.468,24.553h9.4v7.518l3.64-5.462a23.082,23.082,0,0,0,3.877-12.8A11.8,11.8,0,0,0,50.578,2Z" transform="translate(-6 -2)" fill="#976947"/>
      </g>
      <g id="Grupo_83437" data-name="Grupo 83437" transform="translate(52.753 69.843)">
        <ellipse id="Elipse_4303" data-name="Elipse 4303" cx="22.775" cy="22.775" rx="22.775" ry="22.775" transform="translate(0 0)" fill="#ffba5b"/>
      </g>
      <g id="Grupo_83439" data-name="Grupo 83439" transform="translate(74.009 21.258)">
        <ellipse id="Elipse_4304" data-name="Elipse 4304" cx="19.738" cy="19.739" rx="19.738" ry="19.739" transform="translate(0 0)" fill="#c3b5ec"/>
      </g>
      <g id="Grupo_83441" data-name="Grupo 83441" transform="translate(0 60.141)">
        <path id="Trazado_144523" data-name="Trazado 144523" d="M76.177,89.383H2.879A1.879,1.879,0,0,1,1,87.5V59.312A26.341,26.341,0,0,1,27.312,33H49.865a26.255,26.255,0,0,1,20.23,9.487l-2.889,2.4a22.505,22.505,0,0,0-17.341-8.132H27.312A22.578,22.578,0,0,0,4.759,59.312V85.624H76.177Z" transform="translate(-1 -33)"/>
      </g>
      <g id="Grupo_83442" data-name="Grupo 83442" transform="translate(15.035 11.276)">
        <path id="Trazado_144524" data-name="Trazado 144524" d="M31.553,59.624A22.578,22.578,0,0,1,9,37.071V20.156a1.879,1.879,0,0,1,1.879-1.879h9.4a9.408,9.408,0,0,0,9.4-9.4,1.879,1.879,0,1,1,3.759,0,9.408,9.408,0,0,0,9.4,9.4h9.4a1.879,1.879,0,0,1,1.879,1.879V37.071A22.578,22.578,0,0,1,31.553,59.624ZM12.759,22.035V37.071a18.794,18.794,0,1,0,37.588,0V22.035H42.829a13.162,13.162,0,0,1-11.276-6.384,13.162,13.162,0,0,1-11.276,6.384Z" transform="translate(-9 -7)"/>
      </g>
      <g id="Grupo_83443" data-name="Grupo 83443" transform="translate(27.017 60.553)">
        <path id="Trazado_144525" data-name="Trazado 144525" d="M25.947,44.084a1.88,1.88,0,0,1-1.175-.412l-9.4-7.518,2.347-2.936,8.224,6.58,8.222-6.58,2.347,2.936-9.4,7.518A1.871,1.871,0,0,1,25.947,44.084Z" transform="translate(-15.375 -33.219)"/>
      </g>
      <g id="Grupo_83444" data-name="Grupo 83444" transform="translate(20.873 61.179)">
        <path id="Trazado_144526" data-name="Trazado 144526" d="M21.3,51.309a1.8,1.8,0,0,1-.3-.024,1.886,1.886,0,0,1-1.379-1.015L12.106,35.234l3.362-1.682,6.351,12.7,5.674-5.674,2.657,2.658-7.518,7.518a1.874,1.874,0,0,1-1.329.553Z" transform="translate(-12.106 -33.552)"/>
      </g>
      <g id="Grupo_83445" data-name="Grupo 83445" transform="translate(36.26 61.181)">
        <path id="Trazado_144527" data-name="Trazado 144527" d="M29.139,51.308a1.88,1.88,0,0,1-1.329-.551L20.293,43.24l2.657-2.658,5.674,5.674,6.351-12.7,3.362,1.682L30.82,50.271a1.886,1.886,0,0,1-1.379,1.015,2.026,2.026,0,0,1-.3.023Z" transform="translate(-20.293 -33.553)"/>
      </g>
      <g id="Grupo_83446" data-name="Grupo 83446" transform="translate(11.276 84.574)">
        <path id="Trazado_144528" data-name="Trazado 144528" d="M7,46h3.759V76.071H7Z" transform="translate(-7 -46)"/>
      </g>
      <g id="Grupo_83447" data-name="Grupo 83447" transform="translate(7.518 0)">
        <path id="Trazado_144529" data-name="Trazado 144529" d="M57.624,46.106H55.744V42.347h1.879a3.759,3.759,0,0,0,0-7.518H55.744a1.878,1.878,0,0,1-1.564-2.921l3.642-5.462a21.151,21.151,0,0,0,3.56-11.763,9.936,9.936,0,0,0-9.925-9.925A5.881,5.881,0,0,0,47.27,6.494L45.8,7.967a1.937,1.937,0,0,1-2.659,0L41.662,6.492a5.872,5.872,0,0,0-4.184-1.733H21.306a12.547,12.547,0,0,0-10.44,19.507l5.1,7.642A1.88,1.88,0,0,1,14.4,34.83H12.518a3.759,3.759,0,0,0,0,7.518H14.4v3.759H12.518A7.518,7.518,0,0,1,10.99,31.227L7.738,26.35A16.305,16.305,0,0,1,21.306,1H37.478a9.622,9.622,0,0,1,6.843,2.832l.147.147.145-.145A9.62,9.62,0,0,1,51.457,1,13.7,13.7,0,0,1,65.141,14.684,24.889,24.889,0,0,1,60.95,28.53l-1.8,2.7a7.518,7.518,0,0,1-1.528,14.879Z" transform="translate(-5 -1)"/>
      </g>
      <g id="Grupo_83448" data-name="Grupo 83448" transform="translate(16.915 30.07)">
        <path id="Trazado_144530" data-name="Trazado 144530" d="M26.915,28.277H15.638A1.879,1.879,0,0,1,13.759,26.4V20.759H10V17H26.915a1.879,1.879,0,0,1,1.879,1.879V26.4A1.879,1.879,0,0,1,26.915,28.277Zm-9.4-3.759h7.518V20.759H17.518Z" transform="translate(-10 -17)"/>
      </g>
      <g id="Grupo_83449" data-name="Grupo 83449" transform="translate(39.468 30.07)">
        <path id="Trazado_144531" data-name="Trazado 144531" d="M35.156,28.277H23.879A1.879,1.879,0,0,1,22,26.4V18.879A1.879,1.879,0,0,1,23.879,17H40.794v3.759H37.035V26.4A1.879,1.879,0,0,1,35.156,28.277Zm-9.4-3.759h7.518V20.759H25.759Z" transform="translate(-22 -17)"/>
      </g>
      <g id="Grupo_83450" data-name="Grupo 83450" transform="translate(33.829 33.829)">
        <path id="Trazado_144532" data-name="Trazado 144532" d="M19,19h7.518v3.759H19Z" transform="translate(-19 -19)"/>
      </g>
      <g id="Grupo_83451" data-name="Grupo 83451" transform="translate(30.071 46.985)">
        <path id="Trazado_144533" data-name="Trazado 144533" d="M24.518,35.4A7.525,7.525,0,0,1,17,27.879V26h3.759v1.879a3.759,3.759,0,1,0,7.518,0V26h3.759v1.879A7.525,7.525,0,0,1,24.518,35.4Z" transform="translate(-17 -26)"/>
      </g>
      <g id="Grupo_83452" data-name="Grupo 83452" transform="translate(28.191 71.417)">
        <path id="Trazado_144534" data-name="Trazado 144534" d="M25.4,76.589a1.874,1.874,0,0,1-1.329-.551l-7.518-7.518a1.876,1.876,0,0,1-.532-1.6l3.759-26.312a1.879,1.879,0,0,1,3.424-.776l2.2,3.293,2.2-3.293a1.879,1.879,0,0,1,3.424.776l3.759,26.312a1.876,1.876,0,0,1-.532,1.6l-7.518,7.518a1.874,1.874,0,0,1-1.329.551ZM19.874,66.527,25.4,72.052l5.524-5.524-2.93-20.514-1.03,1.545a1.95,1.95,0,0,1-3.127,0L22.8,46.015Z" transform="translate(-16 -38.999)"/>
      </g>
      <g id="Grupo_83453" data-name="Grupo 83453" transform="translate(71.418 18.794)">
        <path id="Trazado_144535" data-name="Trazado 144535" d="M61.553,56.106A22.553,22.553,0,1,1,84.106,33.553,22.578,22.578,0,0,1,61.553,56.106Zm0-41.347A18.794,18.794,0,1,0,80.347,33.553,18.816,18.816,0,0,0,61.553,14.759Z" transform="translate(-39 -11)"/>
      </g>
      <g id="Grupo_83454" data-name="Grupo 83454" transform="translate(67.659 78.936)">
        <path id="Trazado_144536" data-name="Trazado 144536" d="M44.518,69.312A7.525,7.525,0,0,1,37,61.794h3.759a3.759,3.759,0,1,0,3.759-3.759,7.518,7.518,0,1,1,7.518-7.518H48.277a3.759,3.759,0,1,0-3.759,3.759,7.518,7.518,0,0,1,0,15.035Z" transform="translate(-37 -43)"/>
      </g>
      <g id="Grupo_83455" data-name="Grupo 83455" transform="translate(73.297 75.177)">
        <path id="Trazado_144537" data-name="Trazado 144537" d="M40,41h3.759v5.638H40Z" transform="translate(-40 -41)"/>
      </g>
      <g id="Grupo_83456" data-name="Grupo 83456" transform="translate(73.297 103.368)">
        <path id="Trazado_144538" data-name="Trazado 144538" d="M40,56h3.759v5.638H40Z" transform="translate(-40 -56)"/>
      </g>
      <g id="Grupo_83457" data-name="Grupo 83457" transform="translate(50.744 67.659)">
        <path id="Trazado_144539" data-name="Trazado 144539" d="M52.432,85.865A24.433,24.433,0,1,1,76.865,61.433,24.461,24.461,0,0,1,52.432,85.865Zm0-45.106A20.674,20.674,0,1,0,73.106,61.433,20.7,20.7,0,0,0,52.432,40.759Z" transform="translate(-28 -37)"/>
      </g>
      <g id="Grupo_83458" data-name="Grupo 83458" transform="translate(85.124 34.38)">
        <path id="Trazado_144540" data-name="Trazado 144540" d="M51.381,33.778a1.874,1.874,0,0,1-1.329-.551l-3.759-3.759,2.657-2.658,2.43,2.43,9.948-9.948,2.657,2.658L52.709,33.227a1.874,1.874,0,0,1-1.329.551Z" transform="translate(-46.293 -19.293)"/>
      </g>
    </g>
  </g>
</svg>
