<svg xmlns="http://www.w3.org/2000/svg" width="85.648" height="85.623" viewBox="0 0 85.648 85.623">
  <g id="mapa" transform="translate(0.513 0.499)">
    <g id="Grupo_54013" data-name="Grupo 54013" transform="translate(30.92 15.421)">
      <g id="Grupo_54012" data-name="Grupo 54012">
        <path id="Trazado_102218" data-name="Trazado 102218" d="M198.474,93.3a11.268,11.268,0,0,0-6.45,2.016,1.251,1.251,0,0,0-.318,1.732,1.23,1.23,0,0,0,1.719.32,8.82,8.82,0,0,1,5.049-1.577,8.96,8.96,0,1,1-7.917,4.844,1.25,1.25,0,0,0-.526-1.679,1.231,1.231,0,0,0-1.667.53,11.578,11.578,0,0,0-1.28,5.291A11.391,11.391,0,1,0,198.474,93.3Z" transform="translate(-187.084 -93.297)" fill="#ffa08b" stroke="#ff7758" stroke-width="1"/>
      </g>
    </g>
    <g id="Grupo_54015" data-name="Grupo 54015" transform="translate(-0.001 0.001)">
      <g id="Grupo_54014" data-name="Grupo 54014">
        <path id="Trazado_102219" data-name="Trazado 102219" d="M84.528,82.9,72.33,53.37a1.236,1.236,0,0,0-1.141-.767H59.033A63.03,63.03,0,0,0,64.9,43.019a36.949,36.949,0,0,0,4.1-16.122,26.7,26.7,0,1,0-53.391,0,36.948,36.948,0,0,0,4.1,16.122A63,63,0,0,0,25.59,52.6H13.435a1.236,1.236,0,0,0-1.141.767L3.982,73.492a1.248,1.248,0,0,0,.666,1.628,1.224,1.224,0,0,0,.474.1,1.236,1.236,0,0,0,1.141-.767l1.186-2.871h8.414L11.5,82.132H3.089l1.264-3.06a1.248,1.248,0,0,0-.666-1.628,1.232,1.232,0,0,0-1.616.671L.1,82.9a1.252,1.252,0,0,0,.113,1.169,1.233,1.233,0,0,0,1.028.554H83.387a1.234,1.234,0,0,0,1.028-.554A1.253,1.253,0,0,0,84.528,82.9Zm-66.44-56a24.224,24.224,0,1,1,48.447,0c0,5.643-1.946,14.661-10.949,26.152l-.026.033q-.69.879-1.435,1.778A95.091,95.091,0,0,1,42.312,66.718,94.943,94.943,0,0,1,30.53,54.9q-.765-.92-1.469-1.82l-.023-.029C20.036,41.559,18.088,32.541,18.088,26.9Zm-3.83,28.2h8.414L19.6,62.522H11.19Zm7.227,27.039,7.725-18.7L51.2,82.132Zm33.541,0h0l-25.511-21.7a1.231,1.231,0,0,0-1.938.473L18.809,82.132H14.181L18.857,70.81a1.252,1.252,0,0,0-.113-1.169,1.233,1.233,0,0,0-1.028-.554H8.479l1.683-4.074H20.428a1.236,1.236,0,0,0,1.141-.767l3.781-9.153H27.5q.559.7,1.139,1.4A93.248,93.248,0,0,0,41.556,69.3a1.229,1.229,0,0,0,1.513,0c.145-.113,2.108-1.654,4.9-4.291h14a1.245,1.245,0,0,0,0-2.49H50.52c1.714-1.736,3.587-3.76,5.47-6.026q.583-.7,1.139-1.4H70.365l3.069,7.429H66.912a1.245,1.245,0,0,0,0,2.49h7.55l1.683,4.074H50.681a1.236,1.236,0,0,0-1.158.81,1.252,1.252,0,0,0,.348,1.376l12.418,10.86H55.028Zm11.032,0L53.99,71.577H77.174l4.36,10.555Z" transform="translate(-0.001 0)" fill="#ffa08b" stroke="#ff7758" stroke-width="1"/>
      </g>
    </g>
  </g>
</svg>
