<svg xmlns="http://www.w3.org/2000/svg" width="148.167" height="136.011" viewBox="0 0 148.167 136.011">
  <g id="personas" transform="translate(0 -21.003)">
    <g id="Grupo_83413" data-name="Grupo 83413" transform="translate(2.172 23.174)">
      <g id="Grupo_83411" data-name="Grupo 83411" transform="translate(50.208 3.938)">
        <path id="Trazado_144440" data-name="Trazado 144440" d="M214,84.114h24.308v17.652H214Z" transform="translate(-204.454 -71.96)" fill="#ffd15b"/>
        <path id="Trazado_144441" data-name="Trazado 144441" d="M185.345,191.415A4.341,4.341,0,0,1,181,187.075V152.059a6.945,6.945,0,0,1,6.945-6.945h1.736v41.961A4.341,4.341,0,0,1,185.345,191.415Z" transform="translate(-181.004 -115.307)" fill="#ffcebf"/>
        <path id="Trazado_144442" data-name="Trazado 144442" d="M189.686,162.477H181V152.059a6.945,6.945,0,0,1,6.945-6.945h1.736Z" transform="translate(-181.004 -115.307)" fill="#c3b5ec"/>
        <path id="Trazado_144443" data-name="Trazado 144443" d="M305.345,191.415a4.341,4.341,0,0,0,4.341-4.341V152.059a6.945,6.945,0,0,0-6.945-6.945H301v41.961A4.341,4.341,0,0,0,305.345,191.415Z" transform="translate(-266.278 -115.307)" fill="#ffcebf"/>
        <path id="Trazado_144444" data-name="Trazado 144444" d="M301,162.477h8.681V152.059a6.945,6.945,0,0,0-6.945-6.945H301Z" transform="translate(-266.278 -115.307)" fill="#c3b5ec"/>
        <path id="Trazado_144445" data-name="Trazado 144445" d="M211,145.114h26.045v31.832H211Z" transform="translate(-202.322 -115.307)" fill="#ffba5b"/>
        <path id="Trazado_144447" data-name="Trazado 144447" d="M211,333.611h8.682v29.373H211Z" transform="translate(-202.322 -249.256)" fill="#ffcebf"/>
        <path id="Trazado_144448" data-name="Trazado 144448" d="M271,333.611h8.682v29.373H271Z" transform="translate(-244.959 -249.256)" fill="#ffcebf"/>
        <path id="Trazado_144449" data-name="Trazado 144449" d="M245.345,129.583A4.341,4.341,0,0,1,241,125.242V115.114h8.682v10.128A4.341,4.341,0,0,1,245.345,129.583Z" transform="translate(-223.641 -93.989)" fill="#ffb09e"/>
        <path id="Trazado_144450" data-name="Trazado 144450" d="M234.686,76.107A8.681,8.681,0,0,1,226,67.426V62.8a8.682,8.682,0,0,1,17.363,0v4.63A8.682,8.682,0,0,1,234.686,76.107Z" transform="translate(-212.982 -50.641)" fill="#ffcebf"/>
        <path id="Trazado_144451" data-name="Trazado 144451" d="M219.686,425.374H211v-4.919a4.341,4.341,0,1,1,8.682,0Z" transform="translate(-202.322 -307.884)" fill="#ee6161"/>
        <path id="Trazado_144452" data-name="Trazado 144452" d="M279.686,425.374H271v-4.919a4.341,4.341,0,1,1,8.682,0Z" transform="translate(-244.959 -307.884)" fill="#ee6161"/>
        <path id="Trazado_144453" data-name="Trazado 144453" d="M238.312,54.268H214V53.4a11.287,11.287,0,0,1,11.287-11.287h1.734A11.287,11.287,0,0,1,238.312,53.4v.867Z" transform="translate(-204.454 -42.114)" fill="#ffe177"/>
        <path id="Trazado_144455" data-name="Trazado 144455" d="M211,255.114h26.045V277.83H211Z" transform="translate(-202.322 -193.475)" fill="#c3b5ec"/>
      </g>
      <path id="Trazado_144457" data-name="Trazado 144457" d="M11.845,194.805A4.341,4.341,0,0,1,7.5,190.465V155.449a6.945,6.945,0,0,1,6.945-6.945h1.736v41.961A4.341,4.341,0,0,1,11.845,194.805Z" transform="translate(-7.504 -113.778)" fill="#e8916f"/>
      <path id="Trazado_144458" data-name="Trazado 144458" d="M131.845,194.805a4.341,4.341,0,0,0,4.341-4.341V155.449a6.945,6.945,0,0,0-6.945-6.945H127.5v41.961A4.341,4.341,0,0,0,131.845,194.805Z" transform="translate(-92.778 -113.778)" fill="#e8916f"/>
      <path id="Trazado_144459" data-name="Trazado 144459" d="M0,0H26.045V31.832H0Z" transform="translate(34.726 66.558) rotate(180)" fill="#ff7758"/>
      <path id="Trazado_144461" data-name="Trazado 144461" d="M37.5,258.5v52.089h8.682V271.526a4.341,4.341,0,0,1,8.682,0v39.067h8.682V258.5Z" transform="translate(-28.822 -191.946)" fill="#675d84"/>
      <path id="Trazado_144462" data-name="Trazado 144462" d="M71.845,132.973a4.341,4.341,0,0,0,4.341-4.341V118.5H67.5v10.128A4.341,4.341,0,0,0,71.845,132.973Z" transform="translate(-50.141 -92.46)" fill="#d78878"/>
      <path id="Trazado_144463" data-name="Trazado 144463" d="M61.186,78.8a8.681,8.681,0,0,0,8.682-8.681v-4.63a8.682,8.682,0,1,0-17.363,0v4.63A8.681,8.681,0,0,0,61.186,78.8Z" transform="translate(-39.482 -48.619)" fill="#e8916f"/>
      <path id="Trazado_144464" data-name="Trazado 144464" d="M97.5,428.764h8.681v-4.919a4.341,4.341,0,0,0-8.681,0Z" transform="translate(-71.459 -306.355)" fill="#9b5e5e"/>
      <path id="Trazado_144465" data-name="Trazado 144465" d="M37.5,428.764h8.682v-4.919a4.341,4.341,0,0,0-8.682,0Z" transform="translate(-28.822 -306.355)" fill="#9b5e5e"/>
      <path id="Trazado_144466" data-name="Trazado 144466" d="M358.845,194.805a4.341,4.341,0,0,1-4.341-4.341V155.449a6.945,6.945,0,0,1,6.945-6.945h1.736v41.961A4.341,4.341,0,0,1,358.845,194.805Z" transform="translate(-254.088 -113.778)" fill="#fed2a4"/>
      <path id="Trazado_144467" data-name="Trazado 144467" d="M478.845,194.805a4.341,4.341,0,0,0,4.341-4.341V155.449a6.945,6.945,0,0,0-6.945-6.945H474.5v41.961A4.341,4.341,0,0,0,478.845,194.805Z" transform="translate(-339.362 -113.778)" fill="#fed2a4"/>
      <path id="Trazado_144468" data-name="Trazado 144468" d="M0,0H26.045V31.832H0Z" transform="translate(135.142 66.558) rotate(180)" fill="#c3b5ec"/>
      <path id="Trazado_144470" data-name="Trazado 144470" d="M384.5,258.5v52.089h8.681V271.526a4.341,4.341,0,0,1,8.682,0v39.067h8.681V258.5Z" transform="translate(-275.406 -191.946)" fill="#675d84"/>
      <path id="Trazado_144471" data-name="Trazado 144471" d="M418.845,132.973a4.341,4.341,0,0,0,4.341-4.341V118.5H414.5v10.128A4.341,4.341,0,0,0,418.845,132.973Z" transform="translate(-296.725 -92.46)" fill="#ffbd86"/>
      <path id="Trazado_144472" data-name="Trazado 144472" d="M408.186,78.8a8.681,8.681,0,0,0,8.681-8.681v-4.63a8.681,8.681,0,1,0-17.363,0v4.63A8.681,8.681,0,0,0,408.186,78.8Z" transform="translate(-286.065 -48.619)" fill="#fed2a4"/>
      <g id="Grupo_83412" data-name="Grupo 83412" transform="translate(4.341 0)">
        <path id="Trazado_144473" data-name="Trazado 144473" d="M444.5,428.764h8.681v-4.919a4.341,4.341,0,0,0-8.681,0Z" transform="translate(-322.384 -306.355)" fill="#9b5e5e"/>
        <path id="Trazado_144474" data-name="Trazado 144474" d="M384.5,428.764h8.681v-4.919a4.341,4.341,0,0,0-8.681,0Z" transform="translate(-279.747 -306.355)" fill="#9b5e5e"/>
        <path id="Trazado_144475" data-name="Trazado 144475" d="M48.559,45.868H31.175A8.7,8.7,0,0,1,22.5,37.2v-.022a8.7,8.7,0,0,1,8.671-8.671H48.559a8.7,8.7,0,0,1,8.671,8.671V37.2A8.7,8.7,0,0,1,48.559,45.868Z" transform="translate(-22.504 -28.505)" fill="#9b5e5e"/>
      </g>
      <path id="Trazado_144477" data-name="Trazado 144477" d="M409.2,55.087h-19.09a2.609,2.609,0,0,1-2.609-2.609V51.025a8.092,8.092,0,0,1,8.092-8.092h8.125a8.092,8.092,0,0,1,8.092,8.092v1.453A2.609,2.609,0,0,1,409.2,55.087Z" transform="translate(-277.537 -38.758)" fill="#9b5e5e"/>
      <path id="Trazado_144479" data-name="Trazado 144479" d="M146.7,460.764H12.134a4.63,4.63,0,1,1,0-9.26H146.7a4.63,4.63,0,0,1,0,9.26Z" transform="translate(-7.504 -329.095)" fill="#7a6d79"/>
      <path id="Trazado_144480" data-name="Trazado 144480" d="M467.185,451.5H458.5a4.63,4.63,0,0,1,0,9.26h8.681a4.63,4.63,0,1,0,0-9.26Z" transform="translate(-327.992 -329.095)" fill="#685e68"/>
    </g>
    <g id="Grupo_83414" data-name="Grupo 83414" transform="translate(0 21.003)">
      <path id="Trazado_144481" data-name="Trazado 144481" d="M146,76.309a2.17,2.17,0,0,0,2.17-2.17V64.845a9.126,9.126,0,0,0-9.116-9.116H130.8V53.354a10.842,10.842,0,0,0,4.341-8.676V41.493a4.788,4.788,0,0,0,3.473-4.6V35.441a10.274,10.274,0,0,0-10.262-10.262h-8.125a10.274,10.274,0,0,0-10.262,10.262v1.453a4.788,4.788,0,0,0,3.473,4.6v3.185a10.842,10.842,0,0,0,4.341,8.676v2.375h-8.247a9.126,9.126,0,0,0-9.116,9.116V99.86A6.545,6.545,0,0,0,109.1,106v37.413H89.276V105.019a6.545,6.545,0,0,0,8.682-6.139V63.864a9.126,9.126,0,0,0-9.116-9.116h-.434V38.4A13.473,13.473,0,0,0,74.951,24.942H73.217A13.473,13.473,0,0,0,59.759,38.4V54.748h-.434a9.126,9.126,0,0,0-9.116,9.116V98.879a6.545,6.545,0,0,0,8.682,6.139v38.394H39.068V106A6.545,6.545,0,0,0,47.75,99.86V64.845a9.126,9.126,0,0,0-9.116-9.116H30.387V53.354a10.842,10.842,0,0,0,4.341-8.676V42.491C47.37,39.592,45.67,21.37,32.568,21H15.183C2.094,21.369.371,39.594,13.024,42.491v2.187a10.842,10.842,0,0,0,4.341,8.676v2.375H9.117A9.126,9.126,0,0,0,0,64.845V99.86A6.545,6.545,0,0,0,8.683,106v10.152a2.17,2.17,0,0,0,4.341,0V91.9h21.7v42.622a6.557,6.557,0,0,0-4.341,0v-31.77a6.452,6.452,0,0,0-1.906-4.6,6.525,6.525,0,0,0-11.116,4.6v31.77a6.557,6.557,0,0,0-4.341,0v-8.1a2.17,2.17,0,0,0-4.341,0v16.992H6.8a6.8,6.8,0,0,0,0,13.6H95.209a2.17,2.17,0,0,0,0-4.341H6.8a2.46,2.46,0,0,1,0-4.92H141.365a2.46,2.46,0,0,1,0,4.92h-36.1a2.17,2.17,0,0,0,0,4.341h36.1a6.8,6.8,0,0,0,0-13.6h-1.881V106a6.545,6.545,0,0,0,8.682-6.139V84.512a2.17,2.17,0,0,0-4.341,0V99.86a2.17,2.17,0,0,1-4.341,0V60.089a4.781,4.781,0,0,1,4.341,4.755v9.294a2.17,2.17,0,0,0,2.17,2.17Zm-10.852,58.215a6.557,6.557,0,0,0-4.341,0v-31.77a6.452,6.452,0,0,0-1.906-4.6,6.525,6.525,0,0,0-11.116,4.6v31.77a6.557,6.557,0,0,0-4.341,0V91.9h21.7Zm-13.022-31.77a2.176,2.176,0,0,1,3.706-1.53,2.145,2.145,0,0,1,.635,1.53v40.658h-4.341Zm13.022-15.193h-21.7V60.07h4.381a6.516,6.516,0,0,0,12.942,0h4.381V87.562ZM127.606,50.28c-.04.021-.079.044-.117.068a6.558,6.558,0,0,1-6.395,0c-.038-.024-.078-.047-.117-.068a6.514,6.514,0,0,1-3.2-5.6v-3H130.8v3A6.515,6.515,0,0,1,127.606,50.28Zm-13.3-14.839a5.928,5.928,0,0,1,5.921-5.921h8.125a5.928,5.928,0,0,1,5.921,5.921v1.453a.439.439,0,0,1-.439.439h-19.09a.44.44,0,0,1-.439-.439V35.441Zm9.984,20.088a10.86,10.86,0,0,0,2.17-.218v4.035a2.17,2.17,0,0,1-4.341,0V55.311A10.859,10.859,0,0,0,124.292,55.529Zm-17.363,46.5a2.173,2.173,0,0,1-2.17-2.17V64.845a4.781,4.781,0,0,1,4.341-4.755V99.86A2.173,2.173,0,0,1,106.929,102.031ZM67.572,133.544a6.557,6.557,0,0,0-4.341,0V113.638h4.341Zm-4.341,6.139a2.17,2.17,0,0,1,4.341,0v2.749H63.232Zm0-30.386V90.921h21.7V109.3Zm17.363-67.86V43.9a6.511,6.511,0,0,1-13.022,0v-2.46H80.595ZM63.232,59.089h4.381a6.516,6.516,0,0,0,12.942,0h4.381V86.581h-21.7V59.089Zm13.022-.723a2.17,2.17,0,0,1-4.341,0V54.529a10.886,10.886,0,0,0,4.341,0Zm4.341-3.617V52.574a10.9,10.9,0,0,0,3.473-4.437v6.611H80.595ZM64.1,48.138a10.885,10.885,0,0,0,3.473,4.437v2.174H64.1Zm16.495,91.545a2.17,2.17,0,0,1,4.341,0v2.749H80.595Zm2.17-6.511a6.483,6.483,0,0,0-2.17.372V113.638h4.341v19.906A6.477,6.477,0,0,0,82.765,133.171Zm8.682-32.122a2.173,2.173,0,0,1-2.17-2.17V76.452h4.341V98.879A2.173,2.173,0,0,1,91.447,101.05Zm2.17-37.186v8.247H89.276v-13A4.781,4.781,0,0,1,93.617,63.864Zm-20.4-34.581H74.95A9.131,9.131,0,0,1,83.974,37.1H64.193A9.131,9.131,0,0,1,73.217,29.283ZM58.891,59.109v13H54.55V63.864A4.781,4.781,0,0,1,58.891,59.109Zm-2.17,41.941a2.173,2.173,0,0,1-2.17-2.17V76.452h4.341V98.879A2.173,2.173,0,0,1,56.721,101.05Zm15.193,12.587h4.341v29.776H71.913Zm-28.5-48.792V99.86a2.17,2.17,0,0,1-4.341,0V60.089A4.781,4.781,0,0,1,43.409,64.845ZM27.19,50.28c-.04.021-.079.044-.117.068a6.558,6.558,0,0,1-6.395,0c-.038-.024-.078-.047-.117-.068a6.514,6.514,0,0,1-3.2-5.6V42.707H30.387v1.971a6.515,6.515,0,0,1-3.2,5.6ZM8.683,31.844a6.508,6.508,0,0,1,6.5-6.5H32.568c8.615.353,8.631,12.667,0,13.022H15.183a6.512,6.512,0,0,1-6.5-6.522ZM23.875,55.529a10.859,10.859,0,0,0,2.17-.218v4.035a2.17,2.17,0,0,1-4.341,0V55.311A10.859,10.859,0,0,0,23.875,55.529Zm-17.363,46.5a2.173,2.173,0,0,1-2.17-2.17V64.845a4.781,4.781,0,0,1,4.341-4.755V99.86A2.173,2.173,0,0,1,6.512,102.031Zm6.511-14.469V60.07H17.4a6.516,6.516,0,0,0,12.942,0h4.381V87.562Zm8.682,15.193a2.176,2.176,0,0,1,3.706-1.53,2.145,2.145,0,0,1,.635,1.53v40.658H21.705Zm-8.682,40.658v-2.749a2.17,2.17,0,0,1,4.341,0v2.749Zm17.363,0v-2.749a2.17,2.17,0,0,1,4.341,0v2.749Zm83.053,0v-2.749a2.17,2.17,0,0,1,4.341,0v2.749Zm17.363,0v-2.749a2.17,2.17,0,0,1,4.341,0v2.749Z" transform="translate(0 -21.003)"/>
    </g>
  </g>
</svg>
