<svg id="XMLID_2603_" xmlns="http://www.w3.org/2000/svg" width="159.417" height="159.417" viewBox="0 0 159.417 159.417">
  <g id="XMLID_1212_" transform="translate(63.885 45.748)">
    <path id="XMLID_1221_" d="M233.423,293.984v3.9l-16.256,3.566a15.256,15.256,0,0,0-11.987,14.9v29.928H278.66V316.36a15.256,15.256,0,0,0-12-14.9l-16.34-3.573v-3.927" transform="translate(-205.179 -248.178)" fill="#ff7758"/>
    <path id="XMLID_2604_" d="M312.79,306.568l-8.45,22.6-8.45-22.6Z" transform="translate(-267.645 -256.863)" fill="#fff"/>
    <path id="XMLID_1217_" d="M283.591,146.929h0a17.9,17.9,0,0,0-17.9,17.9v4.309h8.751a19.667,19.667,0,0,0,15.073-7.035h0l11.974,7.035v-4.309A17.9,17.9,0,0,0,283.591,146.929Z" transform="translate(-246.851 -146.929)" fill="#afabb0"/>
    <path id="XMLID_1216_" d="M285.662,199.178a19.662,19.662,0,0,1-11.217,3.517h-8.751v7.6a17.9,17.9,0,0,0,17.9,17.9h0a17.9,17.9,0,0,0,17.9-17.9v-7.6l-5.987-3.517-5.987-3.517Z" transform="translate(-246.851 -180.488)" fill="#fed2a4"/>
  </g>
  <path id="XMLID_2502_" d="M0,0H153.185V12.369H0Z" transform="translate(3.377 143.671)" fill="#db993e"/>
  <path id="XMLID_2195_" d="M25.7,0A25.7,25.7,0,1,1,0,25.7,25.7,25.7,0,0,1,25.7,0Z" transform="translate(3.114 3.114)" fill="#ffe9cb"/>
  <rect id="XMLID_2533_" width="66.602" height="50.427" transform="translate(3.377 70.408)" fill="#c7c4c8"/>
  <path id="XMLID_1029_" d="M110.454,344.052H98V313.227A6.227,6.227,0,0,1,104.227,307h0a6.227,6.227,0,0,1,6.227,6.227Z" transform="translate(-67.487 -211.412)" fill="#afafaf"/>
  <path id="XMLID_1028_" d="M98.382,437.209H66v-4.67A6.539,6.539,0,0,1,72.539,426h19.3a6.539,6.539,0,0,1,6.539,6.539Z" transform="translate(-45.45 -293.36)" fill="#afafaf"/>
  <rect id="XMLID_1222_" width="39.961" height="12.369" transform="translate(116.601 131.302)" fill="#fff"/>
  <rect id="XMLID_1227_" width="39.961" height="12.369" transform="translate(116.601 118.933)" fill="#e8e7e9"/>
  <rect id="XMLID_1229_" width="39.961" height="12.369" transform="translate(116.601 106.564)" fill="#fff"/>
  <g id="XMLID_636_">
    <path id="XMLID_1699_" d="M28.815,57.63A28.815,28.815,0,1,0,0,28.815,28.848,28.848,0,0,0,28.815,57.63Zm0-51.4A22.588,22.588,0,1,1,6.227,28.815,22.613,22.613,0,0,1,28.815,6.227Z"/>
    <path id="XMLID_1701_" d="M88.183,59.073a3.114,3.114,0,1,0,4.4-4.411L88.84,50.936V37.114a3.114,3.114,0,1,0-6.227,0V52.229a3.115,3.115,0,0,0,.915,2.205Z" transform="translate(-56.891 -23.414)"/>
    <path id="XMLID_1706_" d="M156.3,197.667H137.14a18.388,18.388,0,0,0-11.107-7.388l-13.689-2.993a21.008,21.008,0,0,0,9.293-17.433V157.942a21.013,21.013,0,0,0-42.025,0v11.911a21.009,21.009,0,0,0,9.272,17.418l-13.68,3c-.584.128-1.159.286-1.723.468V164.974a3.114,3.114,0,0,0-3.114-3.114H49.2a3.114,3.114,0,1,0,0,6.227H67.254v43.591H46.081V196.11a9.341,9.341,0,0,0-18.682,0v15.568H6.227V168.087H24.286a3.114,3.114,0,1,0,0-6.227H3.114A3.114,3.114,0,0,0,0,164.974v49.818a3.114,3.114,0,0,0,3.114,3.114H27.4v5.916h-.311a9.663,9.663,0,0,0-9.652,9.652v1.557H3.114A3.114,3.114,0,0,0,0,238.143V250.6a3.114,3.114,0,0,0,3.114,3.114H156.3a3.114,3.114,0,0,0,3.114-3.114V200.78A3.114,3.114,0,0,0,156.3,197.667ZM137.366,235.03h-17.8V228.8H153.19v6.227Zm15.824-12.454H119.563v-6.227H153.19Zm0-12.454H119.563v-6.227H135.4l.028,0,.029,0h17.73ZM85.84,157.942a14.786,14.786,0,0,1,29.526-1.158l-7.238-4.252a3.113,3.113,0,0,0-3.964.685,16.512,16.512,0,0,1-12.686,5.921H85.84v-1.2Zm0,7.423h5.638a22.716,22.716,0,0,0,15.632-6.209l8.3,4.877v5.821a14.785,14.785,0,0,1-29.571,0v-4.489ZM105.5,190.288l-4.924,13.169-4.933-13.192a20.9,20.9,0,0,0,9.857.024ZM70.368,217.905a3.114,3.114,0,0,0,3.114-3.114V197.473a12.11,12.11,0,0,1,3.058-1.117l13.619-2.988,7.5,20.069a3.113,3.113,0,0,0,5.832,0L111,193.366l13.7,3a12.121,12.121,0,0,1,3.394,1.3H116.449a3.114,3.114,0,0,0-3.114,3.114v34.25H67V217.9h3.369Zm-9.6,0V235.03H56.045v-1.557a9.663,9.663,0,0,0-9.652-9.652h-.311v-5.916Zm-27.144-21.8a3.114,3.114,0,1,1,6.227,0v27.711H33.627Zm-9.964,37.363a3.429,3.429,0,0,1,3.425-3.425h19.3a3.429,3.429,0,0,1,3.425,3.425v1.557H23.663ZM153.19,247.484H6.227v-6.227H153.19Z" transform="translate(0 -94.295)"/>
    <path id="XMLID_1768_" d="M108.912,217.912a3.112,3.112,0,1,0,2.2-.912A3.137,3.137,0,0,0,108.912,217.912Z" transform="translate(-74.373 -149.435)"/>
  </g>
</svg>
