<svg xmlns="http://www.w3.org/2000/svg" width="1073" height="462.974" viewBox="0 0 1073 462.974">
  <g id="Grupo_83647" data-name="Grupo 83647" transform="translate(-263.5 -4855.22)">
    <g id="Trazado_145192" data-name="Trazado 145192" transform="translate(390 5015.4)" fill="none">
      <path d="M414.5,0C643.422,0,829,63.352,829,141.5S643.422,283,414.5,283,0,219.648,0,141.5,185.578,0,414.5,0Z" stroke="none"/>
      <path d="M 414.5 3 C 386.4461059570312 3 358.410888671875 3.96478271484375 331.1728820800781 5.867431640625 C 304.6327514648438 7.721435546875 278.5289916992188 10.487548828125 253.586669921875 14.0889892578125 C 229.10791015625 17.62344360351562 205.5015258789062 21.99734497070312 183.42333984375 27.08921813964844 C 161.5740966796875 32.12821960449219 141.0339965820312 37.91322326660156 122.3734741210938 44.28355407714844 C 103.74755859375 50.64189147949219 86.8475341796875 57.63333129882812 72.14312744140625 65.06355285644531 C 57.36102294921875 72.53300476074219 44.6817626953125 80.50433349609375 34.4576416015625 88.75633239746094 C 24.1524658203125 97.07356262207031 16.25836181640625 105.7435607910156 10.99432373046875 114.5252227783203 C 8.3548583984375 118.9283294677734 6.34332275390625 123.4242248535156 5.01544189453125 127.8878936767578 C 3.6781005859375 132.3833312988281 3 136.9632263183594 3 141.5 C 3 146.0367736816406 3.6781005859375 150.6166687011719 5.01544189453125 155.1121215820312 C 6.34332275390625 159.5757751464844 8.3548583984375 164.0716552734375 10.99432373046875 168.4747772216797 C 16.25836181640625 177.2564392089844 24.1524658203125 185.9264526367188 34.4576416015625 194.2436676025391 C 44.6817626953125 202.4956665039062 57.36102294921875 210.4670104980469 72.14312744140625 217.9364471435547 C 86.8475341796875 225.3666687011719 103.74755859375 232.3581085205078 122.3734741210938 238.7164459228516 C 141.0339965820312 245.0867767333984 161.5740966796875 250.8717803955078 183.42333984375 255.9107818603516 C 205.5015258789062 261.0026550292969 229.10791015625 265.3765563964844 253.586669921875 268.9110107421875 C 278.5289916992188 272.512451171875 304.6327514648438 275.278564453125 331.1728820800781 277.132568359375 C 358.410888671875 279.0352172851562 386.4461059570312 280 414.5 280 C 442.5538940429688 280 470.589111328125 279.0352172851562 497.8271179199219 277.132568359375 C 524.3671875 275.278564453125 550.4710083007812 272.512451171875 575.413330078125 268.9110107421875 C 599.89208984375 265.3765563964844 623.4984130859375 261.0026550292969 645.57666015625 255.9107818603516 C 667.4259033203125 250.8717803955078 687.9660034179688 245.0867767333984 706.6265869140625 238.7164459228516 C 725.25244140625 232.3581085205078 742.1524658203125 225.3666687011719 756.8568725585938 217.9364471435547 C 771.6389770507812 210.4670104980469 784.3182373046875 202.4956665039062 794.5423583984375 194.2436676025391 C 804.8475341796875 185.9264526367188 812.7416381835938 177.2564392089844 818.0056762695312 168.4747772216797 C 820.6451416015625 164.0716552734375 822.6566772460938 159.5757751464844 823.9845581054688 155.1121215820312 C 825.3218994140625 150.6166687011719 826 146.0367736816406 826 141.5 C 826 136.9632263183594 825.3218994140625 132.3833312988281 823.9845581054688 127.8878936767578 C 822.6566772460938 123.4242248535156 820.6451416015625 118.9283294677734 818.0056762695312 114.5252227783203 C 812.7416381835938 105.7435607910156 804.8475341796875 97.07356262207031 794.5423583984375 88.75633239746094 C 784.3182373046875 80.50433349609375 771.6389770507812 72.53300476074219 756.8568725585938 65.06355285644531 C 742.1524658203125 57.63333129882812 725.25244140625 50.64189147949219 706.6265869140625 44.28355407714844 C 687.9660034179688 37.91322326660156 667.4259033203125 32.12821960449219 645.57666015625 27.08921813964844 C 623.4984130859375 21.99734497070312 599.89208984375 17.62344360351562 575.413330078125 14.0889892578125 C 550.4710083007812 10.487548828125 524.3671875 7.721435546875 497.8271179199219 5.867431640625 C 470.589111328125 3.96478271484375 442.5538940429688 3 414.5 3 M 414.5 0 C 643.4219970703125 0 829 63.35166931152344 829 141.5 C 829 219.6483306884766 643.4219970703125 283 414.5 283 C 185.5780029296875 283 0 219.6483306884766 0 141.5 C 0 63.35166931152344 185.5780029296875 0 414.5 0 Z" stroke="none" fill="#675d84"/>
    </g>
    <path id="Trazado_144439" data-name="Trazado 144439" d="M2177.712-1909.037h-66.38c-12.875,0-22.839-10.438-22.839-23.314h-.475a23.314,23.314,0,0,1,23.314-23.313h143.847a23.313,23.313,0,0,1,23.314,23.313h0a23.313,23.313,0,0,1-23.314,23.314h-65.9" transform="translate(-1383.493 6818.482)" fill="none" stroke="#ffba5b" stroke-miterlimit="10" stroke-width="3"/>
    <path id="Trazado_144482" data-name="Trazado 144482" d="M2177.712-1909.037h-66.38a23.314,23.314,0,0,1-23.313-23.314h0a23.314,23.314,0,0,1,23.314-23.313h143.847a23.313,23.313,0,0,1,23.314,23.313h0a23.313,23.313,0,0,1-23.314,23.314h-65.9" transform="translate(2983.019 3088.691) rotate(180)" fill="#fff" stroke="#ffba5b" stroke-miterlimit="10" stroke-width="3"/>
    <path id="Trazado_144497" data-name="Trazado 144497" d="M2177.712-1909.037h-150.38c-12.875,0-22.314-10.438-22.314-23.314h0c0-12.875,9.438-23.313,22.314-23.313h304.99c12.877,0,23.7,10.438,23.7,23.313h0c0,12.876-10.82,23.314-23.7,23.314H2189.275" transform="translate(2983.019 3224.861) rotate(180)" fill="none" stroke="#ffba5b" stroke-miterlimit="10" stroke-width="3"/>
    <path id="Trazado_144499" data-name="Trazado 144499" d="M2082.655-1909.037h-95.848a23.314,23.314,0,0,1-23.314-23.314h0a23.314,23.314,0,0,1,23.314-23.313H2235.5a23.313,23.313,0,0,1,23.314,23.313h0a23.313,23.313,0,0,1-23.314,23.314H2094.218" transform="translate(3298.493 3224.861) rotate(180)" fill="#fff" stroke="#ffba5b" stroke-miterlimit="10" stroke-width="3"/>
    <path id="Trazado_144500" data-name="Trazado 144500" d="M2177.479-1909.037H2042.288a23.314,23.314,0,0,1-23.314-23.314h0a23.314,23.314,0,0,1,23.314-23.313H2294.7a23.313,23.313,0,0,1,23.314,23.313h0a23.313,23.313,0,0,1-23.314,23.314H2189.041" transform="translate(2583.019 3224.861) rotate(180)" fill="#fff" stroke="#ffba5b" stroke-miterlimit="10" stroke-width="3"/>
    <path id="Trazado_144498" data-name="Trazado 144498" d="M2177.712-1909.037h-66.38c-12.875,0-22.839-10.438-22.839-23.314h-.475a23.314,23.314,0,0,1,23.314-23.313h143.847a23.313,23.313,0,0,1,23.314,23.313h0a23.313,23.313,0,0,1-23.314,23.314h-65.9" transform="translate(2983.019 3361.029) rotate(180)" fill="#fff" stroke="#ffba5b" stroke-miterlimit="10" stroke-width="3"/>
    <path id="Trazado_145219" data-name="Trazado 145219" d="M0,0V76.72" transform="translate(800 4915.227)" fill="none" stroke="#463c5f" stroke-linecap="round" stroke-width="3"/>
    <path id="Trazado_145209" data-name="Trazado 145209" d="M0,0V76.72" transform="translate(800 5050.143)" fill="none" stroke="#463c5f" stroke-linecap="round" stroke-width="3"/>
    <path id="Trazado_145198" data-name="Trazado 145198" d="M48.5,0H0" transform="translate(985 5156.9)" fill="none" stroke="#463c5f" stroke-linecap="round" stroke-width="3"/>
    <path id="Trazado_145199" data-name="Trazado 145199" d="M48.5,0H0" transform="translate(572.072 5156.9)" fill="none" stroke="#463c5f" stroke-linecap="round" stroke-width="3"/>
    <path id="Trazado_145193" data-name="Trazado 145193" d="M0,0V76.72" transform="translate(800 5186.311)" fill="none" stroke="#463c5f" stroke-linecap="round" stroke-width="3"/>
    <path id="Trazado_145221" data-name="Trazado 145221" d="M8.842-5.563H3.779v3.445H9.721V0H1.143V-12.8H9.7v2.136H3.779v3.05H8.842ZM13.781,0H11.232V-13.5h2.549ZM28.916-4.667a5.7,5.7,0,0,1-1,3.52A3.2,3.2,0,0,1,25.225.176a2.963,2.963,0,0,1-2.329-1V3.656h-2.54V-9.51h2.355l.088.932a2.985,2.985,0,0,1,2.408-1.107,3.22,3.22,0,0,1,2.733,1.3A5.858,5.858,0,0,1,28.916-4.8Zm-2.54-.194a3.763,3.763,0,0,0-.47-2.054,1.53,1.53,0,0,0-1.367-.723,1.662,1.662,0,0,0-1.644.917v3.906a1.691,1.691,0,0,0,1.661.943Q26.376-1.872,26.376-4.861ZM36.185-.967a3.185,3.185,0,0,1-2.6,1.143A3,3,0,0,1,31.25-.7a3.752,3.752,0,0,1-.822-2.575V-9.51h2.54v6.151q0,1.487,1.354,1.487a1.834,1.834,0,0,0,1.775-.9V-9.51h2.549V0H36.255ZM35.051-13.5h2.769l-2.435,2.725H33.319Zm14.08,8.833A5.758,5.758,0,0,1,48.155-1.1,3.231,3.231,0,0,1,45.431.176a2.969,2.969,0,0,1-2.47-1.187L42.847,0H40.562V-13.5H43.1v4.843a2.893,2.893,0,0,1,2.312-1.028,3.258,3.258,0,0,1,2.729,1.279,5.767,5.767,0,0,1,.989,3.6Zm-2.54-.194a3.8,3.8,0,0,0-.457-2.111,1.544,1.544,0,0,0-1.362-.666,1.675,1.675,0,0,0-1.67,1v3.764a1.7,1.7,0,0,0,1.688,1,1.569,1.569,0,0,0,1.617-1.217A6.294,6.294,0,0,0,46.591-4.861ZM53.376,0H50.827V-13.5h2.549Zm4.772,0H55.6V-9.51h2.549Zm-2.7-11.971a1.251,1.251,0,0,1,.382-.94,1.436,1.436,0,0,1,1.042-.369,1.44,1.44,0,0,1,1.037.369,1.244,1.244,0,0,1,.387.94,1.247,1.247,0,0,1-.391.949,1.443,1.443,0,0,1-1.033.369,1.443,1.443,0,0,1-1.033-.369A1.247,1.247,0,0,1,55.45-11.971ZM64.2-1.872a1.666,1.666,0,0,0,1.143-.387,1.355,1.355,0,0,0,.457-1.028h2.382a3.258,3.258,0,0,1-.527,1.771A3.48,3.48,0,0,1,66.23-.268a4.442,4.442,0,0,1-1.991.444,4.129,4.129,0,0,1-3.217-1.3A5.13,5.13,0,0,1,59.845-4.7v-.167a5.071,5.071,0,0,1,1.169-3.507,4.08,4.08,0,0,1,3.208-1.31A4,4,0,0,1,67.083-8.67a3.594,3.594,0,0,1,1.094,2.7H65.795a1.745,1.745,0,0,0-.457-1.206,1.524,1.524,0,0,0-1.16-.464,1.53,1.53,0,0,0-1.34.647,3.749,3.749,0,0,0-.453,2.1v.264a3.8,3.8,0,0,0,.448,2.113A1.549,1.549,0,0,0,64.2-1.872Zm5.036-2.971a5.64,5.64,0,0,1,.545-2.522,3.989,3.989,0,0,1,1.569-1.714,4.577,4.577,0,0,1,2.377-.606,4.33,4.33,0,0,1,3.142,1.178,4.727,4.727,0,0,1,1.358,3.2l.018.65a4.97,4.97,0,0,1-1.222,3.511A4.247,4.247,0,0,1,73.74.176a4.268,4.268,0,0,1-3.283-1.318,5.058,5.058,0,0,1-1.226-3.586Zm2.54.18a3.555,3.555,0,0,0,.51,2.073,1.682,1.682,0,0,0,1.459.717,1.686,1.686,0,0,0,1.441-.709A3.89,3.89,0,0,0,75.7-4.847a3.519,3.519,0,0,0-.519-2.06,1.686,1.686,0,0,0-1.459-.731,1.658,1.658,0,0,0-1.441.726A3.955,3.955,0,0,0,71.771-4.662Z" transform="translate(790 4892.631)" fill="#12263f"/>
    <path id="Trazado_145215" data-name="Trazado 145215" d="M8.842-5.563H3.779v3.445H9.721V0H1.143V-12.8H9.7v2.136H3.779v3.05H8.842ZM13.781,0H11.232V-13.5h2.549Zm6.205-4.825A5.573,5.573,0,0,1,21.028-8.35a3.375,3.375,0,0,1,2.808-1.336,2.96,2.96,0,0,1,2.435,1.072l.105-.9h2.3V-.316a4.064,4.064,0,0,1-.567,2.171,3.641,3.641,0,0,1-1.6,1.406,5.608,5.608,0,0,1-2.408.483,5.215,5.215,0,0,1-2.039-.417,3.619,3.619,0,0,1-1.5-1.077L21.691.7a2.975,2.975,0,0,0,2.3,1.063,2.178,2.178,0,0,0,1.573-.541A2.027,2.027,0,0,0,26.13-.308v-.51a2.938,2.938,0,0,1-2.312.993,3.366,3.366,0,0,1-2.773-1.34A5.572,5.572,0,0,1,19.986-4.72Zm2.54.181a3.489,3.489,0,0,0,.519,2.035,1.648,1.648,0,0,0,1.424.737,1.762,1.762,0,0,0,1.661-.874V-6.764a1.758,1.758,0,0,0-1.644-.874,1.659,1.659,0,0,0-1.437.751A3.933,3.933,0,0,0,22.526-4.644Zm7.708-.2a5.64,5.64,0,0,1,.545-2.522,3.989,3.989,0,0,1,1.569-1.714,4.577,4.577,0,0,1,2.377-.606,4.33,4.33,0,0,1,3.142,1.178,4.727,4.727,0,0,1,1.358,3.2l.018.65a4.97,4.97,0,0,1-1.222,3.511A4.247,4.247,0,0,1,34.743.176,4.268,4.268,0,0,1,31.46-1.143a5.058,5.058,0,0,1-1.226-3.586Zm2.54.18a3.555,3.555,0,0,0,.51,2.073,1.682,1.682,0,0,0,1.459.717,1.686,1.686,0,0,0,1.441-.709A3.89,3.89,0,0,0,36.7-4.847a3.519,3.519,0,0,0-.519-2.06,1.686,1.686,0,0,0-1.459-.731,1.658,1.658,0,0,0-1.441.726A3.955,3.955,0,0,0,32.774-4.662Zm16.6,0A5.758,5.758,0,0,1,48.4-1.1,3.231,3.231,0,0,1,45.677.176a2.969,2.969,0,0,1-2.47-1.187L43.093,0H40.808V-13.5h2.54v4.843a2.893,2.893,0,0,1,2.312-1.028,3.258,3.258,0,0,1,2.729,1.279,5.767,5.767,0,0,1,.989,3.6Zm-2.54-.194a3.8,3.8,0,0,0-.457-2.111,1.544,1.544,0,0,0-1.362-.666,1.675,1.675,0,0,0-1.67,1v3.764a1.7,1.7,0,0,0,1.688,1,1.569,1.569,0,0,0,1.617-1.217A6.294,6.294,0,0,0,46.837-4.861ZM53.622,0H51.073V-9.51h2.549Zm-2.7-11.971a1.251,1.251,0,0,1,.382-.94,1.436,1.436,0,0,1,1.042-.369,1.44,1.44,0,0,1,1.037.369,1.244,1.244,0,0,1,.387.94,1.247,1.247,0,0,1-.391.949,1.443,1.443,0,0,1-1.033.369,1.443,1.443,0,0,1-1.033-.369A1.247,1.247,0,0,1,50.924-11.971ZM60.091.176a4.668,4.668,0,0,1-3.406-1.283,4.561,4.561,0,0,1-1.314-3.419v-.246a5.745,5.745,0,0,1,.554-2.562,4.064,4.064,0,0,1,1.569-1.74,4.4,4.4,0,0,1,2.316-.611,3.947,3.947,0,0,1,3.072,1.23A5,5,0,0,1,64-4.966v1.037H57.946a2.36,2.36,0,0,0,.743,1.494,2.245,2.245,0,0,0,1.569.563,2.742,2.742,0,0,0,2.294-1.063l1.248,1.4A3.813,3.813,0,0,1,62.253-.277,5.075,5.075,0,0,1,60.091.176ZM59.8-7.638a1.587,1.587,0,0,0-1.226.512,2.651,2.651,0,0,0-.6,1.466h3.533v-.2a1.891,1.891,0,0,0-.457-1.311A1.638,1.638,0,0,0,59.8-7.638Zm10.986.51a6.9,6.9,0,0,0-.914-.07,1.86,1.86,0,0,0-1.89.976V0h-2.54V-9.51h2.4l.07,1.134a2.354,2.354,0,0,1,2.118-1.31,2.662,2.662,0,0,1,.791.114Zm3.56-2.382.079,1.1a3.32,3.32,0,0,1,2.733-1.274,2.759,2.759,0,0,1,2.25.888,4.142,4.142,0,0,1,.756,2.654V0h-2.54V-6.1a1.654,1.654,0,0,0-.352-1.176A1.572,1.572,0,0,0,76.1-7.638a1.747,1.747,0,0,0-1.608.916V0h-2.54V-9.51Zm7.348,4.667a5.64,5.64,0,0,1,.545-2.522,3.989,3.989,0,0,1,1.569-1.714,4.577,4.577,0,0,1,2.377-.606,4.33,4.33,0,0,1,3.142,1.178,4.727,4.727,0,0,1,1.358,3.2l.018.65a4.97,4.97,0,0,1-1.222,3.511A4.247,4.247,0,0,1,86.2.176,4.268,4.268,0,0,1,82.92-1.143a5.058,5.058,0,0,1-1.226-3.586Zm2.54.18a3.555,3.555,0,0,0,.51,2.073,1.682,1.682,0,0,0,1.459.717,1.686,1.686,0,0,0,1.441-.709,3.89,3.89,0,0,0,.519-2.267,3.519,3.519,0,0,0-.519-2.06,1.686,1.686,0,0,0-1.459-.731,1.658,1.658,0,0,0-1.441.726A3.955,3.955,0,0,0,84.234-4.662Z" transform="translate(784 5027.545)" fill="#12263f"/>
    <path id="Trazado_145200" data-name="Trazado 145200" d="M8.842-5.563H3.779v3.445H9.721V0H1.143V-12.8H9.7v2.136H3.779v3.05H8.842ZM13.781,0H11.232V-13.5h2.549ZM23.4-11.848V-9.51h1.626v1.863H23.4V-2.9a1.133,1.133,0,0,0,.2.756,1.015,1.015,0,0,0,.773.229,4.051,4.051,0,0,0,.747-.062V-.053a5.229,5.229,0,0,1-1.538.229,2.425,2.425,0,0,1-2.725-2.7V-7.646H19.468V-9.51h1.389v-2.338Zm8.385,4.72a6.9,6.9,0,0,0-.914-.07,1.86,1.86,0,0,0-1.89.976V0h-2.54V-9.51h2.4l.07,1.134a2.354,2.354,0,0,1,2.118-1.31,2.662,2.662,0,0,1,.791.114ZM38.25,0A2.821,2.821,0,0,1,38-.853,3.073,3.073,0,0,1,35.6.176,3.376,3.376,0,0,1,33.28-.633a2.6,2.6,0,0,1-.918-2.039,2.687,2.687,0,0,1,1.121-2.32,5.529,5.529,0,0,1,3.239-.817H37.89v-.545a1.567,1.567,0,0,0-.338-1.055,1.331,1.331,0,0,0-1.068-.4,1.513,1.513,0,0,0-1.006.308,1.045,1.045,0,0,0-.365.844h-2.54a2.551,2.551,0,0,1,.51-1.529,3.37,3.37,0,0,1,1.441-1.1,5.253,5.253,0,0,1,2.092-.4,4.15,4.15,0,0,1,2.791.883,3.09,3.09,0,0,1,1.033,2.483V-2.2a4.546,4.546,0,0,0,.378,2.048V0Zm-2.1-1.767a2.188,2.188,0,0,0,1.037-.25,1.645,1.645,0,0,0,.7-.672V-4.324H36.94q-1.907,0-2.03,1.318l-.009.149a1.017,1.017,0,0,0,.334.782A1.3,1.3,0,0,0,36.149-1.767ZM44.728-9.51l.079,1.1A3.32,3.32,0,0,1,47.54-9.686a2.759,2.759,0,0,1,2.25.888,4.142,4.142,0,0,1,.756,2.654V0h-2.54V-6.1a1.654,1.654,0,0,0-.352-1.176,1.572,1.572,0,0,0-1.169-.366,1.747,1.747,0,0,0-1.608.916V0h-2.54V-9.51ZM57.621-2.628a.818.818,0,0,0-.461-.734,5.241,5.241,0,0,0-1.481-.479q-3.393-.712-3.393-2.883a2.613,2.613,0,0,1,1.05-2.114,4.237,4.237,0,0,1,2.747-.848,4.56,4.56,0,0,1,2.9.853,2.687,2.687,0,0,1,1.085,2.215h-2.54a1.229,1.229,0,0,0-.352-.9,1.488,1.488,0,0,0-1.1-.356,1.52,1.52,0,0,0-.993.29.916.916,0,0,0-.352.738.783.783,0,0,0,.4.681,4.114,4.114,0,0,0,1.349.448,11.019,11.019,0,0,1,1.6.426,2.628,2.628,0,0,1,2.013,2.558,2.481,2.481,0,0,1-1.116,2.1,4.815,4.815,0,0,1-2.883.8A5.029,5.029,0,0,1,53.969-.25a3.561,3.561,0,0,1-1.455-1.169,2.716,2.716,0,0,1-.527-1.6H54.4a1.326,1.326,0,0,0,.5,1.037,1.987,1.987,0,0,0,1.248.36,1.839,1.839,0,0,0,1.1-.277A.861.861,0,0,0,57.621-2.628ZM70.286-4.667a5.7,5.7,0,0,1-1,3.52A3.2,3.2,0,0,1,66.595.176a2.963,2.963,0,0,1-2.329-1V3.656h-2.54V-9.51h2.355l.088.932a2.985,2.985,0,0,1,2.408-1.107,3.22,3.22,0,0,1,2.733,1.3A5.858,5.858,0,0,1,70.286-4.8Zm-2.54-.194a3.763,3.763,0,0,0-.47-2.054,1.53,1.53,0,0,0-1.367-.723,1.662,1.662,0,0,0-1.644.917v3.906a1.691,1.691,0,0,0,1.661.943Q67.746-1.872,67.746-4.861Zm3.718.018a5.64,5.64,0,0,1,.545-2.522,3.989,3.989,0,0,1,1.569-1.714,4.577,4.577,0,0,1,2.377-.606A4.33,4.33,0,0,1,79.1-8.508a4.727,4.727,0,0,1,1.358,3.2l.018.65a4.97,4.97,0,0,1-1.222,3.511A4.247,4.247,0,0,1,75.973.176,4.268,4.268,0,0,1,72.69-1.143a5.058,5.058,0,0,1-1.226-3.586Zm2.54.18a3.555,3.555,0,0,0,.51,2.073,1.682,1.682,0,0,0,1.459.717,1.686,1.686,0,0,0,1.441-.709,3.89,3.89,0,0,0,.519-2.267,3.519,3.519,0,0,0-.519-2.06,1.686,1.686,0,0,0-1.459-.731,1.658,1.658,0,0,0-1.441.726A3.955,3.955,0,0,0,74-4.662ZM87.381-7.128a6.9,6.9,0,0,0-.914-.07,1.86,1.86,0,0,0-1.89.976V0h-2.54V-9.51h2.4l.07,1.134a2.354,2.354,0,0,1,2.118-1.31,2.662,2.662,0,0,1,.791.114Zm4.7-4.72V-9.51h1.626v1.863H92.083V-2.9a1.133,1.133,0,0,0,.2.756,1.015,1.015,0,0,0,.773.229,4.051,4.051,0,0,0,.747-.062V-.053a5.229,5.229,0,0,1-1.538.229,2.425,2.425,0,0,1-2.725-2.7V-7.646H88.154V-9.51h1.389v-2.338ZM97.8,0H95.256V-9.51H97.8Zm-2.7-11.971a1.251,1.251,0,0,1,.382-.94,1.436,1.436,0,0,1,1.042-.369,1.44,1.44,0,0,1,1.037.369,1.244,1.244,0,0,1,.387.94,1.247,1.247,0,0,1-.391.949,1.443,1.443,0,0,1-1.033.369,1.443,1.443,0,0,1-1.033-.369A1.247,1.247,0,0,1,95.106-11.971Zm9.94,9.343a.818.818,0,0,0-.461-.734,5.241,5.241,0,0,0-1.481-.479q-3.393-.712-3.393-2.883a2.613,2.613,0,0,1,1.05-2.114,4.237,4.237,0,0,1,2.747-.848,4.56,4.56,0,0,1,2.9.853,2.687,2.687,0,0,1,1.085,2.215h-2.54a1.229,1.229,0,0,0-.352-.9,1.488,1.488,0,0,0-1.1-.356,1.52,1.52,0,0,0-.993.29.916.916,0,0,0-.352.738.783.783,0,0,0,.4.681,4.114,4.114,0,0,0,1.349.448,11.019,11.019,0,0,1,1.6.426,2.628,2.628,0,0,1,2.013,2.558,2.481,2.481,0,0,1-1.116,2.1,4.815,4.815,0,0,1-2.883.8A5.029,5.029,0,0,1,101.4-.25,3.561,3.561,0,0,1,99.94-1.419a2.716,2.716,0,0,1-.527-1.6h2.408a1.326,1.326,0,0,0,.5,1.037,1.987,1.987,0,0,0,1.248.36,1.839,1.839,0,0,0,1.1-.277A.861.861,0,0,0,105.047-2.628Zm7.146-9.22V-9.51h1.626v1.863h-1.626V-2.9a1.133,1.133,0,0,0,.2.756,1.015,1.015,0,0,0,.773.229,4.051,4.051,0,0,0,.747-.062V-.053a5.229,5.229,0,0,1-1.538.229,2.425,2.425,0,0,1-2.725-2.7V-7.646h-1.389V-9.51h1.389v-2.338ZM120.744,0a2.821,2.821,0,0,1-.255-.853,3.073,3.073,0,0,1-2.4,1.028,3.376,3.376,0,0,1-2.316-.809,2.6,2.6,0,0,1-.918-2.039,2.687,2.687,0,0,1,1.121-2.32,5.529,5.529,0,0,1,3.239-.817h1.169v-.545a1.567,1.567,0,0,0-.338-1.055,1.331,1.331,0,0,0-1.068-.4,1.513,1.513,0,0,0-1.006.308,1.045,1.045,0,0,0-.365.844h-2.54a2.551,2.551,0,0,1,.51-1.529,3.37,3.37,0,0,1,1.441-1.1,5.253,5.253,0,0,1,2.092-.4A4.15,4.15,0,0,1,121.9-8.8a3.09,3.09,0,0,1,1.033,2.483V-2.2a4.546,4.546,0,0,0,.378,2.048V0Zm-2.1-1.767a2.188,2.188,0,0,0,1.037-.25,1.645,1.645,0,0,0,.7-.672V-4.324h-.949q-1.907,0-2.03,1.318l-.009.149a1.017,1.017,0,0,0,.334.782A1.3,1.3,0,0,0,118.644-1.767Zm14.273-1.828,1.758-5.915H137.4L133.576,1.477l-.211.5a2.9,2.9,0,0,1-2.812,1.863,4,4,0,0,1-1.125-.167V1.749l.387.009a2.09,2.09,0,0,0,1.077-.22,1.443,1.443,0,0,0,.558-.729l.3-.782L128.417-9.51h2.733ZM145.564,0h-2.549V-13.5h2.549Zm1.7-4.843a5.64,5.64,0,0,1,.545-2.522,3.989,3.989,0,0,1,1.569-1.714,4.577,4.577,0,0,1,2.377-.606,4.33,4.33,0,0,1,3.142,1.178,4.727,4.727,0,0,1,1.358,3.2l.018.65a4.97,4.97,0,0,1-1.222,3.511A4.247,4.247,0,0,1,151.77.176a4.268,4.268,0,0,1-3.283-1.318,5.058,5.058,0,0,1-1.226-3.586Zm2.54.18a3.555,3.555,0,0,0,.51,2.073,1.682,1.682,0,0,0,1.459.717,1.686,1.686,0,0,0,1.441-.709,3.89,3.89,0,0,0,.519-2.267,3.519,3.519,0,0,0-.519-2.06,1.686,1.686,0,0,0-1.459-.731,1.658,1.658,0,0,0-1.441.726A3.955,3.955,0,0,0,149.8-4.662Zm13.184,2.035a.818.818,0,0,0-.461-.734,5.241,5.241,0,0,0-1.481-.479q-3.393-.712-3.393-2.883a2.613,2.613,0,0,1,1.05-2.114,4.237,4.237,0,0,1,2.747-.848,4.56,4.56,0,0,1,2.9.853,2.687,2.687,0,0,1,1.085,2.215h-2.54a1.229,1.229,0,0,0-.352-.9,1.488,1.488,0,0,0-1.1-.356,1.52,1.52,0,0,0-.993.29.916.916,0,0,0-.352.738.783.783,0,0,0,.4.681,4.114,4.114,0,0,0,1.349.448,11.019,11.019,0,0,1,1.6.426,2.628,2.628,0,0,1,2.013,2.558,2.481,2.481,0,0,1-1.116,2.1,4.815,4.815,0,0,1-2.883.8,5.029,5.029,0,0,1-2.123-.426,3.561,3.561,0,0,1-1.455-1.169,2.716,2.716,0,0,1-.527-1.6h2.408a1.326,1.326,0,0,0,.5,1.037,1.987,1.987,0,0,0,1.248.36,1.839,1.839,0,0,0,1.1-.277A.861.861,0,0,0,162.984-2.628ZM177.082,0a2.821,2.821,0,0,1-.255-.853,3.073,3.073,0,0,1-2.4,1.028,3.376,3.376,0,0,1-2.316-.809,2.6,2.6,0,0,1-.918-2.039,2.687,2.687,0,0,1,1.121-2.32,5.529,5.529,0,0,1,3.239-.817h1.169v-.545a1.567,1.567,0,0,0-.338-1.055,1.331,1.331,0,0,0-1.068-.4,1.513,1.513,0,0,0-1.006.308,1.045,1.045,0,0,0-.365.844H171.4a2.551,2.551,0,0,1,.51-1.529,3.37,3.37,0,0,1,1.441-1.1,5.253,5.253,0,0,1,2.092-.4,4.15,4.15,0,0,1,2.791.883,3.09,3.09,0,0,1,1.033,2.483V-2.2a4.546,4.546,0,0,0,.378,2.048V0Zm-2.1-1.767a2.188,2.188,0,0,0,1.037-.25,1.645,1.645,0,0,0,.7-.672V-4.324h-.949q-1.907,0-2.03,1.318l-.009.149a1.017,1.017,0,0,0,.334.782A1.3,1.3,0,0,0,174.981-1.767Zm5.871-3.059a5.573,5.573,0,0,1,1.042-3.524A3.375,3.375,0,0,1,184.7-9.686a2.96,2.96,0,0,1,2.435,1.072l.105-.9h2.3V-.316a4.064,4.064,0,0,1-.567,2.171,3.641,3.641,0,0,1-1.6,1.406,5.608,5.608,0,0,1-2.408.483,5.215,5.215,0,0,1-2.039-.417,3.619,3.619,0,0,1-1.5-1.077L182.558.7a2.975,2.975,0,0,0,2.3,1.063,2.178,2.178,0,0,0,1.573-.541A2.027,2.027,0,0,0,187-.308v-.51a2.938,2.938,0,0,1-2.312.993,3.366,3.366,0,0,1-2.773-1.34,5.572,5.572,0,0,1-1.059-3.555Zm2.54.181a3.489,3.489,0,0,0,.519,2.035,1.648,1.648,0,0,0,1.424.737A1.762,1.762,0,0,0,187-2.746V-6.764a1.758,1.758,0,0,0-1.644-.874,1.659,1.659,0,0,0-1.437.751A3.933,3.933,0,0,0,183.393-4.644Zm12.48,4.82a4.668,4.668,0,0,1-3.406-1.283,4.561,4.561,0,0,1-1.314-3.419v-.246a5.745,5.745,0,0,1,.554-2.562,4.064,4.064,0,0,1,1.569-1.74,4.4,4.4,0,0,1,2.316-.611,3.947,3.947,0,0,1,3.072,1.23,5,5,0,0,1,1.121,3.489v1.037h-6.056a2.36,2.36,0,0,0,.743,1.494,2.245,2.245,0,0,0,1.569.563,2.742,2.742,0,0,0,2.294-1.063l1.248,1.4a3.813,3.813,0,0,1-1.547,1.261A5.075,5.075,0,0,1,195.873.176Zm-.29-7.813a1.587,1.587,0,0,0-1.226.512,2.651,2.651,0,0,0-.6,1.466h3.533v-.2a1.891,1.891,0,0,0-.457-1.311A1.638,1.638,0,0,0,195.583-7.638Zm7.98-1.872.079,1.1a3.32,3.32,0,0,1,2.733-1.274,2.759,2.759,0,0,1,2.25.888,4.142,4.142,0,0,1,.756,2.654V0h-2.54V-6.1a1.654,1.654,0,0,0-.352-1.176,1.572,1.572,0,0,0-1.169-.366,1.747,1.747,0,0,0-1.608.916V0h-2.54V-9.51Zm10.784-2.338V-9.51h1.626v1.863h-1.626V-2.9a1.133,1.133,0,0,0,.2.756,1.015,1.015,0,0,0,.773.229,4.051,4.051,0,0,0,.747-.062V-.053a5.229,5.229,0,0,1-1.538.229,2.425,2.425,0,0,1-2.725-2.7V-7.646h-1.389V-9.51h1.389v-2.338ZM221.766.176a4.668,4.668,0,0,1-3.406-1.283,4.561,4.561,0,0,1-1.314-3.419v-.246a5.745,5.745,0,0,1,.554-2.562,4.064,4.064,0,0,1,1.569-1.74,4.4,4.4,0,0,1,2.316-.611,3.947,3.947,0,0,1,3.072,1.23,5,5,0,0,1,1.121,3.489v1.037h-6.056a2.36,2.36,0,0,0,.743,1.494,2.245,2.245,0,0,0,1.569.563,2.742,2.742,0,0,0,2.294-1.063l1.248,1.4a3.813,3.813,0,0,1-1.547,1.261A5.075,5.075,0,0,1,221.766.176Zm-.29-7.813a1.587,1.587,0,0,0-1.226.512,2.651,2.651,0,0,0-.6,1.466h3.533v-.2a1.891,1.891,0,0,0-.457-1.311A1.638,1.638,0,0,0,221.476-7.638Zm10.793,5.01a.818.818,0,0,0-.461-.734,5.241,5.241,0,0,0-1.481-.479q-3.393-.712-3.393-2.883a2.613,2.613,0,0,1,1.05-2.114,4.237,4.237,0,0,1,2.747-.848,4.56,4.56,0,0,1,2.9.853,2.687,2.687,0,0,1,1.085,2.215h-2.54a1.229,1.229,0,0,0-.352-.9,1.488,1.488,0,0,0-1.1-.356,1.52,1.52,0,0,0-.993.29.916.916,0,0,0-.352.738.783.783,0,0,0,.4.681,4.114,4.114,0,0,0,1.349.448,11.019,11.019,0,0,1,1.6.426,2.628,2.628,0,0,1,2.013,2.558,2.481,2.481,0,0,1-1.116,2.1,4.815,4.815,0,0,1-2.883.8,5.029,5.029,0,0,1-2.123-.426,3.561,3.561,0,0,1-1.455-1.169,2.716,2.716,0,0,1-.527-1.6h2.408a1.326,1.326,0,0,0,.5,1.037,1.987,1.987,0,0,0,1.248.36,1.839,1.839,0,0,0,1.1-.277A.861.861,0,0,0,232.269-2.628Z" transform="translate(731.039 5163.713)" fill="#12263f"/>
    <path id="Trazado_145201" data-name="Trazado 145201" d="M8.842-5.563H3.779v3.445H9.721V0H1.143V-12.8H9.7v2.136H3.779v3.05H8.842ZM13.781,0H11.232V-13.5h2.549ZM24.311-1.872a1.666,1.666,0,0,0,1.143-.387,1.355,1.355,0,0,0,.457-1.028h2.382a3.258,3.258,0,0,1-.527,1.771A3.48,3.48,0,0,1,26.345-.268a4.442,4.442,0,0,1-1.991.444,4.129,4.129,0,0,1-3.217-1.3A5.13,5.13,0,0,1,19.96-4.7v-.167a5.071,5.071,0,0,1,1.169-3.507,4.08,4.08,0,0,1,3.208-1.31A4,4,0,0,1,27.2-8.67a3.594,3.594,0,0,1,1.094,2.7H25.91a1.745,1.745,0,0,0-.457-1.206,1.524,1.524,0,0,0-1.16-.464,1.53,1.53,0,0,0-1.34.647,3.749,3.749,0,0,0-.453,2.1v.264a3.8,3.8,0,0,0,.448,2.113A1.549,1.549,0,0,0,24.311-1.872Zm5.036-2.971a5.64,5.64,0,0,1,.545-2.522A3.989,3.989,0,0,1,31.46-9.079a4.577,4.577,0,0,1,2.377-.606A4.33,4.33,0,0,1,36.98-8.508a4.727,4.727,0,0,1,1.358,3.2l.018.65a4.97,4.97,0,0,1-1.222,3.511A4.247,4.247,0,0,1,33.855.176a4.268,4.268,0,0,1-3.283-1.318,5.058,5.058,0,0,1-1.226-3.586Zm2.54.18a3.555,3.555,0,0,0,.51,2.073,1.682,1.682,0,0,0,1.459.717A1.686,1.686,0,0,0,35.3-2.581a3.89,3.89,0,0,0,.519-2.267,3.519,3.519,0,0,0-.519-2.06,1.686,1.686,0,0,0-1.459-.731,1.658,1.658,0,0,0-1.441.726A3.955,3.955,0,0,0,31.887-4.662ZM42.258-9.51l.079,1.1A3.32,3.32,0,0,1,45.07-9.686a2.759,2.759,0,0,1,2.25.888,4.142,4.142,0,0,1,.756,2.654V0h-2.54V-6.1a1.654,1.654,0,0,0-.352-1.176,1.572,1.572,0,0,0-1.169-.366,1.747,1.747,0,0,0-1.608.916V0h-2.54V-9.51ZM55.151-2.628a.818.818,0,0,0-.461-.734,5.241,5.241,0,0,0-1.481-.479q-3.393-.712-3.393-2.883a2.613,2.613,0,0,1,1.05-2.114,4.237,4.237,0,0,1,2.747-.848,4.56,4.56,0,0,1,2.9.853,2.687,2.687,0,0,1,1.085,2.215h-2.54a1.229,1.229,0,0,0-.352-.9,1.488,1.488,0,0,0-1.1-.356,1.52,1.52,0,0,0-.993.29.916.916,0,0,0-.352.738.783.783,0,0,0,.4.681,4.114,4.114,0,0,0,1.349.448,11.019,11.019,0,0,1,1.6.426,2.628,2.628,0,0,1,2.013,2.558A2.481,2.481,0,0,1,56.5-.628a4.815,4.815,0,0,1-2.883.8A5.029,5.029,0,0,1,51.5-.25a3.561,3.561,0,0,1-1.455-1.169,2.716,2.716,0,0,1-.527-1.6h2.408a1.326,1.326,0,0,0,.5,1.037,1.987,1.987,0,0,0,1.248.36,1.839,1.839,0,0,0,1.1-.277A.861.861,0,0,0,55.151-2.628ZM61.937,0H59.388V-9.51h2.549Zm-2.7-11.971a1.251,1.251,0,0,1,.382-.94,1.436,1.436,0,0,1,1.042-.369,1.44,1.44,0,0,1,1.037.369,1.244,1.244,0,0,1,.387.94,1.247,1.247,0,0,1-.391.949,1.443,1.443,0,0,1-1.033.369,1.443,1.443,0,0,1-1.033-.369A1.247,1.247,0,0,1,59.238-11.971Zm4.421,7.146A5.573,5.573,0,0,1,64.7-8.35a3.375,3.375,0,0,1,2.808-1.336,2.96,2.96,0,0,1,2.435,1.072l.105-.9h2.3V-.316a4.064,4.064,0,0,1-.567,2.171,3.641,3.641,0,0,1-1.6,1.406,5.608,5.608,0,0,1-2.408.483,5.215,5.215,0,0,1-2.039-.417,3.619,3.619,0,0,1-1.5-1.077L65.364.7a2.975,2.975,0,0,0,2.3,1.063,2.178,2.178,0,0,0,1.573-.541A2.027,2.027,0,0,0,69.8-.308v-.51a2.938,2.938,0,0,1-2.312.993,3.366,3.366,0,0,1-2.773-1.34A5.572,5.572,0,0,1,63.659-4.72Zm2.54.181a3.489,3.489,0,0,0,.519,2.035,1.648,1.648,0,0,0,1.424.737A1.762,1.762,0,0,0,69.8-2.746V-6.764a1.758,1.758,0,0,0-1.644-.874,1.659,1.659,0,0,0-1.437.751A3.933,3.933,0,0,0,66.2-4.644ZM76.641-9.51l.079,1.1a3.32,3.32,0,0,1,2.733-1.274A2.759,2.759,0,0,1,81.7-8.8a4.142,4.142,0,0,1,.756,2.654V0h-2.54V-6.1a1.654,1.654,0,0,0-.352-1.176A1.572,1.572,0,0,0,78.4-7.638a1.747,1.747,0,0,0-1.608.916V0H74.25V-9.51ZM89.895,0a2.821,2.821,0,0,1-.255-.853A3.073,3.073,0,0,1,87.24.176a3.376,3.376,0,0,1-2.316-.809,2.6,2.6,0,0,1-.918-2.039,2.687,2.687,0,0,1,1.121-2.32,5.529,5.529,0,0,1,3.239-.817h1.169v-.545A1.567,1.567,0,0,0,89.2-7.409a1.331,1.331,0,0,0-1.068-.4,1.513,1.513,0,0,0-1.006.308,1.045,1.045,0,0,0-.365.844h-2.54a2.551,2.551,0,0,1,.51-1.529,3.37,3.37,0,0,1,1.441-1.1,5.253,5.253,0,0,1,2.092-.4A4.15,4.15,0,0,1,91.05-8.8a3.09,3.09,0,0,1,1.033,2.483V-2.2a4.546,4.546,0,0,0,.378,2.048V0Zm-2.1-1.767a2.188,2.188,0,0,0,1.037-.25,1.645,1.645,0,0,0,.7-.672V-4.324h-.949q-1.907,0-2.03,1.318l-.009.149a1.017,1.017,0,0,0,.334.782A1.3,1.3,0,0,0,87.794-1.767Zm9.281-10.081V-9.51H98.7v1.863H97.075V-2.9a1.133,1.133,0,0,0,.2.756,1.015,1.015,0,0,0,.773.229,4.051,4.051,0,0,0,.747-.062V-.053A5.229,5.229,0,0,1,97.26.176a2.425,2.425,0,0,1-2.725-2.7V-7.646H93.146V-9.51h1.389v-2.338ZM105.627,0a2.821,2.821,0,0,1-.255-.853,3.073,3.073,0,0,1-2.4,1.028,3.376,3.376,0,0,1-2.316-.809,2.6,2.6,0,0,1-.918-2.039,2.687,2.687,0,0,1,1.121-2.32A5.529,5.529,0,0,1,104.1-5.81h1.169v-.545a1.567,1.567,0,0,0-.338-1.055,1.331,1.331,0,0,0-1.068-.4,1.513,1.513,0,0,0-1.006.308,1.045,1.045,0,0,0-.365.844h-2.54a2.551,2.551,0,0,1,.51-1.529,3.37,3.37,0,0,1,1.441-1.1,5.253,5.253,0,0,1,2.092-.4,4.15,4.15,0,0,1,2.791.883,3.09,3.09,0,0,1,1.033,2.483V-2.2a4.546,4.546,0,0,0,.378,2.048V0Zm-2.1-1.767a2.188,2.188,0,0,0,1.037-.25,1.645,1.645,0,0,0,.7-.672V-4.324h-.949q-1.907,0-2.03,1.318l-.009.149a1.017,1.017,0,0,0,.334.782A1.3,1.3,0,0,0,103.526-1.767ZM115.11-7.128a6.9,6.9,0,0,0-.914-.07,1.86,1.86,0,0,0-1.89.976V0h-2.54V-9.51h2.4l.07,1.134a2.354,2.354,0,0,1,2.118-1.31,2.662,2.662,0,0,1,.791.114ZM119.013,0h-2.549V-9.51h2.549Zm-2.7-11.971a1.251,1.251,0,0,1,.382-.94,1.436,1.436,0,0,1,1.042-.369,1.44,1.44,0,0,1,1.037.369,1.244,1.244,0,0,1,.387.94,1.247,1.247,0,0,1-.391.949,1.443,1.443,0,0,1-1.033.369,1.443,1.443,0,0,1-1.033-.369A1.247,1.247,0,0,1,116.314-11.971Zm4.395,7.128a5.64,5.64,0,0,1,.545-2.522,3.989,3.989,0,0,1,1.569-1.714,4.577,4.577,0,0,1,2.377-.606,4.33,4.33,0,0,1,3.142,1.178,4.727,4.727,0,0,1,1.358,3.2l.018.65A4.97,4.97,0,0,1,128.5-1.147,4.247,4.247,0,0,1,125.218.176a4.268,4.268,0,0,1-3.283-1.318,5.058,5.058,0,0,1-1.226-3.586Zm2.54.18a3.555,3.555,0,0,0,.51,2.073,1.682,1.682,0,0,0,1.459.717,1.686,1.686,0,0,0,1.441-.709,3.89,3.89,0,0,0,.519-2.267,3.519,3.519,0,0,0-.519-2.06,1.686,1.686,0,0,0-1.459-.731,1.658,1.658,0,0,0-1.441.726A3.955,3.955,0,0,0,123.249-4.662Zm12.63-.541a13.488,13.488,0,0,1,.536-3.832A10.112,10.112,0,0,1,138-12.256a5.907,5.907,0,0,1,2.268-1.947l.492,1.371a6.118,6.118,0,0,0-2,2.936,13.592,13.592,0,0,0-.721,4.641v.272a13.852,13.852,0,0,0,.712,4.658,6.237,6.237,0,0,0,2.013,2.979L140.265,4A5.91,5.91,0,0,1,138.037,2.1a9.943,9.943,0,0,1-1.578-3.133,13.408,13.408,0,0,1-.58-3.709Zm11.549-1.925a6.9,6.9,0,0,0-.914-.07,1.86,1.86,0,0,0-1.89.976V0h-2.54V-9.51h2.4l.07,1.134a2.354,2.354,0,0,1,2.118-1.31,2.662,2.662,0,0,1,.791.114Zm5.432,7.3a4.668,4.668,0,0,1-3.406-1.283,4.561,4.561,0,0,1-1.314-3.419v-.246a5.745,5.745,0,0,1,.554-2.562,4.064,4.064,0,0,1,1.569-1.74,4.4,4.4,0,0,1,2.316-.611,3.947,3.947,0,0,1,3.072,1.23,5,5,0,0,1,1.121,3.489v1.037h-6.056a2.36,2.36,0,0,0,.743,1.494,2.245,2.245,0,0,0,1.569.563,2.742,2.742,0,0,0,2.294-1.063l1.248,1.4a3.813,3.813,0,0,1-1.547,1.261A5.075,5.075,0,0,1,152.859.176Zm-.29-7.813a1.587,1.587,0,0,0-1.226.512,2.651,2.651,0,0,0-.6,1.466h3.533v-.2a1.891,1.891,0,0,0-.457-1.311A1.638,1.638,0,0,0,152.569-7.638Zm9.6,5.766a1.666,1.666,0,0,0,1.143-.387,1.355,1.355,0,0,0,.457-1.028h2.382a3.258,3.258,0,0,1-.527,1.771A3.48,3.48,0,0,1,164.2-.268a4.442,4.442,0,0,1-1.991.444,4.129,4.129,0,0,1-3.217-1.3A5.13,5.13,0,0,1,157.816-4.7v-.167a5.071,5.071,0,0,1,1.169-3.507,4.08,4.08,0,0,1,3.208-1.31,4,4,0,0,1,2.861,1.015,3.594,3.594,0,0,1,1.094,2.7h-2.382a1.745,1.745,0,0,0-.457-1.206,1.524,1.524,0,0,0-1.16-.464,1.53,1.53,0,0,0-1.34.647,3.749,3.749,0,0,0-.453,2.1v.264a3.8,3.8,0,0,0,.448,2.113A1.549,1.549,0,0,0,162.167-1.872ZM171.976.176a4.668,4.668,0,0,1-3.406-1.283,4.561,4.561,0,0,1-1.314-3.419v-.246a5.745,5.745,0,0,1,.554-2.562,4.064,4.064,0,0,1,1.569-1.74,4.4,4.4,0,0,1,2.316-.611,3.947,3.947,0,0,1,3.072,1.23,5,5,0,0,1,1.121,3.489v1.037h-6.056a2.36,2.36,0,0,0,.743,1.494,2.245,2.245,0,0,0,1.569.563,2.742,2.742,0,0,0,2.294-1.063l1.248,1.4a3.813,3.813,0,0,1-1.547,1.261A5.075,5.075,0,0,1,171.976.176Zm-.29-7.813a1.587,1.587,0,0,0-1.226.512,2.651,2.651,0,0,0-.6,1.466h3.533v-.2a1.891,1.891,0,0,0-.457-1.311A1.638,1.638,0,0,0,171.686-7.638Zm14.2,2.971a5.7,5.7,0,0,1-1,3.52A3.2,3.2,0,0,1,182.2.176a2.963,2.963,0,0,1-2.329-1V3.656h-2.54V-9.51h2.355l.088.932a2.985,2.985,0,0,1,2.408-1.107,3.22,3.22,0,0,1,2.733,1.3,5.858,5.858,0,0,1,.976,3.586Zm-2.54-.194a3.763,3.763,0,0,0-.47-2.054,1.53,1.53,0,0,0-1.367-.723,1.662,1.662,0,0,0-1.644.917v3.906a1.691,1.691,0,0,0,1.661.943Q183.349-1.872,183.349-4.861Zm7.154-6.987V-9.51h1.626v1.863H190.5V-2.9a1.133,1.133,0,0,0,.2.756,1.015,1.015,0,0,0,.773.229,4.051,4.051,0,0,0,.747-.062V-.053a5.229,5.229,0,0,1-1.538.229,2.425,2.425,0,0,1-2.725-2.7V-7.646h-1.389V-9.51h1.389v-2.338Zm2.382,7a5.64,5.64,0,0,1,.545-2.522A3.989,3.989,0,0,1,195-9.079a4.577,4.577,0,0,1,2.377-.606,4.33,4.33,0,0,1,3.142,1.178,4.727,4.727,0,0,1,1.358,3.2l.018.65a4.97,4.97,0,0,1-1.222,3.511A4.247,4.247,0,0,1,197.394.176a4.268,4.268,0,0,1-3.283-1.318,5.058,5.058,0,0,1-1.226-3.586Zm2.54.18a3.555,3.555,0,0,0,.51,2.073,1.682,1.682,0,0,0,1.459.717,1.686,1.686,0,0,0,1.441-.709,3.89,3.89,0,0,0,.519-2.267,3.519,3.519,0,0,0-.519-2.06,1.686,1.686,0,0,0-1.459-.731,1.658,1.658,0,0,0-1.441.726A3.955,3.955,0,0,0,195.425-4.662ZM208.8-7.128a6.9,6.9,0,0,0-.914-.07,1.86,1.86,0,0,0-1.89.976V0h-2.54V-9.51h2.4l.07,1.134a2.354,2.354,0,0,1,2.118-1.31,2.662,2.662,0,0,1,.791.114ZM214.4-5a12.8,12.8,0,0,1-.571,3.823,10.378,10.378,0,0,1-1.644,3.243A5.921,5.921,0,0,1,209.892,4L209.4,2.654a6.18,6.18,0,0,0,1.969-2.9,13.431,13.431,0,0,0,.747-4.509v-.466a13.735,13.735,0,0,0-.716-4.632,6.442,6.442,0,0,0-2-3.006l.492-1.345a5.923,5.923,0,0,1,2.254,1.881,10.244,10.244,0,0,1,1.644,3.173A12.708,12.708,0,0,1,214.4-5.4Z" transform="translate(1112.475 5163.713)" fill="#12263f"/>
    <path id="Trazado_145202" data-name="Trazado 145202" d="M8.842-5.563H3.779v3.445H9.721V0H1.143V-12.8H9.7v2.136H3.779v3.05H8.842ZM13.781,0H11.232V-13.5h2.549ZM24.732.176a4.668,4.668,0,0,1-3.406-1.283,4.561,4.561,0,0,1-1.314-3.419v-.246a5.745,5.745,0,0,1,.554-2.562,4.064,4.064,0,0,1,1.569-1.74,4.4,4.4,0,0,1,2.316-.611,3.947,3.947,0,0,1,3.072,1.23,5,5,0,0,1,1.121,3.489v1.037H22.588a2.36,2.36,0,0,0,.743,1.494,2.245,2.245,0,0,0,1.569.563,2.742,2.742,0,0,0,2.294-1.063l1.248,1.4A3.813,3.813,0,0,1,26.895-.277,5.075,5.075,0,0,1,24.732.176Zm-.29-7.813a1.587,1.587,0,0,0-1.226.512,2.651,2.651,0,0,0-.6,1.466h3.533v-.2a1.891,1.891,0,0,0-.457-1.311A1.638,1.638,0,0,0,24.442-7.638ZM32.467-9.51l.079,1.063a3.342,3.342,0,0,1,2.733-1.239A2.536,2.536,0,0,1,37.8-8.235a3.265,3.265,0,0,1,2.856-1.45,2.836,2.836,0,0,1,2.3.9,4.141,4.141,0,0,1,.756,2.711V0H41.168V-6.078a1.818,1.818,0,0,0-.316-1.185,1.4,1.4,0,0,0-1.116-.374,1.585,1.585,0,0,0-1.582,1.092L38.162,0h-2.54V-6.07a1.8,1.8,0,0,0-.325-1.2,1.414,1.414,0,0,0-1.107-.37,1.645,1.645,0,0,0-1.564.9V0h-2.54V-9.51ZM54.237-4.667A5.758,5.758,0,0,1,53.262-1.1,3.231,3.231,0,0,1,50.537.176a2.969,2.969,0,0,1-2.47-1.187L47.953,0H45.668V-13.5h2.54v4.843A2.893,2.893,0,0,1,50.52-9.686a3.258,3.258,0,0,1,2.729,1.279,5.767,5.767,0,0,1,.989,3.6ZM51.7-4.861a3.8,3.8,0,0,0-.457-2.111,1.544,1.544,0,0,0-1.362-.666,1.675,1.675,0,0,0-1.67,1v3.764a1.7,1.7,0,0,0,1.688,1,1.569,1.569,0,0,0,1.617-1.217A6.294,6.294,0,0,0,51.7-4.861ZM61.313,0a2.821,2.821,0,0,1-.255-.853,3.073,3.073,0,0,1-2.4,1.028,3.376,3.376,0,0,1-2.316-.809,2.6,2.6,0,0,1-.918-2.039,2.687,2.687,0,0,1,1.121-2.32,5.529,5.529,0,0,1,3.239-.817h1.169v-.545a1.567,1.567,0,0,0-.338-1.055,1.331,1.331,0,0,0-1.068-.4A1.513,1.513,0,0,0,58.54-7.5a1.045,1.045,0,0,0-.365.844h-2.54a2.551,2.551,0,0,1,.51-1.529,3.37,3.37,0,0,1,1.441-1.1,5.253,5.253,0,0,1,2.092-.4,4.15,4.15,0,0,1,2.791.883A3.09,3.09,0,0,1,63.5-6.319V-2.2a4.546,4.546,0,0,0,.378,2.048V0Zm-2.1-1.767a2.188,2.188,0,0,0,1.037-.25,1.645,1.645,0,0,0,.7-.672V-4.324H60q-1.907,0-2.03,1.318l-.009.149a1.017,1.017,0,0,0,.334.782A1.3,1.3,0,0,0,59.212-1.767ZM70.8-7.128a6.9,6.9,0,0,0-.914-.07,1.86,1.86,0,0,0-1.89.976V0h-2.54V-9.51h2.4l.07,1.134a2.354,2.354,0,0,1,2.118-1.31,2.662,2.662,0,0,1,.791.114Zm5.01,5.256a1.666,1.666,0,0,0,1.143-.387,1.355,1.355,0,0,0,.457-1.028h2.382a3.258,3.258,0,0,1-.527,1.771A3.48,3.48,0,0,1,77.84-.268,4.442,4.442,0,0,1,75.85.176a4.129,4.129,0,0,1-3.217-1.3A5.13,5.13,0,0,1,71.455-4.7v-.167a5.071,5.071,0,0,1,1.169-3.507,4.08,4.08,0,0,1,3.208-1.31A4,4,0,0,1,78.693-8.67a3.594,3.594,0,0,1,1.094,2.7H77.405a1.745,1.745,0,0,0-.457-1.206,1.524,1.524,0,0,0-1.16-.464,1.53,1.53,0,0,0-1.34.647A3.749,3.749,0,0,0,74-4.891v.264a3.8,3.8,0,0,0,.448,2.113A1.549,1.549,0,0,0,75.806-1.872ZM86.748,0a2.821,2.821,0,0,1-.255-.853,3.073,3.073,0,0,1-2.4,1.028,3.376,3.376,0,0,1-2.316-.809,2.6,2.6,0,0,1-.918-2.039,2.687,2.687,0,0,1,1.121-2.32,5.529,5.529,0,0,1,3.239-.817h1.169v-.545a1.567,1.567,0,0,0-.338-1.055,1.331,1.331,0,0,0-1.068-.4,1.513,1.513,0,0,0-1.006.308,1.045,1.045,0,0,0-.365.844H81.07a2.551,2.551,0,0,1,.51-1.529,3.37,3.37,0,0,1,1.441-1.1,5.253,5.253,0,0,1,2.092-.4A4.15,4.15,0,0,1,87.9-8.8a3.09,3.09,0,0,1,1.033,2.483V-2.2a4.546,4.546,0,0,0,.378,2.048V0Zm-2.1-1.767a2.188,2.188,0,0,0,1.037-.25,1.645,1.645,0,0,0,.7-.672V-4.324h-.949q-1.907,0-2.03,1.318l-.009.149a1.017,1.017,0,0,0,.334.782A1.3,1.3,0,0,0,84.647-1.767Zm5.845-3.059a5.731,5.731,0,0,1,1-3.542,3.237,3.237,0,0,1,2.729-1.318,2.913,2.913,0,0,1,2.294,1.037V-13.5h2.549V0H96.768l-.123-1.011A2.989,2.989,0,0,1,94.2.176a3.228,3.228,0,0,1-2.694-1.323A5.916,5.916,0,0,1,90.492-4.825Zm2.54.181A3.775,3.775,0,0,0,93.5-2.587a1.516,1.516,0,0,0,1.354.715,1.7,1.7,0,0,0,1.661-1V-6.64a1.675,1.675,0,0,0-1.644-1Q93.032-7.638,93.032-4.644Zm7.6-.2a5.64,5.64,0,0,1,.545-2.522,3.989,3.989,0,0,1,1.569-1.714,4.577,4.577,0,0,1,2.377-.606,4.33,4.33,0,0,1,3.142,1.178,4.727,4.727,0,0,1,1.358,3.2l.018.65a4.97,4.97,0,0,1-1.222,3.511A4.247,4.247,0,0,1,105.144.176a4.268,4.268,0,0,1-3.283-1.318,5.058,5.058,0,0,1-1.226-3.586Zm2.54.18a3.555,3.555,0,0,0,.51,2.073,1.682,1.682,0,0,0,1.459.717,1.686,1.686,0,0,0,1.441-.709,3.89,3.89,0,0,0,.519-2.267,3.519,3.519,0,0,0-.519-2.06,1.686,1.686,0,0,0-1.459-.731,1.658,1.658,0,0,0-1.441.726A3.955,3.955,0,0,0,103.175-4.662Zm13.377-2.465a6.9,6.9,0,0,0-.914-.07,1.86,1.86,0,0,0-1.89.976V0h-2.54V-9.51h2.4l.07,1.134a2.354,2.354,0,0,1,2.118-1.31,2.662,2.662,0,0,1,.791.114Z" transform="translate(358 5163.713)" fill="#12263f"/>
    <path id="Trazado_145194" data-name="Trazado 145194" d="M3.946,0H1.31V-12.8H3.946ZM8.561-9.51l.079,1.1a3.32,3.32,0,0,1,2.733-1.274,2.759,2.759,0,0,1,2.25.888,4.142,4.142,0,0,1,.756,2.654V0h-2.54V-6.1a1.654,1.654,0,0,0-.352-1.176,1.572,1.572,0,0,0-1.169-.366,1.747,1.747,0,0,0-1.608.916V0H6.17V-9.51Zm10.784-2.338V-9.51h1.626v1.863H19.345V-2.9a1.133,1.133,0,0,0,.2.756,1.015,1.015,0,0,0,.773.229,4.051,4.051,0,0,0,.747-.062V-.053a5.229,5.229,0,0,1-1.538.229,2.425,2.425,0,0,1-2.725-2.7V-7.646H15.416V-9.51H16.8v-2.338ZM26.763.176a4.668,4.668,0,0,1-3.406-1.283,4.561,4.561,0,0,1-1.314-3.419v-.246A5.745,5.745,0,0,1,22.6-7.334a4.064,4.064,0,0,1,1.569-1.74,4.4,4.4,0,0,1,2.316-.611,3.947,3.947,0,0,1,3.072,1.23,5,5,0,0,1,1.121,3.489v1.037H24.618a2.36,2.36,0,0,0,.743,1.494,2.245,2.245,0,0,0,1.569.563,2.742,2.742,0,0,0,2.294-1.063l1.248,1.4A3.813,3.813,0,0,1,28.925-.277,5.075,5.075,0,0,1,26.763.176Zm-.29-7.813a1.587,1.587,0,0,0-1.226.512,2.651,2.651,0,0,0-.6,1.466h3.533v-.2a1.891,1.891,0,0,0-.457-1.311A1.638,1.638,0,0,0,26.473-7.638Zm10.986.51a6.9,6.9,0,0,0-.914-.07,1.86,1.86,0,0,0-1.89.976V0h-2.54V-9.51h2.4l.07,1.134A2.354,2.354,0,0,1,36.7-9.686a2.662,2.662,0,0,1,.791.114Zm3.56-2.382.079,1.1a3.32,3.32,0,0,1,2.733-1.274,2.759,2.759,0,0,1,2.25.888,4.142,4.142,0,0,1,.756,2.654V0H44.3V-6.1a1.654,1.654,0,0,0-.352-1.176,1.572,1.572,0,0,0-1.169-.366,1.747,1.747,0,0,0-1.608.916V0h-2.54V-9.51ZM53.139.176a4.668,4.668,0,0,1-3.406-1.283,4.561,4.561,0,0,1-1.314-3.419v-.246a5.745,5.745,0,0,1,.554-2.562,4.064,4.064,0,0,1,1.569-1.74,4.4,4.4,0,0,1,2.316-.611,3.947,3.947,0,0,1,3.072,1.23A5,5,0,0,1,57.05-4.966v1.037H50.994a2.36,2.36,0,0,0,.743,1.494,2.245,2.245,0,0,0,1.569.563A2.742,2.742,0,0,0,55.6-2.936l1.248,1.4A3.813,3.813,0,0,1,55.3-.277,5.075,5.075,0,0,1,53.139.176Zm-.29-7.813a1.587,1.587,0,0,0-1.226.512,2.651,2.651,0,0,0-.6,1.466h3.533v-.2A1.891,1.891,0,0,0,54.1-7.174,1.638,1.638,0,0,0,52.849-7.638Zm8.684-4.21V-9.51h1.626v1.863H61.532V-2.9a1.133,1.133,0,0,0,.2.756,1.015,1.015,0,0,0,.773.229,4.051,4.051,0,0,0,.747-.062V-.053a5.229,5.229,0,0,1-1.538.229,2.425,2.425,0,0,1-2.725-2.7V-7.646H57.6V-9.51h1.389v-2.338Z" transform="translate(784 5299.881)" fill="#12263f"/>
    <g id="personas" transform="translate(718.28 4834.217)">
      <g id="Grupo_83413" data-name="Grupo 83413" transform="translate(0.923 21.926)">
        <g id="Grupo_83411" data-name="Grupo 83411" transform="translate(21.346 1.674)">
          <path id="Trazado_144440" data-name="Trazado 144440" d="M214,84.114h10.335v7.5H214Z" transform="translate(-209.944 -78.947)" fill="#ffd15b"/>
          <path id="Trazado_144441" data-name="Trazado 144441" d="M182.849,164.8A1.846,1.846,0,0,1,181,162.954V148.067a2.953,2.953,0,0,1,2.953-2.953h.738v17.84A1.846,1.846,0,0,1,182.849,164.8Z" transform="translate(-181.004 -132.442)" fill="#ffcebf"/>
          <path id="Trazado_144442" data-name="Trazado 144442" d="M184.695,152.5H181v-4.429a2.953,2.953,0,0,1,2.953-2.953h.738Z" transform="translate(-181.004 -132.442)" fill="#c3b5ec"/>
          <path id="Trazado_144443" data-name="Trazado 144443" d="M302.849,164.8a1.846,1.846,0,0,0,1.845-1.845V148.067a2.953,2.953,0,0,0-2.953-2.953H301v17.84A1.846,1.846,0,0,0,302.849,164.8Z" transform="translate(-286.24 -132.442)" fill="#ffcebf"/>
          <path id="Trazado_144444" data-name="Trazado 144444" d="M301,152.5h3.691v-4.429a2.953,2.953,0,0,0-2.953-2.953H301Z" transform="translate(-286.24 -132.442)" fill="#c3b5ec"/>
          <path id="Trazado_144445" data-name="Trazado 144445" d="M211,145.114h11.073v13.533H211Z" transform="translate(-207.313 -132.442)" fill="#ffba5b"/>
          <path id="Trazado_144447" data-name="Trazado 144447" d="M211,333.611h3.691V346.1H211Z" transform="translate(-207.313 -297.748)" fill="#ffcebf"/>
          <path id="Trazado_144448" data-name="Trazado 144448" d="M271,333.611h3.691V346.1H271Z" transform="translate(-259.931 -297.748)" fill="#ffcebf"/>
          <path id="Trazado_144449" data-name="Trazado 144449" d="M242.849,121.266A1.846,1.846,0,0,1,241,119.42v-4.306h3.691v4.306A1.846,1.846,0,0,1,242.849,121.266Z" transform="translate(-233.622 -106.133)" fill="#ffb09e"/>
          <path id="Trazado_144450" data-name="Trazado 144450" d="M229.695,63.464A3.691,3.691,0,0,1,226,59.773V57.8a3.691,3.691,0,1,1,7.382,0v1.968A3.691,3.691,0,0,1,229.695,63.464Z" transform="translate(-220.468 -52.638)" fill="#ffcebf"/>
          <path id="Trazado_144451" data-name="Trazado 144451" d="M214.695,420.051H211V417.96a1.845,1.845,0,1,1,3.691,0Z" transform="translate(-207.313 -370.1)" fill="#ee6161"/>
          <path id="Trazado_144452" data-name="Trazado 144452" d="M274.695,420.051H271V417.96a1.846,1.846,0,1,1,3.691,0Z" transform="translate(-259.931 -370.1)" fill="#ee6161"/>
          <path id="Trazado_144453" data-name="Trazado 144453" d="M224.339,47.281H214v-.369a4.8,4.8,0,0,1,4.8-4.8h.737a4.8,4.8,0,0,1,4.8,4.8v.369Z" transform="translate(-209.944 -42.114)" fill="#ffe177"/>
          <path id="Trazado_144455" data-name="Trazado 144455" d="M211,255.114h11.073v9.658H211Z" transform="translate(-207.313 -228.908)" fill="#c3b5ec"/>
        </g>
        <path id="Trazado_144457" data-name="Trazado 144457" d="M9.349,168.189A1.846,1.846,0,0,1,7.5,166.344V151.457a2.953,2.953,0,0,1,2.953-2.953h.738v17.84A1.846,1.846,0,0,1,9.349,168.189Z" transform="translate(-7.504 -133.74)" fill="#e8916f"/>
        <path id="Trazado_144458" data-name="Trazado 144458" d="M129.349,168.189a1.846,1.846,0,0,0,1.845-1.845V151.457a2.953,2.953,0,0,0-2.953-2.953H127.5v17.84A1.845,1.845,0,0,0,129.349,168.189Z" transform="translate(-112.74 -133.74)" fill="#e8916f"/>
        <path id="Trazado_144459" data-name="Trazado 144459" d="M0,0H11.073V13.533H0Z" transform="translate(14.764 28.297) rotate(180)" fill="#ff7758"/>
        <path id="Trazado_144461" data-name="Trazado 144461" d="M37.5,258.5V280.65h3.691V264.04a1.845,1.845,0,0,1,3.691,0V280.65h3.691V258.5Z" transform="translate(-33.813 -230.207)" fill="#675d84"/>
        <path id="Trazado_144462" data-name="Trazado 144462" d="M69.349,124.656a1.846,1.846,0,0,0,1.845-1.845V118.5H67.5v4.306A1.846,1.846,0,0,0,69.349,124.656Z" transform="translate(-60.122 -107.431)" fill="#d78878"/>
        <path id="Trazado_144463" data-name="Trazado 144463" d="M56.195,66.16a3.691,3.691,0,0,0,3.691-3.691V60.5a3.691,3.691,0,1,0-7.382,0v1.968A3.691,3.691,0,0,0,56.195,66.16Z" transform="translate(-46.968 -53.328)" fill="#e8916f"/>
        <path id="Trazado_144464" data-name="Trazado 144464" d="M97.5,423.441h3.691v-2.092a1.845,1.845,0,0,0-3.691,0Z" transform="translate(-86.431 -371.399)" fill="#9b5e5e"/>
        <path id="Trazado_144465" data-name="Trazado 144465" d="M37.5,423.441h3.691v-2.092a1.845,1.845,0,0,0-3.691,0Z" transform="translate(-33.813 -371.399)" fill="#9b5e5e"/>
        <path id="Trazado_144466" data-name="Trazado 144466" d="M356.349,168.189a1.845,1.845,0,0,1-1.845-1.845V151.457a2.953,2.953,0,0,1,2.953-2.953h.738v17.84A1.846,1.846,0,0,1,356.349,168.189Z" transform="translate(-311.812 -133.74)" fill="#fed2a4"/>
        <path id="Trazado_144467" data-name="Trazado 144467" d="M476.349,168.189a1.846,1.846,0,0,0,1.846-1.845V151.457a2.953,2.953,0,0,0-2.953-2.953H474.5v17.84A1.845,1.845,0,0,0,476.349,168.189Z" transform="translate(-417.048 -133.74)" fill="#fed2a4"/>
        <path id="Trazado_144468" data-name="Trazado 144468" d="M0,0H11.073V13.533H0Z" transform="translate(57.456 28.297) rotate(180)" fill="#c3b5ec"/>
        <path id="Trazado_144470" data-name="Trazado 144470" d="M384.5,258.5V280.65h3.691V264.04a1.846,1.846,0,0,1,3.691,0V280.65h3.691V258.5Z" transform="translate(-338.121 -230.207)" fill="#675d84"/>
        <path id="Trazado_144471" data-name="Trazado 144471" d="M416.349,124.656a1.846,1.846,0,0,0,1.845-1.845V118.5H414.5v4.306A1.846,1.846,0,0,0,416.349,124.656Z" transform="translate(-364.43 -107.431)" fill="#ffbd86"/>
        <path id="Trazado_144472" data-name="Trazado 144472" d="M403.195,66.16a3.691,3.691,0,0,0,3.691-3.691V60.5a3.691,3.691,0,1,0-7.382,0v1.968A3.691,3.691,0,0,0,403.195,66.16Z" transform="translate(-351.276 -53.328)" fill="#fed2a4"/>
        <g id="Grupo_83412" data-name="Grupo 83412" transform="translate(1.845 0)">
          <path id="Trazado_144473" data-name="Trazado 144473" d="M444.5,423.441h3.691v-2.092a1.845,1.845,0,0,0-3.691,0Z" transform="translate(-392.585 -371.399)" fill="#9b5e5e"/>
          <path id="Trazado_144474" data-name="Trazado 144474" d="M384.5,423.441h3.691v-2.092a1.845,1.845,0,0,0-3.691,0Z" transform="translate(-339.967 -371.399)" fill="#9b5e5e"/>
          <path id="Trazado_144475" data-name="Trazado 144475" d="M33.581,35.887H26.19A3.7,3.7,0,0,1,22.5,32.2v-.009A3.7,3.7,0,0,1,26.19,28.5h7.391a3.7,3.7,0,0,1,3.686,3.686V32.2A3.7,3.7,0,0,1,33.581,35.887Z" transform="translate(-22.504 -28.505)" fill="#9b5e5e"/>
        </g>
        <path id="Trazado_144477" data-name="Trazado 144477" d="M396.728,48.1h-8.116a1.109,1.109,0,0,1-1.109-1.109v-.618a3.44,3.44,0,0,1,3.44-3.44H394.4a3.44,3.44,0,0,1,3.44,3.44v.618A1.109,1.109,0,0,1,396.728,48.1Z" transform="translate(-340.751 -41.158)" fill="#9b5e5e"/>
        <path id="Trazado_144479" data-name="Trazado 144479" d="M66.682,455.441H9.472a1.969,1.969,0,0,1,0-3.937h57.21a1.969,1.969,0,0,1,0,3.937Z" transform="translate(-7.504 -399.462)" fill="#7a6d79"/>
        <path id="Trazado_144480" data-name="Trazado 144480" d="M462.195,451.5H458.5a1.969,1.969,0,0,1,0,3.937h3.691a1.969,1.969,0,0,0,0-3.937Z" transform="translate(-403.017 -399.462)" fill="#685e68"/>
      </g>
      <g id="Grupo_83414" data-name="Grupo 83414" transform="translate(0 21.003)">
        <path id="Trazado_144481" data-name="Trazado 144481" d="M62.07,44.516a.923.923,0,0,0,.923-.923V39.642a3.88,3.88,0,0,0-3.875-3.875H55.611v-1.01a4.609,4.609,0,0,0,1.845-3.689V29.714a2.036,2.036,0,0,0,1.476-1.955v-.618a4.368,4.368,0,0,0-4.363-4.363H51.115a4.368,4.368,0,0,0-4.363,4.363v.618a2.036,2.036,0,0,0,1.476,1.955v1.354a4.609,4.609,0,0,0,1.845,3.689v1.01H46.568a3.88,3.88,0,0,0-3.875,3.875V54.529a2.783,2.783,0,0,0,3.691,2.61V73.045H37.956V56.722a2.783,2.783,0,0,0,3.691-2.61V39.225a3.88,3.88,0,0,0-3.875-3.875h-.185V28.4a5.728,5.728,0,0,0-5.721-5.721h-.737A5.728,5.728,0,0,0,25.407,28.4V35.35h-.185a3.88,3.88,0,0,0-3.875,3.875V54.112a2.783,2.783,0,0,0,3.691,2.61V73.045H16.61V57.139a2.783,2.783,0,0,0,3.691-2.61V39.642a3.88,3.88,0,0,0-3.875-3.875H12.919v-1.01a4.61,4.61,0,0,0,1.845-3.689v-.93A4.617,4.617,0,0,0,13.846,21H6.455a4.617,4.617,0,0,0-.918,9.136v.93a4.609,4.609,0,0,0,1.845,3.689v1.01H3.876A3.88,3.88,0,0,0,0,39.642V54.529a2.783,2.783,0,0,0,3.691,2.61v4.316a.923.923,0,0,0,1.845,0V51.146h9.227V69.266a2.788,2.788,0,0,0-1.845,0V55.759a2.743,2.743,0,0,0-.81-1.955,2.774,2.774,0,0,0-4.726,1.955V69.266a2.788,2.788,0,0,0-1.845,0V65.821a.923.923,0,0,0-1.845,0v7.224h-.8a2.891,2.891,0,0,0,0,5.782H40.478a.923.923,0,0,0,0-1.845H2.892a1.046,1.046,0,0,1,0-2.092H60.1a1.046,1.046,0,0,1,0,2.092H44.756a.923.923,0,0,0,0,1.845H60.1a2.891,2.891,0,0,0,0-5.782h-.8V57.139a2.783,2.783,0,0,0,3.691-2.61V48a.923.923,0,0,0-1.845,0v6.525a.923.923,0,0,1-1.845,0V37.621a2.033,2.033,0,0,1,1.845,2.022v3.951a.923.923,0,0,0,.923.923Zm-4.614,24.75a2.788,2.788,0,0,0-1.845,0V55.759A2.743,2.743,0,0,0,54.8,53.8a2.774,2.774,0,0,0-4.726,1.955V69.266a2.788,2.788,0,0,0-1.845,0V51.146h9.227ZM51.92,55.759a.925.925,0,0,1,1.576-.65.912.912,0,0,1,.27.65V73.045H51.92ZM57.456,49.3H48.229V37.612h1.862a2.77,2.77,0,0,0,5.5,0h1.862V49.3Zm-3.2-15.85-.05.029a2.788,2.788,0,0,1-2.719,0l-.05-.029a2.77,2.77,0,0,1-1.359-2.382V29.791h5.536v1.277A2.77,2.77,0,0,1,54.252,33.45ZM48.6,27.141a2.52,2.52,0,0,1,2.517-2.517H54.57a2.52,2.52,0,0,1,2.517,2.517v.618a.187.187,0,0,1-.187.187H48.784a.187.187,0,0,1-.187-.187v-.618Zm4.245,8.54a4.617,4.617,0,0,0,.923-.093V37.3a.923.923,0,0,1-1.845,0V35.589A4.617,4.617,0,0,0,52.843,35.682Zm-7.382,19.77a.924.924,0,0,1-.923-.923V39.642a2.033,2.033,0,0,1,1.845-2.022V54.529A.924.924,0,0,1,45.461,55.452Zm-16.732,13.4a2.788,2.788,0,0,0-1.845,0V60.387h1.845Zm-1.845,2.61a.923.923,0,0,1,1.845,0v1.169H26.883Zm0-12.919V50.729H36.11v7.812Zm7.382-28.85v1.046a2.768,2.768,0,0,1-5.536,0V29.69h5.536Zm-7.382,7.5h1.862a2.77,2.77,0,0,0,5.5,0H36.11V48.883H26.883V37.2Zm5.536-.308a.923.923,0,0,1-1.845,0V35.257a4.628,4.628,0,0,0,1.845,0Zm1.845-1.538v-.924a4.632,4.632,0,0,0,1.476-1.886V35.35H34.265Zm-7.013-2.811a4.628,4.628,0,0,0,1.476,1.886v.924H27.252Zm7.013,38.92a.923.923,0,0,1,1.845,0v1.169H34.265Zm.923-2.768a2.756,2.756,0,0,0-.923.158V60.387H36.11v8.463A2.754,2.754,0,0,0,35.188,68.691Zm3.691-13.656a.924.924,0,0,1-.923-.923V44.577H39.8v9.535A.924.924,0,0,1,38.879,55.035Zm.923-15.81v3.506H37.956V37.2A2.033,2.033,0,0,1,39.8,39.225Zm-8.673-14.7h.737A3.882,3.882,0,0,1,35.7,27.845h-8.41A3.882,3.882,0,0,1,31.128,24.523ZM25.038,37.2v5.528H23.192V39.225A2.033,2.033,0,0,1,25.038,37.2Zm-.923,17.831a.924.924,0,0,1-.923-.923V44.577h1.845v9.535A.924.924,0,0,1,24.115,55.035Zm6.459,5.351h1.845V73.045H30.574ZM18.455,39.642V54.529a.923.923,0,0,1-1.845,0V37.621A2.033,2.033,0,0,1,18.455,39.642Zm-6.9-6.192-.05.029a2.788,2.788,0,0,1-2.719,0l-.05-.029a2.77,2.77,0,0,1-1.359-2.382V30.23h5.536v.838A2.77,2.77,0,0,1,11.56,33.45ZM3.692,25.612a2.767,2.767,0,0,1,2.764-2.764h7.391a2.768,2.768,0,0,1,0,5.536H6.455a2.769,2.769,0,0,1-2.764-2.773Zm6.459,10.07a4.617,4.617,0,0,0,.923-.093V37.3a.923.923,0,0,1-1.845,0V35.589A4.617,4.617,0,0,0,10.151,35.682ZM2.769,55.452a.924.924,0,0,1-.923-.923V39.642a2.033,2.033,0,0,1,1.845-2.022V54.529A.924.924,0,0,1,2.769,55.452ZM5.537,49.3V37.612H7.4a2.77,2.77,0,0,0,5.5,0h1.862V49.3Zm3.691,6.459a.925.925,0,0,1,1.576-.65.912.912,0,0,1,.27.65V73.045H9.228ZM5.537,73.045V71.877a.923.923,0,0,1,1.845,0v1.169Zm7.382,0V71.877a.923.923,0,0,1,1.845,0v1.169Zm35.31,0V71.877a.923.923,0,0,1,1.845,0v1.169Zm7.382,0V71.877a.923.923,0,0,1,1.845,0v1.169Z" transform="translate(0 -21.003)"/>
      </g>
    </g>
    <path id="Trazado_145220" data-name="Trazado 145220" d="M5.781,0A5.781,5.781,0,1,1,0,5.781,5.781,5.781,0,0,1,5.781,0Z" transform="translate(794.219 4903.664)" fill="none" stroke="#ff7758" stroke-width="3"/>
    <path id="Trazado_145214" data-name="Trazado 145214" d="M5.781,0A5.781,5.781,0,1,1,0,5.781,5.781,5.781,0,0,1,5.781,0Z" transform="translate(794.219 5038.58)" fill="#fff" stroke="#ff7758" stroke-width="3"/>
    <path id="Trazado_145203" data-name="Trazado 145203" d="M5.781,0A5.781,5.781,0,1,1,0,5.781,5.781,5.781,0,0,1,5.781,0Z" transform="translate(972.219 5151.119)" fill="#fff" stroke="#ff7758" stroke-width="3"/>
    <path id="Trazado_145204" data-name="Trazado 145204" d="M5.781,0A5.781,5.781,0,1,1,0,5.781,5.781,5.781,0,0,1,5.781,0Z" transform="translate(559.291 5151.119)" fill="#fff" stroke="#ff7758" stroke-width="3"/>
    <path id="Trazado_145205" data-name="Trazado 145205" d="M5.781,0A5.781,5.781,0,1,1,0,5.781,5.781,5.781,0,0,1,5.781,0Z" transform="translate(1033.902 5151.119)" fill="#fff" stroke="#ff7758" stroke-width="3"/>
    <path id="Trazado_145206" data-name="Trazado 145206" d="M5.781,0A5.781,5.781,0,1,1,0,5.781,5.781,5.781,0,0,1,5.781,0Z" transform="translate(620.975 5151.119)" fill="#fff" stroke="#ff7758" stroke-width="3"/>
    <path id="Trazado_145212" data-name="Trazado 145212" d="M5.781,0A5.781,5.781,0,1,1,0,5.781,5.781,5.781,0,0,1,5.781,0Z" transform="translate(394 5128.117)" fill="#fff" stroke="#ff7758" stroke-width="3"/>
    <path id="Trazado_145210" data-name="Trazado 145210" d="M5.781,0A5.781,5.781,0,1,1,0,5.781,5.781,5.781,0,0,1,5.781,0Z" transform="translate(1204.438 5128.117)" fill="#fff" stroke="#ff7758" stroke-width="3"/>
    <path id="Trazado_145213" data-name="Trazado 145213" d="M5.781,0A5.781,5.781,0,1,1,0,5.781,5.781,5.781,0,0,1,5.781,0Z" transform="translate(394 5173.117)" fill="#fff" stroke="#ff7758" stroke-width="3"/>
    <path id="Trazado_145207" data-name="Trazado 145207" d="M5.781,0A5.781,5.781,0,1,1,0,5.781,5.781,5.781,0,0,1,5.781,0Z" transform="translate(1204.438 5173.117)" fill="#fff" stroke="#ff7758" stroke-width="3"/>
    <path id="Trazado_145208" data-name="Trazado 145208" d="M5.781,0A5.781,5.781,0,1,1,0,5.781,5.781,5.781,0,0,1,5.781,0Z" transform="translate(794.219 5174.748)" fill="#fff" stroke="#ff7758" stroke-width="3"/>
    <path id="Trazado_145218" data-name="Trazado 145218" d="M5.781,0A5.781,5.781,0,1,1,0,5.781,5.781,5.781,0,0,1,5.781,0Z" transform="translate(794.219 4991.947)" fill="none" stroke="#ff7758" stroke-width="3"/>
    <path id="Trazado_145216" data-name="Trazado 145216" d="M5.781,0A5.781,5.781,0,1,1,0,5.781,5.781,5.781,0,0,1,5.781,0Z" transform="translate(698.744 5015.4)" fill="#fff" stroke="#ff7758" stroke-width="3"/>
    <path id="Trazado_145195" data-name="Trazado 145195" d="M5.781,0A5.781,5.781,0,1,1,0,5.781,5.781,5.781,0,0,1,5.781,0Z" transform="translate(698.744 5287.6)" fill="#fff" stroke="#ff7758" stroke-width="3"/>
    <path id="Trazado_145217" data-name="Trazado 145217" d="M5.781,0A5.781,5.781,0,1,1,0,5.781,5.781,5.781,0,0,1,5.781,0Z" transform="translate(889.219 5015.4)" fill="#fff" stroke="#ff7758" stroke-width="3"/>
    <path id="Trazado_145196" data-name="Trazado 145196" d="M5.781,0A5.781,5.781,0,1,1,0,5.781,5.781,5.781,0,0,1,5.781,0Z" transform="translate(889.219 5287.6)" fill="#fff" stroke="#ff7758" stroke-width="3"/>
    <path id="Trazado_145211" data-name="Trazado 145211" d="M5.781,0A5.781,5.781,0,1,1,0,5.781,5.781,5.781,0,0,1,5.781,0Z" transform="translate(794.219 5126.863)" fill="none" stroke="#ff7758" stroke-width="3"/>
    <path id="Trazado_145197" data-name="Trazado 145197" d="M5.781,0A5.781,5.781,0,1,1,0,5.781,5.781,5.781,0,0,1,5.781,0Z" transform="translate(794.219 5263.031)" fill="none" stroke="#ff7758" stroke-width="3"/>
    <g id="embajada" transform="translate(718.28 4992.811)">
      <g id="Grupo_83416" data-name="Grupo 83416" transform="translate(1.096 1.096)">
        <path id="Trazado_144483" data-name="Trazado 144483" d="M10,302H23.149v21.915H10Z" transform="translate(-10 -270.005)" fill="#c3b5ec"/>
        <path id="Trazado_144484" data-name="Trazado 144484" d="M382,302h13.149v21.915H382Z" transform="translate(-341.239 -270.005)" fill="#c3b5ec"/>
        <path id="Trazado_144485" data-name="Trazado 144485" d="M422,422h4.383v4.383H422Z" transform="translate(-376.856 -376.856)" fill="#eefaff"/>
        <path id="Trazado_144486" data-name="Trazado 144486" d="M422,342h4.383v4.383H422Z" transform="translate(-376.856 -305.622)" fill="#eefaff"/>
        <path id="Trazado_144487" data-name="Trazado 144487" d="M269.149,10l-4.383,4.383,4.383,4.383H256V10Z" transform="translate(-229.045 -10)" fill="#ff7758"/>
        <path id="Trazado_144488" data-name="Trazado 144488" d="M149.612,136a13.15,13.15,0,0,0-13.092,11.921H162.7A13.15,13.15,0,0,0,149.612,136Z" transform="translate(-122.657 -122.194)" fill="#ffba5b"/>
        <path id="Trazado_144489" data-name="Trazado 144489" d="M276,302h7.232v17.532H276Z" transform="translate(-246.853 -270.005)" fill="#ffba5b"/>
        <path id="Trazado_144490" data-name="Trazado 144490" d="M170,302h7.232v17.532H170Z" transform="translate(-152.468 -270.005)" fill="#ffba5b"/>
        <g id="Grupo_83415" data-name="Grupo 83415" transform="translate(4.383 22.572)">
          <path id="Trazado_144491" data-name="Trazado 144491" d="M126.378,225.423v-5.04L108.189,216,90,220.383v5.04h4.383v17.532H90v4.383h36.378v-4.383H122V225.423ZM98.766,242.955V225.423H106v17.532Zm18.847,0h-7.232V225.423h7.232Z" transform="translate(-85.617 -216)" fill="#eefaff"/>
          <path id="Trazado_144492" data-name="Trazado 144492" d="M50,422h4.383v4.383H50Z" transform="translate(-50 -399.428)" fill="#eefaff"/>
          <path id="Trazado_144493" data-name="Trazado 144493" d="M50,342h4.383v4.383H50Z" transform="translate(-50 -328.194)" fill="#eefaff"/>
        </g>
      </g>
      <g id="Grupo_83417" data-name="Grupo 83417" transform="translate(0 0)">
        <path id="Trazado_144494" data-name="Trazado 144494" d="M55.006,32h-7.67V28.051a1.1,1.1,0,0,0-.839-1.065l-4.359-1.05A14.244,14.244,0,0,0,29.146,13.849V10.957H41.2a1.1,1.1,0,0,0,.775-1.871L38.366,5.479l3.608-3.608A1.1,1.1,0,0,0,41.2,0H28.051a1.1,1.1,0,0,0-1.1,1.1V13.849A14.244,14.244,0,0,0,13.964,25.935L9.6,26.985a1.1,1.1,0,0,0-.839,1.065V32H1.1a1.1,1.1,0,0,0-1.1,1.1V55.006a1.1,1.1,0,0,0,1.1,1.1H23.12a1.1,1.1,0,1,0,0-2.191H10.957V51.719H45.144V53.91H32.982a1.1,1.1,0,1,0,0,2.191H55.006a1.1,1.1,0,0,0,1.1-1.1V33.091A1.1,1.1,0,0,0,55.006,32ZM29.146,2.191h9.408L36.042,4.7a1.1,1.1,0,0,0,0,1.55l2.512,2.512H29.146ZM28.051,16a11.985,11.985,0,0,1,11.756,9.376L28.307,22.6a1.1,1.1,0,0,0-.513,0l-11.5,2.771A11.986,11.986,0,0,1,28.051,16ZM10.957,28.914l17.093-4.119,17.093,4.119V32H10.957Zm6.574,5.273v15.34H15.34V34.187Zm2.191,0h5.04v15.34h-5.04Zm7.232,0h2.191v15.34H26.955Zm4.383,0h5.04v15.34h-5.04Zm7.232,0h2.191v15.34H38.57ZM2.191,53.91V34.187H13.149v15.34H10.957V46.24a1.1,1.1,0,0,0-1.1-1.1H5.479a1.1,1.1,0,0,0-1.1,1.1v4.383a1.1,1.1,0,0,0,1.1,1.1H8.766V53.91Zm6.574-4.383H6.574V47.336H8.766ZM53.91,53.91H47.336V51.719h3.287a1.1,1.1,0,0,0,1.1-1.1V46.24a1.1,1.1,0,0,0-1.1-1.1H46.24a1.1,1.1,0,0,0-1.1,1.1v3.287H42.953V34.187H53.91Zm-6.574-4.383V47.336h2.191v2.191Z" transform="translate(0 0)"/>
        <path id="Trazado_144495" data-name="Trazado 144495" d="M412,333.1v4.383a1.1,1.1,0,0,0,1.1,1.1h4.383a1.1,1.1,0,0,0,1.1-1.1V333.1a1.1,1.1,0,0,0-1.1-1.1H413.1A1.1,1.1,0,0,0,412,333.1Zm2.191,1.1h2.191v2.191h-2.191Z" transform="translate(-366.856 -295.622)"/>
        <path id="Trazado_144496" data-name="Trazado 144496" d="M41.1,338.574h4.383a1.1,1.1,0,0,0,1.1-1.1V333.1a1.1,1.1,0,0,0-1.1-1.1H41.1a1.1,1.1,0,0,0-1.1,1.1v4.383A1.1,1.1,0,0,0,41.1,338.574Zm1.1-4.383h2.191v2.191H42.191Z" transform="translate(-35.617 -295.622)"/>
        <ellipse id="Elipse_4296" data-name="Elipse 4296" cy="0.5" ry="0.5" transform="translate(28.273 54.589)"/>
      </g>
    </g>
    <g id="camion" transform="translate(647.826 5059.207)">
      <g id="Grupo_83418" data-name="Grupo 83418" transform="translate(1.132 78.339)">
        <path id="Trazado_144501" data-name="Trazado 144501" d="M348.649,203.381h6.792V190.928l-10.189-15.849H332.8v28.3h4.528" transform="translate(-289.781 -167.155)" fill="#ff7758"/>
        <path id="Trazado_144502" data-name="Trazado 144502" d="M17.59,151.572H8.533V115.346H51.551v36.226H28.91" transform="translate(-8.533 -115.346)" fill="#ffba5b"/>
      </g>
      <g id="Grupo_83419" data-name="Grupo 83419" transform="translate(1.132 108.905)">
        <rect id="Rectngulo_31158" data-name="Rectngulo 31158" width="6.792" height="2.264" transform="translate(0 0)" fill="#f46b27"/>
        <rect id="Rectngulo_31159" data-name="Rectngulo 31159" width="20.377" height="2.264" transform="translate(22.641 0)" fill="#f46b27"/>
      </g>
      <rect id="Rectngulo_31160" data-name="Rectngulo 31160" width="4.528" height="2.264" transform="translate(62.264 108.905)" fill="#dbdbdb"/>
      <rect id="Rectngulo_31161" data-name="Rectngulo 31161" width="39.622" height="2.264" transform="translate(4.528 81.736)" fill="#f46b27"/>
      <g id="Grupo_83420" data-name="Grupo 83420" transform="translate(10.189 108.905)">
        <circle id="Elipse_4299" data-name="Elipse 4299" cx="5.66" cy="5.66" r="5.66" transform="translate(0 0)" fill="#126099"/>
        <circle id="Elipse_4300" data-name="Elipse 4300" cx="5.66" cy="5.66" r="5.66" transform="translate(38.49 0)" fill="#126099"/>
      </g>
      <g id="Grupo_83421" data-name="Grupo 83421" transform="translate(0 72.679)">
        <rect id="Rectngulo_31162" data-name="Rectngulo 31162" width="2.264" height="2.264" transform="translate(14.717 40.754)" fill="#dbdbdb"/>
        <rect id="Rectngulo_31163" data-name="Rectngulo 31163" width="2.264" height="2.264" transform="translate(53.207 40.754)" fill="#dbdbdb"/>
        <rect id="Rectngulo_31164" data-name="Rectngulo 31164" width="15.849" height="2.264" transform="translate(4.528)" fill="#dbdbdb"/>
        <rect id="Rectngulo_31165" data-name="Rectngulo 31165" width="2.264" height="2.264" fill="#dbdbdb"/>
      </g>
      <path id="Trazado_144503" data-name="Trazado 144503" d="M377.767,209.213H366.933V219.4h17.388Z" transform="translate(-318.254 -118.421)" fill="#87ced9"/>
      <path id="Trazado_144504" data-name="Trazado 144504" d="M384.321,223.472l-6.147-9.566A28.386,28.386,0,0,1,366.933,222v1.472h17.388Z" transform="translate(-318.254 -122.491)" fill="#6cbbc7"/>
      <path id="Trazado_144505" data-name="Trazado 144505" d="M57.554,115.258a1.134,1.134,0,0,0-.951-.521H45.283v-6.792a1.132,1.132,0,0,0-1.132-1.132H1.132A1.132,1.132,0,0,0,0,107.945v36.226A1.132,1.132,0,0,0,1.132,145.3H9.158a6.792,6.792,0,0,0,13.381,0H47.648a6.792,6.792,0,0,0,13.381,0h5.762a1.132,1.132,0,0,0,1.132-1.132V131.718a1.126,1.126,0,0,0-.181-.611Zm1.313,6.272L64,129.454H49.811V121.53ZM15.849,148.7a4.528,4.528,0,1,1,4.528-4.528A4.528,4.528,0,0,1,15.849,148.7Zm0-11.321a6.792,6.792,0,0,0-6.691,5.66H2.264v-2.264h5.66v-2.264H2.264V109.077H43.019v2.264H4.528v2.264h38.49v24.905H23.773v2.264H43.019v2.264H22.539A6.793,6.793,0,0,0,15.849,137.379ZM54.339,148.7a4.528,4.528,0,1,1,4.528-4.528A4.528,4.528,0,0,1,54.339,148.7Zm6.691-5.66a6.792,6.792,0,0,0-13.381,0H45.283V117h10.7l1.46,2.264H48.679a1.132,1.132,0,0,0-1.132,1.132v10.189a1.132,1.132,0,0,0,1.132,1.132H65.445l.215.328v6.464h-3.4v2.264h3.4v2.264H61.03Z" transform="translate(0 -29.606)"/>
      <rect id="Rectngulo_31167" data-name="Rectngulo 31167" width="2.264" height="2.264" transform="translate(14.717 113.433)"/>
      <rect id="Rectngulo_31168" data-name="Rectngulo 31168" width="2.264" height="2.264" transform="translate(53.207 113.433)"/>
      <rect id="Rectngulo_31169" data-name="Rectngulo 31169" width="15.849" height="2.264" transform="translate(4.528 72.679)"/>
      <rect id="Rectngulo_31170" data-name="Rectngulo 31170" width="2.264" height="2.264" transform="translate(0 72.679)"/>
    </g>
    <g id="agente-de-ventas" transform="translate(1054.585 5125.865)">
      <g id="Grupo_83422" data-name="Grupo 83422" transform="translate(1.878 29.986)">
        <path id="Trazado_144506" data-name="Trazado 144506" d="M2,58.594V45.419A11.418,11.418,0,0,1,13.419,34h10.54A11.418,11.418,0,0,1,35.377,45.419V58.594Z" transform="translate(-2 -34)" fill="#e8eff4"/>
      </g>
      <g id="Grupo_83424" data-name="Grupo 83424" transform="translate(15.054 36.134)">
        <path id="Trazado_144508" data-name="Trazado 144508" d="M22.27,41l-1.757,1.757L18.757,41,17,52.419l3.513,3.513,3.513-3.513Z" transform="translate(-17 -41)" fill="#ff7758"/>
      </g>
      <g id="Grupo_83426" data-name="Grupo 83426" transform="translate(14.175 29.986)">
        <path id="Trazado_144510" data-name="Trazado 144510" d="M16,34l4.392,3.513L24.784,34Z" transform="translate(-16 -34)" fill="#fadfb2"/>
      </g>
      <g id="Grupo_83427" data-name="Grupo 83427" transform="translate(18.567 29.986)">
        <path id="Trazado_144511" data-name="Trazado 144511" d="M21,37.513l3.513,3.513L28.027,34H25.392Z" transform="translate(-21 -34)" fill="#c7e2fc"/>
      </g>
      <g id="Grupo_83428" data-name="Grupo 83428" transform="translate(11.54 29.986)">
        <path id="Trazado_144512" data-name="Trazado 144512" d="M20.027,37.513l-3.513,3.513L13,34h2.635Z" transform="translate(-13 -34)" fill="#c7e2fc"/>
      </g>
      <g id="Grupo_83429" data-name="Grupo 83429" transform="translate(16.81 33.499)">
        <path id="Trazado_144513" data-name="Trazado 144513" d="M22.513,39.757,20.757,38,19,39.757l1.757,2.635Z" transform="translate(-19 -38)" fill="#a8575d"/>
      </g>
      <g id="Grupo_83430" data-name="Grupo 83430" transform="translate(8.905 7.148)">
        <path id="Trazado_144514" data-name="Trazado 144514" d="M19.662,8a5.27,5.27,0,0,1-5.27,5.27H10v7.905a9.662,9.662,0,1,0,19.324,0V13.27H24.932A5.27,5.27,0,0,1,19.662,8Z" transform="translate(-10 -8)" fill="#fadfb2"/>
      </g>
      <g id="Grupo_83431" data-name="Grupo 83431" transform="translate(8.905 7.148)">
        <path id="Trazado_144515" data-name="Trazado 144515" d="M26.669,13.27H24.932A5.27,5.27,0,0,1,19.662,8a5.27,5.27,0,0,1-5.27,5.27H10v7.905a9.626,9.626,0,0,0,3.021,7.006c7.447-.221,13.437-6.769,13.648-14.911Z" transform="translate(-10 -8)" fill="#fcecd1"/>
      </g>
      <g id="Grupo_83432" data-name="Grupo 83432" transform="translate(11.54 15.932)">
        <path id="Trazado_144516" data-name="Trazado 144516" d="M13,18h5.27v3.513H13Z" transform="translate(-13 -18)" fill="#c7e2fc"/>
      </g>
      <g id="Grupo_83433" data-name="Grupo 83433" transform="translate(20.324 15.932)">
        <path id="Trazado_144517" data-name="Trazado 144517" d="M23,18h5.27v3.513H23Z" transform="translate(-23 -18)" fill="#c7e2fc"/>
      </g>
      <g id="Grupo_83434" data-name="Grupo 83434" transform="translate(28.229 15.932)">
        <path id="Trazado_144518" data-name="Trazado 144518" d="M32,18v5.27h.878a2.635,2.635,0,1,0,0-5.27Z" transform="translate(-32 -18)" fill="#fadfb2"/>
      </g>
      <g id="Grupo_83435" data-name="Grupo 83435" transform="translate(5.392 15.932)">
        <path id="Trazado_144519" data-name="Trazado 144519" d="M9.513,18v5.27H8.635a2.635,2.635,0,1,1,0-5.27Z" transform="translate(-6 -18)" fill="#fadfb2"/>
      </g>
      <g id="Grupo_83436" data-name="Grupo 83436" transform="translate(5.392 1.878)">
        <path id="Trazado_144520" data-name="Trazado 144520" d="M26.834,2a3.645,3.645,0,0,0-2.577,1.067l-.69.69-.69-.69A3.644,3.644,0,0,0,20.3,2H12.741A6.743,6.743,0,0,0,7.132,12.482l2.381,3.571V12.54h4.392a5.27,5.27,0,0,0,5.27-5.27,5.27,5.27,0,0,0,5.27,5.27h4.392v3.513l1.7-2.552a10.787,10.787,0,0,0,1.812-5.984A5.517,5.517,0,0,0,26.834,2Z" transform="translate(-6 -2)" fill="#976947"/>
      </g>
      <g id="Grupo_83437" data-name="Grupo 83437" transform="translate(25.654 33.641)">
        <circle id="Elipse_4303" data-name="Elipse 4303" cx="10.644" cy="10.644" r="10.644" transform="translate(0 0)" fill="#ffba5b"/>
      </g>
      <g id="Grupo_83439" data-name="Grupo 83439" transform="translate(35.589 10.935)">
        <circle id="Elipse_4304" data-name="Elipse 4304" cx="9.225" cy="9.225" r="9.225" transform="translate(0 0)" fill="#c3b5ec"/>
      </g>
      <g id="Grupo_83441" data-name="Grupo 83441" transform="translate(1 29.107)">
        <path id="Trazado_144523" data-name="Trazado 144523" d="M36.134,59.351H1.878A.878.878,0,0,1,1,58.472V45.3A12.31,12.31,0,0,1,13.3,33h10.54a12.27,12.27,0,0,1,9.455,4.434l-1.35,1.123a10.518,10.518,0,0,0-8.1-3.8H13.3A10.552,10.552,0,0,0,2.757,45.3v12.3H36.134Z" transform="translate(-1 -33)"/>
      </g>
      <g id="Grupo_83442" data-name="Grupo 83442" transform="translate(8.027 6.27)">
        <path id="Trazado_144524" data-name="Trazado 144524" d="M19.54,31.594A10.552,10.552,0,0,1,9,21.054V13.148a.878.878,0,0,1,.878-.878H14.27a4.4,4.4,0,0,0,4.392-4.392.878.878,0,1,1,1.757,0A4.4,4.4,0,0,0,24.81,12.27H29.2a.878.878,0,0,1,.878.878v7.905A10.552,10.552,0,0,1,19.54,31.594ZM10.757,14.027v7.027a8.784,8.784,0,1,0,17.567,0V14.027H24.81a6.151,6.151,0,0,1-5.27-2.984,6.151,6.151,0,0,1-5.27,2.984Z" transform="translate(-9 -7)"/>
      </g>
      <g id="Grupo_83443" data-name="Grupo 83443" transform="translate(13.626 29.3)">
        <path id="Trazado_144525" data-name="Trazado 144525" d="M20.316,38.3a.879.879,0,0,1-.549-.192l-4.392-3.513,1.1-1.372,3.844,3.075,3.843-3.075,1.1,1.372L20.864,38.1A.875.875,0,0,1,20.316,38.3Z" transform="translate(-15.375 -33.219)"/>
      </g>
      <g id="Grupo_83444" data-name="Grupo 83444" transform="translate(10.755 29.592)">
        <path id="Trazado_144526" data-name="Trazado 144526" d="M16.4,41.851a.843.843,0,0,1-.141-.011.881.881,0,0,1-.645-.474l-3.513-7.027,1.571-.786,2.968,5.937L19.3,36.837l1.242,1.242-3.513,3.513a.876.876,0,0,1-.621.258Z" transform="translate(-12.106 -33.552)"/>
      </g>
      <g id="Grupo_83445" data-name="Grupo 83445" transform="translate(17.946 29.593)">
        <path id="Trazado_144527" data-name="Trazado 144527" d="M24.427,41.851a.878.878,0,0,1-.621-.257L20.293,38.08l1.242-1.242,2.652,2.652,2.968-5.937,1.571.786-3.513,7.027a.881.881,0,0,1-.645.474.947.947,0,0,1-.141.011Z" transform="translate(-20.293 -33.553)"/>
      </g>
      <g id="Grupo_83446" data-name="Grupo 83446" transform="translate(6.27 40.526)">
        <path id="Trazado_144528" data-name="Trazado 144528" d="M7,46H8.757V60.054H7Z" transform="translate(-7 -46)"/>
      </g>
      <g id="Grupo_83447" data-name="Grupo 83447" transform="translate(4.513 1)">
        <path id="Trazado_144529" data-name="Trazado 144529" d="M29.594,22.081h-.878V20.324h.878a1.757,1.757,0,1,0,0-3.513h-.878a.878.878,0,0,1-.731-1.365l1.7-2.552a9.885,9.885,0,0,0,1.664-5.5,4.644,4.644,0,0,0-4.639-4.639,2.749,2.749,0,0,0-1.957.811l-.689.689a.905.905,0,0,1-1.243,0l-.69-.69a2.744,2.744,0,0,0-1.955-.81H12.621a5.864,5.864,0,0,0-4.879,9.116l2.381,3.571a.879.879,0,0,1-.731,1.366H8.513a1.757,1.757,0,0,0,0,3.513h.878v1.757H8.513A3.514,3.514,0,0,1,7.8,15.127L6.28,12.847A7.62,7.62,0,0,1,12.621,1h7.558a4.5,4.5,0,0,1,3.2,1.324l.069.069.068-.068A4.5,4.5,0,0,1,26.712,1a6.4,6.4,0,0,1,6.4,6.4,11.632,11.632,0,0,1-1.959,6.471l-.841,1.26a3.514,3.514,0,0,1-.714,6.954Z" transform="translate(-5 -1)"/>
      </g>
      <g id="Grupo_83448" data-name="Grupo 83448" transform="translate(8.905 15.054)">
        <path id="Trazado_144530" data-name="Trazado 144530" d="M17.905,22.27h-5.27a.878.878,0,0,1-.878-.878V18.757H10V17h7.905a.878.878,0,0,1,.878.878v3.513A.878.878,0,0,1,17.905,22.27Zm-4.392-1.757h3.513V18.757H13.513Z" transform="translate(-10 -17)"/>
      </g>
      <g id="Grupo_83449" data-name="Grupo 83449" transform="translate(19.445 15.054)">
        <path id="Trazado_144531" data-name="Trazado 144531" d="M28.148,22.27h-5.27A.878.878,0,0,1,22,21.392V17.878A.878.878,0,0,1,22.878,17h7.905v1.757H29.027v2.635A.878.878,0,0,1,28.148,22.27Zm-4.392-1.757H27.27V18.757H23.757Z" transform="translate(-22 -17)"/>
      </g>
      <g id="Grupo_83450" data-name="Grupo 83450" transform="translate(16.81 16.81)">
        <path id="Trazado_144532" data-name="Trazado 144532" d="M19,19h3.513v1.757H19Z" transform="translate(-19 -19)"/>
      </g>
      <g id="Grupo_83451" data-name="Grupo 83451" transform="translate(15.054 22.959)">
        <path id="Trazado_144533" data-name="Trazado 144533" d="M20.513,30.392A3.517,3.517,0,0,1,17,26.878V26h1.757v.878a1.757,1.757,0,0,0,3.513,0V26h1.757v.878A3.517,3.517,0,0,1,20.513,30.392Z" transform="translate(-17 -26)"/>
      </g>
      <g id="Grupo_83452" data-name="Grupo 83452" transform="translate(14.175 34.377)">
        <path id="Trazado_144534" data-name="Trazado 144534" d="M20.392,56.567a.876.876,0,0,1-.621-.257L16.257,52.8a.877.877,0,0,1-.249-.746l1.757-12.3a.878.878,0,0,1,1.6-.363l1.026,1.539,1.026-1.539a.878.878,0,0,1,1.6.363l1.757,12.3a.877.877,0,0,1-.249.746L21.013,56.31a.876.876,0,0,1-.621.257Zm-2.581-4.7,2.581,2.582,2.581-2.581L21.6,42.278,21.123,43a.911.911,0,0,1-1.462,0l-.481-.722Z" transform="translate(-16 -38.999)"/>
      </g>
      <g id="Grupo_83453" data-name="Grupo 83453" transform="translate(34.377 9.784)">
        <path id="Trazado_144535" data-name="Trazado 144535" d="M49.54,32.081a10.54,10.54,0,1,1,10.54-10.54A10.552,10.552,0,0,1,49.54,32.081Zm0-19.324a8.784,8.784,0,1,0,8.784,8.784A8.794,8.794,0,0,0,49.54,12.757Z" transform="translate(-39 -11)"/>
      </g>
      <g id="Grupo_83454" data-name="Grupo 83454" transform="translate(32.621 37.891)">
        <path id="Trazado_144536" data-name="Trazado 144536" d="M40.513,55.3A3.517,3.517,0,0,1,37,51.784h1.757a1.757,1.757,0,1,0,1.757-1.757,3.513,3.513,0,1,1,3.513-3.513H42.27a1.757,1.757,0,1,0-1.757,1.757,3.513,3.513,0,1,1,0,7.027Z" transform="translate(-37 -43)"/>
      </g>
      <g id="Grupo_83455" data-name="Grupo 83455" transform="translate(35.256 36.134)">
        <path id="Trazado_144537" data-name="Trazado 144537" d="M40,41h1.757v2.635H40Z" transform="translate(-40 -41)"/>
      </g>
      <g id="Grupo_83456" data-name="Grupo 83456" transform="translate(35.256 49.31)">
        <path id="Trazado_144538" data-name="Trazado 144538" d="M40,56h1.757v2.635H40Z" transform="translate(-40 -56)"/>
      </g>
      <g id="Grupo_83457" data-name="Grupo 83457" transform="translate(24.716 32.621)">
        <path id="Trazado_144539" data-name="Trazado 144539" d="M39.419,59.837A11.419,11.419,0,1,1,50.837,48.419,11.432,11.432,0,0,1,39.419,59.837Zm0-21.081a9.662,9.662,0,1,0,9.662,9.662A9.673,9.673,0,0,0,39.419,38.757Z" transform="translate(-28 -37)"/>
      </g>
      <g id="Grupo_83458" data-name="Grupo 83458" transform="translate(40.783 17.068)">
        <path id="Trazado_144540" data-name="Trazado 144540" d="M48.671,26.062a.876.876,0,0,1-.621-.257l-1.757-1.757,1.242-1.242,1.136,1.136,4.649-4.649,1.242,1.242-5.27,5.27a.876.876,0,0,1-.621.257Z" transform="translate(-46.293 -19.293)"/>
      </g>
    </g>
    <g id="barco-de-carga" transform="translate(285 5116.953)">
      <path id="Trazado_144541" data-name="Trazado 144541" d="M234.572,243.379h10.086v5.969H234.572Z" transform="translate(-206.756 -211.213)" fill="#c3b5ec"/>
      <path id="Trazado_144542" data-name="Trazado 144542" d="M49.953,174.461l2.62,1.077,1.771-1.644v-13.2a1,1,0,0,0-1-1H39.428a1,1,0,0,0-1,1v11.337l1.987,2.372h9.227A.808.808,0,0,1,49.953,174.461Z" transform="translate(-33.873 -137.451)" fill="#e7ecf6"/>
      <path id="Trazado_144544" data-name="Trazado 144544" d="M213.953,67.968H209.3V35.424a.755.755,0,0,1,1.295-.529l2.822,2.875a1.881,1.881,0,0,1,.538,1.318Z" transform="translate(-184.479 -27.251)" fill="#675d84"/>
      <path id="Trazado_144546" data-name="Trazado 144546" d="M66.437,267.272a36.574,36.574,0,0,0-5.924,6.8,23.069,23.069,0,0,0-1.881,3.456q-.258.6-.471,1.192a16.46,16.46,0,0,0-1,5.971,1.681,1.681,0,0,1-1.686,1.709H17.045a5.039,5.039,0,0,1-5.037-5.039v-5.553a2.774,2.774,0,0,0-.187-1l-.286-.735L7.5,263.715H22.383a.812.812,0,0,1,.308.06l8.064,3.316a2.4,2.4,0,0,0,.915.181Z" transform="translate(-6.612 -229.137)" fill="#ff7758"/>
      <path id="Trazado_144548" data-name="Trazado 144548" d="M76.1,65.464H69.22a.98.98,0,0,0-.98.98V76.638h8.843V66.444a.98.98,0,0,0-.98-.98Z" transform="translate(-60.148 -54.396)" fill="#c3d5ef"/>
      <path id="Trazado_144549" data-name="Trazado 144549" d="M118.294,65.464h-2.187a.98.98,0,0,1,.98.98V76.638h2.187V66.444A.98.98,0,0,0,118.294,65.464Z" transform="translate(-102.339 -54.396)" fill="#b7c8ea"/>
      <path id="Trazado_144550" data-name="Trazado 144550" d="M91.46,229.284H87.087v-4.068a.565.565,0,0,1,.565-.565H90.9a.565.565,0,0,1,.565.565v4.068Z" transform="translate(-76.76 -194.707)" fill="#c3b5ec"/>
      <path id="Trazado_144551" data-name="Trazado 144551" d="M404.687,243.379h10.086v5.969H404.687Z" transform="translate(-356.698 -211.213)" fill="#c3b5ec"/>
      <path id="Trazado_144553" data-name="Trazado 144553" d="M319.63,243.379h10.086v5.969H319.63Z" transform="translate(-281.727 -211.213)" fill="#ffba5b"/>
      <path id="Trazado_144555" data-name="Trazado 144555" d="M404.687,193.043h10.086v5.969H404.687Z" transform="translate(-356.698 -166.846)" fill="#675d84"/>
      <path id="Trazado_144557" data-name="Trazado 144557" d="M342.982,98.649h10.086v5.969H342.982Z" transform="translate(-302.31 -83.646)" fill="#c3b5ec"/>
      <path id="Trazado_144559" data-name="Trazado 144559" d="M319.63,193.043h10.086v5.969H319.63Z" transform="translate(-281.727 -166.846)" fill="#ff7758"/>
      <g id="Grupo_83460" data-name="Grupo 83460" transform="translate(0.889 53.112)">
        <path id="Trazado_144562" data-name="Trazado 144562" d="M7.5,423.571c4.911,0,4.911-3.558,9.823-3.558s4.911,3.558,9.823,3.558,4.911-3.558,9.823-3.558,4.911,3.558,9.822,3.558,4.911-3.558,9.823-3.558,4.911,3.558,9.822,3.558v6.906H7.5Z" transform="translate(-7.501 -420.013)" fill="#d3effb"/>
        <path id="Trazado_144563" data-name="Trazado 144563" d="M56.614,420.013c-4.911,0-4.911,3.558-9.823,3.558s-4.911-3.558-9.822-3.558-4.911,3.558-9.823,3.558-4.911-3.558-9.823-3.558-4.911,3.558-9.823,3.558v2.679c4.911,0,4.911-3.558,9.823-3.558s4.911,3.558,9.823,3.558,4.911-3.558,9.823-3.558,4.911,3.558,9.822,3.558,4.911-3.558,9.823-3.558,4.911,3.558,9.822,3.558v-2.679C61.525,423.571,61.525,420.013,56.614,420.013Z" transform="translate(-7.5 -420.013)" fill="#b1e4f9"/>
      </g>
      <path id="Trazado_144564" data-name="Trazado 144564" d="M90.49,351.065a23.069,23.069,0,0,0-1.881,3.456q-.258.6-.471,1.192H41.984V352.8a2.774,2.774,0,0,0-.187-1l-.286-.735Z" transform="translate(-36.589 -306.129)" fill="#e7ecf6"/>
      <path id="Trazado_144565" data-name="Trazado 144565" d="M408.113,354.52q-.258.6-.471,1.192h3.21a22.058,22.058,0,0,1,2.352-4.647h-3.21A23.082,23.082,0,0,0,408.113,354.52Z" transform="translate(-359.302 -306.129)" fill="#d8e2f1"/>
      <g id="Grupo_83461" data-name="Grupo 83461" transform="translate(0 3.75)">
        <path id="Trazado_144566" data-name="Trazado 144566" d="M98.916,84.554a.889.889,0,0,0-.889.889V86.2a.889.889,0,0,0,1.779,0v-.761A.889.889,0,0,0,98.916,84.554Z" transform="translate(-86.403 -74.972)"/>
        <path id="Trazado_144567" data-name="Trazado 144567" d="M98.916,114.317a.889.889,0,0,0-.889.889v.762a.889.889,0,0,0,1.779,0v-.762A.889.889,0,0,0,98.916,114.317Z" transform="translate(-86.403 -101.206)"/>
        <path id="Trazado_144568" data-name="Trazado 144568" d="M61.276,183.5v-.762a.889.889,0,0,0-1.779,0v.762a.889.889,0,0,0,1.779,0Z" transform="translate(-52.442 -160.729)"/>
        <path id="Trazado_144569" data-name="Trazado 144569" d="M99.806,183.5v-.762a.889.889,0,0,0-1.779,0v.762a.889.889,0,1,0,1.779,0Z" transform="translate(-86.403 -160.729)"/>
        <path id="Trazado_144570" data-name="Trazado 144570" d="M137.446,184.389a.889.889,0,0,0,.889-.889v-.762a.889.889,0,0,0-1.779,0v.762A.889.889,0,0,0,137.446,184.389Z" transform="translate(-120.364 -160.729)"/>
        <path id="Trazado_144571" data-name="Trazado 144571" d="M59.825,55.78c-4.029,0-4.339-2.691-8.12-3.406,1.009-5.3,4.733-9.917,8.722-13.584a.889.889,0,0,0-.6-1.544h-.86V26.2a.889.889,0,0,0-.889-.889H37.9a.889.889,0,0,0-.889.889v5.08h-6.65v-16.6L44.826,8.832v5.282H40.672a.889.889,0,0,0-.889.889v5.969a.889.889,0,0,0,.889.889h2.959a.889.889,0,0,0,0-1.779h-2.07v-4.19h8.308v4.19H47.187a.889.889,0,0,0,0,1.779h3.572a.889.889,0,0,0,.889-.889V15a.889.889,0,0,0-.889-.889H46.6v-6l2.347-.948a.889.889,0,0,0-.666-1.649L30.364,12.755v-.918A2.755,2.755,0,0,0,29.571,9.9L26.749,7.021A1.645,1.645,0,0,0,23.93,8.173v7.18l-2.662,1.075a.889.889,0,1,0,.666,1.649l2-.806V36.9l-2.57-1.057V23.241a1.89,1.89,0,0,0-1.888-1.888H17.825v-9.3a1.872,1.872,0,0,0-1.87-1.87H13.4V7.738h.849a.889.889,0,1,0,0-1.779H13.4V4.639a.889.889,0,1,0-1.779,0v1.32h-.849a.889.889,0,0,0,0,1.779h.849v2.441H9.072a1.872,1.872,0,0,0-1.87,1.87v9.3H5.556a1.89,1.89,0,0,0-1.888,1.888v4.324a.889.889,0,0,0,1.779,0V23.241a.109.109,0,0,1,.109-.109H19.472a.109.109,0,0,1,.109.109V35.116l-3.164-1.3a1.7,1.7,0,0,0-.645-.127H15.59V30.51a1.456,1.456,0,0,0-1.454-1.454H10.892A1.456,1.456,0,0,0,9.438,30.51v3.178H5.446V31.121a.889.889,0,1,0-1.779,0v2.567H.889A.889.889,0,0,0,.061,34.9L4.093,45.258l.285.734a1.878,1.878,0,0,1,.127.679v5.553a5.934,5.934,0,0,0,.424,2.2A6.188,6.188,0,0,1,.889,55.78a.889.889,0,0,0,0,1.779C5.98,57.559,6.344,54,10.712,54c4.482,0,4.6,3.558,9.823,3.558S25.871,54,30.358,54s4.6,3.558,9.822,3.558S45.516,54,50,54s4.6,3.558,9.822,3.558a.889.889,0,0,0,0-1.779ZM8.981,21.353v-9.3a.091.091,0,0,1,.091-.091h6.882a.091.091,0,0,1,.091.091v9.3ZM38.792,37.246v-4.19H47.1v4.19Zm10.086-4.19h8.308v4.19H48.879Zm8.307-1.779H48.879v-4.19h8.308Zm-18.394-4.19H47.1v4.19H38.792Zm-1.779,5.969v4.19h-6.65v-4.19ZM25.709,8.5,28.3,11.142a.986.986,0,0,1,.284.695V37.246H25.709ZM11.216,30.835h2.595v2.853H11.216Zm4.54,4.632L23.8,38.776a3.276,3.276,0,0,0,1.254.249h32.56a35.765,35.765,0,0,0-4.194,5.022H5.53l-3.34-8.58ZM40.181,55.78c-4.482,0-4.6-3.558-9.822-3.558s-5.329,3.558-9.823,3.558-4.6-3.558-9.823-3.558a7.739,7.739,0,0,0-4.263,1.15,4.147,4.147,0,0,1-.164-1.148V50.473h29.84a.889.889,0,1,0,0-1.779H6.285V46.671a3.632,3.632,0,0,0-.1-.846h46.13a22.158,22.158,0,0,0-1.381,2.869H39.681a.889.889,0,0,0,0,1.779H50.332q-.249.873-.406,1.751c-5.153.037-5.283,3.557-9.745,3.557Z" transform="translate(0 -3.75)"/>
        <path id="Trazado_144572" data-name="Trazado 144572" d="M68.05,469.009c-1.133,0-1.341-1.162-3.21-1.162s-2.074,1.162-3.21,1.162a.889.889,0,1,0,0,1.779c1.87,0,2.074-1.162,3.21-1.162,1.118,0,1.356,1.162,3.21,1.162a.889.889,0,1,0,0-1.779Z" transform="translate(-53.538 -412.813)"/>
        <path id="Trazado_144573" data-name="Trazado 144573" d="M228.743,469.009c-1.133,0-1.341-1.162-3.21-1.162s-2.069,1.162-3.21,1.162a.889.889,0,0,0,0,1.779c1.87,0,2.074-1.162,3.21-1.162s1.341,1.162,3.21,1.162a.889.889,0,0,0,0-1.779Z" transform="translate(-195.176 -412.813)"/>
        <path id="Trazado_144574" data-name="Trazado 144574" d="M382.738,469.009c-1.118,0-1.356-1.162-3.21-1.162-1.87,0-2.074,1.162-3.21,1.162a.889.889,0,1,0,0,1.779c1.87,0,2.074-1.162,3.21-1.162s1.341,1.162,3.21,1.162a.889.889,0,0,0,0-1.779Z" transform="translate(-330.909 -412.813)"/>
        <path id="Trazado_144575" data-name="Trazado 144575" d="M389.642,317.732h1.63a.889.889,0,1,0,0-1.779h-1.63a.889.889,0,0,0,0,1.779Z" transform="translate(-342.653 -278.931)"/>
      </g>
    </g>
    <g id="internet" transform="translate(717.486 5268.813)">
      <path id="Trazado_144576" data-name="Trazado 144576" d="M57.112,33.556A23.556,23.556,0,1,1,33.556,10,23.556,23.556,0,0,1,57.112,33.556Zm0,0" transform="translate(-9.042 -9.042)" fill="#c3b5ec"/>
      <path id="Trazado_144577" data-name="Trazado 144577" d="M139.847,10.117a12.3,12.3,0,0,0-12.3,12.3v22.5a12.3,12.3,0,0,0,24.6,0v-22.5A12.3,12.3,0,0,0,139.847,10.117Zm0,0" transform="translate(-115.333 -9.148)" fill="#f2edff"/>
      <path id="Trazado_144578" data-name="Trazado 144578" d="M113.071,454.969h-27a3.13,3.13,0,0,1-3.068-3.14v-1.841h33.13v1.841A3.13,3.13,0,0,1,113.071,454.969Zm0,0" transform="translate(-75.059 -406.899)" fill="#c3b5ec"/>
      <path id="Trazado_144579" data-name="Trazado 144579" d="M142.351,274.576H115.43V258.692A2.692,2.692,0,0,1,118.122,256h21.537a2.692,2.692,0,0,1,2.692,2.692Zm0,0" transform="translate(-104.377 -231.486)" fill="#fff"/>
      <path id="Trazado_144580" data-name="Trazado 144580" d="M46.462,35.443A24.519,24.519,0,0,0,24.514,0,24.523,24.523,0,0,0,2.565,35.442a24.744,24.744,0,0,0,5,6.772.957.957,0,0,0-.569.875V44.93a4.066,4.066,0,0,0,4.025,4.1h27a4.066,4.066,0,0,0,4.025-4.1V43.089a.957.957,0,0,0-.569-.875A24.727,24.727,0,0,0,46.462,35.443ZM7.42,39.3a11.154,11.154,0,0,1,2.676-1.17v3.784A22.843,22.843,0,0,1,7.42,39.3ZM6.235,11.241a13.128,13.128,0,0,0,5.022,1.866c0,.054,0,.108,0,.162V23.556H1.937A22.467,22.467,0,0,1,6.235,11.241Zm6.936,2.028v-.012l.093,0H23.556v10.3H13.745a3.633,3.633,0,0,0-.574.046Zm12.3-11.3a11.365,11.365,0,0,1,10.221,9.376H25.471Zm-1.915,0v9.376H13.335A11.365,11.365,0,0,1,23.556,1.967Zm1.915,11.291H35.764l.093,0V23.6a3.637,3.637,0,0,0-.574-.046H25.471Zm21.619,10.3H37.771V13.269c0-.054,0-.108,0-.162a13.12,13.12,0,0,0,5.023-1.866A22.47,22.47,0,0,1,47.091,23.556Zm-8.159,18.36V38.132A11.161,11.161,0,0,1,41.607,39.3,22.866,22.866,0,0,1,38.932,41.916Zm3.877-4.122a13.062,13.062,0,0,0-3.877-1.644V27.206a3.63,3.63,0,0,0-.439-1.734h8.6A22.432,22.432,0,0,1,42.809,37.794ZM41.595,9.732a11.221,11.221,0,0,1-3.986,1.461A13.231,13.231,0,0,0,33.979,4,22.726,22.726,0,0,1,41.595,9.732ZM15.049,4a13.234,13.234,0,0,0-3.63,7.2A11.227,11.227,0,0,1,7.433,9.732,22.729,22.729,0,0,1,15.049,4ZM1.937,25.471h8.6a3.626,3.626,0,0,0-.439,1.734V36.15a13.074,13.074,0,0,0-3.877,1.644A22.431,22.431,0,0,1,1.937,25.471ZM40.121,44.93a2.176,2.176,0,0,1-2.11,2.182h-27a2.176,2.176,0,0,1-2.11-2.182v-.883h10.58a.958.958,0,0,0,0-1.915H12.011V27.206a1.736,1.736,0,0,1,1.734-1.734H35.282a1.736,1.736,0,0,1,1.734,1.734V42.132H30.044a.958.958,0,1,0,0,1.915H40.121Zm0,0"/>
      <path id="Trazado_144581" data-name="Trazado 144581" d="M250.629,439.988a.959.959,0,1,0,.677.281A.962.962,0,0,0,250.629,439.988Zm0,0" transform="translate(-225.764 -397.857)"/>
      <path id="Trazado_144582" data-name="Trazado 144582" d="M205.454,312.636a.958.958,0,0,0,0-1.354,8.032,8.032,0,0,0-11.346,0,.958.958,0,0,0,1.354,1.354,6.115,6.115,0,0,1,8.638,0,.957.957,0,0,0,1.354,0Zm0,0" transform="translate(-175.268 -279.353)"/>
      <path id="Trazado_144583" data-name="Trazado 144583" d="M224.168,347.035a4.342,4.342,0,0,0-3.09,1.28.957.957,0,0,0,1.354,1.354,2.455,2.455,0,0,1,3.473,0,.957.957,0,0,0,1.354-1.354A4.342,4.342,0,0,0,224.168,347.035Zm0,0" transform="translate(-199.654 -313.804)"/>
      <path id="Trazado_144584" data-name="Trazado 144584" d="M247.635,385.166a.957.957,0,1,0-.677.281A.965.965,0,0,0,247.635,385.166Zm0,0" transform="translate(-222.444 -346.806)"/>
    </g>
  </g>
</svg>
