<svg xmlns="http://www.w3.org/2000/svg" width="84.963" height="84.16" viewBox="0 0 84.963 84.16">
  <g id="vision" transform="translate(0 -0.001)">
    <path id="Trazado_102192" data-name="Trazado 102192" d="M218.741,175.944a2.7,2.7,0,0,1,.278-1.173l-2.475-1.177a5.426,5.426,0,0,0-.544,2.35,5.459,5.459,0,0,0,7.834,4.938l-1.18-2.474A2.751,2.751,0,0,1,218.741,175.944Zm0,0" transform="translate(-179 -143.857)" fill="#ff7758"/>
    <path id="Trazado_102193" data-name="Trazado 102193" d="M236.618,155.313a5.442,5.442,0,0,0-2.353.544l1.18,2.474a2.75,2.75,0,0,1,3.914,2.464,2.7,2.7,0,0,1-.278,1.173l2.475,1.177a5.426,5.426,0,0,0,.544-2.35A5.487,5.487,0,0,0,236.618,155.313Zm0,0" transform="translate(-194.137 -128.707)" fill="#ff7758"/>
    <path id="Trazado_102194" data-name="Trazado 102194" d="M322.741,52.107h10.4l-1.772,1.772,1.938,1.938,5.08-5.08-5.08-5.08-1.938,1.938,1.772,1.772H320V60.329h2.741Zm0,0" transform="translate(-265.185 -37.835)" fill="#ff7758"/>
    <path id="Trazado_102195" data-name="Trazado 102195" d="M75.705,53.878l-1.772-1.772h10.4v8.222H87.07V49.366H73.933l1.772-1.772-1.938-1.938-5.08,5.08,5.08,5.08Zm0,0" transform="translate(-56.922 -37.835)" fill="#ff7758"/>
    <path id="Trazado_102196" data-name="Trazado 102196" d="M176.23,348.124l.685-2.741,2.659.664-.685,2.741Zm0,0" transform="translate(-146.043 -286.219)" fill="#ff7758"/>
    <path id="Trazado_102197" data-name="Trazado 102197" d="M240,387.313h2.741v2.741H240Zm0,0" transform="translate(-198.889 -320.967)" fill="#ff7758"/>
    <path id="Trazado_102198" data-name="Trazado 102198" d="M300.211,346.032l2.659-.664.685,2.741-2.659.665Zm0,0" transform="translate(-248.786 -286.206)" fill="#ff7758"/>
    <path id="Trazado_102199" data-name="Trazado 102199" d="M78.111,58.123a6.852,6.852,0,0,0,0-13.7,6.506,6.506,0,0,0-1.293.131,6.82,6.82,0,0,0-7.443-2.6A8.175,8.175,0,0,0,55.95,43.031l-1.916-3.407a21.326,21.326,0,0,0,3.453-2.792l4.747-4.747-4.747-4.748A21.05,21.05,0,0,0,43.852,21.19V5.246l1.772,1.772L47.562,5.08,42.481,0,37.4,5.08l1.938,1.938,1.772-1.772V21.19a21.059,21.059,0,0,0-13.635,6.148l-.792.792a8.192,8.192,0,0,0-11.91,2.67,7.03,7.03,0,0,0-1.07-.084,8.235,8.235,0,0,0-8.128,6.971A6.852,6.852,0,0,0,6.852,51.271H24.379l-4.655,8.277a6.578,6.578,0,0,0-4.591,2.8L.136,84.16H84.827l-15-21.814a6.574,6.574,0,0,0-4.591-2.8l-.8-1.425ZM63.037,41.679a5.439,5.439,0,0,1,4.667,2.65l.648,1.066,1.121-.545a4.061,4.061,0,0,1,5.472,1.906l.545,1.127,1.172-.442a4.068,4.068,0,0,1,5.56,3.83,4.116,4.116,0,0,1-4.111,4.111H62.9l-5.217-9.276A5.467,5.467,0,0,1,63.037,41.679ZM34.259,32.086a8.222,8.222,0,1,1,8.222,8.222A8.23,8.23,0,0,1,34.259,32.086Zm24.1,0L55.55,34.9a18.517,18.517,0,0,1-3.691,2.84,10.858,10.858,0,0,0,0-11.3,18.539,18.539,0,0,1,3.691,2.839ZM33.1,26.436a10.858,10.858,0,0,0,0,11.3,18.567,18.567,0,0,1-3.691-2.84L26.6,32.086l2.809-2.811A18.577,18.577,0,0,1,33.1,26.436ZM6.852,48.531a4.111,4.111,0,0,1,0-8.222h1.37v-1.37a5.393,5.393,0,0,1,6.958-5.25l1.2.335.448-1.161a5.412,5.412,0,0,1,7.865-2.738l-1.963,1.963,4.747,4.748a21.587,21.587,0,0,0,3.453,2.792l-5.008,8.9ZM17.391,63.9a3.84,3.84,0,0,1,6.329,0l3.688,5.364v5.3a1.37,1.37,0,0,1-2.741,0V73.2a4.111,4.111,0,1,0-8.222,0v2.741a1.37,1.37,0,0,1-2.741,0V69.263ZM5.346,81.419l5.617-8.17v2.689a4.111,4.111,0,1,0,8.222,0V73.2a1.37,1.37,0,1,1,2.741,0v1.37a4.111,4.111,0,0,0,8.222,0V73.249l5.617,8.17Zm33.745,0L25.978,62.347a6.57,6.57,0,0,0-3.286-2.487l10.632-18.9q.931.446,1.9.8L31.559,56.421l2.659.663,3.639-14.556a21.283,21.283,0,0,0,3.253.454V63.6h2.741V42.982a21.283,21.283,0,0,0,3.253-.454l3.639,14.556,2.659-.663L49.738,41.756q.971-.352,1.9-.8l10.632,18.9a6.569,6.569,0,0,0-3.286,2.487L45.872,81.419Zm10.106,0,5.617-8.17v2.689a4.111,4.111,0,1,0,8.222,0V73.2a1.37,1.37,0,1,1,2.741,0v1.37a4.111,4.111,0,0,0,8.222,0V73.249l5.617,8.17ZM67.572,63.9l3.688,5.364v5.3a1.37,1.37,0,0,1-2.741,0V73.2a4.111,4.111,0,1,0-8.222,0v2.741a1.37,1.37,0,0,1-2.741,0V69.263L61.243,63.9a3.84,3.84,0,0,1,6.329,0Zm0,0" transform="translate(0 0.001)" fill="#ff7758"/>
    <path id="Trazado_102200" data-name="Trazado 102200" d="M416,211.313h2.741v2.741H416Zm0,0" transform="translate(-344.741 -175.115)" fill="#ff7758"/>
    <path id="Trazado_102201" data-name="Trazado 102201" d="M448,211.313h2.741v2.741H448Zm0,0" transform="translate(-371.259 -175.115)" fill="#ff7758"/>
    <path id="Trazado_102202" data-name="Trazado 102202" d="M480,211.313h2.741v2.741H480Zm0,0" transform="translate(-397.778 -175.115)" fill="#ff7758"/>
    <path id="Trazado_102203" data-name="Trazado 102203" d="M0,315.313H2.741v2.741H0Zm0,0" transform="translate(0 -261.3)" fill="#ff7758"/>
    <path id="Trazado_102204" data-name="Trazado 102204" d="M32,315.313h2.741v2.741H32Zm0,0" transform="translate(-26.519 -261.3)" fill="#ff7758"/>
    <path id="Trazado_102205" data-name="Trazado 102205" d="M64,315.313h2.741v2.741H64Zm0,0" transform="translate(-53.037 -261.3)" fill="#ff7758"/>
  </g>
</svg>
