<svg id="mapa-2" xmlns="http://www.w3.org/2000/svg" width="84.623" height="84.623" viewBox="0 0 84.623 84.623">
  <path id="Trazado_102206" data-name="Trazado 102206" d="M89.629,355.331H7.478l12.2-29.53H77.43Z" transform="translate(-6.242 -271.953)" fill="#ffba5b"/>
  <path id="Trazado_102208" data-name="Trazado 102208" d="M111.456,342.285l-2.712-6.565H76.632L65.289,325.8H57.984l-4.1,9.919H42.795l-2.712,6.565H51.174l-5.389,13.046h7.306l9.086-21.995,25.856,21.995H99.056L84.138,342.285Z" transform="translate(-33.458 -271.953)" fill="#c3b5ec"/>
  <g id="Grupo_54011" data-name="Grupo 54011" transform="translate(9.337 53.848)">
    <path id="Trazado_102210" data-name="Trazado 102210" d="M67.582,335.72H56.491l4.1-9.919H71.68Z" transform="translate(-56.491 -325.801)" fill="#ffba5b"/>
    <path id="Trazado_102211" data-name="Trazado 102211" d="M236.045,335.72H203.933L192.59,325.8h39.357Z" transform="translate(-170.096 -325.801)" fill="#ffba5b"/>
  </g>
  <path id="Trazado_102213" data-name="Trazado 102213" d="M127.872,371.389l-9.086,21.995h34.942Z" transform="translate(-99.153 -310.006)" fill="#ffba5b"/>
  <path id="Trazado_102214" data-name="Trazado 102214" d="M127.42,7.534a25.556,25.556,0,0,0-25.459,25.651c0,21.573,25.459,41.422,25.459,41.422S152.88,54.758,152.88,33.185A25.556,25.556,0,0,0,127.42,7.534Zm0,35.882a10.231,10.231,0,1,1,10.154-10.231A10.193,10.193,0,0,1,127.42,43.416Z" transform="translate(-85.109 -6.289)" fill="#ff7758"/>
  <path id="Trazado_102216" data-name="Trazado 102216" d="M198.474,116.249a11.476,11.476,0,0,0,0-22.952,11.268,11.268,0,0,0-6.45,2.016,1.251,1.251,0,0,0-.318,1.732,1.23,1.23,0,0,0,1.719.32,8.82,8.82,0,0,1,5.049-1.577,8.96,8.96,0,1,1-7.917,4.844,1.25,1.25,0,0,0-.526-1.679,1.231,1.231,0,0,0-1.667.53,11.578,11.578,0,0,0-1.28,5.291A11.447,11.447,0,0,0,198.474,116.249Z" transform="translate(-156.163 -77.877)"/>
  <path id="Trazado_102217" data-name="Trazado 102217" d="M84.528,82.9,72.33,53.37h0a1.236,1.236,0,0,0-1.141-.767H59.033A63.03,63.03,0,0,0,64.9,43.019a36.949,36.949,0,0,0,4.1-16.122,26.7,26.7,0,1,0-53.391,0,36.948,36.948,0,0,0,4.1,16.122A63,63,0,0,0,25.59,52.6H13.435a1.236,1.236,0,0,0-1.141.767L3.982,73.492a1.248,1.248,0,0,0,.666,1.628,1.224,1.224,0,0,0,.474.1,1.236,1.236,0,0,0,1.141-.767l1.186-2.871h8.414L11.5,82.132H3.089l1.264-3.06a1.248,1.248,0,0,0-.666-1.628,1.232,1.232,0,0,0-1.616.671L.1,82.9a1.252,1.252,0,0,0,.113,1.169,1.233,1.233,0,0,0,1.028.554H83.387a1.234,1.234,0,0,0,1.028-.554A1.253,1.253,0,0,0,84.528,82.9Zm-66.44-56a24.224,24.224,0,1,1,48.447,0c0,5.643-1.946,14.661-10.949,26.152l-.026.033q-.69.879-1.435,1.778A95.091,95.091,0,0,1,42.312,66.718,94.943,94.943,0,0,1,30.53,54.9q-.765-.92-1.469-1.82l-.023-.029C20.036,41.559,18.088,32.541,18.088,26.9Zm-3.83,28.2h8.414L19.6,62.522H11.19Zm7.227,27.039,7.725-18.7L51.2,82.132Zm33.541,0-25.511-21.7a1.231,1.231,0,0,0-1.938.473L18.809,82.132H14.181L18.857,70.81a1.252,1.252,0,0,0-.113-1.169,1.233,1.233,0,0,0-1.028-.554H8.479l1.683-4.074H20.428a1.236,1.236,0,0,0,1.141-.767l3.781-9.153H27.5q.559.7,1.139,1.4A93.248,93.248,0,0,0,41.556,69.3a1.229,1.229,0,0,0,1.513,0c.145-.113,2.108-1.654,4.9-4.291h14a1.245,1.245,0,0,0,0-2.49H50.52c1.714-1.736,3.587-3.76,5.47-6.026q.583-.7,1.139-1.4H70.365l3.069,7.429H66.912a1.245,1.245,0,0,0,0,2.49h7.55l1.683,4.074H50.681a1.236,1.236,0,0,0-1.158.81,1.252,1.252,0,0,0,.348,1.376l12.418,10.86Zm11.032,0L53.99,71.577H77.174l4.36,10.555Z" transform="translate(-0.001 0)"/>
</svg>
