<svg id="barra-grafica" xmlns="http://www.w3.org/2000/svg" width="80.693" height="85" viewBox="0 0 80.693 85">
  <path id="Trazado_145278" data-name="Trazado 145278" d="M338.594,203.05h11.531V155.634a4.251,4.251,0,0,0-4.25-4.251h-3.03a4.251,4.251,0,0,0-4.251,4.251Zm0,0" transform="translate(-282.382 -126.251)" fill="#c3b5ec"/>
  <path id="Trazado_145279" data-name="Trazado 145279" d="M220.949,264.319h11.53V229.1a4.25,4.25,0,0,0-4.25-4.25H225.2a4.25,4.25,0,0,0-4.25,4.25Zm0,0" transform="translate(-184.268 -187.519)" fill="#ffba5b"/>
  <path id="Trazado_145280" data-name="Trazado 145280" d="M103.3,326.7h11.53V303.9a4.25,4.25,0,0,0-4.25-4.25h-3.03a4.25,4.25,0,0,0-4.25,4.25Zm0,0" transform="translate(-86.151 -249.902)" fill="#ff7758"/>
  <path id="Trazado_145284" data-name="Trazado 145284" d="M81.61,145.307H15.7V87.725a4.1,4.1,0,1,0-8.192,0v59.7a6.073,6.073,0,0,0,6.073,6.073H81.61a4.1,4.1,0,0,0,0-8.193Zm0,0" transform="translate(-6.258 -69.745)" fill="#675d84"/>
  <path id="Trazado_145285" data-name="Trazado 145285" d="M117.533,88.4a2.781,2.781,0,0,0-2.105-1.112l-9.617-.411a2.777,2.777,0,1,0-.237,5.549l2.067.089L85.194,109.994a2.777,2.777,0,0,0,3.412,4.383l22.07-17.182-.384,1.545a2.746,2.746,0,0,0,2.025,3.365,2.791,2.791,0,0,0,3.365-2.025L118,90.738A2.775,2.775,0,0,0,117.533,88.4Zm0,0" transform="translate(-70.154 -72.456)" fill="#ff7758"/>
  <path id="Trazado_145286" data-name="Trazado 145286" d="M333.941,8.83l1.261,2.556,2.821.41a2.385,2.385,0,0,1,1.322,4.068l-2.041,1.99.482,2.809a2.385,2.385,0,0,1-3.46,2.514L331.8,21.85l-2.523,1.327a2.385,2.385,0,0,1-3.46-2.514l.482-2.809-2.041-1.99a2.385,2.385,0,0,1,1.322-4.068l2.821-.41,1.261-2.556A2.385,2.385,0,0,1,333.941,8.83Zm0,0" transform="translate(-269.826 -6.256)" fill="#ffba5b"/>
  <path id="Trazado_145287" data-name="Trazado 145287" d="M75.352,137.807H57.457V92.873a3.009,3.009,0,0,1,3.005-3.006h3.03A3.009,3.009,0,0,1,66.5,92.873v40.838a1.245,1.245,0,1,0,2.49,0V92.873a5.5,5.5,0,0,0-5.5-5.5h-3.03a5.5,5.5,0,0,0-5.5,5.5v44.934h-5.51V105.069a5.5,5.5,0,0,0-5.5-5.5h-3.03a5.5,5.5,0,0,0-5.5,5.5v32.738h-5.51v-20.32a5.5,5.5,0,0,0-5.5-5.5H21.4a5.5,5.5,0,0,0-5.5,5.5v20.32h-5.22V81.471A5.342,5.342,0,0,0,0,81.471v38.5a1.245,1.245,0,0,0,2.49,0v-38.5a2.851,2.851,0,0,1,5.7,0v57.581A1.245,1.245,0,0,0,9.438,140.3H75.352a2.851,2.851,0,0,1,0,5.7H7.318a4.834,4.834,0,0,1-4.828-4.827V125.4a1.245,1.245,0,0,0-2.49,0v15.768a7.327,7.327,0,0,0,7.318,7.318H75.352a5.342,5.342,0,1,0,0-10.683ZM37.925,105.069a3.009,3.009,0,0,1,3.006-3.005h3.03a3.008,3.008,0,0,1,3.005,3.005v32.738H37.925ZM18.395,117.487a3.009,3.009,0,0,1,3.005-3.005h3.03a3.009,3.009,0,0,1,3.005,3.005v20.32H18.395Zm0,0" transform="translate(0 -63.49)"/>
  <path id="Trazado_145288" data-name="Trazado 145288" d="M82.836,109.1l2.77-2.156a1.245,1.245,0,0,0-1.53-1.965l-2.77,2.156a1.5,1.5,0,0,1-2.156-.275,1.619,1.619,0,0,1,.274-2.143L101.87,87.245a1.245,1.245,0,0,0-.711-2.227l-2.067-.088a1.532,1.532,0,1,1,.131-3.061l9.617.411a1.532,1.532,0,0,1,1.422,1.9l-2.322,9.342a1.567,1.567,0,0,1-1.9,1.108,1.441,1.441,0,0,1-1.077-1.847l.385-1.546a1.245,1.245,0,0,0-1.973-1.283L88.341,101.66a1.245,1.245,0,0,0,1.529,1.965l12.611-9.818a3.594,3.594,0,0,0,3.04,3.258,3.978,3.978,0,0,0,4.834-2.942l2.322-9.342a4.021,4.021,0,0,0-3.731-4.989l-9.619-.412a4.022,4.022,0,0,0-1.465,7.827L77.894,102.754a3.894,3.894,0,0,0-.7,5.652C79.279,111.337,82.231,109.572,82.836,109.1Zm0,0" transform="translate(-63.619 -66.199)"/>
  <path id="Trazado_145289" data-name="Trazado 145289" d="M318.708,12.032l-.372,2.164a3.63,3.63,0,0,0,5.267,3.827L325.547,17l1.944,1.022a3.914,3.914,0,0,0,3.822-.276,3.571,3.571,0,0,0,1.444-3.55l-.372-2.165,1.573-1.532a3.629,3.629,0,0,0-2.012-6.191l-2.173-.316L328.8,2.024a3.63,3.63,0,0,0-6.51,0l-.971,1.969-2.173.315a3.63,3.63,0,0,0-2.012,6.191Zm-.123-4.484a1.12,1.12,0,0,1,.92-.776l2.821-.41a1.244,1.244,0,0,0,.937-.681l1.262-2.556a1.14,1.14,0,0,1,2.043,0l1.261,2.556a1.247,1.247,0,0,0,.938.681l2.821.41a1.14,1.14,0,0,1,.631,1.944l-2.041,1.99a1.243,1.243,0,0,0-.358,1.1l.482,2.809a1.139,1.139,0,0,1-1.654,1.2l-2.523-1.326a1.165,1.165,0,0,0-1.158,0l-2.523,1.326a1.14,1.14,0,0,1-1.654-1.2l.482-2.809a1.243,1.243,0,0,0-.358-1.1l-2.041-1.99A1.119,1.119,0,0,1,318.585,7.548Zm0,0" transform="translate(-263.57)"/>
</svg>
