<svg xmlns="http://www.w3.org/2000/svg" width="79.998" height="79.998" viewBox="0 0 79.998 79.998">
  <g id="rol" transform="translate(-1 -1)">
    <path id="Trazado_144008" data-name="Trazado 144008" d="M6,27H21.483V42.483H6Z" transform="translate(1.451 7.548)" fill="#cf9e76"/>
    <path id="Trazado_144009" data-name="Trazado 144009" d="M31.586,28.068l-1.832,1.819.542,2.993-2.49,1.729v5.161L30.3,41.5l-.542,2.993,1.832,1.832-1.006.994L9.626,60.261a38.711,38.711,0,0,1,0-46.141L30.58,27.062Z" transform="translate(0.29 3.809)" fill="#e6e9ed"/>
    <path id="Trazado_144010" data-name="Trazado 144010" d="M6,27H21.483V42.483H6Z" transform="translate(1.451 7.548)" fill="#cf9e76"/>
    <g id="Grupo_83149" data-name="Grupo 83149" transform="translate(17.929 2.29)">
      <path id="Trazado_144011" data-name="Trazado 144011" d="M47.319,30.58l-.994,1.006-1.832-1.832L41.5,30.3l-1.729-2.49H34.61L32.881,30.3l-2.993-.542-1.819,1.832L27.062,30.58,14.12,9.626a38.711,38.711,0,0,1,46.141,0Z" transform="translate(-14.12 -2)" fill="#e6e9ed"/>
      <path id="Trazado_144012" data-name="Trazado 144012" d="M47.319,40.074l-.994-.994L44.493,40.9,41.5,40.357l-1.729,2.49H34.61l-1.729-2.49-2.993.542L28.068,39.08l-1.006.994L14.12,61.028a38.377,38.377,0,0,0,17.909,7.277H42.352a38.377,38.377,0,0,0,17.909-7.277Z" transform="translate(-14.12 8.764)" fill="#e6e9ed"/>
      <path id="Trazado_144013" data-name="Trazado 144013" d="M40.9,44.493,40.357,41.5l2.49-1.729V34.61l-2.49-1.729.542-2.993L39.08,28.068l.994-1.006L61.028,14.12a38.711,38.711,0,0,1,0,46.141L40.074,47.319l-.994-.994Z" transform="translate(-6.874 1.518)" fill="#e6e9ed"/>
    </g>
    <path id="Trazado_144014" data-name="Trazado 144014" d="M49,36h7.742v5.161H49Z" transform="translate(13.934 10.16)" fill="#b27946"/>
    <path id="Trazado_144015" data-name="Trazado 144015" d="M38.322,58v4.813a38.4,38.4,0,0,1-10.322,0V58Z" transform="translate(7.838 16.547)" fill="#aab2bd"/>
    <path id="Trazado_144016" data-name="Trazado 144016" d="M44.645,54v2.581a2.588,2.588,0,0,1-2.581,2.581H26.581A2.588,2.588,0,0,1,24,56.581V54Z" transform="translate(6.677 15.385)" fill="#ccd1d9"/>
    <path id="Trazado_144017" data-name="Trazado 144017" d="M44.645,48.581v7.742H24V48.581A2.588,2.588,0,0,1,26.581,46H42.064A2.588,2.588,0,0,1,44.645,48.581Z" transform="translate(6.677 13.063)" fill="#69d6f4"/>
    <path id="Trazado_144018" data-name="Trazado 144018" d="M10,35h5.161v5.161H10Z" transform="translate(2.613 9.87)" fill="#b27946"/>
    <path id="Trazado_144019" data-name="Trazado 144019" d="M10,27h5.161v5.161H10Z" transform="translate(2.613 7.548)" fill="#b27946"/>
    <path id="Trazado_144020" data-name="Trazado 144020" d="M41.483,21.485H26a4.142,4.142,0,0,1,2.31-3.729l2.852-1.432V15.317a3.853,3.853,0,0,1-1.29-2.864V9.872A3.875,3.875,0,0,1,33.948,6a4.036,4.036,0,0,1,3.664,4.09v2.361a3.853,3.853,0,0,1-1.29,2.864v1.006l2.852,1.432A4.142,4.142,0,0,1,41.483,21.485Z" transform="translate(7.257 1.45)" fill="#ff7758"/>
    <path id="Trazado_144021" data-name="Trazado 144021" d="M54.032,39.774H50.161A8.438,8.438,0,0,1,45,32.032a9.032,9.032,0,1,1,18.064,0A8.438,8.438,0,0,1,57.9,39.774Z" transform="translate(12.773 6.386)" fill="#ffba5b"/>
    <circle id="Elipse_4259" data-name="Elipse 4259" cx="2.5" cy="2.5" r="2.5" transform="translate(64 35.998)" fill="#ffc729"/>
    <path id="Trazado_144022" data-name="Trazado 144022" d="M47.806,32.322v5.161l-2.49,1.729.542,2.993-1.819,1.832-1.832,1.819-2.993-.542-1.729,2.49H32.322l-1.729-2.49-2.993.542-1.819-1.819-1.832-1.832.542-2.993L22,37.483V32.322l2.49-1.729L23.948,27.6l1.832-1.819L27.6,23.948l2.993.542L32.322,22h5.161l1.729,2.49,2.993-.542,1.832,1.832L45.857,27.6l-.542,2.993ZM40.064,34.9A5.161,5.161,0,1,0,34.9,40.064,5.16,5.16,0,0,0,40.064,34.9Z" transform="translate(6.096 6.096)" fill="#ffba5b"/>
    <path id="Trazado_144023" data-name="Trazado 144023" d="M43.064,23.064v-1.29a5.435,5.435,0,0,0-3.022-4.889l-1.952-.975a5.141,5.141,0,0,0,1.1-3.168V10.38a5.275,5.275,0,0,0-4.885-5.373A5.114,5.114,0,0,0,30.48,6.417a5.182,5.182,0,0,0-1.609,3.744v2.581a5.148,5.148,0,0,0,1.1,3.168l-1.952.975A5.436,5.436,0,0,0,25,21.774v1.29ZM29.175,19.193l3.566-1.783V15.033l-.427-.385a2.543,2.543,0,0,1-.863-1.907V10.161a2.581,2.581,0,0,1,2.72-2.577,2.735,2.735,0,0,1,2.441,2.8v2.361a2.543,2.543,0,0,1-.863,1.907l-.427.385V17.41l3.566,1.783a2.879,2.879,0,0,1,1.294,1.29h-12.3a2.87,2.87,0,0,1,1.293-1.29Z" transform="translate(6.967 1.161)"/>
    <path id="Trazado_144024" data-name="Trazado 144024" d="M73.118,17.16l-.707-.95-17.322,10.7,10.7-17.322-.95-.707a40,40,0,0,0-47.679,0l-.95.707,10.7,17.322L9.587,16.21l-.707.95a40,40,0,0,0,0,47.679l.707.95,17.322-10.7L16.21,72.411l.95.707a40,40,0,0,0,47.679,0l.95-.707-10.7-17.322,17.322,10.7.707-.95a40,40,0,0,0,0-47.679ZM19.66,10.26a37.424,37.424,0,0,1,42.678,0L50.119,30.046l-1.384-1.384L45.9,29.17l-1.646-2.364h-6.51L36.1,29.17l-2.835-.508-1.384,1.384Zm30.9,37.6-2.7,2.7-3.138-.564-1.818,2.617H39.093L37.274,50l-3.138.564-2.7-2.7L32,44.725l-2.617-1.819V39.093L32,37.273l-.564-3.137,2.7-2.7L37.273,32l1.819-2.617H42.9L44.724,32l3.138-.563,2.7,2.7-.564,3.137,2.617,1.821V42.9L50,44.724Zm-40.3,14.476a37.42,37.42,0,0,1,0-42.679l19.785,12.22-1.384,1.386.508,2.835-2.365,1.645v6.51L29.17,45.9l-.508,2.835,1.384,1.384ZM37.128,78.2v-2.36H44.87V78.2A38.15,38.15,0,0,1,41,78.417,38.15,38.15,0,0,1,37.128,78.2Zm12.9-10.1H31.967V61.644a1.291,1.291,0,0,1,1.29-1.29H48.741a1.291,1.291,0,0,1,1.29,1.29ZM31.967,70.676H50.031v1.29a1.291,1.291,0,0,1-1.29,1.29H33.257a1.291,1.291,0,0,1-1.29-1.29Zm30.371,1.061A36.971,36.971,0,0,1,47.45,77.845V75.837h1.29a3.876,3.876,0,0,0,3.871-3.871V61.644a3.876,3.876,0,0,0-3.871-3.871H33.257a3.876,3.876,0,0,0-3.871,3.871V71.966a3.876,3.876,0,0,0,3.871,3.871h1.29v2.009A37.008,37.008,0,0,1,19.66,71.738L31.879,51.954l1.384,1.384L36.1,52.83l1.646,2.363h6.51L45.9,52.828l2.835.508,1.384-1.384Zm9.4-9.4L51.952,50.119l1.384-1.384L52.828,45.9l2.364-1.646v-6.51L52.828,36.1l.508-2.835-1.384-1.386,19.785-12.22a37.425,37.425,0,0,1,0,42.68Z" transform="translate(0 0)"/>
    <path id="Trazado_144025" data-name="Trazado 144025" d="M33.451,27A6.451,6.451,0,1,0,39.9,33.451,6.459,6.459,0,0,0,33.451,27Zm0,10.322a3.871,3.871,0,1,1,3.871-3.871A3.876,3.876,0,0,1,33.451,37.322Z" transform="translate(7.548 7.548)"/>
    <path id="Trazado_144026" data-name="Trazado 144026" d="M54.322,22A10.334,10.334,0,0,0,44,32.322a9.564,9.564,0,0,0,5.161,8.526v5.667H59.483V40.849a9.565,9.565,0,0,0,5.161-8.526A10.334,10.334,0,0,0,54.322,22ZM51.742,43.935V41.354H56.9v2.581Zm1.29-11.613a1.29,1.29,0,1,1,1.29,1.29A1.292,1.292,0,0,1,53.032,32.322Zm4.845,6.451H55.613V35.956a3.871,3.871,0,1,0-2.581,0v2.818H50.768a7.1,7.1,0,0,1-4.187-6.451,7.742,7.742,0,1,1,15.483,0A7.1,7.1,0,0,1,57.877,38.774Z" transform="translate(12.483 6.096)"/>
    <path id="Trazado_144027" data-name="Trazado 144027" d="M5,44.064H23.064V26H5Zm10.322-2.581H12.742V38.9h2.581Zm-2.581-12.9h2.581v2.581H12.742Zm-5.161,0h2.581v5.161H17.9V28.581h2.581v12.9H17.9V36.322H10.161v5.161H7.581Z" transform="translate(1.161 7.257)"/>
  </g>
</svg>
