<svg xmlns="http://www.w3.org/2000/svg" width="78.515" height="80" viewBox="0 0 78.515 80">
  <g id="seguro-de-salud" transform="translate(-4.751 0)">
    <g id="Grupo_83317" data-name="Grupo 83317" transform="translate(5.924 1.172)">
      <g id="Grupo_83315" data-name="Grupo 83315" transform="translate(0)">
        <g id="Grupo_83314" data-name="Grupo 83314">
          <path id="Trazado_144291" data-name="Trazado 144291" d="M50.343,85.156C89.544,69.1,88.424,23.927,88.424,23.927,76.1,11.607,50.343,7.5,50.343,7.5S24.582,11.607,12.261,23.927c0,0-1.12,45.175,38.081,61.229Z" transform="translate(-12.258 -7.5)" fill="#ffba5b"/>
          <path id="Trazado_144293" data-name="Trazado 144293" d="M96.111,121.721c-12.122-5.9-20.757-15.893-25.692-29.747A72.754,72.754,0,0,1,66.5,73.27c8.624-6.614,22.97-10.383,29.6-11.617,6.634,1.245,21.013,5.036,29.616,11.62a72.758,72.758,0,0,1-3.917,18.7C116.868,105.827,108.233,115.819,96.111,121.721Z" transform="translate(-58.026 -53.192)" fill="#f5f0f0"/>
        </g>
      </g>
      <g id="Grupo_83316" data-name="Grupo 83316" transform="translate(23.328 21.504)">
        <path id="Trazado_144295" data-name="Trazado 144295" d="M188.964,153.72q-2.313-.1-4.625-.162a1.751,1.751,0,0,1-1.7-1.7q-.063-2.313-.162-4.625a1.739,1.739,0,0,0-1.389-1.634,24.417,24.417,0,0,0-9.543,0,1.739,1.739,0,0,0-1.389,1.634q-.1,2.313-.162,4.625a1.751,1.751,0,0,1-1.7,1.7q-2.313.063-4.625.162a1.739,1.739,0,0,0-1.634,1.389,24.417,24.417,0,0,0,0,9.543,1.739,1.739,0,0,0,1.634,1.389q2.313.1,4.625.162a1.751,1.751,0,0,1,1.7,1.7q.063,2.313.162,4.625a1.739,1.739,0,0,0,1.389,1.634,24.417,24.417,0,0,0,9.543,0,1.739,1.739,0,0,0,1.389-1.634q.1-2.313.162-4.625a1.751,1.751,0,0,1,1.7-1.7q2.313-.063,4.625-.162a1.739,1.739,0,0,0,1.634-1.389,24.417,24.417,0,0,0,0-9.543A1.739,1.739,0,0,0,188.964,153.72Z" transform="translate(-161.555 -145.123)" fill="#ff7758"/>
      </g>
    </g>
    <g id="Grupo_83318" data-name="Grupo 83318" transform="translate(4.751 0)">
      <path id="Trazado_144296" data-name="Trazado 144296" d="M83.262,17.57a1.172,1.172,0,0,0-.343-.8C77.676,11.528,69.558,7.114,58.788,3.65A108.131,108.131,0,0,0,44.193.015a1.169,1.169,0,0,0-.369,0A108.131,108.131,0,0,0,29.229,3.65C18.46,7.114,10.341,11.528,5.1,16.771a1.173,1.173,0,0,0-.343.8,77.75,77.75,0,0,0,4.4,25.008A65.824,65.824,0,0,0,20.62,63.239,58.164,58.164,0,0,0,43.565,79.913a1.171,1.171,0,0,0,.888,0A58.168,58.168,0,0,0,67.4,63.239a65.825,65.825,0,0,0,11.459-20.66A77.742,77.742,0,0,0,83.262,17.57ZM76.617,41.884A63.443,63.443,0,0,1,65.566,61.775,55.782,55.782,0,0,1,44.009,77.56,55.783,55.783,0,0,1,22.451,61.775,63.447,63.447,0,0,1,11.4,41.884,78.134,78.134,0,0,1,7.1,18.092C18.587,6.977,41.7,2.757,44.009,2.36c2.306.4,25.422,4.616,36.912,15.732A78.141,78.141,0,0,1,76.617,41.884Z" transform="translate(-4.751 0)"/>
      <path id="Trazado_144297" data-name="Trazado 144297" d="M89.557,54.17c-1.982.369-19.663,3.835-30.1,11.839A1.172,1.172,0,0,0,59,67.024a73.457,73.457,0,0,0,3.982,19.011c5.038,14.139,13.881,24.369,26.283,30.408a1.172,1.172,0,0,0,1.026,0c12.4-6.038,21.246-16.269,26.283-30.408a73.461,73.461,0,0,0,3.982-19.008,1.172,1.172,0,0,0-.457-1.016,44.071,44.071,0,0,0-7-4.284,1.172,1.172,0,1,0-1.05,2.1,43.009,43.009,0,0,1,6.124,3.671,71.073,71.073,0,0,1-3.8,17.755c-4.754,13.344-13.026,23.042-24.588,28.834-11.563-5.792-19.834-15.49-24.588-28.833a72.221,72.221,0,0,1-3.8-17.76A56.724,56.724,0,0,1,76.1,60.219a98.645,98.645,0,0,1,13.665-3.7,98.342,98.342,0,0,1,18.092,5.4,1.172,1.172,0,1,0,.9-2.165A100.717,100.717,0,0,0,89.987,54.17a1.177,1.177,0,0,0-.431,0Z" transform="translate(-50.521 -45.689)"/>
      <path id="Trazado_144298" data-name="Trazado 144298" d="M182.591,158.555c-1.467.064-3.017.118-4.606.162a2.923,2.923,0,0,0-2.845,2.843c-.043,1.557-.1,3.107-.16,4.607a.569.569,0,0,1-.445.535,23.351,23.351,0,0,1-9.09,0,.569.569,0,0,1-.445-.535c-.064-1.5-.118-3.05-.16-4.607a2.924,2.924,0,0,0-2.845-2.843q-1.137-.03-2.275-.07a1.172,1.172,0,0,0-.082,2.342q1.146.04,2.294.071a.58.58,0,0,1,.565.564c.043,1.569.1,3.131.162,4.643A2.9,2.9,0,0,0,164.991,169a25.681,25.681,0,0,0,10,0,2.9,2.9,0,0,0,2.333-2.734c.064-1.512.119-3.074.162-4.643a.58.58,0,0,1,.565-.563c1.6-.044,3.164-.1,4.643-.163a2.9,2.9,0,0,0,2.733-2.333,25.675,25.675,0,0,0,0-10,2.9,2.9,0,0,0-2.733-2.333c-1.513-.066-3.075-.12-4.643-.162a.582.582,0,0,1-.567-.565c-.043-1.569-.1-3.131-.162-4.643a2.9,2.9,0,0,0-2.333-2.734,25.686,25.686,0,0,0-10,0,2.9,2.9,0,0,0-2.333,2.734c-.064,1.512-.119,3.074-.162,4.643a.582.582,0,0,1-.564.565c-1.57.041-3.133.1-4.645.162a2.9,2.9,0,0,0-2.733,2.333,25.649,25.649,0,0,0-.049,9.742,1.172,1.172,0,1,0,2.3-.432,23.32,23.32,0,0,1,.045-8.856.569.569,0,0,1,.536-.445c1.5-.065,3.048-.119,4.607-.16a2.926,2.926,0,0,0,2.843-2.844c.042-1.557.1-3.107.16-4.607a.569.569,0,0,1,.445-.535,23.351,23.351,0,0,1,9.09,0,.569.569,0,0,1,.445.535c.064,1.5.118,3.05.16,4.607a2.927,2.927,0,0,0,2.845,2.845c1.556.041,3.106.095,4.605.16a.569.569,0,0,1,.535.445,23.338,23.338,0,0,1,0,9.088A.569.569,0,0,1,182.591,158.555Z" transform="translate(-130.732 -116.133)"/>
    </g>
  </g>
</svg>
