<svg xmlns="http://www.w3.org/2000/svg" width="99.935" height="100" viewBox="0 0 99.935 100">
  <g id="analizar" transform="translate(-0.155 0)">
    <path id="Trazado_144338" data-name="Trazado 144338" d="M29.974,0A29.974,29.974,0,1,1,0,29.974,29.974,29.974,0,0,1,29.974,0Z" transform="translate(16.83 1.691)" fill="#ff7758"/>
    <path id="Trazado_144337" data-name="Trazado 144337" d="M23.313,0A23.313,23.313,0,1,1,0,23.313,23.313,23.313,0,0,1,23.313,0Z" transform="translate(23.491 8.352)" fill="#f2edff"/>
    <path id="Trazado_144327" data-name="Trazado 144327" d="M346.671,330.606v-3.83l-3-1.332a12.265,12.265,0,0,0-.666-2.331l1.665-2.831a13.856,13.856,0,0,0-2.165-3l-3.164.666a12.708,12.708,0,0,0-1.832-1.332l-.333-3.33a14.389,14.389,0,0,0-3.5-1.166l-2.165,2.5h-2.331l-2.331-2.5a28.7,28.7,0,0,0-3.5,1.166l-.333,3.33a7.394,7.394,0,0,0-1.832,1.332l-3.164-.666a33.757,33.757,0,0,0-2.165,3l1.665,2.831a9.544,9.544,0,0,0-.666,2.331l-3,1.332v3.83l3,1.332a12.264,12.264,0,0,0,.666,2.331l-1.665,2.831a13.852,13.852,0,0,0,2.165,3l3.164-.666a12.709,12.709,0,0,0,1.832,1.332l.333,3.33a14.391,14.391,0,0,0,3.5,1.166l2.165-2.5h2.331l2.165,2.664a28.691,28.691,0,0,0,3.5-1.166l.333-3.33a7.394,7.394,0,0,0,1.832-1.332l3.164.666a33.756,33.756,0,0,0,2.165-3l-1.665-2.831a9.544,9.544,0,0,0,.666-2.331Z" transform="translate(-248.412 -247.153)" fill="#c3b5ec"/>
    <circle id="Elipse_4274" data-name="Elipse 4274" cx="6.661" cy="6.661" r="6.661" transform="translate(75.112 74.96)" fill="#dfdeed"/>
    <path id="Trazado_144328" data-name="Trazado 144328" d="M235.226,72.3a23.819,23.819,0,0,0-9.658-18.983c-.167,0-.167,0-.333.167l-.833-.833a18.2,18.2,0,0,0-2.5-1.332,16.214,16.214,0,0,0-4,2.5l1.166,3.33a15.43,15.43,0,0,0-2.331,2.331l-3.33-1.166a20.366,20.366,0,0,0-2.831,4.829l2.664,2.331a22.182,22.182,0,0,0-.833,3.164l-3.5.666a16.166,16.166,0,0,0,0,5.662l3.5.666a22.181,22.181,0,0,0,.833,3.164l-2.664,2.331a28.183,28.183,0,0,0,2.831,4.829l3.33-1.166a15.431,15.431,0,0,0,2.331,2.331l-1.166,3.33a26.248,26.248,0,0,0,4,2.5,18.2,18.2,0,0,0,2.5-1.332l.833-.833c.167,0,.167,0,.333.167A22.735,22.735,0,0,0,235.226,72.3Z" transform="translate(-165.109 -40.639)" fill="#c3b5ec"/>
    <path id="Trazado_144329" data-name="Trazado 144329" d="M272.8,101.444a23.785,23.785,0,0,0-4.163-13.322,13.348,13.348,0,0,0,0,26.643A23.785,23.785,0,0,0,272.8,101.444Z" transform="translate(-202.684 -69.779)" fill="#ffba5b"/>
    <path id="Trazado_144330" data-name="Trazado 144330" d="M370.018,97.407a11.149,11.149,0,0,0,0-3.33l-2.664-1.166a9.389,9.389,0,0,0-.666-2l1.5-2.664a10.16,10.16,0,0,0-2-2.664l-2.831.666c-.5-.5-1.166-.833-1.665-1.332l-.333-3a10.046,10.046,0,0,0-3.164-1l-2,2.331h-2l-.333-.333a30,30,0,0,1,0,26.144l.333-.333h2l2,2.331a17.591,17.591,0,0,0,3.164-1l.333-3a6.519,6.519,0,0,0,1.665-1.332l2.831.666a27.772,27.772,0,0,0,2-2.664l-1.5-3a9.389,9.389,0,0,0,.666-2Z" transform="translate(-280.086 -64.078)" fill="#c3b5ec"/>
    <g id="Grupo_83352" data-name="Grupo 83352" transform="translate(1.843 48.483)">
      <path id="Trazado_144331" data-name="Trazado 144331" d="M28.248,281.722,8.266,306.367l8.326,6.661L36.908,288.05Z" transform="translate(-8.266 -271.564)" fill="#ff7758"/>
      <path id="Trazado_144332" data-name="Trazado 144332" d="M85.428,232.922l-5.162,6.494,18.317,13.322,5.828-7.16A30.681,30.681,0,0,1,85.428,232.922Z" transform="translate(-65.279 -232.922)" fill="#ff7758"/>
    </g>
    <path id="Trazado_144333" data-name="Trazado 144333" d="M340.368,318.871l-2.165-1.166c-.167-.333-.167-.666-.333-1l1.332-2.165a1.513,1.513,0,0,0,0-1.665,23.8,23.8,0,0,0-2.331-3.33,1.507,1.507,0,0,0-1.665-.5l-2.5.5c-.167-.166-.5-.333-.666-.5l-.167-2.5a1.451,1.451,0,0,0-1-1.332,25.886,25.886,0,0,0-3.83-1.332,1.6,1.6,0,0,0-1.665.5l-1.665,2h-.833l-1.665-2a1.507,1.507,0,0,0-1.665-.5,14.912,14.912,0,0,0-3.83,1.332c-.5.167-.833.833-1,1.332l-.167,2.5a2.3,2.3,0,0,0-.666.5l-2.5-.5a1.6,1.6,0,0,0-1.665.5,15.023,15.023,0,0,0-2.331,3.33,1.512,1.512,0,0,0,0,1.665l1.332,2.165c-.167.333-.167.666-.333,1l-2.331,1.166a1.6,1.6,0,0,0-1,1.5v3.83a1.456,1.456,0,0,0,1,1.5l2.331,1c.167.333.167.666.333,1l-1.332,2.165a1.512,1.512,0,0,0,0,1.665,23.793,23.793,0,0,0,2.331,3.33,1.507,1.507,0,0,0,1.665.5l2.5-.5c.167.167.5.333.666.5l.167,2.5a1.451,1.451,0,0,0,1,1.332,25.887,25.887,0,0,0,3.83,1.332,1.6,1.6,0,0,0,1.665-.5l1.665-2h.833l1.665,2a1.891,1.891,0,0,0,1.332.5h.333a14.912,14.912,0,0,0,3.83-1.332c.5-.167.833-.833,1-1.332l.167-2.5a2.3,2.3,0,0,0,.666-.5l2.5.5a1.6,1.6,0,0,0,1.665-.5,15.026,15.026,0,0,0,2.331-3.33,1.513,1.513,0,0,0,0-1.665L337.87,327.7c.167-.333.167-.666.333-1l2.331-1a1.6,1.6,0,0,0,1-1.5v-3.83A1.844,1.844,0,0,0,340.368,318.871Zm-2.331,4.163-2,.833a1.761,1.761,0,0,0-1,1.166,9.387,9.387,0,0,1-.666,2,1.619,1.619,0,0,0,.166,1.5l1.166,2a7.049,7.049,0,0,1-.833,1.166l-2.165-.5a1.7,1.7,0,0,0-1.5.333,5.981,5.981,0,0,1-1.665,1.166,1.874,1.874,0,0,0-.833,1.332l-.167,2.331c-.5.167-.833.333-1.332.5l-1.5-1.832a1.891,1.891,0,0,0-1.332-.5h-2.331a1.891,1.891,0,0,0-1.332.5l-1.5,1.832c-.5-.167-.833-.333-1.332-.5l-.167-2.331a1.7,1.7,0,0,0-.833-1.332,14.4,14.4,0,0,1-1.665-1.166,1.6,1.6,0,0,0-1.5-.333l-2.165.666a5.06,5.06,0,0,1-.833-1.166l1.166-2a1.619,1.619,0,0,0,.167-1.5,9.392,9.392,0,0,1-.666-2,1.76,1.76,0,0,0-1-1.166l-2-.833v-1.665l2-.833a1.761,1.761,0,0,0,1-1.166,9.39,9.39,0,0,1,.666-2,1.619,1.619,0,0,0-.167-1.5l-1.166-2.165c.333-.333.5-.833.833-1.166l2.165.5a1.7,1.7,0,0,0,1.5-.333,5.98,5.98,0,0,1,1.665-1.166,1.874,1.874,0,0,0,.833-1.332l.167-2.331c.5-.167.833-.333,1.332-.5l1.5,1.832a1.891,1.891,0,0,0,1.332.5h2.331a1.891,1.891,0,0,0,1.332-.5l1.5-1.832c.5.166.833.333,1.332.5l.167,2.331a1.7,1.7,0,0,0,.833,1.332,14.4,14.4,0,0,1,1.665,1.166,1.6,1.6,0,0,0,1.5.333l2.165-.5a5.062,5.062,0,0,1,.833,1.166l-1.166,2a1.619,1.619,0,0,0-.166,1.5,9.387,9.387,0,0,1,.666,2,1.761,1.761,0,0,0,1,1.166l2,.833Z" transform="translate(-241.443 -240.581)"/>
    <path id="Trazado_144334" data-name="Trazado 144334" d="M360.592,352.122a8.326,8.326,0,1,0,8.326,8.326A8.245,8.245,0,0,0,360.592,352.122Zm0,13.322a5,5,0,1,1,5-5A4.906,4.906,0,0,1,360.592,365.444Z" transform="translate(-278.819 -278.827)"/>
    <path id="Trazado_144335" data-name="Trazado 144335" d="M129.244,82.078A24.978,24.978,0,1,0,104.266,57.1,24.945,24.945,0,0,0,129.244,82.078ZM147.561,68.59a11.61,11.61,0,0,1,0-22.98A21.261,21.261,0,0,1,147.561,68.59ZM145.4,42.613A14.878,14.878,0,0,0,134.906,60.93,14.562,14.562,0,0,0,145.4,71.421a20.123,20.123,0,0,1-5.995,4.663c-.666-.333-1.5-.833-2.165-1.166l.666-2.165a1.879,1.879,0,0,0-.5-1.832,13.311,13.311,0,0,1-2.165-2.165,1.879,1.879,0,0,0-1.832-.5l-2.165.666-1.5-2.5,1.665-1.5a1.879,1.879,0,0,0,.5-1.832,18.2,18.2,0,0,1-.833-2.831,1.807,1.807,0,0,0-1.332-1.332l-2.165-.5v-3l2.165-.5a1.807,1.807,0,0,0,1.332-1.332,14.066,14.066,0,0,1,.833-2.831,1.879,1.879,0,0,0-.5-1.832l-1.665-1.5,1.5-2.5,2.165.666a1.879,1.879,0,0,0,1.832-.5,13.31,13.31,0,0,1,2.165-2.165,1.879,1.879,0,0,0,.5-1.832l-.666-2.165a8.972,8.972,0,0,1,2.165-1.166A33.143,33.143,0,0,1,145.4,42.613Zm-16.152-7.16a25,25,0,0,1,6.161.833,5.06,5.06,0,0,1-1.166.833,1.577,1.577,0,0,0-.5,1.832l.833,2.331-1,1-2.331-.833a1.778,1.778,0,0,0-1.832.5,23.127,23.127,0,0,0-3,5.162,1.339,1.339,0,0,0,.5,1.832l1.832,1.665c-.167.333-.167.833-.333,1.332l-2.331.5a1.622,1.622,0,0,0-1.332,1.665v5.662a1.622,1.622,0,0,0,1.332,1.665l2.331.5c.167.5.167.833.333,1.332l-1.832,1.665a1.879,1.879,0,0,0-.5,1.832,20.425,20.425,0,0,0,2.831,5.329,1.577,1.577,0,0,0,1.832.5l2.331-.833,1,1-.833,2.331a1.778,1.778,0,0,0,.5,1.832c.333.333.833.5,1.166.833A21.652,21.652,0,0,1,122.75,36.285,30.194,30.194,0,0,1,129.244,35.452Z" transform="translate(-82.44 -25.435)"/>
    <path id="Trazado_144336" data-name="Trazado 144336" d="M10.17,91.612a1.514,1.514,0,0,0,1.332-.666L30.818,67.133l3.33,2.5A1.815,1.815,0,0,0,36.48,69.3L41.642,62.8A31.168,31.168,0,0,0,75.112,45.819l1.832,2a1.8,1.8,0,0,0,1.166.5h.333a28.7,28.7,0,0,0,3.5-1.166,2.59,2.59,0,0,0,1-1.332l.167-2.165c.167-.167.333-.333.5-.333l2.165.5a1.6,1.6,0,0,0,1.665-.5,33.767,33.767,0,0,0,2.165-3,1.513,1.513,0,0,0,0-1.665l-1.166-2.165c0-.167.167-.5.167-.666l2-.833a1.6,1.6,0,0,0,1-1.5v-3.33a1.456,1.456,0,0,0-1-1.5l-2-.833c0-.167-.167-.5-.167-.666l1.166-2a1.513,1.513,0,0,0,0-1.665,13.854,13.854,0,0,0-2.165-3,1.507,1.507,0,0,0-1.665-.5l-2.165.5a1.132,1.132,0,0,0-.5-.666l-.167-2.165a1.451,1.451,0,0,0-1-1.332,14.388,14.388,0,0,0-3.5-1.166,1.343,1.343,0,0,0-1.5.5L75.112,17.51A31.613,31.613,0,0,0,18.5,45.652c.5,1,1,1.832,1.5,2.664l-4.5,5.5a2.239,2.239,0,0,0-.333,1.332,1.686,1.686,0,0,0,.666,1.166l3.663,2.664L.511,82.287a1.77,1.77,0,0,0,.167,2.331h0L9,91.279A4.236,4.236,0,0,0,10.17,91.612Zm68.606-73.1c.333.167.666.167,1,.333l.167,2a1.7,1.7,0,0,0,.833,1.332,9.151,9.151,0,0,1,1.5,1.166,1.6,1.6,0,0,0,1.5.333l1.832-.5a3.632,3.632,0,0,0,.666.833L85.1,25.836a1.619,1.619,0,0,0-.167,1.5,5.9,5.9,0,0,1,.5,1.832,1.761,1.761,0,0,0,1,1.166l1.665.833v1.166l-1.665.833a1.761,1.761,0,0,0-1,1.166c-.167.666-.333,1.166-.5,1.832a1.619,1.619,0,0,0,.167,1.5l1,1.832a3.632,3.632,0,0,1-.666.833l-1.832-.5a1.7,1.7,0,0,0-1.5.333c-.5.333-1,.833-1.5,1.166a1.874,1.874,0,0,0-.833,1.332l-.167,2c-.333.167-.666.167-1,.333l-2.165-2.331a31.726,31.726,0,0,0,0-21.481ZM46.8,3.356A28.308,28.308,0,1,1,18.5,31.665,28.285,28.285,0,0,1,46.8,3.356ZM21.992,51.148A32.027,32.027,0,0,0,37.978,61.971l-3.164,4-3.33-2.5h0l-.167-.167L19.162,54.478Zm.167,9.825,5.995,4.33L9.836,87.615,4.175,82.953Z" transform="translate(0 0)"/>
  </g>
</svg>
