<svg xmlns="http://www.w3.org/2000/svg" width="73.333" height="80" viewBox="0 0 73.333 80">
  <g id="dinero" transform="translate(-0.5)">
    <path id="Trazado_144235" data-name="Trazado 144235" d="M179.167,8,168.5,18.667h4V72h13.333V18.667h4Zm0,0" transform="translate(-140 -6.667)" fill="#675d84"/>
    <path id="Trazado_144236" data-name="Trazado 144236" d="M205.833,363.428l-2.667.572a4,4,0,0,0-4-4H192.5v5.333h13.333Zm0,0" transform="translate(-160 -300)" fill="#8dc79d"/>
    <path id="Trazado_144237" data-name="Trazado 144237" d="M312.5,144h-8V98.667l4-2.667,4,2.667Zm0,0" transform="translate(-253.333 -80)" fill="#ffa08b"/>
    <path id="Trazado_144238" data-name="Trazado 144238" d="M312.5,363.43l-8,1.714v1.715h8Zm0,0" transform="translate(-253.333 -302.858)" fill="#b9edf0"/>
    <path id="Trazado_144239" data-name="Trazado 144239" d="M120.5,174.667h-8v-36l4-2.667,4,2.667Zm0,0" transform="translate(-93.333 -113.333)" fill="#ffa08b"/>
    <path id="Trazado_144240" data-name="Trazado 144240" d="M179.167,173.333A13.333,13.333,0,1,1,165.833,160,13.334,13.334,0,0,1,179.167,173.333Zm0,0" transform="translate(-126.667 -133.333)" fill="#ffba5b"/>
    <path id="Trazado_144241" data-name="Trazado 144241" d="M213.833,193.527V192h-2.667v1.527a3.792,3.792,0,0,0-.562,7.016l2.6,1.3a1.139,1.139,0,0,1-.508,2.159h-.389a1.14,1.14,0,0,1-1.139-1.139v-.195H208.5v.195a3.8,3.8,0,0,0,2.667,3.612V208h2.667v-1.527a3.792,3.792,0,0,0,.563-7.016l-2.6-1.3a1.138,1.138,0,0,1,.508-2.158h.389a1.14,1.14,0,0,1,1.139,1.139v.195H216.5v-.195A3.8,3.8,0,0,0,213.833,193.527Zm0,0" transform="translate(-173.333 -160)" fill="#d18d28"/>
    <path id="Trazado_144242" data-name="Trazado 144242" d="M272.5,232h2.667v2.667H272.5Zm0,0" transform="translate(-226.667 -193.333)" fill="#d18d28"/>
    <path id="Trazado_144243" data-name="Trazado 144243" d="M176.5,240h2.667v2.667H176.5Zm0,0" transform="translate(-146.667 -200)" fill="#d18d28"/>
    <path id="Trazado_144244" data-name="Trazado 144244" d="M59.167,368H84.5l5.333,4,18.667-4h.025A3.976,3.976,0,0,1,110,375.667l-24.168,9.667-26.667-4H56.5V368Zm0,0" transform="translate(-46.667 -306.667)" fill="#fdc9a6"/>
    <path id="Trazado_144245" data-name="Trazado 144245" d="M168.5,384h12a4,4,0,0,0,3.961-4.563l.02-1.052-1.314.282-2.667-2-4-.667h-8Zm0,0" transform="translate(-140 -313.333)" fill="#f6bb92"/>
    <path id="Trazado_144246" data-name="Trazado 144246" d="M376.5,120h2.667v2.667H376.5Zm0,0" transform="translate(-313.333 -100)" fill="#fbd699"/>
    <path id="Trazado_144247" data-name="Trazado 144247" d="M376.5,152h2.667v2.667H376.5Zm0,0" transform="translate(-313.333 -126.667)" fill="#fbd699"/>
    <path id="Trazado_144248" data-name="Trazado 144248" d="M376.5,184h2.667v5.333H376.5Zm0,0" transform="translate(-313.333 -153.333)" fill="#fbd699"/>
    <g id="Grupo_83312" data-name="Grupo 83312" transform="translate(8.5 10.667)">
      <path id="Trazado_144249" data-name="Trazado 144249" d="M72.5,184h2.667v2.667H72.5Zm0,0" transform="translate(-68.5 -164)" fill="#fbedbf"/>
      <path id="Trazado_144250" data-name="Trazado 144250" d="M72.5,216h2.667v2.667H72.5Zm0,0" transform="translate(-68.5 -190.667)" fill="#fbedbf"/>
      <path id="Trazado_144251" data-name="Trazado 144251" d="M72.5,248h2.667v5.333H72.5Zm0,0" transform="translate(-68.5 -217.333)" fill="#fbedbf"/>
      <path id="Trazado_144252" data-name="Trazado 144252" d="M72.5,64h2.667v2.667H72.5Zm0,0" transform="translate(-68.5 -64)" fill="#fbedbf"/>
      <path id="Trazado_144253" data-name="Trazado 144253" d="M48.5,88h2.667v2.667H48.5Zm0,0" transform="translate(-48.5 -84)" fill="#fbedbf"/>
      <path id="Trazado_144254" data-name="Trazado 144254" d="M96.5,88h2.667v2.667H96.5Zm0,0" transform="translate(-88.5 -84)" fill="#fbedbf"/>
      <path id="Trazado_144255" data-name="Trazado 144255" d="M72.5,112h2.667v2.667H72.5Zm0,0" transform="translate(-68.5 -104)" fill="#fbedbf"/>
    </g>
    <path id="Trazado_144256" data-name="Trazado 144256" d="M408.5,24h2.667v2.667H408.5Zm0,0" transform="translate(-340 -20)" fill="#fbd699"/>
    <path id="Trazado_144257" data-name="Trazado 144257" d="M392.5,40h2.667v2.667H392.5Zm0,0" transform="translate(-326.667 -33.333)" fill="#fbd699"/>
    <path id="Trazado_144258" data-name="Trazado 144258" d="M424.5,40h2.667v2.667H424.5Zm0,0" transform="translate(-353.333 -33.333)" fill="#fbd699"/>
    <path id="Trazado_144259" data-name="Trazado 144259" d="M408.5,56h2.667v2.667H408.5Zm0,0" transform="translate(-340 -46.667)" fill="#fbd699"/>
    <path id="Trazado_144260" data-name="Trazado 144260" d="M120.5,313.683a9.275,9.275,0,0,0-8-1.293v8.941h8Zm0,0" transform="translate(-93.333 -259.998)" fill="#b9edf0"/>
    <path id="Trazado_144261" data-name="Trazado 144261" d="M8.5,336H19.167v22.667H8.5Zm0,0" transform="translate(-6.667 -280)" fill="#ff7758"/>
    <path id="Trazado_144262" data-name="Trazado 144262" d="M99.167,328.016H91.06a9.321,9.321,0,0,0-18.453,0H72.5v8H99.167a4,4,0,1,0,0-8Zm0,0" transform="translate(-60 -266.683)" fill="#fdc9a6"/>
    <path id="Trazado_144263" data-name="Trazado 144263" d="M211.167,206.473V208h2.667v-1.527a3.792,3.792,0,0,0,.563-7.016l-2.6-1.3a1.138,1.138,0,0,1,.508-2.158h.389a1.14,1.14,0,0,1,1.139,1.139v.195H216.5v-.195a3.8,3.8,0,0,0-2.667-3.612V192h-2.667v1.527a3.792,3.792,0,0,0-.562,7.016l2.6,1.3a1.139,1.139,0,0,1-.508,2.159h-.389a1.14,1.14,0,0,1-1.139-1.139v-.195H208.5v.195A3.8,3.8,0,0,0,211.167,206.473Zm0,0" transform="translate(-173.333 -160)"/>
    <path id="Trazado_144264" data-name="Trazado 144264" d="M272.5,232h2.667v2.667H272.5Zm0,0" transform="translate(-226.667 -193.333)"/>
    <path id="Trazado_144265" data-name="Trazado 144265" d="M176.5,240h2.667v2.667H176.5Zm0,0" transform="translate(-146.667 -200)"/>
    <path id="Trazado_144266" data-name="Trazado 144266" d="M.5,56V78.667A1.333,1.333,0,0,0,1.833,80H12.5a1.333,1.333,0,0,0,1.333-1.333V76.214l25.136,3.771a1.421,1.421,0,0,0,.2.015,1.343,1.343,0,0,0,.495-.1l24.172-9.667a5.311,5.311,0,0,0-2-10.238,1.262,1.262,0,0,0-.28.029l-1.053.227V18.667a1.333,1.333,0,0,0-.594-1.109l-4-2.667a1.331,1.331,0,0,0-1.48,0l-4,2.667a1.334,1.334,0,0,0-.593,1.109v11.3a14.765,14.765,0,0,0-2.667-2.242V13.333h2.667a1.334,1.334,0,0,0,.943-2.276L40.109.391a1.333,1.333,0,0,0-1.885,0L27.557,11.057a1.333,1.333,0,0,0,.943,2.276h2.667V27.723A14.721,14.721,0,0,0,28.5,29.965V25.333a1.333,1.333,0,0,0-.594-1.109l-4-2.667a1.331,1.331,0,0,0-1.48,0l-4,2.667a1.334,1.334,0,0,0-.593,1.109V52.8a10.784,10.784,0,0,0-4.059,2.91A1.315,1.315,0,0,0,12.5,54.667H1.833A1.333,1.333,0,0,0,.5,56Zm52-36.62,2.667-1.78,2.667,1.777V60.826L52.5,61.969V46.074a14.507,14.507,0,0,0,0-12.149ZM44.233,63.741A5.323,5.323,0,0,0,39.167,60H33.833V53.648a14.472,14.472,0,0,0,10.667,0V63.684ZM31.167,52.274v5.259A10.786,10.786,0,0,0,28.5,54.372V50.035a14.751,14.751,0,0,0,2.667,2.243Zm16,0a14.765,14.765,0,0,0,2.667-2.242V62.538l-2.667.572ZM32.5,10.667h-.781l7.448-7.449,7.448,7.449h-.781A1.333,1.333,0,0,0,44.5,12V26.352a14.472,14.472,0,0,0-10.667,0V12A1.333,1.333,0,0,0,32.5,10.667ZM39.167,28a12,12,0,1,1-12,12A12,12,0,0,1,39.167,28ZM20.5,26.046l2.667-1.78,2.667,1.777v7.879a14.5,14.5,0,0,0,0,12.149V52.8a10.161,10.161,0,0,0-5.333-.7Zm1.333,28.62a8.029,8.029,0,0,1,7.908,6.855,1.334,1.334,0,0,0,1.319,1.145h8.107a2.667,2.667,0,1,1,0,5.333H28.5v2.667H39.167a5.343,5.343,0,0,0,5.216-4.231l17.584-3.769a2.644,2.644,0,0,1,.88,5.093l-23.84,9.535L13.833,73.518V61.854a1.3,1.3,0,0,0,.092-.332A8.03,8.03,0,0,1,21.833,54.667ZM3.167,57.333h8v20h-8Zm0,0" transform="translate(0 0)"/>
    <path id="Trazado_144267" data-name="Trazado 144267" d="M376.5,120h2.667v2.667H376.5Zm0,0" transform="translate(-313.333 -100)"/>
    <path id="Trazado_144268" data-name="Trazado 144268" d="M376.5,152h2.667v2.667H376.5Zm0,0" transform="translate(-313.333 -126.667)"/>
    <path id="Trazado_144269" data-name="Trazado 144269" d="M376.5,184h2.667v5.333H376.5Zm0,0" transform="translate(-313.333 -153.333)"/>
    <path id="Trazado_144270" data-name="Trazado 144270" d="M72.5,184h2.667v2.667H72.5Zm0,0" transform="translate(-60 -153.333)"/>
    <path id="Trazado_144271" data-name="Trazado 144271" d="M72.5,216h2.667v2.667H72.5Zm0,0" transform="translate(-60 -180)"/>
    <path id="Trazado_144272" data-name="Trazado 144272" d="M72.5,248h2.667v5.333H72.5Zm0,0" transform="translate(-60 -206.667)"/>
    <path id="Trazado_144273" data-name="Trazado 144273" d="M72.5,64h2.667v2.667H72.5Zm0,0" transform="translate(-60 -53.333)"/>
    <path id="Trazado_144274" data-name="Trazado 144274" d="M48.5,88h2.667v2.667H48.5Zm0,0" transform="translate(-40 -73.333)"/>
    <path id="Trazado_144275" data-name="Trazado 144275" d="M96.5,88h2.667v2.667H96.5Zm0,0" transform="translate(-80 -73.333)"/>
    <path id="Trazado_144276" data-name="Trazado 144276" d="M72.5,112h2.667v2.667H72.5Zm0,0" transform="translate(-60 -93.333)"/>
    <path id="Trazado_144277" data-name="Trazado 144277" d="M408.5,24h2.667v2.667H408.5Zm0,0" transform="translate(-340 -20)"/>
    <path id="Trazado_144278" data-name="Trazado 144278" d="M392.5,40h2.667v2.667H392.5Zm0,0" transform="translate(-326.667 -33.333)"/>
    <path id="Trazado_144279" data-name="Trazado 144279" d="M424.5,40h2.667v2.667H424.5Zm0,0" transform="translate(-353.333 -33.333)"/>
    <path id="Trazado_144280" data-name="Trazado 144280" d="M408.5,56h2.667v2.667H408.5Zm0,0" transform="translate(-340 -46.667)"/>
  </g>
</svg>
