<svg xmlns="http://www.w3.org/2000/svg" width="85.424" height="85.426" viewBox="0 0 85.424 85.426">
  <g id="objetivo-2" transform="translate(0.5 0.524)">
    <path id="Trazado_102092" data-name="Trazado 102092" d="M73.464,20.413a2.992,2.992,0,0,0,2.115-.876l8.286-8.287a1.823,1.823,0,0,0-1.174-3.106l-4.41-.277L81.159,4.99a1.236,1.236,0,0,0-1.748-1.748L76.534,6.119l-.277-4.41A1.823,1.823,0,0,0,73.151.536L64.865,8.823a2.992,2.992,0,0,0-.87,2.3l.285,4.538A39.015,39.015,0,0,0,10.147,71.638a1.236,1.236,0,0,0,1.829-1.664,36.555,36.555,0,0,1,52-51.3l-5.641,5.641A28.608,28.608,0,0,0,13.553,58.48h0A28.625,28.625,0,0,0,67.04,51.214a1.236,1.236,0,1,0-2.421-.5A26.152,26.152,0,0,1,15.75,57.346h0a25.814,25.814,0,0,1-2.894-11.952,26.126,26.126,0,0,1,43.733-19.33L51,31.655A18.266,18.266,0,1,0,52.747,33.4l5.591-5.592a26.042,26.042,0,0,1,6.823,17.429A1.236,1.236,0,0,0,66.4,46.471H66.4a1.236,1.236,0,0,0,1.229-1.243,28.508,28.508,0,0,0-7.548-19.164l5.642-5.642A36.556,36.556,0,0,1,16.03,73.8a1.236,1.236,0,0,0-1.556,1.921A39.01,39.01,0,0,0,78.017,45.394a38.7,38.7,0,0,0-7.672-23.236q-.779-1.05-1.62-2.037c4.847.3,4.585.292,4.739.292ZM54.779,45.394a15.789,15.789,0,1,1-5.533-11.986L43.62,39.034a7.871,7.871,0,1,0,1.749,1.749l5.626-5.626A15.7,15.7,0,0,1,54.779,45.394Zm-16.645.874a1.236,1.236,0,0,0,1.748,0l3.706-3.706a5.393,5.393,0,1,1-1.748-1.749L38.134,44.52a1.236,1.236,0,0,0,0,1.748Zm28.328-35.3a.518.518,0,0,1,.151-.4L73.879,3.3,74.2,8.451l-7.431,7.432Zm2.057,6.661L75.951,10.2l5.146.323-7.266,7.266a.517.517,0,0,1-.4.151Z" transform="translate(0 -0.002)" fill="#ff7758" stroke="#ffa08b" stroke-width="1"/>
  </g>
</svg>
