<svg id="crecimiento-2" xmlns="http://www.w3.org/2000/svg" width="84.424" height="84.219" viewBox="0 0 84.424 84.219">
  <g id="Grupo_54001" data-name="Grupo 54001" transform="translate(1.563 44.826)">
    <path id="Trazado_102096" data-name="Trazado 102096" d="M22.791,426.984v10.378H9.207v-8.15l3.708-.49C16.23,428.288,19.531,427.7,22.791,426.984Zm0,0" transform="translate(-9.207 -399.328)" fill="#c3b5ec"/>
    <path id="Trazado_102097" data-name="Trazado 102097" d="M182.791,390.936H169.207V376.727q4.361-1.508,8.626-3.369c1.671-.72,3.328-1.494,4.958-2.3Zm0,0" transform="translate(-142.04 -352.902)" fill="#c3b5ec"/>
    <path id="Trazado_102098" data-name="Trazado 102098" d="M341.73,264.105V302.14H328.147V274.972l-.217-.34a123.245,123.245,0,0,0,10.758-7.988Zm0,0" transform="translate(-273.812 -264.105)" fill="#c3b5ec"/>
    <path id="Trazado_102099" data-name="Trazado 102099" d="M262.791,326.445v27.167H249.207V333.739a119.179,119.179,0,0,0,13.367-7.633Zm0,0" transform="translate(-208.456 -315.578)" fill="#c3b5ec"/>
    <path id="Trazado_102100" data-name="Trazado 102100" d="M413.282,264.105h9.509V302.14H409.207V264.105Zm0,0" transform="translate(-341.289 -264.105)" fill="#c3b5ec"/>
    <path id="Trazado_102101" data-name="Trazado 102101" d="M102.791,418.634H89.207V408.256q3.26-.713,6.479-1.616,3.587-1,7.1-2.214Zm0,0" transform="translate(-75.623 -380.6)" fill="#c3b5ec"/>
  </g>
  <path id="Trazado_102102" data-name="Trazado 102102" d="M420.74,56.947l-3.383-.842h-2.717l-3.382.842a2.706,2.706,0,0,0-2.051,2.636V72.406h2.717l1.358,19.017h5.433l1.358-19.017h2.717V59.583A2.706,2.706,0,0,0,420.74,56.947Zm0,0" transform="translate(-339.726 -46.597)" fill="#ffba5b"/>
  <path id="Trazado_102103" data-name="Trazado 102103" d="M435.924,16.256a2.725,2.725,0,0,1-2.717-2.717V10.822a2.725,2.725,0,0,1,2.717-2.717,2.736,2.736,0,0,1,2.717,2.717v2.717A2.725,2.725,0,0,1,435.924,16.256Zm0,0" transform="translate(-359.65 -6.747)" fill="#f0d0b4"/>
  <path id="Trazado_102104" data-name="Trazado 102104" d="M1.207,191.348v-6.792l3.314-.3a68.478,68.478,0,0,0,11.37-2.024,67.852,67.852,0,0,0,10.867-3.926,68.437,68.437,0,0,0,13.19-8.028l6.085-4.74-4.075-4.075,17.659-1.358-1.358,17.659-4.075-4.075-7.8,6.493a75.8,75.8,0,0,1-18.678,11.451,76.251,76.251,0,0,1-18.352,5.256l-8.15,1.25Zm0,0" transform="translate(-1.002 -132.938)" fill="#ff7758"/>
  <path id="Trazado_102105" data-name="Trazado 102105" d="M8.565,191a77.422,77.422,0,0,0,18.676-5.347A77.185,77.185,0,0,0,46.257,174l6.842-5.7,5.287,5.285L60.091,151.4l-22.185,1.709,5.075,5.075L38.1,161.975a66.442,66.442,0,0,1-12.924,7.866,66.081,66.081,0,0,1-21.787,5.831l-3.31.3.246,2.705,3.312-.3a68.856,68.856,0,0,0,22.68-6.071,69.135,69.135,0,0,0,13.453-8.188l7.307-5.684-3.076-3.076,13.134-1.01-1.011,13.134-2.863-2.863-8.748,7.29A74.475,74.475,0,0,1,26.17,183.156a74.71,74.71,0,0,1-18.019,5.158L0,189.567l.413,2.686Zm0,0" transform="translate(0 -125.71)"/>
  <path id="Trazado_102106" data-name="Trazado 102106" d="M126.552,207.394l3.639-3.234-1.805-2.031-3.639,3.234a78.181,78.181,0,0,1-29.8,16.549l.769,2.605a80.9,80.9,0,0,0,30.838-17.123Zm0,0" transform="translate(-78.824 -167.826)"/>
  <path id="Trazado_102107" data-name="Trazado 102107" d="M66.151,322.984q-1.328.342-2.67.638l.586,2.653q1.387-.305,2.762-.659Zm0,0" transform="translate(-52.702 -268.161)"/>
  <path id="Trazado_102108" data-name="Trazado 102108" d="M34.709,329.922q-1.331.244-2.67.442l.4,2.688c.925-.137,1.845-.29,2.764-.459Zm0,0" transform="translate(-26.599 -273.921)"/>
  <path id="Trazado_102109" data-name="Trazado 102109" d="M3.481,337.291l-.308-2.7q-.858.1-1.72.175l-.964.087.246,2.705.966-.087Q2.592,337.393,3.481,337.291Zm0,0" transform="translate(-0.405 -277.799)"/>
  <path id="Trazado_102110" data-name="Trazado 102110" d="M85.426,27.273V13.094A4.072,4.072,0,0,0,82.339,9.14l-1.467-.367A4.025,4.025,0,0,0,81.351,6.9V4.181a4.075,4.075,0,0,0-8.15,0V6.9a4.03,4.03,0,0,0,.486,1.89l-1.475.352a4.069,4.069,0,0,0-3.086,3.954V27.273h2.811l1.164,16.3H69.992l-3.427,2.855a118.991,118.991,0,0,1-28.743,17.72,119.07,119.07,0,0,1-31.73,8.828l-4.885.649v10.7H85.426V43.573H81.451l1.164-16.3ZM75.917,4.181a1.358,1.358,0,0,1,2.717,0V6.9a1.358,1.358,0,0,1-2.717,0ZM68.3,48.516l.82-.684V81.607H58.258V56.036A121.877,121.877,0,0,0,68.3,48.516ZM55.542,81.607H44.675V63.928A121.5,121.5,0,0,0,55.542,57.8ZM38.906,66.638c1.027-.446,2.04-.919,3.052-1.393V81.607H31.091V69.72Q35.046,68.314,38.906,66.638ZM28.374,81.607H17.507V73.654q5.5-1.26,10.867-3.022Zm-24.451-5.6,2.527-.337q4.2-.56,8.34-1.409v7.348H3.924Zm78.785,5.6H71.842V46.29H82.709ZM75.824,43.573,74.465,24.556H71.842V13.094a1.356,1.356,0,0,1,1.03-1.318l3.212-.8h2.382l3.213.8a1.359,1.359,0,0,1,1.029,1.319V24.556H80.086L78.728,43.573Zm0,0" transform="translate(-1.002 -0.105)"/>
  <path id="Trazado_102111" data-name="Trazado 102111" d="M441.207,288.105h2.717v19.017h-2.717Zm0,0" transform="translate(-366.292 -239.204)"/>
  <path id="Trazado_102112" data-name="Trazado 102112" d="M441.207,416.105h2.717v2.717h-2.717Zm0,0" transform="translate(-366.292 -345.471)"/>
  <path id="Trazado_102113" data-name="Trazado 102113" d="M441.207,448.105h2.717v2.717h-2.717Zm0,0" transform="translate(-366.292 -372.037)"/>
  <path id="Trazado_102114" data-name="Trazado 102114" d="M361.207,336.105h2.717v10.867h-2.717Zm0,0" transform="translate(-299.876 -279.054)"/>
  <path id="Trazado_102115" data-name="Trazado 102115" d="M361.207,416.105h2.717v2.717h-2.717Zm0,0" transform="translate(-299.876 -345.471)"/>
  <path id="Trazado_102116" data-name="Trazado 102116" d="M361.207,448.105h2.717v2.717h-2.717Zm0,0" transform="translate(-299.876 -372.037)"/>
  <path id="Trazado_102117" data-name="Trazado 102117" d="M281.207,384.105h2.717v2.717h-2.717Zm0,0" transform="translate(-233.459 -318.904)"/>
  <path id="Trazado_102118" data-name="Trazado 102118" d="M281.207,416.105h2.717v2.717h-2.717Zm0,0" transform="translate(-233.459 -345.471)"/>
  <path id="Trazado_102119" data-name="Trazado 102119" d="M281.207,448.105h2.717v2.717h-2.717Zm0,0" transform="translate(-233.459 -372.037)"/>
  <path id="Trazado_102120" data-name="Trazado 102120" d="M201.207,416.105h2.717v2.717h-2.717Zm0,0" transform="translate(-167.043 -345.471)"/>
  <path id="Trazado_102121" data-name="Trazado 102121" d="M201.207,448.105h2.717v2.717h-2.717Zm0,0" transform="translate(-167.043 -372.037)"/>
  <path id="Trazado_102122" data-name="Trazado 102122" d="M121.207,448.105h2.717v2.717h-2.717Zm0,0" transform="translate(-100.627 -372.037)"/>
</svg>
