<svg id="embajada" xmlns="http://www.w3.org/2000/svg" width="138.167" height="138.167" viewBox="0 0 138.167 138.167">
  <g id="Grupo_83416" data-name="Grupo 83416" transform="translate(2.699 2.699)">
    <path id="Trazado_144483" data-name="Trazado 144483" d="M10,302H42.383v53.972H10Z" transform="translate(-10 -223.202)" fill="#c3b5ec"/>
    <path id="Trazado_144484" data-name="Trazado 144484" d="M382,302h32.383v53.972H382Z" transform="translate(-281.613 -223.202)" fill="#c3b5ec"/>
    <path id="Trazado_144485" data-name="Trazado 144485" d="M422,422h10.795v10.795H422Z" transform="translate(-310.819 -310.819)" fill="#eefaff"/>
    <path id="Trazado_144486" data-name="Trazado 144486" d="M422,342h10.795v10.794H422Z" transform="translate(-310.819 -252.407)" fill="#eefaff"/>
    <path id="Trazado_144487" data-name="Trazado 144487" d="M288.383,10,277.589,20.794l10.794,10.794H256V10Z" transform="translate(-189.615 -10)" fill="#ff7758"/>
    <path id="Trazado_144488" data-name="Trazado 144488" d="M168.763,136a32.386,32.386,0,0,0-32.243,29.358h64.485A32.386,32.386,0,0,0,168.763,136Z" transform="translate(-102.378 -101.998)" fill="#ffba5b"/>
    <path id="Trazado_144489" data-name="Trazado 144489" d="M276,302h17.811v43.177H276Z" transform="translate(-204.218 -223.202)" fill="#ffba5b"/>
    <path id="Trazado_144490" data-name="Trazado 144490" d="M170,302h17.811v43.177H170Z" transform="translate(-126.823 -223.202)" fill="#ffba5b"/>
    <g id="Grupo_83415" data-name="Grupo 83415" transform="translate(10.794 55.591)">
      <path id="Trazado_144491" data-name="Trazado 144491" d="M179.593,239.208V226.794L134.8,216,90,226.794v12.413h10.794v43.177H90v10.794h89.593V282.385H168.8V239.208Zm-68,43.177V239.208H129.4v43.177Zm46.415,0h-17.81V239.208H158Z" transform="translate(-79.206 -216)" fill="#eefaff"/>
      <path id="Trazado_144492" data-name="Trazado 144492" d="M50,422H60.794v10.795H50Z" transform="translate(-50 -366.409)" fill="#eefaff"/>
      <path id="Trazado_144493" data-name="Trazado 144493" d="M50,342H60.794v10.794H50Z" transform="translate(-50 -307.998)" fill="#eefaff"/>
    </g>
  </g>
  <g id="Grupo_83417" data-name="Grupo 83417" transform="translate(0 0)">
    <path id="Trazado_144494" data-name="Trazado 144494" d="M135.468,78.8h-18.89V69.083a2.7,2.7,0,0,0-2.066-2.624l-10.735-2.587a35.08,35.08,0,0,0-32-29.766V26.986h29.684a2.7,2.7,0,0,0,1.908-4.607l-8.886-8.886,8.886-8.886A2.7,2.7,0,0,0,101.466,0H69.084a2.7,2.7,0,0,0-2.7,2.7V34.107a35.08,35.08,0,0,0-32,29.766L23.655,66.46a2.7,2.7,0,0,0-2.066,2.624V78.8H2.7A2.7,2.7,0,0,0,0,81.5v53.971a2.7,2.7,0,0,0,2.7,2.7H56.94a2.7,2.7,0,1,0,0-5.4H26.986v-5.4h84.2v5.4H81.227a2.7,2.7,0,1,0,0,5.4h54.241a2.7,2.7,0,0,0,2.7-2.7V81.5A2.7,2.7,0,0,0,135.468,78.8ZM71.782,5.4H94.951l-6.188,6.188a2.7,2.7,0,0,0,0,3.817l6.188,6.187H71.782Zm-2.7,34A29.517,29.517,0,0,1,98.037,62.49L69.715,55.666a2.7,2.7,0,0,0-1.265,0L40.129,62.49A29.518,29.518,0,0,1,69.083,39.4Zm-42.1,31.81,42.1-10.144,42.1,10.144V78.8h-84.2ZM43.177,84.2v37.78h-5.4V84.2Zm5.4,0H60.988v37.78H48.574Zm17.811,0h5.4v37.78h-5.4Zm10.794,0H89.593v37.78H77.179Zm17.811,0h5.4v37.78h-5.4ZM5.4,132.77V84.2H32.383v37.78h-5.4v-8.1a2.7,2.7,0,0,0-2.7-2.7H13.493a2.7,2.7,0,0,0-2.7,2.7v10.794a2.7,2.7,0,0,0,2.7,2.7h8.1v5.4Zm16.191-10.794h-5.4v-5.4h5.4ZM132.77,132.77H116.578v-5.4h8.1a2.7,2.7,0,0,0,2.7-2.7V113.88a2.7,2.7,0,0,0-2.7-2.7H113.88a2.7,2.7,0,0,0-2.7,2.7v8.1h-5.4V84.2H132.77Zm-16.191-10.794v-5.4h5.4v5.4Z" transform="translate(0 0)"/>
    <path id="Trazado_144495" data-name="Trazado 144495" d="M412,334.7v10.794a2.7,2.7,0,0,0,2.7,2.7h10.794a2.7,2.7,0,0,0,2.7-2.7V334.7a2.7,2.7,0,0,0-2.7-2.7H414.7A2.7,2.7,0,0,0,412,334.7Zm5.4,2.7h5.4v5.4h-5.4Z" transform="translate(-300.819 -242.407)"/>
    <path id="Trazado_144496" data-name="Trazado 144496" d="M42.7,348.191H53.493a2.7,2.7,0,0,0,2.7-2.7V334.7a2.7,2.7,0,0,0-2.7-2.7H42.7a2.7,2.7,0,0,0-2.7,2.7v10.794A2.7,2.7,0,0,0,42.7,348.191ZM45.4,337.4h5.4v5.4H45.4Z" transform="translate(-29.206 -242.407)"/>
    <ellipse id="Elipse_4296" data-name="Elipse 4296" cy="1.231" ry="1.231" transform="translate(69.632 134.443)"/>
  </g>
</svg>
