<svg id="valor" xmlns="http://www.w3.org/2000/svg" width="79.959" height="80" viewBox="0 0 79.959 80">
  <path id="Trazado_102615" data-name="Trazado 102615" d="M149.326,301.83l1.7-.9,10.225-5.513,1.228-.663a5.582,5.582,0,0,1,7.435,2.033l-24.1,16.545a16.873,16.873,0,0,1-10.495,1.482l-13.928-2.566a5.183,5.183,0,0,0-3.79.5l-7.542,4.769-5.271-17.286.045-.014a9.035,9.035,0,0,0,4.372-2.14l2.308-2.054a15.424,15.424,0,0,1,15.987-1.562l.956.462a11.013,11.013,0,0,0,4.8,1.1h9.269A6.893,6.893,0,0,1,149.326,301.83Z" transform="translate(-90.993 -246.536)" fill="#f7caa5"/>
  <path id="Trazado_102616" data-name="Trazado 102616" d="M341.714,162.521v6.743H323.272v-7.7a7.665,7.665,0,0,0-1.3-4.286,6.714,6.714,0,0,1,4.066-1.494,5.806,5.806,0,0,0,9.16.225,1.414,1.414,0,0,1,.19-.215A6.745,6.745,0,0,1,341.714,162.521Z" transform="translate(-270.568 -133.134)" fill="#ff7758"/>
  <path id="Trazado_102617" data-name="Trazado 102617" d="M363.166,295.3l.009.016-10.225,5.513-1.7.9A6.865,6.865,0,0,0,349,297.643l6.571-3.541,1.673-.9C359.309,292.153,362.021,293.285,363.166,295.3Z" transform="translate(-292.918 -246.43)" fill="#f7caa5"/>
  <path id="Trazado_102618" data-name="Trazado 102618" d="M349.116,62.253v3a5.993,5.993,0,1,1-11.986,0v-3a5.993,5.993,0,1,1,11.986,0Z" transform="translate(-283.103 -50.846)" fill="#ff7758"/>
  <path id="Trazado_102619" data-name="Trazado 102619" d="M323.937,290.6l.081.152-6.571,3.541a6.851,6.851,0,0,0-4.552-1.719H310.84L316.3,289.6A6.315,6.315,0,0,1,323.937,290.6Z" transform="translate(-261.365 -243.079)" fill="#f7caa5"/>
  <path id="Trazado_102620" data-name="Trazado 102620" d="M206.79,148.1a7.665,7.665,0,0,1,1.3,4.286v11.127H182.67V152.382a7.7,7.7,0,0,1,7.51-7.7,6.633,6.633,0,0,0,10.465.258,1.818,1.818,0,0,1,.216-.246A7.705,7.705,0,0,1,206.79,148.1Z" transform="translate(-155.388 -123.956)" fill="#ffba5b"/>
  <path id="Trazado_102621" data-name="Trazado 102621" d="M230.233,37.836V41.26a6.846,6.846,0,1,1-13.693,0V37.836a6.846,6.846,0,1,1,13.693,0Z" transform="translate(-183.394 -29.952)" fill="#ffba5b"/>
  <path id="Trazado_102622" data-name="Trazado 102622" d="M95.478,157.068l.27.241a7.672,7.672,0,0,0-1.278,4.251v7.7H76v-6.743a6.743,6.743,0,0,1,6.573-6.741,5.807,5.807,0,0,0,9.162.225,1.472,1.472,0,0,1,.189-.215A6.7,6.7,0,0,1,95.478,157.068Z" transform="translate(-67.188 -133.134)" fill="#c3b5ec"/>
  <path id="Trazado_102623" data-name="Trazado 102623" d="M117.636,62.253v3a5.993,5.993,0,1,1-11.986,0v-3a5.993,5.993,0,1,1,11.986,0Z" transform="translate(-91.704 -50.846)" fill="#c3b5ec"/>
  <path id="Trazado_102624" data-name="Trazado 102624" d="M49.139,327.379l2.431,7.974H34.829l-3.719-30.5H42.27l1.6,5.243Zm-4.585,2.637a2.232,2.232,0,1,0-2.232,2.232,2.232,2.232,0,0,0,2.232-2.232Z" transform="translate(-30.071 -256.392)" fill="#ff7758"/>
  <ellipse id="Elipse_4133" data-name="Elipse 4133" cx="2.232" cy="2.232" rx="2.232" ry="2.232" transform="translate(10.019 71.392)" fill="#c3b5ec"/>
  <path id="Trazado_102625" data-name="Trazado 102625" d="M96.1,285.433l-.411.221a5.657,5.657,0,0,0-6.724-1.685l-.023.012-.97.522a7.363,7.363,0,0,0-8.432-.762l-5.221,2.839H67.371a10.03,10.03,0,0,1-4.344-1l-.956-.463a16.4,16.4,0,0,0-17.064,1.667c-.023.017-.045.035-.066.054L42.632,288.9a7.99,7.99,0,0,1-3.019,1.684l-1.311-4.3a1.039,1.039,0,0,0-.994-.736H26.149a1.039,1.039,0,0,0-1.031,1.165l3.719,30.5a1.039,1.039,0,0,0,1.031.913h16.74a1.039,1.039,0,0,0,.994-1.342l-2.2-7.216,6.848-4.329a4.129,4.129,0,0,1,3.008-.39l.064.014,13.931,2.567A18.033,18.033,0,0,0,80.4,305.857a1.014,1.014,0,0,0,.127-.074l24.1-16.545a1.039,1.039,0,0,0,.3-1.392A6.61,6.61,0,0,0,96.1,285.433Zm-6.184.384a3.543,3.543,0,0,1,3.879.858l-9.139,4.929-.535.282a7.935,7.935,0,0,0-1.248-2.274Zm-9.371-.256.025-.014a5.284,5.284,0,0,1,5.374.05l-4.64,2.5a7.9,7.9,0,0,0-2.972-1.333ZM30.788,316.049l-3.465-28.425h9.217l8.667,28.425Zm48.619-12.022a15.942,15.942,0,0,1-9.78,1.36l-13.9-2.561a6.2,6.2,0,0,0-4.517.613l-.047.028-6.391,4.04L40.22,292.573a10.068,10.068,0,0,0,3.794-2.123l2.276-2.025a14.33,14.33,0,0,1,14.876-1.432l.956.462a12.123,12.123,0,0,0,5.249,1.2h9.269a5.855,5.855,0,0,1,5.749,4.762l-6.717-.3a40.253,40.253,0,0,0-7.311.338,1.039,1.039,0,1,0,.285,2.058,38.07,38.07,0,0,1,6.932-.32l7.9.358h.047a1.039,1.039,0,0,0,1.039-1.039c0-.167-.007-.335-.017-.5l1.083-.571,11.453-6.178a4.535,4.535,0,0,1,5.46.875Z" transform="translate(-25.11 -238.127)"/>
  <path id="Trazado_102626" data-name="Trazado 102626" d="M76.97,434.571a3.271,3.271,0,1,0,3.271-3.271A3.271,3.271,0,0,0,76.97,434.571Zm3.271-1.193a1.193,1.193,0,1,1-1.193,1.193A1.193,1.193,0,0,1,80.241,433.378Z" transform="translate(-67.99 -360.947)"/>
  <path id="Trazado_102627" data-name="Trazado 102627" d="M226.311,36.3V32.875a7.885,7.885,0,1,0-15.771,0V36.3a7.885,7.885,0,1,0,15.771,0Zm-13.693,0V32.875a5.808,5.808,0,1,1,11.615,0V36.3a5.808,5.808,0,1,1-11.615,0Z" transform="translate(-178.433 -24.99)"/>
  <path id="Trazado_102628" data-name="Trazado 102628" d="M89.509,159.586h25.422a1.039,1.039,0,0,0,1.039-1.039v-2.384h17.4a1.039,1.039,0,0,0,1.039-1.039v-6.743a7.79,7.79,0,0,0-7.3-7.767l-.063,0a1.229,1.229,0,0,0-.994.594,4.767,4.767,0,0,1-7.522-.184,1.036,1.036,0,0,0-.861-.421,7.7,7.7,0,0,0-3.821,1.114,8.8,8.8,0,0,0-6.084-3.022l-.063,0a1.271,1.271,0,0,0-1.02.626,5.594,5.594,0,0,1-8.826-.216,1.029,1.029,0,0,0-.862-.421,8.759,8.759,0,0,0-6.411,3.046,7.742,7.742,0,0,0-3.557-1.112l-.062,0a1.228,1.228,0,0,0-.992.594,4.768,4.768,0,0,1-7.523-.184,1.036,1.036,0,0,0-.861-.421A7.782,7.782,0,0,0,70,148.381v6.743a1.039,1.039,0,0,0,1.039,1.039H88.47v2.384A1.039,1.039,0,0,0,89.509,159.586Zm32.852-14.553a6.829,6.829,0,0,0,5.113-2.293,5.712,5.712,0,0,1,4.861,5.642v5.7H115.97V147.42a8.7,8.7,0,0,0-.957-3.978,5.619,5.619,0,0,1,2.213-.73A6.772,6.772,0,0,0,122.361,145.032Zm-25.817-4.244a7.673,7.673,0,0,0,11.59.028,6.717,6.717,0,0,1,4.63,2.892l.007.01a6.632,6.632,0,0,1,1.122,3.7v10.088H90.548V147.42a6.663,6.663,0,0,1,6-6.632Zm-24.466,13.3v-5.7a5.744,5.744,0,0,1,5.065-5.668,6.847,6.847,0,0,0,10.251.026,5.66,5.66,0,0,1,2.028.715,8.714,8.714,0,0,0-.95,3.966v6.665Z" transform="translate(-62.227 -118.994)"/>
  <path id="Trazado_102629" data-name="Trazado 102629" d="M345.193,60.289v-3a7.032,7.032,0,1,0-14.063,0v3a7.032,7.032,0,1,0,14.063,0Zm-11.986,0v-3a4.954,4.954,0,1,1,9.908,0v3a4.954,4.954,0,1,1-9.908,0Z" transform="translate(-278.142 -45.885)"/>
  <path id="Trazado_102630" data-name="Trazado 102630" d="M113.713,60.289v-3a7.032,7.032,0,1,0-14.063,0v3a7.032,7.032,0,1,0,14.063,0Zm-11.986,0v-3a4.954,4.954,0,1,1,9.908,0v3a4.954,4.954,0,1,1-9.908,0Z" transform="translate(-86.743 -45.885)"/>
</svg>
