<svg xmlns="http://www.w3.org/2000/svg" width="81.131" height="80.363" viewBox="0 0 81.131 80.363">
  <g id="vision-2" transform="translate(0)">
    <path id="Trazado_102167" data-name="Trazado 102167" d="M296.863,401.871l9.16,13.321H272l9.16-13.321v6.778a2.625,2.625,0,0,0,2.617,2.617,2.636,2.636,0,0,0,2.617-2.617v-2.617a2.625,2.625,0,0,1,2.617-2.617,2.636,2.636,0,0,1,2.617,2.617v1.309a2.625,2.625,0,0,0,2.617,2.617,2.636,2.636,0,0,0,2.617-2.617Zm0,0" transform="translate(-227.509 -336.138)" fill="#b4dd7f"/>
    <path id="Trazado_102168" data-name="Trazado 102168" d="M40.863,401.871l9.16,13.321H16l9.16-13.321v6.778a2.625,2.625,0,0,0,2.617,2.617,2.636,2.636,0,0,0,2.617-2.617v-2.617a2.625,2.625,0,0,1,2.617-2.617,2.636,2.636,0,0,1,2.617,2.617v1.309a2.625,2.625,0,0,0,2.617,2.617,2.635,2.635,0,0,0,2.617-2.617Zm0,0" transform="translate(-13.383 -336.138)" fill="#b4dd7f"/>
    <g id="Grupo_54010" data-name="Grupo 54010" transform="translate(11.777 38.489)">
      <path id="Trazado_102169" data-name="Trazado 102169" d="M343.7,362.928v5.47a2.636,2.636,0,0,1-2.617,2.617,2.625,2.625,0,0,1-2.617-2.617v-1.308a2.635,2.635,0,0,0-2.617-2.617,2.625,2.625,0,0,0-2.617,2.617v2.617a2.635,2.635,0,0,1-2.617,2.617A2.625,2.625,0,0,1,328,369.706v-6.779l3.756-5.456a4.964,4.964,0,0,1,8.191,0Zm0,0" transform="translate(-286.126 -335.684)" fill="#e6e9ed"/>
      <path id="Trazado_102170" data-name="Trazado 102170" d="M87.7,362.928v5.47a2.636,2.636,0,0,1-2.617,2.617,2.625,2.625,0,0,1-2.617-2.617v-1.308a2.635,2.635,0,0,0-2.617-2.617,2.625,2.625,0,0,0-2.617,2.617v2.617a2.635,2.635,0,0,1-2.617,2.617A2.625,2.625,0,0,1,72,369.706v-6.779l3.756-5.456a4.964,4.964,0,0,1,8.191,0Zm0,0" transform="translate(-72 -335.684)" fill="#e6e9ed"/>
      <path id="Trazado_102171" data-name="Trazado 102171" d="M349.2,240.547a5.234,5.234,0,1,1,0,10.468h-15.3l-5.588-9.945a6.524,6.524,0,0,1,12.065-2.6,5.3,5.3,0,0,1,2.277-.537,5.214,5.214,0,0,1,4.7,2.97A5.089,5.089,0,0,1,349.2,240.547Zm0,0" transform="translate(-286.394 -235.312)" fill="#e6e9ed"/>
    </g>
    <path id="Trazado_102172" data-name="Trazado 102172" d="M146.3,230.161a18.943,18.943,0,0,0,3.9-1.649l3.873,6.87,5.588,9.945,2.211,3.926a4.981,4.981,0,0,0-4.1,2.159l-3.756,5.456-9.16,13.321h-7.851l-9.16-13.321-3.756-5.456a4.981,4.981,0,0,0-4.1-2.159l5.889-10.468,5.784-10.272a18.972,18.972,0,0,0,14.63,1.649Zm0,0" transform="translate(-100.372 -191.135)" fill="#c3b5ec"/>
    <path id="Trazado_102173" data-name="Trazado 102173" d="M257.265,147.211A18.822,18.822,0,0,1,248,149.632a9.16,9.16,0,1,0,0-18.32,18.94,18.94,0,0,1,13.4,5.548l3.611,3.612-3.611,3.611A18.708,18.708,0,0,1,257.265,147.211Zm0,0" transform="translate(-207.435 -109.834)" fill="#e6e9ed"/>
    <path id="Trazado_102174" data-name="Trazado 102174" d="M201.16,131.313a9.16,9.16,0,1,1-9.16,9.16A9.153,9.153,0,0,1,201.16,131.313Zm0,0" transform="translate(-160.595 -109.834)" fill="#ffcbbf"/>
    <path id="Trazado_102175" data-name="Trazado 102175" d="M231.851,167.238a3.926,3.926,0,1,1-3.926-3.926A3.926,3.926,0,0,1,231.851,167.238Zm0,0" transform="translate(-187.361 -136.6)" fill="#4fc1e9"/>
    <path id="Trazado_102176" data-name="Trazado 102176" d="M155.646,148.86a18.941,18.941,0,0,1-3.9-1.649,18.71,18.71,0,0,1-4.135-3.128L144,140.472l2-2,1.61-1.609a18.97,18.97,0,0,1,13.4-5.548,9.16,9.16,0,1,0,0,18.32A18.948,18.948,0,0,1,155.646,148.86Zm0,0" transform="translate(-120.446 -109.834)" fill="#e6e9ed"/>
    <path id="Trazado_102177" data-name="Trazado 102177" d="M37.992,173.977l-5.784,10.272H13.234a5.234,5.234,0,1,1,0-10.468,6.545,6.545,0,0,1,6.543-6.543,6.632,6.632,0,0,1,1.767.275,6.508,6.508,0,0,1,10.7-2.277l-2,2,3.611,3.611A18.71,18.71,0,0,0,37.992,173.977Zm0,0" transform="translate(-6.692 -136.6)" fill="#e6e9ed"/>
    <path id="Trazado_102178" data-name="Trazado 102178" d="M218.617,175.838a2.577,2.577,0,0,1,.266-1.12l-2.363-1.124a5.181,5.181,0,0,0-.52,2.244,5.212,5.212,0,0,0,7.481,4.715l-1.126-2.362A2.627,2.627,0,0,1,218.617,175.838Zm0,0" transform="translate(-180.669 -145.199)"/>
    <path id="Trazado_102179" data-name="Trazado 102179" d="M236.512,155.312a5.2,5.2,0,0,0-2.247.519l1.127,2.362a2.626,2.626,0,0,1,3.737,2.353,2.578,2.578,0,0,1-.266,1.12l2.364,1.124a5.181,5.181,0,0,0,.519-2.244A5.239,5.239,0,0,0,236.512,155.312Zm0,0" transform="translate(-195.947 -129.908)"/>
    <path id="Trazado_102180" data-name="Trazado 102180" d="M322.617,51.816h9.927l-1.692,1.692,1.85,1.85,4.851-4.851L332.7,45.656l-1.85,1.85,1.692,1.692H320V59.667h2.617Zm0,0" transform="translate(-267.658 -38.188)"/>
    <path id="Trazado_102181" data-name="Trazado 102181" d="M75.389,53.507,73.7,51.816h9.927v7.851h2.617V49.2H73.7l1.692-1.692-1.85-1.85-4.851,4.851,4.851,4.851Zm0,0" transform="translate(-57.453 -38.188)"/>
    <path id="Trazado_102182" data-name="Trazado 102182" d="M176.23,348l.654-2.618,2.539.634-.654,2.618Zm0,0" transform="translate(-147.405 -288.889)"/>
    <path id="Trazado_102183" data-name="Trazado 102183" d="M240,387.313h2.617v2.617H240Zm0,0" transform="translate(-200.744 -323.961)"/>
    <path id="Trazado_102184" data-name="Trazado 102184" d="M300.211,346l2.539-.634.654,2.617-2.539.635Zm0,0" transform="translate(-251.106 -288.876)"/>
    <path id="Trazado_102185" data-name="Trazado 102185" d="M74.588,55.5a6.543,6.543,0,1,0,0-13.085,6.214,6.214,0,0,0-1.235.125,6.512,6.512,0,0,0-7.107-2.479,7.807,7.807,0,0,0-12.82,1.028L51.6,37.836a20.364,20.364,0,0,0,3.3-2.666l4.533-4.533L54.894,26.1a20.1,20.1,0,0,0-13.02-5.871V5.009L43.566,6.7l1.85-1.85L40.565,0,35.715,4.851l1.85,1.85,1.692-1.692V20.234A20.109,20.109,0,0,0,26.236,26.1l-.756.756A7.822,7.822,0,0,0,14.107,29.41a6.713,6.713,0,0,0-1.022-.08,7.864,7.864,0,0,0-7.761,6.656A6.543,6.543,0,0,0,6.543,48.958H23.279l-4.445,7.9a6.281,6.281,0,0,0-4.384,2.672L.13,80.363H81L66.682,59.533A6.276,6.276,0,0,0,62.3,56.861L61.531,55.5ZM60.194,39.8a5.194,5.194,0,0,1,4.457,2.531l.619,1.018,1.07-.521a3.878,3.878,0,0,1,5.225,1.82l.521,1.077L73.2,45.3a3.885,3.885,0,0,1,5.309,3.657,3.931,3.931,0,0,1-3.926,3.926H60.059l-4.982-8.858A5.221,5.221,0,0,1,60.194,39.8Zm-27.48-9.16a7.851,7.851,0,1,1,7.851,7.851A7.859,7.859,0,0,1,32.714,30.638Zm23.012,0-2.682,2.684a17.682,17.682,0,0,1-3.524,2.712,10.368,10.368,0,0,0,0-10.79,17.7,17.7,0,0,1,3.524,2.711Zm-24.115-5.4a10.368,10.368,0,0,0,0,10.79,17.73,17.73,0,0,1-3.524-2.712L25.4,30.638l2.682-2.684A17.739,17.739,0,0,1,31.611,25.243ZM6.543,46.341a3.926,3.926,0,1,1,0-7.851H7.851V37.181A5.15,5.15,0,0,1,14.5,32.168l1.145.319.427-1.109a5.168,5.168,0,0,1,7.51-2.615L21.7,30.638l4.533,4.534a20.614,20.614,0,0,0,3.3,2.666l-4.783,8.5ZM16.607,61.016a3.666,3.666,0,0,1,6.043,0l3.521,5.122V71.2a1.309,1.309,0,0,1-2.617,0V69.894a3.926,3.926,0,0,0-7.851,0v2.617a1.309,1.309,0,0,1-2.617,0V66.137ZM5.1,77.746l5.364-7.8v2.567a3.926,3.926,0,0,0,7.851,0V69.894a1.309,1.309,0,0,1,2.617,0V71.2a3.926,3.926,0,0,0,7.851,0V69.944l5.364,7.8Zm32.223,0L24.808,59.533a6.279,6.279,0,0,0-3.138-2.375l10.153-18.05q.889.426,1.815.763l-3.5,14,2.539.633,3.475-13.9a20.324,20.324,0,0,0,3.107.433V60.735h2.617V41.043a20.324,20.324,0,0,0,3.107-.433l3.475,13.9,2.539-.633-3.5-14q.927-.336,1.815-.763l10.153,18.05a6.272,6.272,0,0,0-3.138,2.375L43.8,77.746Zm9.651,0,5.364-7.8v2.567a3.926,3.926,0,0,0,7.851,0V69.894a1.309,1.309,0,0,1,2.617,0V71.2a3.926,3.926,0,0,0,7.851,0V69.944l5.364,7.8Zm17.545-16.73,3.521,5.122V71.2a1.309,1.309,0,0,1-2.617,0V69.894a3.926,3.926,0,0,0-7.851,0v2.617a1.309,1.309,0,0,1-2.617,0V66.137l3.521-5.122a3.667,3.667,0,0,1,6.043,0Zm0,0" transform="translate(0)"/>
    <path id="Trazado_102186" data-name="Trazado 102186" d="M416,211.313h2.617v2.617H416Zm0,0" transform="translate(-347.955 -176.749)"/>
    <path id="Trazado_102187" data-name="Trazado 102187" d="M448,211.313h2.617v2.617H448Zm0,0" transform="translate(-374.721 -176.749)"/>
    <path id="Trazado_102188" data-name="Trazado 102188" d="M480,211.313h2.617v2.617H480Zm0,0" transform="translate(-401.487 -176.749)"/>
    <path id="Trazado_102189" data-name="Trazado 102189" d="M0,315.313H2.617v2.617H0Zm0,0" transform="translate(0 -263.738)"/>
    <path id="Trazado_102190" data-name="Trazado 102190" d="M32,315.313h2.617v2.617H32Zm0,0" transform="translate(-26.766 -263.738)"/>
    <path id="Trazado_102191" data-name="Trazado 102191" d="M64,315.313h2.617v2.617H64Zm0,0" transform="translate(-53.532 -263.738)"/>
  </g>
</svg>
