<svg xmlns="http://www.w3.org/2000/svg" width="64" height="80" viewBox="0 0 64 80">
  <g id="Fill_out_line" data-name="Fill out line" transform="translate(0 0)">
    <path id="Trazado_102607" data-name="Trazado 102607" d="M209.333,274.667l-14.667,14.667L184,278.667l5.333-5.333v-8L198.667,256a5.635,5.635,0,0,1,1.647,3.687c.007.1.01.208.01.313a5.641,5.641,0,0,1-1.657,4Z" transform="translate(-164 -216)" fill="#f4ceaf"/>
    <path id="Trazado_102608" data-name="Trazado 102608" d="M256,286.667l10.667,10.667,6.667-6.667L262.667,280Z" transform="translate(-224 -236)" fill="#f4ceaf"/>
    <path id="Trazado_102609" data-name="Trazado 102609" d="M64,389.333,85.333,368,100,382.667l-6.667,6.667Z" transform="translate(-64 -309.333)" fill="#ffba5b"/>
    <rect id="Rect치ngulo_30799" data-name="Rect치ngulo 30799" width="5.657" height="18.856" transform="translate(42.667 61.333) rotate(-45)" fill="#ad7d4d"/>
    <rect id="Rect치ngulo_30800" data-name="Rect치ngulo 30800" width="5.657" height="37.712" transform="translate(1.333 20) rotate(-45)" fill="#ad7d4d"/>
    <path id="Trazado_102610" data-name="Trazado 102610" d="M232,40l16-16,18.667,18.667-14,14a2.828,2.828,0,0,1-4,0Z" transform="translate(-204 -22.667)" fill="#ff7758"/>
    <path id="Trazado_102611" data-name="Trazado 102611" d="M96,65.858l18-18a2.828,2.828,0,0,1,4,0l18.667,18.667h0a2.828,2.828,0,0,0-4,0l-18,18Z" transform="translate(-90.667 -41.858)" fill="#ff7758"/>
    <path id="Trazado_102612" data-name="Trazado 102612" d="M304.162,161.857a2.818,2.818,0,0,1-.828,2L302,165.191a2.828,2.828,0,0,0,0,4l-6-6,3.333-3.333a2.828,2.828,0,0,1,4.828,2Z" transform="translate(-257.334 -135.191)" fill="#675d84"/>
    <path id="Trazado_102613" data-name="Trazado 102613" d="M102.666,45.886l5.057,5.057a4.167,4.167,0,0,0,5.886,0l14-14a1.334,1.334,0,0,0,0-1.886L108.942,16.391a1.334,1.334,0,0,0-1.886,0l-9.724,9.724-5.057-5.057a4.167,4.167,0,0,0-5.886,0L73.333,34.115l-3.057-3.057a1.334,1.334,0,0,0-1.886,0l-4,4a1.334,1.334,0,0,0,0,1.886L90.114,62.667,88.39,64.391a1.334,1.334,0,0,0-.39.943v7.448l-1.333,1.333-.391-.391a1.334,1.334,0,0,0-1.886,0l-20,20,1.886,1.886L85.333,76.553,98.114,89.334l-4.391,4.39,1.886,1.886,5.333-5.333a1.334,1.334,0,0,0,0-1.886l-1.724-1.724,7.448-7.448,12.39,12.391a1.334,1.334,0,0,0,1.886,0l4-4a1.334,1.334,0,0,0,0-1.886l-12.39-12.391,1.724-1.724a1.334,1.334,0,0,0,0-1.886L103.609,59.058a1.334,1.334,0,0,0-1.886,0l-.117.117a6.937,6.937,0,0,0-2-4.117,1.334,1.334,0,0,0-1.886,0L96,56.782l-2.114-2.114Zm6.39-2.162-1.333,1.333a4.139,4.139,0,0,0-.86,1.254L104.552,44l2.39-2.39a1.5,1.5,0,1,1,2.114,2.114ZM108,19.219,124.781,36,111.723,49.058a1.5,1.5,0,0,1-2.114-2.114l1.333-1.333a4.162,4.162,0,0,0,0-5.886L99.219,28ZM88.276,22.943a1.5,1.5,0,0,1,2.114,0l15.92,15.92a4.143,4.143,0,0,0-1.254.861L88,56.782,71.219,40ZM69.333,33.886,71.447,36l-2.114,2.114L67.219,36Zm52.781,52.781L120,88.782,108.552,77.334l2.114-2.114ZM102.666,61.886l8.781,8.781-4.781,4.781-8.781-8.781,1.724-1.724h0l0,0Zm-4.147-3.853a4.33,4.33,0,0,1-.8,5.024l-2.667,2.667a1.334,1.334,0,0,0,0,1.886,6.216,6.216,0,0,1,0,8.781l1.886,1.886a8.846,8.846,0,0,0,2.593-6.188l5.245,5.245-7.448,7.448L88.552,76l1.724-1.724a1.334,1.334,0,0,0,.39-.943V65.886Zm-4.4.634L92,60.782l-2.114-2.114L92,56.553Z" transform="translate(-64 -16.001)"/>
  </g>
</svg>
