<svg xmlns="http://www.w3.org/2000/svg" width="70.343" height="71.534" viewBox="0 0 70.343 71.534">
  <g id="datos-2" transform="translate(0 0.001)">
    <path id="Trazado_141294" data-name="Trazado 141294" d="M17.569,8.533h47.69A4.769,4.769,0,0,1,70.028,13.3V51.454a4.769,4.769,0,0,1-4.769,4.769H17.569A4.769,4.769,0,0,1,12.8,51.454V13.3A4.769,4.769,0,0,1,17.569,8.533Z" transform="translate(-11.608 -7.342)" fill="#c3b5ec"/>
    <g id="Grupo_82466" data-name="Grupo 82466" transform="translate(4.769 4.768)">
      <rect id="Rectángulo_30972" data-name="Rectángulo 30972" width="2.385" height="2.385" fill="#ff7758"/>
      <rect id="Rectángulo_30973" data-name="Rectángulo 30973" width="2.385" height="2.385" transform="translate(4.769)" fill="#ff7758"/>
      <rect id="Rectángulo_30974" data-name="Rectángulo 30974" width="2.385" height="2.385" transform="translate(9.538)" fill="#ff7758"/>
      <path id="Trazado_141295" data-name="Trazado 141295" d="M68.769,76.8h47.69a4.769,4.769,0,0,1,4.769,4.769v38.152a4.769,4.769,0,0,1-4.769,4.769H68.769A4.769,4.769,0,0,1,64,119.721V81.569A4.769,4.769,0,0,1,68.769,76.8Z" transform="translate(-60.423 -70.839)" fill="#ff7758"/>
    </g>
    <g id="Grupo_82467" data-name="Grupo 82467" transform="translate(11.923 14.306)">
      <rect id="Rectángulo_30975" data-name="Rectángulo 30975" width="2.385" height="2.385" fill="#87ced9"/>
      <rect id="Rectángulo_30976" data-name="Rectángulo 30976" width="2.385" height="2.385" transform="translate(4.769)" fill="#87ced9"/>
      <rect id="Rectángulo_30977" data-name="Rectángulo 30977" width="2.385" height="2.385" transform="translate(9.538)" fill="#87ced9"/>
    </g>
    <g id="Grupo_82468" data-name="Grupo 82468" transform="translate(11.923 19.075)">
      <rect id="Rectángulo_30978" data-name="Rectángulo 30978" width="50.075" height="2.385" transform="translate(0 29.806)" fill="#3685ba"/>
      <rect id="Rectángulo_30979" data-name="Rectángulo 30979" width="2.385" height="7.153" transform="translate(2.385 20.268)" fill="#3685ba"/>
      <rect id="Rectángulo_30980" data-name="Rectángulo 30980" width="2.385" height="14.307" transform="translate(7.154 13.115)" fill="#3685ba"/>
      <rect id="Rectángulo_30981" data-name="Rectángulo 30981" width="2.385" height="10.73" transform="translate(11.923 16.692)" fill="#3685ba"/>
      <rect id="Rectángulo_30982" data-name="Rectángulo 30982" width="2.385" height="19.076" transform="translate(16.692 8.346)" fill="#3685ba"/>
      <rect id="Rectángulo_30983" data-name="Rectángulo 30983" width="2.385" height="21.46" transform="translate(21.461 5.961)" fill="#3685ba"/>
      <rect id="Rectángulo_30984" data-name="Rectángulo 30984" width="2.385" height="8.346" transform="translate(26.23 7.153)" fill="#3685ba"/>
      <rect id="Rectángulo_30985" data-name="Rectángulo 30985" width="2.385" height="13.115" transform="translate(30.999 2.385)" fill="#3685ba"/>
      <rect id="Rectángulo_30986" data-name="Rectángulo 30986" width="2.385" height="15.499" transform="translate(35.768)" fill="#3685ba"/>
      <rect id="Rectángulo_30987" data-name="Rectángulo 30987" width="2.385" height="22.653" transform="translate(40.537 4.769)" fill="#3685ba"/>
      <rect id="Rectángulo_30988" data-name="Rectángulo 30988" width="2.385" height="17.884" transform="translate(45.306 9.538)" fill="#3685ba"/>
    </g>
    <path id="Trazado_141387" data-name="Trazado 141387" d="M0,0H5.059V20.234H0Z" transform="translate(69.158 66.773) rotate(135)" fill="#ffba5b"/>
    <path id="Trazado_141386" data-name="Trazado 141386" d="M15.5,0A15.5,15.5,0,1,1,0,15.5,15.5,15.5,0,0,1,15.5,0Z" transform="translate(28.614 30.998)" fill="#ffba5b"/>
    <ellipse id="Elipse_4212" data-name="Elipse 4212" cx="10.73" cy="10.73" rx="10.73" ry="10.73" transform="translate(33.383 35.765)" fill="#ffcbbf"/>
    <g id="Grupo_82469" data-name="Grupo 82469" transform="translate(33.383 35.766)">
      <path id="Trazado_141297" data-name="Trazado 141297" d="M245.171,349.867a10.594,10.594,0,0,0,.854,2.385h19.2a10.6,10.6,0,0,0,.854-2.385Z" transform="translate(-244.896 -336.752)"/>
      <path id="Trazado_141298" data-name="Trazado 141298" d="M313.851,266.728v-10.66a10.1,10.1,0,0,0-2.385,0v10.66Z" transform="translate(-301.928 -255.997)"/>
      <path id="Trazado_141299" data-name="Trazado 141299" d="M279.718,270.57V260.463a10.677,10.677,0,0,0-2.385,1.186v8.92Z" transform="translate(-272.564 -259.839)"/>
      <path id="Trazado_141300" data-name="Trazado 141300" d="M347.985,270.57v-8.92a10.671,10.671,0,0,0-2.385-1.186V270.57Z" transform="translate(-331.293 -259.839)"/>
      <path id="Trazado_141301" data-name="Trazado 141301" d="M245.585,284.578a10.681,10.681,0,0,0-2.385,6.737h2.385Z" transform="translate(-243.2 -280.585)"/>
      <path id="Trazado_141302" data-name="Trazado 141302" d="M379.733,291.315h2.385a10.68,10.68,0,0,0-2.385-6.737Z" transform="translate(-360.657 -280.585)"/>
    </g>
    <path id="Trazado_141303" data-name="Trazado 141303" d="M8.739,49.886l.6-2.308a3.578,3.578,0,0,1-2.684-3.465V5.961a3.576,3.576,0,0,1,3.577-3.577h47.69A3.576,3.576,0,0,1,61.5,5.961V7.153H63.88V5.961A5.968,5.968,0,0,0,57.919,0H10.228A5.968,5.968,0,0,0,4.267,5.961V44.113A5.962,5.962,0,0,0,8.739,49.886Z" transform="translate(-4.267 -0.001)"/>
    <rect id="Rectángulo_30991" data-name="Rectángulo 30991" width="2.385" height="2.385" transform="translate(4.769 4.768)"/>
    <rect id="Rectángulo_30992" data-name="Rectángulo 30992" width="2.385" height="2.385" transform="translate(9.538 4.768)"/>
    <rect id="Rectángulo_30993" data-name="Rectángulo 30993" width="2.385" height="2.385" transform="translate(14.307 4.768)"/>
    <path id="Trazado_141304" data-name="Trazado 141304" d="M137.779,168.725h1.9V166.34h-1.383a16.062,16.062,0,0,0-1-8.544V146.072h-2.385v7.592a16.779,16.779,0,0,0-2.385-2.475V141.3h-2.385v8.219a16.613,16.613,0,0,0-2.385-1.139v-11.85h-2.384V147.66a16.56,16.56,0,0,0-2.385-.335v-8.407H120.6v8.407a16.562,16.562,0,0,0-2.385.335v-3.973H115.83v4.7a16.619,16.619,0,0,0-2.385,1.139V142.5h-2.384v8.694a16.78,16.78,0,0,0-2.385,2.475V144.88h-2.385V157.8a16.062,16.062,0,0,0-1,8.544H89.6v2.385h16.2a16.656,16.656,0,0,0,25.567,8.88l11.039,11.039a1.193,1.193,0,0,0,1.686,0l3.577-3.577a1.193,1.193,0,0,0,0-1.686l-11.309-11.309A16.466,16.466,0,0,0,137.779,168.725Zm-30.3-4.769a14.307,14.307,0,1,1,14.307,14.307A14.308,14.308,0,0,1,107.484,163.956Zm37.659,20.268-1.891,1.891-10.029-10.029a16.889,16.889,0,0,0,1.794-1.987Z" transform="translate(-77.677 -117.459)"/>
    <path id="Trazado_141305" data-name="Trazado 141305" d="M246.59,247.467a11.922,11.922,0,1,0,11.923,11.922A11.922,11.922,0,0,0,246.59,247.467Zm-5.961,4.489v7.434h2.385v-8.836a9.432,9.432,0,0,1,2.385-.619v9.455h2.385v-9.454a9.427,9.427,0,0,1,2.385.619v8.836h2.385v-7.434a9.451,9.451,0,0,1,3.263,9.818H237.365A9.451,9.451,0,0,1,240.628,251.956Zm5.961,16.972a9.54,9.54,0,0,1-8.248-4.769h16.5A9.539,9.539,0,0,1,246.59,268.927Z" transform="translate(-202.476 -212.892)"/>
    <path id="Trazado_141306" data-name="Trazado 141306" d="M55.467,74.227v38.152a5.968,5.968,0,0,0,5.961,5.961h15.5v-2.385h-15.5a3.576,3.576,0,0,1-3.577-3.577V74.227a3.576,3.576,0,0,1,3.577-3.577h47.69a3.576,3.576,0,0,1,3.577,3.577v38.152a3.576,3.576,0,0,1-.894,2.365l1.788,1.577a5.951,5.951,0,0,0,1.49-3.943V74.227a5.968,5.968,0,0,0-5.961-5.961H61.428A5.968,5.968,0,0,0,55.467,74.227Z" transform="translate(-48.313 -58.729)"/>
    <rect id="Rectángulo_30994" data-name="Rectángulo 30994" width="2.385" height="2.385" transform="translate(11.923 14.306)"/>
    <rect id="Rectángulo_30995" data-name="Rectángulo 30995" width="2.385" height="2.385" transform="translate(16.692 14.306)"/>
    <rect id="Rectángulo_30996" data-name="Rectángulo 30996" width="2.385" height="2.385" transform="translate(21.461 14.306)"/>
    <rect id="Rectángulo_30997" data-name="Rectángulo 30997" width="2.385" height="7.153" transform="translate(14.307 39.343)"/>
    <rect id="Rectángulo_30998" data-name="Rectángulo 30998" width="2.385" height="14.307" transform="translate(19.076 32.19)"/>
    <rect id="Rectángulo_30999" data-name="Rectángulo 30999" width="2.385" height="10.73" transform="translate(23.845 35.767)"/>
  </g>
</svg>
