<svg xmlns="http://www.w3.org/2000/svg" width="80" height="61.637" viewBox="0 0 80 61.637">
  <g id="diseno-de-logo-2" transform="translate(0.001 0.001)">
    <path id="Trazado_102560" data-name="Trazado 102560" d="M100.227,125.278,84.336,116.1a3.582,3.582,0,0,0-3.582,0l-15.9,9.17a3.585,3.585,0,0,0-1.8,3.1v18.352a3.579,3.579,0,0,0,1.786,3.1L80.738,159a3.582,3.582,0,0,0,3.582,0l15.9-9.17a3.585,3.585,0,0,0,1.8-3.1V128.381a3.578,3.578,0,0,0-1.786-3.1ZM94.506,142.4a3.583,3.583,0,0,1-1.794,3.1l-8.389,4.839a3.582,3.582,0,0,1-3.582,0l-8.385-4.845a3.58,3.58,0,0,1-1.788-3.1V132.7a3.584,3.584,0,0,1,1.794-3.1l8.389-4.839a3.582,3.582,0,0,1,3.582,0l8.385,4.845a3.58,3.58,0,0,1,1.788,3.1V142.4Z" transform="translate(-53.208 -106.732)" fill="#ffba5b"/>
    <g id="Grupo_54017" data-name="Grupo 54017" transform="translate(38.784 8.782)">
      <path id="Trazado_102562" data-name="Trazado 102562" d="M434.294,116.813a6.316,6.316,0,0,1,0,8.932l-1.876,1.876-8.933-8.932,1.876-1.876A6.317,6.317,0,0,1,434.294,116.813Z" transform="translate(-396.1 -114.963)" fill="#ff7758"/>
      <path id="Trazado_102564" data-name="Trazado 102564" d="M272.947,157.461l-20.515,20.514-3.812,10.7a1.6,1.6,0,0,0,2.046,2.046l10.7-3.812,20.515-20.514Z" transform="translate(-248.476 -150.821)" fill="#ffdfcf"/>
      <path id="Trazado_102565" data-name="Trazado 102565" d="M278.952,197.853l-20.515,20.514-9.688,4.822a1.686,1.686,0,0,1-.53.166,1.6,1.6,0,0,0,2.141,1.444l10.7-3.812,20.515-20.514Z" transform="translate(-248.219 -184.902)" fill="#ffcebf"/>
      <path id="Trazado_102566" data-name="Trazado 102566" d="M273.535,177.974Q278.973,177,278,182.44q5.438-.971,4.466,4.466l20.515-20.514-8.933-8.932Z" transform="translate(-269.579 -150.82)" fill="#c3b5ec"/>
      <path id="Trazado_102568" data-name="Trazado 102568" d="M249.946,333.4l-1.327,3.724a1.6,1.6,0,0,0,2.046,2.046l3.724-1.327Z" transform="translate(-248.475 -299.267)" fill="#596c76"/>
      <path id="Trazado_102569" data-name="Trazado 102569" d="M248.529,351.021a1.558,1.558,0,0,0,2.092,1.453l3.76-1.34-1.966-1.966-3.4,1.695A1.7,1.7,0,0,1,248.529,351.021Z" transform="translate(-248.481 -312.576)" fill="#465a61"/>
      <path id="Trazado_102570" data-name="Trazado 102570" d="M294.773,161.258Z" transform="translate(-265.835 -150.152)" fill="#fdb97e"/>
      <path id="Trazado_102571" data-name="Trazado 102571" d="M413.1,134.1l-9-9a3.022,3.022,0,1,0-4.275,4.274l9,9A3.022,3.022,0,1,0,413.1,134.1Z" transform="translate(-375.387 -122.762)" fill="#d8ecfe"/>
      <path id="Trazado_102572" data-name="Trazado 102572" d="M452.747,173.743l-2.548-2.548c.911.91.692,2.605-.489,3.786s-2.875,1.4-3.786.489l2.548,2.548a3.023,3.023,0,0,0,4.275-4.274Z" transform="translate(-415.033 -162.409)" fill="#b3dafe"/>
    </g>
    <path id="Trazado_102573" data-name="Trazado 102573" d="M80,73.85a7.487,7.487,0,0,0-12.573-5.5,4.193,4.193,0,0,0-5.722,5.711L49.981,85.789V68.253h7.505a1.172,1.172,0,1,0,0-2.344H49.981V59.923a1.172,1.172,0,0,0-2.344,0V65.91H19.846a1.172,1.172,0,1,0,0,2.344H24.96l-13.9,8.016-.041.026V68.253h4.138a1.172,1.172,0,1,0,0-2.344H11.021V59.923a1.172,1.172,0,0,0-2.344,0V65.91H1.172a1.172,1.172,0,1,0,0,2.344H8.677v42.632H1.172a1.172,1.172,0,1,0,0,2.344H8.677v5.987a1.172,1.172,0,0,0,2.344,0v-5.987H40.132a1.172,1.172,0,1,0,0-2.344H33.7l4.943-2.851a2.742,2.742,0,0,0,1.786.665,2.8,2.8,0,0,0,.941-.164l6.27-2.234v4.584H44.82a1.172,1.172,0,1,0,0,2.344h2.817v5.987a1.172,1.172,0,0,0,2.344,0v-5.987h7.505a1.172,1.172,0,1,0,0-2.344H49.981v-5.419l2.085-.743h0a1.184,1.184,0,0,0,.111-.047l.025-.013q.04-.02.078-.043l.033-.021c.024-.016.047-.032.069-.049l.027-.02c.03-.025.059-.05.087-.078l0,0L72.3,84.655a4.193,4.193,0,0,0,5.711-5.722A7.429,7.429,0,0,0,80,73.85Zm-3.851-3.638a5.141,5.141,0,0,1,.3,6.948L69.2,69.913a5.153,5.153,0,0,1,6.948.3ZM45,104.752l-3.4-3.4,2-5.61a2.686,2.686,0,0,1,2.14.4c.448.447.553,1.416.306,2.8,0,.007,0,.013,0,.02-.005.034-.01.069-.012.1,0,.014,0,.028,0,.042,0,.03,0,.061,0,.091a1.172,1.172,0,0,0,1.375,1.1c1.385-.247,2.354-.141,2.8.306a2.685,2.685,0,0,1,.4,2.14Zm6.868-5.8a3.714,3.714,0,0,0-1.833-.976L60.489,87.529a1.172,1.172,0,0,0-1.657-1.657L48.38,96.323a3.553,3.553,0,0,0-2.811-2.807L63.255,75.831l2.809,2.809-3.407,3.406A1.172,1.172,0,0,0,64.315,83.7L67.721,80.3l2.809,2.809L52.845,100.79a3.712,3.712,0,0,0-.974-1.834Zm-4.233-30.7V76.3l-.032-.02-13.9-8.03ZM11.025,80.387A2.425,2.425,0,0,1,12.234,78.3l15.9-9.17a2.415,2.415,0,0,1,2.409,0l15.89,9.182A2.42,2.42,0,0,1,47.638,80.4v7.731L42.471,93.3V84.732A4.766,4.766,0,0,0,40.1,80.614l-8.385-4.845a4.767,4.767,0,0,0-4.754,0l-8.389,4.839a4.768,4.768,0,0,0-2.38,4.116v9.684a4.766,4.766,0,0,0,2.373,4.118l8.385,4.845a4.767,4.767,0,0,0,4.754,0l8.389-4.839.046-.028-2.312,6.487a2.8,2.8,0,0,0-.162.9l-7.134,4.116a2.419,2.419,0,0,1-2.412,0l-15.89-9.182a2.414,2.414,0,0,1-1.2-2.089Zm29.1,4.345v9.684A2.417,2.417,0,0,1,38.919,96.5l-8.389,4.839a2.417,2.417,0,0,1-2.41,0l-8.385-4.845a2.416,2.416,0,0,1-1.2-2.088V84.723a2.417,2.417,0,0,1,1.208-2.087L28.129,77.8a2.417,2.417,0,0,1,2.41,0l8.385,4.845a2.417,2.417,0,0,1,1.2,2.088ZM11.021,110.885v-8.05l.032.02,13.9,8.03H11.021Zm29.56-4.558a.43.43,0,0,1-.549-.549l.7-1.978,1.822,1.822ZM75.669,82.313a1.853,1.853,0,0,1-2.617,0l-.036-.036-8.933-8.932-.036-.036a1.851,1.851,0,0,1,2.617-2.617l9,9A1.852,1.852,0,0,1,75.669,82.313Z" transform="translate(-0.001 -58.752)"/>
  </g>
</svg>
