<svg xmlns="http://www.w3.org/2000/svg" xmlns:xlink="http://www.w3.org/1999/xlink" width="505" height="281.137" viewBox="0 0 505 281.137">
  <defs>
    <linearGradient id="linear-gradient" x1="-73.414" y1="1.05" x2="-73.808" y2="0.032" gradientUnits="objectBoundingBox">
      <stop offset="0" stop-color="#ff928e"/>
      <stop offset="1" stop-color="#feb3b1"/>
    </linearGradient>
    <linearGradient id="linear-gradient-2" x1="-62.78" y1="-2.882" x2="-63.124" y2="1.573" gradientUnits="objectBoundingBox">
      <stop offset="0" stop-color="#09005d"/>
      <stop offset="1" stop-color="#1a0f91"/>
    </linearGradient>
    <linearGradient id="linear-gradient-3" x1="-26.71" y1="0.93" x2="-25.391" y2="-0.04" xlink:href="#linear-gradient"/>
    <linearGradient id="linear-gradient-4" x1="-90.109" y1="-2.209" x2="-93.325" y2="1.475" xlink:href="#linear-gradient-2"/>
    <linearGradient id="linear-gradient-5" x1="-95.153" y1="0.4" x2="-96.047" y2="1.875" xlink:href="#linear-gradient"/>
    <linearGradient id="linear-gradient-6" x1="-63.76" y1="0.038" x2="-66.205" y2="0.9" xlink:href="#linear-gradient"/>
    <linearGradient id="linear-gradient-7" x1="-244.071" y1="-1.471" x2="-253.309" y2="1.262" xlink:href="#linear-gradient"/>
    <linearGradient id="linear-gradient-8" x1="-44.873" y1="0.511" x2="-38.158" y2="-2.713" gradientUnits="objectBoundingBox">
      <stop offset="0" stop-color="#fe7062"/>
      <stop offset="1" stop-color="#ff928e"/>
    </linearGradient>
    <linearGradient id="linear-gradient-9" x1="-76.789" y1="-0.248" x2="-78.4" y2="0.827" xlink:href="#linear-gradient"/>
    <linearGradient id="linear-gradient-10" x1="-46.653" y1="0.5" x2="-45.653" y2="0.5" xlink:href="#linear-gradient"/>
    <linearGradient id="linear-gradient-11" x1="-61.743" y1="-2.927" x2="-61.71" y2="1.776" xlink:href="#linear-gradient-2"/>
    <linearGradient id="linear-gradient-12" x1="-60.718" y1="-12.945" x2="-64.416" y2="11.133" gradientUnits="objectBoundingBox">
      <stop offset="0" stop-color="#4f52ff"/>
      <stop offset="1" stop-color="#4042e2"/>
    </linearGradient>
    <linearGradient id="linear-gradient-13" x1="-164.277" y1="-0.843" x2="-164.783" y2="2.39" xlink:href="#linear-gradient"/>
    <linearGradient id="linear-gradient-14" x1="-41.908" y1="-5.387" x2="-44.425" y2="17.678" xlink:href="#linear-gradient-12"/>
    <linearGradient id="linear-gradient-15" x1="-42.74" y1="-3.408" x2="-42.717" y2="1.872" xlink:href="#linear-gradient-2"/>
    <linearGradient id="linear-gradient-16" x1="-167.005" y1="-0.223" x2="-167.519" y2="2.539" xlink:href="#linear-gradient"/>
    <linearGradient id="linear-gradient-17" x1="-23.08" y1="-0.312" x2="-25.525" y2="1.239" xlink:href="#linear-gradient-2"/>
    <linearGradient id="linear-gradient-18" x1="-69.073" y1="-0.222" x2="-69.891" y2="2.966" xlink:href="#linear-gradient"/>
    <linearGradient id="linear-gradient-19" x1="-71.036" y1="-45.558" x2="-72.108" y2="-44.277" xlink:href="#linear-gradient"/>
    <linearGradient id="linear-gradient-20" x1="-207.295" y1="-150.151" x2="-204.837" y2="-152.799" xlink:href="#linear-gradient"/>
    <linearGradient id="linear-gradient-21" x1="-77.285" y1="4.351" x2="-50.77" y2="1.851" gradientUnits="objectBoundingBox">
      <stop offset="0" stop-color="#4042e2"/>
      <stop offset="1" stop-color="#4f52ff"/>
    </linearGradient>
    <linearGradient id="linear-gradient-22" x1="-110.831" y1="-0.866" x2="-111.754" y2="0.839" gradientUnits="objectBoundingBox">
      <stop offset="0" stop-color="#020039"/>
      <stop offset="1" stop-color="#090056"/>
    </linearGradient>
    <linearGradient id="linear-gradient-23" x1="-4.147" y1="1.111" x2="-4.264" y2="2.738" xlink:href="#linear-gradient-8"/>
    <linearGradient id="linear-gradient-24" x1="-147.366" y1="2.383" x2="-147.408" y2="-0.75" gradientUnits="objectBoundingBox">
      <stop offset="0" stop-color="#e1473d"/>
      <stop offset="1" stop-color="#e9605a"/>
    </linearGradient>
    <linearGradient id="linear-gradient-25" x1="-498.049" y1="-0.274" x2="-497.333" y2="3.943" xlink:href="#linear-gradient-24"/>
    <linearGradient id="linear-gradient-26" x1="-147.371" y1="2.023" x2="-147.413" y2="-1.11" xlink:href="#linear-gradient-24"/>
    <linearGradient id="linear-gradient-27" x1="-498.091" y1="-0.442" x2="-497.376" y2="3.435" xlink:href="#linear-gradient-24"/>
    <linearGradient id="linear-gradient-28" x1="-41.544" y1="-1.4" x2="-41.603" y2="1.266" xlink:href="#linear-gradient-24"/>
    <linearGradient id="linear-gradient-29" x1="-26.941" y1="-7.578" x2="-28.822" y2="-2.92" xlink:href="#linear-gradient"/>
    <linearGradient id="linear-gradient-30" x1="-3.969" y1="-0.64" x2="-3.937" y2="1.616" xlink:href="#linear-gradient-8"/>
    <linearGradient id="linear-gradient-31" x1="-92.813" y1="-1.393" x2="-93.074" y2="1.019" xlink:href="#linear-gradient-24"/>
    <linearGradient id="linear-gradient-32" x1="-122.837" y1="0.5" x2="-121.837" y2="0.5" xlink:href="#linear-gradient-8"/>
    <linearGradient id="linear-gradient-33" x1="-82.732" y1="-1.584" x2="-84.284" y2="4.445" xlink:href="#linear-gradient"/>
    <linearGradient id="linear-gradient-34" x1="-12.913" y1="0.5" x2="-11.913" y2="0.5" xlink:href="#linear-gradient-2"/>
    <linearGradient id="linear-gradient-35" x1="-15.616" y1="2.605" x2="-14.581" y2="-0.184" gradientUnits="objectBoundingBox">
      <stop offset="0" stop-color="#a22b25"/>
      <stop offset="1" stop-color="#c0423c"/>
    </linearGradient>
    <linearGradient id="linear-gradient-36" x1="-13.341" y1="0.5" x2="-12.341" y2="0.5" xlink:href="#linear-gradient-2"/>
    <linearGradient id="linear-gradient-37" x1="-4.767" y1="2.453" x2="-4.303" y2="-0.438" xlink:href="#linear-gradient-35"/>
    <linearGradient id="linear-gradient-38" x1="-4.241" y1="-0.331" x2="-5.227" y2="0.684" xlink:href="#linear-gradient-2"/>
    <linearGradient id="linear-gradient-39" x1="-5.364" y1="-0.162" x2="-5.222" y2="1.404" xlink:href="#linear-gradient-35"/>
    <linearGradient id="linear-gradient-40" x1="-10.389" y1="0.5" x2="-9.389" y2="0.5" xlink:href="#linear-gradient-35"/>
    <linearGradient id="linear-gradient-41" x1="-16.193" y1="-12.357" x2="-16.535" y2="-10.903" xlink:href="#linear-gradient-35"/>
    <linearGradient id="linear-gradient-42" x1="-59.453" y1="-40.19" x2="-60.746" y2="-35.583" xlink:href="#linear-gradient-35"/>
    <clipPath id="clip-path">
      <path id="Trazado_144922" data-name="Trazado 144922" d="M1620.81,1491.042a15.644,15.644,0,1,0,15.644,15.644A15.645,15.645,0,0,0,1620.81,1491.042Zm0,24.557a8.913,8.913,0,1,1,8.913-8.913A8.913,8.913,0,0,1,1620.81,1515.6Z" transform="translate(-1605.165 -1491.042)" fill="#fff" opacity="0.57"/>
    </clipPath>
    <clipPath id="clip-path-2">
      <path id="Trazado_144924" data-name="Trazado 144924" d="M1841.506,1491.042a15.644,15.644,0,1,0,15.645,15.644A15.644,15.644,0,0,0,1841.506,1491.042Zm0,24.557a8.913,8.913,0,1,1,8.913-8.913A8.913,8.913,0,0,1,1841.506,1515.6Z" transform="translate(-1825.862 -1491.042)" fill="#ff7758" opacity="0.57"/>
    </clipPath>
    <clipPath id="clip-path-3">
      <path id="Trazado_144926" data-name="Trazado 144926" d="M2062.2,1491.042a15.644,15.644,0,1,0,15.644,15.644A15.644,15.644,0,0,0,2062.2,1491.042Zm0,24.557a8.913,8.913,0,1,1,8.913-8.913A8.913,8.913,0,0,1,2062.2,1515.6Z" transform="translate(-2046.559 -1491.042)" fill="#ff7758" opacity="0.57"/>
    </clipPath>
    <linearGradient id="linear-gradient-43" x1="1.459" y1="-6.217" x2="-0.404" y2="6.829" gradientUnits="objectBoundingBox">
      <stop offset="0" stop-color="#ff928e"/>
      <stop offset="1" stop-color="#fe7062"/>
    </linearGradient>
    <linearGradient id="linear-gradient-44" x1="0.918" y1="-0.764" x2="-1.18" y2="5.578" gradientUnits="objectBoundingBox">
      <stop offset="0" stop-color="#febbba"/>
      <stop offset="1" stop-color="#ff928e"/>
    </linearGradient>
    <linearGradient id="linear-gradient-45" x1="0.918" y1="-0.764" x2="-1.18" y2="5.578" xlink:href="#linear-gradient-44"/>
    <linearGradient id="linear-gradient-49" x1="0.918" y1="-0.764" x2="-1.18" y2="5.579" xlink:href="#linear-gradient-12"/>
    <linearGradient id="linear-gradient-50" x1="1.327" y1="-0.174" x2="-0.781" y2="1.65" gradientUnits="objectBoundingBox">
      <stop offset="0" stop-color="#fdf53f"/>
      <stop offset="1" stop-color="#d93c65"/>
    </linearGradient>
    <linearGradient id="linear-gradient-51" x1="-44.659" y1="-0.484" x2="-47.495" y2="6.012" xlink:href="#linear-gradient-2"/>
    <linearGradient id="linear-gradient-52" x1="-183.886" y1="0.5" x2="-182.886" y2="0.5" xlink:href="#linear-gradient-44"/>
    <linearGradient id="linear-gradient-53" x1="-115.914" y1="-2.223" x2="-122.931" y2="5.384" xlink:href="#linear-gradient-2"/>
    <linearGradient id="linear-gradient-54" x1="-221.478" y1="0.5" x2="-220.478" y2="0.5" xlink:href="#linear-gradient-44"/>
    <linearGradient id="linear-gradient-55" x1="-33.578" y1="0.5" x2="-32.578" y2="0.5" xlink:href="#linear-gradient-44"/>
    <linearGradient id="linear-gradient-56" x1="157.735" y1="1.605" x2="159.735" y2="4.278" xlink:href="#linear-gradient-44"/>
    <linearGradient id="linear-gradient-57" x1="-234.329" y1="0.706" x2="-232.31" y2="-1.072" xlink:href="#linear-gradient-44"/>
    <linearGradient id="linear-gradient-58" x1="-29.782" y1="0.5" x2="-28.782" y2="0.5" xlink:href="#linear-gradient-44"/>
    <linearGradient id="linear-gradient-59" x1="-91.862" y1="0.5" x2="-90.862" y2="0.5" xlink:href="#linear-gradient-44"/>
    <linearGradient id="linear-gradient-60" x1="-72.971" y1="0.5" x2="-71.971" y2="0.5" xlink:href="#linear-gradient-44"/>
    <linearGradient id="linear-gradient-61" x1="-85.323" y1="-37.34" x2="-86.532" y2="-36.046" xlink:href="#linear-gradient-44"/>
    <linearGradient id="linear-gradient-62" x1="-243.649" y1="-116.56" x2="-240.961" y2="-119.103" xlink:href="#linear-gradient-44"/>
  </defs>
  <g id="Grupo_83632" data-name="Grupo 83632" transform="translate(-915 -796.394)">
    <path id="Trazado_144822" data-name="Trazado 144822" d="M636.309,1407.386c21.461,50.126,78.63,78.206,128.207,70.632,8.067-1.233,30.183-4.9,49.764-22.226,37.695-33.345,45.756-99.372,15.349-145.9-22.131-33.866-61.8-53.064-99.5-52.1-8.12.207-39.238,1.482-66.586,23.85a102.032,102.032,0,0,0-20.861,23.479C623.933,1334.2,622.322,1374.719,636.309,1407.386Z" transform="translate(287.963 -419.99)" fill="#ffe9cb"/>
    <path id="Trazado_144823" data-name="Trazado 144823" d="M1230.834,1367.267a.314.314,0,0,0,.027-.046.321.321,0,0,0-.151-.428q-.238-.114-.472-.234a.321.321,0,0,0-.293.572q.242.124.488.241A.321.321,0,0,0,1230.834,1367.267Z" transform="translate(-210.619 -509.967)" fill="#91b3fa"/>
    <path id="Trazado_144824" data-name="Trazado 144824" d="M1262.559,1246.746a.322.322,0,0,1-.086-.447c.193-.284.381-.578.56-.875a.321.321,0,0,1,.551.332c-.184.306-.379.61-.578.9l0,0A.321.321,0,0,1,1262.559,1246.746Zm-.178.786c-.214.283-.44.565-.67.837a.321.321,0,1,1-.491-.415c.223-.264.441-.537.649-.81a.321.321,0,0,1,.52.378Zm1.3-2.575a.321.321,0,0,1-.132-.435c.163-.306.319-.619.464-.929a.321.321,0,1,1,.583.271c-.149.321-.311.644-.479.96a.316.316,0,0,1-.021.034A.322.322,0,0,1,1263.678,1244.957Zm-2.681,4.212c-.243.259-.5.515-.754.762a.321.321,0,1,1-.445-.464c.249-.239.495-.487.73-.738a.321.321,0,0,1,.5.4A.31.31,0,0,1,1261,1249.168Zm3.6-6.11a.321.321,0,0,1-.178-.418c.129-.32.251-.647.363-.973a.321.321,0,1,1,.607.209c-.115.336-.241.675-.375,1a.311.311,0,0,1-.035.064A.321.321,0,0,1,1264.6,1243.058Zm-5.151,7.593c-.27.233-.549.462-.83.679a.321.321,0,0,1-.394-.508c.272-.211.542-.432.8-.657a.321.321,0,0,1,.473.427A.309.309,0,0,1,1259.45,1250.651Zm5.868-9.578a.321.321,0,0,1-.22-.4c.094-.331.182-.67.259-1.006a.321.321,0,1,1,.626.144c-.08.347-.17.7-.268,1.039a.321.321,0,0,1-.4.221Zm-7.562,10.891c-.292.2-.594.4-.9.589a.322.322,0,0,1-.339-.547c.293-.181.585-.373.869-.57a.321.321,0,0,1,.367.528Zm8.068-12.941a.321.321,0,0,1-.26-.372c.06-.34.111-.686.153-1.028a.321.321,0,1,1,.638.078c-.043.353-.1.71-.158,1.062a.322.322,0,0,1-.372.261Zm-9.891,14.069c-.312.171-.633.337-.953.491a.321.321,0,0,1-.279-.579c.311-.15.621-.31.923-.476a.321.321,0,0,1,.418.466A.317.317,0,0,1,1255.932,1253.093Zm10.182-16.161a.322.322,0,0,1-.3-.343c.024-.344.039-.693.045-1.039a.321.321,0,1,1,.642.011c-.006.356-.021.717-.046,1.072a.322.322,0,0,1-.343.3ZM1254,1254.025c-.327.137-.664.268-1,.389a.321.321,0,0,1-.217-.605c.325-.117.651-.243.968-.377a.321.321,0,1,1,.249.593Zm12.183-19.2a.321.321,0,0,1-.333-.309c-.013-.344-.035-.693-.065-1.037a.321.321,0,1,1,.64-.058c.031.355.054.716.067,1.071a.321.321,0,0,1-.309.333Zm-14.2,19.928c-.337.1-.686.2-1.036.281a.321.321,0,0,1-.152-.624c.339-.083.676-.174,1-.272a.321.321,0,0,1,.185.616Zm14.046-22.033a.321.321,0,0,1-.364-.273c-.049-.341-.108-.685-.175-1.024a.321.321,0,0,1,.631-.125c.069.35.13.706.181,1.058a.322.322,0,0,1-.273.364Zm-16.131,22.54c-.348.066-.705.123-1.061.17a.321.321,0,1,1-.085-.637c.344-.046.689-.1,1.026-.165a.321.321,0,0,1,.119.632Zm15.755-24.618a.321.321,0,0,1-.39-.233c-.085-.334-.18-.67-.282-1a.321.321,0,0,1,.614-.192c.106.34.2.688.292,1.033a.321.321,0,0,1-.233.391Zm-17.883,24.9c-.355.028-.715.047-1.073.057a.321.321,0,1,1-.017-.642c.346-.009.695-.028,1.038-.055a.321.321,0,0,1,.052.641Zm-2.145.057c-.357-.01-.718-.029-1.071-.057a.321.321,0,1,1,.051-.641c.342.027.69.046,1.037.055a.321.321,0,0,1-.018.642Zm-2.136-.17c-.354-.047-.71-.1-1.059-.169a.321.321,0,0,1,.117-.632c.338.063.683.118,1.026.164a.321.321,0,0,1-.084.637Zm-2.108-.392c-.346-.083-.694-.177-1.036-.278a.321.321,0,1,1,.183-.616c.33.1.668.188,1,.269a.322.322,0,0,1,.237.388.315.315,0,0,1-.049.109A.322.322,0,0,1,1241.379,1255.034Zm-2.056-.609c-.337-.12-.674-.249-1-.385a.321.321,0,0,1,.246-.594c.316.131.643.257.97.373a.321.321,0,0,1-.215.606Z" transform="translate(-217.529 -396.197)" fill="#91b3fa"/>
    <path id="Trazado_144825" data-name="Trazado 144825" d="M1391.135,1221.3a.321.321,0,0,0,.038-.3q-.094-.255-.2-.508a.321.321,0,0,0-.6.24q.1.244.189.491a.322.322,0,0,0,.565.073Z" transform="translate(-343.457 -389.002)" fill="#91b3fa"/>
    <path id="Trazado_144826" data-name="Trazado 144826" d="M1221.079,1180.548a.24.24,0,0,0-.263-.093l-2.812.813a12.747,12.747,0,0,0-3.489-2.212l-.466-2.888a.241.241,0,0,0-.2-.2l-3.459-.6a.241.241,0,0,0-.252.121l-1.412,2.561a12.745,12.745,0,0,0-4.03.906l-2.373-1.713a.241.241,0,0,0-.279,0l-2.87,2.021a.241.241,0,0,0-.093.263l.813,2.812a12.744,12.744,0,0,0-2.212,3.489l-2.887.466a.24.24,0,0,0-.2.2l-.6,3.459a.24.24,0,0,0,.121.252l2.561,1.413a12.738,12.738,0,0,0,.906,4.03l-1.713,2.373a.241.241,0,0,0,0,.279l2.021,2.871a.241.241,0,0,0,.263.092l2.812-.813a12.742,12.742,0,0,0,3.489,2.212l.466,2.887a.24.24,0,0,0,.2.2l3.459.6a.24.24,0,0,0,.251-.121l1.413-2.561a12.751,12.751,0,0,0,4.03-.906l2.373,1.713a.241.241,0,0,0,.279,0l2.871-2.021a.24.24,0,0,0,.092-.263l-.813-2.812a12.746,12.746,0,0,0,2.212-3.489l2.887-.466a.241.241,0,0,0,.2-.2l.6-3.459a.241.241,0,0,0-.121-.252l-2.561-1.413a12.749,12.749,0,0,0-.906-4.03l1.713-2.373a.241.241,0,0,0,0-.279Z" transform="translate(-181.026 -351.842)" fill="#c3b5ec"/>
    <path id="Trazado_144827" data-name="Trazado 144827" d="M1268.4,1251.759a3.421,3.421,0,1,1,1.582-1.232A3.416,3.416,0,0,1,1268.4,1251.759Zm-3.785-4.349a2.8,2.8,0,1,0,.264-.466A2.812,2.812,0,0,0,1264.617,1247.41Z" transform="translate(-238.711 -409.533)" fill="#bdd0fb"/>
    <path id="Trazado_144828" data-name="Trazado 144828" d="M1248.384,1228.161a8.744,8.744,0,0,0,1.453-3.527,8.891,8.891,0,0,0,.13-1.608c0-.007,0-.013,0-.019s0-.023,0-.035v-.024c0-.041,0-.082,0-.123,0-.02,0-.039,0-.058l-.642.026a8.191,8.191,0,0,1-.115,1.732h0q-.052.3-.125.592a8.145,8.145,0,1,1-3.228-8.663,8.007,8.007,0,0,1,.643.5l.42-.487q-.334-.288-.694-.541a8.794,8.794,0,1,0,2.164,12.234Z" transform="translate(-212.778 -384.074)" fill="#bdd0fb"/>
    <path id="Trazado_144829" data-name="Trazado 144829" d="M1314.6,1443.033a.321.321,0,0,0-.255-.505q-.273-.007-.547,0a.321.321,0,1,0,.008.643q.262,0,.523,0A.321.321,0,0,0,1314.6,1443.033Z" transform="translate(-279.865 -572.834)" fill="#91b3fa"/>
    <path id="Trazado_144830" data-name="Trazado 144830" d="M1233.241,1468.353a.322.322,0,0,1-.454-.012c-.25-.263-.494-.54-.725-.823a.321.321,0,0,1,.5-.407c.222.271.455.536.694.788a.321.321,0,0,1,.03.405A.327.327,0,0,1,1233.241,1468.353Zm-1.4-1.631a.322.322,0,0,1-.448-.078c-.21-.3-.411-.608-.6-.92a.321.321,0,1,1,.551-.33c.179.3.371.595.572.881a.321.321,0,0,1-.078.448Zm-1.143-1.817a.321.321,0,0,1-.432-.142c-.164-.325-.318-.66-.458-1a.321.321,0,0,1,.593-.248c.135.323.282.644.439.955a.322.322,0,0,1-.142.432Zm-.869-1.963a.322.322,0,0,1-.407-.2c-.116-.348-.221-.7-.311-1.051a.321.321,0,1,1,.623-.16c.086.335.187.674.3,1.008a.321.321,0,0,1-.2.407Zm12.741-19.473c-.348.029-.7.072-1.042.127a.321.321,0,1,1-.1-.635c.358-.057.725-.1,1.089-.133a.321.321,0,1,1,.054.64Zm-13.32,17.406a.321.321,0,0,1-.374-.258c-.065-.357-.118-.722-.157-1.086a.321.321,0,0,1,.639-.068c.037.349.088.7.15,1.039a.321.321,0,0,1-.258.374ZM1240.5,1443.8c-.339.079-.68.172-1.013.276a.321.321,0,1,1-.191-.613c.348-.109.7-.205,1.059-.288a.322.322,0,0,1,.146.626Zm-11.523,14.95a.321.321,0,0,1-.332-.31c-.012-.363-.012-.731,0-1.1a.321.321,0,1,1,.642.025c-.014.349-.015.7,0,1.05a.321.321,0,0,1-.31.332Zm9.518-14.327c-.327.128-.651.268-.964.418a.321.321,0,0,1-.276-.58c.327-.156.666-.3,1.007-.436a.321.321,0,1,1,.234.6Zm-9.481,12.182a.321.321,0,0,1-.283-.355c.041-.362.095-.727.161-1.084a.321.321,0,0,1,.632.117c-.064.343-.116.692-.155,1.039a.315.315,0,0,1-.056.148A.321.321,0,0,1,1229.017,1456.6Zm7.585-11.278c-.306.174-.606.36-.893.552a.321.321,0,1,1-.358-.534c.3-.2.614-.4.933-.577a.321.321,0,1,1,.318.559Zm-7.239,9.161a.322.322,0,0,1-.229-.392c.092-.35.2-.7.316-1.05a.321.321,0,1,1,.608.207c-.113.332-.215.67-.3,1.005a.321.321,0,0,1-.392.229Zm5.494-7.992c-.276.216-.546.443-.8.676a.321.321,0,1,1-.431-.476c.269-.244.551-.482.839-.707a.321.321,0,1,1,.4.506Zm-4.845,5.947a.321.321,0,0,1-.171-.421c.142-.335.3-.669.464-.994a.321.321,0,0,1,.572.293c-.159.311-.309.631-.444.951a.341.341,0,0,1-.033.059A.322.322,0,0,1,1230.013,1452.44Zm3.289-4.538c-.241.253-.476.517-.7.786a.321.321,0,1,1-.5-.408c.231-.281.476-.557.728-.821a.321.321,0,0,1,.5.406A.326.326,0,0,1,1233.3,1447.9Zm-2.353,2.607a.321.321,0,0,1-.109-.441c.172-.283.356-.566.548-.841l.054-.078a.321.321,0,0,1,.524.372v0l-.051.073c-.184.263-.361.533-.525.8l-.012.018A.321.321,0,0,1,1230.949,1450.509Z" transform="translate(-209.684 -573.086)" fill="#91b3fa"/>
    <path id="Trazado_144831" data-name="Trazado 144831" d="M1257.622,1592.611a.321.321,0,0,0-.056-.429q-.2-.169-.394-.346a.321.321,0,1,0-.432.475q.2.184.411.361a.322.322,0,0,0,.453-.038Z" transform="translate(-232.841 -696.275)" fill="#91b3fa"/>
    <path id="Trazado_144832" data-name="Trazado 144832" d="M1265.862,1466.177a.178.178,0,0,0-.2.04l-1.485,1.576a9.438,9.438,0,0,0-3.055-.1l-1.384-1.664a.178.178,0,0,0-.2-.053l-2.43.919a.178.178,0,0,0-.115.172l.064,2.163a9.433,9.433,0,0,0-2.227,2.094l-2.157-.2a.178.178,0,0,0-.179.1l-1.068,2.368a.178.178,0,0,0,.04.2l1.576,1.485a9.432,9.432,0,0,0-.1,3.055l-1.664,1.384a.178.178,0,0,0-.053.2l.919,2.43a.178.178,0,0,0,.172.115l2.164-.064a9.433,9.433,0,0,0,2.094,2.226l-.2,2.157a.178.178,0,0,0,.1.178l2.368,1.068a.178.178,0,0,0,.2-.04l1.486-1.576a9.431,9.431,0,0,0,3.055.1l1.384,1.664a.178.178,0,0,0,.2.053l2.43-.919a.178.178,0,0,0,.115-.172l-.064-2.164a9.432,9.432,0,0,0,2.227-2.094l2.157.2a.178.178,0,0,0,.178-.1l1.068-2.368a.178.178,0,0,0-.04-.2l-1.576-1.485a9.436,9.436,0,0,0,.1-3.055l1.664-1.384a.179.179,0,0,0,.053-.2l-.919-2.43a.178.178,0,0,0-.172-.115l-2.163.064a9.429,9.429,0,0,0-2.094-2.227l.2-2.157a.178.178,0,0,0-.1-.178Z" transform="translate(-228.359 -592.229)" fill="#c3b5ec"/>
    <path id="Trazado_144833" data-name="Trazado 144833" d="M1303.4,1520.463a2.628,2.628,0,1,1,2.311-2.911h0a2.631,2.631,0,0,1-2.311,2.911Zm-2.272-2.384a1.985,1.985,0,1,0,3.945-.453h0a1.985,1.985,0,0,0-3.527-1.008c-.025.032-.05.064-.073.1A1.971,1.971,0,0,0,1301.127,1518.079Z" transform="translate(-269.103 -632.971)" fill="#bdd0fb"/>
    <path id="Trazado_144834" data-name="Trazado 144834" d="M1289.356,1502.955a6.66,6.66,0,0,0,.616-1.083,6.547,6.547,0,0,0,.156-5.042,6.663,6.663,0,0,0-.562-1.142l-.018-.029v0l-.051-.08-.54.349a6,6,0,0,1,.571,1.131h0l.035.094a5.9,5.9,0,0,1-.088,4.251q-.042.1-.088.205a5.947,5.947,0,0,1-7.867,2.976,6.028,6.028,0,0,1-.978-.556,5.949,5.949,0,0,1,4.473-10.72l.114-.633a6.592,6.592,0,0,0-4.957,11.878,6.666,6.666,0,0,0,1.084.616,6.595,6.595,0,0,0,8.1-2.215Z" transform="translate(-249.994 -614.232)" fill="#bdd0fb"/>
    <path id="Trazado_144835" data-name="Trazado 144835" d="M1022.846,1336.96a.33.33,0,0,0,.376.074l3.664-1.657a17.522,17.522,0,0,0,5.179,2.323l1.2,3.835a.33.33,0,0,0,.306.232l4.822.138a.33.33,0,0,0,.318-.214l1.418-3.76a17.523,17.523,0,0,0,5.3-2.023l3.563,1.864a.331.331,0,0,0,.38-.053l3.507-3.312a.33.33,0,0,0,.074-.376l-1.657-3.664a17.517,17.517,0,0,0,2.323-5.179l3.835-1.2a.331.331,0,0,0,.231-.306l.138-4.822a.331.331,0,0,0-.214-.319l-3.76-1.418a17.52,17.52,0,0,0-2.023-5.3l1.864-3.563a.331.331,0,0,0-.053-.38l-3.312-3.507a.33.33,0,0,0-.376-.074l-3.664,1.657a17.525,17.525,0,0,0-5.179-2.322l-1.2-3.835a.331.331,0,0,0-.306-.232l-4.822-.138a.331.331,0,0,0-.318.214l-1.418,3.76a17.52,17.52,0,0,0-5.3,2.023l-3.563-1.864a.331.331,0,0,0-.38.053l-3.507,3.312a.331.331,0,0,0-.074.376l1.658,3.664a17.514,17.514,0,0,0-2.323,5.178l-3.835,1.2a.33.33,0,0,0-.231.306l-.138,4.822a.331.331,0,0,0,.214.319l3.76,1.418a17.516,17.516,0,0,0,2.023,5.3l-1.864,3.563a.331.331,0,0,0,.053.38Z" transform="translate(-33.249 -454.461)" fill="#c3b5ec"/>
    <path id="Trazado_144836" data-name="Trazado 144836" d="M1118.458,1404.308a4.6,4.6,0,0,1-6.677-5.274h0a4.607,4.607,0,1,1,6.677,5.274Zm-6.058-5.1h0a3.939,3.939,0,1,0,.567-1.2A3.936,3.936,0,0,0,1112.4,1399.21Z" transform="translate(-112.873 -534.086)" fill="#bdd0fb"/>
    <path id="Trazado_144837" data-name="Trazado 144837" d="M1091.285,1371.556a11.963,11.963,0,1,0-21.77-7.185h0q-.006.222,0,.445a12.033,12.033,0,0,0,.134,1.7l0,.013a.066.066,0,0,0,0,.007c.006.04.012.079.019.119l0,.024.011.069c.01.056.02.111.03.166l.632-.117a11.386,11.386,0,0,1-.186-2.4,11.228,11.228,0,0,1,2.547-6.839,11.423,11.423,0,0,1,.945-1.019l.05-.047a11.317,11.317,0,1,1,1.685,17.772l-.346.542a11.966,11.966,0,0,0,14.645-1.39A12.075,12.075,0,0,0,1091.285,1371.556Z" transform="translate(-78.051 -498.574)" fill="#bdd0fb"/>
    <path id="Trazado_144838" data-name="Trazado 144838" d="M3234.328,1825.613a13.111,13.111,0,0,0,5.219,4.929c1.924.842,5.578,2.253,6.064,6.177a4.5,4.5,0,0,0,3.769,3.958c5.026.771,12.773,3.381,14.012,12.108.946,6.662-2.45,9.188-6.014,10.062a5.048,5.048,0,0,0-3.828,5.831c.508,2.535-.25,5.465-4.641,7.782-9.84,5.193-19.668-12.3-19.668-12.3l-2.014-30.545Z" transform="translate(-1862.916 -889.725)" fill="#463c5f"/>
    <path id="Trazado_144839" data-name="Trazado 144839" d="M3244.118,2358.435l-.683,4.02s2.288,23.182,2.7,32.455a7.267,7.267,0,0,1-1.075,4.129l-3.979,6.462,10.114-5.968.2-1.234-1.656-2.277,2.168-25.969a7.969,7.969,0,0,0-.907-4.407l-2.092-3.93Z" transform="translate(-1874.369 -1330.475)" fill="url(#linear-gradient)"/>
    <path id="Trazado_144840" data-name="Trazado 144840" d="M3233.135,2590.295h3.228a1.943,1.943,0,0,0,1.542-.756c1.006-1.307,3.091-3.858,4.088-3.925,1.342-.09,1.17,4.681,1.17,4.681h.752l.953-5.928a3.509,3.509,0,0,0-1.841-3.668h0a4.96,4.96,0,0,1-1.97,3.272c-1.663,1-6.768,4.6-6.768,4.6a4.6,4.6,0,0,0-1.312.035A.854.854,0,0,0,3233.135,2590.295Z" transform="translate(-1867.096 -1514.33)" fill="url(#linear-gradient-2)"/>
    <path id="Trazado_144841" data-name="Trazado 144841" d="M3336.14,2363.993l2.126,3.48s16.955,15.974,23.354,22.7a7.264,7.264,0,0,1,1.9,3.82l1.245,7.487,3.7-11.144-.659-1.063-2.744-.628-15.426-21a7.967,7.967,0,0,0-3.579-2.727l-4.159-1.589Z" transform="translate(-1953.006 -1334.518)" fill="url(#linear-gradient-3)"/>
    <path id="Trazado_144842" data-name="Trazado 144842" d="M3495.624,2524.537l2.433-2.12a1.943,1.943,0,0,0,.666-1.583c-.1-1.647-.2-4.94.5-5.645.953-.949,3.958,2.76,3.958,2.76l.567-.494-3.176-5.095a3.509,3.509,0,0,0-3.8-1.556h0a4.961,4.961,0,0,1,.664,3.761c-.595,1.849-2.083,7.912-2.083,7.912a4.614,4.614,0,0,0-.966.888A.854.854,0,0,0,3495.624,2524.537Z" transform="translate(-2083.752 -1456.434)" fill="url(#linear-gradient-4)"/>
    <path id="Trazado_144843" data-name="Trazado 144843" d="M3199.489,1985.821a34.837,34.837,0,0,1,3.84-25.6c-4.162-4-10.626-4.26-13.566-4.146a4.686,4.686,0,0,0-2.773,1.05c-2.338,1.9-7.138,6.373-6.27,10.562.668,3.223,6.756,19.308,6.756,19.308A13.375,13.375,0,0,0,3199.489,1985.821Z" transform="translate(-1824.357 -997.623)" fill="#c6563d"/>
    <path id="Trazado_144844" data-name="Trazado 144844" d="M3236.655,2135.579c-1.408-4.24-7.668-7.255-7.668-7.255a13.376,13.376,0,0,1-12.013,1.17,24.1,24.1,0,0,0-.391,9.31c.872,4.484,6.338,33.3,6.338,33.3,7.041,1.427,17.178-.652,20.645-1.459a.967.967,0,0,0,.65-1.371C3239.207,2159.161,3238.012,2139.67,3236.655,2135.579Z" transform="translate(-1853.854 -1140.127)" fill="#5f4d90"/>
    <path id="Trazado_144845" data-name="Trazado 144845" d="M3226.008,1889.054l2.815,11.723c.27,1.113-.74,1.459-1.873,1.625-2.662.39-4.678-.617-5.01-2.5-.029-.164-.121-.311-.144-.476l-1.208-8.758a1.573,1.573,0,0,1,.92-1.654l2.332-1.034A1.573,1.573,0,0,1,3226.008,1889.054Z" transform="translate(-1857.411 -941.207)" fill="url(#linear-gradient-5)"/>
    <path id="Trazado_144846" data-name="Trazado 144846" d="M3198.479,1826.034s-2.994,2.026-4.28,7.187.8,7.011,2.947,6.9a9.942,9.942,0,0,0,7.941-4.478C3207.779,1831.939,3202.4,1823.558,3198.479,1826.034Z" transform="translate(-1835.268 -889.701)" fill="url(#linear-gradient-6)"/>
    <path id="Trazado_144847" data-name="Trazado 144847" d="M3207.347,1812.405s1.1-7.394-5.042-6.263l-1.241,1.292s-3.005-3.384.32-5.942,7.94-1.9,10.493,2.754,3.48,7.929,1.34,10.823-4.18.89-4.18.89,1.412-2.983.6-4.057-1.82,1.032-1.82,1.032Z" transform="translate(-1840.241 -868.547)" fill="#463c5f"/>
    <path id="Trazado_144848" data-name="Trazado 144848" d="M3248.245,1861.46s.541-3.8,2.484-2.717-.7,3.554-1.76,4.393Z" transform="translate(-1880.301 -916.967)" fill="url(#linear-gradient-7)"/>
    <rect id="Rectángulo_31408" data-name="Rectángulo 31408" width="0.103" height="0.142" transform="matrix(0.708, -0.706, 0.706, 0.708, 1350.846, 951.709)" fill="#f0f0f0"/>
    <path id="Trazado_144849" data-name="Trazado 144849" d="M3313.929,1891.908a6.8,6.8,0,0,0,3.944-6.158,9.429,9.429,0,0,0-3.112-6.831,16.1,16.1,0,0,0-6.72-3.6c-.288-.083-.582-.163-.876-.245-1.916-.525-3.9-1.069-5.076-2.6a8.859,8.859,0,0,1-1.364-4.106c-.073-.454-.149-.924-.243-1.375-.383-1.832-1.54-4.03-3.541-4.192l-.012.142c1.924.156,3.041,2.295,3.414,4.079.093.449.169.917.242,1.369a8.968,8.968,0,0,0,1.391,4.17c1.208,1.569,3.212,2.118,5.151,2.65.295.08.587.161.875.244a15.974,15.974,0,0,1,6.662,3.57,9.289,9.289,0,0,1,3.068,6.725,6.651,6.651,0,0,1-3.856,6.029Z" transform="translate(-1920.571 -920.484)" fill="#91b3fa"/>
    <path id="Trazado_144850" data-name="Trazado 144850" d="M3340.719,1952.335a5.841,5.841,0,0,0,3.473-6.122,9.168,9.168,0,0,0-3.932-6.193,22.411,22.411,0,0,0-6.818-3.08l-.042.135a22.3,22.3,0,0,1,6.777,3.059,9.029,9.029,0,0,1,3.874,6.094,5.7,5.7,0,0,1-3.379,5.973Z" transform="translate(-1950.739 -981.814)" fill="#91b3fa"/>
    <path id="Trazado_144851" data-name="Trazado 144851" d="M3220.933,2043.442a.41.41,0,0,0,.152-.451l-1.438-4.78a21.755,21.755,0,0,0,3.706-5.991l4.916-.85a.411.411,0,0,0,.335-.339l.959-5.91a.409.409,0,0,0-.21-.427l-4.395-2.361a21.758,21.758,0,0,0-1.621-6.856l2.877-4.079a.41.41,0,0,0,0-.476l-3.5-4.857a.41.41,0,0,0-.451-.153l-4.78,1.439a21.736,21.736,0,0,0-5.992-3.706l-.849-4.916a.411.411,0,0,0-.339-.335l-5.91-.96a.411.411,0,0,0-.427.211l-2.36,4.395a21.752,21.752,0,0,0-6.856,1.621l-4.079-2.877a.411.411,0,0,0-.477,0l-4.857,3.5a.411.411,0,0,0-.153.451l1.439,4.78a21.732,21.732,0,0,0-3.706,5.991l-4.916.85a.409.409,0,0,0-.335.338l-.959,5.91a.409.409,0,0,0,.211.427l4.395,2.361a21.731,21.731,0,0,0,1.621,6.856l-2.877,4.079a.409.409,0,0,0,0,.476l3.5,4.857a.411.411,0,0,0,.451.153l4.78-1.439a21.753,21.753,0,0,0,5.991,3.706l.85,4.916a.41.41,0,0,0,.338.335l5.91.959a.41.41,0,0,0,.427-.211l2.361-4.394a21.753,21.753,0,0,0,6.855-1.621l4.08,2.877a.41.41,0,0,0,.476,0Z" transform="translate(-1821.116 -1031.852)" fill="#c3b5ec"/>
    <path id="Trazado_144852" data-name="Trazado 144852" d="M3300.5,2128.618h0a5.592,5.592,0,1,1,2.233.466A5.634,5.634,0,0,1,3300.5,2128.618Zm.391-9.819a4.974,4.974,0,1,0,1.845-.354A4.973,4.973,0,0,0,3300.894,2118.8Zm-.27,9.533h0Z" transform="translate(-1920.721 -1131.439)" fill="#91b3fa"/>
    <path id="Trazado_144853" data-name="Trazado 144853" d="M3258.657,2093.88h0q.376,0,.752-.019l-.032-.622a14.131,14.131,0,0,1-14.694-16.385,14.138,14.138,0,0,1,28.093,2.236,14.273,14.273,0,0,1-.186,2.294,14.108,14.108,0,0,1-3.14,6.844l.476.4a14.74,14.74,0,0,0,3.28-7.146,14.938,14.938,0,0,0,.194-2.4,14.762,14.762,0,1,0-17.127,14.6A14.9,14.9,0,0,0,3258.657,2093.88Z" transform="translate(-1876.687 -1087.215)" fill="#91b3fa"/>
    <path id="Trazado_144854" data-name="Trazado 144854" d="M3304.006,2012.034c3.926-16.76-13.206-31.876-13.206-31.876-4.084.936-5.131,3.627-4.031,7.558a35.826,35.826,0,0,1,11.7,23.33C3299.567,2010.728,3302.2,2010.225,3304.006,2012.034Z" transform="translate(-1911.83 -1017.564)" fill="url(#linear-gradient-8)"/>
    <path id="Trazado_144855" data-name="Trazado 144855" d="M3332.046,2157.4a20.023,20.023,0,0,1,.569,6.65.877.877,0,0,1-.811.787c-.484.034-1.143.078-1.731.112a3.233,3.233,0,0,1-1.845-.713.289.289,0,0,0-.425.365,5.109,5.109,0,0,0,1.895,1.692.3.3,0,0,1-.069.547l-2.681.76c4.406,4.15,7.314-.494,7.314-.494a21.014,21.014,0,0,0,3.318-8.719C3335.769,2156.583,3333.139,2157.085,3332.046,2157.4Z" transform="translate(-1945.402 -1163.922)" fill="url(#linear-gradient-9)"/>
    <path id="Trazado_144856" data-name="Trazado 144856" d="M1149.864,2060.813a25.047,25.047,0,0,1-5.823,4.257,48.365,48.365,0,0,0,10.644,9.466l1.317,2.955,4.219-5.056S1152.65,2068.667,1149.864,2060.813Z" transform="translate(-139.703 -1084.281)" fill="url(#linear-gradient-10)"/>
    <path id="Trazado_144857" data-name="Trazado 144857" d="M1250.32,2572.4a1.05,1.05,0,0,0-.028-.274c-1.366-5.417-8.149-8.792-8.149-8.792l-2.688.21c-1.545,4.775-1.347,7.7-1.1,9.008.007.036.018.071.028.107A63.789,63.789,0,0,0,1250.32,2572.4Z" transform="translate(-217.582 -1499.969)" fill="url(#linear-gradient-11)"/>
    <path id="Trazado_144858" data-name="Trazado 144858" d="M1239.33,2616.059a1.165,1.165,0,0,0,.853.861c3.154.663,8.166.13,10.271-.146a.978.978,0,0,0,.812-.975A63.79,63.79,0,0,1,1239.33,2616.059Z" transform="translate(-218.526 -1543.367)" fill="url(#linear-gradient-12)"/>
    <path id="Trazado_144859" data-name="Trazado 144859" d="M1239.274,2541.389l1.138,5.48a.9.9,0,0,0,.765.737,7.636,7.636,0,0,0,1.764-.028,1.127,1.127,0,0,0,.892-1.324l-.791-4.865Z" transform="translate(-218.48 -1481.814)" fill="url(#linear-gradient-13)"/>
    <path id="Trazado_144860" data-name="Trazado 144860" d="M1350.395,2613.357a16.027,16.027,0,0,1-5.3-.757c0,.3,0,.6.009.907a.586.586,0,0,0,.559.6l16.3-.105a.744.744,0,0,0,.6-1.083C1360.426,2613.091,1354.983,2613.486,1350.395,2613.357Z" transform="translate(-306.018 -1540.721)" fill="url(#linear-gradient-14)"/>
    <path id="Trazado_144861" data-name="Trazado 144861" d="M1362.566,2576.192a.767.767,0,0,0-.064-.123c-1.439-2.011-5.1-6.016-12.349-7.753l-3.475-.11a16.676,16.676,0,0,0-1.577,7.671,16.034,16.034,0,0,0,5.3.757C1354.986,2576.764,1360.429,2576.369,1362.566,2576.192Z" transform="translate(-306.021 -1503.998)" fill="url(#linear-gradient-15)"/>
    <path id="Trazado_144862" data-name="Trazado 144862" d="M1350.5,2533.7c.039.259.515,4.2.7,5.722a.756.756,0,0,0,.638.683,7.965,7.965,0,0,0,2.387-.037,1.028,1.028,0,0,0,.779-1.032v-6.18Z" transform="translate(-310.482 -1474.754)" fill="url(#linear-gradient-16)"/>
    <path id="Trazado_144863" data-name="Trazado 144863" d="M1228.663,2121.971a309.392,309.392,0,0,1,8.23,71.934,1.552,1.552,0,0,1-1.231,1.512,18.1,18.1,0,0,1-3.885.45,1.44,1.44,0,0,1-1.372-1.2c-1.175-6.892-7.919-45.716-11.762-52.019,0,0-2.528,34.579-1.72,52.519a.85.85,0,0,1-.75.884,14.259,14.259,0,0,1-3.119-.009,1.138,1.138,0,0,1-1.014-.966c-.837-5.833-5.655-40.551-5.45-65.561.012-1.41,3.73-7.542,3.73-7.542Z" transform="translate(-191.438 -1134.871)" fill="url(#linear-gradient-17)"/>
    <path id="Trazado_144864" data-name="Trazado 144864" d="M1152.55,1848.337a12.09,12.09,0,0,0-10.61-14.473c-7.94-.84-15.878.923-19.8,1.417a8.109,8.109,0,0,0-5.124,2.751c-5.2,6.022-16.622,22.508-3.182,39.121a25.046,25.046,0,0,0,5.823-4.257c-1.487-4.191-1.609-9.548,1.508-16.116a15.364,15.364,0,0,0,.4,1.543,95.586,95.586,0,0,1,4.514,27.535.854.854,0,0,0,.52.8c5.647,2.277,16.55.926,20.207.381a1.229,1.229,0,0,0,1.028-1.394C1146.614,1876.825,1150.226,1859.486,1152.55,1848.337Z" transform="translate(-109.496 -896.365)" fill="#c3b5ec"/>
    <path id="Trazado_144865" data-name="Trazado 144865" d="M1243.432,1778.353l-1.089,11.13s6.261,1.886,10.816-1.327l-3.2-10.116Z" transform="translate(-221.019 -850.373)" fill="url(#linear-gradient-18)"/>
    <path id="Trazado_144866" data-name="Trazado 144866" d="M1251.056,1704.193c.151.142,6.36,12.336,6.36,12.336l-7.038,3.4-7.6-10.683S1248.533,1701.818,1251.056,1704.193Z" transform="translate(-221.377 -788.898)" fill="url(#linear-gradient-19)"/>
    <path id="Trazado_144867" data-name="Trazado 144867" d="M1226.312,1685.39a1.126,1.126,0,0,0,.084.986l3.51,5.851a1.087,1.087,0,0,0,.193.24c.418.389,1.847,1.52,2.953-.02a9.9,9.9,0,0,1,2.773-3,1.122,1.122,0,0,1,1.514.5,41.957,41.957,0,0,1,2.4,5.7,1.118,1.118,0,0,1-.65,1.37,31.124,31.124,0,0,1-6.741,1.966,1.122,1.122,0,0,1-1.061-.451c-1.075-1.473-4.106-5.59-5.14-6.62-.961-.957-2.734-.6-3.534-.367a1.128,1.128,0,0,1-.9-.118,2.473,2.473,0,0,1-.931-3.764,1.124,1.124,0,0,0-.347-1.526,2.483,2.483,0,0,1-.952-3.523,3.5,3.5,0,0,1,3.792-1.856,1.165,1.165,0,0,0,1.223-.68.742.742,0,0,1,.579-.456,1.09,1.09,0,0,0,.882-1.28,2.875,2.875,0,0,1,1.606-3.294c3.036-1.67,5.7,1.051,6.373,3.347s-2.719,3.919-4.854,4.19C1227.518,1682.783,1226.658,1684.495,1226.312,1685.39Z" transform="translate(-201.799 -764.748)" fill="#463c5f"/>
    <path id="Trazado_144868" data-name="Trazado 144868" d="M1242.952,1769.306s-1.35-3.951-3.079-3.806-3.089,1.867-.947,3.8C1241.591,1771.711,1242.952,1769.306,1242.952,1769.306Z" transform="translate(-217.284 -839.996)" fill="url(#linear-gradient-20)"/>
    <path id="Trazado_144869" data-name="Trazado 144869" d="M1175.525,1895.411c-2.278-6.235-1.452-13.764-1.443-13.839l.628.072c-.008.074-.817,7.458,1.409,13.55Z" transform="translate(-164.427 -936.014)" fill="url(#linear-gradient-21)"/>
    <path id="Trazado_144870" data-name="Trazado 144870" d="M1243.863,2205.875a.316.316,0,0,1-.305-.237c-.7-2.681-5.9-5.627-5.952-5.656a.316.316,0,1,1,.309-.551c.224.125,5.492,3.107,6.255,6.048a.316.316,0,0,1-.227.385A.309.309,0,0,1,1243.863,2205.875Z" transform="translate(-216.967 -1198.914)" fill="url(#linear-gradient-22)"/>
    <path id="Trazado_144871" data-name="Trazado 144871" d="M1300.615,2260.078l.36,11.207a3.647,3.647,0,0,0,3.631,3.521l26.836.158a2.631,2.631,0,0,0,2.623-2.239,49.215,49.215,0,0,0,.352-12.647Z" transform="translate(-269.222 -1249.115)" fill="url(#linear-gradient-23)"/>
    <path id="Trazado_144872" data-name="Trazado 144872" d="M1334.469,2274.091h-.243a.041.041,0,0,1,0-.081h0l.242,0a.04.04,0,0,1,0,.081Zm-.808,0h-.243a.04.04,0,0,1,0-.081h.243a.04.04,0,0,1,0,.081Zm-.809,0h-.243a.041.041,0,0,1,0-.081h0l.242,0a.04.04,0,0,1,0,.081Zm-.808,0h0l-.243,0a.04.04,0,1,1,0-.081h.243a.04.04,0,0,1,0,.081Zm-.809,0h-.243a.041.041,0,0,1-.04-.041.045.045,0,0,1,.041-.04l.242,0a.04.04,0,1,1,0,.081Zm-.808,0h-.243a.041.041,0,0,1-.04-.041.04.04,0,0,1,.041-.04h.243a.041.041,0,0,1,0,.081Zm-.808,0h-.243a.041.041,0,0,1,0-.081h0l.243,0a.04.04,0,0,1,0,.081Zm-.809,0h-.243a.04.04,0,1,1,0-.081h.243a.04.04,0,0,1,0,.081Zm-.809,0h-.243a.041.041,0,0,1-.04-.041.042.042,0,0,1,.041-.04l.242,0a.04.04,0,1,1,0,.081Zm-.808,0h-.243a.041.041,0,0,1,0-.081h0l.243,0a.04.04,0,0,1,0,.081Zm-.808,0h-.243a.041.041,0,0,1,0-.081h.243a.04.04,0,0,1,0,.081Zm8.647,0a.04.04,0,0,1-.008-.08c.078-.016.156-.035.231-.058a.041.041,0,0,1,.023.078c-.078.023-.158.043-.239.06Zm-9.456,0h-.243a.041.041,0,0,1,0-.081h0l.242,0a.04.04,0,0,1,0,.081Zm-.808,0h-.243a.041.041,0,0,1-.04-.041.04.04,0,0,1,.041-.04h.242a.04.04,0,0,1,0,.081Zm-.808,0h0l-.243,0a.04.04,0,0,1,0-.081h.243a.04.04,0,0,1,0,.081Zm-.808,0h-.243a.041.041,0,0,1,0-.081h.243a.04.04,0,1,1,0,.081Zm-.808,0h-.243a.04.04,0,0,1,0-.081h.243a.04.04,0,1,1,0,.081Zm-.809,0h-.243a.041.041,0,0,1,0-.081h.243a.04.04,0,0,1,0,.081Zm-.808,0h-.243a.041.041,0,0,1,0-.081h0l.243,0a.04.04,0,1,1,0,.081Zm-.808,0h-.243a.041.041,0,0,1-.04-.041.044.044,0,0,1,.041-.04h.242a.04.04,0,0,1,0,.081Zm-.809,0h-.243a.041.041,0,0,1,0-.081h0l.242,0a.04.04,0,0,1,0,.081Zm-.808,0h-.243a.04.04,0,0,1,0-.081h.243a.04.04,0,0,1,0,.081Zm-.809,0h-.243a.041.041,0,0,1,0-.081h0l.243,0a.04.04,0,1,1,0,.081Zm-.808,0h-.243a.041.041,0,0,1-.04-.041.041.041,0,0,1,.041-.04h.242a.04.04,0,0,1,0,.081Zm-.809,0h-.243a.041.041,0,0,1,0-.081h0l.243,0a.04.04,0,1,1,0,.081Zm-.808,0h-.243a.04.04,0,0,1,0-.081h.243a.04.04,0,1,1,0,.081Zm-.809,0h-.243a.04.04,0,0,1,0-.081h0l.242,0a.04.04,0,1,1,0,.081Zm-.808,0h-.243a.041.041,0,0,1-.04-.041.039.039,0,0,1,.041-.04h.243a.04.04,0,0,1,0,.081Zm-.809,0h-.243a.04.04,0,0,1,0-.081h.243a.04.04,0,1,1,0,.081Zm-.808,0h-.243a.04.04,0,1,1,0-.081h.243a.04.04,0,0,1,0,.081Zm-.808,0h-.243a.04.04,0,0,1,0-.081h.243a.041.041,0,0,1,.04.041A.04.04,0,0,1,1311.023,2273.952Zm-.808,0h-.243a.041.041,0,0,1,0-.081h0l.243,0a.04.04,0,0,1,0,.081Zm-.808,0h-.243a.041.041,0,0,1,0-.081h.243a.04.04,0,0,1,0,.081Zm-.807-.026h0c-.08-.009-.162-.021-.242-.037a.04.04,0,1,1,.015-.079c.078.014.158.026.237.036a.04.04,0,0,1,0,.081Zm27.187-.156a.041.041,0,0,1-.02-.076c.069-.04.137-.082.2-.128a.04.04,0,1,1,.047.066c-.067.047-.137.092-.208.132A.039.039,0,0,1,1335.786,2273.761Zm-27.972-.029-.014,0c-.076-.027-.152-.058-.227-.092a.04.04,0,1,1,.033-.074c.073.032.147.063.222.09a.04.04,0,0,1-.014.078Zm-.721-.361a.041.041,0,0,1-.022-.007c-.068-.045-.136-.093-.2-.141a.041.041,0,0,1-.008-.057.04.04,0,0,1,.056-.008c.063.048.129.094.2.138a.04.04,0,0,1-.022.074Zm29.319-.115a.04.04,0,0,1-.03-.067c.053-.059.1-.122.151-.185a.04.04,0,1,1,.065.048c-.049.066-.1.13-.155.191A.039.039,0,0,1,1336.412,2273.256Zm-29.937-.4a.04.04,0,0,1-.029-.013c-.056-.059-.111-.121-.162-.184a.04.04,0,0,1,.005-.057.04.04,0,0,1,.057.005c.05.061.1.122.159.18a.04.04,0,0,1,0,.057A.04.04,0,0,1,1306.474,2272.854Zm30.371-.276a.04.04,0,0,1-.016,0,.04.04,0,0,1-.021-.053,2.365,2.365,0,0,0,.083-.223.04.04,0,1,1,.077.024c-.025.078-.054.156-.086.231A.04.04,0,0,1,1336.845,2272.578Zm-30.854-.37a.04.04,0,0,1-.035-.02c-.041-.071-.08-.143-.116-.217a.04.04,0,1,1,.073-.035c.035.071.073.142.113.211a.04.04,0,0,1-.015.055A.038.038,0,0,1,1305.991,2272.207Zm31.053-.41h-.006a.041.041,0,0,1-.034-.046q.017-.118.034-.24a.04.04,0,0,1,.046-.034.041.041,0,0,1,.034.046c-.011.082-.023.162-.034.24A.041.041,0,0,1,1337.044,2271.8Zm-31.373-.331a.041.041,0,0,1-.039-.029c-.023-.078-.044-.158-.062-.238a.04.04,0,1,1,.079-.018c.017.078.037.156.06.232a.041.041,0,0,1-.027.051Zm31.483-.471h-.005a.04.04,0,0,1-.035-.045l.031-.241a.04.04,0,0,1,.08.01q-.015.122-.031.241A.04.04,0,0,1,1337.154,2271Zm-31.622-.324a.041.041,0,0,1-.04-.038q0-.042,0-.083l-.005-.16a.04.04,0,1,1,.081,0l.005.16c0,.027,0,.054,0,.082a.04.04,0,0,1-.038.042Zm31.721-.479h0a.04.04,0,0,1-.035-.045l.027-.241a.041.041,0,0,1,.045-.035.04.04,0,0,1,.036.045c-.009.081-.018.162-.028.241A.04.04,0,0,1,1337.253,2270.194Zm-31.748-.33a.04.04,0,0,1-.041-.039l-.008-.243a.041.041,0,0,1,.039-.042.04.04,0,0,1,.042.039l.008.243a.04.04,0,0,1-.039.042Zm31.835-.475h0a.04.04,0,0,1-.036-.044c.008-.08.016-.16.024-.241a.04.04,0,1,1,.08.008q-.012.122-.024.242A.04.04,0,0,1,1337.341,2269.39Zm-31.861-.333a.04.04,0,0,1-.041-.039l-.008-.243a.04.04,0,0,1,.039-.042.042.042,0,0,1,.042.039l.008.242a.04.04,0,0,1-.039.042Zm31.937-.471h0a.041.041,0,0,1-.037-.044q.011-.12.021-.242a.041.041,0,0,1,.044-.037.04.04,0,0,1,.037.043q-.01.122-.021.242A.04.04,0,0,1,1337.417,2268.585Zm-31.964-.337a.041.041,0,0,1-.04-.039l-.008-.242a.041.041,0,0,1,.039-.042.042.042,0,0,1,.042.039l.008.243a.04.04,0,0,1-.039.042Zm32.027-.469h0a.04.04,0,0,1-.037-.043c.005-.08.011-.161.017-.242a.04.04,0,0,1,.043-.038.041.041,0,0,1,.038.043q-.008.122-.017.242A.041.041,0,0,1,1337.481,2267.779Zm-32.053-.339a.04.04,0,0,1-.04-.039l-.008-.242a.04.04,0,0,1,.039-.042.041.041,0,0,1,.042.039l.008.242a.04.04,0,0,1-.039.042Zm32.106-.468h0a.041.041,0,0,1-.038-.043c0-.081.009-.161.013-.242a.039.039,0,0,1,.042-.038.041.041,0,0,1,.038.043c0,.081-.009.162-.013.242A.04.04,0,0,1,1337.534,2266.972Zm-32.132-.34a.04.04,0,0,1-.04-.039l-.008-.242a.041.041,0,0,1,.039-.042.042.042,0,0,1,.042.039l.008.242a.04.04,0,0,1-.039.042Zm32.171-.468h0a.04.04,0,0,1-.039-.042q0-.121.009-.242a.041.041,0,0,1,.042-.039.04.04,0,0,1,.039.042q0,.122-.009.243A.04.04,0,0,1,1337.573,2266.164Zm-32.2-.34a.04.04,0,0,1-.04-.039l-.008-.242a.04.04,0,0,1,.039-.042.041.041,0,0,1,.042.039l.008.242a.04.04,0,0,1-.039.042Zm32.224-.468h0a.04.04,0,0,1-.039-.042c0-.08,0-.161.005-.242a.041.041,0,0,1,.041-.04h0a.041.041,0,0,1,.04.041c0,.081,0,.162-.005.243A.04.04,0,0,1,1337.6,2265.356Zm-32.249-.34a.041.041,0,0,1-.04-.039l-.008-.242a.041.041,0,0,1,.039-.042.042.042,0,0,1,.042.039l.008.242a.041.041,0,0,1-.039.042Zm32.261-.469h0a.041.041,0,0,1-.04-.041q0-.121,0-.242a.04.04,0,1,1,.081,0c0,.081,0,.162,0,.243A.041.041,0,0,1,1337.611,2264.547Zm-32.287-.34a.04.04,0,0,1-.041-.039l-.008-.242a.041.041,0,0,1,.039-.042.042.042,0,0,1,.042.039l.008.242a.04.04,0,0,1-.039.042Zm32.284-.469a.041.041,0,0,1-.041-.04c0-.08,0-.161,0-.242a.04.04,0,0,1,.039-.041.042.042,0,0,1,.041.04c0,.081,0,.162,0,.243a.04.04,0,0,1-.04.041Zm-32.31-.339a.041.041,0,0,1-.041-.039l-.007-.242a.04.04,0,0,1,.039-.042.041.041,0,0,1,.042.039l.008.242a.04.04,0,0,1-.039.042Zm32.291-.469a.04.04,0,0,1-.04-.039c0-.081-.006-.161-.009-.242a.04.04,0,0,1,.081,0q0,.122.009.243a.04.04,0,0,1-.039.042Zm-32.317-.339a.041.041,0,0,1-.041-.039l-.008-.242a.04.04,0,1,1,.081,0l.008.242a.04.04,0,0,1-.039.042Zm32.281-.469a.04.04,0,0,1-.04-.038c0-.081-.009-.161-.014-.242a.04.04,0,0,1,.038-.043.04.04,0,0,1,.043.038c.005.081.01.161.014.242a.04.04,0,0,1-.038.043Zm-32.307-.34a.04.04,0,0,1-.04-.039l-.008-.243a.04.04,0,0,1,.039-.042.042.042,0,0,1,.042.039l.008.242a.04.04,0,0,1-.039.042Zm32.252-.467a.04.04,0,0,1-.04-.037c-.006-.081-.013-.161-.02-.241a.04.04,0,0,1,.036-.044.041.041,0,0,1,.044.036q.01.121.02.242a.041.041,0,0,1-.037.043Zm-32.278-.341a.041.041,0,0,1-.04-.039l-.008-.242a.04.04,0,0,1,.039-.042.042.042,0,0,1,.042.039l.008.242a.041.041,0,0,1-.039.042Zm32.2-.464a.04.04,0,0,1-.04-.036q-.013-.12-.027-.241a.04.04,0,1,1,.08-.009c.009.08.018.161.026.241a.04.04,0,0,1-.036.044Zm-32.229-.344a.04.04,0,0,1-.04-.039l-.008-.242a.041.041,0,0,1,.039-.042.044.044,0,0,1,.042.039l.008.242a.04.04,0,0,1-.039.042Zm31.943-.242h-.243a.04.04,0,0,1,0-.081h.243a.04.04,0,0,1,0,.081Zm-.809,0h-.243a.04.04,0,1,1,0-.081h.243a.04.04,0,1,1,0,.081Zm-.808,0h-.243a.04.04,0,1,1,0-.081h.243a.04.04,0,1,1,0,.081Zm-.809,0h-.243a.04.04,0,0,1,0-.081h.243a.04.04,0,1,1,0,.081Zm-.808,0h-.242a.04.04,0,1,1,0-.081h.242a.04.04,0,1,1,0,.081Zm-.808,0h-.243a.04.04,0,1,1,0-.081h.243a.04.04,0,0,1,0,.081Zm-.809,0h-.243a.04.04,0,1,1,0-.081h.243a.04.04,0,1,1,0,.081Zm-.808,0h-.243a.04.04,0,0,1,0-.081h.243a.04.04,0,1,1,0,.081Zm-.809,0h-.243a.04.04,0,0,1,0-.081h.243a.04.04,0,1,1,0,.081Zm-.808,0h-.242a.04.04,0,1,1,0-.081h.242a.04.04,0,1,1,0,.081Zm-.808,0h-.243a.04.04,0,1,1,0-.081h.243a.04.04,0,1,1,0,.081Zm-.808,0H1328a.04.04,0,1,1,0-.081h.243a.04.04,0,1,1,0,.081Zm-.808,0h-.243a.04.04,0,1,1,0-.081h.243a.04.04,0,1,1,0,.081Zm-.809,0h-.243a.04.04,0,0,1,0-.081h.243a.04.04,0,1,1,0,.081Zm-.808,0h-.242a.04.04,0,1,1,0-.081h.242a.04.04,0,1,1,0,.081Zm-.809,0h-.242a.04.04,0,1,1,0-.081h.242a.04.04,0,1,1,0,.081Zm-.808,0h-.243a.04.04,0,1,1,0-.081h.243a.04.04,0,1,1,0,.081Zm-.809,0h-.243a.04.04,0,1,1,0-.081h.243a.04.04,0,1,1,0,.081Zm-.808,0h-.243a.04.04,0,0,1,0-.081h.243a.04.04,0,1,1,0,.081Zm-.808,0h-.242a.04.04,0,1,1,0-.081h.242a.04.04,0,1,1,0,.081Zm-.809,0h-.242a.04.04,0,1,1,0-.081h.242a.04.04,0,1,1,0,.081Zm-.808,0h-.243a.04.04,0,1,1,0-.081h.243a.04.04,0,1,1,0,.081Zm-.809,0h-.243a.04.04,0,1,1,0-.081h.243a.04.04,0,1,1,0,.081Zm-.808,0h-.243a.04.04,0,1,1,0-.081h.243a.04.04,0,1,1,0,.081Zm-.809,0h-.242a.04.04,0,1,1,0-.081h.242a.04.04,0,1,1,0,.081Zm-.808,0h-.242a.04.04,0,1,1,0-.081h.242a.04.04,0,1,1,0,.081Zm-.808,0h-.243a.04.04,0,0,1,0-.081h.243a.04.04,0,1,1,0,.081Zm-.809,0h-.243a.04.04,0,1,1,0-.081h.243a.04.04,0,1,1,0,.081Zm-.809,0h-.243a.04.04,0,0,1,0-.081h.243a.04.04,0,1,1,0,.081Zm-.809,0h-.242a.04.04,0,1,1,0-.081h.242a.04.04,0,1,1,0,.081Zm-.808,0h-.242a.04.04,0,1,1,0-.081h.242a.04.04,0,1,1,0,.081Zm-.808,0h-.243a.04.04,0,1,1,0-.081h.243a.04.04,0,0,1,0,.081Zm-.809,0h-.243a.04.04,0,1,1,0-.081h.243a.04.04,0,1,1,0,.081Zm-.808,0h-.243a.04.04,0,0,1,0-.081h.243a.04.04,0,1,1,0,.081Zm-.809,0h-.242a.04.04,0,1,1,0-.081h.242a.04.04,0,1,1,0,.081Zm-.808,0h-.242a.04.04,0,1,1,0-.081h.242a.04.04,0,1,1,0,.081Zm-.808,0h-.243a.04.04,0,1,1,0-.081h.243a.04.04,0,1,1,0,.081Zm-.809,0h-.243a.04.04,0,1,1,0-.081h.243a.04.04,0,1,1,0,.081Zm-.808,0h-.243a.04.04,0,1,1,0-.081h.243a.04.04,0,0,1,0,.081Zm-.809,0h-.242a.04.04,0,1,1,0-.081h.242a.04.04,0,1,1,0,.081Z" transform="translate(-272.97 -1248.92)" fill="#fff"/>
    <path id="Trazado_144873" data-name="Trazado 144873" d="M1346.129,2206.321l.081-.865a.665.665,0,0,1,.5-.388c.836-.133,2.909-.367,3.908.379l.149,1Z" transform="translate(-306.871 -1203.492)" fill="url(#linear-gradient-24)"/>
    <path id="Trazado_144874" data-name="Trazado 144874" d="M1356.565,2192.8a1.2,1.2,0,0,1-.578,0,.522.522,0,0,1-.4-.506v-2.706h1.377v2.7A.525.525,0,0,1,1356.565,2192.8Z" transform="translate(-314.695 -1190.807)" fill="url(#linear-gradient-25)"/>
    <path id="Trazado_144875" data-name="Trazado 144875" d="M1423.327,2206.321l.081-.865a.665.665,0,0,1,.5-.388c.836-.133,2.909-.367,3.908.379l.149,1Z" transform="translate(-370.729 -1203.492)" fill="url(#linear-gradient-26)"/>
    <path id="Trazado_144876" data-name="Trazado 144876" d="M1433.763,2191.438a1.2,1.2,0,0,1-.578,0,.523.523,0,0,1-.4-.506v-2.992h1.377v2.99A.525.525,0,0,1,1433.763,2191.438Z" transform="translate(-378.554 -1189.441)" fill="url(#linear-gradient-27)"/>
    <path id="Trazado_144877" data-name="Trazado 144877" d="M1351.352,2180.782l14.812-.293c.338-.007.624-.152.682-.35a2.186,2.186,0,0,0,.046-1.122c-.121-.489-.825-.852-1.656-.864-2.763-.039-9.8-.038-13.674.879a1.123,1.123,0,0,0-.818.561,1.2,1.2,0,0,0-.036.9A.672.672,0,0,0,1351.352,2180.782Z" transform="translate(-310.6 -1181.336)" fill="url(#linear-gradient-28)"/>
    <path id="Trazado_144878" data-name="Trazado 144878" d="M1352.853,2182.95c-.041,0-.076-.019-.08-.043a1.278,1.278,0,0,1,.089-.671,1.124,1.124,0,0,1,.852-.517,26.24,26.24,0,0,1,3.694-.413c.046,0,.082.02.083.047s-.034.049-.078.05a26.049,26.049,0,0,0-3.653.409.98.98,0,0,0-.741.45,1.234,1.234,0,0,0-.084.636c0,.027-.028.05-.072.053Z" transform="translate(-312.357 -1183.955)" fill="url(#linear-gradient-29)"/>
    <path id="Trazado_144879" data-name="Trazado 144879" d="M1298.766,2210.674c4.785-.061,25.485-.279,31.5.447a1.224,1.224,0,0,1,1.052.948,40.438,40.438,0,0,1,.986,9.036,1.072,1.072,0,0,1-.878,1.022l-13.726,2.6h-4.876l-14.625-2.907a1.143,1.143,0,0,1-.922-1.062,47.536,47.536,0,0,1,.26-9.038A1.265,1.265,0,0,1,1298.766,2210.674Z" transform="translate(-266.381 -1208.182)" fill="url(#linear-gradient-30)"/>
    <path id="Trazado_144880" data-name="Trazado 144880" d="M1318.41,2229.05h-.008l-.238-.048a.04.04,0,0,1-.031-.048.041.041,0,0,1,.047-.032l.238.047a.04.04,0,0,1-.008.08Zm4.57,0h-.242a.04.04,0,0,1,0-.081h.242a.04.04,0,1,1,0,.081Zm-.808,0h-.242a.04.04,0,1,1,0-.081h.242a.04.04,0,1,1,0,.081Zm-.809,0h-.242a.04.04,0,0,1,0-.081h.242a.04.04,0,1,1,0,.081Zm-.808,0h-.243a.04.04,0,0,1,0-.081h.243a.04.04,0,1,1,0,.081Zm-.809,0h-.242a.04.04,0,0,1,0-.081h.242a.04.04,0,1,1,0,.081Zm-.809,0h-.242a.04.04,0,0,1,0-.081h.242a.04.04,0,1,1,0,.081Zm4.6-.091a.041.041,0,0,1-.04-.033.04.04,0,0,1,.032-.047l.238-.045a.04.04,0,1,1,.015.079l-.238.045Zm-5.92-.067h-.008l-.238-.047a.04.04,0,0,1-.031-.048.039.039,0,0,1,.047-.031l.238.047a.04.04,0,0,1-.008.08Zm6.715-.083a.041.041,0,0,1-.007-.08l.238-.045a.04.04,0,1,1,.015.079l-.238.045Zm-7.508-.074h-.008l-.238-.048a.04.04,0,0,1,.016-.079l.238.047a.041.041,0,0,1-.008.08Zm8.3-.076a.041.041,0,0,1-.04-.033.04.04,0,0,1,.032-.047l.239-.045a.04.04,0,0,1,.015.08l-.238.045Zm-9.1-.082h-.008l-.238-.047a.04.04,0,1,1,.016-.079l.238.047a.04.04,0,0,1-.008.08Zm9.89-.069a.04.04,0,0,1-.008-.08l.238-.045a.041.041,0,0,1,.015.08l-.239.045Zm-10.683-.089h-.008l-.238-.047a.04.04,0,0,1,.016-.079l.238.047a.04.04,0,0,1,.032.048A.04.04,0,0,1,1315.239,2228.419Zm11.477-.061a.04.04,0,0,1-.008-.08l.238-.045a.041.041,0,0,1,.015.08l-.238.045Zm-12.27-.1h-.008l-.238-.047a.04.04,0,0,1,.016-.079l.238.047a.04.04,0,0,1-.008.08Zm13.064-.054a.04.04,0,0,1-.007-.08l.238-.045a.04.04,0,0,1,.015.08l-.238.045Zm-13.857-.1h-.008l-.238-.047a.04.04,0,0,1-.031-.048.04.04,0,0,1,.047-.032l.238.048a.04.04,0,0,1-.008.08Zm14.652-.047a.04.04,0,0,1-.008-.08l.238-.045a.041.041,0,0,1,.015.08l-.239.045Zm-15.445-.111h-.008l-.238-.047a.04.04,0,1,1,.016-.079l.238.047a.041.041,0,0,1-.008.08Zm16.239-.04a.04.04,0,0,1-.007-.08l.238-.045a.04.04,0,0,1,.015.08l-.238.045Zm-17.032-.118h-.008l-.238-.047a.04.04,0,0,1-.031-.048.04.04,0,0,1,.047-.032l.238.047a.04.04,0,0,1-.008.08Zm17.827-.032a.04.04,0,0,1-.04-.033.041.041,0,0,1,.032-.048l.238-.045a.04.04,0,1,1,.015.079l-.238.045Zm-18.62-.125h-.008l-.238-.047a.041.041,0,0,1-.032-.048.04.04,0,0,1,.048-.032l.238.047a.041.041,0,0,1,.032.048A.04.04,0,0,1,1311.273,2227.632Zm19.414-.025a.041.041,0,0,1-.008-.08l.239-.045a.041.041,0,0,1,.047.032.041.041,0,0,1-.032.047l-.239.045Zm-20.207-.133h-.008l-.238-.047a.04.04,0,0,1,.016-.079l.238.047a.04.04,0,0,1-.008.08Zm21-.017a.041.041,0,0,1-.008-.08l.239-.045a.04.04,0,1,1,.015.079l-.238.045Zm-21.794-.14h-.008l-.238-.047a.041.041,0,0,1-.031-.048.04.04,0,0,1,.047-.032l.238.047a.04.04,0,0,1-.008.08Zm22.589-.01a.04.04,0,0,1-.007-.08l.238-.045a.04.04,0,0,1,.015.079l-.238.045Zm-23.382-.148h-.008l-.238-.047a.041.041,0,0,1-.032-.048.04.04,0,0,1,.048-.032l.238.047a.04.04,0,0,1-.008.08Zm24.176,0a.04.04,0,0,1-.04-.033.04.04,0,0,1,.032-.047l.238-.045a.04.04,0,1,1,.015.079l-.238.045Zm.794-.15a.041.041,0,0,1-.008-.08l.239-.045a.041.041,0,0,1,.015.08l-.239.045Zm-25.764,0h-.008l-.238-.047a.041.041,0,0,1-.032-.048.04.04,0,0,1,.047-.031l.238.047a.04.04,0,0,1-.008.08Zm26.558-.146a.04.04,0,0,1-.008-.08l.238-.045a.041.041,0,0,1,.047.032.04.04,0,0,1-.032.047l-.238.045Zm-27.351-.012h-.008l-.238-.047a.04.04,0,1,1,.016-.079l.238.047a.04.04,0,0,1-.008.08Zm28.145-.139a.04.04,0,0,1-.007-.08l.238-.045a.04.04,0,0,1,.015.08l-.238.045Zm-28.938-.019h-.008l-.238-.047a.041.041,0,1,1,.016-.08l.238.048a.04.04,0,0,1-.008.08Zm29.733-.131a.04.04,0,0,1-.007-.08l.238-.045a.041.041,0,0,1,.015.08l-.238.045Zm-30.526-.027h-.008l-.238-.048a.041.041,0,0,1-.032-.048.04.04,0,0,1,.048-.031l.238.047a.04.04,0,0,1-.008.08Zm-.793-.158h-.008l-.238-.047a.04.04,0,0,1,.016-.079l.238.047a.04.04,0,0,1-.008.08Zm-.793-.157h-.008l-.241-.048,0-.06a.04.04,0,0,1,.038-.042.039.039,0,0,1,.042.035l.179.036a.04.04,0,0,1-.008.08Zm32.46-.182a.04.04,0,0,1-.041-.04v-.024c0-.073,0-.146,0-.219a.041.041,0,0,1,.04-.041.043.043,0,0,1,.041.04q0,.11,0,.219v.024A.04.04,0,0,1,1336.6,2226.031Zm-32.7-.454a.04.04,0,0,1-.04-.039q-.005-.118-.01-.243a.04.04,0,0,1,.081,0c0,.083.007.164.01.242a.04.04,0,0,1-.039.042Zm32.687-.354a.04.04,0,0,1-.04-.04c0-.081,0-.161-.008-.242a.04.04,0,0,1,.039-.042.041.041,0,0,1,.042.039c0,.081.006.161.008.242a.04.04,0,0,1-.039.042Zm-32.717-.454a.04.04,0,0,1-.041-.039c0-.079-.005-.16-.007-.242a.041.041,0,0,1,.039-.042.04.04,0,0,1,.042.039c0,.082.005.163.007.242a.041.041,0,0,1-.039.042Zm32.683-.354a.04.04,0,0,1-.04-.038l-.014-.242a.04.04,0,1,1,.081-.005q.007.121.014.243a.041.041,0,0,1-.038.043Zm-32.7-.455a.041.041,0,0,1-.041-.04c0-.08,0-.161,0-.243a.04.04,0,0,1,.04-.041.041.041,0,0,1,.041.04c0,.082,0,.163,0,.243a.041.041,0,0,1-.04.041Zm32.651-.352a.04.04,0,0,1-.04-.037c-.006-.081-.013-.162-.02-.242a.04.04,0,0,1,.081-.007q.011.12.02.242a.041.041,0,0,1-.037.044Zm-32.663-.457a.04.04,0,0,1-.041-.04c0-.081,0-.161,0-.243a.04.04,0,0,1,.04-.041h0a.041.041,0,0,1,.041.04c0,.081,0,.162,0,.242a.041.041,0,0,1-.04.041Zm32.592-.349a.041.041,0,0,1-.04-.036c-.008-.081-.016-.162-.025-.241a.041.041,0,0,1,.081-.009l.025.242a.04.04,0,0,1-.036.044Zm-32.594-.459h0a.04.04,0,0,1-.04-.041c0-.081,0-.162,0-.243a.04.04,0,0,1,.041-.04h0a.041.041,0,0,1,.04.041c0,.081,0,.162,0,.243A.04.04,0,0,1,1303.833,2222.344Zm32.505-.345a.04.04,0,0,1-.04-.036c-.01-.081-.02-.161-.03-.24a.04.04,0,0,1,.035-.045.041.041,0,0,1,.045.035c.01.08.02.16.03.241a.041.041,0,0,1-.035.045Zm-32.5-.464h0a.041.041,0,0,1-.04-.041c0-.081,0-.162.005-.243a.042.042,0,0,1,.042-.039.04.04,0,0,1,.039.041c0,.081,0,.162-.005.242A.041.041,0,0,1,1303.842,2221.535Zm32.392-.338a.04.04,0,0,1-.04-.035c-.011-.081-.023-.161-.034-.24a.04.04,0,0,1,.034-.046.041.041,0,0,1,.046.034c.011.079.023.159.034.24a.041.041,0,0,1-.034.046Zm-32.37-.47h0a.04.04,0,0,1-.039-.042c0-.081.006-.162.01-.243a.041.041,0,0,1,.042-.039.04.04,0,0,1,.039.042c0,.081-.007.161-.01.242A.04.04,0,0,1,1303.865,2220.727Zm32.25-.33a.04.04,0,0,1-.04-.034c-.013-.081-.026-.161-.039-.24a.04.04,0,0,1,.033-.046.04.04,0,0,1,.046.033c.013.079.026.159.039.24a.041.041,0,0,1-.034.046Zm-32.213-.478h0a.04.04,0,0,1-.038-.043c0-.081.01-.162.015-.242a.04.04,0,0,1,.043-.038.041.041,0,0,1,.038.043c-.005.081-.01.161-.015.242A.041.041,0,0,1,1303.9,2219.919Zm32.079-.32a.04.04,0,0,1-.04-.033c-.014-.081-.029-.161-.043-.239a.04.04,0,0,1,.032-.047.041.041,0,0,1,.047.032c.014.078.028.158.043.239a.04.04,0,0,1-.033.047Zm-32.022-.487h0a.04.04,0,0,1-.037-.044c.007-.081.014-.162.021-.242a.041.041,0,0,1,.044-.036.04.04,0,0,1,.036.044c-.007.08-.015.16-.021.241A.041.041,0,0,1,1303.96,2219.112Zm31.874-.309a.04.04,0,0,1-.04-.032q-.024-.123-.047-.238a.041.041,0,0,1,.08-.016c.015.077.031.156.047.239a.041.041,0,0,1-.032.048Zm-31.792-.5h0a.04.04,0,0,1-.035-.045q.015-.122.031-.241a.04.04,0,0,1,.045-.035.04.04,0,0,1,.034.045q-.016.119-.03.24A.041.041,0,0,1,1304.042,2218.307Zm31.63-.3a.04.04,0,0,1-.04-.032l-.039-.178a.045.045,0,0,1-.042-.044c0-.022.016-.038.038-.035h.01a.083.083,0,0,1,.073.061l.039.178a.04.04,0,0,1-.031.048Zm-.649-.269h0l-.241-.022a.04.04,0,0,1,.007-.081l.242.022a.04.04,0,0,1,.036.044A.041.041,0,0,1,1335.022,2217.742Zm-.806-.069h0l-.242-.018a.04.04,0,0,1,.006-.081l.242.018a.04.04,0,0,1,0,.081Zm-.808-.056h0l-.242-.015a.04.04,0,0,1-.038-.043.039.039,0,0,1,.043-.038l.242.015a.04.04,0,0,1,.038.042A.041.041,0,0,1,1333.409,2217.617Zm-.806-.046h0l-.242-.013a.04.04,0,0,1-.038-.042.041.041,0,0,1,.042-.038l.242.013a.04.04,0,0,1,0,.081Zm-.808-.04h0l-.242-.011a.04.04,0,0,1-.038-.042.043.043,0,0,1,.042-.039l.242.011a.04.04,0,0,1,0,.081Zm-27.637-.024h-.007a.04.04,0,0,1-.033-.047l.013-.072a.123.123,0,0,1,.12-.1h.054a.04.04,0,1,1,0,.08h-.053a.043.043,0,0,0-.042.036l-.013.072A.04.04,0,0,1,1304.158,2217.507Zm26.829-.01h0l-.242-.01a.041.041,0,0,1-.039-.042.04.04,0,0,1,.042-.039l.242.009a.041.041,0,0,1,0,.081Zm-.808-.03h0l-.242-.008a.041.041,0,0,1-.039-.042.042.042,0,0,1,.042-.039l.243.008a.04.04,0,0,1,0,.081Zm-.808-.026h0l-.242-.007a.04.04,0,0,1-.039-.042.043.043,0,0,1,.042-.039l.242.007a.041.041,0,0,1,0,.081Zm-.808-.023h0l-.242-.006a.041.041,0,0,1-.039-.042.04.04,0,0,1,.04-.039h0l.243.007a.04.04,0,0,1,.039.041A.041.041,0,0,1,1328.563,2217.418Zm-.808-.021h0l-.242-.006a.04.04,0,0,1,0-.081h0l.242.006a.04.04,0,0,1,.04.041A.041.041,0,0,1,1327.754,2217.4Zm-.808-.018h0l-.242,0a.041.041,0,0,1-.04-.041.04.04,0,0,1,.042-.04l.242,0a.041.041,0,0,1,.04.042A.04.04,0,0,1,1326.946,2217.38Zm-.809-.016h0l-.243,0a.04.04,0,0,1,0-.081l.242,0a.041.041,0,0,1,.04.042A.04.04,0,0,1,1326.138,2217.364Zm-21.267-.006a.04.04,0,0,1,0-.081l.243,0a.041.041,0,0,1,.041.04.04.04,0,0,1-.04.041l-.243,0Zm20.458-.007h0l-.243,0a.04.04,0,0,1,0-.081h0l.242,0a.04.04,0,0,1,0,.081Zm-19.649,0a.04.04,0,0,1,0-.081l.243,0h0a.04.04,0,0,1,0,.081l-.243,0Zm.809-.009a.04.04,0,1,1,0-.08l.242,0h0a.04.04,0,0,1,0,.081l-.243,0Zm18.032,0h0l-.243,0a.04.04,0,0,1,0-.081h0l.243,0a.04.04,0,1,1,0,.081Zm-17.223-.006a.04.04,0,0,1,0-.081l.243,0h0a.041.041,0,0,1,0,.081l-.242,0Zm16.415,0h0l-.242,0a.04.04,0,0,1,0-.081h0l.242,0a.04.04,0,0,1,0,.081Zm-15.606,0a.04.04,0,0,1,0-.081l.243,0h0a.04.04,0,1,1,0,.081l-.242,0Zm14.8-.006h0l-.242,0a.04.04,0,0,1,0-.081h0l.243,0a.04.04,0,0,1,.04.041A.04.04,0,0,1,1322.9,2217.318Zm-13.989,0a.041.041,0,0,1,0-.081l.242,0a.039.039,0,0,1,.041.04.04.04,0,0,1-.04.041l-.243,0Zm.809-.006a.041.041,0,0,1,0-.081l.243,0h0a.04.04,0,0,1,0,.081l-.243,0Zm12.372,0h0l-.242,0a.041.041,0,0,1-.04-.041.039.039,0,0,1,.041-.04l.243,0a.041.041,0,0,1,0,.081Zm-11.563,0a.04.04,0,0,1,0-.081l.242,0h0a.041.041,0,0,1,0,.081h-.243Zm10.754,0h0l-.242,0a.04.04,0,0,1-.04-.041.039.039,0,0,1,.041-.04h.242a.041.041,0,0,1,0,.081Zm-9.945,0a.04.04,0,0,1,0-.081h.243a.04.04,0,0,1,0,.081Zm9.137,0h-.243a.04.04,0,0,1,0-.081h.243a.041.041,0,0,1,0,.081Zm-8.328,0a.04.04,0,0,1,0-.081h.243a.04.04,0,0,1,0,.081h-.243Zm7.52,0h-.243a.04.04,0,0,1,0-.081h.243a.04.04,0,0,1,0,.081Zm-6.711,0a.04.04,0,0,1,0-.081h.243a.04.04,0,0,1,.04.04.041.041,0,0,1-.04.041h-.243Zm5.9,0h-.242a.04.04,0,0,1,0-.081h.243a.04.04,0,1,1,0,.081Zm-5.094,0a.04.04,0,0,1,0-.081h.243a.041.041,0,0,1,0,.081h-.243Zm4.285,0h-.243a.04.04,0,1,1,0-.081h.243a.041.041,0,0,1,0,.081Zm-3.476,0a.04.04,0,0,1-.041-.041.041.041,0,0,1,.04-.041h.243a.04.04,0,1,1,0,.081Zm2.668,0H1317a.041.041,0,0,1,0-.081h.242a.04.04,0,1,1,0,.081Zm-1.859,0a.041.041,0,0,1-.041-.041.04.04,0,0,1,.04-.04h.243a.041.041,0,0,1,0,.081Zm.808,0a.04.04,0,1,1,0-.081h.242a.04.04,0,1,1,0,.081Z" transform="translate(-271.851 -1213.65)" fill="#fff"/>
    <path id="Trazado_144881" data-name="Trazado 144881" d="M1385.167,2273.995H1380.9a1.1,1.1,0,0,1-1.1-.969l-.493-4.11a1.1,1.1,0,0,1,1.1-1.231h5.131a1.1,1.1,0,0,1,1.1,1.2l-.366,4.11A1.1,1.1,0,0,1,1385.167,2273.995Z" transform="translate(-334.308 -1255.406)" fill="url(#linear-gradient-31)"/>
    <path id="Trazado_144882" data-name="Trazado 144882" d="M1388.84,2276.837h-3.251a.84.84,0,0,1-.835-.738l-.376-3.128a.839.839,0,0,1,.835-.937h3.906a.839.839,0,0,1,.838.911l-.279,3.128A.84.84,0,0,1,1388.84,2276.837Z" transform="translate(-338.506 -1259.004)" fill="url(#linear-gradient-32)"/>
    <path id="Trazado_144883" data-name="Trazado 144883" d="M1324.589,1888.942c-.351-9.423-.982-21.61-2.005-26.728-1.778-8.891-8.065-12.253-8.065-12.253-13.4,1.973-.233,25.294-.233,25.294l4.253,14.722A12.7,12.7,0,0,1,1324.589,1888.942Z" transform="translate(-275.746 -909.865)" fill="#c3b5ec"/>
    <path id="Trazado_144884" data-name="Trazado 144884" d="M1372.633,2075.418a12.705,12.705,0,0,0-6.051,1.035l3.452,11.951s-.593,6.52-.06,7.239,4.8.467,4.8-.719-1.778-7.113-1.778-7.113S1372.891,2082.366,1372.633,2075.418Z" transform="translate(-323.79 -1096.342)" fill="url(#linear-gradient-33)"/>
    <path id="Trazado_144885" data-name="Trazado 144885" d="M970.387,1724.043s-3.483,1.694-4.124,3.64c-.514,1.562-4.365,1.763-4.746,4.834a3.524,3.524,0,0,1-2.949,3.1c-3.934.6-10,2.646-10.965,9.475-.74,5.213,1.917,7.189,4.706,7.874a3.95,3.95,0,0,1,3,4.563c-.4,1.984.2,4.277,3.632,6.09,7.7,4.063,15.391-9.626,15.391-9.626l1.576-23.9Z" transform="translate(22.894 -805.707)" fill="#463c5f"/>
    <path id="Trazado_144886" data-name="Trazado 144886" d="M854.991,2583.9l-.5,4.1a1.692,1.692,0,0,1-1.484,1.48,26.151,26.151,0,0,1-5.483.086,1.449,1.449,0,0,1-1.217-1.879,14.923,14.923,0,0,1,2.748-5.353H853.6A1.4,1.4,0,0,1,854.991,2583.9Z" transform="translate(106.637 -1515.678)" fill="url(#linear-gradient-34)"/>
    <path id="Trazado_144887" data-name="Trazado 144887" d="M1060.878,2313.7l.767,4.512s-2.568,26.017-3.025,36.425a8.155,8.155,0,0,0,1.207,4.635l4.466,7.253-11.351-6.7-.226-1.385,1.858-2.555-2.434-29.146a8.94,8.94,0,0,1,1.018-4.946l2.348-4.411Z" transform="translate(-63.657 -1293.467)" fill="url(#linear-gradient-35)"/>
    <path id="Trazado_144888" data-name="Trazado 144888" d="M1063.668,2573.917h-3.622a2.181,2.181,0,0,1-1.731-.849c-1.129-1.467-3.469-4.33-4.588-4.4-1.506-.1-1.313,5.253-1.313,5.253h-.844l-1.069-6.653a3.938,3.938,0,0,1,2.067-4.116h0a5.568,5.568,0,0,0,2.211,3.672c1.867,1.126,7.6,5.159,7.6,5.159a5.18,5.18,0,0,1,1.472.039A.958.958,0,0,1,1063.668,2573.917Z" transform="translate(-62.285 -1499.813)" fill="url(#linear-gradient-36)"/>
    <path id="Trazado_144889" data-name="Trazado 144889" d="M882.655,2317.122s-15.047,28.543-17.44,35.06a62.6,62.6,0,0,0-3.262,12.468c-.05.8-1.051,1.576-3.809,1.576a2.645,2.645,0,0,1-2.462-1.123,1.607,1.607,0,0,1-.061-1.557c.87-1.761,3.633-7.391,4.656-9.944,1.221-3.049,3.849-16.864,5.29-21.667s3.07-10.014,9.345-14.813C874.912,2317.122,879.219,2312.9,882.655,2317.122Z" transform="translate(99.02 -1294.75)" fill="url(#linear-gradient-37)"/>
    <path id="Trazado_144890" data-name="Trazado 144890" d="M1039.4,1890.686c3.882-16.448-5.952-25.75-5.952-25.75,6.2-5.956,17.509-8.666,17.509-8.666s10.787,7.886,9.507,14.059c-.75,3.618-7.582,21.67-7.582,21.67A15.012,15.012,0,0,1,1039.4,1890.686Z" transform="translate(-48.224 -915.084)" fill="#ff7758"/>
    <path id="Trazado_144891" data-name="Trazado 144891" d="M974.431,2063.58c1.579-4.759,8.606-8.143,8.606-8.143a15.012,15.012,0,0,0,13.483,1.314,27.039,27.039,0,0,1,.439,10.448c-.978,5.033-7.113,37.377-7.113,37.377-9.667,1.958-24.535-1.971-24.535-1.971C971.469,2091.673,972.852,2068.339,974.431,2063.58Z" transform="translate(8.143 -1079.836)" fill="url(#linear-gradient-38)"/>
    <path id="Trazado_144892" data-name="Trazado 144892" d="M1078.626,1786.9l-3.156,14.175c-.3,1.249.836,1.044,2.1.806,2.067-.39,4.732-1.193,5.623-2.8a1.527,1.527,0,0,0,.161-.534l1.356-9.829a1.766,1.766,0,0,0-1.034-1.856l-2.616-1.16A1.766,1.766,0,0,0,1078.626,1786.9Z" transform="translate(-82.94 -856.582)" fill="url(#linear-gradient-39)"/>
    <path id="Trazado_144893" data-name="Trazado 144893" d="M982.324,1906.419s-22.026,15.758-2.817,32.317A4.963,4.963,0,0,0,981.68,1940a23.908,23.908,0,0,1,3.97,2.695.747.747,0,0,0,1.093-.2h0a1.022,1.022,0,0,0,.057-.979l-2.727-5.766a2.1,2.1,0,0,0-2.732-.118h0a1.038,1.038,0,0,1-1.574-.356c-1.485-3.024-4.289-11.919,7.188-21.97a1.244,1.244,0,0,0,.276-1.512C986.426,1910.243,984.582,1907.167,982.324,1906.419Z" transform="translate(2.904 -956.568)" fill="url(#linear-gradient-40)"/>
    <path id="Trazado_144894" data-name="Trazado 144894" d="M1089.543,1716.171s3.359,2.274,4.8,8.066-.9,7.869-3.307,7.742a11.158,11.158,0,0,1-8.913-5.026C1079.1,1722.8,1085.14,1713.392,1089.543,1716.171Z" transform="translate(-87.813 -798.775)" fill="url(#linear-gradient-41)"/>
    <path id="Trazado_144895" data-name="Trazado 144895" d="M1065.727,1700.875s-1.231-8.3,5.659-7.03l1.393,1.45s3.373-3.8-.36-6.669-8.911-2.136-11.777,3.091-3.905,8.9-1.5,12.147,4.208.462,4.208.462-1.1-2.811-.187-4.017,2.093.7,2.093.7Z" transform="translate(-68.368 -775.035)" fill="#463c5f"/>
    <path id="Trazado_144896" data-name="Trazado 144896" d="M1081.13,1755.93s-.608-4.27-2.788-3.049.786,3.989,1.975,4.93Z" transform="translate(-84.713 -829.379)" fill="url(#linear-gradient-42)"/>
    <path id="Trazado_144897" data-name="Trazado 144897" d="M1763.245,1249.128a123.643,123.643,0,0,1-66.6,36.378c-62.295,12.219-146.5-6.407-165.46-75.091-11.557-41.862-3.465-90.824,20.275-127.1,26.094-39.868,73.2-66.769,121.412-64.872,47.171,1.856,93.406,38.989,112.948,80.29C1810.466,1150.82,1799.519,1210.865,1763.245,1249.128Z" transform="translate(-455.645 -221.959)" fill="#ffe9cb"/>
    <g id="Grupo_83563" data-name="Grupo 83563" transform="translate(1069.316 804.578)" opacity="0.3">
      <path id="Trazado_144898" data-name="Trazado 144898" d="M1606.811,1086.737a1.018,1.018,0,0,1-1.4-.345c-.566-.935-1.18-1.86-1.827-2.748a1.018,1.018,0,0,1,.208-1.411l.016-.012a1.019,1.019,0,0,1,1.423.225c.68.935,1.327,1.908,1.922,2.893a1.018,1.018,0,0,1-.256,1.338A.936.936,0,0,1,1606.811,1086.737Zm-6.668-7.2c-.761-.792-1.563-1.558-2.385-2.279a1.019,1.019,0,1,1,1.343-1.531c.865.758,1.709,1.565,2.51,2.4a1.019,1.019,0,0,1-.028,1.44,1.063,1.063,0,0,1-.092.078A1.018,1.018,0,0,1,1600.143,1079.536Zm-6.649-5.522c-.916-.6-1.869-1.169-2.833-1.688a1.019,1.019,0,1,1,.967-1.793c1.016.547,2.019,1.146,2.984,1.778a1.018,1.018,0,1,1-1.117,1.7Zm-7.717-3.9c-1.028-.381-2.085-.722-3.14-1.014a1.019,1.019,0,1,1,.542-1.964c1.112.307,2.224.666,3.306,1.067a1.019,1.019,0,0,1-.708,1.911Zm-8.393-2.08c-1.084-.143-2.191-.242-3.287-.292a1.019,1.019,0,1,1,.1-2.035c1.154.054,2.318.158,3.459.308a1.018,1.018,0,1,1-.266,2.019Zm-8.644-.171c-1.091.1-2.191.249-3.27.442a1.019,1.019,0,0,1-.358-2.006c1.135-.2,2.293-.359,3.441-.465a1.019,1.019,0,1,1,.187,2.029Zm-31.8,20.481a1.018,1.018,0,0,1-.411-1.381c.549-1.014,1.149-2.017,1.785-2.981a1.018,1.018,0,1,1,1.7,1.12c-.6.916-1.173,1.869-1.694,2.831a1.018,1.018,0,0,1-1.38.411Zm23.336-18.733c-1.04.34-2.079.73-3.086,1.158a1.019,1.019,0,1,1-.8-1.875c1.061-.451,2.155-.862,3.25-1.22a1.018,1.018,0,1,1,.633,1.936Zm-18.447,11.324a1.019,1.019,0,0,1-.091-1.437c.761-.865,1.571-1.708,2.4-2.507a1.019,1.019,0,1,1,1.409,1.471c-.792.759-1.561,1.561-2.285,2.382a1.019,1.019,0,0,1-1.437.091Zm10.589-7.73c-.938.564-1.863,1.177-2.751,1.82a1.018,1.018,0,0,1-1.213-1.636l.017-.013c.935-.678,1.909-1.323,2.9-1.916a1.019,1.019,0,0,1,1.141,1.684C1552.483,1073.168,1552.453,1073.189,1552.421,1073.208Z" transform="translate(-1533.586 -1065.708)" fill="#91b3fa"/>
      <path id="Trazado_144899" data-name="Trazado 144899" d="M1521.713,1218.141a1.013,1.013,0,0,0,.353-.5c.162-.5.339-1,.522-1.5a1.018,1.018,0,1,0-1.909-.709c-.193.521-.378,1.051-.55,1.577a1.018,1.018,0,0,0,1.584,1.127Z" transform="translate(-1520.078 -1189.014)" fill="#91b3fa"/>
    </g>
    <g id="Grupo_83564" data-name="Grupo 83564" transform="translate(1071.252 854.762)" opacity="0.3">
      <path id="Trazado_144900" data-name="Trazado 144900" d="M1533.653,1397.584a1.019,1.019,0,0,0,.283-1.29c-.247-.464-.488-.94-.717-1.416a1.019,1.019,0,1,0-1.836.882c.241.5.5,1,.755,1.491a1.019,1.019,0,0,0,1.378.42A.994.994,0,0,0,1533.653,1397.584Z" transform="translate(-1531.282 -1387.704)" fill="#91b3fa"/>
      <path id="Trazado_144901" data-name="Trazado 144901" d="M1608.2,1411.871a1.019,1.019,0,1,1-1.149-1.682c.884-.6,1.757-1.255,2.6-1.942a1.019,1.019,0,0,1,1.284,1.582q-.55.446-1.11.871C1609.29,1411.1,1608.743,1411.5,1608.2,1411.871Zm5.361-5.779a1.018,1.018,0,0,1-.046-1.439c.738-.788,1.452-1.615,2.12-2.46a1.018,1.018,0,1,1,1.6,1.264c-.7.889-1.454,1.76-2.232,2.589a1.018,1.018,0,0,1-1.44.046Zm-10.149,8.587c-1.014.505-2.064.974-3.121,1.392a1.019,1.019,0,1,1-.751-1.894c1-.4,2-.842,2.964-1.322a1.019,1.019,0,0,1,1.07,1.723A1.053,1.053,0,0,1,1603.408,1414.68Zm15.565-15.442a1.018,1.018,0,0,1-.361-1.394c.547-.929,1.061-1.893,1.527-2.865a1.018,1.018,0,0,1,1.837.881c-.491,1.023-1.032,2.038-1.608,3.017a1.017,1.017,0,0,1-1.394.361ZM1595,1417.757c-1.1.27-2.227.5-3.35.672a1.018,1.018,0,1,1-.316-2.012c1.066-.168,2.137-.382,3.181-.639a1.019,1.019,0,1,1,.485,1.979Zm-8.876,1.159c-1.135.023-2.284,0-3.416-.074a1.018,1.018,0,1,1,.129-2.033c1.075.068,2.167.092,3.246.071a1.018,1.018,0,0,1,.041,2.036Zm-8.918-.8c-1.114-.225-2.23-.5-3.318-.817a1.018,1.018,0,1,1,.569-1.956c1.034.3,2.095.562,3.153.776a1.019,1.019,0,0,1-.4,2Zm-8.531-2.729c-1.037-.463-2.067-.976-3.06-1.525a1.018,1.018,0,1,1,.985-1.783c.943.521,1.92,1.008,2.906,1.448a1.019,1.019,0,0,1-.831,1.86Zm-7.727-4.539c-.907-.679-1.8-1.405-2.647-2.16a1.019,1.019,0,0,1,1.353-1.523c.806.717,1.652,1.407,2.514,2.052a1.018,1.018,0,1,1-1.22,1.631Zm-6.535-6.119c-.544-.634-1.075-1.292-1.578-1.957q-.274-.361-.537-.726a1.007,1.007,0,0,1,.228-1.422,1.019,1.019,0,0,1,1.422.228q.251.347.511.69c.479.632.983,1.257,1.5,1.86a1.018,1.018,0,0,1-.11,1.436l-.049.04A1.019,1.019,0,0,1,1554.416,1404.728Z" transform="translate(-1548.506 -1387.787)" fill="#91b3fa"/>
      <path id="Trazado_144902" data-name="Trazado 144902" d="M1958.5,1359.515a1.016,1.016,0,0,0,.354-.5c.168-.525.329-1.064.477-1.6a1.019,1.019,0,1,0-1.964-.541c-.141.51-.293,1.022-.453,1.52a1.019,1.019,0,0,0,1.585,1.122Z" transform="translate(-1883.324 -1356.124)" fill="#91b3fa"/>
    </g>
    <g id="Grupo_83566" data-name="Grupo 83566" transform="translate(1077.211 814.363)">
      <path id="Trazado_144903" data-name="Trazado 144903" d="M1627,1150.591a.476.476,0,0,0-.3-.461l-5.405-2.086a25.235,25.235,0,0,0-2.85-7.664l2.723-5.11a.476.476,0,0,0-.072-.548l-4.733-5.089a.476.476,0,0,0-.541-.111l-5.294,2.345a25.229,25.229,0,0,0-7.437-3.4l-1.689-5.542a.476.476,0,0,0-.438-.337l-6.945-.252a.476.476,0,0,0-.461.3l-2.086,5.405a25.24,25.24,0,0,0-7.664,2.85l-5.11-2.723a.476.476,0,0,0-.548.071l-5.09,4.733a.476.476,0,0,0-.111.541l2.346,5.294a25.233,25.233,0,0,0-3.4,7.437l-5.542,1.689a.475.475,0,0,0-.337.438l-.252,6.945a.476.476,0,0,0,.3.461l5.406,2.087a25.233,25.233,0,0,0,2.85,7.664l-2.723,5.11a.476.476,0,0,0,.071.548l4.733,5.089a.476.476,0,0,0,.541.111l5.294-2.345a25.239,25.239,0,0,0,7.437,3.4l1.689,5.542a.476.476,0,0,0,.438.337l6.945.252a.477.477,0,0,0,.462-.3l2.086-5.405a25.238,25.238,0,0,0,7.664-2.85l5.11,2.723a.476.476,0,0,0,.548-.072l5.089-4.733a.476.476,0,0,0,.111-.541l-2.345-5.294a25.239,25.239,0,0,0,3.4-7.437l5.542-1.689a.476.476,0,0,0,.337-.438Z" transform="translate(-1565.762 -1122.335)" fill="#c3b5ec"/>
      <g id="Grupo_83565" data-name="Grupo 83565" transform="translate(23.632 23.636)">
        <path id="Trazado_144904" data-name="Trazado 144904" d="M1712.869,1272.227a6.981,6.981,0,1,1,.861-.558A6.994,6.994,0,0,1,1712.869,1272.227Zm-8.5-7.623a5.356,5.356,0,1,0,2.566-3.2,5.429,5.429,0,0,0-.667.432A5.316,5.316,0,0,0,1704.366,1264.6Z" transform="translate(-1702.519 -1259.118)" fill="#bdd0fb"/>
      </g>
      <path id="Trazado_144905" data-name="Trazado 144905" d="M1670.234,1230.965a17.484,17.484,0,0,0,1.352-1.135h0q.205-.19.4-.388a17.3,17.3,0,0,0,1.793-2.086l.022-.03.062-.086.119-.169a.408.408,0,0,0-.009-.479.413.413,0,0,0-.092-.088.408.408,0,0,0-.567.1,16.382,16.382,0,0,1-17.568,6.472,16.263,16.263,0,0,1-7.844-4.683,16.527,16.527,0,0,1-1.083-1.29,16.363,16.363,0,0,1,25.048-20.995,16.375,16.375,0,0,1,4.023,7.732.407.407,0,1,0,.8-.169,17.125,17.125,0,0,0-3.1-6.781,17.18,17.18,0,0,0-25.4-2.218,17.182,17.182,0,0,0-2.019,22.922,17.614,17.614,0,0,0,1.137,1.354,17.181,17.181,0,0,0,22.925,2.017Z" transform="translate(-1629.415 -1186.648)" fill="#bdd0fb"/>
    </g>
    <g id="Grupo_83568" data-name="Grupo 83568" transform="translate(1141.228 807.709)" opacity="0.3">
      <path id="Trazado_144906" data-name="Trazado 144906" d="M2190.768,1177.088a.629.629,0,0,0,.208-.725c-.189-.5-.4-1-.616-1.487a.629.629,0,1,0-1.147.516c.208.464.406.941.587,1.418a.628.628,0,0,0,.968.278Z" transform="translate(-2145.452 -1158.837)" fill="#91b3fa"/>
      <path id="Trazado_144907" data-name="Trazado 144907" d="M1979.37,1097.772a.629.629,0,0,1-.864-.211,26.18,26.18,0,0,0-1.485-2.182q-.167-.221-.341-.44a.63.63,0,0,1,.1-.884.651.651,0,0,1,.884.1q.181.229.356.461a27.34,27.34,0,0,1,1.557,2.288.629.629,0,0,1-.157.828C1979.406,1097.749,1979.389,1097.76,1979.37,1097.772Zm-4.821-5.214a26.122,26.122,0,0,0-2.4-2.1.629.629,0,0,1,.768-1,27.249,27.249,0,0,1,2.521,2.2.629.629,0,0,1-.884.895Zm-5.052-3.891a25.843,25.843,0,0,0-2.848-1.447.629.629,0,0,1,.5-1.155,27.118,27.118,0,0,1,2.987,1.518.629.629,0,0,1-.638,1.084Zm-5.854-2.531a25.988,25.988,0,0,0-3.115-.706.629.629,0,0,1,.2-1.242,27.29,27.29,0,0,1,3.267.74.629.629,0,0,1-.353,1.208Zm-6.294-1.026a26.19,26.19,0,0,0-3.193.072.629.629,0,1,1-.1-1.254,27.556,27.556,0,0,1,3.347-.075.629.629,0,0,1-.049,1.258Zm-6.352.533a25.821,25.821,0,0,0-3.076.848.629.629,0,0,1-.409-1.19,27.057,27.057,0,0,1,3.227-.889.629.629,0,0,1,.258,1.231Zm-6.027,2.07a25.836,25.836,0,0,0-2.776,1.579.629.629,0,0,1-.688-1.054,27.3,27.3,0,0,1,2.912-1.655.629.629,0,0,1,.553,1.13Zm-8.538,5.729a.629.629,0,0,1-.034-.889,27.361,27.361,0,0,1,2.088-2.026c.111-.1.222-.193.334-.288a.629.629,0,0,1,.811.963c-.106.089-.21.179-.316.272a26.091,26.091,0,0,0-1.994,1.934.629.629,0,0,1-.889.034Z" transform="translate(-1936.232 -1083.832)" fill="#91b3fa"/>
    </g>
    <g id="Grupo_83569" data-name="Grupo 83569" transform="translate(1148.987 841.318)" opacity="0.3">
      <path id="Trazado_144908" data-name="Trazado 144908" d="M2009.591,1315.355a27.481,27.481,0,0,1-2.764,1.79.629.629,0,0,1-.619-1.1,26.012,26.012,0,0,0,2.636-1.708.629.629,0,0,1,.753,1.008Zm1.641-2.138a.629.629,0,0,1,.027-.889,26.339,26.339,0,0,0,2.155-2.288.629.629,0,0,1,.966.807,27.577,27.577,0,0,1-2.259,2.4c-.017.016-.034.03-.052.044A.629.629,0,0,1,2011.232,1313.217Zm-7.368,5.37a27.3,27.3,0,0,1-3.116,1.069.629.629,0,0,1-.336-1.213,26.122,26.122,0,0,0,2.972-1.02.629.629,0,1,1,.479,1.163Zm11.6-10.208a.629.629,0,0,1-.187-.87,25.811,25.811,0,0,0,1.539-2.74.629.629,0,1,1,1.133.548,26.945,26.945,0,0,1-1.614,2.874.629.629,0,0,1-.87.188Zm-17.937,11.96a27.362,27.362,0,0,1-3.281.288.629.629,0,1,1-.034-1.258,25.872,25.872,0,0,0,3.129-.275.629.629,0,0,1,.186,1.245Zm-6.573.18a27.505,27.505,0,0,1-3.256-.5.629.629,0,1,1,.268-1.229,26.276,26.276,0,0,0,3.105.481.629.629,0,1,1-.117,1.253Zm-6.427-1.4a27.177,27.177,0,0,1-3.041-1.272.629.629,0,0,1,.555-1.129,25.714,25.714,0,0,0,2.9,1.212.629.629,0,0,1,.387.8.622.622,0,0,1-.214.294A.629.629,0,0,1,1984.527,1319.121Z" transform="translate(-1981.135 -1299.907)" fill="#91b3fa"/>
      <path id="Trazado_144909" data-name="Trazado 144909" d="M2195.4,1280.964a.626.626,0,0,0,.215-.3c.173-.51.333-1.027.473-1.537a.629.629,0,0,0-1.213-.334c-.134.486-.286.98-.451,1.466a.629.629,0,0,0,.976.7Z" transform="translate(-2157.539 -1278.332)" fill="#91b3fa"/>
    </g>
    <g id="Grupo_83571" data-name="Grupo 83571" transform="translate(1140.713 814.232)">
      <path id="Trazado_144910" data-name="Trazado 144910" d="M1974.232,1140.491a.319.319,0,0,0-.2-.309l-3.617-1.4a16.889,16.889,0,0,0-1.907-5.128l1.822-3.419a.318.318,0,0,0-.048-.367l-3.167-3.406a.318.318,0,0,0-.362-.074l-3.542,1.57a16.883,16.883,0,0,0-4.977-2.275l-1.13-3.709a.318.318,0,0,0-.293-.226l-4.647-.169a.319.319,0,0,0-.309.2l-1.4,3.617a16.885,16.885,0,0,0-5.129,1.907l-3.419-1.822a.318.318,0,0,0-.366.048l-3.406,3.167a.318.318,0,0,0-.074.362l1.569,3.543a16.882,16.882,0,0,0-2.274,4.977l-3.709,1.13a.319.319,0,0,0-.225.293l-.169,4.648a.319.319,0,0,0,.2.309l3.617,1.4a16.885,16.885,0,0,0,1.907,5.129l-1.822,3.419a.318.318,0,0,0,.048.367l3.167,3.406a.318.318,0,0,0,.362.074l3.542-1.569a16.9,16.9,0,0,0,4.977,2.275l1.13,3.708a.319.319,0,0,0,.293.226l4.647.169a.319.319,0,0,0,.309-.2l1.4-3.617a16.889,16.889,0,0,0,5.128-1.907l3.419,1.822a.318.318,0,0,0,.366-.048l3.406-3.167a.318.318,0,0,0,.074-.362l-1.569-3.542a16.891,16.891,0,0,0,2.274-4.977l3.709-1.13a.319.319,0,0,0,.226-.293Z" transform="translate(-1933.252 -1121.584)" fill="#c3b5ec"/>
      <g id="Grupo_83570" data-name="Grupo 83570" transform="translate(15.732 15.732)">
        <path id="Trazado_144911" data-name="Trazado 144911" d="M2031.342,1221.557a4.746,4.746,0,1,1,.592-.384A4.806,4.806,0,0,1,2031.342,1221.557Zm-5.358-2.488a3.5,3.5,0,0,0,4.753,1.385h0a3.5,3.5,0,0,0-3.367-6.138,3.592,3.592,0,0,0-.431.28A3.506,3.506,0,0,0,2025.984,1219.069Z" transform="translate(-2024.295 -1212.628)" fill="#c3b5ec"/>
      </g>
      <path id="Trazado_144912" data-name="Trazado 144912" d="M2001.678,1192.816a11.952,11.952,0,0,0,2.516-2.589l.062-.089a.629.629,0,0,0-.014-.74.64.64,0,0,0-.142-.137.63.63,0,0,0-.875.156,10.616,10.616,0,0,1-1.481,1.7h0l-.091.084a10.49,10.49,0,0,1-4.575,2.446,10.64,10.64,0,0,1-2.836.3h-.024l-.072,0a10.526,10.526,0,0,1-7.373-3.372,10.77,10.77,0,0,1-.7-.835,10.593,10.593,0,1,1,18.82-8.587.629.629,0,1,0,1.231-.261,11.852,11.852,0,1,0-21.055,9.606,12.156,12.156,0,0,0,.784.934A11.868,11.868,0,0,0,2001.678,1192.816Z" transform="translate(-1974.139 -1162.884)" fill="#c3b5ec"/>
    </g>
    <path id="Trazado_144913" data-name="Trazado 144913" d="M2141.833,2262.267l-6.148,42.427h71.328l-9.29-42.427Z" transform="translate(-959.991 -1250.922)" fill="#463c5f"/>
    <path id="Trazado_144914" data-name="Trazado 144914" d="M1477.871,1408.7V1534.98a19.157,19.157,0,0,0,18.663,19.151c46.124,1.189,207.444,4.073,251.351,3.426a14.1,14.1,0,0,0,13.877-13.694c.847-29.337,2.222-99.882-2.867-132.634a14.506,14.506,0,0,0-13.87-12.278c-38.646-1.236-209.656-5.162-253.542-4.176A13.924,13.924,0,0,0,1477.871,1408.7Z" transform="translate(-415.848 -533.203)" fill="#594e76"/>
    <path id="Trazado_144915" data-name="Trazado 144915" d="M1523.726,1431.57v119.976a11.1,11.1,0,0,0,10.933,11.1l244.84,3.025a10.8,10.8,0,0,0,10.964-10.761l.409-118.9a7.9,7.9,0,0,0-7.708-7.927l-250.671-5.064A8.56,8.56,0,0,0,1523.726,1431.57Z" transform="translate(-453.779 -556.689)" fill="#c4bbe0"/>
    <path id="Trazado_144916" data-name="Trazado 144916" d="M1790.681,2251.878h-.006l-268.58-4.576a.34.34,0,0,1-.334-.346.345.345,0,0,1,.345-.333l268.58,4.576a.34.34,0,0,1-.005.679Z" transform="translate(-452.153 -1237.982)" fill="#91b3fa"/>
    <path id="Trazado_144917" data-name="Trazado 144917" d="M2301.2,2279.374a3.134,3.134,0,1,1,3.134-3.134A3.138,3.138,0,0,1,2301.2,2279.374Zm0-5.589a2.455,2.455,0,1,0,2.455,2.455A2.458,2.458,0,0,0,2301.2,2273.785Z" transform="translate(-1094.311 -1259.889)" fill="#91b3fa"/>
    <path id="Trazado_144918" data-name="Trazado 144918" d="M2116.08,2499.09H2011.687c-2.836,0-4.966-2.019-4.417-4.188l1.34-5.3a4.318,4.318,0,0,1,4.237-2.828l100.639-3.14c2.175-.068,4.1,1.086,4.574,2.742l2.415,8.438C2121.1,2497.009,2118.962,2499.09,2116.08,2499.09Z" transform="translate(-853.693 -1434.037)" fill="#594e76"/>
    <path id="Trazado_144919" data-name="Trazado 144919" d="M2356.835,2506.572a.339.339,0,0,1,0-.679l4.313-.063a.348.348,0,0,1,.345.335.339.339,0,0,1-.334.344l-4.312.063Z" transform="translate(-1142.646 -1452.398)" fill="#91b3fa"/>
    <path id="Trazado_144920" data-name="Trazado 144920" d="M2028.422,2515.288a.34.34,0,0,1-.336-.393l.615-3.853a4.3,4.3,0,0,1,4.188-3.626l45.741-.669h.005a.339.339,0,0,1,0,.679l-45.74.669a3.619,3.619,0,0,0-3.528,3.053l-.615,3.853A.34.34,0,0,1,2028.422,2515.288Z" transform="translate(-870.982 -1453.156)" fill="#91b3fa"/>
    <g id="Grupo_83575" data-name="Grupo 83575" transform="translate(1205.874 883.266)" opacity="0.53">
      <rect id="Rectángulo_31409" data-name="Rectángulo 31409" width="6.44" height="113.585" fill="#fff"/>
      <rect id="Rectángulo_31410" data-name="Rectángulo 31410" width="6.44" height="113.585" transform="translate(10.76)" fill="#fff"/>
      <rect id="Rectángulo_31411" data-name="Rectángulo 31411" width="6.44" height="113.585" transform="translate(21.52)" fill="#fff"/>
      <rect id="Rectángulo_31412" data-name="Rectángulo 31412" width="6.44" height="113.585" transform="translate(32.281)" fill="#fff"/>
      <rect id="Rectángulo_31413" data-name="Rectángulo 31413" width="6.44" height="113.585" transform="translate(43.041)" fill="#fff"/>
      <rect id="Rectángulo_31414" data-name="Rectángulo 31414" width="6.44" height="113.585" transform="translate(53.801)" fill="#fff"/>
      <rect id="Rectángulo_31415" data-name="Rectángulo 31415" width="6.44" height="113.585" transform="translate(64.561)" fill="#fff"/>
    </g>
    <rect id="Rectángulo_31416" data-name="Rectángulo 31416" width="6.44" height="59.444" transform="translate(1205.874 937.408)" fill="#675d84"/>
    <rect id="Rectángulo_31417" data-name="Rectángulo 31417" width="6.44" height="39.014" transform="translate(1216.634 957.838)" fill="#675d84"/>
    <rect id="Rectángulo_31418" data-name="Rectángulo 31418" width="6.44" height="89.505" transform="translate(1227.395 907.346)" fill="#675d84"/>
    <rect id="Rectángulo_31419" data-name="Rectángulo 31419" width="6.44" height="21.502" transform="translate(1238.154 975.348)" fill="#675d84"/>
    <rect id="Rectángulo_31420" data-name="Rectángulo 31420" width="6.44" height="77.538" transform="translate(1248.915 919.313)" fill="#675d84"/>
    <rect id="Rectángulo_31421" data-name="Rectángulo 31421" width="6.44" height="64.113" transform="translate(1259.675 932.738)" fill="#675d84"/>
    <rect id="Rectángulo_31422" data-name="Rectángulo 31422" width="6.44" height="49.52" transform="translate(1270.436 947.33)" fill="#675d84"/>
    <g id="Grupo_83579" data-name="Grupo 83579" transform="translate(1084.02 878.076)">
      <g id="Grupo_83578" data-name="Grupo 83578">
        <path id="Trazado_144921" data-name="Trazado 144921" d="M1620.81,1491.042a15.644,15.644,0,1,0,15.644,15.644A15.645,15.645,0,0,0,1620.81,1491.042Zm0,24.557a8.913,8.913,0,1,1,8.913-8.913A8.913,8.913,0,0,1,1620.81,1515.6Z" transform="translate(-1605.165 -1491.042)" fill="#fff" opacity="0.57"/>
        <g id="Grupo_83577" data-name="Grupo 83577" clip-path="url(#clip-path)">
          <rect id="Rectángulo_31423" data-name="Rectángulo 31423" width="46.471" height="19.666" transform="translate(-6.203 12.204)" fill="#ff7758"/>
        </g>
      </g>
    </g>
    <g id="Grupo_83582" data-name="Grupo 83582" transform="translate(1122.156 878.076)">
      <g id="Grupo_83581" data-name="Grupo 83581">
        <path id="Trazado_144923" data-name="Trazado 144923" d="M1841.506,1491.042a15.644,15.644,0,1,0,15.645,15.644A15.644,15.644,0,0,0,1841.506,1491.042Zm0,24.557a8.913,8.913,0,1,1,8.913-8.913A8.913,8.913,0,0,1,1841.506,1515.6Z" transform="translate(-1825.862 -1491.042)" fill="#fff" opacity="0.57"/>
        <g id="Grupo_83580" data-name="Grupo 83580" clip-path="url(#clip-path-2)">
          <rect id="Rectángulo_31424" data-name="Rectángulo 31424" width="46.471" height="27.268" transform="translate(-6.203 4.602)" fill="#ff7758"/>
        </g>
      </g>
    </g>
    <g id="Grupo_83585" data-name="Grupo 83585" transform="translate(1160.293 878.076)">
      <g id="Grupo_83584" data-name="Grupo 83584">
        <path id="Trazado_144925" data-name="Trazado 144925" d="M2062.2,1491.042a15.644,15.644,0,1,0,15.644,15.644A15.644,15.644,0,0,0,2062.2,1491.042Zm0,24.557a8.913,8.913,0,1,1,8.913-8.913A8.913,8.913,0,0,1,2062.2,1515.6Z" transform="translate(-2046.559 -1491.042)" fill="#fff" opacity="0.57"/>
        <g id="Grupo_83583" data-name="Grupo 83583" clip-path="url(#clip-path-3)">
          <rect id="Rectángulo_31425" data-name="Rectángulo 31425" width="46.471" height="9.833" transform="translate(-6.203 22.037)" fill="url(#linear-gradient-43)"/>
        </g>
      </g>
    </g>
    <path id="Trazado_144927" data-name="Trazado 144927" d="M1709.1,1897.1l-100.354-.754a3.6,3.6,0,0,1-3.577-3.6v-51.56a3.6,3.6,0,0,1,3.6-3.6h100.354a3.6,3.6,0,0,1,3.6,3.6V1893.5A3.6,3.6,0,0,1,1709.1,1897.1Z" transform="translate(-521.146 -899.623)" fill="#ffd69f" opacity="0.44"/>
    <path id="Trazado_144928" data-name="Trazado 144928" d="M1711.534,1906.988l-12.9-13.643-18.5,20.125-13.056-14.087-12.245,13.842-9.39-11.408-18.506,19.266v13.932a3.352,3.352,0,0,0,3.327,3.352l93.336.7a3.352,3.352,0,0,0,3.377-3.352v-37.9Z" transform="translate(-539.149 -945.75)" fill="#fff" opacity="0.44"/>
    <rect id="Rectángulo_31426" data-name="Rectángulo 31426" width="0.34" height="32.459" transform="translate(1172.463 960.859)" fill="#fff"/>
    <rect id="Rectángulo_31427" data-name="Rectángulo 31427" width="0.34" height="45.536" transform="translate(1159.311 947.596)" fill="#fff"/>
    <rect id="Rectángulo_31428" data-name="Rectángulo 31428" width="0.34" height="25.517" transform="translate(1140.807 967.475)" fill="#fff"/>
    <rect id="Rectángulo_31429" data-name="Rectángulo 31429" width="0.34" height="38.86" transform="translate(1128.098 954.131)" fill="#fff"/>
    <rect id="Rectángulo_31430" data-name="Rectángulo 31430" width="0.34" height="25.931" transform="translate(1115.506 967.061)" fill="#fff"/>
    <rect id="Rectángulo_31431" data-name="Rectángulo 31431" width="0.339" height="37.644" transform="translate(1106.315 955.1)" fill="#fff"/>
    <circle id="Elipse_4323" data-name="Elipse 4323" cx="2.836" cy="2.836" r="2.836" transform="translate(1102.78 956.633) rotate(-67.5)" fill="url(#linear-gradient-44)"/>
    <path id="Trazado_144929" data-name="Trazado 144929" d="M1781.288,1997.053a1.868,1.868,0,1,1-1.868-1.868A1.868,1.868,0,0,1,1781.288,1997.053Z" transform="translate(-663.744 -1029.992)" fill="url(#linear-gradient-45)"/>
    <path id="Trazado_144930" data-name="Trazado 144930" d="M1854.156,1922.23a1.868,1.868,0,1,1-1.868-1.868A1.868,1.868,0,0,1,1854.156,1922.23Z" transform="translate(-724.021 -968.1)" fill="url(#linear-gradient-44)"/>
    <path id="Trazado_144931" data-name="Trazado 144931" d="M1927.7,1999.446a1.868,1.868,0,1,1-1.868-1.868A1.868,1.868,0,0,1,1927.7,1999.446Z" transform="translate(-784.86 -1031.971)" fill="url(#linear-gradient-44)"/>
    <path id="Trazado_144932" data-name="Trazado 144932" d="M2034.783,1884.4a1.868,1.868,0,1,1-1.868-1.868A1.868,1.868,0,0,1,2034.783,1884.4Z" transform="translate(-873.435 -936.809)" fill="url(#linear-gradient-44)"/>
    <path id="Trazado_144933" data-name="Trazado 144933" d="M2110.9,1961.163a1.868,1.868,0,1,1-1.868-1.868A1.868,1.868,0,0,1,2110.9,1961.163Z" transform="translate(-936.398 -1000.305)" fill="url(#linear-gradient-49)"/>
    <path id="Trazado_144934" data-name="Trazado 144934" d="M1631.309,1787.906H1603.8c-1.151,0-2.084.649-2.084,1.451s.933,1.451,2.084,1.451h27.51c1.151,0,2.084-.65,2.084-1.451S1632.46,1787.906,1631.309,1787.906Z" transform="translate(-518.292 -858.531)" fill="#fff"/>
    <path id="Trazado_144935" data-name="Trazado 144935" d="M1631.309,1750.722H1603.8c-1.151,0-2.084.65-2.084,1.451s.933,1.451,2.084,1.451h27.51c1.151,0,2.084-.649,2.084-1.451S1632.46,1750.722,1631.309,1750.722Z" transform="translate(-518.292 -827.773)" fill="#fff"/>
    <path id="Trazado_144936" data-name="Trazado 144936" d="M1631.309,1713.539H1603.8c-1.151,0-2.084.65-2.084,1.451s.933,1.451,2.084,1.451h27.51c1.151,0,2.084-.65,2.084-1.451S1632.46,1713.539,1631.309,1713.539Z" transform="translate(-518.292 -797.016)" fill="#fff"/>
    <path id="Trazado_144937" data-name="Trazado 144937" d="M1852.607,1787.906H1825.1c-1.151,0-2.084.649-2.084,1.451s.933,1.451,2.084,1.451h27.51c1.151,0,2.084-.65,2.084-1.451S1853.758,1787.906,1852.607,1787.906Z" transform="translate(-701.35 -858.531)" fill="#fff"/>
    <path id="Trazado_144938" data-name="Trazado 144938" d="M1852.607,1750.722H1825.1c-1.151,0-2.084.65-2.084,1.451s.933,1.451,2.084,1.451h27.51c1.151,0,2.084-.649,2.084-1.451S1853.758,1750.722,1852.607,1750.722Z" transform="translate(-701.35 -827.773)" fill="#fff"/>
    <path id="Trazado_144939" data-name="Trazado 144939" d="M1852.607,1713.539H1825.1c-1.151,0-2.084.65-2.084,1.451s.933,1.451,2.084,1.451h27.51c1.151,0,2.084-.65,2.084-1.451S1853.758,1713.539,1852.607,1713.539Z" transform="translate(-701.35 -797.016)" fill="#fff"/>
    <path id="Trazado_144940" data-name="Trazado 144940" d="M2073.905,1787.906H2046.4c-1.151,0-2.084.649-2.084,1.451s.933,1.451,2.084,1.451h27.509c1.151,0,2.084-.65,2.084-1.451S2075.056,1787.906,2073.905,1787.906Z" transform="translate(-884.408 -858.531)" fill="#fff"/>
    <path id="Trazado_144941" data-name="Trazado 144941" d="M2073.905,1750.722H2046.4c-1.151,0-2.084.65-2.084,1.451s.933,1.451,2.084,1.451h27.509c1.151,0,2.084-.649,2.084-1.451S2075.056,1750.722,2073.905,1750.722Z" transform="translate(-884.408 -827.773)" fill="#fff"/>
    <path id="Trazado_144942" data-name="Trazado 144942" d="M2073.905,1713.539H2046.4c-1.151,0-2.084.65-2.084,1.451s.933,1.451,2.084,1.451h27.509c1.151,0,2.084-.65,2.084-1.451S2075.056,1713.539,2073.905,1713.539Z" transform="translate(-884.408 -797.016)" fill="#fff"/>
    <g id="Grupo_83591" data-name="Grupo 83591" transform="translate(1292.395 921.916)">
      <circle id="Elipse_4324" data-name="Elipse 4324" cx="12.729" cy="12.729" r="12.729" transform="translate(0 25.409) rotate(-86.437)" fill="#5f4d90"/>
      <path id="Trazado_144943" data-name="Trazado 144943" d="M2847.642,1773.1a8.177,8.177,0,1,1-7.563-5.069c.138,0,.275,0,.412.01v-2.073c-.137-.005-.274-.009-.412-.009a10.24,10.24,0,1,0,9.465,6.314Z" transform="translate(-2826.583 -1762.294)" fill="#5f4d90"/>
      <path id="Trazado_144944" data-name="Trazado 144944" d="M2839.095,1927.716h-20.743a2.358,2.358,0,0,0,0,4.715h20.743a2.358,2.358,0,0,0,0-4.715Z" transform="translate(-2815.137 -1896.099)" fill="#5f4d90" opacity="0.5"/>
    </g>
    <g id="Grupo_83592" data-name="Grupo 83592" transform="translate(1287.834 876.498)">
      <path id="Trazado_144969" data-name="Trazado 144969" d="M12.729,0A12.729,12.729,0,1,1,0,12.729,12.729,12.729,0,0,1,12.729,0Z" transform="translate(0 18.002) rotate(-45)" fill="#ffba5b"/>
      <path id="Trazado_144945" data-name="Trazado 144945" d="M2843.948,1546.363a8.176,8.176,0,1,1-4.356-15.094c.138,0,.276,0,.413.011v-2.073c-.137-.005-.274-.009-.413-.009a10.247,10.247,0,1,0,5.384,18.967Z" transform="translate(-2821.619 -1521.027)" fill="#5f4d90"/>
      <path id="Trazado_144946" data-name="Trazado 144946" d="M2839.412,1690.956h-20.743a2.357,2.357,0,0,0,0,4.715h20.743a2.357,2.357,0,1,0,0-4.715Z" transform="translate(-2810.838 -1654.833)" fill="#fff" opacity="0.5"/>
    </g>
    <g id="Grupo_83593" data-name="Grupo 83593" transform="translate(1292.44 963.037)">
      <circle id="Elipse_4326" data-name="Elipse 4326" cx="12.729" cy="12.729" r="12.729" transform="translate(0 25.409) rotate(-86.437)" fill="#fff" opacity="0.91"/>
      <path id="Trazado_144947" data-name="Trazado 144947" d="M2848.09,2016.357a8.176,8.176,0,1,1-6.761-12.773c.138,0,.276,0,.412.01v-2.073c-.137-.005-.274-.009-.412-.009a10.247,10.247,0,1,0,8.44,16.06Z" transform="translate(-2827.663 -1998.265)" fill="url(#linear-gradient-50)"/>
      <path id="Trazado_144948" data-name="Trazado 144948" d="M2818.089,2167.986h20.743a2.358,2.358,0,0,0,0-4.715h-20.743a2.358,2.358,0,0,0,0,4.715Z" transform="translate(-2814.966 -2132.071)" fill="#fff" opacity="0.5"/>
    </g>
    <path id="Trazado_144949" data-name="Trazado 144949" d="M2829.2,2592.008s.549,3.11.819,6.189a2.121,2.121,0,0,1-2.029,2.3c-4.1.171-12.869.5-16.016.362a.69.69,0,0,1-.607-.945,1.546,1.546,0,0,1,.79-.833l14.485-6.657Z" transform="translate(-1518.873 -1523.686)" fill="url(#linear-gradient-51)"/>
    <path id="Trazado_144950" data-name="Trazado 144950" d="M2894.856,2578.683l-.441,3.72s-2.538,1.181-4.271-.149l1.051-4.146Z" transform="translate(-1584.079 -1512.188)" fill="url(#linear-gradient-52)"/>
    <path id="Trazado_144951" data-name="Trazado 144951" d="M2895.984,2176.7c.191.971,1.024,48.478-4.054,69.766a.723.723,0,0,0,.424.841,12.571,12.571,0,0,0,4.135.84,1.245,1.245,0,0,0,1.234-.893c1.452-4.939,8.407-29.687,9.315-53.328,1.014-26.416,0-.9,0-.9l-.595-16.329Z" transform="translate(-1585.54 -1180.141)" fill="#5f4d90"/>
    <path id="Trazado_144952" data-name="Trazado 144952" d="M2983.417,2601.4a22.385,22.385,0,0,1,1.721,5.742,1.294,1.294,0,0,1-1.139,1.55c-1.354.133-3.438.3-5.107.293a1.291,1.291,0,0,1-1.278-1.439,10.884,10.884,0,0,1,2.541-5.969Z" transform="translate(-1656.428 -1531.451)" fill="url(#linear-gradient-53)"/>
    <path id="Trazado_144953" data-name="Trazado 144953" d="M2996.207,2572.662l-1.031,5.625a3.636,3.636,0,0,1-3.037.209l.492-6.053Z" transform="translate(-1668.449 -1507.502)" fill="url(#linear-gradient-54)"/>
    <path id="Trazado_144954" data-name="Trazado 144954" d="M2933.579,2172.559c4.153,25.064-.9,61.949-2.605,69.168a1.126,1.126,0,0,1-.909.855,7.564,7.564,0,0,1-3.249-.13,1.032,1.032,0,0,1-.742-.95c-.229-5.836.183-41.667-3.687-55.827a3.218,3.218,0,0,0-1.241-1.775l-7.511-5.34-.576-8.631Z" transform="translate(-1603.035 -1174.543)" fill="#5f4d90"/>
    <path id="Trazado_144955" data-name="Trazado 144955" d="M2792.649,1900.566c12.447-.206,26.179,3.268,26.179,3.268,3.71,21.647.649,46.616.649,46.616-9.635,2.527-20.5-1.545-20.5-1.545-1.6-9.048-9.074-34.512-9.074-34.512a41,41,0,0,1-15.216-4.829,26.681,26.681,0,0,0,5.275-11.032A41.756,41.756,0,0,0,2792.649,1900.566Z" transform="translate(-1488.569 -950.041)" fill="#ffba5b"/>
    <path id="Trazado_144956" data-name="Trazado 144956" d="M2665.9,1799.7a2.381,2.381,0,0,1,2.77-.778c1.832,7.737,11.436,14.01,21.3,17.076a26.683,26.683,0,0,1-5.275,11.032C2668.326,1817.823,2665.9,1799.7,2665.9,1799.7Z" transform="translate(-1398.588 -867.508)" fill="url(#linear-gradient-55)"/>
    <path id="Trazado_144957" data-name="Trazado 144957" d="M2640.8,1742.748c-.128.407,1.354,1.026,2.226-.637.031-.8.515-4.213.039-4.862a63.593,63.593,0,0,0-7.456-7.795,1.17,1.17,0,0,0-.146,1.626l2.386,2.486a11.567,11.567,0,0,0-1.394,2.754,3.346,3.346,0,0,0,.334,2.461c.419.754.99,1.735,1.531,2.5A3.3,3.3,0,0,0,2640.8,1742.748Z" transform="translate(-1373.188 -810.18)" fill="url(#linear-gradient-56)"/>
    <path id="Trazado_144958" data-name="Trazado 144958" d="M2654.279,1762.583l2.175,1.844.683,1.835-1.939,2.151a25.025,25.025,0,0,0-1.136-4.43C2653.576,1763.194,2653.828,1762.814,2654.279,1762.583Z" transform="translate(-1388.574 -837.584)" fill="url(#linear-gradient-57)"/>
    <path id="Trazado_144959" data-name="Trazado 144959" d="M3002.53,1941.27l4.774-12.052s11.625,7.9,13.537,17.914a27.508,27.508,0,0,0-10.106,2.708C3009.875,1945.112,3002.53,1941.27,3002.53,1941.27Z" transform="translate(-1677.045 -975.426)" fill="#ffba5b"/>
    <path id="Trazado_144960" data-name="Trazado 144960" d="M2935.469,2038.365s13.052,7.377,17.457,1.078a4.951,4.951,0,0,0,.907-3.847,27.514,27.514,0,0,1,10.106-2.709,13.825,13.825,0,0,1-1.5,9.476c-7.714,14.112-28.7-.78-28.7-.78Z" transform="translate(-1620.144 -1061.18)" fill="url(#linear-gradient-58)"/>
    <path id="Trazado_144961" data-name="Trazado 144961" d="M2796.721,1989.61l-7.124-24.877a.726.726,0,0,0-.614-.522c-1.291-.151-5.031-.573-9.349-.939a106.1,106.1,0,0,0-14.851-.493.728.728,0,0,0-.595,1.048c2.052,4.153,10.5,21.044,14.723,26.577a.729.729,0,0,0,.587.288l16.528-.154A.728.728,0,0,0,2796.721,1989.61Z" transform="translate(-1479.827 -1003.094)" fill="#b17728"/>
    <path id="Trazado_144962" data-name="Trazado 144962" d="M2822.871,1949.548l-5.165-.861a.371.371,0,0,0-.413.482l.511,1.549a.37.37,0,0,0,.3.251l4.97.664a.371.371,0,0,0,.41-.452l-.316-1.353A.37.37,0,0,0,2822.871,1949.548Z" transform="translate(-1523.803 -991.525)" fill="#ddd4f8"/>
    <path id="Trazado_144963" data-name="Trazado 144963" d="M2815.208,1961.329l-.425-2.216a.514.514,0,0,0-.452-.413l-10.431-1.058a.512.512,0,0,0-.55.629l.663,2.762a.512.512,0,0,0,.472.392l10.194.513A.512.512,0,0,0,2815.208,1961.329Z" transform="translate(-1512.271 -998.934)" fill="#c3b5ec"/>
    <path id="Trazado_144964" data-name="Trazado 144964" d="M2900.712,2043.207s.992-4.08.592-5.528-1.176-3.309-3.761-2.9a37.844,37.844,0,0,0-5.635,1.5,1.479,1.479,0,0,0,2.119,1.277l-1.218.943s.174,1.51,1.833.7l-1.133,1.25a1.32,1.32,0,0,0,1.934.445C2896.665,2040.109,2897.25,2043.7,2900.712,2043.207Z" transform="translate(-1585.54 -1062.701)" fill="url(#linear-gradient-59)"/>
    <path id="Trazado_144965" data-name="Trazado 144965" d="M2913.027,1851.831l3.96,11.453a.412.412,0,0,1-.188.5,9.309,9.309,0,0,1-9.656-.65,1.943,1.943,0,0,1-.895-1.388l-1.282-9.912Z" transform="translate(-1596.34 -911.41)" fill="url(#linear-gradient-60)"/>
    <path id="Trazado_144966" data-name="Trazado 144966" d="M2881.921,1779.915c-.119.166-3.841,13.137-3.841,13.137l7.452,1.968,5.354-11.771S2883.917,1777.142,2881.921,1779.915Z" transform="translate(-1574.101 -851.324)" fill="url(#linear-gradient-61)"/>
    <path id="Trazado_144967" data-name="Trazado 144967" d="M2882.007,1759.909a1.109,1.109,0,0,1,.1.97l-2.3,6.324a1.079,1.079,0,0,1-.141.268c-.332.455-1.5,1.819-2.863.535a9.765,9.765,0,0,0-3.248-2.382,1.107,1.107,0,0,0-1.373.767,41.276,41.276,0,0,0-1.255,5.968,1.1,1.1,0,0,0,.887,1.2,30.7,30.7,0,0,0,6.9.638,1.107,1.107,0,0,0,.943-.636c.765-1.628,2.926-6.183,3.734-7.375.75-1.107,2.535-1.091,3.352-1.019a1.114,1.114,0,0,0,.846-.282,2.439,2.439,0,0,0,.195-3.819,1.109,1.109,0,0,1,.05-1.543,2.449,2.449,0,0,0,.26-3.59,3.452,3.452,0,0,0-4.019-1.085,1.15,1.15,0,0,1-1.312-.429.731.731,0,0,0-.646-.333,1.075,1.075,0,0,1-1.094-1.073,2.835,2.835,0,0,0-2.173-2.888c-3.254-1.046-5.318,2.087-5.542,4.437s3.368,3.284,5.487,3.145C2880.35,1757.612,2881.5,1759.108,2882.007,1759.909Z" transform="translate(-1568.182 -827.113)" fill="#463c5f"/>
    <path id="Trazado_144968" data-name="Trazado 144968" d="M2938.015,1837.055s.565-4.079,2.266-4.263,3.341,1.227,1.631,3.5C2939.784,1839.127,2938.015,1837.055,2938.015,1837.055Z" transform="translate(-1623.679 -895.648)" fill="url(#linear-gradient-62)"/>
  </g>
</svg>
