<svg xmlns="http://www.w3.org/2000/svg" xmlns:xlink="http://www.w3.org/1999/xlink" width="474" height="297.854" viewBox="0 0 474 297.854">
  <defs>
    <linearGradient id="linear-gradient" x1="0.001" y1="1.782" x2="0.354" y2="0.93" gradientUnits="objectBoundingBox">
      <stop offset="0" stop-color="#fe7062"/>
      <stop offset="1" stop-color="#ff928e"/>
    </linearGradient>
    <linearGradient id="linear-gradient-2" x1="203.7" y1="-358.757" x2="203.484" y2="-373.24" gradientUnits="objectBoundingBox">
      <stop offset="0" stop-color="#09005d"/>
      <stop offset="1" stop-color="#1a0f91"/>
    </linearGradient>
    <linearGradient id="linear-gradient-3" x1="210.661" y1="-82.744" x2="210.821" y2="-79.713" xlink:href="#linear-gradient-2"/>
    <linearGradient id="linear-gradient-4" x1="738.519" y1="0.5" x2="739.519" y2="0.5" gradientUnits="objectBoundingBox">
      <stop offset="0" stop-color="#ff928e"/>
      <stop offset="1" stop-color="#feb3b1"/>
    </linearGradient>
    <linearGradient id="linear-gradient-5" x1="518.894" y1="-245.341" x2="518.33" y2="-255.358" xlink:href="#linear-gradient-2"/>
    <linearGradient id="linear-gradient-6" x1="355.92" y1="-49.534" x2="356.197" y2="-47.69" xlink:href="#linear-gradient-2"/>
    <linearGradient id="linear-gradient-7" x1="607.476" y1="0.5" x2="608.476" y2="0.5" xlink:href="#linear-gradient-4"/>
    <linearGradient id="linear-gradient-8" x1="412.766" y1="0.1" x2="410.378" y2="1.142" xlink:href="#linear-gradient-4"/>
    <linearGradient id="linear-gradient-9" x1="225.361" y1="0.5" x2="226.361" y2="0.5" xlink:href="#linear-gradient-4"/>
    <linearGradient id="linear-gradient-10" x1="300.534" y1="-0.004" x2="300.519" y2="1.888" xlink:href="#linear-gradient-4"/>
    <linearGradient id="linear-gradient-11" x1="294.037" y1="-1.222" x2="292.344" y2="3.819" xlink:href="#linear-gradient-4"/>
    <linearGradient id="linear-gradient-12" x1="632.515" y1="0.5" x2="633.515" y2="0.5" xlink:href="#linear-gradient-4"/>
    <linearGradient id="linear-gradient-13" x1="192.993" y1="76.236" x2="193.583" y2="74.758" xlink:href="#linear-gradient-4"/>
    <linearGradient id="linear-gradient-14" x1="785.414" y1="247.131" x2="787.826" y2="242.308" xlink:href="#linear-gradient-4"/>
    <linearGradient id="linear-gradient-15" x1="5.543" y1="0.452" x2="7.151" y2="-0.618" xlink:href="#linear-gradient-4"/>
    <linearGradient id="linear-gradient-16" x1="6.39" y1="-0.089" x2="3.216" y2="0.249" xlink:href="#linear-gradient-4"/>
    <linearGradient id="linear-gradient-17" x1="7.386" y1="0.5" x2="8.386" y2="0.5" xlink:href="#linear-gradient-4"/>
    <linearGradient id="linear-gradient-18" x1="-32.831" y1="-5.044" x2="-32.884" y2="-1.437" xlink:href="#linear-gradient-2"/>
    <linearGradient id="linear-gradient-19" x1="-77.151" y1="-25.214" x2="-77.211" y2="-22.501" xlink:href="#linear-gradient-2"/>
    <linearGradient id="linear-gradient-20" x1="10.399" y1="0.5" x2="11.399" y2="0.5" xlink:href="#linear-gradient-4"/>
    <linearGradient id="linear-gradient-21" x1="3.278" y1="0.075" x2="3.014" y2="0.742" xlink:href="#linear-gradient-4"/>
    <linearGradient id="linear-gradient-22" x1="10.064" y1="-0.506" x2="9.142" y2="2.265" xlink:href="#linear-gradient-4"/>
    <linearGradient id="linear-gradient-23" x1="9.137" y1="1.075" x2="7.641" y2="-0.515" xlink:href="#linear-gradient-4"/>
  </defs>
  <g id="Grupo_83538" data-name="Grupo 83538" transform="translate(821 -128.488)">
    <path id="Trazado_144588" data-name="Trazado 144588" d="M-357.942,187.8c-11.952-23.782-38.195-41.666-63.738-36.179-15.294,3.285-30.495,14.307-45.159,8.774-10.57-3.988-16.536-15.3-25.421-22.395-13.675-10.922-33.086-10.8-49.752-5.9S-573.932,146-590.4,151.56a124.758,124.758,0,0,1-86.789-2.853c-12.033-4.963-23.3-11.812-35.546-16.181s-26.143-6.066-37.967-.6-20.309,19.757-16.2,32.369c.818,2.515,2.1,4.993,1.934,7.638-.269,4.242-4.266,7.349-8.31,8.293s-8.258.327-12.4.435c-18.6.484-35.229,17.881-35.318,36.957-.073,15.819,9.445,29.72,17.582,43.162s15.45,29.57,10.6,44.589c-2.874,8.906-9.617,15.873-14.034,24.088-11.452,21.3-5.331,49.493,10.661,67.457s39.941,26.755,63.577,28.847,47.341-1.836,70.761-5.719,47.143-7.745,70.768-5.52l-1.27-.707a376.243,376.243,0,0,0,141.585,8.23c9.871-1.311,21.2-4.132,25.373-13.4,3.522-7.821.36-16.988,1.085-25.57,1.044-12.367,10.1-22.5,19.969-29.688s21.07-12.542,29.964-20.966c17.4-16.481,23.3-41.992,25.9-66.129C-345.622,239.7-345.99,211.586-357.942,187.8Z" fill="#ffe9cb"/>
    <g id="Grupo_83511" data-name="Grupo 83511" transform="translate(-541.792 172.819)">
      <path id="Trazado_144589" data-name="Trazado 144589" d="M644.989,587.4H495.777a9.922,9.922,0,0,1-9.921-9.854l-1.529-226.315a9.921,9.921,0,0,1,9.559-9.982l150.741-5.5a9.921,9.921,0,0,1,10.283,9.915V577.48A9.921,9.921,0,0,1,644.989,587.4Z" transform="translate(-484.327 -335.742)" fill="#594e76"/>
      <rect id="Rectángulo_31400" data-name="Rectángulo 31400" width="139.093" height="225.455" rx="17.06" transform="translate(14.882 18.316)" fill="#c4bbe0"/>
      <path id="Trazado_144590" data-name="Trazado 144590" d="M817.752,373.745H794.558a1.9,1.9,0,0,1-1.9-1.9h0a1.9,1.9,0,0,1,1.839-1.9l23.194-.714a1.9,1.9,0,0,1,1.956,1.9v.714A1.9,1.9,0,0,1,817.752,373.745Z" transform="translate(-726.709 -362.072)" fill="#463c5f"/>
      <rect id="Rectángulo_31401" data-name="Rectángulo 31401" width="50.841" height="41.52" rx="8.75" transform="translate(29.414 32.848)" fill="#f2edff"/>
      <rect id="Rectángulo_31402" data-name="Rectángulo 31402" width="50.841" height="41.52" rx="8.75" transform="translate(90.886 32.848)" fill="#f2edff"/>
      <rect id="Rectángulo_31403" data-name="Rectángulo 31403" width="50.841" height="41.52" rx="8.75" transform="translate(29.414 81.841)" fill="#f2edff"/>
      <rect id="Rectángulo_31404" data-name="Rectángulo 31404" width="50.841" height="41.52" rx="8.75" transform="translate(90.886 81.841)" fill="#f2edff"/>
      <path id="Trazado_144591" data-name="Trazado 144591" d="M724.314,987.469H617.607a3.529,3.529,0,0,1-3.529-3.529h0a3.529,3.529,0,0,1,3.529-3.529H724.314a3.529,3.529,0,0,1,3.529,3.529h0A3.529,3.529,0,0,1,724.314,987.469Z" transform="translate(-586.324 -842.517)" fill="#f2edff"/>
      <path id="Trazado_144592" data-name="Trazado 144592" d="M724.314,1034.057H617.607a3.529,3.529,0,0,1-3.529-3.529h0a3.529,3.529,0,0,1,3.529-3.529H724.314a3.529,3.529,0,0,1,3.529,3.529h0A3.529,3.529,0,0,1,724.314,1034.057Z" transform="translate(-586.324 -879.139)" fill="#f2edff"/>
      <path id="Trazado_144593" data-name="Trazado 144593" d="M724.314,1080.643H617.607a3.529,3.529,0,0,1-3.529-3.529h0a3.529,3.529,0,0,1,3.529-3.529H724.314a3.529,3.529,0,0,1,3.529,3.529h0A3.529,3.529,0,0,1,724.314,1080.643Z" transform="translate(-586.324 -915.761)" fill="#f2edff"/>
      <rect id="Rectángulo_31405" data-name="Rectángulo 31405" width="76.19" height="4.398" transform="translate(65.329 175.677)" fill="#f2edff"/>
      <rect id="Rectángulo_31406" data-name="Rectángulo 31406" width="76.19" height="4.398" transform="translate(65.329 181.886)" fill="#f2edff"/>
      <rect id="Rectángulo_31407" data-name="Rectángulo 31407" width="76.19" height="4.398" transform="translate(65.329 188.095)" fill="#f2edff"/>
      <path id="Trazado_144594" data-name="Trazado 144594" d="M1083.609,455.251a.415.415,0,0,1-.415-.415V373.08a7.077,7.077,0,0,0-7.477-7.066l-36.1,2.043a.415.415,0,0,1-.047-.829l36.1-2.043a7.907,7.907,0,0,1,8.354,7.895v81.755A.415.415,0,0,1,1083.609,455.251Z" transform="translate(-920.5 -358.877)" fill="#f2edff"/>
    </g>
    <path id="Trazado_144595" data-name="Trazado 144595" d="M404.4,302.494s-22.006-56.883-18.684-84.7,22.421-48.163,35.707-28.649S399.83,270.939,404.4,302.494Z" transform="translate(-948.33 -41.606)" fill="#ddd4f8"/>
    <path id="Trazado_144596" data-name="Trazado 144596" d="M206.669,300.437c-7.46,3.3-20.345,23.251,4.982,43.6s34.462,30.31,39.86,46.918,4.982-20.76,0-35.707S228.259,290.887,206.669,300.437Z" transform="translate(-800.011 -134.214)" fill="#c3b5ec"/>
    <g id="Grupo_83512" data-name="Grupo 83512" transform="translate(-794.521 203.375)">
      <path id="Trazado_144597" data-name="Trazado 144597" d="M-509.316,505.343l-180.545,2.8a7.214,7.214,0,0,1-7.312-7.894c.756-7.575,4.584-17.941,19.7-18.984C-653.391,479.6-509.316,505.343-509.316,505.343Z" transform="translate(697.209 -480.63)" fill="#c6563d"/>
      <path id="Trazado_144598" data-name="Trazado 144598" d="M-417.271,478.6l-187.672.83s25.742-3.737,41.1,41.52,29.48,168.157,104.216,176.876,93.005-15.778,93.005-15.778h59.789s-35.707-18.269-50.239-85.947S-382.394,481.917-417.271,478.6Z" transform="translate(624.678 -478.595)" fill="#ff7758"/>
      <path id="Trazado_144599" data-name="Trazado 144599" d="M-432.058,506.727a2.179,2.179,0,0,1,1.7-3.57l145.265,1.605s22.836,0,44.427,79.719,27.819,103.8,58.128,121.239L-291.017,716.9s-49.709,8.33-82.509-47.722C-405.093,615.238-404.742,539.374-432.058,506.727Z" transform="translate(489.173 -497.903)" fill="#f6f6f6"/>
      <path id="Trazado_144600" data-name="Trazado 144600" d="M-197.477,552.94h-122.6a2.692,2.692,0,0,1-2.37-1.416l-.008-.014a2.692,2.692,0,0,1,2.37-3.968h122.6a2.692,2.692,0,0,1,2.37,1.416l.007.014A2.692,2.692,0,0,1-197.477,552.94Z" transform="translate(402.869 -532.794)" fill="#978cb7"/>
      <path id="Trazado_144601" data-name="Trazado 144601" d="M-176.125,615.056h-122.6a2.692,2.692,0,0,1-2.37-1.416l-.008-.014a2.692,2.692,0,0,1,2.37-3.968h122.6a2.692,2.692,0,0,1,2.37,1.416l.007.014A2.692,2.692,0,0,1-176.125,615.056Z" transform="translate(386.083 -581.624)" fill="#978cb7"/>
      <path id="Trazado_144602" data-name="Trazado 144602" d="M-196.69,677.644l-80.647-.386a2.692,2.692,0,0,1-2.357-1.416h0a2.692,2.692,0,0,1,2.383-3.968l80.647.386a2.692,2.692,0,0,1,2.357,1.416h0A2.692,2.692,0,0,1-196.69,677.644Z" transform="translate(369.256 -630.532)" fill="#978cb7"/>
      <path id="Trazado_144603" data-name="Trazado 144603" d="M235.067,1294.6l173.874-3.112a6.318,6.318,0,0,1,6.427,6.378c-.091,11.536-4.837,34.966-40.754,40.849H192.2s32.455-4.135,36.676-38.515A6.361,6.361,0,0,1,235.067,1294.6Z" transform="translate(-1.956 -1117.607)" fill="url(#linear-gradient)"/>
      <path id="Trazado_144604" data-name="Trazado 144604" d="M514.746,1346.462a3.228,3.228,0,0,0-3.034-4.509l-156.121,3.566a3.247,3.247,0,0,0-3.117,2.755c-1.966,12.145-11.591,23.641-17.976,30.11H478.982C502.235,1369.446,511.459,1354.109,514.746,1346.462Z" transform="translate(-113.817 -1157.281)" fill="#f6f6f6"/>
      <path id="Trazado_144605" data-name="Trazado 144605" d="M-301.021,671.548-157.278,550.11c-8.669-30.707-18.97-51.91-36.431-59.227L-334.1,593.175C-326.492,620.343-316.424,649.444-301.021,671.548Z" transform="translate(411.772 -488.255)" fill="#fff" opacity="0.32"/>
      <path id="Trazado_144606" data-name="Trazado 144606" d="M4.525,842.821-133.626,960.445a82.672,82.672,0,0,0,15.666,13.3L10.81,870.265C8.7,860.593,6.636,851.423,4.525,842.821Z" transform="translate(254.176 -764.914)" fill="#fff" opacity="0.32"/>
    </g>
    <g id="Grupo_83513" data-name="Grupo 83513" transform="translate(-798.314 247.797)">
      <path id="Trazado_144607" data-name="Trazado 144607" d="M-629.289,858.805a1.815,1.815,0,0,1-1.492,2.95c-9.592-.368-32.57-4.2-33.227-32.434-.83-35.707-7.058-56.468-31.971-79.719s-24.5-50.655-3.322-60.62c28.4-13.364,61.45,24.912,61.035,65.6C-638.661,793.347-645.838,838.136-629.289,858.805Z" transform="translate(714.939 -686.271)" fill="#c3b5ec"/>
      <path id="Trazado_144608" data-name="Trazado 144608" d="M-510.4,984.6a.622.622,0,0,1-.5-.252c-8.679-11.683-9.889-19.939-13.9-47.291-1.041-7.1-2.221-15.153-3.774-24.95-3.9-24.584-12.509-41.076-19.046-50.582-7.081-10.3-13.322-14.844-13.385-14.889a.623.623,0,0,1-.142-.869.623.623,0,0,1,.869-.143c.26.186,6.444,4.682,13.644,15.135,6.625,9.619,15.35,26.3,19.29,51.153,1.555,9.805,2.735,17.859,3.777,24.965,3.974,27.114,5.173,35.3,13.666,46.729a.623.623,0,0,1-.129.871A.619.619,0,0,1-510.4,984.6Z" transform="translate(594.138 -811.444)" fill="#5f4d90"/>
    </g>
    <g id="Grupo_83514" data-name="Grupo 83514" transform="translate(-732.459 287.263)">
      <path id="Trazado_144609" data-name="Trazado 144609" d="M-381.6,1006.8h-2.291a2.1,2.1,0,0,1-1.585-.725c-3.34-3.844-18.4-23.075-21.349-60.309-3.321-41.936,29.895-80.549,51.07-74.321s32.386,22.836,0,63.941c-26.987,34.253-25.143,61.01-23.778,68.979A2.091,2.091,0,0,1-381.6,1006.8Z" transform="translate(407.06 -870.781)" fill="#9c8cc9"/>
      <path id="Trazado_144610" data-name="Trazado 144610" d="M-331.959,1086.369a.623.623,0,0,1-.6-.442c-6.175-20.33-9.141-38.857-8.817-55.065.26-13,2.625-24.549,7.029-34.329,7.528-16.718,18.255-22.382,18.708-22.615a.622.622,0,0,1,.838.268.623.623,0,0,1-.268.839c-.108.055-10.848,5.75-18.186,22.118-4.316,9.627-6.63,21.009-6.877,33.83-.309,16.056,2.64,34.424,8.766,54.592a.623.623,0,0,1-.415.777A.615.615,0,0,1-331.959,1086.369Z" transform="translate(355.441 -951.803)" fill="#5f4d90"/>
    </g>
    <g id="Grupo_83515" data-name="Grupo 83515" transform="translate(-704.275 359.229)">
      <path id="Trazado_144611" data-name="Trazado 144611" d="M-268.147,1269.442a1.921,1.921,0,0,1-3.442,1.087c-3.252-4.262-6.44-13.316.1-31.109,10.38-28.234,54.391-41.52,64.356-24.912C-197.642,1230.322-267.214,1240.866-268.147,1269.442Z" transform="translate(275.297 -1207.228)" fill="#f2edff"/>
      <path id="Trazado_144612" data-name="Trazado 144612" d="M-257.066,1316.873a.623.623,0,0,1-.619-.557c-2.393-22.412,8.969-34.511,18.922-40.714a61.3,61.3,0,0,1,22.313-8.134.621.621,0,0,1,.692.544.623.623,0,0,1-.544.692,59.967,59.967,0,0,0-21.836,7.976A39.382,39.382,0,0,0-252.1,1291c-3.91,7.092-5.372,15.564-4.345,25.179a.623.623,0,0,1-.553.686C-257.021,1316.872-257.044,1316.873-257.066,1316.873Z" transform="translate(261.706 -1254.58)" fill="#9c8cc9"/>
    </g>
    <g id="Grupo_83525" data-name="Grupo 83525" transform="translate(-593.114 261.738)">
      <g id="Grupo_83524" data-name="Grupo 83524" transform="translate(0)">
        <g id="Grupo_83521" data-name="Grupo 83521" transform="translate(61.56 18.059)">
          <g id="Grupo_83516" data-name="Grupo 83516" transform="translate(25.155 91.369)">
            <path id="Trazado_144613" data-name="Trazado 144613" d="M650.146,1297.29c2.119.183,5.8.481,8.694.608a8.374,8.374,0,0,0,3.324-.325c0,.065,0,.127-.005.184a.6.6,0,0,1-.57.566,101.825,101.825,0,0,1-11.384.011.427.427,0,0,1-.348-.641A3.515,3.515,0,0,1,650.146,1297.29Z" transform="translate(-649.797 -1289.964)" fill="url(#linear-gradient-2)"/>
            <path id="Trazado_144614" data-name="Trazado 144614" d="M660.124,1282.176c-2.9-.127-6.575-.425-8.694-.608,2.083-2.556,8.694-4.278,8.694-4.278h1.867a7.832,7.832,0,0,1,1.456,4.561A8.373,8.373,0,0,1,660.124,1282.176Z" transform="translate(-651.081 -1274.242)" fill="url(#linear-gradient-3)"/>
            <path id="Trazado_144615" data-name="Trazado 144615" d="M689.474,1263.039l-.175,3.458a.789.789,0,0,1-.674.743,3.07,3.07,0,0,1-1.4-.116.934.934,0,0,1-.628-.718l-.6-3.366Z" transform="translate(-678.248 -1263.039)" fill="url(#linear-gradient-4)"/>
          </g>
          <g id="Grupo_83518" data-name="Grupo 83518" transform="translate(54.363 88.138)">
            <g id="Grupo_83517" data-name="Grupo 83517" transform="translate(0.823 3.209)">
              <path id="Trazado_144616" data-name="Trazado 144616" d="M803.915,1295.912a1.677,1.677,0,0,0,1.509-1.116l0,.014a1.194,1.194,0,0,1-.8,1.361,5.253,5.253,0,0,1-2.228.349,2.214,2.214,0,0,1-1.671-.77l-.005-.007A5.609,5.609,0,0,0,803.915,1295.912Z" transform="translate(-798.468 -1287.981)" fill="url(#linear-gradient-5)"/>
              <path id="Trazado_144617" data-name="Trazado 144617" d="M791.309,1262.934h1.54c2.346-.048,3.819,4.9,4.3,6.815a1.677,1.677,0,0,1-1.509,1.116,5.61,5.61,0,0,1-3.2-.169,14.711,14.711,0,0,1-2.2-5.535A1.943,1.943,0,0,1,791.309,1262.934Z" transform="translate(-790.193 -1262.933)" fill="url(#linear-gradient-6)"/>
            </g>
            <path id="Trazado_144618" data-name="Trazado 144618" d="M789.627,1247.931l.855,3.4a.923.923,0,0,1-.48,1.046,3.278,3.278,0,0,1-1.771.429.772.772,0,0,1-.629-.514l-1.255-3.578Z" transform="translate(-786.347 -1247.931)" fill="url(#linear-gradient-7)"/>
          </g>
          <path id="Trazado_144619" data-name="Trazado 144619" d="M685.647,1074.819c-1.064.944-4.524,1.068-4.524,1.068-12.464-29.916-17.563-34.166-17.563-34.166,1.8,11.292.29,36.29.29,36.29a7.478,7.478,0,0,1-4.709,0,192.692,192.692,0,0,0-6.365-47.317c8.424-.189,12.9-3.072,14.367-4.229C674.166,1037.786,685.647,1074.819,685.647,1074.819Z" transform="translate(-626.984 -985.699)" fill="#963c28"/>
          <path id="Trazado_144620" data-name="Trazado 144620" d="M623.461,864.871c1.595,7.954,1.023,22.19.648,28.683-.105,1.825,1.169,4.355,2.2,6.081a.541.541,0,0,1-.219.761,37.55,37.55,0,0,1-14.334,3.974.965.965,0,0,1-.971-.721,188.48,188.48,0,0,0-10.854-30.73C606.368,862.636,623.461,864.871,623.461,864.871Z" transform="translate(-585.441 -858.508)" fill="#ffba5b"/>
          <path id="Trazado_144621" data-name="Trazado 144621" d="M680.2,1076.337a.4.4,0,0,0,.341-.607,12.523,12.523,0,0,0-4.942-4.291.4.4,0,1,0-.347.719,11.938,11.938,0,0,1,4.607,3.987A.4.4,0,0,0,680.2,1076.337Z" transform="translate(-644.473 -1021.022)" fill="#b17728"/>
          <g id="Grupo_83519" data-name="Grupo 83519" transform="translate(36.239 6.363)">
            <path id="Trazado_144622" data-name="Trazado 144622" d="M733.9,970.312a27.363,27.363,0,0,1-5.053,12.04l-1.151-.938a35.532,35.532,0,0,0,.573-11.507A13.774,13.774,0,0,1,733.9,970.312Z" transform="translate(-722.121 -947.484)" fill="url(#linear-gradient-8)"/>
            <path id="Trazado_144623" data-name="Trazado 144623" d="M701.616,875.438l1.781-9.814s11.9,9.1,10,22.827a13.775,13.775,0,0,0-5.63-.405C707.225,883.64,705.6,878.856,701.616,875.438Z" transform="translate(-701.616 -865.624)" fill="#ffba5b"/>
          </g>
          <g id="Grupo_83520" data-name="Grupo 83520" transform="translate(0 14.411)">
            <path id="Trazado_144624" data-name="Trazado 144624" d="M583.907,903.252l4.593,9.892c-.743,5.972-3.951,8.555-7.41,9.545a20.993,20.993,0,0,0-1.543-6.442C583.967,911.684,583.907,903.252,583.907,903.252Z" transform="translate(-569.418 -903.252)" fill="#ffba5b"/>
            <path id="Trazado_144625" data-name="Trazado 144625" d="M542.323,964.007a21,21,0,0,1,1.543,6.442c-9.229,3.581-11.671-3.364-11.671-3.364l1.706-.3A9.67,9.67,0,0,0,542.323,964.007Z" transform="translate(-532.194 -951.012)" fill="url(#linear-gradient-9)"/>
          </g>
          <path id="Trazado_144626" data-name="Trazado 144626" d="M619.714,838.076l2.218,8.152a1.586,1.586,0,0,0,2.121,1.055,32.169,32.169,0,0,0,3.2-1.46,2.137,2.137,0,0,0,.754-3.071l-4.61-6.874Z" transform="translate(-600.994 -835.878)" fill="url(#linear-gradient-10)"/>
        </g>
        <path id="Trazado_144627" data-name="Trazado 144627" d="M507.158,952.9l56.822,20.681a4.351,4.351,0,0,1,2.472,5.889l-.172.379a4.044,4.044,0,0,1-5.38,2l-55.174-25.524Z" transform="translate(-449.828 -909.807)" fill="#463c5f"/>
        <ellipse id="Elipse_4322" data-name="Elipse 4322" cx="28.05" cy="27.544" rx="28.05" ry="27.544" transform="translate(3.162 3.105)" fill="#fff" opacity="0.15"/>
        <path id="Trazado_144628" data-name="Trazado 144628" d="M244.393,782.1c0,16.927,13.974,30.649,31.212,30.649s31.212-13.722,31.212-30.649-13.974-30.649-31.212-30.649S244.393,765.17,244.393,782.1Zm4.585,0a26.632,26.632,0,1,1,26.627,26.147A26.39,26.39,0,0,1,248.978,782.1Z" transform="translate(-244.393 -751.448)" fill="#463c5f"/>
        <g id="Grupo_83522" data-name="Grupo 83522" transform="translate(15.396 1.899)">
          <path id="Trazado_144629" data-name="Trazado 144629" d="M361.026,792.872l-.027,0a.208.208,0,0,1-.179-.232c.091-.715.156-1.444.191-2.165a.2.2,0,0,1,.218-.2.208.208,0,0,1,.2.218c-.036.732-.1,1.471-.194,2.2A.208.208,0,0,1,361.026,792.872Zm-.215-8.57a.208.208,0,0,1-.2-.171,27.8,27.8,0,0,0-1.659-5.678,28.753,28.753,0,0,0-26.762-17.711,29.157,29.157,0,0,0-15.5,4.429.208.208,0,0,1-.221-.352,29.573,29.573,0,0,1,15.719-4.492A29.168,29.168,0,0,1,359.332,778.3a28.227,28.227,0,0,1,1.684,5.762.208.208,0,0,1-.168.241A.214.214,0,0,1,360.811,784.3Z" transform="translate(-316.37 -760.328)" fill="#7d97f4"/>
        </g>
        <path id="Trazado_144630" data-name="Trazado 144630" d="M701.627,1021.873l-5.372-.438-2.327,2.144s.551.761,2.271.324a24.65,24.65,0,0,1,4.078-.545s2.376,1.071,2.4-.933Z" transform="translate(-597.774 -963.685)" fill="url(#linear-gradient-11)"/>
        <path id="Trazado_144631" data-name="Trazado 144631" d="M522.074,969.394c-.464.363-2.056-.395-3.03-.919a1.12,1.12,0,0,1-.542-1.324c.234-.739.625-1.693,1.106-1.813C520.407,965.139,523.989,967.9,522.074,969.394Z" transform="translate(-459.83 -919.579)" fill="url(#linear-gradient-12)"/>
        <path id="Trazado_144632" data-name="Trazado 144632" d="M749.07,1051.482a.208.208,0,0,1-.068-.4c1.6-.555,2.444-1.452,2.5-2.668a2.964,2.964,0,0,0-1.939-2.85l-6.823-2.66a.208.208,0,0,1,.151-.387l6.823,2.66a3.378,3.378,0,0,1,2.2,3.255c-.042.965-.558,2.275-2.776,3.042A.209.209,0,0,1,749.07,1051.482Z" transform="translate(-636.039 -980.243)" fill="#7d97f4"/>
        <path id="Trazado_144633" data-name="Trazado 144633" d="M729.735,1037.814a.2.2,0,0,1-.075-.014l-.884-.345a.208.208,0,0,1,.151-.387l.884.345a.208.208,0,0,1-.076.4Z" transform="translate(-625.062 -975.963)" fill="#7d97f4"/>
        <g id="Grupo_83523" data-name="Grupo 83523" transform="translate(77.423 7.65)">
          <path id="Trazado_144634" data-name="Trazado 144634" d="M609.849,808.741s-1.835,4.216-1.959,6.429-.6,3.649,1.959,4.095a5.44,5.44,0,0,0,5.882-3.034s1.83-3.4,1.419-4.788S609.849,808.741,609.849,808.741Z" transform="translate(-607.471 -804.136)" fill="url(#linear-gradient-13)"/>
          <path id="Trazado_144635" data-name="Trazado 144635" d="M613.742,797.723h-.323s1.333-2.734.162-3.214-5.81-1.427-6.811-3.072a3.061,3.061,0,0,1,1.183-4.21.172.172,0,0,1,.219.081l.107.2a.174.174,0,0,0,.321-.033h0a.173.173,0,0,1,.311-.048c.307.492,1.136,1.293,3.361,1.7,3.157.583,5.244,1.86,5.3,4.042a.174.174,0,0,0,.269.142c.233-.142.606-.209,1.1.211.867.729.512,2.62-1.388,4.175a.173.173,0,0,0,.008.279c.345.224.858.758-.473,1.469a3.548,3.548,0,0,1-2.471.57.174.174,0,0,1-.132-.18l.119-1.934a.174.174,0,0,0-.173-.185Z" transform="translate(-606.356 -787.212)" fill="#463c5f"/>
          <path id="Trazado_144636" data-name="Trazado 144636" d="M640.514,830.627s.7-2.693,1.908-1.938-.627,3.018-1.6,3.119Z" transform="translate(-633.208 -819.712)" fill="url(#linear-gradient-14)"/>
        </g>
      </g>
    </g>
    <g id="Grupo_83526" data-name="Grupo 83526" transform="translate(-679.39 315.717)">
      <path id="Trazado_144637" data-name="Trazado 144637" d="M-60.236,1296.385l-6.484,1.621,1.621,12.157a13.809,13.809,0,0,0-3.242,5.674c-.81,3.242-1.558,16.855-1.558,16.855l-1.538.93-.187.776,4.476,6.019-.742-4.79c-.118-.76.086-2.3.022-2.335,2.432-6.484,7.633-24.749,7.633-24.749Z" transform="translate(90.305 -1233.803)" fill="url(#linear-gradient-15)"/>
      <path id="Trazado_144638" data-name="Trazado 144638" d="M-34.36,1292.78c-.07,0-.139,0-.21,0,.313-3.909,1.745-21.112,3.178-27.56,1.621-7.295-2.431-21.884-2.431-21.884l-7.295,7.295,4.053,13.779c-2.777,4.166.453,28.562.383,28.551l0,.054-1.057,1.454.129.788,6.46,3.812-2.542-4.128A4.638,4.638,0,0,1-34.36,1292.78Z" transform="translate(66.324 -1192.101)" fill="url(#linear-gradient-16)"/>
      <path id="Trazado_144639" data-name="Trazado 144639" d="M-71.08,1092.089s-14.2,19.707,0,29.812l1.447-1.29s-7.051-8.313,0-18.489Z" transform="translate(94.839 -1073.205)" fill="url(#linear-gradient-17)"/>
      <path id="Trazado_144640" data-name="Trazado 144640" d="M-20.156,1484.162h-2.062a1.241,1.241,0,0,1-.985-.483c-.643-.835-1.974-2.464-2.611-2.507-.857-.057-.747,2.99-.747,2.99h-.48l-.609-3.786a2.241,2.241,0,0,1,1.176-2.343h0a3.168,3.168,0,0,0,1.258,2.09c1.062.641,4.323,2.936,4.323,2.936a2.95,2.95,0,0,1,.838.022A.545.545,0,0,1-20.156,1484.162Z" transform="translate(55.759 -1376.596)" fill="url(#linear-gradient-18)"/>
      <path id="Trazado_144641" data-name="Trazado 144641" d="M-73.273,1475.822l-1.9-.8a1.241,1.241,0,0,1-.721-.827c-.269-1.019-.864-3.037-1.434-3.323-.768-.385-1.848,2.466-1.848,2.466l-.443-.186.907-3.726a2.241,2.241,0,0,1,1.992-1.7h0a3.17,3.17,0,0,0,.35,2.414c.731,1,2.846,4.383,2.846,4.383a2.944,2.944,0,0,1,.764.345A.545.545,0,0,1-73.273,1475.822Z" transform="translate(96.589 -1368.492)" fill="url(#linear-gradient-19)"/>
      <path id="Trazado_144642" data-name="Trazado 144642" d="M-49.659,1185.267a26.124,26.124,0,0,0,.111,5.477c.349,4.016,2.019,13.446,1.679,22.468a49.251,49.251,0,0,1-12.991.582s-3.48-14.086-2.632-19.441,5.446-9.2,5.446-9.2Z" transform="translate(84.017 -1146.365)" fill="#b17728"/>
      <path id="Trazado_144643" data-name="Trazado 144643" d="M-32.845,1047.006l.58,6.821h-5.511l1.37-10.411Z" transform="translate(63.697 -1034.943)" fill="url(#linear-gradient-20)"/>
      <path id="Trazado_144644" data-name="Trazado 144644" d="M-52.04,1086.95c1.9-.1,6.154-.3,9.167-.135a3.5,3.5,0,0,1,3.239,2.779l.735,3.521a8.478,8.478,0,0,1-.119,3.962l-2.951,10.833s-2.625,1.577-8.387-.111c0,0-5.061-12.068-2.989-19.788A1.434,1.434,0,0,1-52.04,1086.95Z" transform="translate(76.328 -1069.01)" fill="#ff7758"/>
      <path id="Trazado_144645" data-name="Trazado 144645" d="M-3.883,1091.578c.812,2.138,1.545,4.38,2.333,6.48.4,1.051.807,2.081,1.241,3.027.22.471.461.9.683,1.3a5.727,5.727,0,0,0,.6.861c.025.022-.06.039-.089.04s.549.093.722.122l.678,0a23.629,23.629,0,0,0,3.178-.436c2.228-.415,4.545-1,6.923-1.44l.018,0a.838.838,0,0,1,.707,1.453,24.377,24.377,0,0,1-3.03,2.213c-.531.325-1.071.643-1.62.948-.56.285-1.121.573-1.7.839a19.8,19.8,0,0,1-3.783,1.285c-.367.061-.73.126-1.107.177-.424.015-.808.052-1.271.025-.246-.024-.493-.055-.739-.09a3.289,3.289,0,0,1-.387-.07c-.169-.05-.337-.107-.5-.17a5.228,5.228,0,0,1-.853-.432c-.234-.154-.447-.315-.654-.481a8.845,8.845,0,0,1-1.656-1.916,15.125,15.125,0,0,1-1.044-1.848,25.186,25.186,0,0,1-1.437-3.63,33.879,33.879,0,0,1-1.5-7.351,2.207,2.207,0,0,1,2.01-2.388,2.208,2.208,0,0,1,2.252,1.413Z" transform="translate(40.433 -1071.625)" fill="url(#linear-gradient-21)"/>
      <path id="Trazado_144646" data-name="Trazado 144646" d="M84.49,1135.372l.984-2.334,5.176-1.29s.414.9-1.76,1.29a1.9,1.9,0,0,1,.362,1.868C88.838,1135.915,84.439,1136.926,84.49,1135.372Z" transform="translate(-32.417 -1104.381)" fill="url(#linear-gradient-22)"/>
      <path id="Trazado_144647" data-name="Trazado 144647" d="M-26.6,1019.331c.2.116,1.747,5.584.448,7.877s-5.267-.275-6.342-3.591S-31.837,1016.24-26.6,1019.331Z" transform="translate(59.78 -1015.145)" fill="url(#linear-gradient-23)"/>
      <path id="Trazado_144648" data-name="Trazado 144648" d="M-136.056,1012.278c-.89,4.36-3.839,3.167-5.927,5.107-3.385,3.144-8.227-.1-12.934,2.882-3.4,2.151-5.036,7.654-3.4,12.1,2.259,6.153,9.978,8.684,13.978,6.81,3.823-1.791,3.279-7.156,8.422-9.229,2.184-.88,3.262-.308,4.57-1.613,2.289-2.284,1.672-6.715,1.434-8.423-.516-3.7-1.758-4.375-1.165-6,1.154-3.167,6.54-2.513,6.989-4.749.409-2.036-3.495-5.894-7.168-5.286C-136.945,1004.811-135.659,1010.336-136.056,1012.278Z" transform="translate(158.958 -1003.806)" fill="#463c5f"/>
      <path id="Trazado_144649" data-name="Trazado 144649" d="M-149.962,1092.444a.149.149,0,0,1-.145-.114c-.728-3.021-.4-5.5.982-7.364,2.289-3.1,6.737-3.4,6.782-3.4a.151.151,0,0,1,.157.14.148.148,0,0,1-.139.157c-.043,0-4.357.3-6.562,3.287-1.323,1.791-1.636,4.185-.93,7.115a.149.149,0,0,1-.11.179A.163.163,0,0,1-149.962,1092.444Z" transform="translate(152.295 -1064.929)" fill="#91b3fa"/>
      <path id="Trazado_144650" data-name="Trazado 144650" d="M-80.209,1084.273l-.019,0a.075.075,0,0,1-.053-.091c.709-2.719,1.953-4.608,3.7-5.614a7.309,7.309,0,0,1,3.5-.86,3.941,3.941,0,0,0,2.586-.733c1.452-1.291,1.368-4.4-.25-9.227a.075.075,0,0,1,.047-.094.074.074,0,0,1,.094.047c1.638,4.893,1.708,8.051.207,9.385a4.046,4.046,0,0,1-2.676.771,7.185,7.185,0,0,0-3.439.84c-1.708.985-2.928,2.843-3.626,5.523A.074.074,0,0,1-80.209,1084.273Z" transform="translate(97.112 -1053.992)" fill="#91b3fa"/>
      <path id="Trazado_144651" data-name="Trazado 144651" d="M-42.32,1024.121a.079.079,0,0,1-.024,0,.074.074,0,0,1-.047-.094c.563-1.676,2.187-1.427,3.907-1.163a7.557,7.557,0,0,0,3.169.057c.712-.211,1.135-.539,1.258-.973a2.022,2.022,0,0,0-.53-1.573.074.074,0,0,1,.005-.105.074.074,0,0,1,.105.006,2.131,2.131,0,0,1,.563,1.712c-.137.487-.594.849-1.359,1.075a7.66,7.66,0,0,1-3.234-.053c-1.727-.265-3.219-.495-3.743,1.063A.074.074,0,0,1-42.32,1024.121Z" transform="translate(67.327 -1016.731)" fill="#91b3fa"/>
    </g>
    <g id="Grupo_83536" data-name="Grupo 83536" transform="translate(-729.872 164.623)">
      <g id="Grupo_83528" data-name="Grupo 83528" transform="translate(0 0)">
        <path id="Trazado_144652" data-name="Trazado 144652" d="M-390.753,299.544a2.108,2.108,0,0,1-2.122,2.094,2.108,2.108,0,0,1-2.094-2.122,2.107,2.107,0,0,1,2.121-2.094A2.107,2.107,0,0,1-390.753,299.544Z" transform="translate(394.968 -297.423)" fill="#675d84"/>
        <g id="Grupo_83527" data-name="Grupo 83527" transform="translate(0.07 0.07)">
          <path id="Trazado_144653" data-name="Trazado 144653" d="M-390.566,299.8a2.038,2.038,0,0,1-2.051,2.024,2.038,2.038,0,0,1-2.024-2.051,2.038,2.038,0,0,1,2.051-2.024A2.038,2.038,0,0,1-390.566,299.8Z" transform="translate(394.641 -297.75)" fill="#675d84"/>
        </g>
      </g>
      <g id="Grupo_83530" data-name="Grupo 83530" transform="translate(0 12.777)">
        <path id="Trazado_144654" data-name="Trazado 144654" d="M-390.753,359.28a2.108,2.108,0,0,1-2.122,2.094,2.108,2.108,0,0,1-2.094-2.122,2.108,2.108,0,0,1,2.121-2.094A2.108,2.108,0,0,1-390.753,359.28Z" transform="translate(394.968 -357.159)" fill="#675d84"/>
        <g id="Grupo_83529" data-name="Grupo 83529" transform="translate(0.07 0.07)">
          <path id="Trazado_144655" data-name="Trazado 144655" d="M-390.566,359.538a2.038,2.038,0,0,1-2.051,2.024,2.038,2.038,0,0,1-2.024-2.051,2.038,2.038,0,0,1,2.051-2.024A2.038,2.038,0,0,1-390.566,359.538Z" transform="translate(394.641 -357.487)" fill="#675d84"/>
        </g>
      </g>
      <g id="Grupo_83532" data-name="Grupo 83532" transform="translate(0 25.555)">
        <path id="Trazado_144656" data-name="Trazado 144656" d="M-390.753,419.018a2.108,2.108,0,0,1-2.122,2.094,2.108,2.108,0,0,1-2.094-2.122,2.107,2.107,0,0,1,2.121-2.094A2.107,2.107,0,0,1-390.753,419.018Z" transform="translate(394.968 -416.897)" fill="#675d84"/>
        <g id="Grupo_83531" data-name="Grupo 83531" transform="translate(0.07 0.07)">
          <path id="Trazado_144657" data-name="Trazado 144657" d="M-390.566,419.275a2.038,2.038,0,0,1-2.051,2.024,2.038,2.038,0,0,1-2.024-2.051,2.038,2.038,0,0,1,2.051-2.024A2.038,2.038,0,0,1-390.566,419.275Z" transform="translate(394.641 -417.224)" fill="#675d84"/>
        </g>
      </g>
      <g id="Grupo_83533" data-name="Grupo 83533" transform="translate(7.457 0.137)">
        <path id="Trazado_144658" data-name="Trazado 144658" d="M-360.1,299.937l.01.359a1.625,1.625,0,0,0,1.375,1.747l56.453.086a1.639,1.639,0,0,0,1.387-1.814h0a1.652,1.652,0,0,0-1.354-1.807l-56.463-.444C-359.489,298.042-360.133,298.9-360.1,299.937Z" transform="translate(360.105 -298.062)" fill="#675d84"/>
      </g>
      <g id="Grupo_83534" data-name="Grupo 83534" transform="translate(7.457 12.852)">
        <path id="Trazado_144659" data-name="Trazado 144659" d="M-360.1,359.383l.01.359a1.624,1.624,0,0,0,1.375,1.747l56.453.086a1.639,1.639,0,0,0,1.387-1.814h0a1.651,1.651,0,0,0-1.354-1.807l-56.463-.444C-359.489,357.488-360.133,358.344-360.1,359.383Z" transform="translate(360.105 -357.508)" fill="#675d84"/>
      </g>
      <g id="Grupo_83535" data-name="Grupo 83535" transform="translate(7.457 25.567)">
        <path id="Trazado_144660" data-name="Trazado 144660" d="M-360.1,418.828l.01.359a1.625,1.625,0,0,0,1.375,1.747l56.453.086a1.639,1.639,0,0,0,1.387-1.814h0a1.651,1.651,0,0,0-1.354-1.807l-56.463-.445C-359.489,416.933-360.133,417.789-360.1,418.828Z" transform="translate(360.105 -416.953)" fill="#675d84"/>
      </g>
    </g>
    <g id="Grupo_83537" data-name="Grupo 83537" transform="translate(-788.91 173.757)">
      <path id="Trazado_144661" data-name="Trazado 144661" d="M1081.941,794.459l-.306-1.206v0a.216.216,0,1,1,.419-.107v0l.291,1.215a.208.208,0,0,1-.4.1Z" transform="translate(-706.747 -696.115)" fill="#fff"/>
      <path id="Trazado_144662" data-name="Trazado 144662" d="M1076.7,775.632l-.356-1.191v0a.245.245,0,0,1,.47-.141v0l.341,1.2a.237.237,0,0,1-.454.132Z" transform="translate(-702.583 -681.291)" fill="#fff"/>
      <path id="Trazado_144663" data-name="Trazado 144663" d="M1070.685,757.047l-.4-1.174v0a.274.274,0,0,1,.519-.179v0l.39,1.186a.266.266,0,0,1-.5.17Z" transform="translate(-697.814 -666.656)" fill="#fff"/>
      <path id="Trazado_144664" data-name="Trazado 144664" d="M1063.932,738.735l-.45-1.157v0a.3.3,0,0,1,.561-.219v0l.44,1.169a.295.295,0,0,1-.55.211Z" transform="translate(-692.466 -652.238)" fill="#fff"/>
      <path id="Trazado_144665" data-name="Trazado 144665" d="M1056.474,720.724l-.5-1.138,0,0a.323.323,0,1,1,.592-.258v0l.487,1.15a.316.316,0,0,1-.581.25Z" transform="translate(-686.562 -638.062)" fill="#fff"/>
      <path id="Trazado_144666" data-name="Trazado 144666" d="M1048.308,703.024l-.541-1.117,0,0a.345.345,0,0,1,.62-.3l0,0,.532,1.13a.338.338,0,0,1-.61.292Z" transform="translate(-680.101 -624.131)" fill="#fff"/>
      <path id="Trazado_144667" data-name="Trazado 144667" d="M1039.45,685.655l-.584-1.095,0,0a.366.366,0,1,1,.646-.345l0,0,.577,1.108a.36.36,0,0,1-.636.335Z" transform="translate(-673.097 -610.459)" fill="#fff"/>
      <path id="Trazado_144668" data-name="Trazado 144668" d="M1029.92,668.64l-.627-1.071,0,0a.388.388,0,1,1,.669-.391l0,0,.62,1.086a.381.381,0,0,1-.66.382Z" transform="translate(-665.564 -597.068)" fill="#fff"/>
      <path id="Trazado_144669" data-name="Trazado 144669" d="M1019.738,652l-.668-1.046,0,0a.409.409,0,1,1,.69-.44l0,0,.662,1.061a.4.4,0,0,1-.681.43Z" transform="translate(-657.519 -583.973)" fill="#fff"/>
      <path id="Trazado_144670" data-name="Trazado 144670" d="M1008.923,635.766l-.707-1.02,0,0a.431.431,0,0,1,.708-.491l0,0,.7,1.035a.424.424,0,0,1-.7.48Z" transform="translate(-648.975 -571.192)" fill="#fff"/>
      <path id="Trazado_144671" data-name="Trazado 144671" d="M997.493,619.951l-.746-.992,0,0a.452.452,0,0,1,.723-.544l0,0,.742,1.008a.446.446,0,0,1-.716.533Z" transform="translate(-639.949 -558.744)" fill="#fff"/>
      <path id="Trazado_144672" data-name="Trazado 144672" d="M985.467,604.58l-.784-.963,0,0a.474.474,0,0,1,.736-.6l0,0,.78.979a.468.468,0,0,1-.728.587Z" transform="translate(-630.454 -546.645)" fill="#fff"/>
      <path id="Trazado_144673" data-name="Trazado 144673" d="M972.877,589.688l-.818-.933,0,0a.493.493,0,1,1,.742-.65l0,0,.819.947a.489.489,0,0,1-.738.642Z" transform="translate(-620.517 -534.927)" fill="#fff"/>
      <path id="Trazado_144674" data-name="Trazado 144674" d="M959.755,575.3l-.853-.9,0,0a.506.506,0,1,1,.735-.7l0,0,.855.915a.5.5,0,0,1-.732.688Z" transform="translate(-610.161 -523.613)" fill="#fff"/>
      <path id="Trazado_144675" data-name="Trazado 144675" d="M946.094,561.424l-.886-.868,0,0a.519.519,0,0,1,.727-.742l0,0,.889.882a.515.515,0,0,1-.723.734Z" transform="translate(-599.381 -512.703)" fill="#fff"/>
      <path id="Trazado_144676" data-name="Trazado 144676" d="M931.913,548.084l-.919-.833,0,0a.533.533,0,0,1,.715-.789l0,0,.923.847a.529.529,0,0,1-.712.781Z" transform="translate(-588.193 -502.216)" fill="#fff"/>
      <path id="Trazado_144677" data-name="Trazado 144677" d="M917.232,535.3l-.95-.8,0,0a.546.546,0,1,1,.7-.837l0,0,.955.81a.542.542,0,0,1-.7.828Z" transform="translate(-576.612 -492.168)" fill="#fff"/>
      <path id="Trazado_144678" data-name="Trazado 144678" d="M902.071,523.1l-.98-.758-.005,0a.559.559,0,1,1,.684-.884l0,0,.986.773a.555.555,0,0,1-.682.876Z" transform="translate(-564.653 -482.579)" fill="#fff"/>
      <path id="Trazado_144679" data-name="Trazado 144679" d="M886.448,511.508l-1.009-.719-.006,0a.572.572,0,0,1,.664-.932l0,0,1.015.733a.568.568,0,0,1-.662.923Z" transform="translate(-552.33 -473.466)" fill="#fff"/>
      <path id="Trazado_144680" data-name="Trazado 144680" d="M870.383,500.542l-1.036-.678-.006,0a.585.585,0,1,1,.641-.979l0,0,1.043.692a.581.581,0,0,1-.64.971Z" transform="translate(-539.661 -464.848)" fill="#fff"/>
      <path id="Trazado_144681" data-name="Trazado 144681" d="M853.9,490.226l-1.062-.635-.006,0a.6.6,0,0,1,.615-1.027l0,0,1.071.65a.595.595,0,0,1-.614,1.019Z" transform="translate(-526.66 -456.743)" fill="#fff"/>
      <path id="Trazado_144682" data-name="Trazado 144682" d="M837.012,480.586l-1.087-.592-.007,0a.612.612,0,1,1,.585-1.075l0,0,1.1.606a.608.608,0,0,1-.584,1.066Z" transform="translate(-513.344 -449.17)" fill="#fff"/>
      <path id="Trazado_144683" data-name="Trazado 144683" d="M819.746,471.643l-1.111-.547-.007,0a.625.625,0,0,1,.552-1.121l0,0,1.121.56a.621.621,0,0,1-.552,1.113Z" transform="translate(-499.729 -442.147)" fill="#fff"/>
      <path id="Trazado_144684" data-name="Trazado 144684" d="M802.122,463.421l-1.132-.5-.008,0a.638.638,0,1,1,.515-1.168l0,0,1.144.513a.634.634,0,0,1-.515,1.159Z" transform="translate(-485.832 -435.693)" fill="#fff"/>
      <path id="Trazado_144685" data-name="Trazado 144685" d="M784.168,455.943l-1.153-.452-.008,0a.651.651,0,0,1,.475-1.213h0l1.165.465a.647.647,0,0,1-.476,1.2Z" transform="translate(-471.677 -429.823)" fill="#fff"/>
      <path id="Trazado_144686" data-name="Trazado 144686" d="M765.921,449.218l-1.17-.4-.008,0a.665.665,0,1,1,.433-1.256h0l1.183.416a.661.661,0,0,1-.434,1.248Z" transform="translate(-457.292 -424.547)" fill="#fff"/>
      <path id="Trazado_144687" data-name="Trazado 144687" d="M747.422,443.248l-1.185-.355-.008,0a.678.678,0,1,1,.389-1.3h0l1.2.367a.674.674,0,0,1-.391,1.29Z" transform="translate(-442.71 -419.866)" fill="#fff"/>
      <path id="Trazado_144688" data-name="Trazado 144688" d="M728.731,438.054l-1.2-.31-.008,0a.685.685,0,0,1,.343-1.326h0l1.213.316a.683.683,0,0,1-.345,1.323Z" transform="translate(-427.984 -415.803)" fill="#fff"/>
      <path id="Trazado_144689" data-name="Trazado 144689" d="M709.854,433.616l-1.209-.261-.008,0a.689.689,0,0,1,.291-1.347h0l1.224.268a.688.688,0,1,1-.294,1.344Z" transform="translate(-413.112 -412.341)" fill="#fff"/>
      <path id="Trazado_144690" data-name="Trazado 144690" d="M690.814,429.929l-1.218-.213h-.008a.693.693,0,0,1,.239-1.366h0l1.234.219a.692.692,0,0,1-.242,1.363Z" transform="translate(-398.113 -409.469)" fill="#fff"/>
      <path id="Trazado_144691" data-name="Trazado 144691" d="M671.641,426.992l-1.226-.166h-.008a.7.7,0,1,1,.187-1.383h0l1.242.17a.7.7,0,1,1-.19,1.38Z" transform="translate(-383.011 -407.188)" fill="#fff"/>
      <path id="Trazado_144692" data-name="Trazado 144692" d="M652.365,424.8l-1.232-.118h-.008a.7.7,0,1,1,.134-1.4h0l1.248.122a.7.7,0,0,1-.137,1.395Z" transform="translate(-367.829 -405.496)" fill="#fff"/>
      <path id="Trazado_144693" data-name="Trazado 144693" d="M633.016,423.359l-1.236-.071h-.008a.706.706,0,0,1,.08-1.411h0l1.252.074a.705.705,0,1,1-.083,1.408Z" transform="translate(-352.591 -404.39)" fill="#fff"/>
      <path id="Trazado_144694" data-name="Trazado 144694" d="M613.622,422.661l-1.238-.023h-.008a.711.711,0,0,1,.026-1.421h0l1.254.026a.71.71,0,1,1-.029,1.419Z" transform="translate(-337.32 -403.871)" fill="#fff"/>
      <path id="Trazado_144695" data-name="Trazado 144695" d="M594.213,422.624l-1.238.024h-.008a.715.715,0,1,1-.028-1.43h0l1.255-.022a.714.714,0,1,1,.025,1.428Z" transform="translate(-322.037 -403.856)" fill="#fff"/>
      <path id="Trazado_144696" data-name="Trazado 144696" d="M574.817,423.235l-1.236.072h-.008a.72.72,0,0,1-.083-1.437h0l1.253-.07a.718.718,0,0,1,.08,1.434Z" transform="translate(-306.766 -404.329)" fill="#fff"/>
      <path id="Trazado_144697" data-name="Trazado 144697" d="M555.466,424.586l-1.232.119h-.008a.724.724,0,0,1-.139-1.441h0l1.249-.118a.723.723,0,1,1,.136,1.439Z" transform="translate(-291.532 -405.386)" fill="#fff"/>
      <path id="Trazado_144698" data-name="Trazado 144698" d="M536.189,426.676l-1.227.166h-.008a.728.728,0,0,1-.2-1.444h0l1.244-.166a.727.727,0,1,1,.192,1.441Z" transform="translate(-276.357 -407.024)" fill="#fff"/>
      <path id="Trazado_144699" data-name="Trazado 144699" d="M517.016,429.5l-1.219.213h-.008a.733.733,0,1,1-.252-1.444h0l1.237-.213a.731.731,0,0,1,.249,1.441Z" transform="translate(-261.265 -409.244)" fill="#fff"/>
      <path id="Trazado_144700" data-name="Trazado 144700" d="M497.978,433.068l-1.21.26-.008,0a.737.737,0,1,1-.31-1.441h0l1.227-.261a.736.736,0,0,1,.306,1.439Z" transform="translate(-246.281 -412.043)" fill="#fff"/>
      <path id="Trazado_144701" data-name="Trazado 144701" d="M479.1,437.367l-1.2.307-.009,0a.741.741,0,0,1-.368-1.437h0l1.216-.309a.74.74,0,1,1,.364,1.435Z" transform="translate(-231.427 -415.42)" fill="#fff"/>
      <path id="Trazado_144702" data-name="Trazado 144702" d="M460.423,442.4l-1.185.354-.009,0a.746.746,0,1,1-.426-1.429h0l1.2-.356a.745.745,0,0,1,.423,1.428Z" transform="translate(-216.726 -419.375)" fill="#fff"/>
      <path id="Trazado_144703" data-name="Trazado 144703" d="M441.967,448.164l-1.17.4-.008,0a.75.75,0,1,1-.486-1.42h0l1.188-.4a.749.749,0,1,1,.482,1.418Z" transform="translate(-202.202 -423.907)" fill="#fff"/>
      <path id="Trazado_144704" data-name="Trazado 144704" d="M423.767,454.657l-1.152.446-.009,0a.755.755,0,1,1-.545-1.407h0l1.17-.451a.753.753,0,0,1,.541,1.406Z" transform="translate(-187.882 -429.012)" fill="#fff"/>
      <path id="Trazado_144705" data-name="Trazado 144705" d="M405.853,461.879l-1.133.493-.008,0a.759.759,0,1,1-.605-1.392h0l1.151-.5a.758.758,0,0,1,.6,1.391Z" transform="translate(-173.788 -434.691)" fill="#fff"/>
      <path id="Trazado_144706" data-name="Trazado 144706" d="M388.255,469.825l-1.112.539-.008,0a.763.763,0,1,1-.666-1.374h0l1.13-.545a.762.762,0,1,1,.662,1.373Z" transform="translate(-159.944 -440.941)" fill="#fff"/>
      <path id="Trazado_144707" data-name="Trazado 144707" d="M371.006,478.493l-1.089.585-.009,0a.768.768,0,0,1-.726-1.353h0l1.107-.591a.766.766,0,1,1,.722,1.352Z" transform="translate(-146.376 -447.76)" fill="#fff"/>
      <path id="Trazado_144708" data-name="Trazado 144708" d="M354.157,487.878l-1.066.627-.008,0a.768.768,0,0,1-.779-1.324l1.081-.637a.769.769,0,0,1,.781,1.325h0Z" transform="translate(-133.128 -455.145)" fill="#fff"/>
      <path id="Trazado_144709" data-name="Trazado 144709" d="M337.683,497.935l-1.042.667-.007,0a.766.766,0,0,1-.826-1.291l1.056-.676a.767.767,0,1,1,.828,1.292h0Z" transform="translate(-120.179 -463.065)" fill="#fff"/>
      <path id="Trazado_144710" data-name="Trazado 144710" d="M321.586,508.592l-1.019.7-.006,0a.765.765,0,0,1-.869-1.258l1.031-.713a.765.765,0,0,1,.87,1.259h0Z" transform="translate(-107.529 -471.457)" fill="#fff"/>
      <path id="Trazado_144711" data-name="Trazado 144711" d="M305.864,519.8l-1,.737-.006,0a.763.763,0,0,1-.908-1.226l1.006-.746a.763.763,0,0,1,.909,1.226h0Z" transform="translate(-95.175 -480.283)" fill="#fff"/>
      <path id="Trazado_144712" data-name="Trazado 144712" d="M290.506,531.514l-.973.767-.005,0a.761.761,0,0,1-.943-1.195l.983-.776a.762.762,0,0,1,.944,1.2h0Z" transform="translate(-83.108 -489.504)" fill="#fff"/>
      <path id="Trazado_144713" data-name="Trazado 144713" d="M275.5,543.684l-.951.794,0,0a.759.759,0,0,1-.974-1.165l.96-.8a.76.76,0,0,1,.975,1.165h0Z" transform="translate(-71.318 -499.084)" fill="#fff"/>
      <path id="Trazado_144714" data-name="Trazado 144714" d="M260.823,556.263l-.931.819,0,0a.757.757,0,0,1-1-1.137l.938-.827a.758.758,0,1,1,1,1.137h0Z" transform="translate(-59.788 -508.986)" fill="#fff"/>
      <path id="Trazado_144715" data-name="Trazado 144715" d="M246.455,569.206l-.912.841,0,0a.756.756,0,0,1-1.025-1.111l.919-.848a.756.756,0,1,1,1.026,1.111h0Z" transform="translate(-48.501 -519.172)" fill="#fff"/>
      <path id="Trazado_144716" data-name="Trazado 144716" d="M232.371,582.469l-.895.86,0,0a.754.754,0,0,1-1.045-1.087l.9-.867a.754.754,0,1,1,1.046,1.087h0Z" transform="translate(-37.436 -529.609)" fill="#fff"/>
      <path id="Trazado_144717" data-name="Trazado 144717" d="M218.543,596.011l-.88.877,0,0a.752.752,0,0,1-1.062-1.065l.884-.883a.753.753,0,1,1,1.063,1.065h0Z" transform="translate(-26.573 -540.265)" fill="#fff"/>
      <path id="Trazado_144718" data-name="Trazado 144718" d="M204.941,609.792l-.866.891,0,0A.75.75,0,0,1,203,609.639l.87-.9a.751.751,0,1,1,1.077,1.046h0Z" transform="translate(-15.888 -551.107)" fill="#fff"/>
      <path id="Trazado_144719" data-name="Trazado 144719" d="M191.541,623.775l-.854.9,0,0a.748.748,0,0,1-1.087-1.029l.857-.906a.749.749,0,1,1,1.088,1.029h0Z" transform="translate(-5.361 -562.108)" fill="#fff"/>
      <path id="Trazado_144720" data-name="Trazado 144720" d="M178.3,637.917l-.846.912v0a.747.747,0,0,1-1.1-1.015l.848-.916a.747.747,0,0,1,1.1,1.015h0Z" transform="translate(5.04 -573.232)" fill="#fff"/>
      <path id="Trazado_144721" data-name="Trazado 144721" d="M165.2,652.2l-.838.92a.745.745,0,1,1-1.1-1l.839-.922a.745.745,0,0,1,1.1,1Z" transform="translate(15.336 -584.469)" fill="#fff"/>
      <path id="Trazado_144722" data-name="Trazado 144722" d="M152.193,666.589l-.832.925a.743.743,0,1,1-1.106-.993l.833-.927a.744.744,0,1,1,1.106.994Z" transform="translate(25.556 -595.782)" fill="#fff"/>
      <path id="Trazado_144723" data-name="Trazado 144723" d="M139.255,681.045l-.829.929a.741.741,0,1,1-1.107-.987l.829-.93a.742.742,0,1,1,1.107.987Z" transform="translate(35.722 -607.151)" fill="#fff"/>
      <path id="Trazado_144724" data-name="Trazado 144724" d="M126.353,695.542l-.828.93a.74.74,0,0,1-1.1-.983l.828-.931a.74.74,0,1,1,1.106.983Z" transform="translate(45.862 -618.55)" fill="#fff"/>
      <path id="Trazado_144725" data-name="Trazado 144725" d="M113.454,710.05l-.829.93a.738.738,0,0,1-1.1-.982l.828-.93a.738.738,0,1,1,1.1.981Z" transform="translate(56 -629.957)" fill="#fff"/>
      <path id="Trazado_144726" data-name="Trazado 144726" d="M100.524,724.54l-.832.928a.736.736,0,1,1-1.1-.983l.83-.927a.736.736,0,1,1,1.1.981Z" transform="translate(66.162 -641.349)" fill="#fff"/>
      <path id="Trazado_144727" data-name="Trazado 144727" d="M87.533,738.984l-.837.924a.734.734,0,1,1-1.087-.987l.835-.923a.735.735,0,0,1,1.091.984Z" transform="translate(76.375 -652.703)" fill="#fff"/>
      <path id="Trazado_144728" data-name="Trazado 144728" d="M74.446,753.35l-.845.918a.732.732,0,1,1-1.077-.992l.841-.916a.733.733,0,1,1,1.082.988Z" transform="translate(86.663 -663.995)" fill="#fff"/>
      <path id="Trazado_144729" data-name="Trazado 144729" d="M61.229,767.608l-.854.91a.73.73,0,1,1-1.065-1h0l.85-.907,0,0a.731.731,0,0,1,1.067,1Z" transform="translate(97.053 -675.203)" fill="#fff"/>
      <path id="Trazado_144730" data-name="Trazado 144730" d="M47.856,781.728l-.865.9a.729.729,0,0,1-1.051-1.01l0,0,.86-.9,0,0a.729.729,0,0,1,1.052,1.01Z" transform="translate(107.568 -686.299)" fill="#fff"/>
      <path id="Trazado_144731" data-name="Trazado 144731" d="M34.292,795.675l-.878.888a.727.727,0,1,1-1.033-1.022l0,0,.873-.884,0,0a.727.727,0,0,1,1.035,1.022Z" transform="translate(118.232 -697.259)" fill="#fff"/>
      <path id="Trazado_144732" data-name="Trazado 144732" d="M20.509,809.414l-.894.873A.725.725,0,1,1,18.6,809.25l0,0,.887-.869,0,0a.726.726,0,1,1,1.015,1.037Z" transform="translate(129.07 -708.056)" fill="#fff"/>
      <path id="Trazado_144733" data-name="Trazado 144733" d="M6.476,822.909l-.911.856a.723.723,0,1,1-.991-1.054l0,0,.9-.851,0,0a.724.724,0,0,1,.992,1.054Z" transform="translate(140.105 -718.659)" fill="#fff"/>
      <path id="Trazado_144734" data-name="Trazado 144734" d="M-7.836,836.121l-.93.837a.722.722,0,0,1-1.019-.054.722.722,0,0,1,.054-1.019l0,0,.922-.831,0,0a.722.722,0,0,1,1.02.053.722.722,0,0,1-.053,1.02Z" transform="translate(151.359 -729.039)" fill="#fff"/>
      <path id="Trazado_144735" data-name="Trazado 144735" d="M-22.448,849.013l-.95.814a.72.72,0,0,1-1.015-.078.72.72,0,0,1,.078-1.015l0,0,.941-.808,0,0a.72.72,0,0,1,1.016.077.72.72,0,0,1-.077,1.016Z" transform="translate(162.848 -739.166)" fill="#fff"/>
      <path id="Trazado_144736" data-name="Trazado 144736" d="M-37.375,861.528l-.971.788a.717.717,0,0,1-1.01-.1.718.718,0,0,1,.1-1.01l0,0,.961-.782,0,0a.718.718,0,0,1,1.011.1.718.718,0,0,1-.1,1.011Z" transform="translate(174.585 -748.998)" fill="#fff"/>
      <path id="Trazado_144737" data-name="Trazado 144737" d="M-52.649,873.634l-.994.76a.716.716,0,0,1-1-.134.716.716,0,0,1,.134-1l0,0,.982-.753.005,0a.716.716,0,0,1,1,.133.716.716,0,0,1-.133,1Z" transform="translate(186.595 -758.507)" fill="#fff"/>
      <path id="Trazado_144738" data-name="Trazado 144738" d="M-68.275,885.277l-1.018.729a.714.714,0,0,1-1-.164.714.714,0,0,1,.164-1l.005,0,1.006-.722.006,0a.715.715,0,0,1,1,.164.715.715,0,0,1-.164,1Z" transform="translate(198.881 -767.651)" fill="#fff"/>
      <path id="Trazado_144739" data-name="Trazado 144739" d="M-84.289,896.424l-1.044.7a.713.713,0,0,1-.988-.2.713.713,0,0,1,.2-.988l.006,0,1.031-.688.006,0a.713.713,0,0,1,.989.2.713.713,0,0,1-.2.989Z" transform="translate(211.472 -776.405)" fill="#fff"/>
      <path id="Trazado_144740" data-name="Trazado 144740" d="M-100.686,907l-1.068.656a.711.711,0,0,1-.977-.234.711.711,0,0,1,.234-.977l.006,0,1.054-.649.007,0a.711.711,0,0,1,.979.233.711.711,0,0,1-.233.978Z" transform="translate(224.362 -784.715)" fill="#fff"/>
      <path id="Trazado_144741" data-name="Trazado 144741" d="M-117.457,916.972l-1.092.616a.709.709,0,0,1-.966-.269.709.709,0,0,1,.269-.966l.006,0,1.078-.609.007,0a.709.709,0,0,1,.967.269.71.71,0,0,1-.268.967Z" transform="translate(237.544 -792.542)" fill="#fff"/>
      <path id="Trazado_144742" data-name="Trazado 144742" d="M-134.582,926.312l-1.114.575a.707.707,0,0,1-.952-.3.707.707,0,0,1,.3-.952l.006,0,1.1-.568.007,0a.708.708,0,0,1,.954.3.707.707,0,0,1-.3.953Z" transform="translate(251.003 -799.876)" fill="#fff"/>
      <path id="Trazado_144743" data-name="Trazado 144743" d="M-152.041,935.005l-1.135.532a.705.705,0,0,1-.938-.339.705.705,0,0,1,.339-.938l.007,0,1.12-.526.007,0a.706.706,0,0,1,.939.339.706.706,0,0,1-.339.939Z" transform="translate(264.723 -806.704)" fill="#fff"/>
      <path id="Trazado_144744" data-name="Trazado 144744" d="M-169.812,943.031l-1.155.488a.7.7,0,0,1-.922-.374.7.7,0,0,1,.374-.922l.007,0,1.139-.483.007,0a.7.7,0,0,1,.923.374.7.7,0,0,1-.374.923Z" transform="translate(278.687 -813.007)" fill="#fff"/>
      <path id="Trazado_144745" data-name="Trazado 144745" d="M-187.876,950.367l-1.173.443a.7.7,0,0,1-.9-.409.7.7,0,0,1,.409-.9l.007,0,1.157-.438.008,0a.7.7,0,0,1,.905.409.7.7,0,0,1-.408.905Z" transform="translate(292.88 -818.768)" fill="#fff"/>
      <path id="Trazado_144746" data-name="Trazado 144746" d="M-206.21,956.987l-1.19.4a.7.7,0,0,1-.885-.444.7.7,0,0,1,.443-.885l.007,0,1.174-.391.008,0a.7.7,0,0,1,.886.443.7.7,0,0,1-.443.886Z" transform="translate(307.283 -823.968)" fill="#fff"/>
      <path id="Trazado_144747" data-name="Trazado 144747" d="M-224.791,962.864l-1.206.346a.7.7,0,0,1-.864-.478.7.7,0,0,1,.478-.864l.008,0,1.189-.343.008,0a.7.7,0,0,1,.865.478.7.7,0,0,1-.478.865Z" transform="translate(321.878 -828.584)" fill="#fff"/>
      <path id="Trazado_144748" data-name="Trazado 144748" d="M-243.593,967.971l-1.219.3a.7.7,0,0,1-.841-.513.7.7,0,0,1,.513-.841l.008,0,1.2-.292.009,0a.7.7,0,0,1,.842.512.7.7,0,0,1-.513.842Z" transform="translate(336.645 -832.596)" fill="#fff"/>
      <path id="Trazado_144749" data-name="Trazado 144749" d="M-262.588,972.277l-1.231.242a.694.694,0,0,1-.815-.547.7.7,0,0,1,.547-.816l.008,0,1.213-.24.009,0a.7.7,0,0,1,.817.547.7.7,0,0,1-.547.817Z" transform="translate(351.561 -835.979)" fill="#fff"/>
      <path id="Trazado_144750" data-name="Trazado 144750" d="M-281.751,975.751l-1.242.188a.693.693,0,0,1-.788-.581.693.693,0,0,1,.582-.788h.009l1.223-.186h.009a.693.693,0,0,1,.789.581.693.693,0,0,1-.581.789Z" transform="translate(366.609 -838.708)" fill="#fff"/>
      <path id="Trazado_144751" data-name="Trazado 144751" d="M-301.043,978.362l-1.248.13a.691.691,0,0,1-.759-.616.691.691,0,0,1,.616-.759h.009l1.229-.129h.01a.692.692,0,0,1,.76.615.691.691,0,0,1-.615.76Z" transform="translate(381.752 -840.76)" fill="#fff"/>
      <path id="Trazado_144752" data-name="Trazado 144752" d="M-320.415,980.076l-1.252.071a.689.689,0,0,1-.727-.649.689.689,0,0,1,.649-.727h.009l1.232-.071h.01a.69.69,0,0,1,.728.649.69.69,0,0,1-.649.728Z" transform="translate(396.957 -842.108)" fill="#fff"/>
      <path id="Trazado_144753" data-name="Trazado 144753" d="M-339.842,980.863l-1.256.01a.687.687,0,0,1-.693-.682.688.688,0,0,1,.682-.693h.01l1.235-.011h.01a.688.688,0,0,1,.694.682.688.688,0,0,1-.682.694Z" transform="translate(412.204 -842.729)" fill="#fff"/>
      <path id="Trazado_144754" data-name="Trazado 144754" d="M-359.276,980.507l-1.255-.053a.685.685,0,0,1-.656-.714.685.685,0,0,1,.714-.656h.01l1.234.051h.01a.686.686,0,0,1,.657.714.686.686,0,0,1-.714.657Z" transform="translate(427.452 -842.412)" fill="#fff"/>
      <path id="Trazado_144755" data-name="Trazado 144755" d="M-378.657,979.123l-1.249-.117a.684.684,0,0,1-.617-.744.684.684,0,0,1,.744-.617h.01l1.228.114h.01a.684.684,0,0,1,.618.744.684.684,0,0,1-.744.618Z" transform="translate(442.653 -841.278)" fill="#fff"/>
      <path id="Trazado_144756" data-name="Trazado 144756" d="M-397.947,976.732l-1.243-.182a.682.682,0,0,1-.576-.774.682.682,0,0,1,.774-.576h.01l1.221.178.011,0a.683.683,0,0,1,.577.774.683.683,0,0,1-.774.577Z" transform="translate(457.783 -839.353)" fill="#fff"/>
      <path id="Trazado_144757" data-name="Trazado 144757" d="M-417.068,973.3l-1.232-.254a.677.677,0,0,1-.527-.8.678.678,0,0,1,.8-.527l.01,0,1.209.246.012,0a.679.679,0,0,1,.53.8.679.679,0,0,1-.8.53Z" transform="translate(472.772 -836.614)" fill="#fff"/>
      <path id="Trazado_144758" data-name="Trazado 144758" d="M-435.955,968.773l-1.215-.324a.672.672,0,0,1-.475-.822.672.672,0,0,1,.822-.476l.009,0,1.193.315.011,0a.673.673,0,0,1,.479.823.674.674,0,0,1-.823.479Z" transform="translate(487.573 -833.013)" fill="#fff"/>
      <path id="Trazado_144759" data-name="Trazado 144759" d="M-454.552,963.171l-1.194-.393a.667.667,0,0,1-.425-.841.666.666,0,0,1,.841-.425l.009,0,1.174.383.011,0a.668.668,0,0,1,.428.842.668.668,0,0,1-.842.428Z" transform="translate(502.144 -828.572)" fill="#fff"/>
      <path id="Trazado_144760" data-name="Trazado 144760" d="M-472.8,956.529l-1.17-.459a.661.661,0,0,1-.374-.857.661.661,0,0,1,.857-.374l.009,0,1.15.448.01,0a.662.662,0,0,1,.377.858.663.663,0,0,1-.858.377Z" transform="translate(516.441 -823.317)" fill="#fff"/>
      <path id="Trazado_144761" data-name="Trazado 144761" d="M-490.649,948.875l-1.142-.523a.655.655,0,0,1-.323-.869.655.655,0,0,1,.869-.323l.008,0,1.124.511.01,0a.657.657,0,0,1,.326.87.657.657,0,0,1-.87.326Z" transform="translate(530.42 -817.269)" fill="#fff"/>
      <path id="Trazado_144762" data-name="Trazado 144762" d="M-508.041,940.238l-1.111-.586a.65.65,0,0,1-.271-.878.65.65,0,0,1,.878-.271l.008,0,1.093.573.01,0a.652.652,0,0,1,.274.88.651.651,0,0,1-.88.274Z" transform="translate(544.039 -810.451)" fill="#fff"/>
      <path id="Trazado_144763" data-name="Trazado 144763" d="M-524.922,930.64l-1.077-.648a.645.645,0,0,1-.22-.885.645.645,0,0,1,.885-.22l.008,0,1.06.634.009.006a.646.646,0,0,1,.223.886.646.646,0,0,1-.886.223Z" transform="translate(557.255 -802.879)" fill="#fff"/>
      <path id="Trazado_144764" data-name="Trazado 144764" d="M-541.233,920.1l-1.038-.708a.639.639,0,0,1-.168-.888.639.639,0,0,1,.888-.168l.008.005,1.022.693.009.006a.641.641,0,0,1,.171.89.641.641,0,0,1-.89.171Z" transform="translate(570.021 -794.573)" fill="#fff"/>
      <path id="Trazado_144765" data-name="Trazado 144765" d="M-556.914,908.652l-1-.766a.634.634,0,0,1-.116-.889.634.634,0,0,1,.889-.116l.007.006.98.75.009.007a.635.635,0,0,1,.118.891.635.635,0,0,1-.891.118Z" transform="translate(582.289 -785.55)" fill="#fff"/>
      <path id="Trazado_144766" data-name="Trazado 144766" d="M-571.9,896.3l-.949-.824a.628.628,0,0,1-.063-.886.628.628,0,0,1,.886-.063l.007.006.935.807.009.007a.63.63,0,0,1,.065.889.63.63,0,0,1-.888.065Z" transform="translate(594.01 -775.824)" fill="#fff"/>
      <path id="Trazado_144767" data-name="Trazado 144767" d="M-586.125,883.085l-.9-.88a.623.623,0,0,1-.009-.881.623.623,0,0,1,.881-.009l.007.007.884.861.008.008a.625.625,0,0,1,.012.883.625.625,0,0,1-.883.012Z" transform="translate(605.128 -765.416)" fill="#fff"/>
      <path id="Trazado_144768" data-name="Trazado 144768" d="M-599.516,869.014l-.843-.935a.617.617,0,0,1,.045-.872.617.617,0,0,1,.872.045l.007.007.83.915.008.009a.619.619,0,0,1-.043.874.619.619,0,0,1-.874-.043Z" transform="translate(615.59 -754.341)" fill="#fff"/>
      <path id="Trazado_144769" data-name="Trazado 144769" d="M-611.99,854.132l-.78-.985a.612.612,0,0,1,.1-.86.612.612,0,0,1,.86.1l.006.008.768.964.007.009a.614.614,0,0,1-.1.862.614.614,0,0,1-.862-.1Z" transform="translate(625.325 -742.632)" fill="#fff"/>
      <path id="Trazado_144770" data-name="Trazado 144770" d="M-623.469,838.468l-.715-1.035a.606.606,0,0,1,.154-.844.606.606,0,0,1,.844.154l.006.009.7,1.013.007.01a.608.608,0,0,1-.153.846.608.608,0,0,1-.846-.153Z" transform="translate(634.278 -730.312)" fill="#fff"/>
      <path id="Trazado_144771" data-name="Trazado 144771" d="M-633.873,822.067l-.643-1.081a.6.6,0,0,1,.21-.824.6.6,0,0,1,.824.21l.006.009.633,1.058.006.011a.6.6,0,0,1-.208.827.6.6,0,0,1-.826-.208Z" transform="translate(642.381 -717.416)" fill="#fff"/>
      <path id="Trazado_144772" data-name="Trazado 144772" d="M-643.116,804.984l-.566-1.124a.6.6,0,0,1,.264-.8.6.6,0,0,1,.8.264l.005.01.557,1.1.006.011a.6.6,0,0,1-.263.8.6.6,0,0,1-.8-.263Z" transform="translate(649.571 -703.989)" fill="#fff"/>
      <path id="Trazado_144773" data-name="Trazado 144773" d="M-651.121,787.286l-.484-1.162a.59.59,0,0,1,.318-.772.591.591,0,0,1,.772.318l0,.01.477,1.137.005.012a.592.592,0,0,1-.317.775.592.592,0,0,1-.775-.317Z" transform="translate(655.784 -690.083)" fill="#fff"/>
      <path id="Trazado_144774" data-name="Trazado 144774" d="M-657.814,769.052l-.4-1.2a.585.585,0,0,1,.37-.739.585.585,0,0,1,.739.37l0,.011.392,1.169,0,.012a.587.587,0,0,1-.37.742.586.586,0,0,1-.742-.37Z" transform="translate(660.966 -675.761)" fill="#fff"/>
      <path id="Trazado_144775" data-name="Trazado 144775" d="M-663.14,750.37l-.308-1.22a.579.579,0,0,1,.42-.7.579.579,0,0,1,.7.42l0,.011.3,1.195,0,.012a.58.58,0,0,1-.419.706.581.581,0,0,1-.706-.419Z" transform="translate(665.073 -661.093)" fill="#fff"/>
      <path id="Trazado_144776" data-name="Trazado 144776" d="M-667.087,731.35l-.219-1.239a.574.574,0,0,1,.466-.665.574.574,0,0,1,.665.466l0,.01.217,1.214,0,.012a.575.575,0,0,1-.465.668.575.575,0,0,1-.668-.465Z" transform="translate(668.098 -646.164)" fill="#fff"/>
      <path id="Trazado_144777" data-name="Trazado 144777" d="M-669.666,712.1l-.13-1.25a.569.569,0,0,1,.506-.625.569.569,0,0,1,.624.507v.01l.131,1.226v.012a.57.57,0,0,1-.506.627.57.57,0,0,1-.628-.506Z" transform="translate(670.052 -631.058)" fill="#fff"/>
      <path id="Trazado_144778" data-name="Trazado 144778" d="M-670.9,692.715l-.045-1.256a.563.563,0,0,1,.543-.583.563.563,0,0,1,.583.543v.01l.047,1.233v.012a.564.564,0,0,1-.543.586.565.565,0,0,1-.586-.543Z" transform="translate(670.956 -615.851)" fill="#fff"/>
      <path id="Trazado_144779" data-name="Trazado 144779" d="M-670.978,673.292l.039-1.256a.558.558,0,0,1,.575-.54.558.558,0,0,1,.54.575v.009l-.035,1.234v.011a.559.559,0,0,1-.575.543.559.559,0,0,1-.543-.575Z" transform="translate(670.978 -600.616)" fill="#fff"/>
      <path id="Trazado_144780" data-name="Trazado 144780" d="M-669.938,653.914l.12-1.25a.552.552,0,0,1,.6-.5.552.552,0,0,1,.5.6v.009l-.114,1.23v.011a.554.554,0,0,1-.6.5.554.554,0,0,1-.5-.6Z" transform="translate(670.162 -585.419)" fill="#fff"/>
      <path id="Trazado_144781" data-name="Trazado 144781" d="M-667.661,634.659l.2-1.24a.547.547,0,0,1,.626-.454.547.547,0,0,1,.454.626l0,.009-.191,1.22v.01a.548.548,0,0,1-.627.457.548.548,0,0,1-.457-.627Z" transform="translate(668.376 -570.321)" fill="#fff"/>
      <path id="Trazado_144782" data-name="Trazado 144782" d="M-664.19,615.6l.273-1.225a.541.541,0,0,1,.646-.411.541.541,0,0,1,.411.646l0,.008-.265,1.207,0,.01a.543.543,0,0,1-.647.414.543.543,0,0,1-.414-.647Z" transform="translate(665.652 -555.379)" fill="#fff"/>
      <path id="Trazado_144783" data-name="Trazado 144783" d="M-659.567,596.8l.345-1.207a.536.536,0,0,1,.663-.368.536.536,0,0,1,.368.663l0,.008-.337,1.189,0,.009a.537.537,0,0,1-.664.37.537.537,0,0,1-.37-.664Z" transform="translate(662.024 -540.642)" fill="#fff"/>
      <path id="Trazado_144784" data-name="Trazado 144784" d="M-653.833,578.323l.415-1.183a.53.53,0,0,1,.676-.325.53.53,0,0,1,.325.676l0,.007-.406,1.166,0,.009a.532.532,0,0,1-.677.328.532.532,0,0,1-.328-.677Z" transform="translate(657.524 -526.164)" fill="#fff"/>
      <path id="Trazado_144785" data-name="Trazado 144785" d="M-647.031,560.232l.483-1.158a.525.525,0,0,1,.687-.282.525.525,0,0,1,.282.687l0,.007-.473,1.142,0,.008a.527.527,0,0,1-.688.285.527.527,0,0,1-.285-.688Z" transform="translate(652.185 -511.987)" fill="#fff"/>
      <path id="Trazado_144786" data-name="Trazado 144786" d="M-639.182,542.557l.549-1.129a.519.519,0,0,1,.694-.24.519.519,0,0,1,.24.695l0,.007-.539,1.114,0,.008a.521.521,0,0,1-.7.243.521.521,0,0,1-.243-.7Z" transform="translate(646.025 -498.14)" fill="#fff"/>
      <path id="Trazado_144787" data-name="Trazado 144787" d="M-630.328,525.376l.613-1.1a.514.514,0,0,1,.7-.2.514.514,0,0,1,.2.7l0,.006-.6,1.083,0,.008a.516.516,0,0,1-.7.2.516.516,0,0,1-.2-.7Z" transform="translate(639.074 -484.683)" fill="#fff"/>
      <path id="Trazado_144788" data-name="Trazado 144788" d="M-620.493,508.748l.674-1.058a.509.509,0,0,1,.7-.155.509.509,0,0,1,.156.7l0,.006-.662,1.045,0,.007a.51.51,0,0,1-.7.158.51.51,0,0,1-.158-.7Z" transform="translate(631.354 -471.664)" fill="#fff"/>
      <path id="Trazado_144789" data-name="Trazado 144789" d="M-609.714,492.722l.735-1.019a.5.5,0,0,1,.7-.114.5.5,0,0,1,.114.7l0,.006-.722,1.006-.005.007a.5.5,0,0,1-.7.116.5.5,0,0,1-.116-.7Z" transform="translate(622.893 -459.117)" fill="#fff"/>
      <path id="Trazado_144790" data-name="Trazado 144790" d="M-598.007,477.363l.794-.973a.5.5,0,0,1,.7-.071.5.5,0,0,1,.071.7l0,.006-.78.962-.006.007a.5.5,0,0,1-.7.074.5.5,0,0,1-.073-.7Z" transform="translate(613.704 -447.099)" fill="#fff"/>
      <path id="Trazado_144791" data-name="Trazado 144791" d="M-585.4,462.731l.85-.924a.492.492,0,0,1,.7-.029.492.492,0,0,1,.029.7l-.005.006-.835.913-.006.007a.494.494,0,0,1-.7.031.494.494,0,0,1-.031-.7Z" transform="translate(603.807 -435.655)" fill="#fff"/>
      <path id="Trazado_144792" data-name="Trazado 144792" d="M-571.932,448.91l.9-.87a.486.486,0,0,1,.687.013.486.486,0,0,1-.013.687l0,0-.888.862-.006.006a.489.489,0,0,1-.691-.01.488.488,0,0,1,.01-.691Z" transform="translate(593.236 -424.851)" fill="#fff"/>
      <path id="Trazado_144793" data-name="Trazado 144793" d="M-557.656,435.905l.95-.818a.476.476,0,0,1,.672.05.476.476,0,0,1-.05.671l0,0-.934.812-.006.005a.479.479,0,0,1-.676-.047.479.479,0,0,1,.047-.676Z" transform="translate(582.027 -414.685)" fill="#fff"/>
      <path id="Trazado_144794" data-name="Trazado 144794" d="M-542.677,423.708l.992-.765a.467.467,0,0,1,.654.085.466.466,0,0,1-.085.654l0,0-.977.76-.006,0a.469.469,0,0,1-.659-.082.469.469,0,0,1,.082-.659Z" transform="translate(570.264 -405.153)" fill="#fff"/>
      <path id="Trazado_144795" data-name="Trazado 144795" d="M-527.052,412.336l1.031-.711a.457.457,0,0,1,.635.117.457.457,0,0,1-.117.635l0,0-1.016.708-.006,0a.46.46,0,0,1-.64-.114.46.46,0,0,1,.114-.64Z" transform="translate(557.994 -396.267)" fill="#fff"/>
      <path id="Trazado_144796" data-name="Trazado 144796" d="M-510.842,401.8l1.066-.657a.447.447,0,0,1,.615.146.447.447,0,0,1-.146.615l0,0-1.052.655-.006,0a.45.45,0,0,1-.62-.144.45.45,0,0,1,.144-.62Z" transform="translate(545.263 -388.037)" fill="#fff"/>
      <path id="Trazado_144797" data-name="Trazado 144797" d="M-494.1,392.1l1.1-.6a.437.437,0,0,1,.594.173.437.437,0,0,1-.173.594l0,0-1.083.6-.006,0a.44.44,0,0,1-.6-.171.441.441,0,0,1,.171-.6Z" transform="translate(532.117 -380.468)" fill="#fff"/>
      <path id="Trazado_144798" data-name="Trazado 144798" d="M-476.895,383.248l1.126-.548a.428.428,0,0,1,.572.2.428.428,0,0,1-.2.572l0,0-1.112.548-.006,0a.431.431,0,0,1-.577-.2.431.431,0,0,1,.2-.577Z" transform="translate(518.599 -373.559)" fill="#fff"/>
      <path id="Trazado_144799" data-name="Trazado 144799" d="M-459.266,375.236l1.15-.494a.418.418,0,0,1,.549.219.418.418,0,0,1-.219.549l0,0-1.137.494-.006,0a.421.421,0,0,1-.554-.218.421.421,0,0,1,.218-.554Z" transform="translate(504.751 -367.311)" fill="#fff"/>
      <path id="Trazado_144800" data-name="Trazado 144800" d="M-441.269,368.061l1.171-.44a.408.408,0,0,1,.526.239.408.408,0,0,1-.239.526h0l-1.159.441-.005,0a.411.411,0,0,1-.531-.238.411.411,0,0,1,.238-.531Z" transform="translate(490.613 -361.719)" fill="#fff"/>
      <path id="Trazado_144801" data-name="Trazado 144801" d="M-422.95,361.717l1.19-.387a.4.4,0,0,1,.5.256.4.4,0,0,1-.256.5h0l-1.178.389-.005,0a.4.4,0,0,1-.507-.256.4.4,0,0,1,.256-.507Z" transform="translate(476.221 -356.78)" fill="#fff"/>
      <path id="Trazado_144802" data-name="Trazado 144802" d="M-404.356,356.2l1.2-.333a.389.389,0,0,1,.479.271.389.389,0,0,1-.271.479h0l-1.192.336h0a.392.392,0,0,1-.484-.271.392.392,0,0,1,.271-.484Z" transform="translate(461.612 -352.491)" fill="#fff"/>
      <path id="Trazado_144803" data-name="Trazado 144803" d="M-385.535,351.507l1.218-.281a.379.379,0,0,1,.455.285.38.38,0,0,1-.285.455h0l-1.207.284h0a.382.382,0,0,1-.46-.285.382.382,0,0,1,.285-.46Z" transform="translate(446.825 -348.844)" fill="#fff"/>
      <path id="Trazado_144804" data-name="Trazado 144804" d="M-366.513,347.623l1.23-.229a.37.37,0,0,1,.431.3.37.37,0,0,1-.3.431h0l-1.22.233h0a.373.373,0,0,1-.436-.3.373.373,0,0,1,.3-.436Z" transform="translate(431.878 -345.834)" fill="#fff"/>
      <path id="Trazado_144805" data-name="Trazado 144805" d="M-347.33,344.548l1.239-.176a.36.36,0,0,1,.407.306.36.36,0,0,1-.306.407h0l-1.229.181h0a.363.363,0,0,1-.412-.306.363.363,0,0,1,.306-.412Z" transform="translate(416.803 -343.461)" fill="#fff"/>
      <path id="Trazado_144806" data-name="Trazado 144806" d="M-328.023,342.278l1.246-.125a.351.351,0,0,1,.384.314.351.351,0,0,1-.314.384h0l-1.237.13h0a.354.354,0,0,1-.388-.315.354.354,0,0,1,.315-.388Z" transform="translate(401.631 -341.718)" fill="#fff"/>
      <path id="Trazado_144807" data-name="Trazado 144807" d="M-308.627,340.812l1.248-.073a.341.341,0,0,1,.36.32.341.341,0,0,1-.32.36h0l-1.239.078h0a.344.344,0,0,1-.365-.322.344.344,0,0,1,.321-.365Z" transform="translate(386.388 -340.607)" fill="#fff"/>
      <path id="Trazado_144808" data-name="Trazado 144808" d="M-289.187,340.147l1.251-.021a.331.331,0,0,1,.337.326.331.331,0,0,1-.326.337h0l-1.243.027h0a.334.334,0,0,1-.341-.327.334.334,0,0,1,.327-.341Z" transform="translate(371.11 -340.126)" fill="#fff"/>
      <path id="Trazado_144809" data-name="Trazado 144809" d="M-269.72,340.174l1.25.03a.321.321,0,0,1,.314.329.321.321,0,0,1-.329.314h0l-1.242-.024h0a.325.325,0,0,1-.318-.331.324.324,0,0,1,.331-.318Z" transform="translate(355.81 -340.163)" fill="#fff"/>
      <path id="Trazado_144810" data-name="Trazado 144810" d="M-250.267,340.925l1.247.083a.312.312,0,0,1,.29.332.312.312,0,0,1-.332.29h0l-1.239-.077h0a.315.315,0,0,1-.295-.333.315.315,0,0,1,.333-.295Z" transform="translate(340.521 -340.753)" fill="#fff"/>
      <path id="Trazado_144811" data-name="Trazado 144811" d="M-230.874,342.551l1.242.149a.3.3,0,0,1,.264.336.3.3,0,0,1-.336.264h0l-1.232-.142h-.005a.305.305,0,0,1-.268-.338.305.305,0,0,1,.338-.268Z" transform="translate(325.28 -342.03)" fill="#fff"/>
      <path id="Trazado_144812" data-name="Trazado 144812" d="M-211.6,345.3l1.23.233a.293.293,0,0,1,.233.342.292.292,0,0,1-.342.233h-.005l-1.218-.225h-.007a.3.3,0,0,1-.237-.344.3.3,0,0,1,.344-.237Z" transform="translate(310.137 -344.188)" fill="#fff"/>
      <path id="Trazado_144813" data-name="Trazado 144813" d="M-192.581,349.464l1.207.338a.283.283,0,0,1,.2.349.283.283,0,0,1-.349.2l-.006,0-1.193-.328-.008,0a.286.286,0,0,1-.2-.351.286.286,0,0,1,.351-.2Z" transform="translate(295.195 -347.458)" fill="#fff"/>
      <path id="Trazado_144814" data-name="Trazado 144814" d="M-174.014,355.35l1.166.461a.273.273,0,0,1,.154.354.273.273,0,0,1-.354.154l-.007,0-1.15-.449-.009,0a.276.276,0,0,1-.157-.358.276.276,0,0,1,.357-.157Z" transform="translate(280.611 -352.078)" fill="#fff"/>
      <path id="Trazado_144815" data-name="Trazado 144815" d="M-156.208,363.233l1.1.6a.264.264,0,0,1,.106.357.264.264,0,0,1-.357.105l-.008,0-1.087-.585-.009,0a.267.267,0,0,1-.108-.361.266.266,0,0,1,.361-.108Z" transform="translate(266.626 -358.265)" fill="#fff"/>
      <path id="Trazado_144816" data-name="Trazado 144816" d="M-139.565,373.351l1,.756a.254.254,0,0,1,.05.356.254.254,0,0,1-.355.05l-.009-.006-.989-.737-.009-.007a.257.257,0,0,1-.052-.359.257.257,0,0,1,.359-.052Z" transform="translate(253.557 -366.203)" fill="#fff"/>
      <path id="Trazado_144817" data-name="Trazado 144817" d="M-124.626,385.858l.877.9a.244.244,0,0,1,0,.345.244.244,0,0,1-.345,0l-.007-.008-.865-.881-.008-.008a.247.247,0,0,1,0-.349.247.247,0,0,1,.349,0Z" transform="translate(241.823 -376.017)" fill="#fff"/>
      <path id="Trazado_144818" data-name="Trazado 144818" d="M-111.816,400.536l.718,1.032a.234.234,0,0,1-.058.326.234.234,0,0,1-.326-.059l-.006-.009-.709-1.009-.007-.01a.237.237,0,0,1,.058-.331.237.237,0,0,1,.331.058Z" transform="translate(231.76 -387.534)" fill="#fff"/>
      <path id="Trazado_144819" data-name="Trazado 144819" d="M-101.66,417.156l.52,1.148a.225.225,0,0,1-.112.3.225.225,0,0,1-.3-.112l-.005-.011-.515-1.122-.006-.012a.228.228,0,0,1,.112-.3.228.228,0,0,1,.3.112Z" transform="translate(223.778 -400.574)" fill="#fff"/>
      <path id="Trazado_144820" data-name="Trazado 144820" d="M-94.836,435.4l.272,1.23a.215.215,0,0,1-.164.256.215.215,0,0,1-.256-.164l0-.013-.271-1.2,0-.014a.218.218,0,0,1,.165-.261.218.218,0,0,1,.261.164Z" transform="translate(218.411 -414.888)" fill="#fff"/>
      <path id="Trazado_144821" data-name="Trazado 144821" d="M-92.088,454.688l0,.418a.208.208,0,0,1-.205.21.207.207,0,0,1-.21-.205v0l-.006-.408v0a.209.209,0,0,1,.205-.212.208.208,0,0,1,.211.205Z" transform="translate(216.24 -430.021)" fill="#fff"/>
    </g>
  </g>
</svg>
