<svg xmlns="http://www.w3.org/2000/svg" width="50.363" height="58.781" viewBox="0 0 50.363 58.781">
  <path id="administracion" d="M9.185,19.632A10.459,10.459,0,0,1,19.632,9.185v4.592a5.862,5.862,0,0,0-5.855,5.855ZM31.978,29.7a17.489,17.489,0,0,0,4.841.833,41.376,41.376,0,0,1-3.606,5.32c-2.449,3.223-4.383,5.768-4.383,10.006v6.037a6.9,6.9,0,0,1-6.888,6.888H17.552a6.9,6.9,0,0,1-6.888-6.888V45.856c0-4.238-1.934-6.783-4.383-10.006C3.353,32,.037,27.633,0,19.747H0v-.131A19.75,19.75,0,0,1,24.832.665,17.667,17.667,0,0,0,21.84,4.738,15.154,15.154,0,0,0,4.592,19.689c.02,6.374,2.607,9.779,5.345,13.383,2.125,2.8,4.308,5.67,5.052,9.752H24.5c.744-4.082,2.928-6.956,5.052-9.752C30.4,31.959,31.232,30.865,31.978,29.7Zm-7.741,22.2V47.415H15.256v4.477a2.3,2.3,0,0,0,2.3,2.3h4.388A2.3,2.3,0,0,0,24.237,51.893ZM46.245,15.269a9.116,9.116,0,0,1-.985,2.366l2.915,2.915L44.929,23.8l-2.916-2.915a9.127,9.127,0,0,1-2.4.994v4.07H35.016v-4.09a9.134,9.134,0,0,1-2.327-.974L29.774,23.8,26.527,20.55l2.915-2.915a9.115,9.115,0,0,1-.985-2.366H24.339V10.677h4.118a9.115,9.115,0,0,1,.985-2.366L26.527,5.4l3.247-3.247L32.69,5.064a9.131,9.131,0,0,1,2.441-1V0h4.592V4.1a9.129,9.129,0,0,1,2.289.963l2.916-2.915L48.175,5.4,45.26,8.311a9.116,9.116,0,0,1,.985,2.366h4.118v4.592Zm-8.894,2.3A4.592,4.592,0,1,0,34.7,9.225l-1.1,1.1a4.589,4.589,0,0,0,3.748,7.241Zm0,0" fill="#ff7758"/>
</svg>
