<svg id="presentacion" xmlns="http://www.w3.org/2000/svg" width="67.213" height="58.782" viewBox="0 0 67.213 58.782">
  <path id="Trazado_101556" data-name="Trazado 101556" d="M61.026,0H31.5A6.2,6.2,0,0,0,25.31,6.187V25.129L19.827,22.4c-.185-.092-.373-.179-.563-.262a9.35,9.35,0,1,0-12.9.572A12.462,12.462,0,0,0,0,33.606v6.327A6.2,6.2,0,0,0,4.218,45.8V56.807a1.969,1.969,0,0,0,1.969,1.969H18.842a1.969,1.969,0,0,0,1.969-1.969V34.683l6.3,3.152a5.4,5.4,0,0,0,7.165-2.259h7.06L33.865,56.134a1.969,1.969,0,0,0,3.7,1.346l7.965-21.9h1.38l8.047,21.911a1.969,1.969,0,0,0,3.7-1.358L51.107,35.576h9.918a6.187,6.187,0,0,0,6.187-6.187V6.187A6.187,6.187,0,0,0,61.026,0ZM7.1,15.679a5.413,5.413,0,1,1,5.413,5.413A5.419,5.419,0,0,1,7.1,15.679ZM30.915,33.47c-.005.014-.01.029-.015.044a1.456,1.456,0,0,1-2.023.8c-3.744-1.873-9.155-4.576-9.155-4.576A1.97,1.97,0,0,0,16.873,31.5V54.838H8.157V44.152a1.97,1.97,0,0,0-1.969-1.969,2.251,2.251,0,0,1-2.249-2.249V33.606a8.578,8.578,0,0,1,8.576-8.576h1.74a8.581,8.581,0,0,1,3.816.9s9.767,4.857,12.255,6.1A1.181,1.181,0,0,1,30.915,33.47Zm32.359-4.082a2.234,2.234,0,0,1-.658,1.591,2.264,2.264,0,0,1-1.591.658H34.709c0-.011-.006-.022-.01-.032l4.887-9.773a1.969,1.969,0,0,0-3.522-1.761L31.9,28.406l-2.648-1.318V6.187A2.252,2.252,0,0,1,31.5,3.938H61.026a2.262,2.262,0,0,1,1.592.659,2.231,2.231,0,0,1,.657,1.59Zm0,0" fill="#ff7758"/>
  <path id="Trazado_101557" data-name="Trazado 101557" d="M280.127,64.266H259.036a1.969,1.969,0,1,0,0,3.938h21.092a1.969,1.969,0,1,0,0-3.938Zm0,0" transform="translate(-223.32 -55.829)" fill="#ff7758"/>
  <path id="Trazado_101558" data-name="Trazado 101558" d="M349.914,120.5H339.368a1.969,1.969,0,0,0,0,3.938h10.546a1.969,1.969,0,0,0,0-3.938Zm0,0" transform="translate(-293.106 -104.681)" fill="#ff7758"/>
  <path id="Trazado_101559" data-name="Trazado 101559" d="M349.914,176.734H339.368a1.969,1.969,0,0,0,0,3.938h10.546a1.969,1.969,0,0,0,0-3.938Zm0,0" transform="translate(-293.106 -153.534)" fill="#ff7758"/>
</svg>
