<svg xmlns="http://www.w3.org/2000/svg" width="81.581" height="81.527" viewBox="0 0 81.581 81.527">
  <g id="jefe-2" transform="translate(0 0)">
    <g id="Grupo_82529" data-name="Grupo 82529" transform="translate(1.195 1.195)">
      <g id="Grupo_82528" data-name="Grupo 82528">
        <g id="Grupo_82526" data-name="Grupo 82526" transform="translate(11.742)">
          <path id="Trazado_141354" data-name="Trazado 141354" d="M127.238,40.452a8.611,8.611,0,0,0-8.611-8.611H89.8a8.611,8.611,0,0,0-8.611,8.611c0,10.671,1.823,13.363,1.823,24.034V90.916h42.4V64.485c0-10.671,1.823-13.363,1.823-24.034Z" transform="translate(-81.19 -27.99)" fill="#675d84"/>
          <g id="Grupo_82501" data-name="Grupo 82501" transform="translate(12.508 15.936)">
            <path id="Trazado_141355" data-name="Trazado 141355" d="M325.716,107.682h-2.487v6.673h2.487a2.147,2.147,0,0,0,2.147-2.147v-2.379A2.147,2.147,0,0,0,325.716,107.682Z" transform="translate(-297.171 -107.682)" fill="#f6e2bf"/>
            <path id="Trazado_141356" data-name="Trazado 141356" d="M164.322,107.682h-2.487a2.147,2.147,0,0,0-2.147,2.147v2.379a2.147,2.147,0,0,0,2.147,2.147h2.487Z" transform="translate(-159.688 -107.682)" fill="#f6e2bf"/>
          </g>
          <g id="Grupo_82502" data-name="Grupo 82502" transform="translate(18.582 28.305)">
            <path id="Trazado_141357" data-name="Trazado 141357" d="M207.081,219.55l9.272-21.335c-.105-.014-.208-1.461-.307-1.474a2.054,2.054,0,0,1-1.79-2.036v-9.392H199.906V194.7a2.054,2.054,0,0,1-1.79,2.036c-.1.013-.2,1.46-.307,1.474Z" transform="translate(-197.809 -185.313)" fill="#faefdb"/>
          </g>
          <path id="Trazado_141358" data-name="Trazado 141358" d="M323.424,31.841H313.313a8.611,8.611,0,0,1,8.611,8.611c0,10.671-1.823,13.363-1.823,24.034V90.916h10.111V64.485c0-10.671,1.823-13.363,1.823-24.034a8.611,8.611,0,0,0-8.611-8.611Z" transform="translate(-276.327 -27.99)" fill="#675d84"/>
          <g id="Grupo_82525" data-name="Grupo 82525" transform="translate(0.424)">
            <g id="Grupo_82523" data-name="Grupo 82523">
              <g id="Grupo_82522" data-name="Grupo 82522">
                <g id="Grupo_82519" data-name="Grupo 82519">
                  <g id="Grupo_82518" data-name="Grupo 82518">
                    <g id="Grupo_82517" data-name="Grupo 82517" transform="translate(0 1.116)">
                      <g id="Grupo_82516" data-name="Grupo 82516">
                        <g id="Grupo_82515" data-name="Grupo 82515">
                          <g id="Grupo_82514" data-name="Grupo 82514">
                            <g id="Grupo_82513" data-name="Grupo 82513">
                              <g id="Grupo_82512" data-name="Grupo 82512">
                                <g id="Grupo_82511" data-name="Grupo 82511">
                                  <g id="Grupo_82510" data-name="Grupo 82510">
                                    <g id="Grupo_82509" data-name="Grupo 82509">
                                      <g id="Grupo_82508" data-name="Grupo 82508">
                                        <g id="Grupo_82507" data-name="Grupo 82507">
                                          <g id="Grupo_82506" data-name="Grupo 82506">
                                            <g id="Grupo_82505" data-name="Grupo 82505">
                                              <path id="Trazado_141359" data-name="Trazado 141359" d="M196.4,44.442a10.853,10.853,0,0,0,3.486-8.208l0-20.475a12.271,12.271,0,0,0-4.974-1.088,12.434,12.434,0,0,0-8.118,3.111,10.823,10.823,0,0,0-3.46,5.857l.009,12.439a10.769,10.769,0,0,0,3.451,8.152,12.674,12.674,0,0,0,5.177,2.734,12.91,12.91,0,0,0,4.426-2.523Z" transform="translate(-167.484 -14.672)" fill="#faefdb"/>
                                              <path id="Trazado_141360" data-name="Trazado 141360" d="M249.52,41.275h0V28.836a10.823,10.823,0,0,0-3.46-5.857,13.061,13.061,0,0,0-3.381-2.126l0,20.422a10.778,10.778,0,0,1-3.462,8.152,12.767,12.767,0,0,1-4.695,2.6,12.022,12.022,0,0,0,11.541-2.6A10.778,10.778,0,0,0,249.52,41.275Z" transform="translate(-210.51 -19.868)" fill="#f6e2bf"/>
                                              <g id="Grupo_82503" data-name="Grupo 82503" transform="translate(0 38.075)">
                                                <path id="Trazado_141361" data-name="Trazado 141361" d="M129.379,270.1a9.99,9.99,0,0,0-5.927-9.127c-2.571-1.145-7.341-2-10.592-2.493l-1.58,1.228-7.821-6.081a2.049,2.049,0,0,1-1.144.542c-3.054.4-9.257,1.338-12.538,2.8A9.99,9.99,0,0,0,83.85,266.1v13.488a2.888,2.888,0,0,0,2.888,2.888h42.641Z" transform="translate(-83.85 -253.633)" fill="#f7f4f7"/>
                                              </g>
                                              <g id="Grupo_82504" data-name="Grupo 82504" transform="translate(28.526 38.075)">
                                                <path id="Trazado_141362" data-name="Trazado 141362" d="M283.287,256.974c-3.281-1.461-9.484-2.4-12.538-2.8a2.049,2.049,0,0,1-1.144-.542l-6.725,5.228c3.253.492,7.715,1.325,10.327,2.488a9.99,9.99,0,0,1,5.927,9.126v12h7.193a2.888,2.888,0,0,0,2.888-2.888V266.1A9.99,9.99,0,0,0,283.287,256.974Z" transform="translate(-262.88 -253.633)" fill="#edeaed"/>
                                              </g>
                                            </g>
                                          </g>
                                        </g>
                                      </g>
                                    </g>
                                  </g>
                                </g>
                              </g>
                            </g>
                          </g>
                        </g>
                      </g>
                    </g>
                    <path id="Trazado_141363" data-name="Trazado 141363" d="M184.036,15.7a14.063,14.063,0,0,0,4.518-.746l.287-.1.055-.018V7.793l-.237-.122H179.04a8.78,8.78,0,0,0-8.78,8.78v7.207a2.155,2.155,0,0,1,.462-.051h2.047a2.39,2.39,0,0,0,1.549-2.236V16.807a2.3,2.3,0,0,1,2.3-2.3h.5a6.582,6.582,0,0,1,2.114.349l.287.1A14.071,14.071,0,0,0,184.036,15.7Z" transform="translate(-156.492 -7.671)" fill="#e8ae4d"/>
                    <path id="Trazado_141364" data-name="Trazado 141364" d="M294.188,23.606a2.156,2.156,0,0,1,.462.051c0-.475,0-2.62,0-7.207a8.781,8.781,0,0,0-8.78-8.78h-.142v7.245l.182-.062a6.582,6.582,0,0,1,2.114-.349h.268a2.3,2.3,0,0,1,2.3,2.3v4.563a2.39,2.39,0,0,0,1.549,2.236h2.047Z" transform="translate(-253.559 -7.67)" fill="#e8ae4d"/>
                    <path id="Trazado_141365" data-name="Trazado 141365" d="M235.995,291.794h0l-3.792,1.914,1.913,4.079h3.758l1.913-4.079Z" transform="translate(-208.565 -246.522)" fill="#7296d1"/>
                  </g>
                  <path id="Trazado_141366" data-name="Trazado 141366" d="M225.74,329.4h-3.758l-4.212,16.77h12.183Z" transform="translate(-196.431 -278.139)" fill="#88a8d8"/>
                </g>
                <g id="Grupo_82521" data-name="Grupo 82521" transform="translate(15.586 39.191)">
                  <path id="Trazado_141367" data-name="Trazado 141367" d="M184.545,254.175c-.786.1-1.78.24-2.879.414l2.836,7.287a1.942,1.942,0,0,0,2.684,1.029l6.324-3.192-7.821-6.08A2.049,2.049,0,0,1,184.545,254.175Z" transform="translate(-181.666 -253.633)" fill="#e0dde0"/>
                  <g id="Grupo_82520" data-name="Grupo 82520" transform="translate(11.844 4.852)">
                    <path id="Trazado_141368" data-name="Trazado 141368" d="M257.58,284.086,256,285.314l6.324,3.192a1.941,1.941,0,0,0,2.684-1.029l.684-1.757a72.414,72.414,0,0,0-8.112-1.633Z" transform="translate(-256 -284.086)" fill="#e0dde0"/>
                  </g>
                </g>
              </g>
            </g>
            <path id="Trazado_141369" data-name="Trazado 141369" d="M170.272,274.77a9.99,9.99,0,0,0-5.927-9.126,20.668,20.668,0,0,0-3.009-1l-7.362,18.078a1.945,1.945,0,0,1-3.6,0l-9.584-23.535a59.661,59.661,0,0,0-8.294,1.78v26.179h37.778Z" transform="translate(-124.743 -219.108)" fill="#ff7758"/>
            <path id="Trazado_141370" data-name="Trazado 141370" d="M271.273,260.639l2.355-6.05c-1.1-.174-2.094-.312-2.879-.414a2.049,2.049,0,0,1-1.144-.542l-6.725,5.228A61.257,61.257,0,0,1,271.273,260.639Z" transform="translate(-234.354 -214.442)" fill="#d1ccd3"/>
            <g id="Grupo_82524" data-name="Grupo 82524" transform="translate(36.388 40.076)">
              <path id="Trazado_141371" data-name="Trazado 141371" d="M314.647,259.183l-2.428,5.961a19.692,19.692,0,0,1,2.465.871,9.99,9.99,0,0,1,5.927,9.127v12h2.341V260.967A59.59,59.59,0,0,0,314.647,259.183Z" transform="translate(-312.219 -259.183)" fill="#ff7758"/>
            </g>
          </g>
        </g>
        <g id="Grupo_82527" data-name="Grupo 82527" transform="translate(0 57.529)">
          <path id="Trazado_141372" data-name="Trazado 141372" d="M86.4,393.678v-18.51H21.25v18.51a2.07,2.07,0,0,0,2.07,2.07H84.333a2.07,2.07,0,0,0,2.07-2.07Z" transform="translate(-19.059 -374.14)" fill="#963c28"/>
          <path id="Trazado_141373" data-name="Trazado 141373" d="M416.561,375.168v18.51a2.07,2.07,0,0,1-2.07,2.07h10.081a2.07,2.07,0,0,0,2.07-2.07v-18.51Z" transform="translate(-349.642 -374.14)" fill="#963c28"/>
          <path id="Trazado_141374" data-name="Trazado 141374" d="M77.035,373.068v-3.707l-.425-.642H9.687A2.187,2.187,0,0,0,7.5,370.906v2.162a2.187,2.187,0,0,0,2.187,2.187h65.16a2.187,2.187,0,0,0,2.188-2.187Z" transform="translate(-7.5 -368.719)" fill="#963c28"/>
          <path id="Trazado_141375" data-name="Trazado 141375" d="M437.588,368.719H429.7v4.349a2.187,2.187,0,0,1-2.187,2.187h10.081a2.187,2.187,0,0,0,2.187-2.187v-2.162A2.188,2.188,0,0,0,437.588,368.719Z" transform="translate(-360.585 -368.719)" fill="#963c28"/>
        </g>
      </g>
    </g>
    <g id="Grupo_82530" data-name="Grupo 82530" transform="translate(0 0)">
      <path id="Trazado_141376" data-name="Trazado 141376" d="M78.2,57.7H69.416V53.024a11.17,11.17,0,0,0-1.4-5.413c.127-7.451-.416-12.979.9-21.586.327-2.145.571-4.331.724-6.495a1.2,1.2,0,1,0-2.384-.169c-.149,2.1-.385,4.221-.7,6.3-1.294,8.475-.825,14.143-.925,18.972-3.562-3.145-10.939-4.1-15.717-4.723a.859.859,0,0,1-.749-.851V33.379c.178-.14.354-.284.528-.434a11.625,11.625,0,0,0,3.8-7.776h.5a3.346,3.346,0,0,0,3.342-3.342V19.448a3.362,3.362,0,0,0-1.685-2.9V10.145a9.922,9.922,0,0,0-.728-3.734h5.116a7.424,7.424,0,0,1,7.416,7.416,1.2,1.2,0,0,0,2.39,0,9.817,9.817,0,0,0-9.806-9.806h-6.5A9.962,9.962,0,0,0,45.67.17H35.909a9.96,9.96,0,0,0-7.865,3.851h-6.5a9.817,9.817,0,0,0-9.806,9.806,81.123,81.123,0,0,0,.925,12.2c1.314,8.611.771,14.141.9,21.586a11.168,11.168,0,0,0-1.4,5.413V57.7H3.383A3.386,3.386,0,0,0,0,61.081v2.162A3.385,3.385,0,0,0,2.191,66.4V78.431A3.269,3.269,0,0,0,5.456,81.7H76.125a3.269,3.269,0,0,0,3.265-3.265V66.4a3.385,3.385,0,0,0,2.191-3.162V61.081A3.386,3.386,0,0,0,78.2,57.7ZM67.025,53.024V57.7h-5.35V44.932A8.8,8.8,0,0,1,67.025,53.024ZM46.846,57.7,52.925,42.77a60.732,60.732,0,0,1,6.361,1.344V57.7ZM31.979,42.283a3.25,3.25,0,0,0,.926-.263l5.66,4.4-4.638,2.341a.731.731,0,0,1-.223.071L31.087,42.4c.33-.046.631-.086.892-.12Zm14.6,8.612a3.116,3.116,0,0,0,.393.164l-2.141,5.257-.9-3.565,1.21-2.58Zm-6.905.539-1.1-2.34,2.217-1.119,2.217,1.119-1.1,2.34ZM35,50.9l1.434-.724,1.21,2.58-.9,3.565L34.612,51.06A3.119,3.119,0,0,0,35,50.9Zm4.838,2.929h1.894l.973,3.874H38.87ZM50.494,42.4l-2.618,6.429a.731.731,0,0,1-.223-.071L44.6,47.22l-1.584-.8,5.66-4.4a5.747,5.747,0,0,0,1.818.383Zm-3.48-2.118L40.79,45.123l-6.223-4.838a3.242,3.242,0,0,0,.244-1.223V34.908a13.4,13.4,0,0,0,5.966,1.437H40.8a13.4,13.4,0,0,0,5.966-1.437v4.154a3.242,3.242,0,0,0,.244,1.223Zm1.115-9.151a10.954,10.954,0,0,1-14.676,0,9.62,9.62,0,0,1-3.033-7.173c0-.007,0-.013,0-.019-.01-7.911-.006-5.025-.007-5.681a3.6,3.6,0,0,0,1.97-3.2V10.5a1.108,1.108,0,0,1,1.107-1.107h.5c1.905,0,3.083,1.192,6.919,1.192,3.765,0,5.054-1.192,6.919-1.192h.268A1.108,1.108,0,0,1,49.2,10.5v4.564a3.6,3.6,0,0,0,1.975,3.2v5.624c0,.072,0,.072,0,.092a9.609,9.609,0,0,1-3.044,7.154ZM26.639,19.448a.956.956,0,0,1,.746-.929.969.969,0,0,1,.206-.023h.431l0,4.283h-.435a.953.953,0,0,1-.952-.952Zm28.3,2.379a.953.953,0,0,1-.952.952h-.426V18.5h.426a.956.956,0,0,1,.952.952v2.379ZM35.909,2.56H45.67a7.6,7.6,0,0,1,7.585,7.585v5.96H52.2a1.2,1.2,0,0,1-.611-1.041V10.5a3.5,3.5,0,0,0-3.5-3.5h-.268C45.244,7,44.51,8.2,40.9,8.2,37.343,8.2,36.548,7,33.985,7h-.5a3.5,3.5,0,0,0-3.5,3.5v4.564a1.2,1.2,0,0,1-.611,1.041H28.324V10.145A7.593,7.593,0,0,1,35.909,2.56ZM21.547,6.411h5.114a9.919,9.919,0,0,0-.728,3.733v6.408a3.362,3.362,0,0,0-1.685,2.9v2.379a3.346,3.346,0,0,0,3.342,3.342H28.1a11.442,11.442,0,0,0,3.789,7.776c.174.15.35.294.528.434v5.683a.86.86,0,0,1-.749.851c-4.73.614-12.148,1.572-15.717,4.723-.1-4.84.374-10.458-.925-18.972a78.733,78.733,0,0,1-.9-11.837,7.424,7.424,0,0,1,7.416-7.416ZM14.556,53.024a8.8,8.8,0,0,1,5.361-8.1v3.338a1.2,1.2,0,1,0,2.39,0V44.111a60.828,60.828,0,0,1,6.35-1.341l3.082,7.568h0l3,7.36H22.307V53.852a1.2,1.2,0,1,0-2.39,0V57.7H14.556ZM2.39,61.081a.994.994,0,0,1,.993-.992H78.2a.994.994,0,0,1,.993.992v2.162a.994.994,0,0,1-.993.993H3.383a.994.994,0,0,1-.993-.993ZM76.125,79.307H5.456a.876.876,0,0,1-.875-.875V66.626H77V78.431A.876.876,0,0,1,76.125,79.307Z" transform="translate(0 -0.17)"/>
    </g>
  </g>
</svg>
