<svg xmlns="http://www.w3.org/2000/svg" width="78.987" height="78.987" viewBox="0 0 78.987 78.987">
  <g id="liderazgo-2" transform="translate(0 0)">
    <path id="Trazado_141326" data-name="Trazado 141326" d="M442.373,54.093h4.792v4.792h-4.792Z" transform="translate(-374.127 -45.748)" fill="#ff7758"/>
    <path id="Trazado_141327" data-name="Trazado 141327" d="M395.941,23.031H403.1v4.792h-7.163Z" transform="translate(-334.859 -19.478)" fill="#ff7758"/>
    <path id="Trazado_141328" data-name="Trazado 141328" d="M380.453,364.7h19.136v21.567H380.453Z" transform="translate(-321.76 -308.434)" fill="#c3b5ec"/>
    <path id="Trazado_141330" data-name="Trazado 141330" d="M256,395.758h19.2v16.775H256Z" transform="translate(-216.506 -334.704)" fill="#ffba5b"/>
    <path id="Trazado_141332" data-name="Trazado 141332" d="M131.75,426.82h19.168V438.8H131.75Z" transform="translate(-111.425 -360.974)" fill="#ff7758"/>
    <path id="Trazado_141334" data-name="Trazado 141334" d="M7.5,458.087H26.669v7.16H7.5Z" transform="translate(-6.344 -387.418)" fill="#675d84"/>
    <path id="Trazado_141336" data-name="Trazado 141336" d="M304.869,245.453l-8.223-5.007h-9.584v23.96h4.792V244.624l9.566,4.537v10.453h4.829v-11.98A2.415,2.415,0,0,0,304.869,245.453Z" transform="translate(-242.776 -203.352)" fill="#68748f"/>
    <path id="Trazado_141338" data-name="Trazado 141338" d="M342.685,272.064v10.453h-2.314V272.064l-7.252-3.44v-1.1Z" transform="translate(-281.728 -226.256)" fill="#5d6980"/>
    <path id="Trazado_141339" data-name="Trazado 141339" d="M87.432,307.578l-8.223-5.007H69.625v23.96h4.792V306.749l9.566,4.537v10.453h4.829v-11.98a2.414,2.414,0,0,0-1.38-2.181Z" transform="translate(-58.884 -255.893)" fill="#68748f"/>
    <path id="Trazado_141341" data-name="Trazado 141341" d="M125.254,334.186v10.452H122.94V334.186l-7.251-3.44v-1.1Z" transform="translate(-97.842 -278.792)" fill="#5d6980"/>
    <path id="Trazado_141342" data-name="Trazado 141342" d="M298.421,79.188a3.594,3.594,0,0,1-3.594-3.594V73.2a3.594,3.594,0,0,1,7.188,0v2.4A3.594,3.594,0,0,1,298.421,79.188Z" transform="translate(-249.344 -58.866)" fill="#ffcebf"/>
    <path id="Trazado_141344" data-name="Trazado 141344" d="M80.985,141.312a3.594,3.594,0,0,1-3.594-3.594v-2.4a3.594,3.594,0,0,1,7.188,0v2.4A3.594,3.594,0,0,1,80.985,141.312Z" transform="translate(-65.452 -111.406)" fill="#ffcebf"/>
    <path id="Trazado_141346" data-name="Trazado 141346" d="M64.548,177.547v5.4L61.2,184.619a2.426,2.426,0,0,1-1.08.255H52.936v11.961H43.352v4.795l-1.557,0a3.24,3.24,0,0,1-3.237-3.24V184.781a4.719,4.719,0,0,1,4.719-4.718l16.276-.019Z" transform="translate(-32.611 -150.157)" fill="#ff7758"/>
    <path id="Trazado_141348" data-name="Trazado 141348" d="M238.554,87.547v6.347a3.239,3.239,0,0,1-3.24,3.24h-6.362v11.981h-9.585V97.152h-1.4l-4.084,4.085a2.419,2.419,0,0,1-.628.452l-6.24,3.121v-5.4l3.73-1.865,4.514-4.514a2.415,2.415,0,0,1,1.708-.708l16.8.019V87.547a2.39,2.39,0,1,1,4.779,0Z" transform="translate(-175.082 -72.02)" fill="#ffba5b"/>
    <path id="Trazado_141353" data-name="Trazado 141353" d="M77.831,55.105H73.164a1.157,1.157,0,1,0,0,2.314h3.51V76.673H59.851V57.419h8.271a1.157,1.157,0,1,0,0-2.314H64.63V44.282a3.588,3.588,0,0,0-1.981-3.2l-7.621-4.64V33.633a1.157,1.157,0,0,0-2.314,0v2.3H45.443V25.132a1.157,1.157,0,0,0-1.157-1.157h-1.4a1.158,1.158,0,0,0-.818.339L37.988,28.4a1.253,1.253,0,0,1-.327.235L33.1,30.917V28.105l3.091-1.546a1.158,1.158,0,0,0,.3-.217L41,21.829a1.25,1.25,0,0,1,.888-.369l16.8.019a1.157,1.157,0,0,0,1.158-1.157V15.527a1.233,1.233,0,0,1,2.465,0v6.347a2.1,2.1,0,0,1-2.083,2.083H53.871a1.157,1.157,0,0,0-1.157,1.157v3.479a1.157,1.157,0,0,0,2.314,0V26.27h5.205a4.544,4.544,0,0,0,4.4-4.4V15.527a3.552,3.552,0,0,0-2.389-3.352V9.5H67.09v3.635a1.157,1.157,0,0,0,1.157,1.157h4.792A1.157,1.157,0,0,0,74.2,13.137V8.345a1.157,1.157,0,0,0-1.157-1.157H69.4V3.553A1.157,1.157,0,0,0,68.247,2.4H62.241V1.157a1.157,1.157,0,0,0-2.314,0V12.175a3.552,3.552,0,0,0-2.39,3.352v3.636l-4.378,0a4.722,4.722,0,0,0,.671-2.431v-2.4a4.751,4.751,0,0,0-9.5,0v2.4a4.721,4.721,0,0,0,.666,2.421l-3.1,0a3.549,3.549,0,0,0-2.526,1.047l-4.381,4.381-8.312,4.157-7.054.008a4.722,4.722,0,0,0,.669-2.427v-2.4a4.751,4.751,0,1,0-9.5,0v2.4a4.721,4.721,0,0,0,.674,2.437h-.789a5.882,5.882,0,0,0-5.876,5.875V48.23c0,2.773,2.263,4.323,4.793,4.4V69.512H1.158A1.157,1.157,0,0,0,0,70.669v7.16a1.157,1.157,0,0,0,1.157,1.157H77.831a1.157,1.157,0,0,0,1.157-1.157V56.262a1.157,1.157,0,0,0-1.157-1.157ZM71.882,11.98H69.4V9.5h2.478ZM67.09,4.71V7.188H62.24V4.71ZM46.641,16.728v-2.4a2.437,2.437,0,0,1,4.874,0v2.4C51.515,19.805,46.641,19.918,46.641,16.728ZM57.536,59.9h-7.3V43.1l7.252,3.44ZM53.546,38.251s8.015,4.878,8.051,4.895a1.263,1.263,0,0,1,.719,1.136V55.1H59.8v-9.3a1.157,1.157,0,0,0-.661-1.045l-9.566-4.538c-.978-.429-1.659,0-1.653,1.045V59.9H45.443V38.251ZM13.1,26.312v-2.4a2.437,2.437,0,1,1,4.874,0v2.4c0,3.067-4.874,3.2-4.874,0ZM7.106,48.231V34.624a3.566,3.566,0,0,1,3.564-3.561l16.276-.019a1.156,1.156,0,0,0,.516-.122l3.319-1.66v2.812l-2.7,1.352a1.275,1.275,0,0,1-.564.133H20.326a1.157,1.157,0,0,0-1.157,1.157v3.365a1.157,1.157,0,1,0,2.314,0V35.874h6.03a3.6,3.6,0,0,0,1.6-.377L38.7,30.7a3.564,3.564,0,0,0,.929-.669l3.5-3.506V59.9H39.494a1.157,1.157,0,0,0-1.157,1.157v3.635H31.086V53.866a3.588,3.588,0,0,0-1.981-3.2l-7.621-4.64v-2.9a1.157,1.157,0,0,0-2.314,0v2.4H11.9V37.049a1.157,1.157,0,0,0-2.314,0V50.314c-1.446-.008-2.484-.451-2.479-2.083ZM25.6,54.347,16.03,49.81c-.969-.391-1.643.072-1.653,1.045V69.481H11.9V47.835H20s8.015,4.878,8.051,4.9a1.263,1.263,0,0,1,.718,1.136V64.689H26.257v-9.3a1.157,1.157,0,0,0-.661-1.045Zm-8.9-1.663,7.252,3.44v8.564H20.326a1.157,1.157,0,0,0-1.157,1.157v3.667H16.691V52.685ZM2.315,71.826H19.169v4.846H2.315ZM21.483,67H38.337v9.669H21.483Zm19.168-4.792H57.536V76.672H40.651Z" transform="translate(-0.001 0)"/>
  </g>
</svg>
