<svg xmlns="http://www.w3.org/2000/svg" width="74.227" height="75.359" viewBox="0 0 74.227 75.359">
  <g id="rompecabezas" transform="translate(0 -0.001)">
    <path id="Trazado_141313" data-name="Trazado 141313" d="M377.9,345.38V330.638a4.951,4.951,0,0,0-2.11-4.054l-9.3-6.512a3.711,3.711,0,0,0-2.129-.671h-7.49l.124,21.167a5.167,5.167,0,0,0,3.588,4.812H377.9Z" transform="translate(-304.908 -272.389)" fill="#fec9a3"/>
    <path id="Trazado_141314" data-name="Trazado 141314" d="M370.474,438.567h-8.66a4.949,4.949,0,0,1-4.948-4.948V428.67h8.66Z" transform="translate(-304.908 -365.576)" fill="#fabd91"/>
    <path id="Trazado_141315" data-name="Trazado 141315" d="M44.413,17.065a6.17,6.17,0,0,0-2.474.522V8.4H19.671a7.422,7.422,0,0,0-7.423,7.423V38.1H21.43a6.185,6.185,0,1,1,11.327,0h9.182V28.915a6.185,6.185,0,1,0,2.474-11.85Z" transform="translate(-11.011 -7.167)" fill="#675d84"/>
    <path id="Trazado_141316" data-name="Trazado 141316" d="M243.658,15.828A7.422,7.422,0,0,0,236.235,8.4H213.967v9.182a6.185,6.185,0,1,1,0,11.327V38.1h9.182a6.185,6.185,0,1,0,11.327,0h9.182V15.828Z" transform="translate(-183.04 -7.167)" fill="#c3b5ec"/>
    <path id="Trazado_141318" data-name="Trazado 141318" d="M39.464,169.773a6.17,6.17,0,0,1,2.474.522V159.876H32.757a6.185,6.185,0,1,0-11.327,0H12.248v22.268a7.422,7.422,0,0,0,7.423,7.423H41.939v-7.945a6.185,6.185,0,1,1-2.474-11.85Z" transform="translate(-11.011 -128.947)" fill="#ffba5b"/>
    <path id="Trazado_141320" data-name="Trazado 141320" d="M215.066,264.661l-7.827-20.907-8.6,3.238a6.193,6.193,0,1,1-10.6,3.995l-8.6,3.238,3.662,9.784a6.125,6.125,0,0,0-2.5.381,6.2,6.2,0,0,0,4.348,11.618,6.135,6.135,0,0,0,2.134-1.363l2.791,7.461,20.848-7.852A7.451,7.451,0,0,0,215.066,264.661Z" transform="translate(-151.213 -207.876)" fill="#ff7758"/>
    <path id="Trazado_141323" data-name="Trazado 141323" d="M368.631,381.473a3.062,3.062,0,1,0-4.373,4.287c.015.015.028.03.043.043l4.308,4.308a7.422,7.422,0,0,0,7.423,7.423h7.423V396.3Z" transform="translate(-310.466 -324.542)" fill="#fec9a3"/>
    <path id="Trazado_141324" data-name="Trazado 141324" d="M32.3,39.485a7.423,7.423,0,0,0-2.969,14.227l.99-2.266A4.948,4.948,0,0,1,32.3,41.96a4.892,4.892,0,0,1,1.979.418,1.237,1.237,0,0,0,1.732-1.133V32.165H42.3a7.274,7.274,0,0,0-.105,1.237,7.444,7.444,0,0,0,5.938,7.274l.495-2.424A4.965,4.965,0,0,1,44.667,33.4a4.893,4.893,0,0,1,.418-1.979,1.237,1.237,0,0,0-1.133-1.732H36.008V23.4a7.274,7.274,0,0,0,1.237.105,7.423,7.423,0,0,0,0-14.846h0a7.272,7.272,0,0,0-1.237.105V2.474H57.038A6.192,6.192,0,0,1,63.224,8.66V29.691H55.279a1.238,1.238,0,0,0-1.133,1.732,4.893,4.893,0,0,1,.418,1.979h2.474a7.272,7.272,0,0,0-.105-1.237h7.528A1.238,1.238,0,0,0,65.7,30.928V8.66A8.67,8.67,0,0,0,57.039,0H12.5a8.671,8.671,0,0,0-8.66,8.66V53.094a8.671,8.671,0,0,0,8.66,8.66H26.111V59.279H12.5a6.192,6.192,0,0,1-6.185-6.186V32.165h7.945a1.331,1.331,0,0,0,1.231-1.425,1.31,1.31,0,0,0-.1-.411,4.948,4.948,0,1,1,9.061,0,1.282,1.282,0,0,0,1.133,1.836h7.945v7.423A7.125,7.125,0,0,0,32.3,39.485ZM12.5,2.474H33.534v7.945a1.238,1.238,0,0,0,1.732,1.133,4.892,4.892,0,0,1,1.979-.418,4.948,4.948,0,0,1,0,9.9,4.892,4.892,0,0,1-1.979-.418,1.237,1.237,0,0,0-1.732,1.133v7.842H27.252a7.271,7.271,0,0,0,.1-1.134v-.1a7.423,7.423,0,1,0-14.845,0v.1a7.255,7.255,0,0,0,.1,1.134H6.317V8.66A6.193,6.193,0,0,1,12.5,2.474Z" transform="translate(-3.843 0.001)"/>
    <path id="Trazado_141325" data-name="Trazado 141325" d="M215.12,253.271l-10.4-7.162-3.995-10.673a1.236,1.236,0,0,0-1.591-.727l-.068.027-8.041,3.557a1.238,1.238,0,0,0-.656,1.574c.134.346.259.609.391.881a9.47,9.47,0,0,1,.4.929,4.95,4.95,0,1,1-9.568,1.487,1.237,1.237,0,0,0-1.673-1.222l-8.6,3.238a1.237,1.237,0,0,0-.723,1.592l3.085,8.242a6.952,6.952,0,0,0-1.2.332,7.439,7.439,0,1,0,6.34,13.4l2.212,5.909a1.238,1.238,0,0,0,1.592.725h0l12.257-4.618a6.644,6.644,0,0,0,3.918,3.5l.782-2.351a4.175,4.175,0,0,1-2.365-2.021l3.73-1.4a8.633,8.633,0,0,0,8.146,5.741v-2.474a6.224,6.224,0,0,1-6.185-6.186,1.234,1.234,0,0,0-.363-.875l-4.308-4.308a1.835,1.835,0,0,1-.17-2.386,1.8,1.8,0,0,1,1.33-.725,1.771,1.771,0,0,1,1.42.531l8.637,8.638,1.749-1.749-2.556-2.556a8.627,8.627,0,0,0-.11-5.784l-2.318-6.192,7.476,5.148a3.718,3.718,0,0,1,1.582,3.041v15.98h2.474v-15.98A6.2,6.2,0,0,0,215.12,253.271Zm-8.524,6.793-4.016-4.014a4.3,4.3,0,0,0-6.156,6c.025.026.051.052.077.077l3.913,3.913-17.483,6.585-2.358-6.3a1.238,1.238,0,0,0-2.024-.45,4.949,4.949,0,1,1-5.181-8.214,4.775,4.775,0,0,1,1.224-.277,4.528,4.528,0,0,1,.776-.026,1.237,1.237,0,0,0,1.224-1.669l-3.231-8.628,5.891-2.218a7.425,7.425,0,1,0,14.235-4.03c-.114-.3-.217-.546-.315-.761l5.691-2.52,7.373,19.681A6.178,6.178,0,0,1,206.6,260.065Z" transform="translate(-143.54 -200.097)"/>
  </g>
</svg>
