<svg xmlns="http://www.w3.org/2000/svg" width="190" height="118" viewBox="0 0 190 118">
  <g id="Grupo_83647" data-name="Grupo 83647" transform="translate(-180 -3230.221)">
    <rect id="Rect치ngulo_6951" data-name="Rect치ngulo 6951" width="190" height="118" rx="10" transform="translate(180 3230.221)" fill="#ffe9cb"/>
    <rect id="Rect치ngulo_6941" data-name="Rect치ngulo 6941" width="11" height="118" transform="translate(359 3230.221)" fill="#ffba5b"/>
    <g id="curriculum" transform="translate(237.993 3249.221)">
      <g id="Grupo_83333" data-name="Grupo 83333" transform="translate(0.007)">
        <g id="Grupo_83332" data-name="Grupo 83332" transform="translate(0)">
          <path id="Trazado_144317" data-name="Trazado 144317" d="M60.074,21.582a1.451,1.451,0,0,0,1.451-1.451V4.353A4.358,4.358,0,0,0,57.172,0H4.36A4.358,4.358,0,0,0,.007,4.353v65.58A4.358,4.358,0,0,0,4.36,74.285H57.172a4.358,4.358,0,0,0,4.353-4.353V59.244a1.451,1.451,0,0,0-2.9,0V69.933a1.453,1.453,0,0,1-1.451,1.451H4.36a1.453,1.453,0,0,1-1.451-1.451V4.353A1.453,1.453,0,0,1,4.36,2.9H57.172a1.453,1.453,0,0,1,1.451,1.451V20.131A1.451,1.451,0,0,0,60.074,21.582Z" transform="translate(-0.007)" fill="#463c5f"/>
        </g>
      </g>
      <g id="Grupo_83335" data-name="Grupo 83335" transform="translate(17.418 7.835)">
        <g id="Grupo_83334" data-name="Grupo 83334">
          <path id="Trazado_144318" data-name="Trazado 144318" d="M133.355,54A13.342,13.342,0,0,0,124.2,77.05a1.435,1.435,0,0,0,.156.145,13.323,13.323,0,0,0,18,0,1.449,1.449,0,0,0,.156-.145A13.341,13.341,0,0,0,133.355,54Zm0,23.795a10.391,10.391,0,0,1-6.31-2.128,7.254,7.254,0,0,1,12.62,0A10.391,10.391,0,0,1,133.355,77.795Zm-2.321-11.027v-.943a2.321,2.321,0,1,1,4.643,0v.943a2.321,2.321,0,1,1-4.643,0Zm10.728,6.773a10.066,10.066,0,0,0-4.275-3.583,5.2,5.2,0,0,0,1.091-3.19v-.943a5.223,5.223,0,1,0-10.446,0v.943a5.2,5.2,0,0,0,1.091,3.19,10.066,10.066,0,0,0-4.275,3.583,10.446,10.446,0,1,1,16.813,0Z" transform="translate(-120.007 -54)" fill="#463c5f"/>
        </g>
      </g>
      <g id="Grupo_83337" data-name="Grupo 83337" transform="translate(29.315 63.549)">
        <g id="Grupo_83336" data-name="Grupo 83336">
          <path id="Trazado_144319" data-name="Trazado 144319" d="M211.293,438h-7.835a1.451,1.451,0,0,0,0,2.9h7.835a1.451,1.451,0,0,0,0-2.9Z" transform="translate(-202.007 -438)" fill="#463c5f"/>
        </g>
      </g>
      <g id="Grupo_83339" data-name="Grupo 83339" transform="translate(16.547 55.424)">
        <g id="Grupo_83338" data-name="Grupo 83338">
          <path id="Trazado_144320" data-name="Trazado 144320" d="M136.06,382h-20.6a1.451,1.451,0,1,0,0,2.9h20.6a1.451,1.451,0,1,0,0-2.9Z" transform="translate(-114.007 -382)" fill="#463c5f"/>
        </g>
      </g>
      <g id="Grupo_83341" data-name="Grupo 83341" transform="translate(16.547 47.299)">
        <g id="Grupo_83340" data-name="Grupo 83340">
          <path id="Trazado_144321" data-name="Trazado 144321" d="M136.06,326h-20.6a1.451,1.451,0,1,0,0,2.9h20.6a1.451,1.451,0,1,0,0-2.9Z" transform="translate(-114.007 -326)" fill="#463c5f"/>
        </g>
      </g>
      <g id="Grupo_83343" data-name="Grupo 83343" transform="translate(10.349 39.174)">
        <g id="Grupo_83342" data-name="Grupo 83342">
          <path id="Trazado_144322" data-name="Trazado 144322" d="M73.765,270.425a1.45,1.45,0,1,0,.425,1.026A1.462,1.462,0,0,0,73.765,270.425Z" transform="translate(-71.287 -270)" fill="#463c5f"/>
        </g>
      </g>
      <g id="Grupo_83345" data-name="Grupo 83345" transform="translate(10.349 47.299)">
        <g id="Grupo_83344" data-name="Grupo 83344">
          <path id="Trazado_144323" data-name="Trazado 144323" d="M73.765,326.425a1.45,1.45,0,1,0,.425,1.026A1.465,1.465,0,0,0,73.765,326.425Z" transform="translate(-71.287 -326)" fill="#463c5f"/>
        </g>
      </g>
      <g id="Grupo_83347" data-name="Grupo 83347" transform="translate(10.349 55.424)">
        <g id="Grupo_83346" data-name="Grupo 83346">
          <path id="Trazado_144324" data-name="Trazado 144324" d="M73.765,382.425a1.45,1.45,0,1,0,.425,1.026A1.465,1.465,0,0,0,73.765,382.425Z" transform="translate(-71.287 -382)" fill="#463c5f"/>
        </g>
      </g>
      <g id="Grupo_83349" data-name="Grupo 83349" transform="translate(16.547 39.174)">
        <g id="Grupo_83348" data-name="Grupo 83348">
          <path id="Trazado_144325" data-name="Trazado 144325" d="M136.06,270h-20.6a1.451,1.451,0,1,0,0,2.9h20.6a1.451,1.451,0,1,0,0-2.9Z" transform="translate(-114.007 -270)" fill="#463c5f"/>
        </g>
      </g>
      <g id="Grupo_83351" data-name="Grupo 83351" transform="translate(43.183 18.089)">
        <g id="Grupo_83350" data-name="Grupo 83350">
          <path id="Trazado_144326" data-name="Trazado 144326" d="M325.651,125.494a6.094,6.094,0,0,0-8.324,2.23l-18.258,31.624a1.453,1.453,0,0,0-.185.565L297.6,171.425a1.451,1.451,0,0,0,2.3,1.329l9.327-6.869a1.448,1.448,0,0,0,.4-.443l18.258-31.624A6.1,6.1,0,0,0,325.651,125.494Zm-24.8,42.957.671-6.011,4.2,2.424Zm6.986-5.716-5.529-3.192,14.652-25.377,5.529,3.192Zm17.533-30.367-1.43,2.477-5.529-3.192,1.43-2.477a3.192,3.192,0,0,1,5.529,3.192Z" transform="translate(-297.589 -124.675)" fill="#463c5f"/>
        </g>
      </g>
    </g>
  </g>
</svg>
