<svg xmlns="http://www.w3.org/2000/svg" width="85.033" height="85.033" viewBox="0 0 85.033 85.033">
  <g id="humano" transform="translate(0 -0.001)">
    <g id="Grupo_83691" data-name="Grupo 83691" transform="translate(1.372 1.372)">
      <g id="Grupo_83647" data-name="Grupo 83647" transform="translate(11.109 8.229)">
        <path id="Trazado_145192" data-name="Trazado 145192" d="M23.541,13.486H10.1a6.859,6.859,0,0,1,13.441,0Z" transform="translate(-10.1 -8)" fill="#656d78"/>
      </g>
      <g id="Grupo_83648" data-name="Grupo 83648" transform="translate(34.425)">
        <path id="Trazado_145193" data-name="Trazado 145193" d="M40.541,7.486H27.1a6.859,6.859,0,0,1,13.441,0Z" transform="translate(-27.1 -2)" fill="#b27946"/>
      </g>
      <g id="Grupo_83649" data-name="Grupo 83649" transform="translate(57.74 8.229)">
        <path id="Trazado_145194" data-name="Trazado 145194" d="M52.768,8.274a6.867,6.867,0,0,1,4.773,5.212H44.1A6.858,6.858,0,0,1,50.82,8,7.033,7.033,0,0,1,52.768,8.274Z" transform="translate(-44.1 -8)" fill="#e6e9ed"/>
      </g>
      <g id="Grupo_83650" data-name="Grupo 83650" transform="translate(66.408 5.486)">
        <path id="Trazado_145195" data-name="Trazado 145195" d="M60.816,11.486a5.485,5.485,0,0,1-5.486,5.486h-.137a6.926,6.926,0,0,0,0-2.743A6.867,6.867,0,0,0,50.42,9.017a5.493,5.493,0,0,1,10.4,2.469Z" transform="translate(-50.42 -6)" fill="#e6e9ed"/>
      </g>
      <g id="Grupo_83651" data-name="Grupo 83651" transform="translate(8.366 22.081)">
        <path id="Trazado_145196" data-name="Trazado 145196" d="M13.449,19.334a4.109,4.109,0,0,0,4.115,4.115H8.1A6.853,6.853,0,0,1,13.449,18.1Z" transform="translate(-8.1 -18.1)" fill="#b4dd7f"/>
      </g>
      <g id="Grupo_83652" data-name="Grupo 83652" transform="translate(17.83 22.081)">
        <path id="Trazado_145197" data-name="Trazado 145197" d="M24.559,24.093a14.563,14.563,0,0,0-1.07,3.442,8.263,8.263,0,0,0-7.118-4.087H15a4.121,4.121,0,0,0,4.115-4.115V18.1a6.865,6.865,0,0,1,5.445,5.993Z" transform="translate(-15 -18.1)" fill="#b4dd7f"/>
      </g>
      <g id="Grupo_83653" data-name="Grupo 83653" transform="translate(64.461 22.081)">
        <path id="Trazado_145198" data-name="Trazado 145198" d="M58.6,24.82v1.317a9.206,9.206,0,0,0-6.515-2.688H49a4.121,4.121,0,0,0,4.115-4.115V18.1A6.858,6.858,0,0,1,58.6,24.82Z" transform="translate(-49 -18.1)" fill="#b4dd7f"/>
      </g>
      <g id="Grupo_83654" data-name="Grupo 83654" transform="translate(54.901 22.081)">
        <path id="Trazado_145199" data-name="Trazado 145199" d="M51.589,23.449h-.343a9.231,9.231,0,0,0-8.037,4.677H43.2a14.843,14.843,0,0,0-1.166-4.032A6.865,6.865,0,0,1,47.475,18.1v1.234a4.109,4.109,0,0,0,4.115,4.115Z" transform="translate(-42.03 -18.1)" fill="#b4dd7f"/>
      </g>
      <g id="Grupo_83655" data-name="Grupo 83655" transform="translate(31.545 13.852)">
        <path id="Trazado_145200" data-name="Trazado 145200" d="M30.486,13.334A4.109,4.109,0,0,0,34.6,17.449,15.018,15.018,0,0,0,25,20.891V18.82a6.858,6.858,0,0,1,5.486-6.72Z" transform="translate(-25 -12.1)" fill="#ff826e"/>
      </g>
      <g id="Grupo_83656" data-name="Grupo 83656" transform="translate(41.145 13.852)">
        <path id="Trazado_145201" data-name="Trazado 145201" d="M41.6,18.82v2.071A15.018,15.018,0,0,0,32,17.449a4.121,4.121,0,0,0,4.115-4.115V12.1A6.831,6.831,0,0,1,41.6,18.82Z" transform="translate(-32 -12.1)" fill="#ff826e"/>
      </g>
      <g id="Grupo_83657" data-name="Grupo 83657" transform="translate(0 54.49)">
        <path id="Trazado_145202" data-name="Trazado 145202" d="M12.053,46.667l3.209,5.952,3.2,5.939V69.53H2v-18.6A9.425,9.425,0,0,1,5.772,43.39a9.278,9.278,0,0,1,3.621-1.66Z" transform="translate(-2 -41.73)" fill="#ffba5b"/>
      </g>
      <g id="Grupo_83658" data-name="Grupo 83658" transform="translate(16.458 66.23)">
        <path id="Trazado_145203" data-name="Trazado 145203" d="M19.486,55.378V66.35H14V55.378l2.743-5.088v3.717a1.376,1.376,0,0,0,1.372,1.372Z" transform="translate(-14 -50.29)" fill="#ffba5b"/>
      </g>
      <g id="Grupo_83659" data-name="Grupo 83659" transform="translate(13.262 61.718)">
        <path id="Trazado_145204" data-name="Trazado 145204" d="M13.494,47h4.567a14.3,14.3,0,0,0-.453,3.538v.974L14.866,56.6l-3.2-5.939Z" transform="translate(-11.67 -47)" fill="#e6e9ed"/>
      </g>
      <g id="Grupo_83660" data-name="Grupo 83660" transform="translate(13.715 56.232)">
        <path id="Trazado_145205" data-name="Trazado 145205" d="M14.743,43l4.526,2.263a13.27,13.27,0,0,0-1.317,3.223H13.372L12,44.372Z" transform="translate(-12 -43)" fill="#ccd1d9"/>
      </g>
      <g id="Grupo_83661" data-name="Grupo 83661" transform="translate(10.053 57.603)">
        <path id="Trazado_145206" data-name="Trazado 145206" d="M14.363,48.115l-1.824,3.662L9.33,45.824,12.992,44Z" transform="translate(-9.33 -44)" fill="#fcd770"/>
      </g>
      <g id="Grupo_83662" data-name="Grupo 83662" transform="translate(16.458 53.489)">
        <path id="Trazado_145207" data-name="Trazado 145207" d="M18.115,41l4.087.823a13.432,13.432,0,0,0-3.676,4.183L14,43.743Z" transform="translate(-14 -41)" fill="#ffc729"/>
      </g>
      <g id="Grupo_83663" data-name="Grupo 83663" transform="translate(7.392 53.489)">
        <path id="Trazado_145208" data-name="Trazado 145208" d="M16.456,43.743l-2.743,1.372-3.662,1.824L7.39,42a1.011,1.011,0,0,1,.192-.055L12.341,41Z" transform="translate(-7.39 -41)" fill="#ffc729"/>
      </g>
      <g id="Grupo_83664" data-name="Grupo 83664" transform="translate(5.486 27.43)">
        <path id="Trazado_145209" data-name="Trazado 145209" d="M26.573,36.456A10.284,10.284,0,0,1,24.666,38.9l-.974.933a6.463,6.463,0,0,0,.137-1.372V35.88a5.5,5.5,0,0,0-4.156-5.321l-.905-.219-.014-.014a4.685,4.685,0,0,1-3.113,1.852l-3.168.453a2.756,2.756,0,0,0-2.359,2.716v3.113a6.463,6.463,0,0,0,.137,1.372L9.278,38.9A10.475,10.475,0,0,1,6,31.258V24.743A2.751,2.751,0,0,1,8.743,22H19.715a8.263,8.263,0,0,1,7.118,4.087,14.265,14.265,0,0,0-.261,2.77Z" transform="translate(-6 -22)" fill="#b27946"/>
      </g>
      <g id="Grupo_83665" data-name="Grupo 83665" transform="translate(56.067 27.43)">
        <path id="Trazado_145210" data-name="Trazado 145210" d="M59.5,35.345a2.756,2.756,0,0,0-2.359-2.716l-3.168-.453a4.685,4.685,0,0,1-3.113-1.852l-.014.014-.905.219a5.5,5.5,0,0,0-4.156,5.321v2.578a6.463,6.463,0,0,0,.137,1.372l-.974-.933a10.284,10.284,0,0,1-1.906-2.441v-7.6a14.321,14.321,0,0,0-.165-2.181h.014A9.231,9.231,0,0,1,50.931,22H54.36a9.271,9.271,0,0,1,9.258,9.258A10.475,10.475,0,0,1,60.339,38.9l-.974.933a6.462,6.462,0,0,0,.137-1.372Z" transform="translate(-42.88 -22)" fill="#b27946"/>
      </g>
      <g id="Grupo_83666" data-name="Grupo 83666" transform="translate(65.832 54.49)">
        <path id="Trazado_145211" data-name="Trazado 145211" d="M60.972,69.53H50V58.558l3.2-5.939L56.4,46.667l2.661-4.937a9.4,9.4,0,0,1,6.391,4.979,9.481,9.481,0,0,1,1,4.224v18.6Z" transform="translate(-50 -41.73)" fill="#c3b5ec"/>
      </g>
      <g id="Grupo_83667" data-name="Grupo 83667" transform="translate(60.346 66.23)">
        <path id="Trazado_145212" data-name="Trazado 145212" d="M51.486,55.378V66.35H46V55.378h1.372a1.376,1.376,0,0,0,1.372-1.372V50.29Z" transform="translate(-46 -50.29)" fill="#c3b5ec"/>
      </g>
      <g id="Grupo_83668" data-name="Grupo 83668" transform="translate(62.637 61.718)">
        <path id="Trazado_145213" data-name="Trazado 145213" d="M52.237,47l1.824,3.662-3.2,5.939-2.743-5.088v-.974A14.3,14.3,0,0,0,47.67,47Z" transform="translate(-47.67 -47)" fill="#fcd770"/>
      </g>
      <g id="Grupo_83669" data-name="Grupo 83669" transform="translate(61.306 56.232)">
        <path id="Trazado_145214" data-name="Trazado 145214" d="M53.969,44.372,52.6,48.486H48.017A13.27,13.27,0,0,0,46.7,45.263L51.226,43Z" transform="translate(-46.7 -43)" fill="#ffc729"/>
      </g>
      <g id="Grupo_83670" data-name="Grupo 83670" transform="translate(67.204 57.603)">
        <path id="Trazado_145215" data-name="Trazado 145215" d="M56.033,45.824l-3.209,5.952L51,48.115,52.372,44Z" transform="translate(-51 -44)" fill="#ff826e"/>
      </g>
      <g id="Grupo_83671" data-name="Grupo 83671" transform="translate(65.832 53.489)">
        <path id="Trazado_145216" data-name="Trazado 145216" d="M59.066,42,56.4,46.939l-3.662-1.824L50,43.743,54.115,41l4.759.946a1.01,1.01,0,0,1,.192.055Z" transform="translate(-50 -41)" fill="#fc6e51"/>
      </g>
      <g id="Grupo_83672" data-name="Grupo 83672" transform="translate(57.631 53.489)">
        <path id="Trazado_145217" data-name="Trazado 145217" d="M52.222,43.743,47.7,46.006a13.432,13.432,0,0,0-3.676-4.183L48.107,41Z" transform="translate(-44.02 -41)" fill="#fc6e51"/>
      </g>
      <g id="Grupo_83673" data-name="Grupo 83673" transform="translate(21.944 71.318)">
        <path id="Trazado_145218" data-name="Trazado 145218" d="M26.229,60.858v4.115H18V54h5.774a16.459,16.459,0,0,0,.823,2.77Z" transform="translate(-18 -54)" fill="#f0d0b4"/>
      </g>
      <g id="Grupo_83674" data-name="Grupo 83674" transform="translate(52.117 71.318)">
        <path id="Trazado_145219" data-name="Trazado 145219" d="M48.229,54V64.972H40V60.858l1.632-4.087A16.459,16.459,0,0,0,42.455,54Z" transform="translate(-40 -54)" fill="#f0d0b4"/>
      </g>
      <g id="Grupo_83675" data-name="Grupo 83675" transform="translate(19.201 51.528)">
        <path id="Trazado_145220" data-name="Trazado 145220" d="M24.517,59.361H17.372A1.376,1.376,0,0,1,16,57.989V53.3a14.3,14.3,0,0,1,.453-3.538h.014a13.27,13.27,0,0,1,1.317-3.223,13.432,13.432,0,0,1,3.676-4.183,9.591,9.591,0,0,1,1.413-.919,13.786,13.786,0,0,1,4.759-1.687l1.138-.178,4,7.447,5.171,9.6V70.333H26.972V66.218L25.34,62.131a16.46,16.46,0,0,1-.823-2.77Z" transform="translate(-16 -39.57)" fill="#ff7758"/>
      </g>
      <g id="Grupo_83676" data-name="Grupo 83676" transform="translate(41.145 51.528)">
        <path id="Trazado_145221" data-name="Trazado 145221" d="M45.427,59.361a16.459,16.459,0,0,1-.823,2.77l-1.632,4.087v4.115H32V56.618l5.171-9.6,4-7.447,1.138.178a13.786,13.786,0,0,1,4.759,1.687,9.591,9.591,0,0,1,1.413.919,13.432,13.432,0,0,1,3.676,4.183,13.27,13.27,0,0,1,1.317,3.223h.014a14.294,14.294,0,0,1,.453,3.538v4.691a1.376,1.376,0,0,1-1.372,1.372H45.427Z" transform="translate(-32 -39.57)" fill="#ff7758"/>
      </g>
      <g id="Grupo_83677" data-name="Grupo 83677" transform="translate(35.975 58.975)">
        <path id="Trazado_145222" data-name="Trazado 145222" d="M38.571,45,33.4,54.6,28.23,45Z" transform="translate(-28.23 -45)" fill="#ffeaa7"/>
      </g>
      <g id="Grupo_83678" data-name="Grupo 83678" transform="translate(26.059 19.201)">
        <path id="Trazado_145223" data-name="Trazado 145223" d="M36.087,24.229a11.975,11.975,0,0,1-7.6,5.088l-2,.4V35.2a9.606,9.606,0,0,0,5.486,8.668v.151a4.1,4.1,0,0,1-3.484,4.06l-1.577.247-1.138.178a13.786,13.786,0,0,0-4.759,1.687L21,50.178V31.087a14.265,14.265,0,0,1,.261-2.77,14.563,14.563,0,0,1,1.07-3.442,15.1,15.1,0,0,1,23.357-5.431,14.275,14.275,0,0,1,1.07.974,15.082,15.082,0,0,1,3.086,4.457,14.843,14.843,0,0,1,1.166,4.032,14.321,14.321,0,0,1,.165,2.181V50.178l-.014.014A13.786,13.786,0,0,0,46.4,48.5l-1.138-.178-1.577-.247A4.1,4.1,0,0,1,40.2,44.02v-.041a9.323,9.323,0,0,0,5.486-8.49V29.715l-2-.4a12.022,12.022,0,0,1-7.6-5.088Z" transform="translate(-21 -16)" fill="#656d78"/>
      </g>
      <g id="Grupo_83679" data-name="Grupo 83679" transform="translate(13.715 21.944)">
        <path id="Trazado_145224" data-name="Trazado 145224" d="M20.229,18.137v1.234a4.115,4.115,0,1,1-8.229,0V18.137A6.463,6.463,0,0,1,13.372,18h5.486a6.463,6.463,0,0,1,1.372.137Z" transform="translate(-12 -18)" fill="#f0d0b4"/>
      </g>
      <g id="Grupo_83680" data-name="Grupo 83680" transform="translate(10.972 13.715)">
        <path id="Trazado_145225" data-name="Trazado 145225" d="M23.578,12a6.463,6.463,0,0,1,.137,1.372,6.858,6.858,0,1,1-13.715,0A6.463,6.463,0,0,1,10.137,12Z" transform="translate(-10 -12)" fill="#f0d0b4"/>
      </g>
      <g id="Grupo_83681" data-name="Grupo 83681" transform="translate(37.031 13.715)">
        <path id="Trazado_145226" data-name="Trazado 145226" d="M37.229,12.137v1.234a4.115,4.115,0,0,1-8.229,0V12.137A6.463,6.463,0,0,1,30.372,12h5.486A6.463,6.463,0,0,1,37.229,12.137Z" transform="translate(-29 -12)" fill="#f0d0b4"/>
      </g>
      <g id="Grupo_83682" data-name="Grupo 83682" transform="translate(34.288 5.486)">
        <path id="Trazado_145227" data-name="Trazado 145227" d="M40.578,6a6.463,6.463,0,0,1,.137,1.372A6.858,6.858,0,1,1,27,7.372,6.463,6.463,0,0,1,27.137,6Z" transform="translate(-27 -6)" fill="#f0d0b4"/>
      </g>
      <g id="Grupo_83683" data-name="Grupo 83683" transform="translate(60.346 21.944)">
        <path id="Trazado_145228" data-name="Trazado 145228" d="M54.229,18.137v1.234a4.115,4.115,0,1,1-8.229,0V18.137A6.463,6.463,0,0,1,47.372,18h5.486a6.463,6.463,0,0,1,1.372.137Z" transform="translate(-46 -18)" fill="#f0d0b4"/>
      </g>
      <g id="Grupo_83684" data-name="Grupo 83684" transform="translate(57.603 13.715)">
        <path id="Trazado_145229" data-name="Trazado 145229" d="M57.578,14.743A6.858,6.858,0,0,1,44,13.372,6.463,6.463,0,0,1,44.137,12H57.578a6.926,6.926,0,0,1,0,2.743Z" transform="translate(-44 -12)" fill="#f0d0b4"/>
      </g>
      <g id="Grupo_83685" data-name="Grupo 83685" transform="translate(61.718 49.937)">
        <path id="Trazado_145230" data-name="Trazado 145230" d="M51.115,39.219a6.728,6.728,0,0,0,3.223-.809l.891,3.552-4.115,2.743L47,41.962l.891-3.552Z" transform="translate(-47 -38.41)" fill="#f0d0b4"/>
      </g>
      <g id="Grupo_83686" data-name="Grupo 83686" transform="translate(58.975 35.755)">
        <path id="Trazado_145231" data-name="Trazado 145231" d="M50.075,28.07a4.685,4.685,0,0,0,3.113,1.852l3.168.453a2.756,2.756,0,0,1,2.359,2.716V36.2a6.463,6.463,0,0,1-.137,1.372,6.834,6.834,0,0,1-3.5,4.677,6.728,6.728,0,0,1-3.223.809l-3.223-.809A6.662,6.662,0,0,1,47,41.058a6.92,6.92,0,0,1-1.865-3.484A6.463,6.463,0,0,1,45,36.2V33.625A5.5,5.5,0,0,1,49.156,28.3l.905-.219Z" transform="translate(-45 -28.07)" fill="#f0d0b4"/>
      </g>
      <g id="Grupo_83687" data-name="Grupo 83687" transform="translate(12.344 49.937)">
        <path id="Trazado_145232" data-name="Trazado 145232" d="M19.229,41.962l-4.115,2.743L11,41.962l.891-3.552a6.728,6.728,0,0,0,3.223.809l3.223-.809Z" transform="translate(-11 -38.41)" fill="#f0d0b4"/>
      </g>
      <g id="Grupo_83688" data-name="Grupo 83688" transform="translate(9.601 35.755)">
        <path id="Trazado_145233" data-name="Trazado 145233" d="M18.559,28.3a5.5,5.5,0,0,1,4.156,5.321V36.2a6.463,6.463,0,0,1-.137,1.372,6.92,6.92,0,0,1-1.865,3.484,6.662,6.662,0,0,1-1.632,1.193l-3.223.809a6.728,6.728,0,0,1-3.223-.809,6.834,6.834,0,0,1-3.5-4.677A6.463,6.463,0,0,1,9,36.2V33.09a2.756,2.756,0,0,1,2.359-2.716l3.168-.453A4.685,4.685,0,0,0,17.64,28.07l.014.014Z" transform="translate(-9 -28.07)" fill="#f0d0b4"/>
      </g>
      <g id="Grupo_83689" data-name="Grupo 83689" transform="translate(31.97 47.07)">
        <path id="Trazado_145234" data-name="Trazado 145234" d="M43.661,40.777l-4,7.447H29.315l-4-7.447,1.577-.247a4.1,4.1,0,0,0,3.484-4.06V36.32a9.567,9.567,0,0,0,4.156.933h.247A9.169,9.169,0,0,0,38.6,36.43v.041a4.1,4.1,0,0,0,3.484,4.06Z" transform="translate(-25.31 -36.32)" fill="#f0d0b4"/>
      </g>
      <g id="Grupo_83690" data-name="Grupo 83690" transform="translate(31.545 27.43)">
        <path id="Trazado_145235" data-name="Trazado 145235" d="M44.2,27.486V33.26a9.323,9.323,0,0,1-5.486,8.49,9.169,9.169,0,0,1-3.827.823h-.247A9.618,9.618,0,0,1,25,32.972V27.486l2-.4A11.975,11.975,0,0,0,34.6,22a12.022,12.022,0,0,0,7.6,5.088Z" transform="translate(-25 -22)" fill="#f0d0b4"/>
      </g>
    </g>
    <g id="Grupo_83692" data-name="Grupo 83692" transform="translate(0 0.001)">
      <path id="Trazado_145236" data-name="Trazado 145236" d="M81.712,57.418a10.892,10.892,0,0,0-4.366-1.952l-3.909-.782L73,52.932a8.244,8.244,0,0,0,3.152-4.577l.7-.664a11.915,11.915,0,0,0,3.7-8.63,10.576,10.576,0,0,0-2.743-7.1v-.786a8.233,8.233,0,0,0-5.368-7.705,8.242,8.242,0,0,0,2.179-3.36A6.842,6.842,0,1,0,68.127,9.342a8.213,8.213,0,0,0-6.9,14.124,8.18,8.18,0,0,0-4.3,3.685,16.609,16.609,0,0,0-2.437-2.724V22.944a8.234,8.234,0,0,0-5.368-7.705,8.229,8.229,0,1,0-11.208,0,8.233,8.233,0,0,0-5.368,7.705v1.483a16.6,16.6,0,0,0-2.437,2.722,8.188,8.188,0,0,0-4.3-3.685,8.228,8.228,0,1,0-11.209,0,8.247,8.247,0,0,0-4.91,5.073,4.116,4.116,0,0,0-3.2,4v6.517a11.92,11.92,0,0,0,3.7,8.628l.7.665a8.249,8.249,0,0,0,3.152,4.577L13.6,54.685l-3.909.782A10.808,10.808,0,0,0,1,66.063V86.033H86.033V66.063a10.864,10.864,0,0,0-4.322-8.645ZM26.777,48.357l.281-.269v6.885c-.123.08-.251.154-.372.237l-2.624-.524-.438-1.753a8.249,8.249,0,0,0,3.152-4.577Zm-3.545,8.96.864.173a14.727,14.727,0,0,0-1.255,1.587l-1.284-.642Zm-4.785,5.4-.683-2.048,1.066-.534,2.676,1.337q-.27.609-.486,1.243H18.447Zm-3.161-.809.691,2.075-.392.784L14.308,62.4Zm3.02,3.552h2.061a15.446,15.446,0,0,0-.166,2.166v.623L18.83,70.8l-1.654-3.074Zm1.9,8.575.284-.527a2.738,2.738,0,0,0,2.459,1.553V83.29H20.2Zm5.486,1.026h3.329a16.994,16.994,0,0,0,.619,1.9l1.539,3.847v2.48H25.687Zm6.494.883a14.1,14.1,0,0,1-.287-9.687l.579-1.735-2.6-.868-.58,1.735a16.847,16.847,0,0,0-.863,5.323q0,.809.077,1.606H22.944V67.626a12.279,12.279,0,0,1,10.467-12.2l.176-.027,8.558,15.894v12H33.916V80.284Zm11.336-43.9a13.21,13.21,0,0,0,7.322,4.189l.907.181V41.06A7.951,7.951,0,0,1,43.8,49h-.241a8.263,8.263,0,0,1-8.276-8.232V36.412l.907-.181a13.21,13.21,0,0,0,7.322-4.189ZM40.487,51.3a11.06,11.06,0,0,0,3.076.443H43.8a10.67,10.67,0,0,0,2.761-.374,5.429,5.429,0,0,0,4.019,3.558l-2.717,5.046h-8.7l-2.717-5.046A5.423,5.423,0,0,0,40.487,51.3Zm3.03,16.752-2.873-5.337H46.39Zm1.372,3.239L53.448,55.4l.176.027a12.277,12.277,0,0,1,10.466,12.2v4.692H58.528q.074-.8.075-1.606a16.81,16.81,0,0,0-.864-5.323l-.579-1.735-2.6.868.577,1.734a14.09,14.09,0,0,1-.285,9.688l-1.735,4.339V83.29H44.888ZM59.975,48.088l.281.267a8.249,8.249,0,0,0,3.152,4.577l-.438,1.753-2.624.524c-.121-.084-.248-.158-.372-.237Zm8.612,14.63H66.014q-.216-.636-.486-1.243L68.2,60.137l1.066.534Zm-4.394-3.643a15.074,15.074,0,0,0-1.255-1.587l.864-.173,1.676,1.116ZM55.86,80.811,57.4,76.964a16.628,16.628,0,0,0,.619-1.9h3.329V83.29H55.86Zm8.229-5.749a2.738,2.738,0,0,0,2.459-1.553l.284.527V83.29H64.089ZM68.2,70.8l-1.372-2.547v-.623a15.241,15.241,0,0,0-.167-2.166h2.061l1.131,2.263Zm3.245-6.026-.392-.784.691-2.075.978.49Zm3.736-6.937-1.158,2.149-3.1-1.548,1.676-1.116Zm-4.431-2.577-2.55,1.7-2.55-1.7.273-1.093a8.071,8.071,0,0,0,4.553,0Zm2.936-9a5.486,5.486,0,1,1-10.972,0V43.685a4.108,4.108,0,0,1,3.117-3.991l.112-.029a6.081,6.081,0,0,0,3.392,1.676l3.172.454a1.376,1.376,0,0,1,1.178,1.356Zm3.644-4.3a9.169,9.169,0,0,1-.9,1.909v-.721A4.133,4.133,0,0,0,72.9,39.08l-3.172-.454a3.388,3.388,0,0,1-2.9-3.338H64.089a6.058,6.058,0,0,0,.332,1.978,6.847,6.847,0,0,0-4.446,6.42V36.659a16.431,16.431,0,0,0-.111-1.846,7.9,7.9,0,0,1,6.628-3.64h3.423A7.9,7.9,0,0,1,77.8,39.062a9.142,9.142,0,0,1-.47,2.9ZM69.575,25.687a2.743,2.743,0,1,1-5.486,0Zm5.239,3.949a10.542,10.542,0,0,0-3.33-1.077,5.424,5.424,0,0,0,.76-2.149A5.472,5.472,0,0,1,74.815,29.636Zm-7.982-6.692a5.492,5.492,0,0,1-5.486-5.486H72.318A5.492,5.492,0,0,1,66.832,22.944ZM73.69,9.229a4.095,4.095,0,0,1,1.358,7.964,8.227,8.227,0,0,0-4.139-6.874A4.093,4.093,0,0,1,73.69,9.229Zm-6.858,2.743a5.468,5.468,0,0,1,4.723,2.743H62.11A5.464,5.464,0,0,1,66.832,11.972ZM61.418,26.395a5.432,5.432,0,0,0,1.214,2.779,10.708,10.708,0,0,0-3.523,2.256c-.129-.384-.261-.765-.417-1.136a5.447,5.447,0,0,1,2.727-3.9Zm-9.728-4a16.357,16.357,0,0,0-3.851-1.6,5.421,5.421,0,0,0,1.09-2.615A5.459,5.459,0,0,1,51.69,22.394ZM40.774,17.458H46.26a2.743,2.743,0,1,1-5.486,0Zm2.743-2.743a5.492,5.492,0,0,1-5.486-5.486H49A5.492,5.492,0,0,1,43.517,14.715Zm0-10.972A5.468,5.468,0,0,1,48.24,6.486H38.795A5.464,5.464,0,0,1,43.517,3.743ZM38.1,18.181a5.421,5.421,0,0,0,1.09,2.615,16.358,16.358,0,0,0-3.851,1.6A5.463,5.463,0,0,1,38.1,18.181Zm5.413,4.763A13.731,13.731,0,0,1,57.232,36.659v16.92a15.287,15.287,0,0,0-3.191-.864L51.329,52.3a2.721,2.721,0,0,1-2.218-1.978,10.684,10.684,0,0,0,5.376-9.26v-6.9l-3.112-.623a10.475,10.475,0,0,1-6.489-4.189V25.687H42.144v3.665a10.482,10.482,0,0,1-6.489,4.189l-3.111.623v6.608A10.96,10.96,0,0,0,37.955,50.2,2.722,2.722,0,0,1,35.7,52.3l-2.711.417a15.287,15.287,0,0,0-3.191.864V36.659A13.731,13.731,0,0,1,43.517,22.944Zm-15.176,7.35c-.1.23-.171.47-.259.7a9.649,9.649,0,0,0-3.49-2.057,5.425,5.425,0,0,0,1.023-2.548,5.439,5.439,0,0,1,2.727,3.9ZM17.458,25.687h5.486a2.743,2.743,0,1,1-5.486,0ZM20.2,22.944a5.492,5.492,0,0,1-5.486-5.486H25.687A5.492,5.492,0,0,1,20.2,22.944Zm0-10.972a5.468,5.468,0,0,1,4.723,2.743H15.479A5.464,5.464,0,0,1,20.2,11.972ZM14.786,26.389a5.418,5.418,0,0,0,.693,2.041H12.717A5.5,5.5,0,0,1,14.786,26.389ZM9.7,41.963a9.127,9.127,0,0,1-.47-2.9V32.545A1.373,1.373,0,0,1,10.6,31.173H21.573a6.881,6.881,0,0,1,5.686,3.05,16.579,16.579,0,0,0-.2,2.436v7.026a6.846,6.846,0,0,0-4.446-6.42,6.058,6.058,0,0,0,.332-1.978H20.2a3.39,3.39,0,0,1-2.9,3.34l-3.172.454A4.131,4.131,0,0,0,10.6,43.152v.721A9.18,9.18,0,0,1,9.7,41.963Zm3.644,1.189a1.379,1.379,0,0,1,1.177-1.358l3.172-.454a6.094,6.094,0,0,0,3.392-1.676l.114.029a4.111,4.111,0,0,1,3.117,3.992V46.26a5.486,5.486,0,1,1-10.972,0ZM18.83,54.489a8.164,8.164,0,0,0,2.277-.328l.273,1.093-2.55,1.7-2.55-1.7.273-1.093A8.164,8.164,0,0,0,18.83,54.489Zm-4.4,2.828L16.1,58.433l-3.1,1.548-1.159-2.149ZM3.743,66.063a8,8,0,0,1,5.342-7.578l8.373,15.552V83.29H9.229V68.2H6.486V83.29H3.743ZM83.29,83.29H80.547V68.2H77.8V83.29H69.575V74.037l8.373-15.55a8,8,0,0,1,5.342,7.576Z" transform="translate(-1 -1)"/>
      <path id="Trazado_145237" data-name="Trazado 145237" d="M33.447,35.281a5.777,5.777,0,0,0,5.2-3.212l.144-.289-2.454-1.228-.144.291a3.067,3.067,0,0,1-5.486,0l-.144-.289-2.454,1.228.144.288A5.777,5.777,0,0,0,33.447,35.281Z" transform="translate(9.07 9.979)"/>
    </g>
  </g>
</svg>
