<svg xmlns="http://www.w3.org/2000/svg" width="80" height="73.75" viewBox="0 0 80 73.75">
  <g id="cinco-altos" transform="translate(0 -20)">
    <path id="Trazado_144281" data-name="Trazado 144281" d="M47.07,180.478,29.531,198.017H18.672A8.672,8.672,0,0,0,10,206.689v20.7H35V208.025l10.226-15.187a18.832,18.832,0,0,0,3.211-10.518v-1.274A.8.8,0,0,0,47.07,180.478Z" transform="translate(-8.438 -135.204)" fill="#ffba5b"/>
    <path id="Trazado_144282" data-name="Trazado 144282" d="M285.766,198.016H274.906l-17.538-17.538a.8.8,0,0,0-1.368.567v1.274a18.833,18.833,0,0,0,3.211,10.518l10.226,15.187v19.367h17.5V225.35l.9,2.041h6.6v-20.7A8.672,8.672,0,0,0,285.766,198.016Z" transform="translate(-216 -135.204)" fill="#ff7758"/>
    <g id="Grupo_83313" data-name="Grupo 83313" transform="translate(11.415 47.813)">
      <path id="Trazado_144283" data-name="Trazado 144283" d="M79.453,198h0a6.4,6.4,0,0,0-6.4,6.4V206.6a6.4,6.4,0,0,0,6.4,6.4h0a6.4,6.4,0,0,0,6.4-6.4V204.4A6.4,6.4,0,0,0,79.453,198Z" transform="translate(-73.056 -198)" fill="#fcc69d"/>
      <path id="Trazado_144284" data-name="Trazado 144284" d="M363.453,198h0a6.4,6.4,0,0,1,6.4,6.4V206.6a6.4,6.4,0,0,1-6.4,6.4h0a6.4,6.4,0,0,1-6.4-6.4V204.4A6.4,6.4,0,0,1,363.453,198Z" transform="translate(-312.681 -198)" fill="#fcc69d"/>
    </g>
    <path id="Trazado_144285" data-name="Trazado 144285" d="M247.549,32.421a1.563,1.563,0,0,0,1.563-1.563v-9.3a1.563,1.563,0,0,0-3.125,0v9.3A1.563,1.563,0,0,0,247.549,32.421Z" transform="translate(-207.552)"/>
    <path id="Trazado_144286" data-name="Trazado 144286" d="M162.526,84.953a1.562,1.562,0,0,0,2.209-2.211L161,79.007a1.563,1.563,0,0,0-2.209,2.211Z" transform="translate(-133.591 -49.401)"/>
    <path id="Trazado_144287" data-name="Trazado 144287" d="M309.8,85.676a1.558,1.558,0,0,0,1.105-.458l3.974-3.978a1.563,1.563,0,0,0-2.211-2.209l-3.975,3.978a1.563,1.563,0,0,0,1.105,2.667Z" transform="translate(-260.071 -49.421)"/>
    <path id="Trazado_144288" data-name="Trazado 144288" d="M69.766,188.025H68.5a7.918,7.918,0,0,0,1.643-4.835v-2.205a7.96,7.96,0,1,0-15.92,0V182.7L42.473,170.944A2.355,2.355,0,0,0,40,170.394a2.356,2.356,0,0,0-2.473.551L25.773,182.7v-1.714a7.96,7.96,0,0,0-15.92,0v2.205a7.918,7.918,0,0,0,1.643,4.835H10.234A10.246,10.246,0,0,0,0,198.26v20.7a1.563,1.563,0,0,0,1.563,1.563h6.6a1.562,1.562,0,0,0,.449-.066,1.562,1.562,0,0,0,.449.066h17.5a1.563,1.563,0,0,0,1.563-1.562V213.65a1.563,1.563,0,0,0-3.125,0v3.75H10.625V199.6a1.562,1.562,0,1,0-3.125,0v17.8H3.125V198.26a7.117,7.117,0,0,1,7.109-7.109H21.094a1.558,1.558,0,0,0,1.1-.455l0,0,16.23-16.23a17.2,17.2,0,0,1-2.935,9.073L25.267,198.724A1.563,1.563,0,0,0,25,199.6v1.71a1.563,1.563,0,1,0,3.125,0v-1.234l9.96-14.792A20.45,20.45,0,0,0,40,181.718a20.44,20.44,0,0,0,1.915,3.564l9.96,14.792v18.89a1.563,1.563,0,0,0,1.563,1.563h17.5a1.562,1.562,0,0,0,.449-.066,1.562,1.562,0,0,0,.449.066h6.6A1.563,1.563,0,0,0,80,218.963v-20.7A10.246,10.246,0,0,0,69.766,188.025Zm-56.788-4.835v-2.205a4.835,4.835,0,1,1,9.67,0v2.205a4.835,4.835,0,1,1-9.67,0Zm44.375-2.205a4.835,4.835,0,1,1,9.67,0v2.205a4.835,4.835,0,1,1-9.67,0ZM76.875,217.4H72.5V205.838a1.563,1.563,0,0,0-3.125,0V217.4H55V199.6a1.563,1.563,0,0,0-.266-.873L44.507,183.537a17.2,17.2,0,0,1-2.935-9.073l16.23,16.23c.021.021.04.038.059.053a1.555,1.555,0,0,0,1.046.4H69.766a7.117,7.117,0,0,1,7.109,7.109V217.4Z" transform="translate(0 -126.775)"/>
    <path id="Trazado_144289" data-name="Trazado 144289" d="M445.563,348.05a1.563,1.563,0,1,0,1.1.458A1.574,1.574,0,0,0,445.563,348.05Z" transform="translate(-374.625 -276.792)"/>
    <path id="Trazado_144290" data-name="Trazado 144290" d="M161.562,401a1.563,1.563,0,1,0,1.1.458A1.574,1.574,0,0,0,161.562,401Z" transform="translate(-135 -321.469)"/>
  </g>
</svg>
