<svg xmlns="http://www.w3.org/2000/svg" width="166" height="166" viewBox="0 0 166 166">
  <g id="discurso" transform="translate(-1 -1)">
    <path id="Trazado_141404" data-name="Trazado 141404" d="M15,28h91.032V38.71H15Z" transform="translate(23.484 45.29)" fill="#b17728"/>
    <path id="Trazado_141405" data-name="Trazado 141405" d="M19,32H88.613V66.806H19Z" transform="translate(30.194 52)" fill="#db993e"/>
    <g id="Grupo_82542" data-name="Grupo 82542" transform="translate(14.387 105.419)">
      <path id="Trazado_141407" data-name="Trazado 141407" d="M16.71,66.774A10.71,10.71,0,0,1,6,56.065V50.71a10.71,10.71,0,1,1,21.419,0v5.355A10.71,10.71,0,0,1,16.71,66.774Z" transform="translate(-6 -40)" fill="#efbe9a"/>
      <path id="Trazado_141408" data-name="Trazado 141408" d="M38.71,66.774A10.71,10.71,0,0,1,28,56.065V50.71a10.71,10.71,0,1,1,21.419,0v5.355A10.71,10.71,0,0,1,38.71,66.774Z" transform="translate(30.903 -40)" fill="#efbe9a"/>
      <path id="Trazado_141409" data-name="Trazado 141409" d="M60.71,66.774A10.71,10.71,0,0,1,50,56.065V50.71a10.71,10.71,0,1,1,21.419,0v5.355A10.71,10.71,0,0,1,60.71,66.774Z" transform="translate(67.806 -40)" fill="#efbe9a"/>
    </g>
    <path id="Trazado_141410" data-name="Trazado 141410" d="M44.839,78.774H2V68.065A16.064,16.064,0,0,1,18.065,52h10.71A16.064,16.064,0,0,1,44.839,68.065Z" transform="translate(1.677 85.548)" fill="#675d84"/>
    <path id="Trazado_141411" data-name="Trazado 141411" d="M66.839,78.774H24V68.065A16.064,16.064,0,0,1,40.065,52h10.71A16.064,16.064,0,0,1,66.839,68.065Z" transform="translate(38.581 85.548)" fill="#675d84"/>
    <path id="Trazado_141412" data-name="Trazado 141412" d="M88.839,78.774H46V68.065A16.064,16.064,0,0,1,62.065,52h10.71A16.064,16.064,0,0,1,88.839,68.065Z" transform="translate(75.484 85.548)" fill="#675d84"/>
    <path id="Trazado_141413" data-name="Trazado 141413" d="M71.194,44.774V34.065A16.064,16.064,0,0,0,55.129,18H39.065A16.064,16.064,0,0,0,23,34.065v10.71" transform="translate(36.903 28.516)" fill="#ff7758"/>
    <path id="Trazado_141415" data-name="Trazado 141415" d="M34.744,31.387,40.1,23.355l5.355,8.032,7.572-12.621A16.058,16.058,0,0,0,48.131,18H32.066a16.058,16.058,0,0,0-4.894.766Z" transform="translate(43.901 28.516)" fill="#fff"/>
    <path id="Trazado_141416" data-name="Trazado 141416" d="M36,10h8.032a5.355,5.355,0,0,1,0,10.71H36" transform="translate(58.71 15.097)" fill="#e5c9b5"/>
    <path id="Trazado_141417" data-name="Trazado 141417" d="M36.387,10H28.355a5.355,5.355,0,1,0,0,10.71h8.032" transform="translate(36.903 15.097)" fill="#e5c9b5"/>
    <path id="Trazado_141418" data-name="Trazado 141418" d="M53.774,6V24.742a13.387,13.387,0,0,1-26.774,0V6" transform="translate(43.613 8.387)" fill="#e9c4a9"/>
    <path id="Trazado_141419" data-name="Trazado 141419" d="M37.71,37.859a13.389,13.389,0,0,0,10.71-13.117V6H27V24.742A13.389,13.389,0,0,0,37.71,37.859Z" transform="translate(43.613 8.387)" fill="#e9c4a9"/>
    <path id="Trazado_141420" data-name="Trazado 141420" d="M51.774,12.71c0,5.914-10.15,10.71-16.065,10.71H25V12.71A10.71,10.71,0,0,1,35.71,2H51.774a10.71,10.71,0,0,1,10.71,10.71v10.71A10.71,10.71,0,0,1,51.774,12.71Z" transform="translate(40.258 1.677)" fill="#a66d43"/>
    <path id="Trazado_141422" data-name="Trazado 141422" d="M64.161,27.774a13.388,13.388,0,0,1-11.387-6.356,25.043,25.043,0,0,1-15.387,6.356H26.677A2.677,2.677,0,0,1,24,25.1V14.387A13.4,13.4,0,0,1,37.387,1H53.452A13.4,13.4,0,0,1,66.839,14.387V25.1A2.677,2.677,0,0,1,64.161,27.774ZM29.355,22.419h8.032c5.285,0,13.387-4.308,13.387-8.032a2.677,2.677,0,0,1,5.355,0,8.048,8.048,0,0,0,5.355,7.574V14.387a8.042,8.042,0,0,0-8.032-8.032H37.387a8.042,8.042,0,0,0-8.032,8.032Z" transform="translate(38.581)"/>
    <path id="Trazado_141423" data-name="Trazado 141423" d="M42.065,35.774A16.081,16.081,0,0,1,26,19.71V11.677h5.355V19.71a10.71,10.71,0,0,0,21.419,0V9h5.355V19.71A16.081,16.081,0,0,1,42.065,35.774Z" transform="translate(41.935 13.419)"/>
    <path id="Trazado_141424" data-name="Trazado 141424" d="M35.387,25.065H30.032A8.032,8.032,0,0,1,30.032,9H32.71v5.355H30.032a2.677,2.677,0,1,0,0,5.355h5.355Z" transform="translate(35.226 13.419)"/>
    <path id="Trazado_141425" data-name="Trazado 141425" d="M42.355,25.065H37V19.71h5.355a2.677,2.677,0,1,0,0-5.355H39.677V9h2.677a8.032,8.032,0,0,1,0,16.065Z" transform="translate(60.387 13.419)"/>
    <path id="Trazado_141426" data-name="Trazado 141426" d="M75.548,46.452H70.194V35.742A13.4,13.4,0,0,0,56.806,22.355H40.742A13.4,13.4,0,0,0,27.355,35.742v10.71H22V35.742A18.764,18.764,0,0,1,40.742,17H56.806A18.764,18.764,0,0,1,75.548,35.742Z" transform="translate(35.226 26.839)"/>
    <path id="Trazado_141427" data-name="Trazado 141427" d="M107.71,43.065H16.677A2.677,2.677,0,0,1,14,40.387V29.677A2.677,2.677,0,0,1,16.677,27H107.71a2.677,2.677,0,0,1,2.677,2.677v10.71A2.677,2.677,0,0,1,107.71,43.065ZM19.355,37.71h85.677V32.355H19.355Z" transform="translate(21.806 43.613)"/>
    <path id="Trazado_141428" data-name="Trazado 141428" d="M26,23h5.355V36.387H26Z" transform="translate(41.935 36.903)"/>
    <path id="Trazado_141429" data-name="Trazado 141429" d="M36,23h5.355V36.387H36Z" transform="translate(58.71 36.903)"/>
    <path id="Trazado_141430" data-name="Trazado 141430" d="M47.179,34.927a2.681,2.681,0,0,1-2.228-1.191l-3.127-4.691L38.7,33.735a2.733,2.733,0,0,1-2.292,1.191,2.676,2.676,0,0,1-2.23-1.3L26.143,20.241l4.592-2.755,5.856,9.762L39.6,22.734a2.778,2.778,0,0,1,4.455,0l3.009,4.514,5.856-9.762,4.592,2.755L49.479,33.628a2.674,2.674,0,0,1-2.23,1.3Z" transform="translate(42.175 27.654)"/>
    <path id="Trazado_141431" data-name="Trazado 141431" d="M63.1,49.806H57.742V28.387a8.012,8.012,0,0,0-2.677-5.981v.627A8.032,8.032,0,1,1,47.032,15H49.71A13.4,13.4,0,0,1,63.1,28.387ZM47.032,20.355a2.677,2.677,0,1,0,2.677,2.677V20.355Z" transform="translate(63.742 23.484)"/>
    <path id="Trazado_141432" data-name="Trazado 141432" d="M18.387,71.129A13.4,13.4,0,0,1,5,57.742V52.387a13.387,13.387,0,1,1,26.774,0v5.355A13.4,13.4,0,0,1,18.387,71.129Zm0-26.774a8.042,8.042,0,0,0-8.032,8.032v5.355a8.032,8.032,0,1,0,16.065,0V52.387A8.042,8.042,0,0,0,18.387,44.355Z" transform="translate(6.71 63.742)"/>
    <path id="Trazado_141433" data-name="Trazado 141433" d="M46.516,83.129H3.677A2.677,2.677,0,0,1,1,80.452V69.742A18.764,18.764,0,0,1,19.742,51h10.71A18.764,18.764,0,0,1,49.194,69.742v10.71A2.677,2.677,0,0,1,46.516,83.129ZM6.355,77.774H43.839V69.742A13.4,13.4,0,0,0,30.452,56.355H19.742A13.4,13.4,0,0,0,6.355,69.742Z" transform="translate(0 83.871)"/>
    <path id="Trazado_141434" data-name="Trazado 141434" d="M40.387,71.129A13.4,13.4,0,0,1,27,57.742V52.387a13.387,13.387,0,1,1,26.774,0v5.355A13.4,13.4,0,0,1,40.387,71.129Zm0-26.774a8.042,8.042,0,0,0-8.032,8.032v5.355a8.032,8.032,0,1,0,16.065,0V52.387A8.042,8.042,0,0,0,40.387,44.355Z" transform="translate(43.613 63.742)"/>
    <path id="Trazado_141435" data-name="Trazado 141435" d="M68.516,83.129H25.677A2.677,2.677,0,0,1,23,80.452V69.742A18.764,18.764,0,0,1,41.742,51h10.71A18.764,18.764,0,0,1,71.194,69.742v10.71A2.677,2.677,0,0,1,68.516,83.129ZM28.355,77.774H65.839V69.742A13.4,13.4,0,0,0,52.452,56.355H41.742A13.4,13.4,0,0,0,28.355,69.742Z" transform="translate(36.903 83.871)"/>
    <path id="Trazado_141436" data-name="Trazado 141436" d="M62.387,71.129A13.4,13.4,0,0,1,49,57.742V52.387a13.387,13.387,0,1,1,26.774,0v5.355A13.4,13.4,0,0,1,62.387,71.129Zm0-26.774a8.042,8.042,0,0,0-8.032,8.032v5.355a8.032,8.032,0,1,0,16.065,0V52.387A8.042,8.042,0,0,0,62.387,44.355Z" transform="translate(80.516 63.742)"/>
    <path id="Trazado_141437" data-name="Trazado 141437" d="M90.516,83.129H47.677A2.677,2.677,0,0,1,45,80.452V69.742A18.764,18.764,0,0,1,63.742,51h10.71A18.764,18.764,0,0,1,93.194,69.742v10.71A2.677,2.677,0,0,1,90.516,83.129ZM50.355,77.774H87.839V69.742A13.4,13.4,0,0,0,74.452,56.355H63.742A13.4,13.4,0,0,0,50.355,69.742Z" transform="translate(73.806 83.871)"/>
    <path id="Trazado_141438" data-name="Trazado 141438" d="M18,32h5.355V69.484H18Z" transform="translate(28.516 52)"/>
    <path id="Trazado_141439" data-name="Trazado 141439" d="M44,32h5.355V69.484H44Z" transform="translate(72.129 52)"/>
  </g>
</svg>
