<svg id="internet" xmlns="http://www.w3.org/2000/svg" width="138.96" height="138.96" viewBox="0 0 138.96 138.96">
  <path id="Trazado_144576" data-name="Trazado 144576" d="M143.532,76.766A66.766,66.766,0,1,1,76.766,10,66.766,66.766,0,0,1,143.532,76.766Zm0,0" transform="translate(-7.286 -7.286)" fill="#c3b5ec"/>
  <path id="Trazado_144577" data-name="Trazado 144577" d="M162.41,10.117A34.863,34.863,0,0,0,127.547,44.98v63.772a34.863,34.863,0,0,0,69.726,0V44.98A34.863,34.863,0,0,0,162.41,10.117Zm0,0" transform="translate(-92.93 -7.371)" fill="#f2edff"/>
  <path id="Trazado_144578" data-name="Trazado 144578" d="M168.216,464.1H91.7a8.872,8.872,0,0,1-8.695-8.9v-5.217h93.9v5.217A8.872,8.872,0,0,1,168.216,464.1Zm0,0" transform="translate(-60.479 -327.859)" fill="#c3b5ec"/>
  <path id="Trazado_144579" data-name="Trazado 144579" d="M191.733,308.65h-76.3V263.63a7.63,7.63,0,0,1,7.63-7.63H184.1a7.63,7.63,0,0,1,7.63,7.63Zm0,0" transform="translate(-84.101 -186.52)" fill="#fff"/>
  <path id="Trazado_144580" data-name="Trazado 144580" d="M131.689,100.456A69.494,69.494,0,0,0,69.48,0,69.508,69.508,0,0,0,7.27,100.455,70.132,70.132,0,0,0,21.428,119.65a2.713,2.713,0,0,0-1.614,2.48v5.217A11.525,11.525,0,0,0,31.223,138.96h76.513a11.525,11.525,0,0,0,11.409-11.613V122.13a2.713,2.713,0,0,0-1.614-2.48A70.086,70.086,0,0,0,131.689,100.456ZM21.031,111.4a31.615,31.615,0,0,1,7.583-3.317V118.8A64.743,64.743,0,0,1,21.031,111.4ZM17.673,31.862a37.21,37.21,0,0,0,14.235,5.289c0,.153-.005.305-.005.458V66.766H5.49A63.678,63.678,0,0,1,17.673,31.862Zm19.658,5.747v-.035c.088,0,.176.005.264.005H66.766V66.766H38.958a10.3,10.3,0,0,0-1.627.129ZM72.194,5.575a32.213,32.213,0,0,1,28.969,26.576H72.194Zm-5.428,0V32.151H37.8A32.213,32.213,0,0,1,66.766,5.575Zm5.428,32h29.172c.088,0,.175,0,.263-.005V66.9A10.309,10.309,0,0,0,100,66.766H72.194ZM133.47,66.766H107.057V37.609c0-.153,0-.305-.005-.458a37.187,37.187,0,0,0,14.236-5.289A63.689,63.689,0,0,1,133.47,66.766ZM110.346,118.8V108.079a31.633,31.633,0,0,1,7.582,3.319A64.808,64.808,0,0,1,110.346,118.8Zm10.99-11.682a37.023,37.023,0,0,0-10.99-4.659V77.11a10.288,10.288,0,0,0-1.245-4.916h24.368A63.581,63.581,0,0,1,121.336,107.122Zm-3.442-79.537a31.8,31.8,0,0,1-11.3,4.141,37.5,37.5,0,0,0-10.289-20.4A64.415,64.415,0,0,1,117.893,27.585Zm-75.24-16.26a37.509,37.509,0,0,0-10.289,20.4,31.82,31.82,0,0,1-11.3-4.142A64.422,64.422,0,0,1,42.653,11.325ZM5.491,72.194H29.859a10.276,10.276,0,0,0-1.245,4.916v25.35a37.057,37.057,0,0,0-10.99,4.661A63.577,63.577,0,0,1,5.491,72.194Zm108.226,55.153a6.168,6.168,0,0,1-5.98,6.185H31.223a6.168,6.168,0,0,1-5.98-6.185v-2.5H55.231a2.714,2.714,0,1,0,0-5.428H34.042V77.11a4.921,4.921,0,0,1,4.916-4.916H100a4.921,4.921,0,0,1,4.916,4.916v42.305H85.156a2.714,2.714,0,0,0,0,5.428h28.561Zm0,0" transform="translate(0 0)"/>
  <path id="Trazado_144581" data-name="Trazado 144581" d="M252.386,439.988a2.718,2.718,0,1,0,1.918.8A2.727,2.727,0,0,0,252.386,439.988Zm0,0" transform="translate(-181.909 -320.573)"/>
  <path id="Trazado_144582" data-name="Trazado 144582" d="M226.781,319.423a2.714,2.714,0,0,0,0-3.839,22.765,22.765,0,0,0-32.157,0,2.714,2.714,0,0,0,3.838,3.839,17.332,17.332,0,0,1,24.482,0,2.713,2.713,0,0,0,3.838,0Zm0,0" transform="translate(-141.222 -225.089)"/>
  <path id="Trazado_144583" data-name="Trazado 144583" d="M230.351,347.035a12.306,12.306,0,0,0-8.759,3.629,2.714,2.714,0,0,0,3.838,3.838,6.959,6.959,0,0,1,9.843,0,2.714,2.714,0,1,0,3.838-3.838A12.306,12.306,0,0,0,230.351,347.035Zm0,0" transform="translate(-160.871 -252.848)"/>
  <path id="Trazado_144584" data-name="Trazado 144584" d="M250.633,388.164a2.713,2.713,0,1,0-1.919.8A2.736,2.736,0,0,0,250.633,388.164Zm0,0" transform="translate(-179.234 -279.439)"/>
</svg>
