<svg id="busqueda-de-personalidad" xmlns="http://www.w3.org/2000/svg" width="99.93" height="83.812" viewBox="0 0 99.93 83.812">
  <path id="Trazado_145260" data-name="Trazado 145260" d="M225.73,272.06H208l3.788-20.856,2.45-13.442,16.279,4.062a6.461,6.461,0,0,1,4.883,6.253V272.06Zm0,0" transform="translate(-166.094 -189.86)" fill="#ff7758"/>
  <path id="Trazado_145261" data-name="Trazado 145261" d="M199.011,291.32l-3.788,20.856L192,294.447,193.612,288l4.835,3.224Zm0,0" transform="translate(-153.317 -229.977)" fill="#e6e9ed"/>
  <path id="Trazado_145262" data-name="Trazado 145262" d="M130.6,288l1.612,6.447-3.224,17.729L125.2,291.32l.564-.1Zm0,0" transform="translate(-99.975 -229.977)" fill="#e6e9ed"/>
  <path id="Trazado_145263" data-name="Trazado 145263" d="M17.671,272.06H8V248.077a6.461,6.461,0,0,1,4.883-6.253l16.279-4.062,2.45,13.442L35.4,272.06Zm0,0" transform="translate(-6.388 -189.86)" fill="#ff7758"/>
  <path id="Trazado_145264" data-name="Trazado 145264" d="M153.671,320l3.224,17.729H144L147.224,320Zm0,0" transform="translate(-114.988 -255.529)" fill="#675d84"/>
  <path id="Trazado_145265" data-name="Trazado 145265" d="M161.671,275.224l-1.612,6.447h-6.447L152,275.224,156.835,272Zm0,0" transform="translate(-121.376 -217.2)" fill="#675d84"/>
  <path id="Trazado_145266" data-name="Trazado 145266" d="M188.685,233.161l-2.45,13.442-.564-.1L176,240.059,184.059,232Zm0,0" transform="translate(-140.541 -185.259)" fill="#aab2bd"/>
  <path id="Trazado_145267" data-name="Trazado 145267" d="M125.724,240.059l-9.671,6.447-.564.1-2.45-13.442L117.665,232Zm0,0" transform="translate(-90.265 -185.259)" fill="#aab2bd"/>
  <path id="Trazado_145268" data-name="Trazado 145268" d="M136,212.835V208a20.672,20.672,0,0,0,8.059,1.612A20.961,20.961,0,0,0,152.118,208v4.835l-8.059,8.059Zm0,0" transform="translate(-108.6 -166.094)" fill="#f0d0b4"/>
  <path id="Trazado_145269" data-name="Trazado 145269" d="M379.341,80a6.447,6.447,0,1,1,0,12.894H360V80Zm0,0" transform="translate(-287.47 -63.882)" fill="#b17728"/>
  <path id="Trazado_145270" data-name="Trazado 145270" d="M334.447,80V92.894H328V80Zm0,0" transform="translate(-261.917 -63.882)" fill="#fcd770"/>
  <path id="Trazado_145271" data-name="Trazado 145271" d="M288.713,96v6.447h-9.671l-.242-.032a21.2,21.2,0,0,0,0-6.383l.242-.032Zm0,0" transform="translate(-222.63 -76.659)" fill="#aab2bd"/>
  <path id="Trazado_145272" data-name="Trazado 145272" d="M113.665,25.762A20.956,20.956,0,0,1,92.953,49.906a20.673,20.673,0,0,1-8.059-1.612,20.953,20.953,0,1,1,28.77-22.532Zm0,0" transform="translate(-57.494 -6.388)" fill="#ccd1d9"/>
  <path id="Trazado_145273" data-name="Trazado 145273" d="M133.012,54.506A14.506,14.506,0,1,1,118.506,40,14.506,14.506,0,0,1,133.012,54.506Zm0,0" transform="translate(-83.047 -31.941)" fill="#f2edff"/>
  <path id="Trazado_145274" data-name="Trazado 145274" d="M91.871,14.506h-27.4v3.224H57.489a22.557,22.557,0,1,0-31.7,25.192v2.562L6.106,50.4A8.049,8.049,0,0,0,0,58.222v25.59H70.918V58.222A8.049,8.049,0,0,0,64.813,50.4L45.13,45.483V42.921A22.618,22.618,0,0,0,57.489,27.4h6.982v3.224h27.4a8.059,8.059,0,1,0,0-16.118ZM26.907,48.527,32.93,54.55,26.412,58.9l-1.781-9.8ZM38.455,58.734l-1.031,4.125h-3.93l-1.033-4.125,3-2Zm-8.84,1.9.974,3.894L29.012,73.2,27.041,62.35Zm3.965,5.449h3.759l2.636,14.506H30.941Zm6.75-1.555.974-3.894,2.576,1.716L41.906,73.2ZM3.224,58.222A4.832,4.832,0,0,1,6.885,53.53L21.5,49.877l5.583,30.711H12.894V61.247H9.671V80.588H3.224Zm64.471,0V80.588H61.247V61.247H58.024V80.588H43.837L49.42,49.877,64.033,53.53A4.832,4.832,0,0,1,67.695,58.222ZM46.289,49.1l-1.782,9.8L37.989,54.55l6.024-6.024Zm-4.383-3.022-6.447,6.447-6.447-6.447v-1.9a22.336,22.336,0,0,0,12.894,0Zm-6.447-4.168A19.341,19.341,0,1,1,54.8,22.565,19.362,19.362,0,0,1,35.459,41.906ZM57.942,24.176c.039-.535.082-1.067.082-1.612s-.043-1.077-.082-1.612h6.529v3.224Zm9.752-6.447h3.224V27.4H67.695ZM91.871,27.4H74.142V17.729h17.73a4.835,4.835,0,1,1,0,9.671Zm0,0"/>
  <path id="Trazado_145275" data-name="Trazado 145275" d="M112.118,81.256a12.88,12.88,0,0,1-9.4-21.7l-2.352-2.2a16.1,16.1,0,0,0,22.762,22.761l-2.2-2.352A12.857,12.857,0,0,1,112.118,81.256Zm0,0" transform="translate(-76.659 -45.797)"/>
  <path id="Trazado_145276" data-name="Trazado 145276" d="M140.207,32a16.051,16.051,0,0,0-9.031,2.765l1.807,2.669a12.9,12.9,0,0,1,17.907,17.9l2.669,1.807A16.119,16.119,0,0,0,140.207,32Zm0,0" transform="translate(-104.748 -25.553)"/>
  <path id="Trazado_145277" data-name="Trazado 145277" d="M448,104h3.224v3.224H448Zm0,0" transform="translate(-357.741 -83.047)"/>
</svg>
