<svg xmlns="http://www.w3.org/2000/svg" width="190" height="118" viewBox="0 0 190 118">
  <g id="Grupo_83647" data-name="Grupo 83647" transform="translate(-180 -4074.221)">
    <rect id="Rect치ngulo_31153" data-name="Rect치ngulo 31153" width="190" height="118" rx="10" transform="translate(180 4074.221)" fill="#ffe9cb"/>
    <rect id="Rect치ngulo_31154" data-name="Rect치ngulo 31154" width="11" height="118" transform="translate(359 4074.221)" fill="#ffba5b"/>
    <g id="Grupo_83397" data-name="Grupo 83397">
      <path id="Trazado_144023" data-name="Trazado 144023" d="M43.064,23.064v-1.29a5.435,5.435,0,0,0-3.022-4.889l-1.952-.975a5.141,5.141,0,0,0,1.1-3.168V10.38a5.275,5.275,0,0,0-4.885-5.373A5.114,5.114,0,0,0,30.48,6.417a5.182,5.182,0,0,0-1.609,3.744v2.581a5.148,5.148,0,0,0,1.1,3.168l-1.952.975A5.436,5.436,0,0,0,25,21.774v1.29ZM29.175,19.193l3.566-1.783V15.033l-.427-.385a2.543,2.543,0,0,1-.863-1.907V10.161a2.581,2.581,0,0,1,2.72-2.577,2.735,2.735,0,0,1,2.441,2.8v2.361a2.543,2.543,0,0,1-.863,1.907l-.427.385V17.41l3.566,1.783a2.879,2.879,0,0,1,1.294,1.29h-12.3a2.87,2.87,0,0,1,1.293-1.29Z" transform="translate(240.968 4090.383)" fill="#463c5f"/>
      <path id="Trazado_144024" data-name="Trazado 144024" d="M73.118,17.16l-.707-.95-17.322,10.7,10.7-17.322-.95-.707a40,40,0,0,0-47.679,0l-.95.707,10.7,17.322L9.587,16.21l-.707.95a40,40,0,0,0,0,47.679l.707.95,17.322-10.7L16.21,72.411l.95.707a40,40,0,0,0,47.679,0l.95-.707-10.7-17.322,17.322,10.7.707-.95a40,40,0,0,0,0-47.679ZM19.66,10.26a37.424,37.424,0,0,1,42.678,0L50.119,30.046l-1.384-1.384L45.9,29.17l-1.646-2.364h-6.51L36.1,29.17l-2.835-.508-1.384,1.384Zm30.9,37.6-2.7,2.7-3.138-.564-1.818,2.617H39.093L37.274,50l-3.138.564-2.7-2.7L32,44.725l-2.617-1.819V39.093L32,37.273l-.564-3.137,2.7-2.7L37.273,32l1.819-2.617H42.9L44.724,32l3.138-.563,2.7,2.7-.564,3.137,2.617,1.821V42.9L50,44.724Zm-40.3,14.476a37.42,37.42,0,0,1,0-42.679l19.785,12.22-1.384,1.386.508,2.835-2.365,1.645v6.51L29.17,45.9l-.508,2.835,1.384,1.384ZM37.128,78.2v-2.36H44.87V78.2A38.15,38.15,0,0,1,41,78.417,38.15,38.15,0,0,1,37.128,78.2Zm12.9-10.1H31.967V61.644a1.291,1.291,0,0,1,1.29-1.29H48.741a1.291,1.291,0,0,1,1.29,1.29ZM31.967,70.676H50.031v1.29a1.291,1.291,0,0,1-1.29,1.29H33.257a1.291,1.291,0,0,1-1.29-1.29Zm30.371,1.061A36.971,36.971,0,0,1,47.45,77.845V75.837h1.29a3.876,3.876,0,0,0,3.871-3.871V61.644a3.876,3.876,0,0,0-3.871-3.871H33.257a3.876,3.876,0,0,0-3.871,3.871V71.966a3.876,3.876,0,0,0,3.871,3.871h1.29v2.009A37.008,37.008,0,0,1,19.66,71.738L31.879,51.954l1.384,1.384L36.1,52.83l1.646,2.363h6.51L45.9,52.828l2.835.508,1.384-1.384Zm9.4-9.4L51.952,50.119l1.384-1.384L52.828,45.9l2.364-1.646v-6.51L52.828,36.1l.508-2.835-1.384-1.386,19.785-12.22a37.425,37.425,0,0,1,0,42.68Z" transform="translate(234.001 4089.221)" fill="#463c5f"/>
      <path id="Trazado_144025" data-name="Trazado 144025" d="M33.451,27A6.451,6.451,0,1,0,39.9,33.451,6.459,6.459,0,0,0,33.451,27Zm0,10.322a3.871,3.871,0,1,1,3.871-3.871A3.876,3.876,0,0,1,33.451,37.322Z" transform="translate(241.549 4096.768)" fill="#463c5f"/>
      <path id="Trazado_144026" data-name="Trazado 144026" d="M54.322,22A10.334,10.334,0,0,0,44,32.322a9.564,9.564,0,0,0,5.161,8.526v5.667H59.483V40.849a9.565,9.565,0,0,0,5.161-8.526A10.334,10.334,0,0,0,54.322,22ZM51.742,43.935V41.354H56.9v2.581Zm1.29-11.613a1.29,1.29,0,1,1,1.29,1.29A1.292,1.292,0,0,1,53.032,32.322Zm4.845,6.451H55.613V35.956a3.871,3.871,0,1,0-2.581,0v2.818H50.768a7.1,7.1,0,0,1-4.187-6.451,7.742,7.742,0,1,1,15.483,0A7.1,7.1,0,0,1,57.877,38.774Z" transform="translate(246.483 4095.316)" fill="#463c5f"/>
      <path id="Trazado_144027" data-name="Trazado 144027" d="M5,44.064H23.064V26H5Zm10.322-2.581H12.742V38.9h2.581Zm-2.581-12.9h2.581v2.581H12.742Zm-5.161,0h2.581v5.161H17.9V28.581h2.581v12.9H17.9V36.322H10.161v5.161H7.581Z" transform="translate(235.162 4096.479)" fill="#463c5f"/>
    </g>
  </g>
</svg>
