<svg xmlns="http://www.w3.org/2000/svg" width="100" height="100" viewBox="0 0 100 100">
  <g id="innovacion" transform="translate(-1 -1)">
    <g id="Grupo_83385" data-name="Grupo 83385" transform="translate(2.613 2.613)">
      <g id="Grupo_83373" data-name="Grupo 83373" transform="translate(41.935 87.097)">
        <path id="Trazado_144368" data-name="Trazado 144368" d="M40.9,56v3.226a6.452,6.452,0,1,1-12.9,0V56Z" transform="translate(-28 -56)" fill="#aab2bd"/>
      </g>
      <g id="Grupo_83374" data-name="Grupo 83374" transform="translate(38.71 80.645)">
        <path id="Trazado_144369" data-name="Trazado 144369" d="M42.129,52a3.235,3.235,0,0,1,3.226,3.226,3.249,3.249,0,0,1-3.226,3.226h-12.9A3.235,3.235,0,0,1,26,55.226,3.249,3.249,0,0,1,29.226,52Z" transform="translate(-26 -52)" fill="#ccd1d9"/>
      </g>
      <g id="Grupo_83375" data-name="Grupo 83375" transform="translate(35.484 74.194)">
        <path id="Trazado_144370" data-name="Trazado 144370" d="M43.355,54.452H27.226A3.235,3.235,0,0,1,24,51.226,3.249,3.249,0,0,1,27.226,48H46.581a3.235,3.235,0,0,1,3.226,3.226,3.249,3.249,0,0,1-3.226,3.226Z" transform="translate(-24 -48)" fill="#ccd1d9"/>
      </g>
      <g id="Grupo_83376" data-name="Grupo 83376" transform="translate(20.968 14.515)">
        <path id="Trazado_144371" data-name="Trazado 144371" d="M69.839,38.42A27.414,27.414,0,0,1,55.323,62.613v1.613a3.249,3.249,0,0,1,3.226,3.226,3.235,3.235,0,0,1-3.226,3.226H29.516a3.226,3.226,0,0,1,0-6.452V62.613a27.587,27.587,0,0,1-11.29-11.29A27.18,27.18,0,0,1,15,38.42,27.346,27.346,0,0,1,39.258,11.178,27.442,27.442,0,0,1,69.839,38.42Z" transform="translate(-15 -11)" fill="#ffba5b"/>
      </g>
      <g id="Grupo_83377" data-name="Grupo 83377" transform="translate(29.032 22.581)">
        <path id="Trazado_144372" data-name="Trazado 144372" d="M58.71,30.516v9.677l-2.581.919a18.675,18.675,0,0,1-.855,2.032l1.194,2.468-6.855,6.855-2.468-1.194a18.673,18.673,0,0,1-2.032.855l-.919,2.581H34.516L33.6,52.129a18.676,18.676,0,0,1-2.032-.855L29.1,52.468l-6.855-6.855,1.194-2.468a18.675,18.675,0,0,1-.855-2.032L20,40.194V30.516l2.581-.919a18.674,18.674,0,0,1,.855-2.032L22.242,25.1,29.1,18.242l2.468,1.194a18.674,18.674,0,0,1,2.032-.855L34.516,16h9.677l.919,2.581a18.673,18.673,0,0,1,2.032.855l2.468-1.194L56.468,25.1l-1.194,2.468a18.674,18.674,0,0,1,.855,2.032Zm-8.065,4.839a11.29,11.29,0,1,0-11.29,11.29A11.282,11.282,0,0,0,50.645,35.355Z" transform="translate(-20 -16)" fill="#ffe9cb"/>
      </g>
      <g id="Grupo_83378" data-name="Grupo 83378" transform="translate(37.097 30.645)">
        <path id="Trazado_144373" data-name="Trazado 144373" d="M36.29,21A11.29,11.29,0,1,1,25,32.29,11.282,11.282,0,0,1,36.29,21Zm4.839,11.29a4.839,4.839,0,1,0-4.839,4.839A4.832,4.832,0,0,0,41.129,32.29Z" transform="translate(-25 -21)" fill="#ffba5b"/>
      </g>
      <g id="Grupo_83379" data-name="Grupo 83379" transform="translate(90.323)">
        <path id="Trazado_144374" data-name="Trazado 144374" d="M64.452,2V21.355H58V2Z" transform="translate(-58 -2)" fill="#ff7758"/>
      </g>
      <g id="Grupo_83380" data-name="Grupo 83380" transform="translate(77.419 6.452)">
        <path id="Trazado_144375" data-name="Trazado 144375" d="M56.452,6V18.9H50V6Z" transform="translate(-50 -6)" fill="#ff7758"/>
      </g>
      <g id="Grupo_83381" data-name="Grupo 83381" transform="translate(83.871 3.226)">
        <path id="Trazado_144376" data-name="Trazado 144376" d="M60.452,4V20.129H54V4Z" transform="translate(-54 -4)" fill="#ff7758"/>
      </g>
      <g id="Grupo_83382" data-name="Grupo 83382" transform="translate(0 70.968)">
        <path id="Trazado_144377" data-name="Trazado 144377" d="M31.032,55.677v12.9a3.235,3.235,0,0,1-3.226,3.226H5.226A3.235,3.235,0,0,1,2,68.581v-12.9a3.235,3.235,0,0,1,3.226-3.226H19.742L22.419,47.1a1.994,1.994,0,0,1,3.774.9v4.452h1.613A3.235,3.235,0,0,1,31.032,55.677Z" transform="translate(-2 -46)" fill="#ff7758"/>
      </g>
      <g id="Grupo_83383" data-name="Grupo 83383">
        <circle id="Elipse_4278" data-name="Elipse 4278" cx="12.903" cy="12.903" r="12.903" fill="#c3b5ec"/>
      </g>
      <g id="Grupo_83384" data-name="Grupo 83384" transform="translate(70.968 70.968)">
        <circle id="Elipse_4279" data-name="Elipse 4279" cx="12.903" cy="12.903" r="12.903" fill="#c3b5ec"/>
      </g>
    </g>
    <g id="Grupo_83386" data-name="Grupo 83386" transform="translate(1 1)">
      <path id="Trazado_144378" data-name="Trazado 144378" d="M51.574,56.745l-2.281,2.281,4.366,4.366L64.477,52.574,62.2,50.293,53.659,58.83Z" transform="translate(28.599 29.212)"/>
      <path id="Trazado_144379" data-name="Trazado 144379" d="M18.2,6.293,9.659,14.83,7.574,12.745,5.293,15.025l4.366,4.366L20.477,8.574Z" transform="translate(1.631 2.244)"/>
      <path id="Trazado_144380" data-name="Trazado 144380" d="M36.9,20a12.9,12.9,0,1,0,12.9,12.9A12.918,12.918,0,0,0,36.9,20Zm0,22.581A9.677,9.677,0,1,1,46.581,32.9,9.687,9.687,0,0,1,36.9,42.581Z" transform="translate(13.097 10.645)"/>
      <path id="Trazado_144381" data-name="Trazado 144381" d="M34.452,24A6.452,6.452,0,1,0,40.9,30.452,6.458,6.458,0,0,0,34.452,24Zm0,9.677a3.226,3.226,0,1,1,3.226-3.226A3.229,3.229,0,0,1,34.452,33.677Z" transform="translate(15.548 13.097)"/>
      <path id="Trazado_144382" data-name="Trazado 144382" d="M57.674,28.189l1.348-2.819-8.455-8.458L47.747,18.26c-.25-.111-.5-.216-.76-.316L45.948,15H33.987l-1.039,2.945q-.382.15-.76.316l-2.821-1.348-8.455,8.458,1.348,2.819c-.111.253-.218.506-.316.76L19,29.987v11.96l2.945,1.04q.15.38.316.76l-1.348,2.821,8.455,8.455,2.821-1.348c.252.111.5.218.76.316l1.039,2.945H45.948l1.039-2.945q.38-.15.76-.316l2.821,1.348,8.455-8.455-1.348-2.821c.111-.253.218-.506.316-.76l2.945-1.039V29.989l-2.945-1.04q-.15-.38-.316-.76Zm.035,11.476-2.247.792-.252.739a15.871,15.871,0,0,1-.769,1.848l-.345.7L55.127,45.9,49.9,51.126,47.745,50.1l-.7.345a15.553,15.553,0,0,1-1.847.769l-.74.252-.79,2.248H36.271l-.792-2.247-.74-.252a15.554,15.554,0,0,1-1.847-.769l-.7-.345-2.153,1.031L24.806,45.9l1.031-2.152-.345-.7a15.87,15.87,0,0,1-.769-1.848l-.252-.739-2.245-.794v-7.4l2.247-.792.252-.739a15.871,15.871,0,0,1,.769-1.848l.345-.7-1.031-2.152,5.229-5.229,2.153,1.029.7-.345a15.714,15.714,0,0,1,1.848-.769l.739-.253.79-2.244h7.394l.792,2.245.739.253a15.713,15.713,0,0,1,1.848.769l.7.345L49.9,20.81l5.229,5.229L54.1,28.19l.345.7a15.871,15.871,0,0,1,.769,1.848l.252.739,2.245.792Z" transform="translate(10.032 7.581)"/>
      <path id="Trazado_144383" data-name="Trazado 144383" d="M5,53H24.355v3.226H5Z" transform="translate(1.452 30.871)"/>
      <path id="Trazado_144384" data-name="Trazado 144384" d="M15,57h3.226v3.226H15Z" transform="translate(7.581 33.323)"/>
      <path id="Trazado_144385" data-name="Trazado 144385" d="M5,57H17.9v3.226H5Z" transform="translate(1.452 33.323)"/>
      <path id="Trazado_144386" data-name="Trazado 144386" d="M80.7,23.581H101V1H91.323V4.226H84.871V7.452H78.419V21.3l-4.942,4.94A29,29,0,0,0,22.192,40.9c-.084.681-.139,1.358-.176,2.034H18.742a1.615,1.615,0,0,1-1.613-1.613V29.937a14.516,14.516,0,1,0-3.226,0V41.323a4.845,4.845,0,0,0,4.839,4.839h3.29a29.048,29.048,0,0,0,2.219,9.677H17.129a4.845,4.845,0,0,0-4.839,4.839V78.419H5.839A4.845,4.845,0,0,0,1,83.258v12.9A4.845,4.845,0,0,0,5.839,101H28.419a4.845,4.845,0,0,0,4.839-4.839v-12.9a4.845,4.845,0,0,0-4.839-4.839V75.574a3.607,3.607,0,0,0-6.832-1.613l-2.229,4.458H15.516V60.677a1.613,1.613,0,0,1,1.613-1.613h8.71a28.941,28.941,0,0,0,10,10.239,4.823,4.823,0,0,0,1,8.929,4.8,4.8,0,0,0,3.226,6.452,4.8,4.8,0,0,0,2.871,6.342v1.91a8.065,8.065,0,1,0,16.129,0v-1.91a4.8,4.8,0,0,0,2.871-6.342,4.8,4.8,0,0,0,3.226-6.452,4.822,4.822,0,0,0,1-8.929A28.989,28.989,0,0,0,79.979,46.161h3.279a1.615,1.615,0,0,1,1.613,1.613V72.063a14.516,14.516,0,1,0,3.226,0V47.774a4.845,4.845,0,0,0-4.839-4.839H79.947A29.026,29.026,0,0,0,75.4,28.885ZM94.548,4.226h3.226V20.355H94.548ZM91.323,7.452v12.9H88.1V7.452Zm-9.677,3.226h3.226v9.677H81.645ZM4.226,15.516a11.29,11.29,0,1,1,11.29,11.29A11.3,11.3,0,0,1,4.226,15.516ZM21.352,81.645l3.119-6.239a.4.4,0,0,1,.723.168v6.071h3.226a1.613,1.613,0,0,1,1.613,1.613v12.9a1.613,1.613,0,0,1-1.613,1.613H5.839a1.613,1.613,0,0,1-1.613-1.613v-12.9a1.613,1.613,0,0,1,1.613-1.613Zm76.423,4.839a11.29,11.29,0,1,1-11.29-11.29A11.3,11.3,0,0,1,97.774,86.484ZM51,97.774a4.845,4.845,0,0,1-4.839-4.839V91.323h9.677v1.613A4.845,4.845,0,0,1,51,97.774ZM57.452,88.1h-12.9a1.613,1.613,0,1,1,0-3.226h12.9a1.613,1.613,0,1,1,0,3.226Zm3.226-6.452H41.323a1.613,1.613,0,1,1,0-3.226H60.677a1.613,1.613,0,1,1,0,3.226Zm2.465-14.329-.852.455v4.2H63.9a1.613,1.613,0,1,1,0,3.226H38.1a1.613,1.613,0,1,1,0-3.226H39.71v-4.2l-.852-.455a25.806,25.806,0,1,1,24.284,0Z" transform="translate(-1 -1)"/>
    </g>
  </g>
</svg>
