<svg id="expediente" xmlns="http://www.w3.org/2000/svg" width="78.451" height="84.422" viewBox="0 0 78.451 84.422">
  <g id="Grupo_83700" data-name="Grupo 83700" transform="translate(0 0)">
    <path id="Trazado_145240" data-name="Trazado 145240" d="M141.867,91.124H191.9a3.374,3.374,0,0,0,3.374-3.374V12.819A2.819,2.819,0,0,0,192.458,10H141.867" transform="translate(-118.475 -8.351)" fill="#ffba5b"/>
    <g id="Grupo_83699" data-name="Grupo 83699">
      <g id="Grupo_83698" data-name="Grupo 83698">
        <g id="Grupo_83697" data-name="Grupo 83697">
          <g id="Grupo_83693" data-name="Grupo 83693" transform="translate(7.62 1.649)">
            <path id="Trazado_145241" data-name="Trazado 145241" d="M103,44.868v-24.7L92.833,10H49.587a3.374,3.374,0,0,0-3.374,3.374V87.75a3.374,3.374,0,0,0,3.374,3.374H99.623A3.374,3.374,0,0,0,103,87.75V61.984" transform="translate(-46.213 -10)" fill="#ffe9cb"/>
          </g>
          <path id="Trazado_145242" data-name="Trazado 145242" d="M328.953,20.164h10.164L328.953,10Z" transform="translate(-274.713 -8.351)" fill="#ffe9cb"/>
          <g id="Grupo_83696" data-name="Grupo 83696">
            <g id="Grupo_83694" data-name="Grupo 83694">
              <path id="Trazado_145243" data-name="Trazado 145243" fill="#ffe9cb"/>
            </g>
            <g id="Grupo_83695" data-name="Grupo 83695" transform="translate(62.758 43.205)">
              <path id="Trazado_145244" data-name="Trazado 145244" d="M382.26,265.322a1.648,1.648,0,1,1,1.626-1.38,1.664,1.664,0,0,1-1.626,1.38Z" transform="translate(-380.613 -262.029)" fill="#ffe9cb"/>
            </g>
          </g>
        </g>
      </g>
    </g>
  </g>
  <g id="Grupo_83701" data-name="Grupo 83701" transform="translate(15.43 72.936)">
    <path id="Trazado_145245" data-name="Trazado 145245" d="M133.1,445.638H95.231a1.649,1.649,0,0,1,0-3.3H133.1a1.649,1.649,0,1,1,0,3.3Z" transform="translate(-93.582 -442.34)"/>
  </g>
  <g id="Grupo_83717" data-name="Grupo 83717" transform="translate(5.971 0)">
    <g id="Grupo_83711" data-name="Grupo 83711" transform="translate(11.108 12.308)">
      <path id="Trazado_145246" data-name="Trazado 145246" d="M130.833,330.39h6A4.614,4.614,0,0,1,141.447,335v9.042H103.582V335a4.613,4.613,0,0,1,4.614-4.614h6.079" transform="translate(-103.582 -288.221)" fill="#ff7758"/>
      <g id="Grupo_83710" data-name="Grupo 83710" transform="translate(2.903)">
        <g id="Grupo_83703" data-name="Grupo 83703" transform="translate(0 13.991)">
          <g id="Grupo_83702" data-name="Grupo 83702">
            <path id="Trazado_145247" data-name="Trazado 145247" d="M124.027,159.5v6.059h-.162a2.654,2.654,0,0,0-2.673,2.517,2.613,2.613,0,0,0,2.611,2.708h.462l.228,1.044c0,7.473,8.982,10.645,10.086,10.8l-1.311,5.046h7.815l-1.311-5.046c1.1-.158,10.087-3.295,10.087-10.8l.228-1.044h.551a2.613,2.613,0,0,0,2.611-2.708,2.653,2.653,0,0,0-2.673-2.517h-.251V159.5" transform="translate(-121.189 -159.497)" fill="#ffcbbe"/>
          </g>
        </g>
        <g id="Grupo_83708" data-name="Grupo 83708" transform="translate(8.048 20.369)">
          <g id="Grupo_83705" data-name="Grupo 83705">
            <g id="Grupo_83704" data-name="Grupo 83704">
              <path id="Trazado_145248" data-name="Trazado 145248" d="M171.646,203.646A1.649,1.649,0,0,1,170,202V199.83a1.649,1.649,0,0,1,3.3,0V202A1.649,1.649,0,0,1,171.646,203.646Z" transform="translate(-169.997 -198.181)"/>
            </g>
          </g>
          <g id="Grupo_83707" data-name="Grupo 83707" transform="translate(12.666)">
            <g id="Grupo_83706" data-name="Grupo 83706">
              <path id="Trazado_145249" data-name="Trazado 145249" d="M248.461,203.646A1.649,1.649,0,0,1,246.812,202V199.83a1.649,1.649,0,1,1,3.3,0V202A1.649,1.649,0,0,1,248.461,203.646Z" transform="translate(-246.812 -198.181)"/>
            </g>
          </g>
        </g>
        <g id="Grupo_83709" data-name="Grupo 83709" transform="translate(12.544 28.748)">
          <path id="Trazado_145250" data-name="Trazado 145250" d="M200.753,253.356a3.785,3.785,0,0,1-3.267-1.885,1.649,1.649,0,1,1,2.855-1.651.476.476,0,0,0,.825,0,1.649,1.649,0,1,1,2.855,1.651A3.786,3.786,0,0,1,200.753,253.356Z" transform="translate(-197.264 -248.996)"/>
        </g>
        <path id="Trazado_145251" data-name="Trazado 145251" d="M156.24,94.695s2.567-3.782,2.568-10.792c0-4.832-3.153-9.261-3.16-9.258L155.2,75c-3.1,2.482-4.273,3-11.038,1.149-6.184-2.545-8.487,2.84-12.991,2.685-5.707-.2-1.232,15.861-1.232,15.861s1.88-5.835,3.186-5.835c0,0,10.449.386,12.3.271,2.209-.138,4.987-.825,4.993-3.039Z" transform="translate(-127.107 -74.645)" fill="#463c5f"/>
      </g>
    </g>
    <g id="Grupo_83716" data-name="Grupo 83716">
      <g id="Grupo_83712" data-name="Grupo 83712" transform="translate(30.038 51.64)">
        <path id="Trazado_145252" data-name="Trazado 145252" d="M223.628,322.78l3.246-7.989-4.146-1.606-4.34,3.2Z" transform="translate(-218.387 -313.185)" fill="#e5ecec"/>
      </g>
      <g id="Grupo_83715" data-name="Grupo 83715">
        <g id="Grupo_83713" data-name="Grupo 83713" transform="translate(21.558 51.64)">
          <path id="Trazado_145253" data-name="Trazado 145253" d="M170.2,322.78l-3.246-7.989,4.146-1.606,4.34,3.2Z" transform="translate(-166.955 -313.185)" fill="#e5ecec"/>
        </g>
        <g id="Grupo_83714" data-name="Grupo 83714">
          <path id="Trazado_145254" data-name="Trazado 145254" d="M104.225,0H41.236a5.029,5.029,0,0,0-5.023,5.023V79.4a5.029,5.029,0,0,0,5.023,5.023H103.67a5.029,5.029,0,0,0,5.023-5.023V4.468A4.473,4.473,0,0,0,104.225,0ZM86.131,5.63l4.535,4.534H86.131ZM105.4,79.4a1.727,1.727,0,0,1-1.725,1.725H95.99a5,5,0,0,0,.305-1.725V53.633a1.649,1.649,0,1,0-3.3,0V79.4a1.727,1.727,0,0,1-1.725,1.725H41.236A1.727,1.727,0,0,1,39.511,79.4V5.023A1.727,1.727,0,0,1,41.236,3.3h41.6v8.515a1.649,1.649,0,0,0,1.649,1.649H93V36.516a1.649,1.649,0,0,0,3.3,0v-24.7a1.662,1.662,0,0,0-.483-1.166L88.463,3.3h15.762a1.171,1.171,0,0,1,1.17,1.17Z" transform="translate(-36.213 0)"/>
          <path id="Trazado_145255" data-name="Trazado 145255" d="M128.481,106.813h-4.24a1.646,1.646,0,0,0-1-1.12l-3.807-1.474a19.927,19.927,0,0,0,3.71-2.117c3.306-2.417,5.128-5.509,5.293-8.97a4.254,4.254,0,0,0,1.229-7.88,24.936,24.936,0,0,0,1.817-9.7,17.109,17.109,0,0,0-1.725-7.125,22.715,22.715,0,0,0-1.172-2.214c-.613-1.014-.765-1.158-1.078-1.341a1.649,1.649,0,0,0-1.865.135l-.444.355c-2.6,2.078-3.224,2.58-9.478.872-4.394-1.766-7.272-.123-9.588,1.2a7.51,7.51,0,0,1-3.876,1.4,3.811,3.811,0,0,0-3.249,1.484c-1.388,1.763-1.707,5.034-.977,10,.273,1.86.641,3.582.923,4.782a4.257,4.257,0,0,0,.842,8.013c.16,3.454,1.981,6.548,5.292,8.975a20.048,20.048,0,0,0,3.76,2.148l-3.765,1.458a1.647,1.647,0,0,0-1,1.12H99.843a6.27,6.27,0,0,0-6.262,6.262v9.042a1.649,1.649,0,0,0,1.649,1.649H133.1a1.649,1.649,0,0,0,1.649-1.649v-9.042a6.27,6.27,0,0,0-6.263-6.262Zm-9.732.677,1.738.673-1.571,3.866-2.382-2.907ZM101.6,72.357a.551.551,0,0,1,.544-.227A10.39,10.39,0,0,0,107.77,70.3c2.144-1.224,3.837-2.191,6.8-.974a1.66,1.66,0,0,0,.191.065c6.464,1.772,8.487,1.527,11.47-.655a15.14,15.14,0,0,1,1.959,6.819A22.554,22.554,0,0,1,127,83l-4.182-6.187a1.649,1.649,0,0,0-3.015.919c0,.813-1.788,1.294-3.446,1.4-1.452.09-9.253-.166-12.137-.273h-.061c-1.136,0-1.984.872-2.687,2.069-.061-.356-.12-.721-.174-1.09-.815-5.545.028-7.128.306-7.481Zm1.482,20.256a1.654,1.654,0,0,0-.038-.351l-.228-1.044a1.649,1.649,0,0,0-1.611-1.3h-.462a.964.964,0,0,1-.963-1,1,1,0,0,1,1.026-.927l.091,0,.038,0a1.642,1.642,0,0,0,1.6-1.143,21.034,21.034,0,0,1,2.042-4.676c2.247.081,10.268.358,11.978.251a8.686,8.686,0,0,0,5.01-1.563l4.33,6.406a1.649,1.649,0,0,0,1.364.725h0c.042,0,.084,0,.125-.005s.084.005.126.005a1,1,0,0,1,1.026.927.964.964,0,0,1-.963,1h-.551a1.649,1.649,0,0,0-1.611,1.3l-.228,1.044a1.655,1.655,0,0,0-.038.351c0,6.1-7.6,8.978-8.671,9.171a1.649,1.649,0,0,0-1.362,2.047l.488,1.879-1.444,1.065-1.519-1.12.474-1.824a1.639,1.639,0,0,0-1.349-2.045C110.686,101.589,103.084,98.7,103.084,92.613Zm6.492,14.877,2.214,1.632-2.382,2.907-1.57-3.866Zm21.871,12.979H96.879v-7.393a2.968,2.968,0,0,1,2.965-2.965h5.226l2.328,5.73a1.649,1.649,0,0,0,2.8.425l3.962-4.835,3.962,4.835a1.649,1.649,0,0,0,2.8-.425l2.328-5.73h5.226a2.968,2.968,0,0,1,2.965,2.965Z" transform="translate(-84.122 -53.985)"/>
        </g>
      </g>
    </g>
  </g>
</svg>
