<svg xmlns="http://www.w3.org/2000/svg" width="190" height="118" viewBox="0 0 190 118">
  <g id="Grupo_83648" data-name="Grupo 83648" transform="translate(-180 -4316.221)">
    <rect id="Rect치ngulo_31155" data-name="Rect치ngulo 31155" width="190" height="118" rx="10" transform="translate(180 4316.221)" fill="#ffe9cb"/>
    <rect id="Rect치ngulo_31156" data-name="Rect치ngulo 31156" width="11" height="118" transform="translate(359 4316.221)" fill="#ffba5b"/>
    <g id="contrato" transform="translate(242.704 4334.922)">
      <g id="Grupo_83400" data-name="Grupo 83400" transform="translate(0.018)">
        <g id="Grupo_83399" data-name="Grupo 83399">
          <path id="Trazado_144423" data-name="Trazado 144423" d="M72.689,23.476a6.564,6.564,0,0,0-9.273,0l-6.575,6.581V12.738A6.513,6.513,0,0,0,54.92,8.1L48.739,1.92A6.513,6.513,0,0,0,44.1,0H6.574A6.564,6.564,0,0,0,.018,6.556V68.042A6.564,6.564,0,0,0,6.574,74.6h43.71a6.564,6.564,0,0,0,6.556-6.556V48.61L72.689,32.748A6.553,6.553,0,0,0,72.689,23.476ZM43.728,4.371a2.385,2.385,0,0,1,1.92.64l6.181,6.182a2.385,2.385,0,0,1,.64,1.92H43.728ZM52.47,68.042a2.188,2.188,0,0,1-2.185,2.185H6.574a2.188,2.188,0,0,1-2.185-2.185V6.556A2.188,2.188,0,0,1,6.574,4.371H39.357V15.3a2.186,2.186,0,0,0,2.185,2.185H52.47V34.432l-6.448,6.453-3.089,3.089a2.185,2.185,0,0,0-.528.854L39.314,54.1a2.186,2.186,0,0,0,2.764,2.764l9.272-3.091a2.184,2.184,0,0,0,.854-.528l.265-.265V68.042Zm-4.9-22.521,3.091,3.091-1.181,1.181-4.636,1.545L46.388,46.7Zm6.181,0-3.091-3.091L61.164,31.914l3.091,3.091ZM69.6,29.658l-2.253,2.255-3.091-3.091,2.254-2.256a2.185,2.185,0,1,1,3.09,3.091Z" transform="translate(-0.018)" fill="#463c5f"/>
        </g>
      </g>
      <g id="Grupo_83402" data-name="Grupo 83402" transform="translate(8.76 21.855)">
        <g id="Grupo_83401" data-name="Grupo 83401">
          <path id="Trazado_144424" data-name="Trazado 144424" d="M92.8,150H62.2a2.185,2.185,0,0,0,0,4.371H92.8a2.185,2.185,0,1,0,0-4.371Z" transform="translate(-60.018 -150)" fill="#463c5f"/>
        </g>
      </g>
      <g id="Grupo_83404" data-name="Grupo 83404" transform="translate(8.76 30.597)">
        <g id="Grupo_83403" data-name="Grupo 83403">
          <path id="Trazado_144425" data-name="Trazado 144425" d="M84.058,210H62.2a2.185,2.185,0,1,0,0,4.371H84.058a2.185,2.185,0,1,0,0-4.371Z" transform="translate(-60.018 -210)" fill="#463c5f"/>
        </g>
      </g>
      <g id="Grupo_83406" data-name="Grupo 83406" transform="translate(8.76 39.339)">
        <g id="Grupo_83405" data-name="Grupo 83405">
          <path id="Trazado_144426" data-name="Trazado 144426" d="M84.058,270H62.2a2.185,2.185,0,0,0,0,4.371H84.058a2.185,2.185,0,0,0,0-4.371Z" transform="translate(-60.018 -270)" fill="#463c5f"/>
        </g>
      </g>
      <g id="Grupo_83408" data-name="Grupo 83408" transform="translate(8.76 48.081)">
        <g id="Grupo_83407" data-name="Grupo 83407">
          <path id="Trazado_144427" data-name="Trazado 144427" d="M84.058,330H62.2a2.185,2.185,0,1,0,0,4.371H84.058a2.185,2.185,0,0,0,0-4.371Z" transform="translate(-60.018 -330)" fill="#463c5f"/>
        </g>
      </g>
      <g id="Grupo_83410" data-name="Grupo 83410" transform="translate(26.244 61.485)">
        <g id="Grupo_83409" data-name="Grupo 83409">
          <path id="Trazado_144428" data-name="Trazado 144428" d="M195.316,422H182.2a2.185,2.185,0,0,0,0,4.371h13.113a2.185,2.185,0,0,0,0-4.371Z" transform="translate(-180.018 -422)" fill="#463c5f"/>
        </g>
      </g>
    </g>
  </g>
</svg>
