<svg xmlns="http://www.w3.org/2000/svg" width="83.992" height="83.992" viewBox="0 0 83.992 83.992">
  <g id="ticket" transform="translate(0 0)">
    <path id="Trazado_145113" data-name="Trazado 145113" d="M69.052,35.868l8.12-8.128L52.8,2,19.227,35.868" transform="translate(5.465 -0.646)" fill="#ffba5b"/>
    <g id="Grupo_83634" data-name="Grupo 83634" transform="translate(48.647 18.021)">
      <path id="Trazado_145114" data-name="Trazado 145114" d="M0,0H25.631V2.711H0Z" transform="translate(0 18.121) rotate(-45)" fill="#f9d18b"/>
    </g>
    <g id="Grupo_83635" data-name="Grupo 83635" transform="translate(62.707 22.088)">
      <path id="Trazado_145115" data-name="Trazado 145115" d="M0,0H11.495V2.711H0Z" transform="translate(0 8.127) rotate(-45)" fill="#f9d18b"/>
    </g>
    <path id="Trazado_145116" data-name="Trazado 145116" d="M30.157,21.4l-3.831,3.831a1.353,1.353,0,0,0,0,1.916l5.747,5.747a1.353,1.353,0,0,0,1.916,0l3.831-3.831a1.353,1.353,0,0,0,0-1.916L35.9,25.228l-1.916,1.916.958.958-1.916,1.916L29.2,26.186l1.916-1.916.958.958,1.916-1.916L32.073,21.4a1.353,1.353,0,0,0-1.916,0Z" transform="translate(7.843 6.094)" fill="#c16b3f"/>
    <g id="Grupo_83636" data-name="Grupo 83636" transform="translate(39.914 7.373)">
      <path id="Trazado_145117" data-name="Trazado 145117" d="M45.4,10.275,47.32,8.359,45.4,6.443l-5.748,5.748,1.917,1.916,1.916-1.914,5.748,5.747,1.917-1.917Z" transform="translate(-27.202 -6.443)" fill="#c16b3f"/>
      <path id="Trazado_145118" data-name="Trazado 145118" d="M40.044,20.028H38.091l.363-1.089a1.355,1.355,0,0,0-.326-1.386l-1.916-1.917L34.3,17.552l1.325,1.325-.959,2.873L32.38,19.468l-1.917,1.917,7.664,7.664,1.917-1.917-3.24-3.24.385-1.153h2.294l2.476,2.478L43.875,23.3,41,20.426a1.347,1.347,0,0,0-.958-.4Z" transform="translate(-30.463 -3.182)" fill="#c16b3f"/>
      <path id="Trazado_145119" data-name="Trazado 145119" d="M42.93,20.015l-.958-.958,2.873-2.873-1.917-1.917L40.055,17.14l-.956-.958,2.873-2.873-1.917-1.917-3.831,3.832a1.357,1.357,0,0,0,0,1.917l5.747,5.748a1.359,1.359,0,0,0,1.917,0l3.832-3.832L45.8,17.14Z" transform="translate(-28.56 -4.688)" fill="#c16b3f"/>
    </g>
    <path id="Trazado_145120" data-name="Trazado 145120" d="M21.064,62.223h56.9V27h-56.9a3.755,3.755,0,0,1-2,3.235,4.065,4.065,0,0,0,.918,7.458,1.4,1.4,0,0,1,1.081,1.324v.352a1.4,1.4,0,0,1-1.081,1.324,4.066,4.066,0,0,0,0,7.838,1.4,1.4,0,0,1,1.081,1.324v.352a1.4,1.4,0,0,1-1.081,1.324,4.065,4.065,0,0,0-.918,7.458,3.755,3.755,0,0,1,2,3.235Z" transform="translate(4.675 8.222)" fill="#ffba5b"/>
    <path id="Trazado_145121" data-name="Trazado 145121" d="M35.612,53,23.42,65.192a3.753,3.753,0,0,1-.874-3.7,4.066,4.066,0,0,0-5.924-4.624,1.4,1.4,0,0,1-1.7-.172l-.249-.249a1.4,1.4,0,0,1-.172-1.7A4.035,4.035,0,0,0,15.021,53" transform="translate(3.715 17.445)" fill="#ff7758"/>
    <path id="Trazado_145122" data-name="Trazado 145122" d="M2,62.223a3.755,3.755,0,0,1,2-3.235,4.065,4.065,0,0,0-.918-7.458A1.4,1.4,0,0,1,2,50.206v-.352A1.4,1.4,0,0,1,3.081,48.53a4.066,4.066,0,0,0,0-7.838A1.4,1.4,0,0,1,2,39.369v-.352a1.4,1.4,0,0,1,1.081-1.324A4.065,4.065,0,0,0,4,30.235,3.755,3.755,0,0,1,2,27H26.385a3.755,3.755,0,0,1-2,3.235,4.065,4.065,0,0,0,.918,7.458,1.4,1.4,0,0,1,1.081,1.324v.352A1.4,1.4,0,0,1,25.3,40.692a4.066,4.066,0,0,0,0,7.838,1.4,1.4,0,0,1,1.081,1.324v.352A1.4,1.4,0,0,1,25.3,51.53a4.065,4.065,0,0,0-.918,7.458,3.755,3.755,0,0,1,2,3.235Z" transform="translate(-0.645 8.222)" fill="#ff7758"/>
    <g id="Grupo_83637" data-name="Grupo 83637" transform="translate(9.482 40.641)">
      <path id="Trazado_145123" data-name="Trazado 145123" d="M8,31h8.127v2.709H8Z" transform="translate(-7.999 -31)" fill="#c66b60"/>
    </g>
    <g id="Grupo_83638" data-name="Grupo 83638" transform="translate(9.482 46.06)">
      <path id="Trazado_145124" data-name="Trazado 145124" d="M8,35h8.127v2.709H8Z" transform="translate(-7.999 -35)" fill="#c66b60"/>
    </g>
    <g id="Grupo_83639" data-name="Grupo 83639" transform="translate(9.482 51.479)">
      <path id="Trazado_145125" data-name="Trazado 145125" d="M8,39h8.127v2.709H8Z" transform="translate(-7.999 -39)" fill="#c66b60"/>
    </g>
    <g id="Grupo_83640" data-name="Grupo 83640" transform="translate(9.482 56.897)">
      <path id="Trazado_145126" data-name="Trazado 145126" d="M8,43h8.127v2.709H8Z" transform="translate(-7.999 -43)" fill="#c66b60"/>
    </g>
    <g id="Grupo_83641" data-name="Grupo 83641" transform="translate(9.482 62.316)">
      <path id="Trazado_145127" data-name="Trazado 145127" d="M8,47h8.127v2.709H8Z" transform="translate(-7.999 -47)" fill="#c66b60"/>
    </g>
    <g id="Grupo_83642" data-name="Grupo 83642" transform="translate(29.802 39.286)">
      <path id="Trazado_145128" data-name="Trazado 145128" d="M23,32.708h2.709v8.128h2.708V32.708h2.709V30H23Z" transform="translate(-22.999 -30)" fill="#c16b3f"/>
      <path id="Trazado_145129" data-name="Trazado 145129" d="M61.127,30H53v2.708h2.709v8.128h2.708V32.708h2.709Z" transform="translate(-12.357 -30)" fill="#c16b3f"/>
      <path id="Trazado_145130" data-name="Trazado 145130" d="M30,30h2.708V40.838H30Z" transform="translate(-20.516 -30)" fill="#c16b3f"/>
      <path id="Trazado_145131" data-name="Trazado 145131" d="M39.771,30H34.354A1.353,1.353,0,0,0,33,31.355v8.128a1.353,1.353,0,0,0,1.355,1.355h5.418a1.353,1.353,0,0,0,1.355-1.355V36.774H38.417v1.355H35.708V32.709h2.708v1.355h2.709V31.355A1.353,1.353,0,0,0,39.771,30Z" transform="translate(-19.452 -30)" fill="#c16b3f"/>
      <path id="Trazado_145132" data-name="Trazado 145132" d="M45.417,31.871l-2.709,1.355V30H40V40.838h2.708V36.256l1.088-.543,1.623,1.623v3.5h2.708V36.774a1.353,1.353,0,0,0-.4-.959l-1.38-1.38,1.027-.513a1.354,1.354,0,0,0,.749-1.211V30H45.417Z" transform="translate(-16.969 -30)" fill="#c16b3f"/>
      <path id="Trazado_145133" data-name="Trazado 145133" d="M47,31.355v8.128a1.353,1.353,0,0,0,1.355,1.355h5.418V38.128H49.708V36.774h4.063V34.064H49.708V32.709h4.063V30H48.354A1.353,1.353,0,0,0,47,31.355Z" transform="translate(-14.486 -30)" fill="#c16b3f"/>
    </g>
    <g id="Grupo_83643" data-name="Grupo 83643" transform="translate(29.802 52.833)">
      <path id="Trazado_145134" data-name="Trazado 145134" d="M23,40H71.768v2.709H23Z" transform="translate(-22.999 -40)" fill="#f2c351"/>
    </g>
    <g id="Grupo_83644" data-name="Grupo 83644" transform="translate(59.606 58.252)">
      <path id="Trazado_145135" data-name="Trazado 145135" d="M45,44H63.964v2.709H45Z" transform="translate(-44.999 -44)" fill="#f2c351"/>
    </g>
    <path id="Trazado_145136" data-name="Trazado 145136" d="M24,45H45.676v5.419H24Z" transform="translate(7.158 14.607)" fill="#c3b5ec"/>
    <path id="Trazado_145137" data-name="Trazado 145137" d="M24,45v5.419H38.506A13.824,13.824,0,0,0,42.453,45Z" transform="translate(7.158 14.607)" fill="#c3b5ec"/>
    <g id="Grupo_83645" data-name="Grupo 83645" transform="translate(0 0)">
      <path id="Trazado_145138" data-name="Trazado 145138" d="M83.637,34.868H78.785l5.81-5.816a1.356,1.356,0,0,0,.026-1.89L60.246,1.423A1.351,1.351,0,0,0,59.277,1h-.015a1.362,1.362,0,0,0-.963.4L25.126,34.868H2.353A1.353,1.353,0,0,0,1,36.221a5.068,5.068,0,0,0,2.685,4.414,2.711,2.711,0,0,1-.611,4.975A2.734,2.734,0,0,0,1,48.239v.352a2.734,2.734,0,0,0,2.074,2.629,2.711,2.711,0,0,1,0,5.226A2.734,2.734,0,0,0,1,59.077v.352a2.734,2.734,0,0,0,2.074,2.629,2.71,2.71,0,0,1,.611,4.973A5.076,5.076,0,0,0,1,71.444,1.353,1.353,0,0,0,2.355,72.8H17.934a2.7,2.7,0,0,0,.494,3.049l.251.251a2.741,2.741,0,0,0,3.329.392,2.712,2.712,0,0,1,3.949,3.085A5.074,5.074,0,0,0,27.177,84.6a1.356,1.356,0,0,0,1.916,0l11.8-11.8H83.637a1.353,1.353,0,0,0,1.355-1.355V36.223a1.353,1.353,0,0,0-1.355-1.355ZM59.239,4.3,81.747,28.067l-6.791,6.8H55.75L69.694,20.924l-1.917-1.917L51.916,34.868H46.994a1.318,1.318,0,0,0-.332-.63l-1.916-1.916L42.83,34.239l.63.629H39.628l-1.586-1.586,1.914-1.917.958.958,1.917-1.916L40.915,28.49a1.359,1.359,0,0,0-1.917,0l-3.831,3.832a1.356,1.356,0,0,0,0,1.916l.629.63H28.941ZM5.021,69.389a5.416,5.416,0,0,0-1.311-9.961l.084-.37a5.416,5.416,0,0,0-.084-10.467l.084-.37a5.42,5.42,0,0,0,1.227-9.944,2.828,2.828,0,0,1-.829-.7H24.9a2.8,2.8,0,0,1-.826.7,5.418,5.418,0,0,0,1.314,9.961l-.085.37a5.417,5.417,0,0,0,.085,10.468l-.085.37a5.42,5.42,0,0,0-1.229,9.942,2.8,2.8,0,0,1,.826.7H4.193a2.839,2.839,0,0,1,.828-.7ZM28.476,81.378a2.81,2.81,0,0,1,.091-1.081,5.415,5.415,0,0,0-7.97-6.112l-.2-.324a5.359,5.359,0,0,0,.451-1.062H37.056ZM82.282,70.089H27.9a5.224,5.224,0,0,0-2.491-3.058,2.712,2.712,0,0,1,.612-4.973,2.738,2.738,0,0,0,2.077-2.631v-.352a2.735,2.735,0,0,0-2.077-2.629,2.711,2.711,0,0,1,0-5.225,2.738,2.738,0,0,0,2.077-2.631v-.352a2.735,2.735,0,0,0-2.077-2.629,2.711,2.711,0,0,1-.611-4.972A5.223,5.223,0,0,0,27.9,37.577H82.282Z" transform="translate(-1 -1)"/>
      <path id="Trazado_145139" data-name="Trazado 145139" d="M8,31h8.127v2.709H8Z" transform="translate(1.483 9.641)"/>
      <path id="Trazado_145140" data-name="Trazado 145140" d="M8,35h8.127v2.709H8Z" transform="translate(1.483 11.06)"/>
      <path id="Trazado_145141" data-name="Trazado 145141" d="M8,39h8.127v2.709H8Z" transform="translate(1.483 12.479)"/>
      <path id="Trazado_145142" data-name="Trazado 145142" d="M8,43h8.127v2.709H8Z" transform="translate(1.483 13.898)"/>
      <path id="Trazado_145143" data-name="Trazado 145143" d="M8,47h8.127v2.709H8Z" transform="translate(1.483 15.317)"/>
      <path id="Trazado_145144" data-name="Trazado 145144" d="M25.709,40.836h2.708V32.708h2.709V30H23v2.708h2.709Z" transform="translate(6.804 9.287)"/>
      <path id="Trazado_145145" data-name="Trazado 145145" d="M55.709,40.836h2.708V32.708h2.709V30H53v2.708h2.709Z" transform="translate(17.445 9.287)"/>
      <path id="Trazado_145146" data-name="Trazado 145146" d="M30,30h2.708V40.838H30Z" transform="translate(9.287 9.287)"/>
      <path id="Trazado_145147" data-name="Trazado 145147" d="M34.355,40.837h5.418a1.353,1.353,0,0,0,1.355-1.355V36.773H38.418v1.355H35.709V32.708h2.708v1.355h2.709V31.354A1.353,1.353,0,0,0,39.772,30H34.355A1.353,1.353,0,0,0,33,31.354v8.128A1.353,1.353,0,0,0,34.355,40.837Z" transform="translate(10.351 9.286)"/>
      <path id="Trazado_145148" data-name="Trazado 145148" d="M42.708,36.255l1.088-.543,1.623,1.623v3.5h2.708V36.773a1.353,1.353,0,0,0-.4-.959l-1.38-1.38,1.027-.513a1.354,1.354,0,0,0,.749-1.211V30H45.418v1.872l-2.709,1.355V30H40V40.838h2.708Z" transform="translate(12.834 9.286)"/>
      <path id="Trazado_145149" data-name="Trazado 145149" d="M48.355,40.837h5.418V38.127H49.709V36.773h4.063V34.063H49.709V32.708h4.063V30H48.355A1.353,1.353,0,0,0,47,31.354v8.128A1.353,1.353,0,0,0,48.355,40.837Z" transform="translate(15.317 9.286)"/>
      <path id="Trazado_145150" data-name="Trazado 145150" d="M43.488,12.192l5.748,5.747,1.917-1.917L45.4,10.275,47.32,8.359,45.4,6.443l-5.748,5.748,1.917,1.916Z" transform="translate(12.712 0.931)"/>
      <path id="Trazado_145151" data-name="Trazado 145151" d="M40.044,27.131,36.8,23.892l.385-1.153h2.294l2.476,2.478L43.875,23.3,41,20.426a1.353,1.353,0,0,0-.958-.4H38.091l.363-1.091a1.356,1.356,0,0,0-.326-1.386l-1.916-1.917L34.3,17.552l1.325,1.325-.958,2.873L32.38,19.468l-1.917,1.917,7.664,7.664Z" transform="translate(9.451 4.192)"/>
      <path id="Trazado_145152" data-name="Trazado 145152" d="M41.97,22.888a1.359,1.359,0,0,0,1.917,0l3.833-3.832L45.8,17.139,42.93,20.014l-.958-.958,2.873-2.873-1.917-1.917-2.873,2.873-.956-.958,2.873-2.873-1.917-1.917-3.831,3.832a1.357,1.357,0,0,0,0,1.917Z" transform="translate(11.354 2.686)"/>
      <path id="Trazado_145153" data-name="Trazado 145153" d="M23,40H71.769v2.709H23Z" transform="translate(6.804 12.834)"/>
      <path id="Trazado_145154" data-name="Trazado 145154" d="M45,44H63.965v2.709H45Z" transform="translate(14.608 14.253)"/>
      <path id="Trazado_145155" data-name="Trazado 145155" d="M0,0H11.495V2.711H0Z" transform="translate(62.704 30.203) rotate(-45)"/>
      <path id="Trazado_145156" data-name="Trazado 145156" d="M24.355,52.127H46.029a1.353,1.353,0,0,0,1.355-1.355V45.354A1.353,1.353,0,0,0,46.029,44H24.355A1.353,1.353,0,0,0,23,45.354v5.419A1.353,1.353,0,0,0,24.355,52.127Zm1.355-5.417H44.674v2.709H25.709Z" transform="translate(6.804 14.252)"/>
    </g>
  </g>
</svg>
