<svg xmlns="http://www.w3.org/2000/svg" width="165.189" height="166" viewBox="0 0 165.189 166">
  <g id="tiempo-de-trabajo" transform="translate(-1.251 0)">
    <g id="Grupo_82562" data-name="Grupo 82562" transform="translate(3.683 2.432)">
      <g id="Grupo_82561" data-name="Grupo 82561">
        <g id="Grupo_82560" data-name="Grupo 82560">
          <g id="Grupo_82546" data-name="Grupo 82546" transform="translate(72.855)">
            <path id="Trazado_141455" data-name="Trazado 141455" d="M43.736,0A43.736,43.736,0,1,1,0,43.736,43.736,43.736,0,0,1,43.736,0Z" fill="#ffba5b"/>
            <path id="Trazado_141456" data-name="Trazado 141456" d="M33.759,0A33.759,33.759,0,1,1,0,33.759,33.759,33.759,0,0,1,33.759,0Z" transform="translate(9.977 9.977)" fill="#ffe9cb"/>
            <circle id="Elipse_4251" data-name="Elipse 4251" cx="4.928" cy="4.928" r="4.928" transform="translate(38.807 38.807)" fill="#ff7758"/>
          </g>
          <g id="Grupo_82559" data-name="Grupo 82559" transform="translate(0 14.309)">
            <g id="Grupo_82558" data-name="Grupo 82558">
              <g id="Grupo_82557" data-name="Grupo 82557">
                <g id="Grupo_82556" data-name="Grupo 82556">
                  <g id="Grupo_82555" data-name="Grupo 82555">
                    <g id="Grupo_82553" data-name="Grupo 82553" transform="translate(1.604 0.001)">
                      <g id="Grupo_82552" data-name="Grupo 82552">
                        <g id="Grupo_82551" data-name="Grupo 82551">
                          <g id="Grupo_82550" data-name="Grupo 82550">
                            <g id="Grupo_82549" data-name="Grupo 82549">
                              <g id="Grupo_82548" data-name="Grupo 82548">
                                <path id="Trazado_141441" data-name="Trazado 141441" d="M165.689,269.339a4.344,4.344,0,0,1-3.805-4.291l-.084-19.867-30.355.128.084,19.867a4.344,4.344,0,0,1-3.769,4.323s-5.605,19.157,19.045,19.053S165.689,269.339,165.689,269.339Z" transform="translate(-88.804 -184.078)" fill="#ffece3"/>
                                <path id="Trazado_141443" data-name="Trazado 141443" d="M145.409,90.046l-1.836.008-.031-7.31A25.106,25.106,0,0,0,134.96,63.7a27.578,27.578,0,0,0-36.858.156A25.108,25.108,0,0,0,89.68,82.971l.022,5.154.009,2.156-1.836.008a4.874,4.874,0,0,0-4.854,4.895l.023,5.4a4.874,4.874,0,0,0,4.895,4.854l1.844-.008A25.058,25.058,0,0,0,98.355,123.9a27.578,27.578,0,0,0,36.858-.156A25.059,25.059,0,0,0,143.63,105.2l1.844-.008a4.874,4.874,0,0,0,4.854-4.895l-.023-5.4a4.875,4.875,0,0,0-4.9-4.854Z" transform="translate(-58.941 -56.718)" fill="#ffece3"/>
                                <path id="Trazado_141445" data-name="Trazado 141445" d="M114.648,379.611c5.688-.024,10.28-5.057,10.256-10.746l-.1-24.109A21.134,21.134,0,0,0,112.183,325.5c-6.955-3.061-20.085-5-26.548-5.81L66.72,331.634,47.705,319.853c-6.456.866-19.57,2.913-26.5,6.033A21.134,21.134,0,0,0,8.751,345.245l.1,24.109A10.3,10.3,0,0,0,19.2,379.611Z" transform="translate(-8.75 -234.432)" fill="#ffba5b"/>
                              </g>
                            </g>
                          </g>
                        </g>
                      </g>
                    </g>
                    <path id="Trazado_141447" data-name="Trazado 141447" d="M132.255,51.634l-21.17.089a8.851,8.851,0,0,0-8.33,5.966,3.232,3.232,0,0,1-3.049,2.163,8.92,8.92,0,0,0-8.883,8.958l.078,18.6s7.827-.126,10.486,2.474a.877.877,0,0,0,1.494-.626l-.052-12.228a7.688,7.688,0,0,1,7.655-7.72h.092a12.413,12.413,0,0,1,3.735.559,23.5,23.5,0,0,0,7.061,1.123l.95,0a23.506,23.506,0,0,0,7.051-1.182,12.425,12.425,0,0,1,3.73-.591h.092a7.688,7.688,0,0,1,7.72,7.655l.052,12.228c0,.782,4.663,1.149,5.217.6,2.637-2.622,6.747-2.546,6.747-2.546l-.064-15.076a20.526,20.526,0,0,0-20.613-20.44Z" transform="translate(-64.214 -51.633)" fill="#aa8080"/>
                    <path id="Trazado_141449" data-name="Trazado 141449" d="M107.554,328.541l10.939,9.31a4.479,4.479,0,0,0,5.536.213l8.393-6.1-19.015-11.781c-1.048.14-2.271.312-3.615.515A4.48,4.48,0,0,0,107.554,328.541Z" transform="translate(-74.452 -233.116)" fill="#ffba5b"/>
                    <path id="Trazado_141450" data-name="Trazado 141450" d="M212.385,328l-10.861,9.4a4.479,4.479,0,0,1-5.534.259l-8.444-6.026,18.915-11.941c1.049.132,2.274.293,3.62.484a4.48,4.48,0,0,1,2.3,7.822Z" transform="translate(-129.578 -232.783)" fill="#ffba5b"/>
                    <path id="Trazado_141451" data-name="Trazado 141451" d="M170.055,356.524l-8.393,6.1,4.005,5.577,8.873-.037,3.958-5.61Z" transform="translate(-112.085 -257.673)" fill="#ff7758"/>
                  </g>
                  <path id="Trazado_141452" data-name="Trazado 141452" d="M178.049,428.754l-5.073-36.341-8.873.037-4.756,36.3Z" transform="translate(-110.521 -281.926)" fill="#ff7758"/>
                </g>
              </g>
            </g>
          </g>
        </g>
      </g>
    </g>
    <g id="Grupo_82565" data-name="Grupo 82565" transform="translate(1.251 0)">
      <g id="Grupo_82564" data-name="Grupo 82564" transform="translate(0 0)">
        <g id="Grupo_82563" data-name="Grupo 82563">
          <path id="Trazado_141453" data-name="Trazado 141453" d="M367.744,88.925l-7.355-2.483a7.365,7.365,0,0,0-4.953-6.872l-.064-17.436a2.425,2.425,0,0,0-2.425-2.416h-.009a2.425,2.425,0,0,0-2.416,2.434l.064,17.44a7.351,7.351,0,0,0,2.449,14.282h.032a7.343,7.343,0,0,0,5.766-2.838l7.359,2.484a2.425,2.425,0,0,0,1.552-4.595Zm-14.7.1a2.5,2.5,0,0,1-.021-5.008h.011a2.5,2.5,0,0,1,.011,5.008Z" transform="translate(-234.011 -40.356)"/>
          <path id="Trazado_141454" data-name="Trazado 141454" d="M87.866,79.033a46.093,46.093,0,0,0,32.409,13.3h.2a46.164,46.164,0,1,0-36.58-74.569A22.808,22.808,0,0,0,71.811,14.31h-.1L50.542,14.4A11.286,11.286,0,0,0,39.929,22a.806.806,0,0,1-.767.528,11.359,11.359,0,0,0-11.3,11.394l.073,17.32a7.276,7.276,0,0,0-2.6,5.62l.023,5.4a7.3,7.3,0,0,0,6.9,7.258A27.306,27.306,0,0,0,43.936,89.3l.043,10.2a1.925,1.925,0,0,1-1.666,1.91h0c-7.1.952-20.067,3.026-27.174,6.226A23.583,23.583,0,0,0,1.252,129.217l.024,5.763A2.425,2.425,0,0,0,3.7,137.394h.01a2.425,2.425,0,0,0,2.414-2.435L6.1,129.2a18.728,18.728,0,0,1,11.028-17.14c3.933-1.771,10.127-3.2,15.713-4.237a6.817,6.817,0,0,0,2.366,6.195l10.94,9.311a6.844,6.844,0,0,0,6.3,1.4l2.284,3.18L50.378,161.15H25.192l-.056-13.27a2.425,2.425,0,0,0-2.425-2.414H22.7a2.425,2.425,0,0,0-2.414,2.435l.056,13.249H14.078A7.885,7.885,0,0,1,6.2,153.308l-.03-7.013a2.425,2.425,0,0,0-2.425-2.414h-.01a2.425,2.425,0,0,0-2.414,2.435l.03,7.013A12.725,12.725,0,0,0,14.067,166h95.525c6.9-.029,12.7-6.066,12.672-13.182l-.1-24.111a23.583,23.583,0,0,0-14.068-21.464c-7.134-3.14-20.12-5.105-27.226-6h0a1.925,1.925,0,0,1-1.682-1.9l-.043-10.2a26.885,26.885,0,0,0,8.723-10.118ZM120.1,4.85h.179a41.314,41.314,0,0,1,.169,82.628h-.175a41.263,41.263,0,0,1-30.5-13.456,28.522,28.522,0,0,0,.886-4.746A7.269,7.269,0,0,0,92.212,69,36.31,36.31,0,0,0,120.278,82.35h.151a36.174,36.174,0,0,0,35.452-29.69,2.425,2.425,0,1,0-4.772-.866,31.324,31.324,0,0,1-30.7,25.706h-.131a31.45,31.45,0,0,1-24.11-11.323,7.241,7.241,0,0,0,1.327-4.218l-.023-5.4a7.276,7.276,0,0,0-2.65-5.6l-.058-13.794a22.84,22.84,0,0,0-1.239-7.327,31.342,31.342,0,0,1,57.7,11.389,2.425,2.425,0,1,0,4.79-.757A36.185,36.185,0,0,0,91.072,24.8a23.129,23.129,0,0,0-3.356-4.066A41.41,41.41,0,0,1,120.1,4.85ZM39.182,27.379a5.66,5.66,0,0,0,5.332-3.8,6.432,6.432,0,0,1,6.048-4.331l21.171-.089h.077a18.125,18.125,0,0,1,18.1,18.028l.054,12.883a11.822,11.822,0,0,0-5.545,2.567,10.312,10.312,0,0,1-1.568-.071l-.045-10.6A10.125,10.125,0,0,0,72.7,31.893h-.134A14.834,14.834,0,0,0,68.1,32.6a22.494,22.494,0,0,1-13.606.057,15.2,15.2,0,0,0-4.466-.668h-.09A10.108,10.108,0,0,0,39.871,42.144l.04,9.454a23.18,23.18,0,0,0-7.13-1.444L32.713,33.9a6.493,6.493,0,0,1,6.469-6.524Zm10.111,92.254-10.94-9.311a2.054,2.054,0,0,1,1-3.591c1.015-.154,1.944-.287,2.749-.4L57.3,115.755l-5.461,3.967h0l-.01.007A2.051,2.051,0,0,1,49.292,119.633Zm31.832-13.465c.805.1,1.736.23,2.752.375a2.055,2.055,0,0,1,1.027,3.583l-10.862,9.4a2.05,2.05,0,0,1-2.538.119l-.01-.007h0L66,115.718ZM64.876,124.812l-6.373.027-1.869-2.6,5.03-3.654,5.06,3.611Zm-5.484,4.873,4.636-.019,4.4,31.485H55.269Zm57.921-.957.1,24.111a8.192,8.192,0,0,1-7.832,8.311h-6.239l-.057-13.6a2.425,2.425,0,0,0-2.425-2.414h-.01a2.425,2.425,0,0,0-2.414,2.435l.057,13.579H73.32l-4.649-33.3,2.257-3.2a6.846,6.846,0,0,0,6.289-1.453l10.862-9.4a6.818,6.818,0,0,0,2.314-6.214c5.6.988,11.8,2.366,15.749,4.1a18.728,18.728,0,0,1,11.172,17.046ZM74.336,99.371a6.745,6.745,0,0,0,1.607,4.333l-14.3,9.031-14.38-8.91a6.745,6.745,0,0,0,1.571-4.346L48.8,92.143a30.192,30.192,0,0,0,12.739,2.839h.054a30.194,30.194,0,0,0,12.715-2.947ZM61.543,90.133c-12.468-.1-24.243-9.193-24.6-23.094a2.425,2.425,0,0,0-2.424-2.363h-.01l-1.844.008a2.483,2.483,0,0,1-1.735-.71,2.433,2.433,0,0,1-.725-1.729l-.023-5.4a2.439,2.439,0,0,1,.9-1.9c2.783.042,6.858.592,8.074,1.782a3.3,3.3,0,0,0,5.615-2.37l-.052-12.229a5.261,5.261,0,0,1,5.244-5.285h.09a10,10,0,0,1,3.006.45,27.339,27.339,0,0,0,16.52-.07,9.99,9.99,0,0,1,3-.476H72.7a5.27,5.27,0,0,1,5.263,5.241l.052,12.229a2.822,2.822,0,0,0,1.95,2.63c.848.35,5.653,1.416,7.4-.323a7.413,7.413,0,0,1,4.381-1.8,2.439,2.439,0,0,1,.877,1.863l.023,5.4a2.45,2.45,0,0,1-2.44,2.46l-1.844.008a2.425,2.425,0,0,0-2.414,2.383c-.24,13.867-11.9,23.1-24.4,23.3Z" transform="translate(-1.251 0)"/>
        </g>
      </g>
    </g>
  </g>
</svg>
