<svg xmlns="http://www.w3.org/2000/svg" width="80" height="80.129" viewBox="0 0 80 80.129">
  <g id="headhunting" transform="translate(-0.411)">
    <path id="Trazado_140835" data-name="Trazado 140835" d="M122.2,334.991l-6.646-6.646a2.431,2.431,0,0,1,0-3.437h0a2.431,2.431,0,0,1,3.437,0l6.646,6.646a2.431,2.431,0,0,1,0,3.437h0A2.431,2.431,0,0,1,122.2,334.991Z" transform="translate(-96.525 -273.46)" fill="#ddd4f8"/>
    <path id="Trazado_140837" data-name="Trazado 140837" d="M9.771,375.258l-.195-.2a4.108,4.108,0,0,1,0-5.809l16.491-16.491,6,6L15.58,375.258a4.108,4.108,0,0,1-5.81,0Z" transform="translate(-6.716 -297.557)" fill="#c3b5ec"/>
    <path id="Trazado_140839" data-name="Trazado 140839" d="M0,0H9.017V4.862H0Z" transform="translate(24.065 53.048) rotate(-45)" fill="#9bd8f9"/>
    <path id="Trazado_140850" data-name="Trazado 140850" d="M29.075,0A29.075,29.075,0,1,1,0,29.075,29.075,29.075,0,0,1,29.075,0Z" transform="translate(21.101 1.174)" fill="#ffba5b"/>
    <circle id="Elipse_4168" data-name="Elipse 4168" cx="24.23" cy="24.23" r="24.23" transform="translate(25.78 6.049)" fill="#eaf6ff"/>
    <path id="Trazado_140841" data-name="Trazado 140841" d="M174.68,101.708a24.247,24.247,0,0,1-.156-41.947c-.116.11-.232.224-.346.338a29.075,29.075,0,0,0,0,41.119C174.344,101.384,174.511,101.548,174.68,101.708Z" transform="translate(-136.736 -50.409)" fill="#d8ecfe"/>
    <path id="Trazado_140842" data-name="Trazado 140842" d="M254.394,114.885A14.583,14.583,0,1,1,239.81,100.3a14.539,14.539,0,0,1,14.584,14.584Z" transform="translate(-189.634 -84.604)" fill="#365e7d"/>
    <path id="Trazado_140843" data-name="Trazado 140843" d="M274.91,207.233V213a14.579,14.579,0,0,1-19.562-.16v-5.6a2.326,2.326,0,0,1,1.7-2.177l5.418-1.355H267.8l5.418,1.355A2.326,2.326,0,0,1,274.91,207.233Z" transform="translate(-215.041 -171.823)" fill="#c3b5ec"/>
    <path id="Trazado_140845" data-name="Trazado 140845" d="M286.6,135.312V137a4.891,4.891,0,1,0,9.781,0v-1.686a4.891,4.891,0,1,0-9.781,0Z" transform="translate(-241.398 -110.011)" fill="#ffcebf"/>
    <path id="Trazado_140846" data-name="Trazado 140846" d="M289.726,137v-1.686a4.893,4.893,0,0,1,3.326-4.635,4.894,4.894,0,0,0-6.456,4.635V137a4.894,4.894,0,0,0,6.456,4.635A4.893,4.893,0,0,1,289.726,137Z" transform="translate(-241.398 -110.011)" fill="#ffb09e"/>
    <g id="Grupo_82182" data-name="Grupo 82182" transform="translate(0.411)">
      <path id="Trazado_140847" data-name="Trazado 140847" d="M178.382,31.655a25.4,25.4,0,0,0-15.924,43.286,25.774,25.774,0,0,0,35.928,0,25.436,25.436,0,0,0,0-35.927,25.167,25.167,0,0,0-14.641-7.224,1.174,1.174,0,1,0-.305,2.328,22.839,22.839,0,0,1,13.287,6.556,23.086,23.086,0,0,1,0,32.608,23.392,23.392,0,0,1-32.608,0,23.057,23.057,0,0,1,14.451-39.287,1.174,1.174,0,1,0-.187-2.34Z" transform="translate(-130.822 -26.698)"/>
      <path id="Trazado_140848" data-name="Trazado 140848" d="M71.566,8.86a30.251,30.251,0,0,0-51.53,18.809,1.174,1.174,0,0,0,2.339.2,27.907,27.907,0,1,1,.013,4.909,1.174,1.174,0,1,0-2.338.212,30.283,30.283,0,0,0,6.4,16.023L24.073,51.39c-1.456-1.731-3.987-2.657-5.872-.773a3.611,3.611,0,0,0-.458,4.536L2.03,70.866c-5,5.01,2.739,12.59,7.665,7.665l5.82-5.82a1.174,1.174,0,0,0-1.66-1.66l-5.82,5.82C5.267,79.64.922,75.295,3.69,72.527L19.351,56.865,23.7,61.21l-6.225,6.225a1.174,1.174,0,0,0,1.66,1.66l6.276-6.276a3.371,3.371,0,0,0,4.538-.459c1.725-1.906.928-4.324-.774-5.871L31.564,54.1a30.586,30.586,0,0,0,40-2.456A30.285,30.285,0,0,0,71.566,8.86ZM28.284,60.7a1.258,1.258,0,0,1-1.777,0l-6.646-6.646a1.258,1.258,0,0,1-.005-1.772,1.349,1.349,0,0,1,1.784-.006l6.646,6.646a1.257,1.257,0,0,1,0,1.778Zm-.773-5.872L25.733,53.05l2.25-2.25q.853.926,1.784,1.773Z" transform="translate(-0.411)"/>
      <path id="Trazado_140849" data-name="Trazado 140849" d="M207.332,61.978a1.174,1.174,0,0,0-1.174,1.174v3.694a15.781,15.781,0,0,0-14.541,14.567H187.9a1.174,1.174,0,1,0,0,2.347h3.723a16,16,0,0,0,14.538,14.512v3.75a1.174,1.174,0,0,0,2.347,0v-3.75A16.029,16.029,0,0,0,223.043,83.76h3.723a1.174,1.174,0,0,0,0-2.347h-3.72a15.781,15.781,0,0,0-14.541-14.567V63.152A1.173,1.173,0,0,0,207.332,61.978Zm3.629,17.288a3.721,3.721,0,0,1-3.711,3.717h-.012a3.721,3.721,0,0,1-3.711-3.717V77.58a3.717,3.717,0,0,1,7.434,0v1.686Zm-6.239,6.064h5.045L215,86.641a1.157,1.157,0,0,1,.846,1.049v5.218a13.5,13.5,0,0,1-17.213-.153V87.689a1.157,1.157,0,0,1,.846-1.049Zm16.021-2.771A13.333,13.333,0,0,1,218.2,90.4V87.689a3.516,3.516,0,0,0-2.585-3.316l-3.929-.983a6.041,6.041,0,0,0,1.624-4.124V77.58a6.064,6.064,0,0,0-12.129,0v1.686A6.041,6.041,0,0,0,202.8,83.39s-3.975,1-4,1a3.5,3.5,0,0,0-2.517,3.3v2.465a13.407,13.407,0,1,1,24.452-7.6Z" transform="translate(-157.566 -52.279)"/>
    </g>
  </g>
</svg>
