<svg xmlns="http://www.w3.org/2000/svg" width="84.597" height="84.597" viewBox="0 0 84.597 84.597">
  <g id="XMLID_758_" transform="translate(0 0)">
    <path id="XMLID_2258_" d="M3.966,0A3.966,3.966,0,1,1,0,3.966,3.966,3.966,0,0,1,3.966,0Z" transform="translate(21.022 13.219)" fill="#ffba5b"/>
    <path id="XMLID_853_" d="M55.106,235.59l-6.649-6.649L10.734,266.662a2.551,2.551,0,0,0,0,3.608l3.042,3.042a2.551,2.551,0,0,0,3.608,0Z" transform="translate(-8.337 -191.111)" fill="#ff7758"/>
    <path id="XMLID_1450_" d="M51.744,351.549h13.3L78.592,338h-13.3Z" transform="translate(-43.194 -282.151)" fill="#675d84"/>
    <path id="XMLID_2239_" d="M170.233,69.6l-16.9-2.639a2.487,2.487,0,0,1-.741-4.676l15.261-7.734-2.718-16.92a2.487,2.487,0,0,1,4.215-2.153L181.464,47.6l15.2-7.775a2.487,2.487,0,0,1,3.347,3.347l-7.775,15.2,12.118,12.118a2.487,2.487,0,0,1-2.153,4.215l-16.92-2.718-7.734,15.261a2.487,2.487,0,0,1-4.676-.741Z" transform="translate(-126.237 -29.002)" fill="#c3b5ec"/>
    <g id="XMLID_539_" transform="translate(0 0.001)">
      <path id="XMLID_557_" d="M78.937,60.6A1.652,1.652,0,0,0,76.6,62.938l.351.351a.835.835,0,0,1-.723,1.415l-16.92-2.718a1.653,1.653,0,0,0-1.736.884L49.838,78.131a.835.835,0,0,1-1.57-.249l-2.64-16.9A1.652,1.652,0,0,0,44.251,59.6l-16.9-2.639a.835.835,0,0,1-.249-1.57l15.261-7.734a1.652,1.652,0,0,0,.884-1.736L40.526,29a.835.835,0,0,1,1.415-.723L54.059,40.4a1.653,1.653,0,0,0,1.921.3l15.2-7.775a.835.835,0,0,1,1.124,1.124L64.53,49.25a1.653,1.653,0,0,0,.3,1.921l1.252,1.252a1.652,1.652,0,1,0,2.337-2.337l-.4-.4,7.227-14.131a4.14,4.14,0,0,0-5.571-5.571L55.545,37.209,44.278,25.942a4.14,4.14,0,0,0-7.014,3.584L39.79,45.255,25.6,52.444a4.14,4.14,0,0,0,1.233,7.783l7.939,1.24L1.229,95.014a4.208,4.208,0,0,0,0,5.944L4.271,104a4.208,4.208,0,0,0,5.944,0L43.763,70.452,45,78.392a4.077,4.077,0,0,0,3.442,3.45,4.335,4.335,0,0,0,.68.054,4.066,4.066,0,0,0,3.66-2.271L59.974,65.44,75.7,67.966a4.14,4.14,0,0,0,3.584-7.014ZM21.165,88.378H12.539L22.784,78.133h8.625ZM7.879,101.663a.9.9,0,0,1-1.271,0L3.566,98.622a.9.9,0,0,1,0-1.271l5.668-5.669H17.86ZM34.714,74.828H26.088L38.819,62.1l3.73.582.582,3.73Z" transform="translate(0 -20.632)"/>
      <path id="XMLID_560_" d="M386.925,321.691h-1.157v-1.157a1.652,1.652,0,0,0-3.3,0v1.157h-1.157a1.652,1.652,0,1,0,0,3.3h1.157v1.157a1.652,1.652,0,0,0,3.3,0V325h1.157a1.652,1.652,0,1,0,0-3.3Z" transform="translate(-316.923 -266.192)"/>
      <path id="XMLID_561_" d="M320.64,6.114H321.8V7.27a1.652,1.652,0,1,0,3.3,0V6.114h1.157a1.652,1.652,0,1,0,0-3.3H325.1V1.652a1.652,1.652,0,1,0-3.3,0V2.809H320.64a1.652,1.652,0,1,0,0,3.3Z" transform="translate(-266.281 0)"/>
      <path id="XMLID_880_" d="M122.843,81.236a5.618,5.618,0,1,0-5.618-5.618A5.624,5.624,0,0,0,122.843,81.236Zm0-7.931a2.313,2.313,0,1,1-2.313,2.313A2.316,2.316,0,0,1,122.843,73.3Z" transform="translate(-97.856 -58.434)"/>
      <path id="XMLID_881_" d="M493.64,164a1.653,1.653,0,1,0,1.168.484A1.665,1.665,0,0,0,493.64,164Z" transform="translate(-410.695 -136.902)"/>
      <path id="XMLID_1531_" d="M493.64,3.3a1.653,1.653,0,0,0,1.652-1.652,1.652,1.652,0,1,0-2.82,1.168A1.665,1.665,0,0,0,493.64,3.3Z" transform="translate(-410.695 0)"/>
      <path id="XMLID_1569_" d="M98.64,20.3a1.653,1.653,0,1,0-1.168-.484A1.664,1.664,0,0,0,98.64,20.3Z" transform="translate(-80.962 -14.191)"/>
      <path id="XMLID_1571_" d="M429.321,207.634a1.651,1.651,0,1,0,1.168-.484A1.662,1.662,0,0,0,429.321,207.634Z" transform="translate(-357.979 -172.922)"/>
    </g>
  </g>
</svg>
