<svg xmlns="http://www.w3.org/2000/svg" width="80.001" height="80" viewBox="0 0 80.001 80">
  <g id="investigar" transform="translate(0 -0.005)">
    <g id="Grupo_82176" data-name="Grupo 82176" transform="translate(1.564 1.567)">
      <path id="Trazado_140707" data-name="Trazado 140707" d="M148.261,38.129A21.875,21.875,0,1,1,170.136,60a21.875,21.875,0,0,1-21.875-21.875Zm-6.25,0a28.007,28.007,0,0,0,6.15,17.555,28.291,28.291,0,0,0,4.419,4.419,28.126,28.126,0,1,0-10.57-21.975Z" transform="translate(-121.386 -10.004)" fill="#e6e6e6" fill-rule="evenodd"/>
      <path id="Trazado_140718" data-name="Trazado 140718" d="M21.875,0A21.875,21.875,0,1,1,0,21.875,21.875,21.875,0,0,1,21.875,0Z" transform="translate(26.875 6.25)" fill="#ffcbbf"/>
      <path id="Trazado_140708" data-name="Trazado 140708" d="M161.266,306.777a28.3,28.3,0,0,1-4.419-4.419l-4.542,4.542,4.419,4.419Z" transform="translate(-130.072 -256.678)" fill="gray" fill-rule="evenodd"/>
      <path id="Trazado_140709" data-name="Trazado 140709" d="M36.663,330.924,32.244,326.5a3.134,3.134,0,0,0-4.419,0l-16.9,16.9a3.134,3.134,0,0,0,0,4.419l4.419,4.419a3.134,3.134,0,0,0,4.419,0l16.9-16.9A3.134,3.134,0,0,0,36.663,330.924Z" transform="translate(-10.01 -276.283)" fill="#ffba5b" fill-rule="evenodd"/>
      <path id="Trazado_140710" data-name="Trazado 140710" d="M225.435,151.6c3.012,4.251,8.642,7.112,15.09,7.112a7.112,7.112,0,1,1,0-14.224C234.077,144.487,228.447,147.348,225.435,151.6Z" transform="translate(-191.775 -123.474)" fill="#fff" fill-rule="evenodd"/>
      <circle id="Elipse_4166" data-name="Elipse 4166" cx="7.112" cy="7.112" r="7.112" transform="translate(41.638 21.013)" fill="gray"/>
      <path id="Trazado_140711" data-name="Trazado 140711" d="M329.124,151.6a7.112,7.112,0,0,1-7.112,7.112c6.448,0,12.078-2.861,15.09-7.112-3.012-4.252-8.642-7.112-15.09-7.112A7.112,7.112,0,0,1,329.124,151.6Z" transform="translate(-273.262 -123.473)" fill="#fff" fill-rule="evenodd"/>
    </g>
    <g id="Grupo_82177" data-name="Grupo 82177" transform="translate(0 0.005)">
      <path id="Trazado_140712" data-name="Trazado 140712" d="M50.314,0a29.6,29.6,0,0,0-15.8,4.555A1.563,1.563,0,0,0,36.175,7.2a26.559,26.559,0,1,1-8.35,8.35,1.563,1.563,0,0,0-2.644-1.666,29.658,29.658,0,0,0,1.1,33.21L23.607,49.77a4.7,4.7,0,0,0-5.334.915l-16.9,16.9a4.693,4.693,0,0,0,0,6.629L5.79,78.636a4.7,4.7,0,0,0,6.629,0l16.9-16.9a4.708,4.708,0,0,0,.916-5.335l2.671-2.671A29.682,29.682,0,1,0,50.314,0Zm-23.2,59.519-16.9,16.9a1.572,1.572,0,0,1-2.21,0L3.58,72.007a1.564,1.564,0,0,1,0-2.21l16.9-16.9a1.564,1.564,0,0,1,2.21,0l4.42,4.42a1.572,1.572,0,0,1,0,2.21ZM28.217,54l-2.21-2.21,2.249-2.249a29.961,29.961,0,0,0,2.21,2.21Z" transform="translate(0 -0.005)"/>
      <path id="Trazado_140713" data-name="Trazado 140713" d="M213.95,75.223a1.563,1.563,0,0,0,2.118-.629,23.427,23.427,0,1,0-9.468,9.468,1.563,1.563,0,0,0-1.489-2.747,20.3,20.3,0,1,1,8.21-8.21A1.562,1.562,0,0,0,213.95,75.223Z" transform="translate(-145.134 -33.755)"/>
      <path id="Trazado_140714" data-name="Trazado 140714" d="M186.294,55.847a1.563,1.563,0,1,0-1.051-2.719h0a1.562,1.562,0,0,0,1.052,2.718Z" transform="translate(-155.867 -44.485)"/>
      <path id="Trazado_140715" data-name="Trazado 140715" d="M412.568,282.123a1.562,1.562,0,1,0-1-2.763h0a1.562,1.562,0,0,0,1,2.762Z" transform="translate(-346.785 -235.405)"/>
      <path id="Trazado_140716" data-name="Trazado 140716" d="M248.453,144.064a1.562,1.562,0,0,0,0-1.807c-3.4-4.794-9.667-7.771-16.365-7.771s-12.969,2.978-16.365,7.771a1.563,1.563,0,0,0,0,1.807c3.4,4.794,9.667,7.771,16.365,7.771S245.057,148.858,248.453,144.064Zm-10.815-.9a5.55,5.55,0,1,1-5.55-5.55A5.556,5.556,0,0,1,237.638,143.161Zm-18.661,0a15.211,15.211,0,0,1,5.383-3.933,8.643,8.643,0,0,0,0,7.867A15.21,15.21,0,0,1,218.977,143.161Zm20.839,3.933a8.643,8.643,0,0,0,0-7.867,15.209,15.209,0,0,1,5.383,3.933A15.21,15.21,0,0,1,239.816,147.094Z" transform="translate(-181.774 -113.473)"/>
      <path id="Trazado_140717" data-name="Trazado 140717" d="M313.57,183.13h0a1.563,1.563,0,1,0-1.564-1.562A1.562,1.562,0,0,0,313.571,183.13Z" transform="translate(-263.256 -151.88)"/>
    </g>
  </g>
</svg>
