<svg xmlns="http://www.w3.org/2000/svg" width="113.081" height="100" viewBox="0 0 113.081 100">
  <g id="compromiso-de-la-marca" transform="translate(-7.957 -21.848)">
    <g id="Grupo_83395" data-name="Grupo 83395" transform="translate(10.124 23.732)">
      <g id="Grupo_83394" data-name="Grupo 83394" transform="translate(0 0)">
        <g id="Grupo_83392" data-name="Grupo 83392" transform="translate(27.874)">
          <path id="Trazado_144399" data-name="Trazado 144399" d="M122.833,104.187l-3.655-9.295H77.58l-3.655,9.295s-5.427,12.12.822,18.939a2.319,2.319,0,0,0,1.7.68h43.858a2.32,2.32,0,0,0,1.7-.68C128.26,116.306,122.833,104.187,122.833,104.187Z" transform="translate(-71.74 -62.372)" fill="#463c5f"/>
          <path id="Trazado_144402" data-name="Trazado 144402" d="M125.748,72.522V90.647A20.085,20.085,0,0,1,108.963,110.4h-.01a21.614,21.614,0,0,1-6.434,0,20.082,20.082,0,0,1-16.8-19.751V72.522a2.481,2.481,0,0,1,2.473-2.473h35.082A2.481,2.481,0,0,1,125.748,72.522Z" transform="translate(-79.135 -49.23)" fill="#ffbb98"/>
          <path id="Trazado_144405" data-name="Trazado 144405" d="M104.488,25.848H95.6A20.638,20.638,0,0,0,74.965,46.486V56A2.154,2.154,0,0,0,77.1,58.15c17.476.143,20.811-8.185,22.535-15.271,1.7,7.1,4.76,15.177,23.324,15.242a2.155,2.155,0,0,0,2.165-2.151V46.486a20.638,20.638,0,0,0-20.638-20.638Z" transform="translate(-73.446 -25.848)" fill="#463c5f"/>
        </g>
        <g id="Grupo_83393" data-name="Grupo 83393" transform="translate(0 61.433)">
          <path id="Trazado_144408" data-name="Trazado 144408" d="M110,157.592l3.791,7.681a2.354,2.354,0,0,0,1.773,1.288l8.477,1.232a2.355,2.355,0,0,1,1.305,4.017l-6.134,5.979a2.356,2.356,0,0,0-.677,2.085l1.448,8.442a2.355,2.355,0,0,1-3.417,2.483l-7.582-3.986a2.354,2.354,0,0,0-2.192,0L99.214,190.8a2.355,2.355,0,0,1-3.417-2.483l1.448-8.442a2.356,2.356,0,0,0-.677-2.085l-6.134-5.979a2.355,2.355,0,0,1,1.305-4.017l8.477-1.232a2.356,2.356,0,0,0,1.773-1.288l3.791-7.681A2.355,2.355,0,0,1,110,157.592Z" transform="translate(-53.377 -156.279)" fill="#ffba5b"/>
          <path id="Trazado_144409" data-name="Trazado 144409" d="M32.842,157.592l3.791,7.681a2.354,2.354,0,0,0,1.773,1.288l8.477,1.232a2.355,2.355,0,0,1,1.305,4.017l-6.134,5.979a2.356,2.356,0,0,0-.677,2.085l1.448,8.442a2.355,2.355,0,0,1-3.417,2.483l-7.582-3.986a2.354,2.354,0,0,0-2.192,0L22.053,190.8a2.355,2.355,0,0,1-3.417-2.483l1.448-8.442a2.356,2.356,0,0,0-.677-2.085l-6.134-5.979a2.355,2.355,0,0,1,1.305-4.017l8.477-1.232a2.356,2.356,0,0,0,1.773-1.288l3.791-7.681A2.355,2.355,0,0,1,32.842,157.592Z" transform="translate(-12.558 -156.279)" fill="#ffba5b"/>
          <path id="Trazado_144410" data-name="Trazado 144410" d="M187.164,157.592l3.791,7.681a2.353,2.353,0,0,0,1.773,1.288l8.477,1.232a2.355,2.355,0,0,1,1.305,4.017l-6.134,5.979a2.356,2.356,0,0,0-.677,2.085l1.448,8.442a2.355,2.355,0,0,1-3.417,2.483l-7.582-3.986a2.354,2.354,0,0,0-2.192,0l-7.582,3.986a2.355,2.355,0,0,1-3.417-2.483l1.448-8.442a2.356,2.356,0,0,0-.677-2.085l-6.134-5.979a2.355,2.355,0,0,1,1.305-4.017l8.477-1.232a2.355,2.355,0,0,0,1.773-1.288l3.791-7.681A2.355,2.355,0,0,1,187.164,157.592Z" transform="translate(-94.195 -156.279)" fill="#ffba5b"/>
        </g>
      </g>
    </g>
    <g id="Grupo_83396" data-name="Grupo 83396" transform="translate(7.957 21.848)">
      <circle id="Elipse_4281" data-name="Elipse 4281" cx="2.681" cy="2.681" r="2.681" transform="translate(44.103 38.43)"/>
      <circle id="Elipse_4282" data-name="Elipse 4282" cx="2.681" cy="2.681" r="2.681" transform="matrix(0.987, -0.16, 0.16, 0.987, 63.407, 38.902)"/>
      <path id="Trazado_144414" data-name="Trazado 144414" d="M127.467,117.8v-.845a1.884,1.884,0,0,0-3.768,0v.845a2.308,2.308,0,0,1-4.616,0v-.845a1.884,1.884,0,0,0-3.768,0v.845a6.076,6.076,0,0,0,12.152,0Z" transform="translate(-64.749 -71.166)"/>
      <path id="Trazado_144415" data-name="Trazado 144415" d="M148.285,44.433a11.214,11.214,0,0,1,5.842,6.947,1.884,1.884,0,1,0,3.619-1.048,14.991,14.991,0,0,0-7.808-9.285,1.884,1.884,0,1,0-1.653,3.386Z" transform="translate(-81.631 -31.903)"/>
      <path id="Trazado_144416" data-name="Trazado 144416" d="M164.7,70.244a1.884,1.884,0,0,0-1.884,1.884v1.459a1.884,1.884,0,0,0,3.768,0V72.128A1.884,1.884,0,0,0,164.7,70.244Z" transform="translate(-89.875 -47.45)"/>
      <path id="Trazado_144417" data-name="Trazado 144417" d="M120.072,102.045a4.24,4.24,0,0,0-2.349-7.231l-8.477-1.232a.47.47,0,0,1-.355-.258L105.1,85.643a4.24,4.24,0,0,0-7.6,0l-3.791,7.681a.471.471,0,0,1-.355.258l-8.477,1.232a4.237,4.237,0,0,0-1.748.674,4.237,4.237,0,0,0-1.748-.674L72.9,93.582a.47.47,0,0,1-.355-.258l-3.1-6.276H86.885a4.175,4.175,0,0,0,3.091-1.291c6.873-7.5,1.6-19.96,1.173-20.938l-2.744-6.977a4.027,4.027,0,0,0,3.476-3.99V44.37A22.548,22.548,0,0,0,69.359,21.848H60.466A22.548,22.548,0,0,0,37.952,44.37v9.512a4.049,4.049,0,0,0,3.539,4L38.764,64.82c-.43.978-5.7,13.439,1.172,20.938a4.175,4.175,0,0,0,3.092,1.291H60.462l-3.1,6.276a.471.471,0,0,1-.355.258c-9.178,1.333-9.152,1.19-10.224,1.906a4.237,4.237,0,0,0-1.748-.674l-8.477-1.232a.47.47,0,0,1-.355-.258l-3.791-7.681a4.239,4.239,0,0,0-7.6,0l-3.791,7.681a.471.471,0,0,1-.355.258l-8.477,1.232a4.24,4.24,0,0,0-2.349,7.231l6.133,5.978a.471.471,0,0,1,.136.417l-1.448,8.442a4.24,4.24,0,0,0,6.151,4.469l7.582-3.986a.472.472,0,0,1,.439,0l7.582,3.986a4.241,4.241,0,0,0,6.15-4.469l-1.448-8.442a.47.47,0,0,1,.136-.417l5.532-5.393,5.532,5.392a.471.471,0,0,1,.136.417l-1.448,8.442a4.24,4.24,0,0,0,6.15,4.469l7.582-3.986a.472.472,0,0,1,.439,0l7.582,3.986a4.241,4.241,0,0,0,6.15-4.469l-1.448-8.442a.47.47,0,0,1,.136-.417l5.532-5.392,5.532,5.392a.472.472,0,0,1,.136.417l-1.448,8.443a4.24,4.24,0,0,0,6.151,4.468l7.582-3.986a.472.472,0,0,1,.438,0l7.582,3.986a4.24,4.24,0,0,0,6.151-4.469l-1.448-8.442a.47.47,0,0,1,.136-.417Zm-81.449,3.281a4.237,4.237,0,0,0-1.219,3.752l1.448,8.442a.469.469,0,0,1-.683.5l-7.582-3.986a4.24,4.24,0,0,0-3.945,0l-7.582,3.986a.469.469,0,0,1-.684-.5l1.448-8.442a4.238,4.238,0,0,0-1.219-3.752l-6.134-5.979a.47.47,0,0,1,.261-.8l8.477-1.232A4.239,4.239,0,0,0,24.4,94.992l3.791-7.681a.469.469,0,0,1,.845,0l3.791,7.681a4.238,4.238,0,0,0,3.191,2.319c8.837,1.284,8.709,1.1,8.857,1.552s.144.228-6.252,6.462ZM87.208,83.2a.588.588,0,0,1-.323.078h-9.7c5.949-4.037,9.633-10.412,9.633-19.185,1.066,2.712,5.766,13.243.392,19.107ZM41.72,44.37A18.775,18.775,0,0,1,60.474,25.616h8.885A18.775,18.775,0,0,1,88.113,44.37v9.483a.256.256,0,0,1-.078.187.272.272,0,0,1-.2.081h0c-16.817-.058-19.765-6.559-21.5-13.8a1.884,1.884,0,0,0-1.829-1.445h0a1.885,1.885,0,0,0-1.831,1.438c-1.721,7.071-4.736,13.972-20.69,13.833a.27.27,0,0,1-.268-.267V44.37Zm1.308,38.911a.649.649,0,0,1-.314-.069c-3.923-4.281-2.6-11.595-.458-16.976l.761-1.935c0,8.515,3.7,14.952,9.635,18.98ZM46.785,65.15V57.721c10.43-.984,15.193-5.558,17.692-10.97A16.469,16.469,0,0,0,68.6,52.432c3.331,2.945,8.086,4.674,14.449,5.244v7.473a18.131,18.131,0,0,1-36.262,0ZM81.1,99.347l-6.134,5.979a4.237,4.237,0,0,0-1.219,3.752l1.448,8.442a.469.469,0,0,1-.683.5l-7.582-3.986a4.24,4.24,0,0,0-3.945,0L55.4,118.016a.469.469,0,0,1-.683-.5l1.448-8.443a4.239,4.239,0,0,0-1.219-3.752l-6.134-5.979a.469.469,0,0,1,.261-.8l8.477-1.232a4.239,4.239,0,0,0,3.191-2.319l3.791-7.682a.469.469,0,0,1,.844,0l3.791,7.682a4.24,4.24,0,0,0,3.191,2.319l8.477,1.232A.469.469,0,0,1,81.1,99.347Zm28.99,9.731,1.448,8.442a.469.469,0,0,1-.683.5l-7.582-3.986a4.24,4.24,0,0,0-3.945,0l-7.582,3.986a.469.469,0,0,1-.683-.5l1.448-8.442a4.237,4.237,0,0,0-1.219-3.752l-6.133-5.979a.469.469,0,0,1,.261-.8L93.9,97.312a4.239,4.239,0,0,0,3.191-2.319l3.791-7.681a.469.469,0,0,1,.845,0l3.791,7.682a4.24,4.24,0,0,0,3.191,2.319l8.477,1.232a.469.469,0,0,1,.261.8l-6.133,5.979A4.234,4.234,0,0,0,110.089,109.078Z" transform="translate(-8.275 -21.848)"/>
      <path id="Trazado_144418" data-name="Trazado 144418" d="M130.025,205.082a1.884,1.884,0,0,0-2.634.4l-.059.081a1.884,1.884,0,1,0,3.035,2.233l.059-.081A1.884,1.884,0,0,0,130.025,205.082Z" transform="translate(-70.911 -118.585)"/>
      <path id="Trazado_144419" data-name="Trazado 144419" d="M140.939,187.363a1.884,1.884,0,0,0-2.634.4l-1.954,2.655a1.884,1.884,0,1,0,3.035,2.233L141.339,190A1.884,1.884,0,0,0,140.939,187.363Z" transform="translate(-75.683 -109.211)"/>
      <path id="Trazado_144420" data-name="Trazado 144420" d="M9.841,37.026H14.3v4.462a1.884,1.884,0,0,0,3.768,0V37.026h4.462a1.884,1.884,0,1,0,0-3.768H18.071V28.8a1.884,1.884,0,0,0-3.768,0v4.462H9.841a1.884,1.884,0,1,0,0,3.768Z" transform="translate(-7.957 -24.527)"/>
      <path id="Trazado_144421" data-name="Trazado 144421" d="M213.981,52.746h4.462v4.462a1.884,1.884,0,1,0,3.768,0V52.746h4.462a1.884,1.884,0,1,0,0-3.768h-4.462V44.516a1.884,1.884,0,1,0-3.768,0v4.462h-4.462a1.884,1.884,0,1,0,0,3.768Z" transform="translate(-115.947 -32.843)"/>
      <path id="Trazado_144422" data-name="Trazado 144422" d="M31.545,91.609a1.884,1.884,0,1,0-3.768,0v4.462H23.315a1.884,1.884,0,0,0,0,3.768h4.462V104.3a1.884,1.884,0,1,0,3.768,0V99.839h4.462a1.884,1.884,0,0,0,0-3.768H31.545Z" transform="translate(-15.085 -57.755)"/>
    </g>
  </g>
</svg>
