<svg xmlns="http://www.w3.org/2000/svg" width="134.259" height="159.828" viewBox="0 0 134.259 159.828">
  <g id="empresario" transform="translate(-40.955)">
    <path id="Trazado_141457" data-name="Trazado 141457" d="M103.036,111.825h0l0,0v-6.806a34.238,34.238,0,1,1,18.874.23v6.576l14.321,5.425a53.106,53.106,0,0,0,4.661-3.04.777.777,0,0,1,.98.1l7.78,7.78a3.831,3.831,0,0,0,5.418,0l7.962-7.962a3.831,3.831,0,0,0,0-5.418l-7.78-7.78a.777.777,0,0,1-.1-.98,49.927,49.927,0,0,0,7.278-17.566.777.777,0,0,1,.761-.626h11a3.831,3.831,0,0,0,3.831-3.831V66.659a3.831,3.831,0,0,0-3.831-3.831h-11a.777.777,0,0,1-.761-.626,49.937,49.937,0,0,0-7.278-17.566.777.777,0,0,1,.1-.98l7.78-7.78a3.831,3.831,0,0,0,0-5.418L155.068,22.5a3.831,3.831,0,0,0-5.418,0l-7.78,7.78a.777.777,0,0,1-.98.1,49.921,49.921,0,0,0-17.566-7.278.777.777,0,0,1-.626-.761v-11A3.831,3.831,0,0,0,118.866,7.5H107.607a3.831,3.831,0,0,0-3.831,3.831v11a.777.777,0,0,1-.626.761,49.933,49.933,0,0,0-17.566,7.278.777.777,0,0,1-.98-.1l-7.78-7.78a3.831,3.831,0,0,0-5.418,0l-7.962,7.963a3.831,3.831,0,0,0,0,5.418l7.78,7.78a.777.777,0,0,1,.1.98A49.921,49.921,0,0,0,64.041,62.2a.777.777,0,0,1-.761.626h-11a3.831,3.831,0,0,0-3.831,3.831V77.918a3.831,3.831,0,0,0,3.831,3.831h11a.777.777,0,0,1,.761.626,49.925,49.925,0,0,0,7.278,17.566.777.777,0,0,1-.1.98l-7.78,7.78a3.831,3.831,0,0,0,0,5.418l7.962,7.962a3.817,3.817,0,0,0,2.682,1.121,15.18,15.18,0,0,1,2.87-1.706l.736-.285L84.6,114.3a.777.777,0,0,1,.98-.1c1.3.857,2.636,1.967,4.013,2.7" transform="translate(-5.154 -5.159)" fill="#ffba5b"/>
    <path id="Trazado_141461" data-name="Trazado 141461" d="M201.468,132.22a23.331,23.331,0,0,0-23.331,23.332v9.233a7.438,7.438,0,0,1,5.943-1.942v-1.162a1.59,1.59,0,0,1,1.7-1.585,41.769,41.769,0,0,0,25.142-6.753,1.589,1.589,0,0,1,2.033.248c5.934,6.379,5.9,6.132,5.9,6.965v2.283a7.058,7.058,0,0,1,5.942,1.738v-9.024A23.331,23.331,0,0,0,201.468,132.22Z" transform="translate(-94.359 -90.946)" fill="#b17728"/>
    <path id="Trazado_141463" data-name="Trazado 141463" d="M307.57,227.135v12.781c0,.139-.007.275-.011.413a6.73,6.73,0,1,0,.011-13.194Z" transform="translate(-183.38 -156.17)" fill="#e4eaf8"/>
    <path id="Trazado_141464" data-name="Trazado 141464" d="M180.416,239.992V227.216c-3.938-.526-8.055,2.5-8.055,6.593a6.779,6.779,0,0,0,8.065,6.6C180.423,240.267,180.416,240.13,180.416,239.992Z" transform="translate(-90.386 -156.246)" fill="#ffbeab"/>
    <g id="Grupo_82568" data-name="Grupo 82568" transform="translate(81.976 70.876)">
      <path id="Trazado_141465" data-name="Trazado 141465" d="M313.228,228.624a7.093,7.093,0,0,0-5.658-1.489v12.781c0,.139-.007.275-.011.413a7.089,7.089,0,0,0,5.669-1.488Z" transform="translate(-265.355 -227.046)" fill="#ffcbbf"/>
      <path id="Trazado_141466" data-name="Trazado 141466" d="M180.417,238.919a6.427,6.427,0,0,1,0-10.011v-1.691c-3.938-.526-8.055,2.5-8.055,6.593a6.779,6.779,0,0,0,8.065,6.6c0-.138-.01-.275-.01-.413Z" transform="translate(-172.362 -227.123)" fill="#ffcbbf"/>
    </g>
    <path id="Trazado_141467" data-name="Trazado 141467" d="M232.1,315.529a18,18,0,0,1-9.791-2.766v9.157l9.749,12.034,9.749-12.034v-9.415A17.044,17.044,0,0,1,232.1,315.529Z" transform="translate(-124.742 -214.952)" fill="#ffcbbf"/>
    <path id="Trazado_141469" data-name="Trazado 141469" d="M189.81,350.672l-25.791-9.988-9.749,12.034-9.749-12.034-25.764,9.988s-9.539,3.922-9.539,14.8V389.6a2.219,2.219,0,0,0,2.219,2.219h85.713a2.2,2.2,0,0,0,2.2-2.2V365.468C199.349,354.594,189.81,350.672,189.81,350.672Z" transform="translate(-46.954 -234.335)" fill="#f6f6f6"/>
    <path id="Trazado_141471" data-name="Trazado 141471" d="M226.056,197.582a1.589,1.589,0,0,0-2.033-.248,41.769,41.769,0,0,1-25.142,6.753,1.59,1.59,0,0,0-1.7,1.585V219.61a17.39,17.39,0,0,0,34.777,0V204.546C231.954,203.713,231.99,203.96,226.056,197.582Z" transform="translate(-107.455 -135.555)" fill="#ffcbbf"/>
    <g id="Grupo_82569" data-name="Grupo 82569" transform="translate(88.268 106.349)">
      <path id="Trazado_141473" data-name="Trazado 141473" d="M265.31,358.9l7.29-14.611-9.312-3.607-9.749,12.034,9.505,6.751A1.538,1.538,0,0,0,265.31,358.9Z" transform="translate(-234.491 -340.683)" fill="#e8e8e8"/>
      <path id="Trazado_141474" data-name="Trazado 141474" d="M199.811,358.9l-7.29-14.611,9.313-3.607,9.749,12.034-9.505,6.751A1.537,1.537,0,0,1,199.811,358.9Z" transform="translate(-192.521 -340.683)" fill="#f6f6f6"/>
    </g>
    <path id="Trazado_141475" data-name="Trazado 141475" d="M238.321,379.242v-.008l-.006,0-.006,0v.008l-6.913,4.91,3.268,4.918h7.3l3.268-4.918Z" transform="translate(-130.992 -260.851)" fill="#ff7758"/>
    <path id="Trazado_141476" data-name="Trazado 141476" d="M225.995,440.012H243.2l-4.954-29.267h-7.3Z" transform="translate(-127.277 -282.525)" fill="#ff7758"/>
    <g id="Grupo_82571" data-name="Grupo 82571" transform="translate(40.955)">
      <path id="Trazado_141480" data-name="Trazado 141480" d="M188.862,361.7Z" transform="translate(-142.691 -248.788)" fill="#474d54"/>
      <path id="Trazado_141481" data-name="Trazado 141481" d="M47.127,78.932h9.738A52.011,52.011,0,0,0,63.523,95l-6.887,6.887a6.18,6.18,0,0,0,0,8.729l7.962,7.962.1.1a17.827,17.827,0,0,0-4.777,12.454v24.134a4.566,4.566,0,0,0,4.56,4.56H150.2a4.546,4.546,0,0,0,4.541-4.541v-6.97a2.341,2.341,0,1,0-4.682,0v6.829H138.5V134.872a2.341,2.341,0,1,0-4.682,0v20.274H117.909l-4.469-26.4,1.418-2.134.61.433a3.879,3.879,0,0,0,5.717-1.43h0l6.338-12.7,14.455,5.6a13.907,13.907,0,0,1,8.078,12.626v6.256a2.341,2.341,0,1,0,4.682,0v-6.257a17.834,17.834,0,0,0-4.157-11.75,6.233,6.233,0,0,0,.99-.806l7.962-7.961a6.173,6.173,0,0,0,0-8.729L152.646,95A52,52,0,0,0,159.3,78.932h9.738a6.18,6.18,0,0,0,6.172-6.172V61.5a6.179,6.179,0,0,0-6.172-6.172H159.3a52.014,52.014,0,0,0-6.658-16.068l6.887-6.887a6.172,6.172,0,0,0,0-8.729l-7.962-7.962a6.173,6.173,0,0,0-8.729,0l-6.888,6.887a52,52,0,0,0-16.068-6.658V6.172A6.179,6.179,0,0,0,113.714,0H102.455a6.18,6.18,0,0,0-6.172,6.172V15.91a52.017,52.017,0,0,0-16.068,6.658l-6.887-6.887a6.173,6.173,0,0,0-8.729,0l-7.962,7.962a6.18,6.18,0,0,0,0,8.729l6.887,6.887a52.006,52.006,0,0,0-6.658,16.068H47.127A6.179,6.179,0,0,0,40.955,61.5V72.759A6.179,6.179,0,0,0,47.127,78.932Zm49.614,76.214h-15.9V134.872a2.341,2.341,0,1,0-4.682,0v20.274H64.608V131.134a13.527,13.527,0,0,1,5.507-11.068,2.369,2.369,0,0,0,.209-.137,13.534,13.534,0,0,1,2.362-1.421l14.441-5.6h0l6.338,12.7h0a3.878,3.878,0,0,0,5.717,1.43l.61-.433,1.418,2.134ZM92.074,84.414l0-.166c0-.064,0-.129,0-.193V70.916l.377.017.047,0q.272.01.544.017l.067,0a44.251,44.251,0,0,0,24.218-6.872c.667.716,1.253,1.342,1.768,1.891l.1.109.01.01.593.632c.555.592,1.037,1.106,1.429,1.529l.038.041.026.028.081.088.032.034.08.087.061.066q.145.158.267.293l.04.045.134.151.04.046.025.028.117.136V84.055c0,.065,0,.129,0,.193l0,.164c0,.049,0,.1,0,.145a14.8,14.8,0,0,1-6.309,11.619c-.035.022-.07.044-.1.067q-.586.4-1.2.751a14.71,14.71,0,0,1-7.176,1.859A14.9,14.9,0,0,1,92.074,84.544C92.075,84.5,92.075,84.458,92.074,84.414ZM86.122,69.272V64.606a20.99,20.99,0,1,1,41.98,0v4.536a9.445,9.445,0,0,0-1.259-.234c-.008-1.492-.313-1.843-3.471-5.209l-.027-.029-.14-.149c-.756-.806-1.7-1.815-2.888-3.089l-.062-.065q-.068-.07-.138-.135-.124-.116-.256-.219l-.007,0a3.922,3.922,0,0,0-4.565-.188,39.606,39.606,0,0,1-4.555,2.56l-.207.1-.137.065a39.144,39.144,0,0,1-16.339,3.74q-1.231,0-2.445-.085a3.931,3.931,0,0,0-2.963,1.037l-.043.041-.012.012-.03.03-.015.014-.032.032-.01.01-.042.044,0,0-.034.037-.014.016-.028.031-.012.013-.037.043h0l-.038.046-.01.012-.028.035-.011.013-.029.037-.008.01c-.024.032-.048.064-.072.1l-.009.012-.027.038-.008.012c-.023.033-.045.066-.067.1l-.005.008-.027.042-.008.013-.026.042-.006.009-.031.052h0l-.029.051-.007.013-.022.039-.008.014-.024.045,0,.008-.027.053,0,.01-.022.044-.007.014-.019.04-.007.016-.022.049,0,0-.022.052-.008.021-.014.035-.008.021-.014.036-.007.018-.02.053-.006.018-.012.036-.009.026-.009.028-.009.028-.008.025-.008.025A9.907,9.907,0,0,0,86.122,69.272Zm1.261,4.513v8.3a4.436,4.436,0,0,1-1.88-.952,4.293,4.293,0,0,1-1.492-3.261,4.018,4.018,0,0,1,1.305-2.883l.056-.05A5.233,5.233,0,0,1,87.382,73.786Zm41.467.941.043.039a4.308,4.308,0,0,1-.17,6.366,4.444,4.444,0,0,1-1.88.953V73.66a4.536,4.536,0,0,1,1.115.425l.024.013.026.014A4.409,4.409,0,0,1,128.849,74.727Zm-21.524,39.929L99.911,105.5v-3a20.364,20.364,0,0,0,14.815-.4v3.415Zm0,6.6,3.713,2.637-1.317,1.982h-4.792l-1.317-1.982Zm-10.5-12.107,7.106,8.772-6.7,4.757-5.723-11.47Zm4.664,45.992,4.161-24.584H109l4.161,24.584Zm15.923-32.464h0l-6.706-4.763,7.1-8.77,5.324,2.062ZM45.637,61.5a1.491,1.491,0,0,1,1.49-1.49h11a3.131,3.131,0,0,0,3.055-2.5A47.418,47.418,0,0,1,68.12,40.769a3.13,3.13,0,0,0-.393-3.928l-7.78-7.78a1.492,1.492,0,0,1,0-2.107l7.962-7.962a1.49,1.49,0,0,1,2.107,0l7.78,7.78a3.131,3.131,0,0,0,3.928.394,47.4,47.4,0,0,1,16.744-6.938,3.131,3.131,0,0,0,2.5-3.055v-11a1.491,1.491,0,0,1,1.49-1.49h11.259a1.491,1.491,0,0,1,1.489,1.49v11a3.131,3.131,0,0,0,2.5,3.055,47.417,47.417,0,0,1,16.743,6.937,3.129,3.129,0,0,0,3.927-.394l7.78-7.78a1.49,1.49,0,0,1,2.106,0l7.962,7.962a1.489,1.489,0,0,1,0,2.106l-7.779,7.779a3.13,3.13,0,0,0-.395,3.928,47.4,47.4,0,0,1,6.938,16.743,3.13,3.13,0,0,0,3.055,2.5h11a1.491,1.491,0,0,1,1.489,1.489V72.759a1.491,1.491,0,0,1-1.49,1.49h-11a3.13,3.13,0,0,0-3.055,2.5,47.412,47.412,0,0,1-6.938,16.743,3.133,3.133,0,0,0,.394,3.927l7.78,7.78a1.49,1.49,0,0,1,0,2.106l-7.962,7.962a1.49,1.49,0,0,1-2.107,0l-7.78-7.78a3.13,3.13,0,0,0-3.927-.394c-1.127.745-2.307,1.453-3.521,2.112l-11.517-4.46v-4.66c0-.008,0-.016,0-.024v-.707a19.489,19.489,0,0,0,7.232-12.5,9.139,9.139,0,0,0,5.134-2.176,8.992,8.992,0,0,0,1.009-12.6V64.605a25.673,25.673,0,0,0-51.345,0v7.671a8.5,8.5,0,0,0-2.111,5.6,8.972,8.972,0,0,0,3.122,6.811,9.137,9.137,0,0,0,5.144,2.176,19.714,19.714,0,0,0,7.634,12.808v5.079L84.614,108.86c-.986-.555-1.955-1.148-2.892-1.767a3.131,3.131,0,0,0-3.928.393l-6.561,6.561-.276.107-.031.012-.013,0h0l-.018.007a16.419,16.419,0,0,0-2.529,1.4,1.488,1.488,0,0,1-.455-.311l-7.962-7.962a1.49,1.49,0,0,1,0-2.107l7.781-7.781a3.131,3.131,0,0,0,.393-3.927,47.406,47.406,0,0,1-6.937-16.743,3.13,3.13,0,0,0-3.055-2.5h-11a1.491,1.491,0,0,1-1.49-1.49V61.5Z" transform="translate(-40.955)"/>
      <path id="Trazado_141482" data-name="Trazado 141482" d="M285.882,393Z" transform="translate(-209.423 -270.318)" fill="#474d54"/>
    </g>
  </g>
</svg>
