<svg xmlns="http://www.w3.org/2000/svg" width="84.52" height="84.521" viewBox="0 0 84.52 84.521">
  <g id="dolar" transform="translate(0.001)">
    <path id="Trazado_102141" data-name="Trazado 102141" d="M366.883,426.749c-1.534,1.193-3.075,2.336-4.581,3.4a1.239,1.239,0,0,0-.519,1.135,44.62,44.62,0,0,1,0,7.949,1.238,1.238,0,0,0,1.093,1.368,1.265,1.265,0,0,0,.139.008,1.238,1.238,0,0,0,1.229-1.1,45.222,45.222,0,0,0,.062-7.745c1.352-.965,2.727-1.99,4.1-3.055a1.238,1.238,0,0,0-1.52-1.954Z" transform="translate(-302.055 -356.084)" fill="#ff7758"/>
    <path id="Trazado_102142" data-name="Trazado 102142" d="M308.847,172.467a279.639,279.639,0,0,1,0-30.785,1.238,1.238,0,0,0-1.235-1.319c-4.787,0-7.456,1.617-8.8,5.38a7.24,7.24,0,0,0-4.8,2.229c-3.61,3.839-3.12,11.8-2.688,18.826q.019.314.038.626a7.459,7.459,0,0,0-4,.62c-3.336,1.385-7.239,4.811-13.7,10.487-1.314,1.154-2.673,2.347-4.166,3.645a1.239,1.239,0,0,0-.419.809,109.94,109.94,0,0,0-.1,17.583,1.238,1.238,0,0,0,1.233,1.144c.031,0,.063,0,.1,0a1.238,1.238,0,0,0,1.141-1.329,111.166,111.166,0,0,1,.047-16.663c1.351-1.176,2.594-2.267,3.8-3.326,12.064-10.591,14.8-12.746,19.19-8.47-1.717,1.526-5.564,4.9-9.924,8.434a1.238,1.238,0,0,0,1.559,1.924c5.936-4.812,10.929-9.329,10.979-9.374a1.238,1.238,0,0,0,.083-1.753q-.614-.672-1.207-1.222l3.53-3.222a1.238,1.238,0,0,0,.4-.914c0-9.126,0-15.155,1.067-18.711.829-2.763,2.276-3.954,5.319-4.2a285.078,285.078,0,0,0,.046,29.208,148.15,148.15,0,0,1-12.648,12.07,1.238,1.238,0,1,0,1.6,1.888,147.012,147.012,0,0,0,13.237-12.687,1.237,1.237,0,0,0,.311-.9Zm-11.41-7.219-3.451,3.151-.082-.049q-.049-.842-.1-1.706c-.4-6.524-.856-13.918,2.02-16.978a4.528,4.528,0,0,1,2.324-1.318C297.453,152.171,297.437,157.634,297.437,165.249Z" transform="translate(-224.33 -117.192)" fill="#ff7758"/>
    <path id="Trazado_102143" data-name="Trazado 102143" d="M183.914,353.619c-1.493-1.3-2.852-2.491-4.166-3.644-1.635-1.436-3.18-2.791-4.556-3.972a1.238,1.238,0,0,0-1.612,1.88c1.366,1.171,2.834,2.461,4.535,3.953,1.205,1.058,2.448,2.149,3.8,3.325a111.179,111.179,0,0,1,.047,16.663,1.238,1.238,0,0,0,1.141,1.329c.032,0,.064,0,.1,0a1.238,1.238,0,0,0,1.233-1.144,109.908,109.908,0,0,0-.1-17.583,1.238,1.238,0,0,0-.419-.81Z" transform="translate(-144.565 -288.636)" fill="#ff7758"/>
    <path id="Trazado_102144" data-name="Trazado 102144" d="M25.751,170.6c-3.343-2.463-5.924-3.528-8.312-3.173l.043-.693c.435-7.006.929-14.948-2.667-18.774a7.214,7.214,0,0,0-4.779-2.222c-1.34-3.762-4.009-5.38-8.8-5.38A1.238,1.238,0,0,0,0,141.6c0,.028,0,.056,0,.083.967,14.766.967,14.766,0,30.783a1.239,1.239,0,0,0,.311.9,149.248,149.248,0,0,0,21.955,19.5,45.223,45.223,0,0,0,.062,7.745,1.238,1.238,0,0,0,1.229,1.1,1.269,1.269,0,0,0,.139-.008,1.238,1.238,0,0,0,1.093-1.368,44.723,44.723,0,0,1,0-7.95,1.239,1.239,0,0,0-.519-1.135A146.93,146.93,0,0,1,2.505,172.095c.915-15.154.935-15.786.058-29.207,3.034.245,4.478,1.436,5.306,4.2,1.067,3.556,1.067,9.585,1.067,18.711a1.239,1.239,0,0,0,.4.914l3.529,3.222q-.594.552-1.206,1.222a1.238,1.238,0,0,0,.083,1.753c.05.045,5.043,4.562,10.979,9.374a1.238,1.238,0,0,0,1.559-1.924c-4.358-3.533-8.2-6.905-9.922-8.432,1.468-1.418,2.682-2.051,3.934-2.08,1.508-.037,3.353.815,5.987,2.755a1.238,1.238,0,0,0,1.469-1.994ZM15.01,166.585q-.056.9-.109,1.787l-.04.024-3.448-3.148c0-7.613-.017-13.076-.708-16.9a4.5,4.5,0,0,1,2.3,1.31C15.872,152.706,15.414,160.079,15.01,166.585Z" transform="translate(-0.001 -117.191)" fill="#ff7758"/>
    <path id="Trazado_102145" data-name="Trazado 102145" d="M156.1,63.878a1.238,1.238,0,1,0-2.308.9,17.14,17.14,0,1,0-1.157-6.2,1.238,1.238,0,1,0,2.476,0,14.622,14.622,0,1,1,.989,5.3Z" transform="translate(-127.437 -34.603)" fill="#ff7758"/>
    <path id="Trazado_102146" data-name="Trazado 102146" d="M159.138,23.974A23.79,23.79,0,0,0,154.6,9.946,1.238,1.238,0,1,0,152.6,11.4a21.518,21.518,0,1,1-17.449-8.92,21.55,21.55,0,0,1,13.73,4.946,1.238,1.238,0,0,0,1.581-1.906,23.971,23.971,0,1,0,8.679,18.458Z" transform="translate(-92.81 0)" fill="#ff7758"/>
    <path id="Trazado_102147" data-name="Trazado 102147" d="M231.512,93.709a2.462,2.462,0,0,1-2.461-2.458,1.238,1.238,0,1,0-2.476,0,4.944,4.944,0,0,0,3.7,4.777v1.691a1.238,1.238,0,1,0,2.476,0V96.028a4.934,4.934,0,0,0-1.238-9.712,2.458,2.458,0,1,1,2.461-2.458,1.238,1.238,0,1,0,2.476,0,4.944,4.944,0,0,0-3.7-4.777V77.39a1.238,1.238,0,1,0-2.476,0v1.691a4.934,4.934,0,0,0,1.238,9.712,2.458,2.458,0,1,1,0,4.916Z" transform="translate(-189.173 -63.581)" fill="#ff7758"/>
  </g>
</svg>
