<svg xmlns="http://www.w3.org/2000/svg" width="67.309" height="80" viewBox="0 0 67.309 80">
  <g id="evaluacion" transform="translate(-40.632)">
    <g id="Grupo_83319" data-name="Grupo 83319" transform="translate(41.802 11.483)">
      <path id="Trazado_144299" data-name="Trazado 144299" d="M94.055,140.877H50.489a2.364,2.364,0,0,1-2.364-2.364V75.894a2.364,2.364,0,0,1,2.364-2.364H94.056a2.364,2.364,0,0,1,2.364,2.364v62.619a2.364,2.364,0,0,1-2.364,2.364Z" transform="translate(-48.125 -73.53)" fill="#faf7f7"/>
    </g>
    <g id="Grupo_83321" data-name="Grupo 83321" transform="translate(54.354 1.17)">
      <path id="Trazado_144301" data-name="Trazado 144301" d="M144.755,13.9V12.2a4.664,4.664,0,1,0-9.327,0V13.9h-5.995a.941.941,0,0,0-.937.946v5.911a.941.941,0,0,0,.937.946H150.75a.941.941,0,0,0,.937-.946V14.85a.941.941,0,0,0-.937-.946Z" transform="translate(-128.496 -7.492)" fill="#afafaf"/>
    </g>
    <g id="Grupo_83331" data-name="Grupo 83331" transform="translate(40.632 0)">
      <g id="Grupo_83324" data-name="Grupo 83324" transform="translate(35.608 29.891)">
        <circle id="Elipse_4271" data-name="Elipse 4271" cx="15.265" cy="15.265" r="15.265" fill="#ff7758"/>
      </g>
      <g id="Grupo_83327" data-name="Grupo 83327" transform="translate(42.12 38.124)">
        <g id="Grupo_83326" data-name="Grupo 83326">
          <path id="Trazado_144305" data-name="Trazado 144305" d="M316.962,258.18a2.485,2.485,0,0,1-1.727-.7l-4.138-4a2.485,2.485,0,1,1,3.454-3.574l2.31,2.233,6.673-7.227a2.485,2.485,0,1,1,3.651,3.371l-8.4,9.1a2.485,2.485,0,0,1-1.755.8Z" transform="translate(-310.339 -244.115)" fill="#ffba5b"/>
        </g>
      </g>
      <g id="Grupo_83330" data-name="Grupo 83330" transform="translate(0 0)">
        <path id="Trazado_144307" data-name="Trazado 144307" d="M185.283,144.036a1.17,1.17,0,1,0,0-2.34H163.077a1.17,1.17,0,1,0,0,2.34Z" transform="translate(-142.967 -119.567)"/>
        <path id="Trazado_144308" data-name="Trazado 144308" d="M86.41,186.367a1.17,1.17,0,0,0,1.17,1.17h27.289a1.17,1.17,0,1,0,0-2.34H87.58A1.17,1.17,0,0,0,86.41,186.367Z" transform="translate(-79.261 -156.275)"/>
        <path id="Trazado_144309" data-name="Trazado 144309" d="M87.58,231.038h22.893a1.17,1.17,0,1,0,0-2.34H87.58a1.17,1.17,0,1,0,0,2.34Z" transform="translate(-79.261 -192.982)"/>
        <path id="Trazado_144310" data-name="Trazado 144310" d="M87.58,274.539h21a1.17,1.17,0,0,0,0-2.34h-21a1.17,1.17,0,0,0,0,2.34Z" transform="translate(-79.261 -229.689)"/>
        <path id="Trazado_144311" data-name="Trazado 144311" d="M87.58,318.04h21a1.17,1.17,0,1,0,0-2.34h-21a1.17,1.17,0,1,0,0,2.34Z" transform="translate(-79.261 -266.397)"/>
        <path id="Trazado_144312" data-name="Trazado 144312" d="M87.58,361.541h22.893a1.17,1.17,0,0,0,0-2.34H87.58a1.17,1.17,0,0,0,0,2.34Z" transform="translate(-79.261 -303.104)"/>
        <path id="Trazado_144313" data-name="Trazado 144313" d="M87.58,405.042h34a1.17,1.17,0,0,0,0-2.34h-34a1.17,1.17,0,0,0,0,2.34Z" transform="translate(-79.261 -339.812)"/>
        <path id="Trazado_144314" data-name="Trazado 144314" d="M87.58,448.543h34a1.17,1.17,0,0,0,0-2.34h-34a1.17,1.17,0,0,0,0,2.34Z" transform="translate(-79.261 -376.519)"/>
        <path id="Trazado_144315" data-name="Trazado 144315" d="M91.506,28.721c-.08,0-.159,0-.239,0V13.847a3.538,3.538,0,0,0-3.534-3.534H78.715V8.528a2.114,2.114,0,0,0-2.107-2.116H71.783V5.877a5.834,5.834,0,1,0-11.667,0v.535H55.291a2.114,2.114,0,0,0-2.107,2.116v1.785H44.166a3.538,3.538,0,0,0-3.534,3.534v5.542a1.17,1.17,0,0,0,2.34,0V13.847a1.2,1.2,0,0,1,1.194-1.194h9.018v1.785a2.114,2.114,0,0,0,2.107,2.116H76.608a2.114,2.114,0,0,0,2.107-2.116V12.653h9.018a1.2,1.2,0,0,1,1.194,1.194V28.922a16.28,16.28,0,0,0-7.16,2.995A1.17,1.17,0,1,0,83.154,33.8a14.087,14.087,0,1,1-3.437,3.626,1.17,1.17,0,1,0-1.956-1.285A16.438,16.438,0,0,0,88.926,61.389V76.466a1.2,1.2,0,0,1-1.194,1.194H44.166a1.2,1.2,0,0,1-1.194-1.194V24.818a1.17,1.17,0,1,0-2.34,0V76.466A3.538,3.538,0,0,0,44.166,80H87.733a3.538,3.538,0,0,0,3.534-3.534V61.589l.239,0a16.435,16.435,0,1,0,0-32.871ZM76.375,14.214H55.524V8.752h5.762a1.17,1.17,0,0,0,1.17-1.17V5.877a3.494,3.494,0,1,1,6.987,0V7.582a1.17,1.17,0,0,0,1.17,1.17h5.762v5.462Z" transform="translate(-40.632 0)"/>
        <path id="Trazado_144316" data-name="Trazado 144316" d="M310.651,253.028h.1a3.676,3.676,0,0,0,2.581-1.174l8.4-9.1a3.655,3.655,0,1,0-5.371-4.959l-5.861,6.348-1.45-1.4a3.655,3.655,0,0,0-5.08,5.257l4.138,4A3.636,3.636,0,0,0,310.651,253.028Zm-5.084-8.569a1.317,1.317,0,0,1,1.86-.032l2.31,2.233a1.17,1.17,0,0,0,1.673-.048l6.673-7.228a1.3,1.3,0,0,1,1.858-.074,1.322,1.322,0,0,1,.074,1.858l-8.4,9.1a1.32,1.32,0,0,1-.925.422h-.041a1.308,1.308,0,0,1-.914-.369l-4.139-4A1.316,1.316,0,0,1,305.567,244.459Z" transform="translate(-261.907 -199.668)"/>
      </g>
    </g>
  </g>
</svg>
