<svg id="crecimiento" xmlns="http://www.w3.org/2000/svg" width="84.424" height="84.219" viewBox="0 0 84.424 84.219">
  <path id="Trazado_102123" data-name="Trazado 102123" d="M8.565,191a77.422,77.422,0,0,0,18.676-5.347A77.241,77.241,0,0,0,46.257,174l6.842-5.7,5.287,5.285L60.091,151.4l-22.185,1.709,5.075,5.075L38.1,161.975a66.4,66.4,0,0,1-12.924,7.866,66.1,66.1,0,0,1-21.788,5.831l-3.309.3.246,2.705,3.312-.3a68.856,68.856,0,0,0,22.68-6.071,69.135,69.135,0,0,0,13.453-8.188l7.307-5.684-3.076-3.076,13.134-1.01-1.011,13.134-2.863-2.863-8.748,7.29A74.506,74.506,0,0,1,26.17,183.156a74.71,74.71,0,0,1-18.019,5.158L0,189.567l.413,2.686Zm0,0" transform="translate(0 -125.71)" fill="#ff7758"/>
  <path id="Trazado_102124" data-name="Trazado 102124" d="M126.552,207.394l3.639-3.234-1.805-2.031-3.639,3.234a78.181,78.181,0,0,1-29.8,16.549l.769,2.605a80.9,80.9,0,0,0,30.838-17.123Zm0,0" transform="translate(-78.824 -167.826)" fill="#ff7758"/>
  <path id="Trazado_102125" data-name="Trazado 102125" d="M66.151,322.984q-1.328.342-2.67.638l.586,2.653q1.387-.305,2.762-.659Zm0,0" transform="translate(-52.702 -268.161)" fill="#ff7758"/>
  <path id="Trazado_102126" data-name="Trazado 102126" d="M34.709,329.922q-1.331.244-2.67.442l.4,2.688c.925-.137,1.845-.29,2.764-.459Zm0,0" transform="translate(-26.599 -273.921)" fill="#ff7758"/>
  <path id="Trazado_102127" data-name="Trazado 102127" d="M3.481,337.291l-.308-2.7q-.858.1-1.72.175l-.964.087.246,2.705.966-.087Q2.592,337.393,3.481,337.291Zm0,0" transform="translate(-0.405 -277.799)" fill="#ff7758"/>
  <path id="Trazado_102128" data-name="Trazado 102128" d="M85.426,27.273V13.094A4.072,4.072,0,0,0,82.339,9.14l-1.467-.367A4.025,4.025,0,0,0,81.351,6.9V4.181a4.075,4.075,0,0,0-8.15,0V6.9a4.03,4.03,0,0,0,.486,1.89l-1.475.352a4.069,4.069,0,0,0-3.086,3.954V27.273h2.811l1.164,16.3H69.992l-3.427,2.855a118.991,118.991,0,0,1-28.743,17.72,119.07,119.07,0,0,1-31.73,8.828l-4.885.649v10.7H85.426V43.573H81.451l1.164-16.3ZM75.917,4.181a1.358,1.358,0,0,1,2.717,0V6.9a1.358,1.358,0,0,1-2.717,0ZM68.3,48.516l.82-.684V81.607H58.258V56.036A121.877,121.877,0,0,0,68.3,48.516ZM55.542,81.607H44.675V63.928A121.5,121.5,0,0,0,55.542,57.8ZM38.906,66.638c1.027-.446,2.04-.919,3.052-1.393V81.607H31.091V69.72Q35.046,68.314,38.906,66.638ZM28.374,81.607H17.507V73.654q5.5-1.26,10.867-3.022Zm-24.451-5.6,2.527-.337q4.2-.56,8.34-1.409v7.348H3.924Zm78.785,5.6H71.842V46.29H82.709ZM75.824,43.573,74.465,24.556H71.842V13.094a1.356,1.356,0,0,1,1.03-1.318l3.212-.8h2.382l3.213.8a1.359,1.359,0,0,1,1.029,1.319V24.556H80.086L78.728,43.573Zm0,0" transform="translate(-1.002 -0.105)" fill="#ff7758"/>
  <path id="Trazado_102129" data-name="Trazado 102129" d="M441.207,288.105h2.717v19.017h-2.717Zm0,0" transform="translate(-366.292 -239.204)" fill="#ff7758"/>
  <path id="Trazado_102130" data-name="Trazado 102130" d="M441.207,416.105h2.717v2.717h-2.717Zm0,0" transform="translate(-366.292 -345.471)" fill="#ff7758"/>
  <path id="Trazado_102131" data-name="Trazado 102131" d="M441.207,448.105h2.717v2.717h-2.717Zm0,0" transform="translate(-366.292 -372.037)" fill="#ff7758"/>
  <path id="Trazado_102132" data-name="Trazado 102132" d="M361.207,336.105h2.717v10.867h-2.717Zm0,0" transform="translate(-299.876 -279.054)" fill="#ff7758"/>
  <path id="Trazado_102133" data-name="Trazado 102133" d="M361.207,416.105h2.717v2.717h-2.717Zm0,0" transform="translate(-299.876 -345.471)" fill="#ff7758"/>
  <path id="Trazado_102134" data-name="Trazado 102134" d="M361.207,448.105h2.717v2.717h-2.717Zm0,0" transform="translate(-299.876 -372.037)" fill="#ff7758"/>
  <path id="Trazado_102135" data-name="Trazado 102135" d="M281.207,384.105h2.717v2.717h-2.717Zm0,0" transform="translate(-233.459 -318.904)" fill="#ff7758"/>
  <path id="Trazado_102136" data-name="Trazado 102136" d="M281.207,416.105h2.717v2.717h-2.717Zm0,0" transform="translate(-233.459 -345.471)" fill="#ff7758"/>
  <path id="Trazado_102137" data-name="Trazado 102137" d="M281.207,448.105h2.717v2.717h-2.717Zm0,0" transform="translate(-233.459 -372.037)" fill="#ff7758"/>
  <path id="Trazado_102138" data-name="Trazado 102138" d="M201.207,416.105h2.717v2.717h-2.717Zm0,0" transform="translate(-167.043 -345.471)" fill="#ff7758"/>
  <path id="Trazado_102139" data-name="Trazado 102139" d="M201.207,448.105h2.717v2.717h-2.717Zm0,0" transform="translate(-167.043 -372.037)" fill="#ff7758"/>
  <path id="Trazado_102140" data-name="Trazado 102140" d="M121.207,448.105h2.717v2.717h-2.717Zm0,0" transform="translate(-100.627 -372.037)" fill="#ff7758"/>
</svg>
