<svg xmlns="http://www.w3.org/2000/svg" width="85.119" height="85.107" viewBox="0 0 85.119 85.107">
  <g id="_002---Cutting-Ribbon" data-name="002---Cutting-Ribbon" transform="translate(0.001 0)">
    <path id="Shape" d="M15.351,14C9.193,14,4,17.9,4,22.513s5.193,8.513,11.351,8.513S26.7,27.124,26.7,22.513,21.509,14,15.351,14Zm0,14.189c-4.54,0-8.513-2.653-8.513-5.675s3.973-5.675,8.513-5.675,8.513,2.653,8.513,5.675S19.891,28.189,15.351,28.189Z" transform="translate(1.675 4.461)" fill="#ff7758"/>
    <ellipse id="Oval" cx="1.419" cy="1.419" rx="1.419" ry="1.419" transform="translate(36.89 41.163)" fill="#ff7758"/>
    <path id="Shape-2" data-name="Shape" d="M0,59.178C0,67,7.634,73.367,17.026,73.367c12.514,0,20.63-10.854,15.451-20.148l5.675-2.965,12.77,6.981C44.865,62.4,40.523,69.11,39.8,82.93a2.838,2.838,0,0,0,4.257,2.625l4.186-2.44,4.257,2.6a2.838,2.838,0,0,0,4.257-2.242,26.377,26.377,0,0,1,2.228-9.932c1.518-2.838,5.505-5.392,8.953-7.9,3.8,1.291,9.847,2.951,13.579,1.518,2.27-.88,2.71-2.3,3.405-3.845a1.419,1.419,0,0,0-.624-1.83L76.9,57.5c3.788-4.469,5.59-9.166,5.392-13.933a20.275,20.275,0,0,0-5.065-13.664l7.208-4.328a1.419,1.419,0,0,0,.553-1.8L84.408,22.5c-1.674-3.8-7.094-4.129-16.36-1.022-3.561-2.582-7.477-5.15-9-7.931a26.391,26.391,0,0,1-2.228-9.932,2.838,2.838,0,0,0-4.328-2.2L48.241,4.041,44.1,1.586a2.838,2.838,0,0,0-4.257,2.6c.724,13.749,5.065,20.559,11.11,25.71l-12.77,6.995-5.675-2.951c5.193-9.379-3.065-20.162-15.48-20.162C7.634,13.774,0,20.145,0,27.963,0,37.8,11.621,44.379,22.191,41.471l3.831,2.1-3.831,2.1C11.55,42.748,0,49.388,0,59.178ZM61.607,38.165c3.49,3.107,3.661,4.469,3.661,4.867v1.121c0,.411-.2,1.759-3.859,4.98L51.079,43.571ZM56.57,72.217c-1.915,3.533-2.426,8.953-2.554,11.11l-4.257-2.6a2.838,2.838,0,0,0-2.923,0l-4.129,2.426a39.572,39.572,0,0,1,3.959-16.331,27.171,27.171,0,0,1,7-8.059c9.01,4.952,7.8,4.384,11.223,5.746-2.965,2.043-6.584,4.6-8.315,7.662Zm24.007-7.676C76.69,65.96,68.148,62.7,68.006,62.668,62.8,60.8,64.1,61.25,41.246,48.735l6.8-3.519,33.8,18.218A2.1,2.1,0,0,1,80.577,64.5Zm1.32-40.65-6.541,3.93a48.767,48.767,0,0,0-4.54-4.115c2.965-.965,9.8-2.71,11.081.142Zm-35.287-3.5A39.728,39.728,0,0,1,42.651,4.027L46.823,6.5a2.838,2.838,0,0,0,2.838,0l4.257-2.625c.142,2.171.653,7.591,2.568,11.124,1.589,2.838,4.64,5.108,7.889,7.449,7.563,5.392,15.451,11.819,15.083,21.127.17,4.257-1.419,8.4-5.037,12.5L64.062,50.509c4.512-4.1,4.044-5.775,4.044-7.321.255-3.873-6.5-8.8-9.705-11.124-4.7-3.419-8.967-6.47-11.791-11.677Zm-23.042,18.6a2.838,2.838,0,0,0-2.114-.241C12.642,41.13,2.838,35.88,2.838,27.963c0-6.257,6.371-11.351,14.189-11.351s14.189,5.094,14.189,11.351c0,4-2.114,4.611-1.419,6.782a2.838,2.838,0,0,0,1.419,1.731l4.03,2.086-6.229,3.419Zm29.8-7.165c2.341,1.788,3.859,2.838,5.9,4.384L31.215,50.665A2.838,2.838,0,0,0,29.8,52.382c-.638,2.171,1.419,2.753,1.419,6.768,0,6.257-6.371,11.351-14.189,11.351S2.838,65.435,2.838,59.178c0-8.031,9.932-13.153,18.6-10.783a2.838,2.838,0,0,0,2.114-.227c55.336-30.307,13.337-7.321,29.768-16.345Z" transform="translate(-0.001 -0.989)" fill="#ff7758"/>
    <path id="Shape-3" data-name="Shape" d="M4,44.518c0,4.611,5.193,8.513,11.351,8.513S26.7,49.129,26.7,44.518c0-3.476-2.838-6.186-5.988-7.492C12.84,33.834,4,38.488,4,44.518ZM22.587,41.68c3.717,3.916-1.249,8.513-7.236,8.513-4.54,0-8.513-2.653-8.513-5.675s3.973-5.675,8.513-5.675A9.932,9.932,0,0,1,22.587,41.68Z" transform="translate(1.675 13.671)" fill="#ff7758"/>
  </g>
</svg>
