<svg xmlns="http://www.w3.org/2000/svg" width="104.223" height="90" viewBox="0 0 104.223 90">
  <g id="certificado" transform="translate(0 -34.936)">
    <g id="Grupo_83390" data-name="Grupo 83390" transform="translate(1.527 36.463)">
      <g id="Grupo_83388" data-name="Grupo 83388">
        <g id="Grupo_83387" data-name="Grupo 83387">
          <path id="Trazado_144387" data-name="Trazado 144387" d="M7.5,118.922V44.472a2.036,2.036,0,0,1,2.036-2.036h97.1a2.036,2.036,0,0,1,2.036,2.036v74.45a2.036,2.036,0,0,1-2.036,2.036H9.536A2.036,2.036,0,0,1,7.5,118.922Z" transform="translate(-7.5 -42.436)" fill="#ff7758"/>
          <path id="Trazado_144388" data-name="Trazado 144388" d="M38.179,139.1h88.68V73.041H38.179Z" transform="translate(-31.934 -66.811)" fill="#f2edff"/>
        </g>
      </g>
      <path id="Trazado_144390" data-name="Trazado 144390" d="M356.641,366.884l-4.376-2.036-4.377,2.036V340.625h8.753Z" transform="translate(-278.598 -279.925)" fill="#ffba5b"/>
      <g id="Grupo_83389" data-name="Grupo 83389" transform="translate(61.072 40.541)">
        <path id="Trazado_144391" data-name="Trazado 144391" d="M320.112,266.831c-1.544,0-2.556-2.629-3.9-3.187-1.392-.578-3.958.542-5.007-.509s.069-3.621-.508-5.016c-.557-1.345-3.181-2.359-3.181-3.906s2.624-2.56,3.181-3.906c.577-1.395-.541-3.965.508-5.016s3.615.07,5.007-.509c1.343-.558,2.354-3.187,3.9-3.187s2.556,2.629,3.9,3.187c1.392.578,3.958-.542,5.007.509s-.069,3.621.508,5.016c.557,1.345,3.181,2.358,3.181,3.906s-2.624,2.56-3.181,3.906c-.577,1.395.541,3.965-.508,5.016s-3.615-.07-5.007.509C322.668,264.2,321.657,266.831,320.112,266.831Z" transform="translate(-307.518 -241.597)" fill="#c3b5ec"/>
      </g>
      <circle id="Elipse_4280" data-name="Elipse 4280" cx="4.436" cy="4.436" r="4.436" transform="translate(69.23 48.722)" fill="#675d84"/>
    </g>
    <g id="Grupo_83391" data-name="Grupo 83391" transform="translate(0 34.936)">
      <path id="Trazado_144393" data-name="Trazado 144393" d="M100.661,34.936H3.562A3.566,3.566,0,0,0,0,38.5V51.037a1.527,1.527,0,0,0,3.053,0V38.5a.509.509,0,0,1,.509-.509h97.1a.509.509,0,0,1,.509.509v74.45a.509.509,0,0,1-.509.509H81.1v-3.177H96.452a1.527,1.527,0,0,0,1.527-1.527V92.766a1.527,1.527,0,0,0-3.053,0v14.461H81.1v-6.774l.147.013c1.267.111,2.844.25,3.936-.844s.953-2.671.842-3.939a2.316,2.316,0,0,1,1.055-2.6c2.693-2.239,2.743-4.637,0-6.917a2.318,2.318,0,0,1-1.055-2.6c.3-3.415-1.3-5.089-4.778-4.783a2.3,2.3,0,0,1-2.594-1.056c-2.236-2.7-4.635-2.749-6.912,0a2.3,2.3,0,0,1-2.594,1.056c-3.418-.3-5.083,1.3-4.778,4.783a2.318,2.318,0,0,1-1.055,2.6c-2.693,2.239-2.743,4.637,0,6.917a2.318,2.318,0,0,1,1.055,2.6c-.321,3.658,1.426,5.072,4.924,4.77v6.774H9.3V44.219H94.925v40.4a1.527,1.527,0,0,0,3.053,0V42.693a1.527,1.527,0,0,0-1.527-1.527H7.772a1.527,1.527,0,0,0-1.527,1.527v66.061a1.527,1.527,0,0,0,1.527,1.527H69.29v3.177H3.562a.509.509,0,0,1-.509-.509V58.772a1.527,1.527,0,0,0-3.053,0v54.177a3.566,3.566,0,0,0,3.562,3.562H69.29v6.911a1.527,1.527,0,0,0,2.171,1.384l3.733-1.736,3.733,1.736a1.557,1.557,0,0,0,2.171-1.384v-6.911h19.565a3.567,3.567,0,0,0,3.562-3.562V38.5a3.566,3.566,0,0,0-3.562-3.562ZM68.876,97.424c-1.528.135-1.6.053-1.469-1.475a5.267,5.267,0,0,0-2.145-5.217c-1.239-1.03-1.239-1.191,0-2.221a5.267,5.267,0,0,0,2.145-5.217c-.134-1.528-.059-1.609,1.469-1.475a5.252,5.252,0,0,0,5.212-2.15c1.026-1.238,1.183-1.238,2.209,0a5.254,5.254,0,0,0,5.212,2.15c1.529-.135,1.6-.053,1.469,1.475a5.267,5.267,0,0,0,2.145,5.217c1.239,1.03,1.239,1.191,0,2.221a5.266,5.266,0,0,0-2.145,5.217c.134,1.528.06,1.61-1.468,1.475a6.379,6.379,0,0,0-3,.218A6.091,6.091,0,0,0,76.3,99.574a5.645,5.645,0,0,1-1.1,1.129,5.65,5.65,0,0,1-1.1-1.129,6.091,6.091,0,0,0-2.208-1.932,6.685,6.685,0,0,0-3-.218ZM75.837,120a1.526,1.526,0,0,0-1.288,0l-2.206,1.026v-18.8a3.412,3.412,0,0,0,5.7,0v18.8Z" transform="translate(0 -34.936)" fill="#060606"/>
      <path id="Trazado_144394" data-name="Trazado 144394" d="M91.47,131.374H144.1a1.527,1.527,0,0,0,0-3.053H91.47A1.527,1.527,0,0,0,91.47,131.374Z" transform="translate(-71.671 -109.311)" fill="#060606"/>
      <path id="Trazado_144395" data-name="Trazado 144395" d="M157.623,175.466a1.527,1.527,0,0,0-1.527-1.527H91.471a1.527,1.527,0,0,0,0,3.053H156.1A1.527,1.527,0,0,0,157.623,175.466Z" transform="translate(-71.672 -145.643)" fill="#060606"/>
      <path id="Trazado_144396" data-name="Trazado 144396" d="M129.715,221.083a1.527,1.527,0,0,0-1.527-1.527H91.471a1.527,1.527,0,0,0,0,3.053h36.717A1.527,1.527,0,0,0,129.715,221.083Z" transform="translate(-71.672 -181.975)" fill="#060606"/>
      <path id="Trazado_144397" data-name="Trazado 144397" d="M111.968,279.831l-2.5,0c-1.6,0-2.483-.426-2.81-2.124-.3-1.55-2.535-1.353-2.944,0-.181.6-1.1,2.314-1.9,2.174-.424-.074-.609-.728-.766-1.067a13.019,13.019,0,0,1-.718-2.058c-.8-2.959-.964-6.048-1.467-9.062-.291-1.748-2.956-1.254-3,.406a46.717,46.717,0,0,1-2.883,15.456c-.7,1.839,2.252,2.634,2.944.812a43.167,43.167,0,0,0,1.749-5.853,15.483,15.483,0,0,0,.875,2.123,3.633,3.633,0,0,0,4.656,2.021,5.211,5.211,0,0,0,1.867-1.364c1.444,1.666,3.593,1.59,5.6,1.588q4.533-.006,9.067-.019a1.528,1.528,0,0,0,0-3.053q-3.887.011-7.774.018Z" transform="translate(-73.973 -219.442)" fill="#060606"/>
      <path id="Trazado_144398" data-name="Trazado 144398" d="M346.057,286.212a5.963,5.963,0,1,0-5.963-5.963A5.97,5.97,0,0,0,346.057,286.212Zm0-8.873a2.91,2.91,0,1,1-2.91,2.91A2.913,2.913,0,0,1,346.057,277.339Z" transform="translate(-270.864 -225.564)" fill="#060606"/>
    </g>
  </g>
</svg>
