<svg xmlns="http://www.w3.org/2000/svg" width="100.124" height="100" viewBox="0 0 100.124 100">
  <g id="politica" transform="translate(-0.923 -1)">
    <g id="Grupo_83371" data-name="Grupo 83371" transform="translate(2.66 2.613)">
      <g id="Grupo_83353" data-name="Grupo 83353" transform="translate(0 49.339)">
        <path id="Trazado_144339" data-name="Trazado 144339" d="M14.9,80.025H2L3.758,56.38a27.553,27.553,0,0,1,17.79-23.79L22.968,39.7,27.9,36.751l1.516,4.565L22.968,71.961l8.065,8.065Z" transform="translate(-2 -32.59)" fill="#ffba5b"/>
      </g>
      <g id="Grupo_83354" data-name="Grupo 83354" transform="translate(29.032 49.339)">
        <path id="Trazado_144340" data-name="Trazado 144340" d="M23.129,36.751,28.065,39.7l1.419-7.113a28.085,28.085,0,0,1,6.645,3.6V80.025H20l8.065-8.065L21.613,41.316Z" transform="translate(-20 -32.59)" fill="#ffba5b"/>
      </g>
      <g id="Grupo_83355" data-name="Grupo 83355" transform="translate(19.548 48.387)">
        <path id="Trazado_144341" data-name="Trazado 144341" d="M23.6,35.226l-3.129,1.887-4.935,2.952L14.12,32.952A27.572,27.572,0,0,1,17.152,32Z" transform="translate(-14.12 -32)" fill="#ffba5b"/>
      </g>
      <g id="Grupo_83356" data-name="Grupo 83356" transform="translate(29.032 48.387)">
        <path id="Trazado_144342" data-name="Trazado 144342" d="M29.484,32.952l-1.419,7.113-4.935-2.952L20,35.226,26.452,32A27.572,27.572,0,0,1,29.484,32.952Z" transform="translate(-20 -32)" fill="#ffba5b"/>
      </g>
      <g id="Grupo_83357" data-name="Grupo 83357" transform="translate(20.968 58.065)">
        <path id="Trazado_144343" data-name="Trazado 144343" d="M24.677,38l6.452,30.645L23.065,76.71,15,68.645,21.452,38Z" transform="translate(-15 -38)" fill="#e6e9ed"/>
      </g>
      <g id="Grupo_83358" data-name="Grupo 83358" transform="translate(25.903 51.613)">
        <path id="Trazado_144344" data-name="Trazado 144344" d="M24.318,35.887,22.8,40.452H19.576L18.06,35.887,21.189,34Z" transform="translate(-18.06 -34)" fill="#ccd1d9"/>
      </g>
      <g id="Grupo_83359" data-name="Grupo 83359" transform="translate(9.677 0)">
        <path id="Trazado_144345" data-name="Trazado 144345" d="M32.016,18.129H19.29a4.832,4.832,0,0,0-4.839,4.839v4.839H12.839a4.8,4.8,0,0,0-3.306,1.306L8.177,23.677A6.168,6.168,0,0,1,8,22.226a5.98,5.98,0,0,1,1.758-4.242l1.677-1.677a3.217,3.217,0,0,0,.774-3.29,5.9,5.9,0,0,1-.29-1.823,5.629,5.629,0,0,1,1.242-3.548l.645-.806A12.871,12.871,0,0,1,23.871,2a13.016,13.016,0,0,1,6.5,1.758l11.468,6.694a9.812,9.812,0,0,1,4.871,8.484,10.871,10.871,0,0,1-.129,1.613L45.145,29.1a4.734,4.734,0,0,0-3.274-1.29H40.258v-1.1a5.159,5.159,0,0,0-.984-3.032,5.212,5.212,0,0,0-2.581-1.9,8.832,8.832,0,0,1-4.677-3.645Z" transform="translate(-8 -2)" fill="#b27946"/>
      </g>
      <g id="Grupo_83360" data-name="Grupo 83360" transform="translate(41.935 25.806)">
        <path id="Trazado_144346" data-name="Trazado 144346" d="M32.887,19.29a4.761,4.761,0,0,1,1.565,3.548,4.846,4.846,0,0,1-4.839,4.839H28V18h1.613a4.734,4.734,0,0,1,3.274,1.29Z" transform="translate(-28 -18)" fill="#f0d0b4"/>
      </g>
      <g id="Grupo_83361" data-name="Grupo 83361" transform="translate(22.581 44.935)">
        <path id="Trazado_144347" data-name="Trazado 144347" d="M25.677,30.086a9.791,9.791,0,0,0,2.081-.226L28.9,33.312l-6.452,3.226L16,33.312l1.145-3.452a9.791,9.791,0,0,0,2.081.226Z" transform="translate(-16 -29.86)" fill="#f0d0b4"/>
      </g>
      <g id="Grupo_83362" data-name="Grupo 83362" transform="translate(16.129 16.129)">
        <path id="Trazado_144348" data-name="Trazado 144348" d="M37.806,21.677v9.677a9.686,9.686,0,0,1-7.6,9.452,9.791,9.791,0,0,1-2.081.226H21.677a9.791,9.791,0,0,1-2.081-.226A9.686,9.686,0,0,1,12,31.355V16.839A4.832,4.832,0,0,1,16.839,12H29.565a8.832,8.832,0,0,0,4.677,3.645,5.212,5.212,0,0,1,2.581,1.9,5.159,5.159,0,0,1,.984,3.032Z" transform="translate(-12 -12)" fill="#f0d0b4"/>
      </g>
      <g id="Grupo_83363" data-name="Grupo 83363" transform="translate(9.677 25.806)">
        <path id="Trazado_144349" data-name="Trazado 144349" d="M14.452,18v9.677H12.839a4.839,4.839,0,0,1,0-9.677Z" transform="translate(-8 -18)" fill="#f0d0b4"/>
      </g>
      <g id="Grupo_83364" data-name="Grupo 83364" transform="translate(45.161 32.258)">
        <path id="Trazado_144350" data-name="Trazado 144350" d="M80,22H50.226a3.4,3.4,0,0,0-.9.129L42.9,34.9a15.28,15.28,0,0,0-6.839-1.613H30.6a3.142,3.142,0,0,0-.6,1.855V86.516H81.613v-62.9A1.618,1.618,0,0,0,80,22Z" transform="translate(-30 -22)" fill="#e6e9ed"/>
      </g>
      <g id="Grupo_83365" data-name="Grupo 83365" transform="translate(45.758 32.387)">
        <path id="Trazado_144351" data-name="Trazado 144351" d="M49.1,22.08,42.676,34.854a15.28,15.28,0,0,0-6.839-1.613H30.37a3.268,3.268,0,0,1,1-.935l17-9.919a2.888,2.888,0,0,1,.726-.306Z" transform="translate(-30.37 -22.08)" fill="#e8e8e8"/>
      </g>
      <g id="Grupo_83366" data-name="Grupo 83366" transform="translate(77.419 0)">
        <path id="Trazado_144352" data-name="Trazado 144352" d="M62.9,5.226V21.355H50V5.226A3.235,3.235,0,0,1,53.226,2h6.452A3.235,3.235,0,0,1,62.9,5.226Z" transform="translate(-50 -2)" fill="#aab2bd"/>
      </g>
      <g id="Grupo_83367" data-name="Grupo 83367" transform="translate(77.419 19.355)">
        <path id="Trazado_144353" data-name="Trazado 144353" d="M62.9,26.9V39.565a1.221,1.221,0,0,1-.016.242H50.016A1.221,1.221,0,0,1,50,39.565V14H62.9Z" transform="translate(-50 -14)" fill="#ff7758"/>
      </g>
      <g id="Grupo_83368" data-name="Grupo 83368" transform="translate(77.435 45.161)">
        <path id="Trazado_144354" data-name="Trazado 144354" d="M54.365,44.581,50.058,30.226A.93.93,0,0,1,50.01,30H62.881a.93.93,0,0,1-.048.226L58.526,44.581a2.172,2.172,0,0,1-4.161,0Z" transform="translate(-50.01 -30)" fill="#aab2bd"/>
      </g>
      <g id="Grupo_83369" data-name="Grupo 83369" transform="translate(61.29 70.968)">
        <path id="Trazado_144355" data-name="Trazado 144355" d="M54.516,60.516a4.839,4.839,0,1,1-9.677,0,4.839,4.839,0,1,1,0-9.677,4.839,4.839,0,1,1,9.677,0,4.839,4.839,0,1,1,0,9.677Z" transform="translate(-40 -46)" fill="#ff7758"/>
      </g>
      <g id="Grupo_83370" data-name="Grupo 83370" transform="translate(67.742 77.419)">
        <circle id="Elipse_4275" data-name="Elipse 4275" cx="3.226" cy="3.226" r="3.226" fill="#fc6e51"/>
      </g>
    </g>
    <g id="Grupo_83372" data-name="Grupo 83372" transform="translate(0.923 1)">
      <circle id="Elipse_4276" data-name="Elipse 4276" cx="1.613" cy="1.613" r="1.613" transform="translate(22.705 25.806)"/>
      <circle id="Elipse_4277" data-name="Elipse 4277" cx="1.613" cy="1.613" r="1.613" transform="translate(35.608 25.806)"/>
      <path id="Trazado_144356" data-name="Trazado 144356" d="M29.9,23H26.677a3.229,3.229,0,0,1-3.226,3.226H17v3.226h6.452A6.458,6.458,0,0,0,29.9,23Z" transform="translate(8.931 12.484)"/>
      <path id="Trazado_144357" data-name="Trazado 144357" d="M22.979,17.537a9.34,9.34,0,0,1-2.753-6.648V9H17v1.889a12.544,12.544,0,0,0,3.7,8.929Z" transform="translate(8.931 3.903)"/>
      <path id="Trazado_144358" data-name="Trazado 144358" d="M101.047,17.745V10.677A6.458,6.458,0,0,0,94.6,4.226h-.3A4.832,4.832,0,0,0,89.757,1H83.31a4.84,4.84,0,0,0-4.839,4.844l0,27.415H68.049a4.842,4.842,0,0,0-2.439.66l-17,9.918a4.852,4.852,0,0,0-2.4,4.179v4.558a29.022,29.022,0,0,0-6.8-2.874l-.368-1.1a11.306,11.306,0,0,0,7.037-8.887h.129a6.458,6.458,0,0,0,6.452-6.452A6.384,6.384,0,0,0,51.2,29.224l1.3-7.8a11.225,11.225,0,0,0,.156-1.881,11.473,11.473,0,0,0-5.671-9.874L35.515,2.974A14.5,14.5,0,0,0,16.888,6.442l-.644.8a7.3,7.3,0,0,0-1.229,6.889,1.6,1.6,0,0,1-.389,1.65l-1.673,1.673a7.606,7.606,0,0,0-2,7.232l1.156,4.624a6.384,6.384,0,0,0-1.385,3.945,6.458,6.458,0,0,0,6.452,6.452h.129A11.311,11.311,0,0,0,24.342,48.6l-.365,1.1A29.147,29.147,0,0,0,2.8,75.618L.923,101H101.047V36.484a3.229,3.229,0,0,0-3.226-3.226H94.6V24.577l3.226,1.613v3.842h3.226V26.19A3.209,3.209,0,0,0,99.265,23.3l-2.676-1.337,2.674-1.337a3.208,3.208,0,0,0,1.784-2.885ZM88.879,55.839h-4.7l-1.935-6.452h8.568Zm-.968,3.226-.85,2.832A.575.575,0,0,1,86,61.9l-.85-2.832Zm-6.219-12.9,0-22.581H91.37V46.161ZM82.168,4.7a1.6,1.6,0,0,1,1.142-.473h6.447A1.615,1.615,0,0,1,91.37,5.839V20.355H81.7l0-14.515A1.607,1.607,0,0,1,82.168,4.7ZM63.336,38.979l-3.365,6.7a17.006,17.006,0,0,0-6.079-1.132h-.1Zm-17.127,58.8H35.586l5.929-5.929L34.973,60.773l.748-2.248,5.168,3.1L42.375,54.2a25.821,25.821,0,0,1,3.834,2.216ZM25.084,52.724l3.258,1.629L24.76,56.5l-.7-3.481c.337-.106.679-.2,1.021-.3Zm13.21,0c.345.094.684.2,1.024.31L38.625,56.5l-3.582-2.15Zm-6.6,3.379,1.2.718-.747,2.24h-.9l-.747-2.239Zm-.3,6.184H32L38,90.8l-6.306,6.306L25.386,90.8ZM46.208,36.484V30.032a3.226,3.226,0,1,1,0,6.452ZM13.95,33.258a3.229,3.229,0,0,1,3.226-3.226v6.452A3.229,3.229,0,0,1,13.95,33.258ZM20.4,38.1V23.581a3.229,3.229,0,0,1,3.226-3.226V17.129a6.458,6.458,0,0,0-6.452,6.452v3.226a6.406,6.406,0,0,0-2.263.431L14.081,23.9a4.389,4.389,0,0,1,1.155-4.166l1.671-1.669a4.811,4.811,0,0,0,1.169-4.953,4.087,4.087,0,0,1,.687-3.855l.644-.8a11.273,11.273,0,0,1,14.482-2.7l11.474,6.694a8.207,8.207,0,0,1,3.96,8.435l-1.047,6.285a6.377,6.377,0,0,0-2.068-.369h-.042a6.8,6.8,0,0,0-4.618-5.942A7.328,7.328,0,0,1,36.531,13.9H33.305a10.554,10.554,0,0,0,7.224,10.023,3.584,3.584,0,0,1,2.453,3.4V38.1a8.074,8.074,0,0,1-8.065,8.065H28.467A8.074,8.074,0,0,1,20.4,38.1Zm8.065,11.29h6.452c.327,0,.652-.021.973-.05l.282.845-4.481,2.24-4.479-2.239.282-.845c.319.027.644.048.971.048ZM6.02,75.853A25.927,25.927,0,0,1,21.012,54.211L22.5,61.624l5.168-3.1.748,2.248L21.87,91.845,27.8,97.774H17.176V70.355H13.95V97.774H4.4Zm91.8-39.369v61.29H49.434V48.015a1.509,1.509,0,0,1,.032-.24h4.426A13.713,13.713,0,0,1,60,49.218l1.44.719L68.2,36.484H78.467V47.537a3.252,3.252,0,0,0,.135.927L82.91,62.821a3.78,3.78,0,0,0,7.242,0l4.311-14.368a3.246,3.246,0,0,0,.132-.918V36.484Zm0-18.739L94.6,19.358V7.452a3.229,3.229,0,0,1,3.226,3.226Z" transform="translate(-0.923 -1)"/>
      <path id="Trazado_144359" data-name="Trazado 144359" d="M56.577,50A6.452,6.452,0,0,0,44,50a6.452,6.452,0,0,0,0,12.574,6.452,6.452,0,0,0,12.574,0,6.452,6.452,0,0,0,0-12.574ZM50.29,48.226a3.229,3.229,0,0,1,3.226,3.226V52.71a4.765,4.765,0,0,0-6.452,0V51.452A3.229,3.229,0,0,1,50.29,48.226ZM51.9,56.29a1.613,1.613,0,1,1-1.613-1.613A1.615,1.615,0,0,1,51.9,56.29Zm-6.452,3.226a3.226,3.226,0,1,1,0-6.452H46.71a4.765,4.765,0,0,0,0,6.452Zm4.839,4.839a3.229,3.229,0,0,1-3.226-3.226V59.871a4.765,4.765,0,0,0,6.452,0v1.258A3.229,3.229,0,0,1,50.29,64.355Zm4.839-4.839H53.871a4.765,4.765,0,0,0,0-6.452h1.258a3.226,3.226,0,1,1,0,6.452Z" transform="translate(22.415 25.968)"/>
      <path id="Trazado_144360" data-name="Trazado 144360" d="M45,13h3.226v3.226H45Z" transform="translate(26.092 6.355)"/>
      <path id="Trazado_144361" data-name="Trazado 144361" d="M41,13h3.226v3.226H41Z" transform="translate(23.64 6.355)"/>
      <path id="Trazado_144362" data-name="Trazado 144362" d="M37,13h3.226v3.226H37Z" transform="translate(21.189 6.355)"/>
      <path id="Trazado_144363" data-name="Trazado 144363" d="M35,33H54.355v3.226H35Z" transform="translate(19.963 18.613)"/>
      <path id="Trazado_144364" data-name="Trazado 144364" d="M35,37H54.355v3.226H35Z" transform="translate(19.963 21.065)"/>
      <path id="Trazado_144365" data-name="Trazado 144365" d="M35,41h6.452v3.226H35Z" transform="translate(19.963 23.516)"/>
      <path id="Trazado_144366" data-name="Trazado 144366" d="M41,41h9.677v3.226H41Z" transform="translate(23.64 23.516)"/>
      <path id="Trazado_144367" data-name="Trazado 144367" d="M41,29h9.677v3.226H41Z" transform="translate(23.64 16.161)"/>
    </g>
  </g>
</svg>
