<svg xmlns="http://www.w3.org/2000/svg" width="84.4" height="84.402" viewBox="0 0 84.4 84.402">
  <g id="Grupo_83511" data-name="Grupo 83511" transform="translate(-790 -2199.971)">
    <g id="Grupo_83510" data-name="Grupo 83510">
      <g id="objetivo" transform="translate(790 2199.971)">
        <g id="Grupo_54000" data-name="Grupo 54000" transform="translate(1.236 1.236)">
          <path id="Trazado_102093" data-name="Trazado 102093" d="M37.772,0A37.773,37.773,0,1,1,0,37.773,37.773,37.773,0,0,1,37.772,0Z" transform="translate(0 6.383)" fill="#ffba5b"/>
          <ellipse id="Elipse_4123" data-name="Elipse 4123" cx="27.389" cy="27.39" rx="27.389" ry="27.39" transform="translate(10.383 16.766)" fill="#ebebeb"/>
          <path id="Trazado_102094" data-name="Trazado 102094" d="M17.007,0A17.007,17.007,0,1,1,0,17.007,17.007,17.007,0,0,1,17.007,0Z" transform="translate(20.766 27.149)" fill="#ffba5b"/>
          <path id="Trazado_102095" data-name="Trazado 102095" d="M6.624,0A6.624,6.624,0,1,1,0,6.624,6.624,6.624,0,0,1,6.624,0Z" transform="translate(31.149 37.532)" fill="#ff7758"/>
          <g id="Grupo_53999" data-name="Grupo 53999" transform="translate(63.989)">
            <path id="Trazado_102089" data-name="Trazado 102089" d="M404.48,7.673l-8.286,8.287a1.756,1.756,0,0,0-.51,1.351l.48,7.646,9.763-9.763-.448-7.143A.585.585,0,0,0,404.48,7.673Z" transform="translate(-395.68 -7.5)" fill="#c3b5ec"/>
            <path id="Trazado_102090" data-name="Trazado 102090" d="M415.895,55.61,407.608,63.9a1.755,1.755,0,0,1-1.351.511l-7.646-.48,9.763-9.763,7.143.448A.585.585,0,0,1,415.895,55.61Z" transform="translate(-398.129 -46.472)" fill="#c3b5ec"/>
          </g>
        </g>
        <path id="Trazado_102091" data-name="Trazado 102091" d="M73.464,20.413a2.992,2.992,0,0,0,2.115-.876l8.286-8.287a1.823,1.823,0,0,0-1.174-3.106l-4.41-.277L81.159,4.99a1.236,1.236,0,0,0-1.748-1.748L76.534,6.119l-.277-4.41A1.823,1.823,0,0,0,73.151.536L64.865,8.823a2.992,2.992,0,0,0-.87,2.3l.285,4.538A39.015,39.015,0,0,0,10.147,71.638a1.236,1.236,0,0,0,1.829-1.664,36.555,36.555,0,0,1,52-51.3l-5.641,5.641A28.608,28.608,0,0,0,13.553,58.48h0A28.625,28.625,0,0,0,67.04,51.214a1.236,1.236,0,1,0-2.421-.5A26.152,26.152,0,0,1,15.75,57.346h0a25.814,25.814,0,0,1-2.894-11.952,26.126,26.126,0,0,1,43.733-19.33L51,31.655A18.266,18.266,0,1,0,52.747,33.4l5.591-5.592a26.042,26.042,0,0,1,6.823,17.429A1.236,1.236,0,0,0,66.4,46.471H66.4a1.236,1.236,0,0,0,1.229-1.243,28.508,28.508,0,0,0-7.548-19.164l5.642-5.642A36.556,36.556,0,0,1,16.03,73.8a1.236,1.236,0,0,0-1.556,1.921A39.01,39.01,0,0,0,78.017,45.394a38.7,38.7,0,0,0-7.672-23.236q-.779-1.05-1.62-2.037c4.847.3,4.585.292,4.739.292ZM54.779,45.394a15.789,15.789,0,1,1-5.533-11.986L43.62,39.034a7.871,7.871,0,1,0,1.749,1.749l5.626-5.626A15.7,15.7,0,0,1,54.779,45.394Zm-16.645.874a1.236,1.236,0,0,0,1.748,0l3.706-3.706a5.393,5.393,0,1,1-1.748-1.749L38.134,44.52a1.236,1.236,0,0,0,0,1.748Zm28.328-35.3a.518.518,0,0,1,.151-.4L73.879,3.3,74.2,8.451l-7.431,7.432Zm2.057,6.661L75.951,10.2l5.146.323-7.266,7.266a.517.517,0,0,1-.4.151Z" transform="translate(0 -0.002)"/>
      </g>
    </g>
  </g>
</svg>
