<svg xmlns="http://www.w3.org/2000/svg" width="79.998" height="79.092" viewBox="0 0 79.998 79.092">
  <g id="reclutamiento" transform="translate(-0.586 -1.293)">
    <path id="Trazado_143991" data-name="Trazado 143991" d="M19,53.371,13.262,59.69,7.52,53.371a12.707,12.707,0,0,1,11.484,0Z" transform="translate(1.954 14.286)" fill="#e6e9ed"/>
    <path id="Trazado_143992" data-name="Trazado 143992" d="M27.635,64.516H2a12.777,12.777,0,0,1,3.755-9.062,12.5,12.5,0,0,1,3.32-2.384l5.742,6.319,5.742-6.319A12.785,12.785,0,0,1,27.635,64.516Z" transform="translate(0.398 14.587)" fill="#675d84"/>
    <path id="Trazado_143993" data-name="Trazado 143993" d="M40.559,46.07a12.785,12.785,0,0,1,7.075,11.446H22a12.777,12.777,0,0,1,3.755-9.062,12.5,12.5,0,0,1,3.32-2.384l5.742,6.319Z" transform="translate(6.033 12.615)" fill="#ffba5b"/>
    <path id="Trazado_143994" data-name="Trazado 143994" d="M39,46.371,33.262,52.69,27.52,46.371a12.707,12.707,0,0,1,11.484,0Z" transform="translate(7.588 12.314)" fill="#fcd770"/>
    <path id="Trazado_143995" data-name="Trazado 143995" d="M67.635,64.516H42a12.777,12.777,0,0,1,3.755-9.062,12.5,12.5,0,0,1,3.32-2.384l5.742,6.319,5.742-6.319A12.785,12.785,0,0,1,67.635,64.516Z" transform="translate(11.668 14.587)" fill="#ff7758"/>
    <path id="Trazado_143996" data-name="Trazado 143996" d="M59,53.371,53.262,59.69,47.52,53.371a12.707,12.707,0,0,1,11.484,0Z" transform="translate(13.223 14.286)" fill="#ccd1d9"/>
    <g id="Grupo_83139" data-name="Grupo 83139" transform="translate(8.807 44.496)">
      <circle id="Elipse_4256" data-name="Elipse 4256" cx="6.409" cy="6.409" r="6.409" transform="translate(51.269 8.972)" fill="#f0d0b4"/>
      <path id="Trazado_143997" data-name="Trazado 143997" d="M33.409,35a6.421,6.421,0,0,1,5.127,2.563,6.333,6.333,0,0,1,1.282,3.845,2.173,2.173,0,0,1-.013.295A6.406,6.406,0,0,1,27,41.409a7.02,7.02,0,0,1,.167-1.474,4.23,4.23,0,0,0,1.269.192h.538a4.42,4.42,0,0,0,4.435-4.435,2.98,2.98,0,0,0-.064-.679Z" transform="translate(-1.365 -35)" fill="#f0d0b4"/>
      <circle id="Elipse_4257" data-name="Elipse 4257" cx="6.409" cy="6.409" r="6.409" transform="translate(0 8.972)" fill="#f0d0b4"/>
    </g>
    <path id="Trazado_143998" data-name="Trazado 143998" d="M26.353,12.972l-2.563,2.563L12.254,27.071l-1.282,1.282L2,19.381,17.381,4Z" transform="translate(0.398 0.763)" fill="#ff7758"/>
    <path id="Trazado_143999" data-name="Trazado 143999" d="M53.689,36.875a3.847,3.847,0,0,1-3.435,6.5,4,4,0,0,1-2.1-1.166L42,36.054V23.25a20.25,20.25,0,0,1,2,2.064Z" transform="translate(11.668 6.186)" fill="#f0d0b4"/>
    <path id="Trazado_144000" data-name="Trazado 144000" d="M36.9,45.03a4.459,4.459,0,0,1-3.14,1.295h-.538a4.229,4.229,0,0,1-1.269-.192,4.165,4.165,0,0,1-1.333-.654l-11.5-8.37a21.93,21.93,0,0,1-2.692-2.294,22.539,22.539,0,0,1-4.23-5.87L10,24.536,21.536,13l8.549.948A12.676,12.676,0,0,1,35.6,15.91l12.792,8.216a20.087,20.087,0,0,1,2.628,2.012V45.043A3.848,3.848,0,0,1,44.594,47.9a2.173,2.173,0,0,0,.013-.295,6.333,6.333,0,0,0-1.282-3.845v-6.7a6.64,6.64,0,0,0-4.883-6.4L25.381,27.1v1.282L36.724,38.6a4.407,4.407,0,0,1,1.41,2.615,2.98,2.98,0,0,1,.064.679A4.459,4.459,0,0,1,36.9,45.03Z" transform="translate(2.652 3.298)" fill="#f0d0b4"/>
    <circle id="Elipse_4258" data-name="Elipse 4258" cx="2.563" cy="2.563" r="2.563" transform="translate(66.485 18.862)" fill="#fcd770"/>
    <path id="Trazado_144001" data-name="Trazado 144001" d="M71.3,65.5a7.69,7.69,0,1,0-9.623,0,14.147,14.147,0,0,0-6.724,5.155v-.892a14.11,14.11,0,0,0-9.287-13.235,7.7,7.7,0,0,0,2.533-3.708,5.088,5.088,0,0,0,6.755-4.846v-3l3.966,3.966a5.271,5.271,0,0,0,2.778,1.516,5.436,5.436,0,0,0,.96.087,5.127,5.127,0,0,0,5.114-5.128,5.008,5.008,0,0,0-1.427-3.543L56.651,30.316a21.787,21.787,0,0,0-4.914-4.33L38.944,17.762a14.149,14.149,0,0,0-6.066-2.152l-5.9-.655,1.584-1.584L17.779,2.586.586,19.779,11.37,30.564l.931-.931,1.411,2.821a23.906,23.906,0,0,0,7.31,8.63l11.5,8.363a5.782,5.782,0,0,0,.677.417c-.019.224-.038.45-.038.677a7.68,7.68,0,0,0,2.879,5.991,14.11,14.11,0,0,0-9.287,13.235v.891A14.155,14.155,0,0,0,20.027,65.5a7.69,7.69,0,1,0-9.623,0A14.11,14.11,0,0,0,1.117,78.739v1.282h28.2V78.739a14.008,14.008,0,0,0-2.3-7.69H54.684a14,14,0,0,0-2.3,7.69v1.282h28.2V78.739A14.11,14.11,0,0,0,71.3,65.5ZM10.089,59.513a5.127,5.127,0,1,1,5.127,5.127A5.132,5.132,0,0,1,10.089,59.513Zm8.7,8.267-3.57,3.926-3.57-3.926a11.334,11.334,0,0,1,7.139,0ZM3.751,77.457A11.553,11.553,0,0,1,9.2,68.9l6.015,6.616L21.23,68.9a11.549,11.549,0,0,1,5.45,8.556Zm38.02-34.547a5.687,5.687,0,0,0-1.53-2.334l-9.384-8.445,9.9,2.7A5.34,5.34,0,0,1,44.7,39.988v3.9A7.624,7.624,0,0,0,41.771,42.911Zm22.682.691a2.566,2.566,0,0,1-2.3,4.331,2.779,2.779,0,0,1-1.419-.806l-5.779-5.778V32.275ZM4.211,19.779,17.779,6.211l7.16,7.16L11.37,26.939Zm18.32,19.232A21.494,21.494,0,0,1,20,36.847a21.264,21.264,0,0,1-3.991-5.538l-1.793-3.585L24.659,17.276l7.936.883A11.587,11.587,0,0,1,37.56,19.92l12.793,8.225a19.155,19.155,0,0,1,2.034,1.519V47.977a2.559,2.559,0,0,1-3.863,2.206A7.647,7.647,0,0,0,47.26,46.3V39.987a7.908,7.908,0,0,0-5.827-7.629L28.373,28.8a1.285,1.285,0,0,0-1.621,1.237v1.282a1.277,1.277,0,0,0,.424.952l11.35,10.214a3.153,3.153,0,0,1-2.108,5.5h-.533a3.137,3.137,0,0,1-1.853-.6ZM35.723,50.541s0-.008,0-.013c.054,0,.105.013.159.013h.533a5.707,5.707,0,0,0,5.641-4.968,5.12,5.12,0,1,1-6.334,4.968Zm8.7,8.267-3.57,3.926-3.57-3.926a11.334,11.334,0,0,1,7.139,0ZM29.385,68.485a11.553,11.553,0,0,1,5.45-8.556l6.015,6.616,6.014-6.616a11.549,11.549,0,0,1,5.45,8.556Zm31.973-8.972a5.127,5.127,0,1,1,5.127,5.127A5.132,5.132,0,0,1,61.358,59.513Zm8.7,8.267-3.57,3.926-3.57-3.926a11.334,11.334,0,0,1,7.139,0ZM55.02,77.457A11.553,11.553,0,0,1,60.47,68.9l6.015,6.616L72.5,68.9a11.549,11.549,0,0,1,5.45,8.556Z" transform="translate(0 0.364)"/>
    <path id="Trazado_144002" data-name="Trazado 144002" d="M65.923,3.105,64.11,1.293l-9.348,9.348L53.105,8.983,51.293,10.8l3.47,3.47Z" transform="translate(14.286 0)"/>
    <path id="Trazado_144003" data-name="Trazado 144003" d="M54.845,21.69A3.845,3.845,0,1,0,51,17.845,3.85,3.85,0,0,0,54.845,21.69Zm0-5.127a1.282,1.282,0,1,1-1.282,1.282A1.284,1.284,0,0,1,54.845,16.563Z" transform="translate(14.203 3.58)"/>
    <path id="Trazado_144004" data-name="Trazado 144004" d="M37,8H52.381v2.563H37Z" transform="translate(10.259 1.89)"/>
    <path id="Trazado_144005" data-name="Trazado 144005" d="M37,16H47.254v2.563H37Z" transform="translate(10.259 4.143)"/>
    <path id="Trazado_144006" data-name="Trazado 144006" d="M47,16h2.563v2.563H47Z" transform="translate(13.076 4.143)"/>
    <path id="Trazado_144007" data-name="Trazado 144007" d="M37,12H52.381v2.563H37Z" transform="translate(10.259 3.016)"/>
  </g>
</svg>
