<svg xmlns="http://www.w3.org/2000/svg" xmlns:xlink="http://www.w3.org/1999/xlink" width="245.717" height="253.969" viewBox="0 0 245.717 253.969">
  <defs>
    <linearGradient id="linear-gradient" x1="17.444" y1="30.92" x2="18.771" y2="30.92" gradientUnits="objectBoundingBox">
      <stop offset="0" stop-color="#febbba"/>
      <stop offset="1" stop-color="#ff928e"/>
    </linearGradient>
    <linearGradient id="linear-gradient-2" x1="-0.077" y1="1.155" x2="1.843" y2="-1.561" xlink:href="#linear-gradient"/>
    <linearGradient id="linear-gradient-3" x1="-6.753" y1="-14.316" x2="-9.078" y2="-11.782" xlink:href="#linear-gradient"/>
    <linearGradient id="linear-gradient-4" x1="0.785" y1="-1.959" x2="0.452" y2="0.617" xlink:href="#linear-gradient"/>
    <linearGradient id="linear-gradient-5" x1="0.858" y1="-0.953" x2="0.337" y2="1.229" xlink:href="#linear-gradient"/>
    <linearGradient id="linear-gradient-6" x1="-7.499" y1="-37.832" x2="-7.779" y2="-35.441" xlink:href="#linear-gradient"/>
    <linearGradient id="linear-gradient-7" x1="0.334" y1="0.258" x2="-0.501" y2="-1.677" gradientUnits="objectBoundingBox">
      <stop offset="0" stop-color="#09005d"/>
      <stop offset="1" stop-color="#1a0f91"/>
    </linearGradient>
    <linearGradient id="linear-gradient-8" x1="-30.517" y1="-121.684" x2="-31.725" y2="-114.022" xlink:href="#linear-gradient"/>
    <linearGradient id="linear-gradient-9" x1="0.605" y1="0.828" x2="0.154" y2="-0.614" xlink:href="#linear-gradient-7"/>
    <linearGradient id="linear-gradient-10" x1="-19.583" y1="-11.376" x2="-19.08" y2="-11.597" gradientUnits="objectBoundingBox">
      <stop offset="0" stop-color="#c4421b"/>
      <stop offset="1" stop-color="#5c0e16"/>
    </linearGradient>
    <linearGradient id="linear-gradient-11" x1="404.263" y1="1326.304" x2="-43.181" y2="-143.033" gradientUnits="objectBoundingBox">
      <stop offset="0" stop-color="#b37cff"/>
      <stop offset="1" stop-color="#f895e7"/>
    </linearGradient>
    <linearGradient id="linear-gradient-12" x1="-60.914" y1="23.208" x2="174.768" y2="-63.822" gradientUnits="objectBoundingBox">
      <stop offset="0" stop-color="#53d8ff"/>
      <stop offset="1" stop-color="#3840f7"/>
    </linearGradient>
    <linearGradient id="linear-gradient-13" x1="0" y1="0.5" x2="1" y2="0.5" xlink:href="#linear-gradient"/>
    <linearGradient id="linear-gradient-14" x1="1.175" y1="-0.557" x2="0.442" y2="0.722" xlink:href="#linear-gradient"/>
    <linearGradient id="linear-gradient-15" x1="208.727" y1="0.175" x2="207.41" y2="1.493" xlink:href="#linear-gradient"/>
    <linearGradient id="linear-gradient-16" x1="0.633" y1="-0.149" x2="0.168" y2="1.601" xlink:href="#linear-gradient-7"/>
    <linearGradient id="linear-gradient-17" x1="693.293" y1="2.7" x2="696.743" y2="0.456" xlink:href="#linear-gradient"/>
    <linearGradient id="linear-gradient-18" x1="0.218" y1="-0.071" x2="0.719" y2="1.082" xlink:href="#linear-gradient-7"/>
    <linearGradient id="linear-gradient-19" x1="2.166" y1="-4.603" x2="-0.903" y2="4.856" xlink:href="#linear-gradient-10"/>
    <linearGradient id="linear-gradient-20" x1="-13.644" y1="-11.982" x2="-12.787" y2="-13.713" xlink:href="#linear-gradient-10"/>
    <linearGradient id="linear-gradient-21" x1="0.242" y1="-0.323" x2="1.77" y2="3.198" xlink:href="#linear-gradient-7"/>
    <linearGradient id="linear-gradient-22" x1="-38.687" y1="-45.162" x2="-36.324" y2="-51.531" xlink:href="#linear-gradient-10"/>
    <linearGradient id="linear-gradient-23" x1="-7.559" y1="-10.43" x2="-6.546" y2="-12.392" xlink:href="#linear-gradient-10"/>
    <linearGradient id="linear-gradient-24" x1="1.972" y1="0.167" x2="-0.263" y2="0.643" xlink:href="#linear-gradient"/>
    <linearGradient id="linear-gradient-25" x1="-0.522" y1="1.498" x2="5.34" y2="-5.024" xlink:href="#linear-gradient"/>
    <linearGradient id="linear-gradient-26" x1="-13.106" y1="-10.534" x2="-9.313" y2="-14.625" xlink:href="#linear-gradient"/>
    <linearGradient id="linear-gradient-27" x1="14.457" y1="27.225" x2="13.601" y2="26.429" xlink:href="#linear-gradient"/>
    <linearGradient id="linear-gradient-28" x1="11.173" y1="22.5" x2="12.418" y2="22.5" xlink:href="#linear-gradient-7"/>
    <linearGradient id="linear-gradient-29" x1="47.557" y1="123.697" x2="44.68" y2="120.031" xlink:href="#linear-gradient"/>
  </defs>
  <g id="Grupo_82258" data-name="Grupo 82258" transform="translate(-864.878 2984.579)">
    <path id="Trazado_141026" data-name="Trazado 141026" d="M1082.592-2764.677a88.755,88.755,0,0,1-13.577,11.431c-44.29,31.779-96.7,22.515-107.834,20.253-16.447-3.34-48.239-9.8-71.224-36.828-34.775-40.894-29.36-105.321-2.386-147.851,4.934-7.779,31-50.957,83.967-57.881,32.057-4.19,69.426,4.262,96.487,26.934C1124.83-2901.029,1120.786-2804.887,1082.592-2764.677Z" transform="translate(-0.447 -0.619)" fill="#ffcbbf"/>
    <g id="Grupo_82231" data-name="Grupo 82231" transform="translate(948.09 -2984.579)">
      <g id="Grupo_82226" data-name="Grupo 82226" transform="translate(31.74 0)">
        <g id="Grupo_82223" data-name="Grupo 82223" transform="translate(0 39.489)" style="isolation: isolate">
          <path id="Trazado_141027" data-name="Trazado 141027" d="M1238.277-2872.315a.755.755,0,0,1,.969.45c.279.761.594,1.521.938,2.26a.756.756,0,0,1-.353,1l-.013.006a.755.755,0,0,1-1-.366c-.362-.778-.695-1.579-.987-2.379a.755.755,0,0,1,.376-.937A.75.75,0,0,1,1238.277-2872.315Zm3.828,6.19c.441.685.916,1.356,1.411,2a.756.756,0,0,1-.136,1.06.756.756,0,0,1-1.06-.137c-.521-.675-1.021-1.382-1.485-2.1a.756.756,0,0,1,.226-1.044.772.772,0,0,1,.078-.044A.755.755,0,0,1,1242.1-2866.125Zm4.053,4.965c.581.568,1.194,1.117,1.822,1.632a.755.755,0,0,1,.1,1.063.756.756,0,0,1-1.063.1c-.661-.543-1.307-1.121-1.918-1.719a.756.756,0,0,1-.013-1.069.774.774,0,0,1,.208-.151A.756.756,0,0,1,1246.157-2861.159Zm5.062,3.935c.694.424,1.414.823,2.141,1.185a.756.756,0,0,1,.339,1.013.756.756,0,0,1-1.013.338c-.765-.381-1.524-.8-2.254-1.247a.756.756,0,0,1-.251-1.039.749.749,0,0,1,.312-.284A.755.755,0,0,1,1251.219-2857.225Zm5.812,2.709c.769.258,1.56.488,2.351.681a.756.756,0,0,1,.554.913.755.755,0,0,1-.913.554c-.832-.2-1.664-.445-2.473-.716a.755.755,0,0,1-.475-.957.756.756,0,0,1,.384-.438A.755.755,0,0,1,1257.032-2854.516Zm6.267,1.355c.808.083,1.63.13,2.442.144a.755.755,0,0,1,.743.768.755.755,0,0,1-.767.743c-.855-.014-1.72-.065-2.571-.151a.756.756,0,0,1-.675-.828.755.755,0,0,1,.42-.6A.75.75,0,0,1,1263.3-2853.16Zm26.058-10.379a.756.756,0,0,1,.1,1.064c-.544.66-1.124,1.3-1.723,1.916a.756.756,0,0,1-1.068.011.755.755,0,0,1-.01-1.068c.569-.581,1.12-1.193,1.636-1.819a.757.757,0,0,1,.251-.2A.757.757,0,0,1,1289.357-2863.54Zm-19.651,10.312c.806-.1,1.617-.235,2.412-.4a.756.756,0,0,1,.9.583.756.756,0,0,1-.583.9c-.836.178-1.691.32-2.539.425a.755.755,0,0,1-.842-.657.755.755,0,0,1,.417-.771A.757.757,0,0,1,1269.705-2853.228Zm15.038-5.615a.755.755,0,0,1-.138,1.059c-.677.521-1.386,1.02-2.106,1.482a.755.755,0,0,1-1.044-.228.755.755,0,0,1,.228-1.044c.685-.44,1.358-.913,2-1.409a.754.754,0,0,1,.129-.08A.756.756,0,0,1,1284.743-2858.843Zm-8.807,4.117c.763-.277,1.523-.59,2.261-.932a.755.755,0,0,1,1,.367.755.755,0,0,1-.353,1l-.015.007c-.776.36-1.578.69-2.38.983a.757.757,0,0,1-.968-.453.756.756,0,0,1,.377-.936C1275.885-2854.705,1275.91-2854.716,1275.936-2854.726Z" transform="translate(-1237.781 2872.361)" fill="#675d84"/>
          <path id="Trazado_141028" data-name="Trazado 141028" d="M1379.287-2860.913a.75.75,0,0,0-.327.31c-.189.341-.389.683-.594,1.017a.755.755,0,0,0,.25,1.039.755.755,0,0,0,1.039-.25c.215-.351.425-.711.625-1.07a.755.755,0,0,0-.292-1.027A.754.754,0,0,0,1379.287-2860.913Z" transform="translate(-1325.534 2865.258)" fill="#675d84"/>
        </g>
        <g id="Grupo_82224" data-name="Grupo 82224" transform="translate(1.318)" style="isolation: isolate">
          <path id="Trazado_141029" data-name="Trazado 141029" d="M1386.855-2921.923a.756.756,0,0,0-.39.9c.114.372.221.753.32,1.132a.755.755,0,0,0,.921.541.754.754,0,0,0,.54-.921c-.1-.4-.217-.8-.337-1.192a.756.756,0,0,0-.943-.5A.75.75,0,0,0,1386.855-2921.923Z" transform="translate(-1331.961 2942.859)" fill="#675d84"/>
          <path id="Trazado_141030" data-name="Trazado 141030" d="M1261.057-2975.14a.756.756,0,0,1,.992.4.755.755,0,0,1-.4.992c-.729.313-1.457.664-2.171,1.042a.755.755,0,0,1-1.021-.312.755.755,0,0,1,.313-1.021q.464-.246.932-.476C1260.151-2974.737,1260.605-2974.947,1261.057-2975.14Zm-4.725,3.442a.755.755,0,0,1-.171,1.054c-.65.469-1.287.969-1.893,1.488a.755.755,0,0,1-1.065-.083.754.754,0,0,1,.083-1.064c.638-.547,1.309-1.074,1.993-1.567a.789.789,0,0,1,.11-.066A.755.755,0,0,1,1256.332-2971.7Zm8.609-4.8c.81-.224,1.641-.415,2.47-.569a.755.755,0,0,1,.881.6.755.755,0,0,1-.6.881c-.787.147-1.576.329-2.345.541a.755.755,0,0,1-.929-.527.756.756,0,0,1,.4-.879A.734.734,0,0,1,1264.941-2976.5Zm-13.526,9.022a.755.755,0,0,1,.064,1.066c-.53.6-1.041,1.227-1.519,1.868a.755.755,0,0,1-1.057.154.755.755,0,0,1-.155-1.057c.5-.675,1.041-1.337,1.6-1.967a.767.767,0,0,1,.233-.178A.756.756,0,0,1,1251.414-2967.481Zm20.082-10.065c.839-.04,1.691-.044,2.534-.012a.754.754,0,0,1,.727.783.755.755,0,0,1-.783.727c-.8-.03-1.609-.026-2.406.012a.756.756,0,0,1-.79-.719.757.757,0,0,1,.423-.714A.762.762,0,0,1,1271.5-2977.546Zm6.625.42c.83.145,1.662.326,2.475.541a.755.755,0,0,1,.539.922.754.754,0,0,1-.922.538c-.773-.2-1.564-.375-2.353-.514a.755.755,0,0,1-.614-.874.755.755,0,0,1,.413-.548A.749.749,0,0,1,1278.121-2977.126Zm6.377,1.854c.779.322,1.552.682,2.3,1.066a.756.756,0,0,1,.325,1.018.756.756,0,0,1-1.017.325c-.71-.367-1.445-.708-2.184-1.014a.755.755,0,0,1-.409-.987.75.75,0,0,1,.365-.389A.753.753,0,0,1,1284.5-2975.272Zm5.82,3.2c.689.485,1.365,1.005,2.01,1.545a.755.755,0,0,1,.094,1.064.756.756,0,0,1-1.064.093c-.612-.513-1.254-1.007-1.909-1.467a.756.756,0,0,1-.183-1.052.756.756,0,0,1,.285-.244A.755.755,0,0,1,1290.318-2972.072Zm4.977,4.4c.564.624,1.108,1.279,1.619,1.949a.755.755,0,0,1-.143,1.058.756.756,0,0,1-1.059-.143c-.485-.637-1-1.259-1.537-1.851a.755.755,0,0,1,.053-1.067.757.757,0,0,1,.175-.119A.756.756,0,0,1,1295.3-2967.669Zm3.885,5.384c.305.539.6,1.093.87,1.648q.147.3.288.6a.747.747,0,0,1-.368,1,.755.755,0,0,1-1-.368q-.133-.289-.273-.575c-.258-.528-.536-1.056-.827-1.567a.756.756,0,0,1,.285-1.03l.041-.022A.755.755,0,0,1,1299.18-2962.285Z" transform="translate(-1245.857 2977.579)" fill="#675d84"/>
          <path id="Trazado_141031" data-name="Trazado 141031" d="M1242.276-2936.954a.747.747,0,0,0-.33.313c-.2.358-.39.727-.574,1.1a.755.755,0,0,0,.34,1.013.755.755,0,0,0,1.013-.339c.175-.352.359-.7.546-1.043a.755.755,0,0,0-.3-1.025A.752.752,0,0,0,1242.276-2936.954Z" transform="translate(-1241.293 2952.249)" fill="#675d84"/>
        </g>
        <g id="Grupo_82225" data-name="Grupo 82225" transform="translate(5.259 5.688)">
          <path id="Trazado_141032" data-name="Trazado 141032" d="M1251.8-2941.079a.377.377,0,0,0,.166.4l3.883,2.442a19.982,19.982,0,0,0,1.049,6.388l-2.893,3.556a.378.378,0,0,0-.027.437l2.9,4.673a.377.377,0,0,0,.4.169l4.469-1.018a19.988,19.988,0,0,0,5.262,3.771l.47,4.563a.377.377,0,0,0,.289.329l5.358,1.251a.376.376,0,0,0,.405-.166l2.442-3.883a19.965,19.965,0,0,0,6.388-1.049l3.556,2.892a.377.377,0,0,0,.437.028l4.673-2.9a.376.376,0,0,0,.169-.4l-1.018-4.47a20,20,0,0,0,3.771-5.261l4.563-.47a.377.377,0,0,0,.328-.289l1.251-5.357a.376.376,0,0,0-.166-.4l-3.883-2.443a19.98,19.98,0,0,0-1.05-6.388l2.893-3.557a.377.377,0,0,0,.028-.437l-2.9-4.674a.377.377,0,0,0-.4-.168l-4.47,1.018a19.957,19.957,0,0,0-5.262-3.771l-.47-4.563a.377.377,0,0,0-.289-.329l-5.358-1.251a.379.379,0,0,0-.4.166l-2.442,3.883a19.976,19.976,0,0,0-6.388,1.049l-3.556-2.892a.375.375,0,0,0-.437-.028l-4.674,2.9a.377.377,0,0,0-.168.4l1.018,4.47a19.973,19.973,0,0,0-3.771,5.262l-4.563.47a.377.377,0,0,0-.329.289Z" transform="translate(-1251.793 2962.423)" fill="#c3b5ec"/>
          <path id="Trazado_141033" data-name="Trazado 141033" d="M1305.281-2912.524a5.538,5.538,0,0,1,6.95,3.589,5.493,5.493,0,0,1-.356,4.218,5.491,5.491,0,0,1-3.234,2.731,5.536,5.536,0,0,1-6.949-3.589,5.538,5.538,0,0,1,2.835-6.646A5.568,5.568,0,0,1,1305.281-2912.524Zm5.448,7.215a4.214,4.214,0,0,0,.272-3.234,4.245,4.245,0,0,0-5.328-2.752,4.245,4.245,0,0,0-2.752,5.329,4.244,4.244,0,0,0,5.328,2.751,4.269,4.269,0,0,0,.584-.234A4.214,4.214,0,0,0,1310.729-2905.308Z" transform="translate(-1282.801 2931.415)" fill="#fff"/>
          <path id="Trazado_141034" data-name="Trazado 141034" d="M1287.875-2932.824q-.623.306-1.223.677h0q-.188.117-.373.24a13.678,13.678,0,0,0-1.71,1.349l-.021.02-.061.058-.118.113a.323.323,0,0,0-.066.374.309.309,0,0,0,.058.083.323.323,0,0,0,.456.008,13.021,13.021,0,0,1,2.176-1.694,12.953,12.953,0,0,1,12.457-.664,12.871,12.871,0,0,1,5.382,4.831,12.983,12.983,0,0,1,.646,1.166,12.852,12.852,0,0,1,.966,8.616,12.866,12.866,0,0,1-5.778,8.057,12.967,12.967,0,0,1-17.839-4.167,12.936,12.936,0,0,1-.637-1.151,12.92,12.92,0,0,1-1.313-5.467.323.323,0,0,0-.033-.137.321.321,0,0,0-.294-.181.322.322,0,0,0-.317.328,13.558,13.558,0,0,0,1.379,5.74,13.777,13.777,0,0,0,.668,1.208,13.616,13.616,0,0,0,18.728,4.375,13.508,13.508,0,0,0,6.065-8.458,13.493,13.493,0,0,0-1.013-9.045,13.779,13.779,0,0,0-.677-1.225,13.511,13.511,0,0,0-8.458-6.066A13.5,13.5,0,0,0,1287.875-2932.824Z" transform="translate(-1269.557 2944.792)" fill="#fff"/>
        </g>
      </g>
      <g id="Grupo_82230" data-name="Grupo 82230" transform="translate(0 9.977)">
        <g id="Grupo_82227" data-name="Grupo 82227" transform="translate(0 22.987)" style="isolation: isolate">
          <path id="Trazado_141035" data-name="Trazado 141035" d="M1153.471-2889.7a.465.465,0,0,0-.254.5c.067.391.146.784.236,1.17a.466.466,0,0,0,.561.348.465.465,0,0,0,.348-.56c-.085-.368-.161-.743-.225-1.116a.466.466,0,0,0-.539-.38A.457.457,0,0,0,1153.471-2889.7Z" transform="translate(-1153.21 2889.745)" fill="#675d84"/>
          <path id="Trazado_141036" data-name="Trazado 141036" d="M1155.986-2880.479a.467.467,0,0,1,.6.277,19.345,19.345,0,0,0,.77,1.8q.091.185.186.369a.467.467,0,0,1-.2.628.483.483,0,0,1-.628-.2c-.066-.128-.131-.257-.194-.386a20.264,20.264,0,0,1-.807-1.887.466.466,0,0,1,.232-.58C1155.956-2880.467,1155.971-2880.473,1155.986-2880.479Zm2.766,4.481a19.274,19.274,0,0,0,1.451,1.872.467.467,0,0,1-.042.659.468.468,0,0,1-.658-.042,20.214,20.214,0,0,1-1.521-1.963.466.466,0,0,1,.123-.648.5.5,0,0,1,.058-.034A.467.467,0,0,1,1158.752-2876Zm3.123,3.551a19.05,19.05,0,0,0,1.867,1.458.467.467,0,0,1,.121.649.466.466,0,0,1-.648.121,20.05,20.05,0,0,1-1.958-1.53.466.466,0,0,1-.04-.659.469.469,0,0,1,.144-.109A.467.467,0,0,1,1161.875-2872.447Zm3.9,2.676a19.014,19.014,0,0,0,2.167.957.467.467,0,0,1,.276.6.467.467,0,0,1-.6.276,20.273,20.273,0,0,1-2.272-1,.467.467,0,0,1-.2-.629.465.465,0,0,1,.209-.2A.465.465,0,0,1,1165.775-2869.771Zm4.435,1.643a19.494,19.494,0,0,0,2.334.4.467.467,0,0,1,.413.515.466.466,0,0,1-.515.412,20.3,20.3,0,0,1-2.447-.421.466.466,0,0,1-.347-.561.466.466,0,0,1,.249-.312A.467.467,0,0,1,1170.21-2868.128Zm4.7.516a19.159,19.159,0,0,0,2.359-.179.465.465,0,0,1,.526.4.466.466,0,0,1-.4.526,20.152,20.152,0,0,1-2.475.188.467.467,0,0,1-.473-.46.467.467,0,0,1,.261-.426A.459.459,0,0,1,1174.909-2867.612Zm4.681-.649a19.165,19.165,0,0,0,2.245-.753.467.467,0,0,1,.608.257.469.469,0,0,1-.257.608,20.116,20.116,0,0,1-2.354.79.467.467,0,0,1-.572-.33.467.467,0,0,1,.245-.539A.44.44,0,0,1,1179.59-2868.261Zm7.029-2.954a.466.466,0,0,1-.1.652,20.241,20.241,0,0,1-1.808,1.177q-.141.083-.284.162a.462.462,0,0,1-.635-.182.466.466,0,0,1,.181-.634c.089-.05.178-.1.269-.153a19.381,19.381,0,0,0,1.727-1.124.515.515,0,0,1,.071-.043A.468.468,0,0,1,1186.619-2871.215Z" transform="translate(-1154.753 2883.975)" fill="#675d84"/>
        </g>
        <g id="Grupo_82228" data-name="Grupo 82228" transform="translate(1.791)" style="isolation: isolate">
          <path id="Trazado_141037" data-name="Trazado 141037" d="M1170.583-2949.085a20.475,20.475,0,0,1,2.267-.91.467.467,0,0,1,.59.3.469.469,0,0,1-.3.59,19.368,19.368,0,0,0-2.162.867.467.467,0,0,1-.621-.222.467.467,0,0,1,.217-.619Zm-1.5,1.322a.467.467,0,0,1-.146.644,19.493,19.493,0,0,0-1.894,1.358.468.468,0,0,1-.656-.068.467.467,0,0,1,.068-.656,20.386,20.386,0,0,1,1.986-1.424.4.4,0,0,1,.044-.024A.466.466,0,0,1,1169.084-2947.763Zm6.127-2.859a20.2,20.2,0,0,1,2.42-.334.466.466,0,0,1,.5.43.466.466,0,0,1-.429.5,19.435,19.435,0,0,0-2.309.319.465.465,0,0,1-.549-.365.466.466,0,0,1,.252-.511A.477.477,0,0,1,1175.211-2950.622Zm-9.9,5.778a.466.466,0,0,1,.013.66,19.159,19.159,0,0,0-1.51,1.775.467.467,0,0,1-.653.093.467.467,0,0,1-.093-.653,20.075,20.075,0,0,1,1.584-1.861.461.461,0,0,1,.131-.1A.466.466,0,0,1,1165.315-2944.844Zm14.758-6.151a20.291,20.291,0,0,1,2.429.257.467.467,0,0,1,.383.537.466.466,0,0,1-.538.383,19.319,19.319,0,0,0-2.317-.245.468.468,0,0,1-.445-.487.467.467,0,0,1,.262-.4A.46.46,0,0,1,1180.073-2950.995Zm4.809.8a20.31,20.31,0,0,1,2.3.831.467.467,0,0,1,.243.613.466.466,0,0,1-.613.243,19.569,19.569,0,0,0-2.192-.792.467.467,0,0,1-.315-.58.464.464,0,0,1,.243-.287A.466.466,0,0,1,1184.882-2950.19Zm4.479,1.933a20.079,20.079,0,0,1,2.032,1.358.467.467,0,0,1,.089.654.467.467,0,0,1-.654.089,19.137,19.137,0,0,0-1.937-1.295.467.467,0,0,1-.168-.639.463.463,0,0,1,.2-.184A.466.466,0,0,1,1189.361-2948.257Z" transform="translate(-1161.103 2950.995)" fill="#675d84"/>
          <path id="Trazado_141038" data-name="Trazado 141038" d="M1158.793-2924.7a.462.462,0,0,0-.2.187c-.2.346-.388.7-.563,1.052a.467.467,0,0,0,.209.626.469.469,0,0,0,.626-.21c.167-.335.347-.673.537-1a.467.467,0,0,0-.173-.637A.465.465,0,0,0,1158.793-2924.7Z" transform="translate(-1157.982 2934.598)" fill="#675d84"/>
        </g>
        <g id="Grupo_82229" data-name="Grupo 82229" transform="translate(4.808 5.122)">
          <path id="Trazado_141039" data-name="Trazado 141039" d="M1166.027-2923.969a.235.235,0,0,0,.1.253l2.434,1.531a12.52,12.52,0,0,0,.658,4l-1.813,2.229a.237.237,0,0,0-.017.274l1.82,2.929a.237.237,0,0,0,.253.105l2.8-.638a12.523,12.523,0,0,0,3.3,2.364l.295,2.86a.235.235,0,0,0,.181.206l3.358.785a.237.237,0,0,0,.254-.1l1.531-2.434a12.542,12.542,0,0,0,4-.658l2.229,1.813a.236.236,0,0,0,.274.017l2.93-1.82a.235.235,0,0,0,.105-.253l-.638-2.8a12.5,12.5,0,0,0,2.364-3.3l2.86-.294a.237.237,0,0,0,.206-.182l.785-3.358a.235.235,0,0,0-.1-.253l-2.433-1.531a12.525,12.525,0,0,0-.658-4l1.813-2.229a.237.237,0,0,0,.018-.274l-1.82-2.929a.234.234,0,0,0-.253-.106l-2.8.638a12.523,12.523,0,0,0-3.3-2.364l-.295-2.859a.236.236,0,0,0-.181-.207l-3.358-.785a.238.238,0,0,0-.254.1l-1.531,2.434a12.527,12.527,0,0,0-4,.658l-2.229-1.813a.238.238,0,0,0-.274-.018l-2.93,1.82a.237.237,0,0,0-.105.253l.637,2.8a12.531,12.531,0,0,0-2.364,3.3l-2.86.294a.237.237,0,0,0-.206.182Z" transform="translate(-1166.021 2937.348)" fill="#c3b5ec"/>
          <path id="Trazado_141040" data-name="Trazado 141040" d="M1199.423-2906.236a3.507,3.507,0,0,1,2.692.227,3.5,3.5,0,0,1,1.742,2.063,3.533,3.533,0,0,1-2.29,4.434,3.534,3.534,0,0,1-4.434-2.29,3.507,3.507,0,0,1,.227-2.691,3.506,3.506,0,0,1,1.578-1.548A3.649,3.649,0,0,1,1199.423-2906.236Zm3.545,2.574a2.577,2.577,0,0,0-1.282-1.518,2.579,2.579,0,0,0-1.98-.167h0a2.581,2.581,0,0,0-1.518,1.282,2.579,2.579,0,0,0-.167,1.979,2.6,2.6,0,0,0,3.262,1.685,2.7,2.7,0,0,0,.354-.142A2.6,2.6,0,0,0,1202.969-2903.662Z" transform="translate(-1185.351 2918.017)" fill="#fff"/>
          <path id="Trazado_141041" data-name="Trazado 141041" d="M1188.074-2919.459a8.878,8.878,0,0,0-.782.433,8.827,8.827,0,0,0-1.418,1.093l-.058.056a.467.467,0,0,0-.1.54.456.456,0,0,0,.084.12.466.466,0,0,0,.659.011,7.882,7.882,0,0,1,1.32-1.027h0l.078-.047a7.769,7.769,0,0,1,3.678-1.129,7.9,7.9,0,0,1,2.107.184l.017,0,.052.012a7.8,7.8,0,0,1,4.886,3.5q.215.346.392.708a7.8,7.8,0,0,1,.585,5.225,7.8,7.8,0,0,1-3.5,4.885,7.813,7.813,0,0,1-5.932.978,7.8,7.8,0,0,1-4.885-3.5,7.719,7.719,0,0,1-.386-.7,7.829,7.829,0,0,1-.8-3.315.466.466,0,0,0-.047-.2.468.468,0,0,0-.427-.261.468.468,0,0,0-.459.474,8.78,8.78,0,0,0,.891,3.709,8.768,8.768,0,0,0,.432.781,8.728,8.728,0,0,0,5.466,3.92,8.72,8.72,0,0,0,6.636-1.093,8.728,8.728,0,0,0,3.92-5.466,8.718,8.718,0,0,0-.655-5.846,8.963,8.963,0,0,0-.437-.791A8.8,8.8,0,0,0,1188.074-2919.459Z" transform="translate(-1176.715 2926.727)" fill="#fff"/>
        </g>
      </g>
    </g>
    <g id="Grupo_82240" data-name="Grupo 82240" transform="translate(940.832 -2793.218)">
      <g id="Grupo_82235" data-name="Grupo 82235" transform="translate(32.017 0)">
        <g id="Grupo_82232" data-name="Grupo 82232" transform="translate(0 39.063)" style="isolation: isolate">
          <path id="Trazado_141042" data-name="Trazado 141042" d="M1102.475-2384.148a.769.769,0,0,1,.967.5c.252.786.541,1.573.861,2.339a.768.768,0,0,1-.4,1l-.013.006a.77.77,0,0,1-1.006-.414c-.336-.806-.641-1.635-.906-2.462a.77.77,0,0,1,.422-.938A.785.785,0,0,1,1102.475-2384.148Zm3.639,6.458c.42.714.876,1.418,1.353,2.092a.769.769,0,0,1-.182,1.072.769.769,0,0,1-1.073-.183c-.5-.708-.982-1.449-1.425-2.2a.769.769,0,0,1,.273-1.053.793.793,0,0,1,.081-.042A.77.77,0,0,1,1106.114-2377.69Zm3.918,5.222c.567.6,1.168,1.186,1.786,1.737a.769.769,0,0,1,.062,1.086.769.769,0,0,1-1.086.062c-.65-.58-1.283-1.195-1.881-1.829a.769.769,0,0,1,.031-1.087.767.767,0,0,1,.218-.145A.77.77,0,0,1,1110.031-2372.468Zm4.988,4.214c.688.46,1.405.9,2.129,1.294a.769.769,0,0,1,.3,1.045.77.77,0,0,1-1.045.3c-.763-.42-1.517-.879-2.243-1.363a.77.77,0,0,1-.212-1.067.766.766,0,0,1,.329-.277A.771.771,0,0,1,1115.019-2368.254Zm5.8,3c.772.295,1.567.562,2.364.791a.77.77,0,0,1,.526.953.769.769,0,0,1-.952.526c-.839-.241-1.676-.522-2.487-.832a.769.769,0,0,1-.444-.993.765.765,0,0,1,.409-.43A.766.766,0,0,1,1120.821-2365.256Zm6.321,1.64c.819.117,1.653.2,2.48.248a.77.77,0,0,1,.724.813.77.77,0,0,1-.812.724c-.87-.05-1.748-.138-2.61-.261a.769.769,0,0,1-.652-.871.767.767,0,0,1,.452-.595A.758.758,0,0,1,1127.142-2363.617Zm26.95-9.48a.769.769,0,0,1,.06,1.086c-.581.649-1.2,1.281-1.833,1.878a.769.769,0,0,1-1.087-.034.769.769,0,0,1,.034-1.087c.6-.567,1.189-1.167,1.74-1.783a.766.766,0,0,1,.263-.191A.771.771,0,0,1,1154.092-2373.1Zm-20.426,9.677c.824-.068,1.656-.172,2.47-.311a.769.769,0,0,1,.887.629.77.77,0,0,1-.63.887c-.859.146-1.734.256-2.6.327a.77.77,0,0,1-.83-.7.77.77,0,0,1,.457-.768A.781.781,0,0,1,1133.665-2363.419Zm15.536-5.09a.769.769,0,0,1-.185,1.072c-.711.5-1.453.98-2.205,1.421a.769.769,0,0,1-1.053-.275.771.771,0,0,1,.275-1.053c.715-.418,1.42-.873,2.1-1.35a.746.746,0,0,1,.135-.076A.768.768,0,0,1,1149.2-2368.509Zm-9.134,3.825c.788-.25,1.575-.538,2.34-.855a.768.768,0,0,1,1.005.416.769.769,0,0,1-.4,1l-.015.006c-.805.335-1.634.638-2.463.9a.77.77,0,0,1-.966-.5.77.77,0,0,1,.423-.937C1140.015-2364.667,1140.041-2364.676,1140.068-2364.685Z" transform="translate(-1101.94 2384.185)" fill="#675d84"/>
          <path id="Trazado_141043" data-name="Trazado 141043" d="M1245.427-2366.647a.764.764,0,0,0-.346.3c-.207.337-.425.677-.646,1.009a.769.769,0,0,0,.212,1.067.769.769,0,0,0,1.067-.212c.233-.348.462-.706.68-1.062a.769.769,0,0,0-.255-1.058A.77.77,0,0,0,1245.427-2366.647Z" transform="translate(-1190.874 2373.27)" fill="#675d84"/>
        </g>
        <g id="Grupo_82233" data-name="Grupo 82233" transform="translate(2.305)" opacity="0.3">
          <path id="Trazado_141044" data-name="Trazado 141044" d="M1255.734-2428.461a.769.769,0,0,0-.434.9c.1.383.194.775.279,1.166a.769.769,0,0,0,.915.588.768.768,0,0,0,.589-.915c-.089-.411-.188-.824-.293-1.228a.77.77,0,0,0-.938-.551A.793.793,0,0,0,1255.734-2428.461Z" transform="translate(-1200.032 2450.949)" fill="#bdd0fb"/>
          <path id="Trazado_141045" data-name="Trazado 141045" d="M1129.109-2486.255a.769.769,0,0,1,.993.444.769.769,0,0,1-.444.993c-.755.289-1.51.615-2.253.971a.769.769,0,0,1-1.026-.36.77.77,0,0,1,.36-1.027q.483-.231.969-.446C1128.17-2485.882,1128.642-2486.076,1129.109-2486.255Zm-4.951,3.307a.769.769,0,0,1-.219,1.065c-.68.45-1.35.933-1.989,1.437a.769.769,0,0,1-1.08-.128.77.77,0,0,1,.128-1.081c.673-.53,1.377-1.038,2.094-1.511a.762.762,0,0,1,.115-.062A.771.771,0,0,1,1124.158-2482.948Zm8.96-4.532c.834-.193,1.688-.354,2.537-.477a.77.77,0,0,1,.871.652.769.769,0,0,1-.652.871c-.807.117-1.617.269-2.408.453a.77.77,0,0,1-.924-.576.77.77,0,0,1,.439-.878A.777.777,0,0,1,1133.118-2487.48Zm-14.14,8.62a.769.769,0,0,1,.021,1.087c-.564.587-1.11,1.205-1.623,1.837a.768.768,0,0,1-1.082.113.77.77,0,0,1-.113-1.082c.54-.666,1.115-1.317,1.709-1.935a.773.773,0,0,1,.245-.171A.77.77,0,0,1,1118.979-2478.86Zm20.854-9.409c.856-.005,1.723.026,2.579.093a.769.769,0,0,1,.707.827.769.769,0,0,1-.827.707c-.813-.063-1.637-.093-2.449-.088a.77.77,0,0,1-.774-.765.77.77,0,0,1,.46-.709A.762.762,0,0,1,1139.832-2488.269Zm6.725.7c.838.182,1.678.4,2.5.653a.77.77,0,0,1,.51.961.768.768,0,0,1-.961.509c-.778-.238-1.576-.447-2.372-.62a.77.77,0,0,1-.588-.916.769.769,0,0,1,.442-.541A.768.768,0,0,1,1146.557-2487.567Zm6.412,2.151c.779.36,1.551.758,2.3,1.181a.769.769,0,0,1,.289,1.049.769.769,0,0,1-1.049.289c-.707-.4-1.441-.78-2.181-1.123a.769.769,0,0,1-.375-1.021.768.768,0,0,1,.388-.381A.769.769,0,0,1,1152.969-2485.416Zm5.79,3.5c.681.522,1.347,1.079,1.981,1.656a.769.769,0,0,1,.051,1.086.77.77,0,0,1-1.087.051c-.6-.548-1.234-1.076-1.882-1.573a.769.769,0,0,1-.142-1.078.762.762,0,0,1,.3-.236A.769.769,0,0,1,1158.759-2481.917Zm4.882,4.688c.548.658,1.075,1.347,1.566,2.05a.769.769,0,0,1-.189,1.071.77.77,0,0,1-1.071-.189c-.467-.668-.968-1.323-1.488-1.948a.769.769,0,0,1,.1-1.083.772.772,0,0,1,.183-.114A.77.77,0,0,1,1163.642-2477.229Zm3.73,5.64c.289.561.563,1.138.817,1.713q.138.314.268.628a.76.76,0,0,1-.417,1,.769.769,0,0,1-1.005-.417q-.124-.3-.254-.6c-.241-.548-.5-1.1-.776-1.629a.768.768,0,0,1,.332-1.036c.014-.008.029-.014.042-.021A.769.769,0,0,1,1167.371-2471.59Z" transform="translate(-1113.034 2488.27)" fill="#bdd0fb"/>
          <path id="Trazado_141046" data-name="Trazado 141046" d="M1109.155-2449.724a.766.766,0,0,0-.348.306c-.216.356-.428.724-.631,1.093a.769.769,0,0,0,.3,1.044.768.768,0,0,0,1.045-.3c.193-.35.394-.7.6-1.038a.769.769,0,0,0-.26-1.056A.769.769,0,0,0,1109.155-2449.724Z" transform="translate(-1108.08 2464.231)" fill="#bdd0fb"/>
        </g>
        <g id="Grupo_82234" data-name="Grupo 82234" transform="translate(5.897 5.971)">
          <path id="Trazado_141047" data-name="Trazado 141047" d="M1117.667-2451.757a.382.382,0,0,0,.152.418l3.85,2.647a20.337,20.337,0,0,0,.8,6.544l-3.091,3.5a.384.384,0,0,0-.046.443l2.76,4.876a.384.384,0,0,0,.4.188l4.591-.85a20.335,20.335,0,0,0,5.2,4.056l.288,4.663a.384.384,0,0,0,.281.346l5.4,1.5a.383.383,0,0,0,.419-.152l2.647-3.849a20.358,20.358,0,0,0,6.544-.8l3.5,3.091a.385.385,0,0,0,.443.046l4.876-2.761a.384.384,0,0,0,.188-.4l-.85-4.591a20.339,20.339,0,0,0,4.056-5.2l4.663-.289a.383.383,0,0,0,.346-.28l1.5-5.4a.385.385,0,0,0-.152-.419l-3.85-2.647a20.348,20.348,0,0,0-.8-6.544l3.091-3.5a.384.384,0,0,0,.046-.443l-2.761-4.876a.384.384,0,0,0-.4-.188l-4.591.85a20.345,20.345,0,0,0-5.2-4.056l-.289-4.663a.384.384,0,0,0-.28-.347l-5.4-1.5a.382.382,0,0,0-.418.152l-2.647,3.849a20.358,20.358,0,0,0-6.544.8l-3.5-3.091a.385.385,0,0,0-.443-.046l-4.876,2.761a.383.383,0,0,0-.188.4l.85,4.591a20.363,20.363,0,0,0-4.056,5.2l-4.663.289a.383.383,0,0,0-.346.28Z" transform="translate(-1117.652 2472.361)" fill="#c3b5ec"/>
          <path id="Trazado_141048" data-name="Trazado 141048" d="M1171.994-2421.961a5.64,5.64,0,0,1,6.923,3.941,5.594,5.594,0,0,1-.537,4.278,5.594,5.594,0,0,1-3.4,2.645,5.639,5.639,0,0,1-6.923-3.941,5.641,5.641,0,0,1,3.162-6.646A5.7,5.7,0,0,1,1171.994-2421.961Zm5.244,7.568a4.288,4.288,0,0,0,.411-3.28,4.323,4.323,0,0,0-5.308-3.021,4.323,4.323,0,0,0-3.022,5.308,4.324,4.324,0,0,0,5.308,3.022,4.421,4.421,0,0,0,.6-.214A4.288,4.288,0,0,0,1177.238-2414.392Z" transform="translate(-1149.011 2441.002)" fill="#fff"/>
          <path id="Trazado_141049" data-name="Trazado 141049" d="M1154.551-2442.8a14.2,14.2,0,0,0-1.272.638h0q-.2.111-.389.229a13.913,13.913,0,0,0-1.8,1.3l-.023.02-.065.057-.125.11a.328.328,0,0,0-.082.377.324.324,0,0,0,.056.086.329.329,0,0,0,.464.027,13.281,13.281,0,0,1,2.285-1.634,13.191,13.191,0,0,1,12.7-.158,13.113,13.113,0,0,1,5.277,5.14,13.465,13.465,0,0,1,.608,1.213,13.092,13.092,0,0,1,.625,8.809,13.1,13.1,0,0,1-6.214,7.958,13.207,13.207,0,0,1-17.981-4.982,13.128,13.128,0,0,1-.6-1.2,13.15,13.15,0,0,1-1.11-5.618.319.319,0,0,0-.028-.14.328.328,0,0,0-.292-.2.329.329,0,0,0-.337.32,13.8,13.8,0,0,0,1.165,5.9,14,14,0,0,0,.63,1.258,13.867,13.867,0,0,0,18.876,5.229,13.76,13.76,0,0,0,6.524-8.355,13.743,13.743,0,0,0-.655-9.246q-.286-.649-.639-1.275a13.763,13.763,0,0,0-8.355-6.524A13.747,13.747,0,0,0,1154.551-2442.8Z" transform="translate(-1135.517 2454.621)" fill="#fff"/>
        </g>
      </g>
      <g id="Grupo_82239" data-name="Grupo 82239" transform="translate(0 8.482)">
        <g id="Grupo_82236" data-name="Grupo 82236" transform="translate(0 22.612)" style="isolation: isolate">
          <path id="Trazado_141050" data-name="Trazado 141050" d="M1016.915-2405.378a.475.475,0,0,0-.28.5c.052.4.116.8.192,1.2a.475.475,0,0,0,.556.378.475.475,0,0,0,.378-.556c-.072-.378-.134-.763-.183-1.145a.476.476,0,0,0-.532-.411A.479.479,0,0,0,1016.915-2405.378Z" transform="translate(-1016.631 2405.419)" fill="#675d84"/>
          <path id="Trazado_141051" data-name="Trazado 141051" d="M1019.092-2395.893a.476.476,0,0,1,.6.306,19.747,19.747,0,0,0,.708,1.864c.056.128.114.255.173.383a.476.476,0,0,1-.231.631.492.492,0,0,1-.631-.231c-.062-.134-.122-.267-.181-.4a20.5,20.5,0,0,1-.743-1.954.475.475,0,0,1,.26-.581Zm2.629,4.675a19.773,19.773,0,0,0,1.4,1.966.475.475,0,0,1-.071.668.477.477,0,0,1-.668-.071,20.68,20.68,0,0,1-1.466-2.061.476.476,0,0,1,.152-.655.5.5,0,0,1,.06-.032A.475.475,0,0,1,1021.721-2391.218Zm3.031,3.744a19.513,19.513,0,0,0,1.839,1.562.476.476,0,0,1,.1.666.475.475,0,0,1-.665.1,20.516,20.516,0,0,1-1.929-1.638.476.476,0,0,1-.013-.672.487.487,0,0,1,.151-.1A.475.475,0,0,1,1024.751-2387.474Zm3.857,2.884a19.611,19.611,0,0,0,2.165,1.065.475.475,0,0,1,.256.621.476.476,0,0,1-.621.256,20.612,20.612,0,0,1-2.271-1.116.475.475,0,0,1-.177-.648.469.469,0,0,1,.221-.2A.476.476,0,0,1,1028.609-2384.59Zm4.445,1.856a19.69,19.69,0,0,0,2.358.506.476.476,0,0,1,.4.541.475.475,0,0,1-.541.4,20.815,20.815,0,0,1-2.472-.531.476.476,0,0,1-.329-.585.471.471,0,0,1,.267-.307A.472.472,0,0,1,1033.054-2382.734Zm4.76.72a19.442,19.442,0,0,0,2.409-.084.475.475,0,0,1,.519.427.475.475,0,0,1-.427.519,20.478,20.478,0,0,1-2.527.088.475.475,0,0,1-.462-.488.475.475,0,0,1,.284-.422A.473.473,0,0,1,1037.814-2382.014Zm4.791-.465a19.653,19.653,0,0,0,2.316-.673.475.475,0,0,1,.608.287.478.478,0,0,1-.287.608,20.552,20.552,0,0,1-2.429.706.476.476,0,0,1-.568-.36.475.475,0,0,1,.272-.539A.459.459,0,0,1,1042.6-2382.479Zm7.276-2.714a.475.475,0,0,1-.13.659,20.673,20.673,0,0,1-1.889,1.123c-.1.052-.2.1-.3.153a.471.471,0,0,1-.638-.211.474.474,0,0,1,.211-.638c.093-.047.186-.095.279-.145a19.742,19.742,0,0,0,1.8-1.071.405.405,0,0,1,.074-.041A.475.475,0,0,1,1049.88-2385.193Z" transform="translate(-1017.963 2399.482)" fill="#675d84"/>
        </g>
        <g id="Grupo_82237" data-name="Grupo 82237" transform="translate(2.325)" opacity="0.3">
          <path id="Trazado_141052" data-name="Trazado 141052" d="M1036.253-2464.058a20.631,20.631,0,0,1,2.344-.831.476.476,0,0,1,.588.325.478.478,0,0,1-.325.588,19.587,19.587,0,0,0-2.236.792.475.475,0,0,1-.623-.252.475.475,0,0,1,.246-.62Zm-1.58,1.284a.475.475,0,0,1-.176.648,19.9,19.9,0,0,0-1.984,1.3.476.476,0,0,1-.665-.1.474.474,0,0,1,.1-.665,20.663,20.663,0,0,1,2.08-1.366.391.391,0,0,1,.046-.023A.475.475,0,0,1,1034.673-2462.774Zm6.354-2.656a20.7,20.7,0,0,1,2.477-.24.475.475,0,0,1,.492.458.476.476,0,0,1-.458.492,19.812,19.812,0,0,0-2.363.229.475.475,0,0,1-.543-.395.475.475,0,0,1,.278-.509A.483.483,0,0,1,1041.027-2465.43Zm-10.311,5.47a.476.476,0,0,1-.014.672,19.464,19.464,0,0,0-1.611,1.744.476.476,0,0,1-.668.067.475.475,0,0,1-.067-.669,20.311,20.311,0,0,1,1.689-1.829.476.476,0,0,1,.137-.092A.476.476,0,0,1,1030.717-2459.96Zm15.273-5.646a20.618,20.618,0,0,1,2.461.362.476.476,0,0,1,.368.563.475.475,0,0,1-.563.368,19.442,19.442,0,0,0-2.347-.346.475.475,0,0,1-.433-.514.477.477,0,0,1,.282-.395A.485.485,0,0,1,1045.99-2465.606Zm4.861,1.018a20.819,20.819,0,0,1,2.3.941.475.475,0,0,1,.222.634.475.475,0,0,1-.634.223,19.88,19.88,0,0,0-2.2-.9.475.475,0,0,1-.3-.6.477.477,0,0,1,.259-.283A.475.475,0,0,1,1050.85-2464.588Zm4.477,2.153a20.472,20.472,0,0,1,2.011,1.467.474.474,0,0,1,.063.668.475.475,0,0,1-.669.064,19.458,19.458,0,0,0-1.918-1.4.474.474,0,0,1-.144-.656.468.468,0,0,1,.208-.179A.475.475,0,0,1,1055.328-2462.435Z" transform="translate(-1026.214 2465.67)" fill="#bdd0fb"/>
          <path id="Trazado_141053" data-name="Trazado 141053" d="M1023.713-2440.739a.473.473,0,0,0-.211.182c-.217.344-.424.7-.617,1.046a.476.476,0,0,0,.187.646.476.476,0,0,0,.646-.187c.183-.334.382-.67.588-1a.475.475,0,0,0-.149-.655A.474.474,0,0,0,1023.713-2440.739Z" transform="translate(-1022.827 2450.121)" fill="#bdd0fb"/>
        </g>
        <g id="Grupo_82238" data-name="Grupo 82238" transform="translate(5.097 5.312)">
          <path id="Trazado_141054" data-name="Trazado 141054" d="M1030.22-2438.6a.24.24,0,0,0,.1.262l2.413,1.659a12.76,12.76,0,0,0,.5,4.1l-1.938,2.193a.241.241,0,0,0-.029.278l1.73,3.057a.241.241,0,0,0,.253.118l2.877-.533a12.756,12.756,0,0,0,3.258,2.542l.181,2.922a.242.242,0,0,0,.176.218l3.385.937a.24.24,0,0,0,.262-.1l1.659-2.413a12.746,12.746,0,0,0,4.1-.5l2.193,1.938a.241.241,0,0,0,.278.029l3.057-1.73a.242.242,0,0,0,.118-.254l-.533-2.877a12.751,12.751,0,0,0,2.543-3.258l2.922-.181a.242.242,0,0,0,.217-.176l.938-3.386a.24.24,0,0,0-.1-.262l-2.413-1.659a12.745,12.745,0,0,0-.5-4.1l1.938-2.193a.241.241,0,0,0,.029-.278l-1.731-3.057a.242.242,0,0,0-.253-.119l-2.877.533a12.753,12.753,0,0,0-3.259-2.542l-.18-2.922a.241.241,0,0,0-.176-.217l-3.385-.938a.241.241,0,0,0-.263.1l-1.659,2.414a12.73,12.73,0,0,0-4.1.5l-2.193-1.937a.242.242,0,0,0-.278-.029l-3.057,1.73a.241.241,0,0,0-.118.253l.533,2.878a12.763,12.763,0,0,0-2.543,3.258l-2.922.181a.24.24,0,0,0-.217.175Z" transform="translate(-1030.212 2451.516)" fill="#c3b5ec"/>
          <path id="Trazado_141055" data-name="Trazado 141055" d="M1064.149-2420.093a3.57,3.57,0,0,1,2.73.342,3.57,3.57,0,0,1,1.688,2.172,3.6,3.6,0,0,1-2.515,4.417,3.6,3.6,0,0,1-4.417-2.515,3.572,3.572,0,0,1,.342-2.729,3.568,3.568,0,0,1,1.67-1.51A3.7,3.7,0,0,1,1064.149-2420.093Zm3.5,2.766a2.628,2.628,0,0,0-1.241-1.6,2.625,2.625,0,0,0-2.008-.251h0a2.63,2.63,0,0,0-1.6,1.242,2.625,2.625,0,0,0-.252,2.007,2.648,2.648,0,0,0,3.249,1.85,2.637,2.637,0,0,0,.366-.13A2.647,2.647,0,0,0,1067.65-2417.326Z" transform="translate(-1049.761 2431.967)" fill="#fff"/>
          <path id="Trazado_141056" data-name="Trazado 141056" d="M1052.775-2433.666q-.413.182-.814.408a8.982,8.982,0,0,0-1.488,1.054l-.062.054a.476.476,0,0,0-.119.546.478.478,0,0,0,.081.125.475.475,0,0,0,.671.039,8.036,8.036,0,0,1,1.385-.991h0l.082-.045a7.925,7.925,0,0,1,3.789-1,8.069,8.069,0,0,1,2.137.275l.017,0,.052.015a7.949,7.949,0,0,1,4.826,3.769,8.1,8.1,0,0,1,.369.736,7.942,7.942,0,0,1,.379,5.341,7.947,7.947,0,0,1-3.769,4.826,7.957,7.957,0,0,1-6.077.748,7.949,7.949,0,0,1-4.826-3.769,7.943,7.943,0,0,1-.364-.727,7.967,7.967,0,0,1-.673-3.407.471.471,0,0,0-.04-.2.474.474,0,0,0-.423-.284.475.475,0,0,0-.487.463,8.924,8.924,0,0,0,.753,3.812,9.086,9.086,0,0,0,.407.813,8.892,8.892,0,0,0,5.4,4.216,8.886,8.886,0,0,0,6.8-.836,8.888,8.888,0,0,0,4.216-5.4,8.882,8.882,0,0,0-.423-5.976,9.125,9.125,0,0,0-.413-.823A8.964,8.964,0,0,0,1052.775-2433.666Z" transform="translate(-1040.961 2440.834)" fill="#fff"/>
        </g>
      </g>
    </g>
    <g id="Grupo_82257" data-name="Grupo 82257" transform="translate(864.878 -2969.863)">
      <path id="Trazado_141103" data-name="Trazado 141103" d="M34.758,0A34.758,34.758,0,1,1,0,34.758,34.758,34.758,0,0,1,34.758,0Z" transform="translate(4.898 159.34)" fill="#c3b5ec"/>
      <g id="Grupo_82241" data-name="Grupo 82241" transform="translate(52.827 175.607)">
        <path id="Trazado_141057" data-name="Trazado 141057" d="M1010.009-2489.115s17,16.206,34.542,11.556l1.838,2.223s-21.728,13.113-40.751-1.784Z" transform="translate(-1005.637 2489.115)" fill="#db993e"/>
      </g>
      <path id="Trazado_141058" data-name="Trazado 141058" d="M941.331-2440.572s-15.982-12.444-19.2-33.208a19.316,19.316,0,0,1,19.757-22.262,67.335,67.335,0,0,1,15.809,2.59s-8.386,20.3,2.369,47.483C960.07-2445.968,948.448-2439.25,941.331-2440.572Z" transform="translate(-900.502 2669.058)" fill="#b17728"/>
      <path id="Trazado_141059" data-name="Trazado 141059" d="M959.127-2528.279l-3.218,11.993a2.352,2.352,0,0,0,1.338,2.769c1.859.806,4.84,1.574,7.484-.086a3.2,3.2,0,0,0,1.477-2.5l.666-9.992Z" transform="translate(-921.694 2689.188)" fill="url(#linear-gradient)"/>
      <path id="Trazado_141100" data-name="Trazado 141100" d="M34.758,0A34.758,34.758,0,1,1,0,34.758,34.758,34.758,0,0,1,34.758,0Z" transform="translate(0 4.254)" fill="#c3b5ec"/>
      <path id="Trazado_141101" data-name="Trazado 141101" d="M34.758,0A34.758,34.758,0,1,1,0,34.758,34.758,34.758,0,0,1,34.758,0Z" transform="translate(175.757 4.254)" fill="#c3b5ec"/>
      <path id="Trazado_141102" data-name="Trazado 141102" d="M34.758,0A34.758,34.758,0,1,1,0,34.758,34.758,34.758,0,0,1,34.758,0Z" transform="translate(168.41 167.779)" fill="#c3b5ec"/>
      <g id="Grupo_82244" data-name="Grupo 82244" transform="translate(7.418 1.328)">
        <g id="Grupo_82242" data-name="Grupo 82242" transform="translate(39.191 30.748)">
          <path id="Trazado_141060" data-name="Trazado 141060" d="M990.044-2871.549c1.776-.4,8.471,21.667,28.423,9.89l1.551,3.643s-16.755,17.486-30.951.443Z" transform="translate(-989.067 2871.554)" fill="url(#linear-gradient-2)"/>
          <path id="Trazado_141061" data-name="Trazado 141061" d="M1079.721-2847.125a2.608,2.608,0,0,0-1.238-1.89l-6.62-3.994s.04-.925,1.743-1.283a2.157,2.157,0,0,0,1.619-2.213s-2.352.644-5.814,1.709a7.6,7.6,0,0,0-4.008,3.159l1.434,2.692a32.8,32.8,0,0,0,13.065,3.184Z" transform="translate(-1036.754 2862.152)" fill="url(#linear-gradient-3)"/>
        </g>
        <path id="Trazado_141062" data-name="Trazado 141062" d="M919.419-2877.851c-.61.264,3.022,23.735-.926,39.146a32.521,32.521,0,0,0,14.636,3.208s14.21-21.836,14.582-24.336c.422-2.832-1.755-17.354-1.755-17.354S934.464-2884.354,919.419-2877.851Z" transform="translate(-905.789 2907.94)" fill="#ff7758"/>
        <path id="Trazado_141063" data-name="Trazado 141063" d="M955.069-2867.967c7.023.238,7.582-5.78,7.181-9.793a29.606,29.606,0,0,0-15.937-2.638C946.17-2876.973,946.637-2868.254,955.069-2867.967Z" transform="translate(-923.157 2907.938)" fill="url(#linear-gradient-4)"/>
        <path id="Trazado_141064" data-name="Trazado 141064" d="M965.448-2908.085s-3.489,7.371-5.527,10.479a2.133,2.133,0,0,0,.432,2.822,7.765,7.765,0,0,0,4.976,1.589,2.263,2.263,0,0,0,2.2-1.673l2.3-8.42Z" transform="translate(-931.451 2925.123)" fill="url(#linear-gradient-5)"/>
        <g id="Grupo_82243" data-name="Grupo 82243">
          <path id="Trazado_141065" data-name="Trazado 141065" d="M986.9-2927.506s1.615,3.731-.283,9.4-5,6.166-6.964,4.764a11.183,11.183,0,0,1-4.828-9.048C974.51-2927.524,984.676-2932.225,986.9-2927.506Z" transform="translate(-940.976 2938.472)" fill="url(#linear-gradient-6)"/>
          <path id="Trazado_141066" data-name="Trazado 141066" d="M973.056-2932.233s3.428-7.678,8.568-2.9l.4,1.977s4.9-1.395,3.287-5.831a8.993,8.993,0,0,0-12.7-4.571c-5.236,2.876-7.016,6.262-6.734,10.3s3.308,2.657,3.308,2.657.582-2.969,2-3.5,1.392,1.72,1.392,1.72Z" transform="translate(-935.372 2947.986)" fill="url(#linear-gradient-7)"/>
          <path id="Trazado_141067" data-name="Trazado 141067" d="M978.03-2918.055s1.785-3.937-.715-4.079-1.483,3.794-.985,5.231Z" transform="translate(-941.524 2933.902)" fill="url(#linear-gradient-8)"/>
          <path id="Trazado_141068" data-name="Trazado 141068" d="M919.729-2946.2a1.757,1.757,0,0,0,1.012-2.942c-3.076-3.361-8.881-7.089-17.152-1.368-9.317,6.445-14.358,9.361-16.646,8.749a1.765,1.765,0,0,0-2.1,2.47,7.49,7.49,0,0,0,3.568,3.066C903.64-2928.715,911.512-2945.2,919.729-2946.2Z" transform="translate(-884.644 2953.482)" fill="url(#linear-gradient-9)"/>
        </g>
      </g>
      <path id="Trazado_141069" data-name="Trazado 141069" d="M1351.99-2880.038s-13.323,24.092-32.41,25.834l-1.017,2.87s26.3,5.137,39.776-16.531Z" transform="translate(-1148.293 2908.93)" fill="#c6563d"/>
      <path id="Trazado_141070" data-name="Trazado 141070" d="M1338.19-2479.246s-4.175,10.969,3.449,16.627,19.832-8.391,19.832-8.391l-6.748,17.28s-9.019,5.768-18.42-3.818-2.885-22.613-2.885-22.613-6.441-3.094-2.62-9.345a.555.555,0,0,1,1.016.177c.378,1.822,1.372,5.023,3.821,6.3C1339.148-2481.2,1338.19-2479.246,1338.19-2479.246Z" transform="translate(-1155.18 2665.132)" fill="url(#linear-gradient-10)"/>
      <path id="Trazado_141071" data-name="Trazado 141071" d="M1261.272-2811.6l-.34-.105.237.128A.65.65,0,0,0,1261.272-2811.6Z" transform="translate(-1112.291 2866.245)" fill="url(#linear-gradient-11)"/>
      <path id="Trazado_141072" data-name="Trazado 141072" d="M1353.949-2807.539c.472.8.233-.831-.479-3.808A4.849,4.849,0,0,0,1353.949-2807.539Z" transform="translate(-1169.98 2866.019)" fill="url(#linear-gradient-12)"/>
      <g id="Grupo_82248" data-name="Grupo 82248" transform="translate(39.731 28.489)">
        <g id="Grupo_82245" data-name="Grupo 82245" transform="translate(0 0.363)">
          <path id="Trazado_141073" data-name="Trazado 141073" d="M1127.707-2779.233a4.578,4.578,0,0,1-4.508-6.063,39.4,39.4,0,0,0,2.142-13.47c-.176-12.211-10.485-20.822-23.824-18.079-13.218,2.718-15.706,14.626-13.779,20.232,1.007,2.93,4.5,7.921,7.622,12.031a4.5,4.5,0,0,1-3.152,7.256l-35.32,1.9-1.848-31.229a3.146,3.146,0,0,0-5.011-2.5c-3.4,2.59-8.771,4.9-16.385,3.267-14.472-3.109-14.525-16.872-12.137-23.8,2.014-5.844,15.563-13.557,25.919-6.715a3.2,3.2,0,0,0,4.893-3.034l-1.964-39.411a86.823,86.823,0,0,0-78.427,86.412,87.365,87.365,0,0,0,1.246,14.706l33.805.4a1.619,1.619,0,0,1,1.278,2.728,12.622,12.622,0,0,0-3.529,10.135c.683,9.6,9.35,13.25,18.927,9.2,9.54-4.036,12.034-14.783,2.609-22.3l30.352.609.2,23.828a3.593,3.593,0,0,0,5.485,2.8c11.723-7.365,22.859,1.617,23.44,8.7.674,8.22-3.922,16.4-14.01,15.4a30.62,30.62,0,0,1-10.44-2.908,3.431,3.431,0,0,0-5.062,2.884l.167,20.6q1.17.031,2.348.032a86.831,86.831,0,0,0,85.948-74.53Z" transform="translate(-971.485 2879.332)" fill="#ff7758"/>
          <path id="Trazado_141074" data-name="Trazado 141074" d="M1058.006-2705.982c-.754,0-1.548-.011-2.359-.033l-.431-.011-.171-21.028a3.618,3.618,0,0,1,1.718-3.1,4.077,4.077,0,0,1,3.985-.19,30.143,30.143,0,0,0,10.289,2.864,11.73,11.73,0,0,0,9.715-3.039c2.771-2.726,4.194-7.169,3.807-11.885-.289-3.532-3.339-7.423-7.417-9.464-2.823-1.412-8.568-3.146-15.341,1.108a4.09,4.09,0,0,1-4.139.084,3.746,3.746,0,0,1-2.029-3.256l-.2-23.395-28.663-.576c3.832,3.441,5.612,7.614,5.029,11.862-.611,4.447-3.867,8.326-8.711,10.375-5.315,2.248-10.513,2.221-14.26-.076-3.108-1.9-4.985-5.279-5.285-9.5a13.113,13.113,0,0,1,3.656-10.479,1.078,1.078,0,0,0,.253-1.189,1.3,1.3,0,0,0-1.222-.782l-34.173-.406-.062-.367a88.138,88.138,0,0,1-1.252-14.781,87.026,87.026,0,0,1,22.826-58.843,87.017,87.017,0,0,1,56-28.013l.465-.044,1.987,39.877a3.794,3.794,0,0,1-1.866,3.546,3.474,3.474,0,0,1-3.717-.118c-5.819-3.844-12.032-2.6-15.218-1.519-4.774,1.622-8.995,4.991-10.034,8.007-1.395,4.046-1.976,10.626.974,15.855,2.145,3.8,5.79,6.278,10.836,7.362,7.635,1.64,12.927-.827,16.021-3.185a3.438,3.438,0,0,1,3.569-.406,3.765,3.765,0,0,1,2.156,3.229l1.822,30.786,34.878-1.874a3.81,3.81,0,0,0,3.283-2.262,4.168,4.168,0,0,0-.463-4.28c-4.258-5.611-6.844-9.7-7.688-12.154a15.92,15.92,0,0,1,1.63-12.283c1.759-3.083,5.351-7.065,12.48-8.531,6.59-1.355,12.77-.054,17.4,3.664a18.962,18.962,0,0,1,6.961,14.844,39.708,39.708,0,0,1-2.166,13.624,4.125,4.125,0,0,0,.615,3.838,4.042,4.042,0,0,0,3.449,1.633l17.529-.941-.076.537a87.214,87.214,0,0,1-28.944,53.336A87.176,87.176,0,0,1,1058.006-2705.982Zm-1.905-.913c.654.014,1.292.021,1.905.021,42.577,0,79.207-31.605,85.429-73.611l-16.445.884-.024-.445.024.445a4.941,4.941,0,0,1-4.208-1.988,5.016,5.016,0,0,1-.745-4.667,38.815,38.815,0,0,0,2.118-13.318,18.084,18.084,0,0,0-6.628-14.163c-4.418-3.549-10.335-4.787-16.661-3.486-6.8,1.4-10.218,5.177-11.885,8.1a14.983,14.983,0,0,0-1.562,11.552c.8,2.331,3.414,6.447,7.556,11.906a5.055,5.055,0,0,1,.561,5.193,4.688,4.688,0,0,1-4.044,2.777l-35.153,1.889.186,21.867a2.867,2.867,0,0,0,1.566,2.482,3.2,3.2,0,0,0,3.237-.057c7.142-4.487,13.224-2.647,16.214-1.151,4.411,2.208,7.588,6.3,7.907,10.188.408,4.977-1.114,9.685-4.07,12.594a12.589,12.589,0,0,1-10.428,3.29,31.009,31.009,0,0,1-10.592-2.95,3.188,3.188,0,0,0-3.119.143,2.7,2.7,0,0,0-1.3,2.336Zm-83.288-72.085,33.433.4a2.185,2.185,0,0,1,2.033,1.337,1.971,1.971,0,0,1-.443,2.15,12.242,12.242,0,0,0-3.4,9.79c.283,3.985,1.964,7.03,4.861,8.806,3.5,2.144,8.4,2.15,13.448.015,4.551-1.925,7.608-5.542,8.175-9.674.586-4.268-1.428-8.482-5.67-11.864l-1.03-.82,31.367.63-1.73-29.23a2.838,2.838,0,0,0-1.638-2.472,2.56,2.56,0,0,0-2.657.305c-3.244,2.472-8.782,5.06-16.749,3.348-5.306-1.141-9.15-3.763-11.425-7.8-3.1-5.487-2.495-12.363-1.04-16.583,1.14-3.309,5.5-6.829,10.59-8.561,3.34-1.135,9.859-2.434,16,1.62a2.6,2.6,0,0,0,2.78.089,2.912,2.912,0,0,0,1.422-2.725l-1.941-38.949a85.978,85.978,0,0,0-77.559,85.923A87.252,87.252,0,0,0,972.813-2778.98Z" transform="translate(-970.743 2880.145)" fill="#fff"/>
        </g>
        <g id="Grupo_82246" data-name="Grupo 82246" transform="translate(1.246 101.523)">
          <path id="Trazado_141075" data-name="Trazado 141075" d="M1063.37-2560.817a30.621,30.621,0,0,0,10.44,2.908c10.088.993,14.684-7.184,14.01-15.4-.58-7.08-11.717-16.062-23.44-8.7a3.593,3.593,0,0,1-5.485-2.8l-.2-23.828-30.352-.609c9.425,7.514,6.932,18.261-2.609,22.3-9.577,4.051-18.244.4-18.927-9.2a12.622,12.622,0,0,1,3.529-10.135,1.619,1.619,0,0,0-1.278-2.729l-33.805-.4a86.841,86.841,0,0,0,83.223,72.079l-.167-20.6A3.431,3.431,0,0,1,1063.37-2560.817Z" transform="translate(-974.805 2609.86)" fill="#ffba5b"/>
          <path id="Trazado_141076" data-name="Trazado 141076" d="M1057.732-2537.633h-.012a87.384,87.384,0,0,1-83.651-72.449.444.444,0,0,1,.1-.364.436.436,0,0,1,.344-.157l33.805.4a2.185,2.185,0,0,1,2.033,1.337,1.97,1.97,0,0,1-.442,2.15,12.243,12.243,0,0,0-3.4,9.79c.283,3.985,1.964,7.03,4.861,8.806,3.5,2.144,8.4,2.15,13.448.015,4.551-1.925,7.608-5.542,8.175-9.674.586-4.269-1.428-8.482-5.67-11.864a.446.446,0,0,1-.142-.5.446.446,0,0,1,.419-.294h.009l30.352.609a.445.445,0,0,1,.437.442l.2,23.828a2.867,2.867,0,0,0,1.566,2.482,3.2,3.2,0,0,0,3.237-.057c7.142-4.488,13.224-2.647,16.214-1.151,4.411,2.208,7.588,6.3,7.907,10.188.408,4.977-1.114,9.685-4.07,12.594a12.589,12.589,0,0,1-10.428,3.29,31.009,31.009,0,0,1-10.592-2.95h0a3.19,3.19,0,0,0-3.119.143,2.7,2.7,0,0,0-1.3,2.336l.167,20.6a.447.447,0,0,1-.134.321A.445.445,0,0,1,1057.732-2537.633Zm-82.693-72.072a86.491,86.491,0,0,0,82.243,71.167l-.164-20.135a3.618,3.618,0,0,1,1.718-3.1,4.077,4.077,0,0,1,3.985-.19h0a30.143,30.143,0,0,0,10.289,2.864,11.731,11.731,0,0,0,9.716-3.039c2.77-2.726,4.193-7.169,3.807-11.885-.289-3.532-3.34-7.423-7.417-9.464-2.823-1.412-8.568-3.146-15.341,1.108a4.091,4.091,0,0,1-4.139.084,3.747,3.747,0,0,1-2.029-3.256l-.2-23.395-28.663-.576c3.832,3.44,5.612,7.614,5.029,11.862-.611,4.448-3.867,8.326-8.711,10.375-5.315,2.249-10.513,2.221-14.26-.076-3.108-1.9-4.985-5.279-5.285-9.5a13.111,13.111,0,0,1,3.656-10.479,1.078,1.078,0,0,0,.253-1.189,1.3,1.3,0,0,0-1.222-.782Z" transform="translate(-974.063 2610.603)" fill="#fff"/>
        </g>
        <g id="Grupo_82247" data-name="Grupo 82247" transform="translate(48.412)">
          <path id="Trazado_141077" data-name="Trazado 141077" d="M1128-2837.073c-10.356-6.841-23.905.872-25.919,6.715-2.387,6.927-2.335,20.689,12.137,23.8,7.614,1.635,12.986-.676,16.385-3.267a3.147,3.147,0,0,1,5.011,2.5l1.848,31.228,35.32-1.9a4.5,4.5,0,0,0,3.152-7.256c-3.118-4.109-6.615-9.1-7.622-12.03-1.927-5.607.561-17.515,13.779-20.233,13.339-2.744,23.647,5.867,23.824,18.079a39.4,39.4,0,0,1-2.142,13.47,4.578,4.578,0,0,0,4.508,6.063l16.988-.913a87.551,87.551,0,0,0,.869-12.287,86.854,86.854,0,0,0-60.847-82.864.656.656,0,0,1-.1.023l-.237-.129a86.8,86.8,0,0,0-25.629-3.848c-2.832,0-5.629.141-8.391.406l1.964,39.411A3.2,3.2,0,0,1,1128-2837.073Z" transform="translate(-1100.473 2880.369)" fill="#ffba5b"/>
          <path id="Trazado_141078" data-name="Trazado 141078" d="M1136.729-2776.4a.446.446,0,0,1-.445-.42l-1.848-31.229a2.84,2.84,0,0,0-1.638-2.472,2.561,2.561,0,0,0-2.657.305c-3.244,2.472-8.782,5.06-16.749,3.348-5.306-1.141-9.15-3.763-11.425-7.8-3.1-5.487-2.5-12.362-1.04-16.583,1.14-3.309,5.5-6.829,10.59-8.561,3.34-1.135,9.859-2.435,16,1.619h0a2.6,2.6,0,0,0,2.78.089,2.91,2.91,0,0,0,1.422-2.725l-1.964-39.416a.446.446,0,0,1,.4-.466c2.818-.27,5.655-.407,8.433-.407a87.292,87.292,0,0,1,25.761,3.867.452.452,0,0,1,.082.035l.1.052a.458.458,0,0,1,.165.019,86.852,86.852,0,0,1,24.509,12.2,87.6,87.6,0,0,1,19.362,18.946,86.535,86.535,0,0,1,17.289,52.146,88.324,88.324,0,0,1-.874,12.349.446.446,0,0,1-.417.383l-16.987.913a4.943,4.943,0,0,1-4.208-1.987,5.018,5.018,0,0,1-.745-4.667,38.808,38.808,0,0,0,2.118-13.318,18.083,18.083,0,0,0-6.628-14.162c-4.418-3.55-10.335-4.788-16.661-3.486-6.8,1.4-10.218,5.177-11.885,8.1a14.981,14.981,0,0,0-1.562,11.552c.8,2.331,3.414,6.448,7.555,11.906a5.056,5.056,0,0,1,.561,5.193,4.687,4.687,0,0,1-4.044,2.777l-35.32,1.9Zm-5.013-35.253a3.476,3.476,0,0,1,1.455.323,3.766,3.766,0,0,1,2.156,3.229l1.822,30.786,34.878-1.874a3.813,3.813,0,0,0,3.283-2.262,4.167,4.167,0,0,0-.463-4.28c-4.258-5.612-6.844-9.7-7.688-12.155a15.922,15.922,0,0,1,1.63-12.284c1.759-3.083,5.351-7.064,12.48-8.531,6.59-1.355,12.77-.054,17.4,3.664a18.962,18.962,0,0,1,6.96,14.844,39.69,39.69,0,0,1-2.167,13.623,4.128,4.128,0,0,0,.615,3.839,4.043,4.043,0,0,0,3.449,1.633l16.621-.893a87.4,87.4,0,0,0,.814-11.861,86,86,0,0,0-60.419-82.4l-.045.006a.446.446,0,0,1-.254-.052l-.2-.107a86.4,86.4,0,0,0-25.456-3.815c-2.611,0-5.274.123-7.924.364l1.943,38.985a3.794,3.794,0,0,1-1.866,3.545,3.475,3.475,0,0,1-3.717-.117h0c-5.819-3.844-12.033-2.6-15.218-1.519-4.775,1.623-8.995,4.99-10.034,8.007-1.395,4.045-1.976,10.626.973,15.854,2.145,3.8,5.791,6.279,10.836,7.363,7.634,1.64,12.927-.827,16.021-3.186A3.479,3.479,0,0,1,1131.716-2811.651Z" transform="translate(-1099.737 2881.111)" fill="#fff"/>
        </g>
      </g>
      <g id="Grupo_82251" data-name="Grupo 82251" transform="translate(190.957 0)">
        <path id="Trazado_141079" data-name="Trazado 141079" d="M1410.363-2839.884s-13.576-39.652-3.853-47.337c0,0,14.572-2.351,25.168,1.667v39.068S1421.853-2837.365,1410.363-2839.884Z" transform="translate(-1391.999 2913.844)" fill="#ff7758"/>
        <path id="Trazado_141080" data-name="Trazado 141080" d="M1420.038-2918.977a40.645,40.645,0,0,1,2.375,8.213,2.428,2.428,0,0,0,2.018,2.071c2.262.376,6.013.586,8.3-1.5a1.7,1.7,0,0,0,.448-1.833c-.94-2.631-5.826-13.586-8.489-15.266Z" transform="translate(-1402.641 2938.447)" fill="url(#linear-gradient-13)"/>
        <g id="Grupo_82249" data-name="Grupo 82249" transform="translate(0 28.29)">
          <path id="Trazado_141081" data-name="Trazado 141081" d="M1397.383-2809.347c1.514-1.65-4.075,4.8-4.084,4.815-2.569,4.6-8.309,6.249-8.309,6.249s-2.213-3.679-5.053-3.8c-2.068-.088-4.72,2.343-6.009,3.669a.866.866,0,0,0,.214,1.366l5.316,2.856s16.07.9,24.306-7.66C1402.309-2807.184,1399.48-2809.156,1397.383-2809.347Z" transform="translate(-1373.684 2836.648)" fill="url(#linear-gradient-14)"/>
          <path id="Trazado_141082" data-name="Trazado 141082" d="M1445.8-2881.641c-7.808,2.769-8.14,16.75-8.14,16.75s-6.036,7.372-11.958,14.329a.4.4,0,0,0,.258.659,8,8,0,0,1,7.055,5.325.444.444,0,0,0,.712.181.812.812,0,0,1,.1-.071C1456.651-2857.93,1445.8-2881.641,1445.8-2881.641Z" transform="translate(-1406.116 2881.641)" fill="#c6563d"/>
        </g>
        <g id="Grupo_82250" data-name="Grupo 82250" transform="translate(4.788)">
          <path id="Trazado_141083" data-name="Trazado 141083" d="M1397.293-2940.948c0,.229,5.113,14.474,5.113,14.474l8.072-3.092-2.84-14.221S1397.293-2944.78,1397.293-2940.948Z" transform="translate(-1393.22 2948.826)" fill="url(#linear-gradient-15)"/>
          <path id="Trazado_141084" data-name="Trazado 141084" d="M1399.442-2948.518l2.082,7.37a1.082,1.082,0,0,1,.04.288c0,.6-.148,2.669-2.255,2.388-1.912-.255-3.66-.459-4.771.064a1.069,1.069,0,0,0-.552,1.329,46.177,46.177,0,0,0,2.907,6.562,1.066,1.066,0,0,0,1.372.44,34.484,34.484,0,0,0,6.921-4.071,1.07,1.07,0,0,0,.378-1.027c-.354-1.885-1.407-7.618-1.454-9.261-.043-1.543,1.687-2.72,2.449-3.163a1.051,1.051,0,0,0,.5-.665,2.773,2.773,0,0,0-2.423-3.734,1.071,1.071,0,0,1-.869-1.274,2.778,2.778,0,0,0-2.09-3.578,3.918,3.918,0,0,0-4.467,1.783,1.07,1.07,0,0,1-1.326.354.848.848,0,0,0-.948.169,1.053,1.053,0,0,1-1.542-.234,3.193,3.193,0,0,0-3.937-1.3c-3.647,1.18-3.473,5.384-2.136,7.67s5.218.782,7.055-.733c1.4-1.151,3.524-.462,4.463-.066A1.062,1.062,0,0,1,1399.442-2948.518Z" transform="translate(-1386.441 2957.021)" fill="url(#linear-gradient-16)"/>
          <path id="Trazado_141085" data-name="Trazado 141085" d="M1432.914-2926.318s-1.751-4.135-.324-5.417,3.418-.841,3.354,2.351C1435.862-2925.414,1432.914-2926.318,1432.914-2926.318Z" transform="translate(-1414.92 2941.644)" fill="url(#linear-gradient-17)"/>
        </g>
      </g>
      <g id="Grupo_82252" data-name="Grupo 82252" transform="translate(163.207 162.69)">
        <path id="Trazado_141086" data-name="Trazado 141086" d="M1392.538-2515.264s-2.618-10.3,9.344-7.908c0,0,5.739-1.112,6.193,4.323,0,0,3.789,2.34,1.206,7.13,0,0,10.922-4.593,16.021,4.949s.831,15-3.767,16.524a4.621,4.621,0,0,1,2.16,6.089c-1.654,4.313-10.573,7.581-16.047,2.557,0,0-15.083,2.446-15.094-8.257,0,0-7.177-4.341-.04-13.4S1392.538-2515.264,1392.538-2515.264Z" transform="translate(-1355.722 2523.533)" fill="url(#linear-gradient-18)"/>
        <path id="Trazado_141087" data-name="Trazado 141087" d="M1383.473-2438.686a16.3,16.3,0,0,1,16.069,3.6,4.1,4.1,0,0,1,1.3,4.045c-1.584,6.59-5.834,23.966-1.48,32.2,0,0-8.094,5.091-15.584,2.433,0,0-3.374-13.7-8.215-20.346-3.343-4.587,4.593-17.729,6.6-20.907A2.465,2.465,0,0,1,1383.473-2438.686Z" transform="translate(-1346.602 2471.015)" fill="#ffcbbf"/>
        <path id="Trazado_141088" data-name="Trazado 141088" d="M1406.735-2472.52s3.825,9.882,4.22,14.281a7.556,7.556,0,0,1-7.615-1s-.679-9.964-1.289-11.734Z" transform="translate(-1363.654 2491.665)" fill="url(#linear-gradient-19)"/>
        <path id="Trazado_141089" data-name="Trazado 141089" d="M1391.912-2508.64s-8.854,13.2-3.223,16.787,11.934-5.786,11.934-5.786,1.934-7.137-.377-9.47S1391.912-2508.64,1391.912-2508.64Z" transform="translate(-1354.137 2514.313)" fill="url(#linear-gradient-20)"/>
        <path id="Trazado_141090" data-name="Trazado 141090" d="M1403.585-2517.362s-4.213,1.13-4.75,3.067,6.125,3.523,7.98,3.555l1.72,7.7s4.2-7.416,2.326-11.573S1403.585-2517.362,1403.585-2517.362Z" transform="translate(-1361.626 2519.821)" fill="url(#linear-gradient-21)"/>
        <path id="Trazado_141091" data-name="Trazado 141091" d="M1418.762-2485.622s3.472-4.269,4.981-1.6-3.1,4.847-4.75,3.562Z" transform="translate(-1374.094 2501.397)" fill="url(#linear-gradient-22)"/>
        <path id="Trazado_141092" data-name="Trazado 141092" d="M1299.744-2472.477s1.567,2.07,2.448,2.033c2.282-.1,6.457.116,8.15,1.76,2.347,2.278,3.62,9.31,5.933,15.048s12.087,12.27,18.188,9.8,9.431-13.425,15.23-13.771,5.54,9.961.656,13.458c-3.168,2.269-18.626,14.5-30.426,5.981s-11.871-25.641-11.871-25.641a47.5,47.5,0,0,1-5.814-2.815C1300.27-2467.876,1299.744-2472.477,1299.744-2472.477Z" transform="translate(-1299.744 2491.638)" fill="url(#linear-gradient-23)"/>
      </g>
      <g id="Grupo_82254" data-name="Grupo 82254" transform="translate(19.25 31.365)">
        <path id="Trazado_141093" data-name="Trazado 141093" d="M916.176-2865.906s-.2,4.391,3.274,20.222c3.675,16.729,32.961,8.547,32.961,8.547l-.64-4.1s-20.124.227-22.813-3.8c-1.972-2.956-2.058-10.454-1.818-14.177.119-1.85-4.516-15.171-9.171-14.186C916.665-2871.916,916.108-2869.361,916.176-2865.906Z" transform="translate(-916.17 2873.449)" fill="url(#linear-gradient-24)"/>
        <g id="Grupo_82253" data-name="Grupo 82253" transform="translate(34.734 29.058)">
          <path id="Trazado_141094" data-name="Trazado 141094" d="M1009.424-2787.327s-1.018-4.185-.607-5.668,1.206-3.394,3.857-2.97a38.809,38.809,0,0,1,5.778,1.541,1.517,1.517,0,0,1-2.173,1.31l1.249.967s-.179,1.549-1.881.722l1.162,1.282a1.355,1.355,0,0,1-1.983.456C1013.576-2790.5,1012.975-2786.823,1009.424-2787.327Z" transform="translate(-1008.72 2796.025)" fill="url(#linear-gradient-25)"/>
        </g>
      </g>
      <g id="Grupo_82255" data-name="Grupo 82255" transform="translate(25.378 181.289)">
        <path id="Trazado_141095" data-name="Trazado 141095" d="M993.634-2460.213s-32.277,4.743-45.387-9.979c-13.476-10.253-22.55,2.68-9.2,11,0,0,24.779,22.8,54.018,2.255Z" transform="translate(-932.497 2473.977)" fill="#db993e"/>
        <path id="Trazado_141096" data-name="Trazado 141096" d="M1091.16-2450.139s4.081-.64,3.368-4.49c-.75-4.055,4.284-4.964,2.124-8.192a.6.6,0,0,0-.723-.231,9.794,9.794,0,0,0-6.3,10.708Z" transform="translate(-1030.59 2467.178)" fill="url(#linear-gradient-26)"/>
      </g>
      <g id="Grupo_82256" data-name="Grupo 82256" transform="translate(30.4 141.195)">
        <path id="Trazado_141097" data-name="Trazado 141097" d="M966.98-2561.1s7.454,12.072,2.777,16.24-12.9-7.068-12.9-7.068S954.631-2565.584,966.98-2561.1Z" transform="translate(-952.639 2569.061)" fill="url(#linear-gradient-27)"/>
        <path id="Trazado_141098" data-name="Trazado 141098" d="M952.912-2561.092c-.086.322-2.16,3.338-5.1,1.2s-2.244-4.717.265-6.059c0,0-2.03-.286-1.5-2.13a1.77,1.77,0,0,1,2.234-1.338s-3.639-10.036,5.5-11.221,9.469,4.189,9.384,5.874-3.334,5.273-8.829,4.752a2.3,2.3,0,0,1,.947,2.874c-.7,1.981-3.951,3.933-3.951,3.933Z" transform="translate(-945.879 2580.806)" fill="url(#linear-gradient-28)"/>
        <path id="Trazado_141099" data-name="Trazado 141099" d="M962.438-2533.45s-2.324-3.721-3.89-1.6c-2.017,2.737,3.284,3.268,3.284,3.268Z" transform="translate(-953.508 2552.629)" fill="url(#linear-gradient-29)"/>
      </g>
    </g>
  </g>
</svg>
