<svg xmlns="http://www.w3.org/2000/svg" xmlns:xlink="http://www.w3.org/1999/xlink" width="1030" height="277.04" viewBox="0 0 1030 277.04">
  <defs>
    <clipPath id="clip-path">
      <path id="Trazado_141502" data-name="Trazado 141502" d="M904.575,1452.735c-.228-1.208-1.17-1.858-2.821-1.855,2.808-1.158,4.783-2.386,4.4-4.4a2.366,2.366,0,0,0-2.308-1.941c2.732-1.144,4.757-2.411,4.417-4.327-.253-1.424-1.4-2.067-3.276-2,2.284-1.172,2.918-2.182,2.538-3.924-.592-2.717-3.333-2.827-9-.24-5.6,2.556-8.835,5.16-8.372,7.042.273,1.11,1.43,1.578,3.632,1.244q-3.042,1.94-2.694,3.64c.213,1.038,1.032,1.644,2.83,1.564-2.871,1.573-3.741,2.946-3.456,4.342.244,1.188.9,1.906,3.016,1.648-2.989,1.558-3.892,2.9-3.612,4.269.358,1.748,1.665,2.412,7.723.157C901.592,1456.465,905.052,1455.256,904.575,1452.735Z" transform="translate(-889.819 -1432.177)" fill="none"/>
    </clipPath>
    <clipPath id="clip-path-2">
      <path id="Trazado_141515" data-name="Trazado 141515" d="M1457.377,648.5c-6.757,14.72-37.442,32.284-65.928,26.084-28.5-6.2-33.867-30.573-35.041-34.441-2.735-9.014-.117-30.883,8.2-43.531s28.113-21.418,47.531-20.206C1448.5,578.682,1473.788,612.753,1457.377,648.5Z" transform="translate(-1355.366 -576.299)" fill="#fbece5"/>
    </clipPath>
    <clipPath id="clip-path-3">
      <path id="Trazado_141522" data-name="Trazado 141522" d="M1727.471,1436.614a13.244,13.244,0,0,0-.521-1.638c-1.041-2.546-3.27-4.558-6.372-7.428a30.619,30.619,0,0,0-9.119-5.317l.7,7.864h0c-5.2-.48-12.213-1.123-12.755-1.154-3.691-.213-5.368.868-5.389,3.275-.018,2.128.969,3.153,3.923,3.964-2.208.379-3.453,1.413-3.338,3.135a3.871,3.871,0,0,0,3.528,3.634,2.877,2.877,0,0,0-2.222,2.831c-.032,1.748,1.492,3.375,4.459,3.786-1.929.4-2.87,1.389-2.842,2.856.059,3.061,4.4,3.628,9.433,4.391a46.419,46.419,0,0,0,8.137.6l1.6-.018,21.424,85.731,22.081-3.551Z" transform="translate(-1694.019 -1422.231)" fill="none"/>
    </clipPath>
    <clipPath id="clip-path-4">
      <path id="Trazado_141555" data-name="Trazado 141555" d="M1912.939,1795.482l-28.568,4.595s-8.611-39.269-10.16-46.1c-1-4.419-2.916-12.324-4.143-17.36-.274-1.124-.481-2.117-.63-2.9a2.784,2.784,0,0,1-.083-1.554,1.633,1.633,0,0,1,.864-.667s4.9-1.579,9.6-3.184c3.629-1.239,6.6-2.513,7.76-3.03a3.882,3.882,0,0,1,1.47-.341,1.453,1.453,0,0,1,.6.075,4.73,4.73,0,0,1,.981,1.557c1.285,3.625,4.6,13.163,6.9,20.678,1.124,3.672,4.008,11.337,6.837,19.565C1907.881,1777.022,1912.939,1795.482,1912.939,1795.482Z" transform="translate(-1869.265 -1724.935)" fill="#ff917c"/>
    </clipPath>
    <clipPath id="clip-path-5">
      <path id="Trazado_141575" data-name="Trazado 141575" d="M2668.169,1425.419c-.323-1.187-1.313-1.76-2.958-1.628,2.709-1.375,4.581-2.755,4.043-4.733a2.366,2.366,0,0,0-2.454-1.754c2.634-1.355,4.553-2.777,4.063-4.661-.364-1.4-1.558-1.951-3.422-1.736,2.185-1.347,2.738-2.4,2.222-4.111-.8-2.662-3.545-2.557-8.995.467-5.385,2.988-8.4,5.837-7.793,7.677.359,1.086,1.55,1.461,3.719.956q-2.881,2.173-2.4,3.84c.293,1.018,1.158,1.558,2.944,1.337-2.738,1.793-3.5,3.231-3.1,4.6.336,1.166,1.047,1.829,3.136,1.406-2.858,1.788-3.652,3.2-3.266,4.539.494,1.715,1.849,2.274,7.712-.45C2665.488,1429.372,2668.842,1427.895,2668.169,1425.419Z" transform="translate(-2652.797 -1404.894)" fill="none"/>
    </clipPath>
    <clipPath id="clip-path-6">
      <path id="Trazado_141583" data-name="Trazado 141583" d="M2356.583,1726.883l-18.9-6.933a2.423,2.423,0,0,0-1.382-.062c-.431.177-.552.8-.774,1.277-2.349,5.08-9.271,20.153-12.142,27.5-1.385,3.54-2.665,7.059-4.483,11.126-2.006,4.486-3.92,7.847-3.92,7.847l27.985,16.08s1.086-5.423,3.066-12.576c1.6-5.791,3.694-12.5,4.907-17.475,2.008-8.231,5.429-20.7,6.583-24.873a2.036,2.036,0,0,0-.108-1.213A1.5,1.5,0,0,0,2356.583,1726.883Z" transform="translate(-2314.976 -1719.802)" fill="#ffbd6d"/>
    </clipPath>
    <clipPath id="clip-path-7">
      <path id="Trazado_141608" data-name="Trazado 141608" d="M3373.889,1623.89c.384-1.168,1.4-1.69,3.039-1.471-2.634-1.514-4.431-2.99-3.791-4.937a2.366,2.366,0,0,1,2.542-1.623c-2.56-1.49-4.4-3.011-3.815-4.866.436-1.378,1.657-1.867,3.508-1.555-2.112-1.459-2.608-2.544-2-4.221.941-2.616,3.674-2.368,8.958.936,5.222,3.264,8.087,6.267,7.383,8.073-.416,1.065-1.624,1.378-3.763.76q2.763,2.32,2.2,3.96c-.346,1-1.238,1.5-3.01,1.182,2.642,1.933,3.325,3.409,2.86,4.755-.4,1.147-1.141,1.772-3.205,1.241,2.76,1.934,3.481,3.385,3.025,4.7-.583,1.686-1.965,2.175-7.678-.851C3376.361,1627.977,3373.088,1626.327,3373.889,1623.89Z" transform="translate(-3371.755 -1603.441)" fill="none"/>
    </clipPath>
    <clipPath id="clip-path-8">
      <path id="Trazado_141622" data-name="Trazado 141622" d="M3495.607,1932.786l31.012-4.825s-6.6-20.224-9.5-32.158-7.443-28.125-7.443-28.125-.828-2.867-1.569-3.265c-1.187-.639-3.2.234-3.2.234l-14.766,3.739a4.376,4.376,0,0,1-.976,1.814,7.81,7.81,0,0,1-1.5.983s1.283,10.06,3.843,29.536C3494.22,1921.257,3495.607,1932.786,3495.607,1932.786Z" transform="translate(-3487.678 -1864.179)" fill="#c4bbe0"/>
    </clipPath>
    <clipPath id="clip-path-9">
      <path id="Trazado_141644" data-name="Trazado 141644" d="M4347.476,1447.294c-.329-1.185-1.322-1.753-2.967-1.612,2.7-1.389,4.565-2.779,4.017-4.754a2.365,2.365,0,0,0-2.462-1.74c2.626-1.369,4.538-2.8,4.038-4.682-.372-1.4-1.568-1.942-3.431-1.717,2.177-1.359,2.724-2.419,2.2-4.123-.819-2.658-3.559-2.538-8.993.515-5.368,3.016-8.371,5.882-7.752,7.719.365,1.084,1.557,1.453,3.723.936q-2.868,2.188-2.379,3.853c.3,1.016,1.167,1.552,2.952,1.321-2.729,1.808-3.481,3.25-3.079,4.616.342,1.164,1.057,1.824,3.144,1.39-2.848,1.8-3.635,3.218-3.242,4.557.5,1.712,1.861,2.264,7.709-.491C4344.815,1451.261,4348.162,1449.766,4347.476,1447.294Z" transform="translate(-4332.045 -1426.775)" fill="none"/>
    </clipPath>
    <clipPath id="clip-path-10">
      <path id="Trazado_141656" data-name="Trazado 141656" d="M4014.928,1732.6c-.563,1.69-1.557,4.761-2.349,7.252-1.128,3.546-2.437,7.6-3.686,11.945-1.619,5.631-4.9,15.443-7.186,22.484-2.128,6.549-3.188,10.584-3.188,10.584l-30.6-5.649s2.5-4.994,5.731-12.508c2.67-6.218,5.94-13.706,8.983-20.712,2.4-5.535,4.907-11.3,6.715-15.4,1.459-3.306,2.368-5.458,3.15-7.268.917-2.122,1.393-2.758,2.816-2.107l18.864,7.564C4016.184,1729.84,4015.715,1730.241,4014.928,1732.6Z" transform="translate(-3967.922 -1720.982)" fill="#f27253"/>
    </clipPath>
    <clipPath id="clip-path-11">
      <path id="Trazado_141668" data-name="Trazado 141668" d="M4935.228,1321.27a13.131,13.131,0,0,1,.415-1.668c.876-2.607,2.972-4.758,5.885-7.819a30.632,30.632,0,0,1,8.762-5.888l-.2,7.893h0c5.163-.811,12.116-1.9,12.655-1.966,3.67-.448,5.412.523,5.587,2.925.153,2.122-.766,3.208-3.662,4.206,2.228.237,3.537,1.19,3.53,2.916a3.87,3.87,0,0,1-3.289,3.852,2.878,2.878,0,0,1,2.4,2.683c.144,1.743-1.273,3.463-4.209,4.063,1.951.276,2.953,1.2,3.02,2.669.136,3.059-4.156,3.9-9.135,4.984a46.439,46.439,0,0,1-8.082,1.116l-1.6.084-15.91,86.923-22.262-2.136Z" transform="translate(-4909.134 -1305.894)" fill="none"/>
    </clipPath>
    <clipPath id="clip-path-12">
      <path id="Trazado_141679" data-name="Trazado 141679" d="M5002.6,1653.159l1.59-6.328a2.938,2.938,0,0,1,.442-1.081,1.264,1.264,0,0,1,1.182-.366c1.853.238,5.521,1.333,10.158,2.364,4.447.988,7.789,1.568,9.417,2.2a1.593,1.593,0,0,1,.968.9,2.511,2.511,0,0,1-.135,1.328l-1.36,6.314Z" transform="translate(-5002.595 -1645.367)" fill="none"/>
    </clipPath>
    <clipPath id="clip-path-13">
      <path id="Trazado_141702" data-name="Trazado 141702" d="M6050.218,1657.8c.237-1.207,1.183-1.85,2.834-1.836-2.8-1.177-4.766-2.419-4.372-4.431a2.366,2.366,0,0,1,2.321-1.925c-2.725-1.162-4.74-2.444-4.387-4.357.263-1.422,1.414-2.057,3.29-1.977-2.276-1.187-2.9-2.2-2.512-3.941.611-2.712,3.353-2.8,9.006-.179,5.584,2.594,8.8,5.22,8.324,7.1-.281,1.109-1.441,1.568-3.641,1.22q3.03,1.961,2.669,3.658c-.22,1.036-1.044,1.637-2.841,1.545,2.86,1.592,3.722,2.971,3.425,4.365-.251,1.187-.913,1.9-3.027,1.628,2.979,1.578,3.873,2.929,3.583,4.293-.37,1.746-1.681,2.4-7.724.1C6053.176,1661.547,6049.724,1660.314,6050.218,1657.8Z" transform="translate(-6046.574 -1637.238)" fill="none"/>
    </clipPath>
  </defs>
  <g id="Grupo_83510" data-name="Grupo 83510" transform="translate(-285 -4551.221)">
    <path id="Trazado_141483" data-name="Trazado 141483" d="M624.074,1412.607a28.335,28.335,0,0,0-10.444-2.721,79.324,79.324,0,0,1-8.353-.729l-11,13.525L590.01,1436.1l-27.2,54.5,23.254,3.6,21.246-54.63,8.851-14.757Z" transform="translate(-170.155 3293.553)" fill="#b96442"/>
    <path id="Trazado_141484" data-name="Trazado 141484" d="M830.352,1611.086a25.4,25.4,0,0,1-8.316-2.774.448.448,0,0,1,.454-.772,25.383,25.383,0,0,0,8.371,2.714.448.448,0,0,1-.109.888C830.72,1611.139,830.58,1611.121,830.352,1611.086Z" transform="translate(-393.646 3122.424)" fill="#9f503d"/>
    <g id="Grupo_82572" data-name="Grupo 82572" transform="translate(433.889 4657.592)">
      <path id="Trazado_141485" data-name="Trazado 141485" d="M870.536,1179.92l-3.775-.234a3.446,3.446,0,0,1-3.225-3.653l5.762-92.723a3.446,3.446,0,0,1,4.247-3.136l3.733.9a3.446,3.446,0,0,1,2.631,3.563l-5.721,92.057A3.446,3.446,0,0,1,870.536,1179.92Z" transform="translate(-863.529 -1080.076)" fill="#985d52"/>
    </g>
    <g id="Grupo_82573" data-name="Grupo 82573" transform="translate(421.169 4697.318)">
      <path id="Trazado_141486" data-name="Trazado 141486" d="M770.754,1398.035a60.707,60.707,0,0,1,3.451-10.876c1.132-2.5,2.161-6.2,2.894-7.74,1.1-2.293,2.784-3.56,7.959-5.158a51.031,51.031,0,0,0,8.877-3.471c1.627-.8,2.409-1.162,3.136-.84,1.415.625,1.6,2.734,0,4.447a14.867,14.867,0,0,1-4.205,3.119,15.273,15.273,0,0,1-4.929,1.544s.434,7.606-5.267,12.339A38.587,38.587,0,0,1,770.754,1398.035Z" transform="translate(-770.754 -1369.832)" fill="#b96442"/>
      <path id="Trazado_141487" data-name="Trazado 141487" d="M942.271,1370.626a.578.578,0,0,0,.28.606c1.11.814,3.513-.139,2.832-1.1a2.338,2.338,0,0,0-.321-.176C944.389,1369.658,943.661,1369.947,942.271,1370.626Z" transform="translate(-918.744 -1369.838)" fill="#d49073"/>
    </g>
    <g id="Grupo_82578" data-name="Grupo 82578" transform="translate(437.493 4705.867)">
      <g id="Grupo_82577" data-name="Grupo 82577" transform="translate(0 0)" clip-path="url(#clip-path)">
        <path id="Trazado_141488" data-name="Trazado 141488" d="M904.575,1452.735c-.228-1.208-1.17-1.858-2.821-1.855,2.808-1.158,4.783-2.386,4.4-4.4a2.366,2.366,0,0,0-2.308-1.941c2.732-1.144,4.757-2.411,4.417-4.327-.253-1.424-1.4-2.067-3.276-2,2.284-1.172,2.918-2.182,2.538-3.924-.592-2.717-3.333-2.827-9-.24-5.6,2.556-8.835,5.16-8.372,7.042.273,1.11,1.43,1.578,3.632,1.244q-3.042,1.94-2.694,3.64c.213,1.038,1.032,1.644,2.83,1.564-2.871,1.573-3.741,2.946-3.456,4.342.244,1.188.9,1.906,3.016,1.648-2.989,1.558-3.892,2.9-3.612,4.269.358,1.748,1.665,2.412,7.723.157C901.592,1456.465,905.052,1455.256,904.575,1452.735Z" transform="translate(-889.819 -1432.177)" fill="#b96442"/>
        <g id="Grupo_82574" data-name="Grupo 82574" transform="translate(-0.123 7.283)">
          <path id="Trazado_141489" data-name="Trazado 141489" d="M892.121,1608.644c.767,1.86-2.317,2.789-3.083,1.169C888.3,1608.252,891.367,1606.819,892.121,1608.644Z" transform="translate(-888.924 -1590.995)" fill="#d49073"/>
          <path id="Trazado_141490" data-name="Trazado 141490" d="M897.483,1566.277c.768,1.86-2.317,2.789-3.083,1.169C893.662,1565.885,896.729,1564.452,897.483,1566.277Z" transform="translate(-893.551 -1554.437)" fill="#d49073"/>
          <path id="Trazado_141491" data-name="Trazado 141491" d="M902.206,1523.039c.767,1.86-2.317,2.789-3.083,1.169C898.385,1522.647,901.453,1521.214,902.206,1523.039Z" transform="translate(-897.627 -1517.128)" fill="#d49073"/>
          <path id="Trazado_141492" data-name="Trazado 141492" d="M895.613,1486.156c.767,1.86-2.317,2.789-3.083,1.169C891.793,1485.764,894.86,1484.331,895.613,1486.156Z" transform="translate(-891.938 -1485.301)" fill="#d49073"/>
        </g>
        <g id="Grupo_82575" data-name="Grupo 82575" transform="translate(0.785 4.996)">
          <path id="Trazado_141493" data-name="Trazado 141493" d="M899.641,1475.269l-.161-.881a85.959,85.959,0,0,0,16.166-5.771l.409.8C912.443,1471.267,903.5,1474.563,899.641,1475.269Z" transform="translate(-898.941 -1468.617)" fill="#9f503d"/>
          <path id="Trazado_141494" data-name="Trazado 141494" d="M900.071,1521.543l-.118-.888a67.656,67.656,0,0,0,14.68-4.342l.37.815A68.82,68.82,0,0,1,900.071,1521.543Z" transform="translate(-899.348 -1509.774)" fill="#9f503d"/>
          <path id="Trazado_141495" data-name="Trazado 141495" d="M895.667,1562.713l-.119-.888a61.231,61.231,0,0,0,14.929-4.832l.406.8A61.273,61.273,0,0,1,895.667,1562.713Z" transform="translate(-895.548 -1544.877)" fill="#9f503d"/>
        </g>
        <g id="Grupo_82576" data-name="Grupo 82576" transform="translate(5.489 5.706)">
          <rect id="Rectángulo_31010" data-name="Rectángulo 31010" width="0.298" height="1.874" transform="translate(0.175 0.309) rotate(-21.801)" fill="#9f503d"/>
          <path id="Trazado_141496" data-name="Trazado 141496" d="M942.043,1475.039a2.616,2.616,0,0,0-.452-1.066l.242-.175a2.91,2.91,0,0,1,.5,1.188Z" transform="translate(-939.982 -1473.798)" fill="#9f503d"/>
          <path id="Trazado_141497" data-name="Trazado 141497" d="M939.45,1516.836a5.039,5.039,0,0,1-.782-1.776l.291-.065a4.752,4.752,0,0,0,.736,1.671Z" transform="translate(-937.46 -1509.346)" fill="#9f503d"/>
          <rect id="Rectángulo_31011" data-name="Rectángulo 31011" width="0.298" height="1.279" transform="translate(2.342 5.88) rotate(-11.411)" fill="#9f503d"/>
          <path id="Trazado_141498" data-name="Trazado 141498" d="M935.518,1558.9c-.084-.509-.152-1.028-.2-1.541l.3-.028c.048.506.115,1.018.2,1.52Z" transform="translate(-934.569 -1545.879)" fill="#9f503d"/>
          <path id="Trazado_141499" data-name="Trazado 141499" d="M941.168,1559.935a4.791,4.791,0,0,1-.094-.826l.3-.008a4.5,4.5,0,0,0,.088.774Z" transform="translate(-939.536 -1547.406)" fill="#9f503d"/>
          <path id="Trazado_141500" data-name="Trazado 141500" d="M930.173,1602.334a7.218,7.218,0,0,0-.316-1.125l.28-.1a7.5,7.5,0,0,1,.329,1.172Z" transform="translate(-929.857 -1583.651)" fill="#9f503d"/>
          <path id="Trazado_141501" data-name="Trazado 141501" d="M935.66,1600.878a11.129,11.129,0,0,1-.345-1.064l.288-.078a10.8,10.8,0,0,0,.336,1.036Z" transform="translate(-934.567 -1582.469)" fill="#9f503d"/>
        </g>
      </g>
    </g>
    <path id="Trazado_141503" data-name="Trazado 141503" d="M851.553,1447.454a.448.448,0,0,1-.195-.8c5.684-4.134,5.529-12.238,5.527-12.319a.448.448,0,0,1,.9-.024c.01.351.166,8.66-5.9,13.068A.445.445,0,0,1,851.553,1447.454Z" transform="translate(-418.979 3272.229)" fill="#9f503d"/>
    <path id="Trazado_141504" data-name="Trazado 141504" d="M659.644,543.4l-88.672-4.132a3.921,3.921,0,0,1-3.722-4.113l4.412-87.764a3.921,3.921,0,0,1,4.122-3.719l87.487,4.474a3.921,3.921,0,0,1,3.712,4.06l-3.228,87.422A3.921,3.921,0,0,1,659.644,543.4Z" transform="translate(-173.978 4126.668)" fill="#fbece5"/>
    <path id="Trazado_141505" data-name="Trazado 141505" d="M691.691,582.252q-.147,0-.294-.008l-74.987-3.47a5.187,5.187,0,0,1-4.884-5.425l3.844-71.939a5.171,5.171,0,0,1,5.458-4.9l74.8,2.709h.015a5.141,5.141,0,0,1,4.859,5.349v.017l-3.65,72.689a5.172,5.172,0,0,1-5.16,4.975ZM620.531,499a2.67,2.67,0,0,0-2.663,2.535l-3.844,71.939a2.676,2.676,0,0,0,2.516,2.8l74.992,3.47a2.671,2.671,0,0,0,2.82-2.569v-.017L698,504.473a2.654,2.654,0,0,0-2.5-2.753l-74.8-2.709h-.015Q620.612,499,620.531,499Z" transform="translate(-212.182 4081.08)" fill="#978cb7"/>
    <path id="Trazado_141506" data-name="Trazado 141506" d="M682.341,1707.571c-.107.269-2.164,4.206-2.271,4.475a.924.924,0,0,0-.1.48c.043.263.3.411.52.549,1.987,1.251,3.316,2.1,5.166,3.209,1.725,1.033,3.967,2.328,5.917,3.363,1.22.647,2.652,1.451,4.03,2.1.608.286,1.3.617,1.937.9.721.323,1.1.119,1.241-.072.406-.57,3.335-6.051,3.018-6.671a1.775,1.775,0,0,0-.581-.59c-1.272-.922-13.129-6.985-16.1-8.6-.463-.251-1.083-.672-1.623-.531C682.736,1706.387,682.416,1707.384,682.341,1707.571Z" transform="translate(-271.244 3037.27)" fill="#f9ded2"/>
    <path id="Trazado_141507" data-name="Trazado 141507" d="M543.418,1781.011s11.479-22.952,12.546-25.118c2.072-4.21,3.687-7.95,3.687-7.95s.709-1.509,1.608-1.715a2.693,2.693,0,0,1,1.909.461c2.371,1.252,6.958,3.568,8.735,4.578,2.67,1.518,6.885,3.306,9.591,4.791a1.783,1.783,0,0,1,.965,1.284,14.673,14.673,0,0,1-1.127,3.524s-1.177,2.694-2.4,6.179c-.852,2.422-2.829,7.786-3.67,10.013-1.707,4.524-2.947,8.422-2.947,8.422Z" transform="translate(-153.418 3002.732)" fill="#c3b5ec"/>
    <path id="Trazado_141508" data-name="Trazado 141508" d="M814.918,1785.99a1.571,1.571,0,0,1-.626.771.713.713,0,0,1-.631-.081.694.694,0,0,1-.437-.512,1.446,1.446,0,0,1,.19-.734,1.648,1.648,0,0,1,.385-.578.627.627,0,0,1,.681-.092A.854.854,0,0,1,814.918,1785.99Z" transform="translate(-386.227 2969.496)" fill="#d8b69b"/>
    <g id="Grupo_82579" data-name="Grupo 82579" transform="translate(419.473 4595.973)">
      <path id="Trazado_141509" data-name="Trazado 141509" d="M768.027,751.07s-3.314-.22-5.234-.273c-2.9-.08-3.531,1.911-3.693,5.516s-.7,13.062-.717,16-.147,5.394,3.64,5.534c1.888.07,4.115.248,5.017.272,1.886.049,4.268-.325,4.494-4.466.258-4.73.7-14.708.826-18.547C772.479,751.451,770.391,751.218,768.027,751.07Z" transform="translate(-758.38 -734.321)" fill="#978cb7"/>
      <path id="Trazado_141510" data-name="Trazado 141510" d="M873.158,674.237s7.745.91,16.072,1.455c8.258.54,11.715.31,12.4-2.153.7-2.505-2.494-3.638-2.494-3.638s3.292-.347,3.6-3.345a2.51,2.51,0,0,0-1.791-2.98s3.18-.932,3.208-3.581a3.155,3.155,0,0,0-2.67-3.393,3.854,3.854,0,0,0,3.035-4c-.215-3.161-3.373-3.576-7.208-3.635s-8.2-.427-8.2-.427,3.523-6.1,3.7-10.046-.773-7.936-3.937-7.852-2.84,2.92-3.422,5.829-1.867,3.867-4.911,6.326-5.665,5.131-6.246,8.411C873.661,654.812,873.158,674.237,873.158,674.237Z" transform="translate(-857.422 -630.639)" fill="#978cb7"/>
    </g>
    <g id="_2" data-name="2" transform="translate(501.321 4579.652)">
      <g id="Grupo_82588" data-name="Grupo 82588">
        <g id="Grupo_82583" data-name="Grupo 82583">
          <g id="Grupo_82580" data-name="Grupo 82580" transform="translate(49.364 68.808)">
            <path id="Trazado_141511" data-name="Trazado 141511" d="M1727.833,1177.745l2.829-.253a3.916,3.916,0,0,0,3.552-4.25l-8.193-91.5a3.916,3.916,0,0,0-4.923-3.432l-2.784.752a3.917,3.917,0,0,0-2.879,4.13l8.149,91A3.917,3.917,0,0,0,1727.833,1177.745Z" transform="translate(-1715.418 -1078.169)" fill="#c07354"/>
          </g>
          <g id="Grupo_82582" data-name="Grupo 82582">
            <path id="Trazado_141512" data-name="Trazado 141512" d="M1457.377,648.5c-6.757,14.72-37.442,32.284-65.928,26.084-28.5-6.2-33.867-30.573-35.041-34.441-2.735-9.014-.117-30.883,8.2-43.531s28.113-21.418,47.531-20.206C1448.5,578.682,1473.788,612.753,1457.377,648.5Z" transform="translate(-1355.366 -576.299)" fill="#fbece5"/>
            <g id="Grupo_82581" data-name="Grupo 82581" clip-path="url(#clip-path-2)">
              <path id="Trazado_141513" data-name="Trazado 141513" d="M1435.969,694.03a51.9,51.9,0,0,1-11.036-1.157c-10.422-2.268-18.68-7.462-24.546-15.437a46.368,46.368,0,0,1-7.16-15.19c-.076-.269-.139-.493-.192-.668-1.277-4.211-1.306-11.163-.076-18.6,1.362-8.232,4.016-15.663,7.474-20.922,7.725-11.75,25.863-19.5,43.128-18.418,16.751,1.046,31.538,9.675,39.558,23.082a42.556,42.556,0,0,1,6.052,19.867,47.817,47.817,0,0,1-4.571,22.532c-3.175,6.917-11.817,14.226-22.553,19.076A63.774,63.774,0,0,1,1435.969,694.03Zm4.373-87.989a54.008,54.008,0,0,0-21.047,4.33c-7.362,3.168-13.319,7.807-16.773,13.06-7.322,11.137-9.32,30.082-7.094,37.42.057.188.125.428.206.716a43.34,43.34,0,0,0,6.767,14.386c5.495,7.471,13.254,12.341,23.063,14.475a49.439,49.439,0,0,0,10.51,1.1,61.242,61.242,0,0,0,25.043-5.612c10.21-4.613,18.375-11.449,21.309-17.841h0a45.338,45.338,0,0,0,4.346-21.361,40.078,40.078,0,0,0-5.7-18.711c-7.6-12.7-21.64-20.875-37.567-21.869C1442.392,606.072,1441.369,606.04,1440.342,606.04Z" transform="translate(-1387.026 -599.804)" fill="#ff7758"/>
              <path id="Trazado_141514" data-name="Trazado 141514" d="M1589.891,857.556s-10.687-6.083-18.3-13.238c-7.223-6.784-7.792-16.2-2.646-20.822s16-2.071,18.907,4.709c0,0,7.608-13.365,18.31-6.576,8.3,5.267,3.44,15.69-1.579,21.634C1599.963,848.731,1589.891,857.556,1589.891,857.556Z" transform="translate(-1536.73 -786.334)" fill="#ff7758"/>
            </g>
          </g>
        </g>
        <path id="Trazado_141516" data-name="Trazado 141516" d="M1727.472,1436.614a13.16,13.16,0,0,0-.521-1.638c-1.041-2.546-3.27-4.558-6.372-7.428a30.619,30.619,0,0,0-9.119-5.317l.7,7.864c-5.2-.48-12.213-1.123-12.755-1.154-3.691-.213-5.368.868-5.389,3.275-.018,2.128.969,3.153,3.923,3.964-2.208.379-3.453,1.413-3.338,3.135a3.87,3.87,0,0,0,3.528,3.634,2.877,2.877,0,0,0-2.222,2.831c-.032,1.748,1.492,3.375,4.459,3.786-1.929.4-2.87,1.389-2.842,2.856.059,3.061,4.4,3.628,9.433,4.391a46.422,46.422,0,0,0,8.137.6l1.6-.018,21.424,85.731,22.081-3.551Z" transform="translate(-1647.59 -1306.251)" fill="#ffa57f"/>
        <g id="Grupo_82587" data-name="Grupo 82587" transform="translate(46.43 115.98)">
          <g id="Grupo_82585" data-name="Grupo 82585">
            <g id="Grupo_82584" data-name="Grupo 82584" clip-path="url(#clip-path-3)">
              <path id="Trazado_141517" data-name="Trazado 141517" d="M1717.011,1524.175a.293.293,0,0,1-.07,0l-10.08-.762a.3.3,0,0,1,.045-.6l10.08.762a.3.3,0,0,1,.025.592Z" transform="translate(-1704.862 -1509.029)" fill="#f18570"/>
              <path id="Trazado_141518" data-name="Trazado 141518" d="M1716.292,1573.745a.3.3,0,0,1-.07,0l-10.08-.762a.3.3,0,0,1,.045-.6l10.08.762a.3.3,0,0,1,.025.592Z" transform="translate(-1704.242 -1551.802)" fill="#f18570"/>
              <path id="Trazado_141519" data-name="Trazado 141519" d="M1720.526,1620.654a.293.293,0,0,1-.07,0l-10.08-.762a.3.3,0,0,1,.045-.6l10.08.762a.3.3,0,0,1,.026.592Z" transform="translate(-1707.895 -1592.28)" fill="#f18570"/>
              <path id="Trazado_141520" data-name="Trazado 141520" d="M1816.456,1678.859l-.043,0-10.107.165a.3.3,0,1,1-.01-.6l10.107-.165a.3.3,0,0,1,.053.593Z" transform="translate(-1790.649 -1643.163)" fill="#f18570"/>
              <path id="Trazado_141521" data-name="Trazado 141521" d="M1770.737,1470.642a.3.3,0,0,1-.075,0l-11.007-1.035a.3.3,0,1,1,.056-.594l11.007,1.035a.3.3,0,0,1,.02.592Z" transform="translate(-1750.422 -1462.6)" fill="#f18570"/>
            </g>
          </g>
          <g id="Grupo_82586" data-name="Grupo 82586" transform="translate(17.447 10.416)">
            <path id="Trazado_141523" data-name="Trazado 141523" d="M1821.573,1500.59l-.3.006a6.376,6.376,0,0,1,.421-2.393l.278.107A6.074,6.074,0,0,0,1821.573,1500.59Z" transform="translate(-1821.273 -1498.203)" fill="#f18570"/>
            <path id="Trazado_141524" data-name="Trazado 141524" d="M1822.245,1542.713a13.027,13.027,0,0,1-.249-2.368l.3,0a12.7,12.7,0,0,0,.244,2.313Z" transform="translate(-1821.897 -1534.564)" fill="#f18570"/>
            <path id="Trazado_141525" data-name="Trazado 141525" d="M1823.848,1587.747l-.3-.018a10.784,10.784,0,0,0-.1-2.217l.3-.044A11.093,11.093,0,0,1,1823.848,1587.747Z" transform="translate(-1823.153 -1573.504)" fill="#f18570"/>
            <rect id="Rectángulo_31012" data-name="Rectángulo 31012" width="0.298" height="1.694" transform="translate(0.872 18.597) rotate(-4.107)" fill="#f18570"/>
          </g>
        </g>
      </g>
      <g id="Grupo_82595" data-name="Grupo 82595" transform="translate(70.457 157.482)">
        <g id="Grupo_82594" data-name="Grupo 82594">
          <path id="Trazado_141526" data-name="Trazado 141526" d="M1912.939,1795.482l-28.568,4.595s-8.611-39.269-10.16-46.1c-1-4.419-2.916-12.324-4.143-17.36-.274-1.124-.481-2.117-.63-2.9a2.784,2.784,0,0,1-.083-1.554,1.633,1.633,0,0,1,.864-.667s4.9-1.579,9.6-3.184c3.629-1.239,6.6-2.513,7.76-3.03a3.882,3.882,0,0,1,1.47-.341,1.453,1.453,0,0,1,.6.075,4.73,4.73,0,0,1,.981,1.557c1.285,3.625,4.6,13.163,6.9,20.678,1.124,3.672,4.008,11.337,6.837,19.565C1907.881,1777.022,1912.939,1795.482,1912.939,1795.482Z" transform="translate(-1869.265 -1724.935)" fill="#ff7758"/>
          <g id="Grupo_82593" data-name="Grupo 82593" clip-path="url(#clip-path-4)">
            <g id="Grupo_82592" data-name="Grupo 82592" transform="translate(-0.516 2.696)">
              <g id="Grupo_82589" data-name="Grupo 82589">
                <path id="Trazado_141527" data-name="Trazado 141527" d="M1985.055,1798.007a1.61,1.61,0,0,0,.859-.742,2.072,2.072,0,0,0,.218-1.838,1.826,1.826,0,0,0-1.658-1.132c-.809.039-1.28.742-1.614,1.385A1.8,1.8,0,0,0,1985.055,1798.007Z" transform="translate(-1966.648 -1787.48)" fill="#ffcbbf"/>
                <path id="Trazado_141528" data-name="Trazado 141528" d="M1897.228,1956.633a1.609,1.609,0,0,0,.859-.742,2.072,2.072,0,0,0,.218-1.838,1.826,1.826,0,0,0-1.658-1.132c-.81.039-1.281.742-1.615,1.385A1.8,1.8,0,0,0,1897.228,1956.633Z" transform="translate(-1890.863 -1924.358)" fill="#ffcbbf"/>
                <path id="Trazado_141529" data-name="Trazado 141529" d="M1954.657,1918.577a1.607,1.607,0,0,0,.859-.742,2.071,2.071,0,0,0,.218-1.838,1.825,1.825,0,0,0-1.657-1.132c-.81.039-1.281.742-1.615,1.385A1.8,1.8,0,0,0,1954.657,1918.577Z" transform="translate(-1940.418 -1891.52)" fill="#ffcbbf"/>
                <path id="Trazado_141530" data-name="Trazado 141530" d="M2036.8,1813.217a1.607,1.607,0,0,0,.859-.742,2.072,2.072,0,0,0,.218-1.838,1.826,1.826,0,0,0-1.658-1.132c-.81.039-1.281.742-1.614,1.385A1.8,1.8,0,0,0,2036.8,1813.217Z" transform="translate(-2011.296 -1800.605)" fill="#ffcbbf"/>
                <path id="Trazado_141531" data-name="Trazado 141531" d="M1958.6,1857.25a1.618,1.618,0,0,1-.547.811,2.75,2.75,0,0,1-.929.607,1.308,1.308,0,0,1-1.081-.064,1.759,1.759,0,0,1-.6-.7,1.649,1.649,0,0,1-.253-1.3,1.469,1.469,0,0,1,.32-.5,1.833,1.833,0,0,1,2.01-.639A2.065,2.065,0,0,1,1958.6,1857.25Z" transform="translate(-1942.843 -1840.17)" fill="#ffcbbf"/>
                <path id="Trazado_141532" data-name="Trazado 141532" d="M1946.1,1774.914a1.617,1.617,0,0,1-.547.811,2.747,2.747,0,0,1-.929.607,1.307,1.307,0,0,1-1.081-.064,1.76,1.76,0,0,1-.6-.7,1.651,1.651,0,0,1-.253-1.3,1.473,1.473,0,0,1,.32-.5,1.834,1.834,0,0,1,2.01-.639A2.064,2.064,0,0,1,1946.1,1774.914Z" transform="translate(-1932.057 -1769.123)" fill="#ffcbbf"/>
                <path id="Trazado_141533" data-name="Trazado 141533" d="M2018.067,1746.494a1.617,1.617,0,0,1-.547.811,2.748,2.748,0,0,1-.929.607,1.307,1.307,0,0,1-1.081-.063,1.761,1.761,0,0,1-.6-.7,1.65,1.65,0,0,1-.252-1.3,1.47,1.47,0,0,1,.32-.5,1.834,1.834,0,0,1,2.01-.639A2.063,2.063,0,0,1,2018.067,1746.494Z" transform="translate(-1994.161 -1744.6)" fill="#ffcbbf"/>
                <path id="Trazado_141534" data-name="Trazado 141534" d="M1868.963,1792.635a1.617,1.617,0,0,1-.547.811,2.749,2.749,0,0,1-.929.607,1.308,1.308,0,0,1-1.081-.064,1.765,1.765,0,0,1-.6-.7,1.651,1.651,0,0,1-.252-1.3,1.465,1.465,0,0,1,.321-.5,1.833,1.833,0,0,1,2.01-.639A2.064,2.064,0,0,1,1868.963,1792.635Z" transform="translate(-1865.5 -1784.414)" fill="#ffcbbf"/>
                <path id="Trazado_141535" data-name="Trazado 141535" d="M2065.7,1914.768a1.619,1.619,0,0,1,.973.1,2.749,2.749,0,0,1,.975.53,1.305,1.305,0,0,1,.457.982,1.758,1.758,0,0,1-.33.858,1.651,1.651,0,0,1-1.024.839,1.473,1.473,0,0,1-.588-.047c-.679-.169-1.487-.69-1.516-1.467A2.065,2.065,0,0,1,2065.7,1914.768Z" transform="translate(-2037.341 -1891.402)" fill="#ffcbbf"/>
                <path id="Trazado_141536" data-name="Trazado 141536" d="M2011.823,1880.994a1.757,1.757,0,0,1-.594.881,2.985,2.985,0,0,1-1.009.659,1.42,1.42,0,0,1-1.174-.069,1.911,1.911,0,0,1-.65-.757,1.793,1.793,0,0,1-.274-1.411,1.6,1.6,0,0,1,.348-.538,1.991,1.991,0,0,1,2.183-.694A2.241,2.241,0,0,1,2011.823,1880.994Z" transform="translate(-1988.516 -1860.519)" fill="#ffcbbf"/>
                <path id="Trazado_141537" data-name="Trazado 141537" d="M1917.174,1828.319a2.607,2.607,0,0,1-.7.768,2.315,2.315,0,0,1-.854.524,2.351,2.351,0,0,1-1.114-.07,1.037,1.037,0,0,1-.387-.145.961.961,0,0,1-.27-.368,2.252,2.252,0,0,1-.282-1.506,1.658,1.658,0,0,1,.867-1.033,2.825,2.825,0,0,1,1.349-.273,1.421,1.421,0,0,1,1.387,2.1Z" transform="translate(-1906.943 -1815.025)" fill="#ffcbbf"/>
                <path id="Trazado_141538" data-name="Trazado 141538" d="M1894.216,1883.519a2.612,2.612,0,0,1-.143,1.027,2.315,2.315,0,0,1-.411.914,2.353,2.353,0,0,1-.96.569,1.041,1.041,0,0,1-.4.1.958.958,0,0,1-.431-.152,2.252,2.252,0,0,1-1.081-1.086,1.658,1.658,0,0,1,.135-1.342,2.829,2.829,0,0,1,.961-.985,1.756,1.756,0,0,1,.886-.334A1.776,1.776,0,0,1,1894.216,1883.519Z" transform="translate(-1887.246 -1863.357)" fill="#ffcbbf"/>
              </g>
              <g id="Grupo_82590" data-name="Grupo 82590" transform="translate(8.17 29.333)">
                <path id="Trazado_141539" data-name="Trazado 141539" d="M2024.143,1962.258a1.607,1.607,0,0,0,.859-.742,2.071,2.071,0,0,0,.218-1.838,1.826,1.826,0,0,0-1.658-1.132c-.809.039-1.281.742-1.614,1.385A1.8,1.8,0,0,0,2024.143,1962.258Z" transform="translate(-2008.548 -1958.545)" fill="#ffcbbf"/>
                <path id="Trazado_141540" data-name="Trazado 141540" d="M1946.688,2155.163a1.607,1.607,0,0,0,.859-.742,2.071,2.071,0,0,0,.218-1.838,1.827,1.827,0,0,0-1.658-1.132c-.809.039-1.28.742-1.614,1.385A1.8,1.8,0,0,0,1946.688,2155.163Z" transform="translate(-1941.712 -2125.002)" fill="#ffcbbf"/>
                <path id="Trazado_141541" data-name="Trazado 141541" d="M2093.245,2000.45a1.607,1.607,0,0,0,.859-.742,2.071,2.071,0,0,0,.218-1.838,1.826,1.826,0,0,0-1.657-1.132c-.81.039-1.281.742-1.614,1.385A1.8,1.8,0,0,0,2093.245,2000.45Z" transform="translate(-2068.175 -1991.501)" fill="#ffcbbf"/>
                <path id="Trazado_141542" data-name="Trazado 141542" d="M1994.959,2028.547a1.619,1.619,0,0,1-.547.811,2.751,2.751,0,0,1-.929.607,1.307,1.307,0,0,1-1.081-.064,1.761,1.761,0,0,1-.6-.7,1.65,1.65,0,0,1-.252-1.3,1.469,1.469,0,0,1,.32-.5,1.833,1.833,0,0,1,2.01-.639A2.064,2.064,0,0,1,1994.959,2028.547Z" transform="translate(-1982.392 -2017.315)" fill="#ffcbbf"/>
                <path id="Trazado_141543" data-name="Trazado 141543" d="M2047.482,2044.872a1.758,1.758,0,0,1-.594.88,2.985,2.985,0,0,1-1.009.659,1.421,1.421,0,0,1-1.174-.069,1.913,1.913,0,0,1-.65-.757,1.793,1.793,0,0,1-.274-1.411,1.6,1.6,0,0,1,.348-.538,1.991,1.991,0,0,1,2.183-.694A2.243,2.243,0,0,1,2047.482,2044.872Z" transform="translate(-2027.456 -2031.261)" fill="#ffcbbf"/>
                <path id="Trazado_141544" data-name="Trazado 141544" d="M1948.053,1980.144a2.608,2.608,0,0,1-.7.768,2.314,2.314,0,0,1-.854.524,2.351,2.351,0,0,1-1.114-.07,1.036,1.036,0,0,1-.387-.145.959.959,0,0,1-.27-.368,2.252,2.252,0,0,1-.282-1.506,1.658,1.658,0,0,1,.867-1.033,2.827,2.827,0,0,1,1.349-.273,1.756,1.756,0,0,1,.92.222A1.776,1.776,0,0,1,1948.053,1980.144Z" transform="translate(-1941.759 -1975.367)" fill="#ffcbbf"/>
                <path id="Trazado_141545" data-name="Trazado 141545" d="M1928.6,2058.707a2.611,2.611,0,0,1-.143,1.026,2.316,2.316,0,0,1-.411.914,2.35,2.35,0,0,1-.961.569,1.028,1.028,0,0,1-.4.1.959.959,0,0,1-.431-.152,2.252,2.252,0,0,1-1.081-1.086,1.658,1.658,0,0,1,.135-1.342,2.825,2.825,0,0,1,.961-.985,1.757,1.757,0,0,1,.886-.334A1.776,1.776,0,0,1,1928.6,2058.707Z" transform="translate(-1925.091 -2043.859)" fill="#ffcbbf"/>
              </g>
              <g id="Grupo_82591" data-name="Grupo 82591" transform="translate(16.412 46.818)">
                <path id="Trazado_141546" data-name="Trazado 141546" d="M2083.242,2089.8a1.606,1.606,0,0,0,.859-.742,2.073,2.073,0,0,0,.218-1.838,1.827,1.827,0,0,0-1.658-1.132c-.81.04-1.281.742-1.615,1.385A1.8,1.8,0,0,0,2083.242,2089.8Z" transform="translate(-2067.786 -2086.082)" fill="#ffcbbf"/>
                <path id="Trazado_141547" data-name="Trazado 141547" d="M2057.112,2226.216a1.608,1.608,0,0,0,.859-.742,2.071,2.071,0,0,0,.218-1.838,1.826,1.826,0,0,0-1.657-1.132c-.81.039-1.281.742-1.615,1.385A1.8,1.8,0,0,0,2057.112,2226.216Z" transform="translate(-2045.238 -2203.799)" fill="#ffcbbf"/>
                <path id="Trazado_141548" data-name="Trazado 141548" d="M2139.251,2120.857a1.607,1.607,0,0,0,.86-.742,2.071,2.071,0,0,0,.217-1.838,1.826,1.826,0,0,0-1.657-1.132c-.809.039-1.281.742-1.614,1.385A1.8,1.8,0,0,0,2139.251,2120.857Z" transform="translate(-2116.115 -2112.885)" fill="#ffcbbf"/>
                <path id="Trazado_141549" data-name="Trazado 141549" d="M1997.842,2258.141a1.606,1.606,0,0,0,.859-.742,2.071,2.071,0,0,0,.218-1.838,1.827,1.827,0,0,0-1.658-1.132c-.809.039-1.281.742-1.614,1.385A1.8,1.8,0,0,0,1997.842,2258.141Z" transform="translate(-1994.094 -2231.347)" fill="#ffcbbf"/>
                <path id="Trazado_141550" data-name="Trazado 141550" d="M2053.145,2155.014a1.615,1.615,0,0,1-.547.811,2.749,2.749,0,0,1-.929.607,1.307,1.307,0,0,1-1.081-.063,1.763,1.763,0,0,1-.6-.7,1.65,1.65,0,0,1-.253-1.3,1.469,1.469,0,0,1,.321-.5,1.833,1.833,0,0,1,2.01-.639A2.063,2.063,0,0,1,2053.145,2155.014Z" transform="translate(-2040.842 -2143.928)" fill="#ffcbbf"/>
                <path id="Trazado_141551" data-name="Trazado 141551" d="M2113.278,2182.42a1.756,1.756,0,0,1-.594.88,2.985,2.985,0,0,1-1.009.659,1.419,1.419,0,0,1-1.174-.069,1.906,1.906,0,0,1-.651-.757,1.792,1.792,0,0,1-.274-1.411,1.6,1.6,0,0,1,.348-.538,1.991,1.991,0,0,1,2.183-.694A2.242,2.242,0,0,1,2113.278,2182.42Z" transform="translate(-2092.474 -2167.436)" fill="#ffcbbf"/>
                <path id="Trazado_141552" data-name="Trazado 141552" d="M2003.734,2103.879a2.611,2.611,0,0,1-.7.768,2.306,2.306,0,0,1-.854.524,2.349,2.349,0,0,1-1.114-.07,1.036,1.036,0,0,1-.387-.145.961.961,0,0,1-.27-.368,2.251,2.251,0,0,1-.282-1.506,1.659,1.659,0,0,1,.867-1.033,2.833,2.833,0,0,1,1.349-.273,1.757,1.757,0,0,1,.92.222A1.776,1.776,0,0,1,2003.734,2103.879Z" transform="translate(-1998.048 -2099.623)" fill="#ffcbbf"/>
                <path id="Trazado_141553" data-name="Trazado 141553" d="M2169.481,2208.013a2.613,2.613,0,0,1-.7.768,2.312,2.312,0,0,1-.854.524,2.35,2.35,0,0,1-1.115-.07,1.045,1.045,0,0,1-.387-.145.959.959,0,0,1-.27-.368,2.256,2.256,0,0,1-.282-1.506,1.658,1.658,0,0,1,.867-1.033,2.83,2.83,0,0,1,1.349-.273,1.421,1.421,0,0,1,1.387,2.1Z" transform="translate(-2141.07 -2189.479)" fill="#ffcbbf"/>
                <path id="Trazado_141554" data-name="Trazado 141554" d="M1988.72,2197.168a2.613,2.613,0,0,1-.143,1.026,2.314,2.314,0,0,1-.411.914,2.347,2.347,0,0,1-.96.569,1.037,1.037,0,0,1-.4.1.96.96,0,0,1-.431-.152,2.253,2.253,0,0,1-1.081-1.086,1.658,1.658,0,0,1,.135-1.342,2.827,2.827,0,0,1,.961-.985,1.421,1.421,0,0,1,2.331.958Z" transform="translate(-1985.206 -2180.822)" fill="#ffcbbf"/>
              </g>
            </g>
          </g>
        </g>
      </g>
    </g>
    <g id="_3" data-name="3" transform="translate(613.633 4551.352)">
      <g id="Grupo_82603" data-name="Grupo 82603" transform="translate(0 0)">
        <path id="Trazado_141556" data-name="Trazado 141556" d="M2419.635,1393.943a28.331,28.331,0,0,0-10.625-1.893,79.292,79.292,0,0,1-8.384-.071l-9.906,14.347-3.2,13.713-22.832,56.468,23.464,1.759,16.891-56.13,7.666-15.406Z" transform="translate(-2338.62 -1242.975)" fill="#cb7f5c"/>
        <path id="Trazado_141557" data-name="Trazado 141557" d="M2600.824,1596.366a25.4,25.4,0,0,1-8.508-2.113.448.448,0,1,1,.392-.8,25.377,25.377,0,0,0,8.558,2.049.448.448,0,0,1-.039.895C2601.2,1596.389,2601.054,1596.383,2600.824,1596.366Z" transform="translate(-2534.821 -1416.783)" fill="#ab6a4a"/>
        <g id="Grupo_82596" data-name="Grupo 82596" transform="translate(63.238 103.389)">
          <path id="Trazado_141558" data-name="Trazado 141558" d="M2644.608,1158.992l-3.781.063a3.446,3.446,0,0,1-3.5-3.388l-1.536-92.889a3.445,3.445,0,0,1,3.988-3.46l3.793.6a3.445,3.445,0,0,1,2.9,3.345L2648,1155.49A3.445,3.445,0,0,1,2644.608,1158.992Z" transform="translate(-2635.787 -1059.274)" fill="#985d52"/>
        </g>
        <g id="Grupo_82597" data-name="Grupo 82597" transform="translate(49.887 142.698)">
          <path id="Trazado_141559" data-name="Trazado 141559" d="M2538.408,1376.126a60.718,60.718,0,0,1,2.586-11.114c.932-2.578,1.667-6.355,2.278-7.943.912-2.372,2.5-3.768,7.529-5.767a51.079,51.079,0,0,0,8.577-4.158c1.559-.929,2.31-1.348,3.06-1.084,1.459.513,1.813,2.6.351,4.434a14.868,14.868,0,0,1-3.948,3.439,15.27,15.27,0,0,1-4.792,1.926s1.03,7.549-4.282,12.715A38.581,38.581,0,0,1,2538.408,1376.126Z" transform="translate(-2538.408 -1345.983)" fill="#cb7f5c"/>
          <path id="Trazado_141560" data-name="Trazado 141560" d="M2693.741,1346.953a.578.578,0,0,0,.326.582c1.17.724,3.491-.415,2.737-1.32a2.355,2.355,0,0,0-.334-.15C2695.778,1345.82,2695.074,1346.166,2693.741,1346.953Z" transform="translate(-2672.44 -1345.986)" fill="#daa687"/>
        </g>
        <g id="Grupo_82602" data-name="Grupo 82602" transform="translate(65.57 150.775)">
          <g id="Grupo_82601" data-name="Grupo 82601" clip-path="url(#clip-path-5)">
            <path id="Trazado_141561" data-name="Trazado 141561" d="M2668.169,1425.419c-.323-1.187-1.313-1.76-2.958-1.628,2.709-1.375,4.581-2.755,4.043-4.733a2.366,2.366,0,0,0-2.454-1.754c2.634-1.355,4.553-2.777,4.063-4.661-.364-1.4-1.558-1.951-3.422-1.736,2.185-1.347,2.738-2.4,2.222-4.111-.8-2.662-3.545-2.557-8.995.467-5.385,2.988-8.4,5.837-7.793,7.677.359,1.086,1.55,1.461,3.719.956q-2.881,2.173-2.4,3.84c.293,1.018,1.158,1.558,2.944,1.337-2.738,1.793-3.5,3.231-3.1,4.6.336,1.166,1.047,1.829,3.136,1.406-2.858,1.788-3.652,3.2-3.266,4.539.494,1.715,1.849,2.274,7.712-.45C2665.488,1429.372,2668.842,1427.895,2668.169,1425.419Z" transform="translate(-2652.797 -1404.894)" fill="#cb7f5c"/>
            <g id="Grupo_82598" data-name="Grupo 82598" transform="translate(0.092 8.268)">
              <path id="Trazado_141562" data-name="Trazado 141562" d="M2662.737,1588.34c.911,1.794-2.091,2.963-2.981,1.407C2658.9,1588.249,2661.843,1586.58,2662.737,1588.34Z" transform="translate(-2658.76 -1570.805)" fill="#daa687"/>
              <path id="Trazado_141563" data-name="Trazado 141563" d="M2664.756,1545.684c.911,1.794-2.091,2.962-2.981,1.407C2660.917,1545.593,2663.862,1543.923,2664.756,1545.684Z" transform="translate(-2660.501 -1533.997)" fill="#daa687"/>
              <path id="Trazado_141564" data-name="Trazado 141564" d="M2666.07,1502.209c.911,1.794-2.091,2.963-2.982,1.407C2662.23,1502.118,2665.176,1500.448,2666.07,1502.209Z" transform="translate(-2661.635 -1496.483)" fill="#daa687"/>
              <path id="Trazado_141565" data-name="Trazado 141565" d="M2656.6,1465.957c.911,1.794-2.091,2.963-2.981,1.407C2652.762,1465.865,2655.707,1464.2,2656.6,1465.957Z" transform="translate(-2653.465 -1465.201)" fill="#daa687"/>
            </g>
            <g id="Grupo_82599" data-name="Grupo 82599" transform="translate(1.213 4.797)">
              <path id="Trazado_141566" data-name="Trazado 141566" d="M2661.875,1447.768l-.23-.865a86.009,86.009,0,0,0,15.664-7.022l.47.762C2674.323,1442.774,2665.665,1446.762,2661.875,1447.768Z" transform="translate(-2661.645 -1439.881)" fill="#ab6a4a"/>
              <path id="Trazado_141567" data-name="Trazado 141567" d="M2665.231,1494.6l-.188-.875a67.648,67.648,0,0,0,14.293-5.481l.433.784A68.822,68.822,0,0,1,2665.231,1494.6Z" transform="translate(-2664.577 -1481.613)" fill="#ab6a4a"/>
              <path id="Trazado_141568" data-name="Trazado 141568" d="M2664.315,1535.867l-.188-.875a61.248,61.248,0,0,0,14.5-5.989l.467.763A61.257,61.257,0,0,1,2664.315,1535.867Z" transform="translate(-2663.787 -1516.784)" fill="#ab6a4a"/>
            </g>
            <g id="Grupo_82600" data-name="Grupo 82600" transform="translate(5.167 6.302)">
              <rect id="Rectángulo_31013" data-name="Rectángulo 31013" width="0.298" height="1.874" transform="translate(0 0.44) rotate(-26.305)" fill="#ab6a4a"/>
              <path id="Trazado_141569" data-name="Trazado 141569" d="M2701.364,1452.08a2.62,2.62,0,0,0-.535-1.027l.228-.193a2.909,2.909,0,0,1,.6,1.145Z" transform="translate(-2699.411 -1450.859)" fill="#ab6a4a"/>
              <path id="Trazado_141570" data-name="Trazado 141570" d="M2702.005,1493.927a5.043,5.043,0,0,1-.919-1.71l.285-.088a4.752,4.752,0,0,0,.865,1.608Z" transform="translate(-2699.632 -1486.471)" fill="#ab6a4a"/>
              <rect id="Rectángulo_31014" data-name="Rectángulo 31014" width="0.298" height="1.279" transform="matrix(0.962, -0.274, 0.274, 0.962, 2.597, 5.823)" fill="#ab6a4a"/>
              <path id="Trazado_141571" data-name="Trazado 141571" d="M2701.371,1536.167c-.124-.5-.232-1.012-.321-1.52l.294-.052c.088.5.194,1.006.317,1.5Z" transform="translate(-2699.601 -1523.115)" fill="#ab6a4a"/>
              <path id="Trazado_141572" data-name="Trazado 141572" d="M2707.074,1536.755a4.8,4.8,0,0,1-.158-.816l.3-.031a4.45,4.45,0,0,0,.148.765Z" transform="translate(-2704.663 -1524.248)" fill="#ab6a4a"/>
              <path id="Trazado_141573" data-name="Trazado 141573" d="M2699.489,1579.9a7.249,7.249,0,0,0-.4-1.1l.271-.126a7.5,7.5,0,0,1,.42,1.142Z" transform="translate(-2697.906 -1561.15)" fill="#ab6a4a"/>
              <path id="Trazado_141574" data-name="Trazado 141574" d="M2704.832,1578.009c-.159-.336-.3-.684-.427-1.034l.282-.1a10.753,10.753,0,0,0,.416,1.006Z" transform="translate(-2702.496 -1559.598)" fill="#ab6a4a"/>
            </g>
          </g>
        </g>
        <path id="Trazado_141576" data-name="Trazado 141576" d="M2615.385,1428.752a.448.448,0,0,1-.257-.787c5.342-4.567,4.551-12.634,4.543-12.715a.448.448,0,1,1,.89-.094c.038.349.846,8.62-4.851,13.49A.447.447,0,0,1,2615.385,1428.752Z" transform="translate(-2554.588 -1262.628)" fill="#ab6a4a"/>
        <path id="Trazado_141577" data-name="Trazado 141577" d="M2240.522,436.549l-64.747-60.726a3.921,3.921,0,0,1-.159-5.545l60.35-63.874a3.921,3.921,0,0,1,5.549-.151l63.624,60.216a3.921,3.921,0,0,1,.187,5.5L2246.1,436.351A3.921,3.921,0,0,1,2240.522,436.549Z" transform="translate(-2174.546 -305.176)" fill="#fbece5"/>
        <path id="Trazado_141578" data-name="Trazado 141578" d="M2300.745,489.039a5.13,5.13,0,0,1-3.567-1.431l-54.769-51.335a5.187,5.187,0,0,1-.191-7.3l49.641-52.209a5.171,5.171,0,0,1,7.331-.18l55.122,50.636.01.01a5.2,5.2,0,0,1,.221,7.223l-.012.013-49.979,52.9a5.132,5.132,0,0,1-3.637,1.664Zm-5.129-111.388h-.064a2.651,2.651,0,0,0-1.878.835L2244.034,430.7a2.676,2.676,0,0,0,.1,3.761L2298.9,485.8a2.67,2.67,0,0,0,3.813-.122l.012-.013,49.979-52.9a2.686,2.686,0,0,0-.11-3.715l-55.119-50.634-.01-.01A2.652,2.652,0,0,0,2295.616,377.651Z" transform="translate(-2231.726 -365.556)" fill="#c6563d"/>
      </g>
      <g id="Grupo_82604" data-name="Grupo 82604" transform="translate(41.437 50.106)">
        <path id="Trazado_141579" data-name="Trazado 141579" d="M2486.427,708.6s-3.314.22-5.234.273c-2.9.08-3.531-1.911-3.693-5.516s-.7-13.062-.717-16-.147-5.394,3.64-5.534c1.888-.07,4.116-.248,5.017-.272,1.886-.049,4.268.325,4.494,4.466.258,4.73.7,14.708.826,18.547C2490.878,708.216,2488.79,708.45,2486.427,708.6Z" transform="translate(-2476.779 -680.053)" fill="#c6563d"/>
        <path id="Trazado_141580" data-name="Trazado 141580" d="M2591.557,672.336s7.745-.91,16.072-1.455c8.258-.54,11.715-.31,12.4,2.153.7,2.505-2.494,3.638-2.494,3.638s3.292.347,3.6,3.346a2.51,2.51,0,0,1-1.791,2.98s3.18.932,3.208,3.581a3.155,3.155,0,0,1-2.67,3.393,3.854,3.854,0,0,1,3.035,4c-.215,3.16-3.373,3.576-7.208,3.635s-8.2.427-8.2.427,3.524,6.1,3.7,10.046-.773,7.936-3.937,7.852-2.84-2.92-3.422-5.829-1.866-3.867-4.911-6.326-5.666-5.131-6.246-8.411C2592.06,691.761,2591.557,672.336,2591.557,672.336Z" transform="translate(-2575.821 -670.64)" fill="#c6563d"/>
      </g>
      <g id="Grupo_82609" data-name="Grupo 82609" transform="translate(19.253 186.824)">
        <g id="Grupo_82606" data-name="Grupo 82606" transform="translate(0 7.126)">
          <path id="Trazado_141581" data-name="Trazado 141581" d="M2356.583,1726.883l-18.9-6.933a2.423,2.423,0,0,0-1.382-.062c-.431.177-.552.8-.774,1.277-2.349,5.08-9.271,20.153-12.142,27.5-1.385,3.54-2.665,7.059-4.483,11.126-2.006,4.486-3.92,7.847-3.92,7.847l27.985,16.08s1.086-5.423,3.066-12.576c1.6-5.791,3.694-12.5,4.907-17.475,2.008-8.231,5.429-20.7,6.583-24.873a2.036,2.036,0,0,0-.108-1.213A1.5,1.5,0,0,0,2356.583,1726.883Z" transform="translate(-2314.976 -1719.802)" fill="#db993e"/>
          <g id="Grupo_82605" data-name="Grupo 82605" clip-path="url(#clip-path-6)">
            <path id="Trazado_141582" data-name="Trazado 141582" d="M2452.579,1769.476a.646.646,0,0,1-.2-.032c-.185-.059-18.514-5.964-26.542-9.527a.651.651,0,0,1,.529-1.191c7.964,3.535,26.229,9.419,26.412,9.478a.651.651,0,0,1-.2,1.272Z" transform="translate(-2410.304 -1753.342)" fill="#ffd39b" opacity="0.65"/>
          </g>
        </g>
        <g id="Grupo_82608" data-name="Grupo 82608" transform="translate(23.489)">
          <path id="Trazado_141584" data-name="Trazado 141584" d="M2498.265,1671.361c-3.205-.971-6.524-1.71-9.46-3.321-.274-.15-.616-.307-.877-.136a.851.851,0,0,0-.273.393,18.388,18.388,0,0,0-1.34,4.073.913.913,0,0,0,.647.352,111.822,111.822,0,0,1,17.511,5.746,1.316,1.316,0,0,0,.663.177c.219-.047.342-.309.418-.51.36-.957.907-2.626.929-2.816.122-1.036-.23-.909-1.149-1.362A46.749,46.749,0,0,0,2498.265,1671.361Z" transform="translate(-2486.301 -1667.829)" fill="#f5ccbf"/>
          <g id="Grupo_82607" data-name="Grupo 82607" transform="translate(4.987 1.337)">
            <path id="Trazado_141585" data-name="Trazado 141585" d="M2527.783,1683.835s-.961-.343-1.029-.356a6.116,6.116,0,0,1-1.071-.359l-2.4-.971q.621-1.689,1.318-3.348a.518.518,0,0,1,.17-.25.636.636,0,0,1,.514,0c.51.153,1.792.45,2.669.734.331.107,1.171.332,1.171.332a.616.616,0,0,0-.031-.34c-.2-.417-.905-.543-1.072-.615q-1.2-.517-2.431-.947c-.369-.129-.83-.235-1.085.019a.884.884,0,0,0-.176.312l-1.094,2.752a10.047,10.047,0,0,0-.539,1.617.574.574,0,0,0,.073.519.7.7,0,0,0,.261.155,33.175,33.175,0,0,0,3.961,1.343.709.709,0,0,0,.428.025.588.588,0,0,0,.29-.411Z" transform="translate(-2522.674 -1677.583)" fill="#caa899"/>
            <path id="Trazado_141586" data-name="Trazado 141586" d="M2532.8,1696.051l-.069.34a.136.136,0,0,1-.047.093.127.127,0,0,1-.08.012,2.509,2.509,0,0,1-.858-.288,4.426,4.426,0,0,0-.875-.31c0-.135-.011-.4.162-.413s.385.125.536.172A8.758,8.758,0,0,1,2532.8,1696.051Z" transform="translate(-2529.748 -1693.029)" fill="#caa899"/>
          </g>
        </g>
      </g>
    </g>
    <g id="_4" data-name="4" transform="translate(739.383 4585.662)">
      <g id="Grupo_82618" data-name="Grupo 82618" transform="translate(0 0)">
        <path id="Trazado_141587" data-name="Trazado 141587" d="M3397.5,1597.79s7.071-1.616,12.727-.618a79.259,79.259,0,0,0,8.307,1.143l7.725,15.629,1.18,14.031,20.222,82.671-25.434,3.958-9.96-75.245.321-13.9-8.145-14.3Z" transform="translate(-3355.576 -1472.007)" fill="#ff9b84"/>
        <path id="Trazado_141588" data-name="Trazado 141588" d="M3486.645,1813.18c-1.331,0-2.237-.089-2.322-.1a.448.448,0,1,1,.09-.891,25.375,25.375,0,0,0,8.764-.789.448.448,0,1,1,.272.853A23.284,23.284,0,0,1,3486.645,1813.18Z" transform="translate(-3430.151 -1657.128)" fill="#ef7a6a"/>
        <g id="Grupo_82611" data-name="Grupo 82611">
          <g id="Grupo_82610" data-name="Grupo 82610" transform="translate(46.185 69.039)">
            <path id="Trazado_141589" data-name="Trazado 141589" d="M3432.464,1289.5l2.84.039a3.916,3.916,0,0,0,3.969-3.863l1.247-91.861a3.916,3.916,0,0,0-4.544-3.919l-2.847.463a3.916,3.916,0,0,0-3.288,3.813l-1.24,91.36A3.916,3.916,0,0,0,3432.464,1289.5Z" transform="translate(-3428.6 -1189.841)" fill="#c07354"/>
          </g>
          <path id="Trazado_141590" data-name="Trazado 141590" d="M3191.681,763.444c-8.233,13.948-40.559,28.268-68.259,19.176-27.717-9.1-30.548-33.89-31.318-37.857-1.795-9.247,3.055-30.731,12.626-42.458s30.163-18.418,49.355-15.218C3190.024,693.079,3211.677,729.567,3191.681,763.444Z" transform="translate(-3091.735 -686.288)" fill="#fbece5"/>
          <path id="Trazado_141591" data-name="Trazado 141591" d="M3175.12,803.873a53.9,53.9,0,0,1-16.8-2.587c-10.134-3.326-17.814-9.34-22.831-17.876a46.362,46.362,0,0,1-5.562-15.845c-.048-.275-.087-.5-.123-.684-.838-4.32-.152-11.238,1.834-18.507,2.2-8.049,5.6-15.167,9.583-20.044,8.891-10.895,27.729-16.737,44.792-13.891,16.555,2.76,30.378,12.862,36.978,27.022a42.554,42.554,0,0,1,3.979,20.384,47.813,47.813,0,0,1-6.86,21.944h0c-3.869,6.554-13.215,12.937-24.392,16.659A65.444,65.444,0,0,1,3175.12,803.873Zm2.08-87.651a54.006,54.006,0,0,0-16.014,2.419c-7.648,2.4-14.05,6.4-18.025,11.269-8.427,10.326-12.36,28.966-10.9,36.494.037.193.08.439.131.734a43.342,43.342,0,0,0,5.254,15.005c4.7,8,11.917,13.637,21.455,16.767,10.82,3.551,23.543,3.254,35.828-.836,10.629-3.54,19.454-9.5,23.029-15.558h0a45.34,45.34,0,0,0,6.517-20.8,40.078,40.078,0,0,0-3.749-19.2c-6.251-13.413-19.381-22.987-35.123-25.612A51.2,51.2,0,0,0,3177.2,716.222Z" transform="translate(-3124.285 -709.96)" fill="#978cb7"/>
        </g>
        <g id="Grupo_82612" data-name="Grupo 82612" transform="translate(50.472 118.397)">
          <path id="Trazado_141592" data-name="Trazado 141592" d="M3480.894,1583.1a60.7,60.7,0,0,0-.951-11.371c-.549-2.686-.73-6.53-1.1-8.189-.559-2.479-1.924-4.089-6.615-6.8a51.091,51.091,0,0,1-7.885-5.355c-1.408-1.145-2.091-1.668-2.871-1.516-1.518.3-2.171,2.311-.989,4.336a14.874,14.874,0,0,0,3.408,3.975,15.269,15.269,0,0,0,4.463,2.6s-2.111,7.32,2.4,13.2A38.582,38.582,0,0,0,3480.894,1583.1Z" transform="translate(-3459.87 -1549.846)" fill="#ff9b84"/>
          <path id="Trazado_141593" data-name="Trazado 141593" d="M3470.585,1551.148a.578.578,0,0,1-.407.528c-1.263.547-3.394-.916-2.517-1.7a2.313,2.313,0,0,1,.352-.1C3468.734,1549.733,3469.38,1550.177,3470.585,1551.148Z" transform="translate(-3466.415 -1549.848)" fill="#ffbda7"/>
        </g>
        <g id="Grupo_82617" data-name="Grupo 82617" transform="translate(38.392 125.745)">
          <g id="Grupo_82616" data-name="Grupo 82616" clip-path="url(#clip-path-7)">
            <path id="Trazado_141594" data-name="Trazado 141594" d="M3373.889,1623.89c.384-1.168,1.4-1.69,3.039-1.471-2.634-1.514-4.431-2.99-3.791-4.937a2.366,2.366,0,0,1,2.542-1.623c-2.56-1.49-4.4-3.011-3.815-4.866.436-1.378,1.657-1.867,3.508-1.555-2.112-1.459-2.608-2.544-2-4.221.941-2.616,3.674-2.368,8.958.936,5.222,3.264,8.087,6.267,7.383,8.073-.416,1.065-1.624,1.378-3.763.76q2.763,2.32,2.2,3.96c-.346,1-1.238,1.5-3.01,1.182,2.642,1.933,3.325,3.409,2.86,4.755-.4,1.147-1.141,1.772-3.205,1.241,2.76,1.934,3.481,3.385,3.025,4.7-.583,1.686-1.965,2.175-7.678-.851C3376.361,1627.977,3373.088,1626.327,3373.889,1623.89Z" transform="translate(-3371.755 -1603.441)" fill="#ff9b84"/>
            <g id="Grupo_82613" data-name="Grupo 82613" transform="translate(12.941 8.903)">
              <path id="Trazado_141595" data-name="Trazado 141595" d="M3466.349,1790.967c-1,1.744,1.934,3.067,2.9,1.561C3470.188,1791.076,3467.333,1789.255,3466.349,1790.967Z" transform="translate(-3466.143 -1773.561)" fill="#ffbda7"/>
              <path id="Trazado_141596" data-name="Trazado 141596" d="M3466.556,1748.262c-1,1.744,1.934,3.068,2.9,1.561C3470.395,1748.372,3467.541,1746.551,3466.556,1748.262Z" transform="translate(-3466.322 -1736.712)" fill="#ffbda7"/>
              <path id="Trazado_141597" data-name="Trazado 141597" d="M3467.509,1704.778c-1,1.744,1.934,3.067,2.9,1.561C3471.347,1704.888,3468.493,1703.067,3467.509,1704.778Z" transform="translate(-3467.144 -1699.19)" fill="#ffbda7"/>
              <path id="Trazado_141598" data-name="Trazado 141598" d="M3478.854,1669.069c-1,1.744,1.934,3.068,2.9,1.561C3482.693,1669.178,3479.839,1667.357,3478.854,1669.069Z" transform="translate(-3476.933 -1668.376)" fill="#ffbda7"/>
            </g>
            <g id="Grupo_82614" data-name="Grupo 82614" transform="translate(0.942 4.663)">
              <path id="Trazado_141599" data-name="Trazado 141599" d="M3394.139,1646.133c-3.732-1.2-12.17-5.636-15.51-7.945l.51-.737a85.976,85.976,0,0,0,15.276,7.829Z" transform="translate(-3378.629 -1637.452)" fill="#ef7a6a"/>
              <path id="Trazado_141600" data-name="Trazado 141600" d="M3397.186,1693.176a68.789,68.789,0,0,1-14.228-6.323l.473-.76a67.658,67.658,0,0,0,13.988,6.219Z" transform="translate(-3382.364 -1679.424)" fill="#ef7a6a"/>
              <path id="Trazado_141601" data-name="Trazado 141601" d="M3394.42,1734.366a61.286,61.286,0,0,1-14.445-6.863l.507-.738a61.247,61.247,0,0,0,14.171,6.737Z" transform="translate(-3379.791 -1714.52)" fill="#ef7a6a"/>
            </g>
            <g id="Grupo_82615" data-name="Grupo 82615" transform="translate(9.473 6.691)">
              <rect id="Rectángulo_31015" data-name="Rectángulo 31015" width="1.874" height="0.298" transform="matrix(0.489, -0.872, 0.872, 0.489, 2.394, 2.014)" fill="#ef7a6a"/>
              <path id="Trazado_141602" data-name="Trazado 141602" d="M3450.58,1653.444l-.285-.09a2.91,2.91,0,0,1,.655-1.113l.217.2A2.607,2.607,0,0,0,3450.58,1653.444Z" transform="translate(-3449 -1652.241)" fill="#ef7a6a"/>
              <path id="Trazado_141603" data-name="Trazado 141603" d="M3445.556,1695.181l-.22-.2a4.749,4.749,0,0,0,.947-1.561l.281.1A5.049,5.049,0,0,1,3445.556,1695.181Z" transform="translate(-3444.721 -1687.773)" fill="#ef7a6a"/>
              <rect id="Rectángulo_31016" data-name="Rectángulo 31016" width="1.279" height="0.298" transform="translate(0 6.879) rotate(-71.103)" fill="#ef7a6a"/>
              <path id="Trazado_141604" data-name="Trazado 141604" d="M3447.415,1737.4l-.286-.087c.148-.487.281-.985.394-1.481l.291.067C3447.7,1736.4,3447.564,1736.9,3447.415,1737.4Z" transform="translate(-3446.268 -1724.368)" fill="#ef7a6a"/>
              <path id="Trazado_141605" data-name="Trazado 141605" d="M3442.967,1737.683l-.282-.1a4.5,4.5,0,0,0,.188-.756l.295.047A4.811,4.811,0,0,1,3442.967,1737.683Z" transform="translate(-3442.434 -1725.232)" fill="#ef7a6a"/>
              <path id="Trazado_141606" data-name="Trazado 141606" d="M3446.625,1781.17l-.283-.095a7.53,7.53,0,0,1,.479-1.119l.264.14A7.182,7.182,0,0,0,3446.625,1781.17Z" transform="translate(-3445.589 -1762.446)" fill="#ef7a6a"/>
              <path id="Trazado_141607" data-name="Trazado 141607" d="M3441.4,1779l-.262-.142c.171-.319.328-.649.467-.983l.276.114A11.03,11.03,0,0,1,3441.4,1779Z" transform="translate(-3441.094 -1760.654)" fill="#ef7a6a"/>
            </g>
          </g>
        </g>
        <path id="Trazado_141609" data-name="Trazado 141609" d="M3518.768,1640.883a.447.447,0,0,1-.337-.153c-4.932-5.644-2.935-13.71-2.847-14.051a.447.447,0,0,1,.867.222c-.02.079-1.963,7.956,2.655,13.239a.447.447,0,0,1-.337.742Z" transform="translate(-3457.064 -1497.459)" fill="#ef7a6a"/>
      </g>
      <g id="Grupo_82622" data-name="Grupo 82622" transform="translate(54.285 161.493)">
        <path id="Trazado_141610" data-name="Trazado 141610" d="M3495.607,1932.786l31.012-4.825s-6.6-20.224-9.5-32.158-7.443-28.125-7.443-28.125-.828-2.867-1.569-3.265c-1.187-.639-3.2.234-3.2.234l-14.766,3.739a3.682,3.682,0,0,1-.976,1.814,7.81,7.81,0,0,1-1.5.983s1.283,10.06,3.843,29.536C3494.22,1921.257,3495.607,1932.786,3495.607,1932.786Z" transform="translate(-3487.678 -1864.179)" fill="#675d84"/>
        <g id="Grupo_82621" data-name="Grupo 82621">
          <g id="Grupo_82620" data-name="Grupo 82620" clip-path="url(#clip-path-8)">
            <g id="Grupo_82619" data-name="Grupo 82619" transform="translate(-10.903 -9.696)" opacity="0.55">
              <path id="Trazado_141611" data-name="Trazado 141611" d="M3480.132,1876.531a.715.715,0,0,1-.366-1.329c7.175-4.267,15.208-11.451,24.558-21.965a.715.715,0,1,1,1.068.95c-9.449,10.625-17.593,17.9-24.9,22.244A.711.711,0,0,1,3480.132,1876.531Z" transform="translate(-3469.646 -1844.835)" fill="#c4bbe0"/>
              <path id="Trazado_141612" data-name="Trazado 141612" d="M3441.851,1841.322a.715.715,0,0,1-.366-1.329c8.291-4.931,18.541-14.305,24.927-22.8a.715.715,0,0,1,1.142.859c-6.485,8.624-16.9,18.151-25.339,23.167A.71.71,0,0,1,3441.851,1841.322Z" transform="translate(-3436.615 -1813.695)" fill="#c4bbe0"/>
              <path id="Trazado_141613" data-name="Trazado 141613" d="M3408.871,1817.866a.715.715,0,0,1-.366-1.329c8.292-4.931,18.542-14.305,24.927-22.8a.715.715,0,0,1,1.142.859c-6.485,8.625-16.9,18.151-25.339,23.167A.712.712,0,0,1,3408.871,1817.866Z" transform="translate(-3408.156 -1793.455)" fill="#c4bbe0"/>
              <path id="Trazado_141614" data-name="Trazado 141614" d="M3476.74,1915.207a.715.715,0,0,1-.343-1.342,84.576,84.576,0,0,0,28-25.41.715.715,0,1,1,1.186.8,86.1,86.1,0,0,1-28.5,25.867A.712.712,0,0,1,3476.74,1915.207Z" transform="translate(-3466.719 -1875.158)" fill="#c4bbe0"/>
              <path id="Trazado_141615" data-name="Trazado 141615" d="M3493.938,1961.916a.715.715,0,0,1-.349-1.339c10.109-5.648,23.782-17.072,29.163-26.412a.715.715,0,1,1,1.239.713c-3.359,5.832-9.183,11.523-13.476,15.271a101.416,101.416,0,0,1-16.229,11.676A.713.713,0,0,1,3493.938,1961.916Z" transform="translate(-3481.559 -1914.565)" fill="#c4bbe0"/>
              <path id="Trazado_141616" data-name="Trazado 141616" d="M3509.717,2013.9a.715.715,0,0,1-.351-1.338c9.325-5.245,23.507-17.83,30.9-26.293a.715.715,0,0,1,1.076.941c-7.474,8.552-21.825,21.281-31.278,26.6A.712.712,0,0,1,3509.717,2013.9Z" transform="translate(-3495.176 -1959.625)" fill="#c4bbe0"/>
              <path id="Trazado_141617" data-name="Trazado 141617" d="M3509.532,2081.1a.715.715,0,0,1-.266-1.378c11.556-4.627,23.608-13.747,29.993-22.694a.715.715,0,0,1,1.163.83c-6.53,9.15-18.837,18.47-30.625,23.19A.716.716,0,0,1,3509.532,2081.1Z" transform="translate(-3495.016 -2020.631)" fill="#c4bbe0"/>
              <path id="Trazado_141618" data-name="Trazado 141618" d="M3520.34,2135.466a.715.715,0,0,1-.273-1.375c10.7-4.419,25.626-14.154,32.07-22.8a.714.714,0,0,1,1.146.854c-4.023,5.4-10.475,10.362-15.18,13.578a101.387,101.387,0,0,1-17.49,9.684A.713.713,0,0,1,3520.34,2135.466Z" transform="translate(-3504.343 -2067.47)" fill="#c4bbe0"/>
              <path id="Trazado_141619" data-name="Trazado 141619" d="M3530.064,2190.176a.715.715,0,0,1-.274-1.375c9.877-4.112,25.442-14.939,33.783-22.473a.715.715,0,0,1,.958,1.061c-8.428,7.613-24.179,18.563-34.192,22.731A.715.715,0,0,1,3530.064,2190.176Z" transform="translate(-3512.733 -2115.048)" fill="#c4bbe0"/>
              <path id="Trazado_141620" data-name="Trazado 141620" d="M3536.8,2236.793a.715.715,0,0,1-.237-1.389c10.926-3.837,26.35-12.756,33.248-21.04a.715.715,0,0,1,1.1.915c-4.307,5.172-11.017,9.784-15.887,12.743a101.415,101.415,0,0,1-17.985,8.731A.71.71,0,0,1,3536.8,2236.793Z" transform="translate(-3518.542 -2156.435)" fill="#c4bbe0"/>
              <path id="Trazado_141621" data-name="Trazado 141621" d="M3543.71,2292.493a.715.715,0,0,1-.239-1.388c10.084-3.575,26.208-13.55,34.942-20.624a.715.715,0,1,1,.9,1.11c-8.825,7.149-25.141,17.237-35.364,20.861A.711.711,0,0,1,3543.71,2292.493Z" transform="translate(-3524.508 -2204.942)" fill="#c4bbe0"/>
            </g>
          </g>
        </g>
      </g>
      <g id="Grupo_82623" data-name="Grupo 82623" transform="translate(29.684 24.371)">
        <path id="Trazado_141623" data-name="Trazado 141623" d="M3317.905,984.381s-3.314-.221-5.234-.275c-2.9-.081-3.532,1.91-3.695,5.514s-.7,13.062-.725,16-.15,5.394,3.638,5.536c1.888.071,4.115.25,5.017.274,1.885.05,4.268-.324,4.5-4.464.261-4.73.71-14.708.836-18.547C3322.356,984.764,3320.268,984.53,3317.905,984.381Z" transform="translate(-3308.246 -967.643)" fill="#978cb7"/>
        <path id="Trazado_141624" data-name="Trazado 141624" d="M3423.008,907.634s7.744.914,16.071,1.463c8.258.544,11.715.315,12.4-2.147.7-2.505-2.493-3.639-2.493-3.639s3.292-.345,3.6-3.344a2.51,2.51,0,0,0-1.789-2.981s3.181-.93,3.21-3.579a3.155,3.155,0,0,0-2.668-3.394,3.854,3.854,0,0,0,3.037-4c-.213-3.16-3.371-3.577-7.206-3.638s-8.2-.431-8.2-.431,3.526-6.1,3.705-10.044-.769-7.936-3.934-7.854-2.841,2.919-3.425,5.827-1.868,3.866-4.914,6.324-5.668,5.128-6.251,8.408C3423.521,888.209,3423.008,907.634,3423.008,907.634Z" transform="translate(-3407.274 -864.044)" fill="#978cb7"/>
      </g>
    </g>
    <g id="_5" data-name="5" transform="translate(859.511 4571.354)">
      <g id="Grupo_82631" data-name="Grupo 82631" transform="translate(0.615 0)">
        <path id="Trazado_141625" data-name="Trazado 141625" d="M4101.3,1416.419a28.336,28.336,0,0,0-10.635-1.836,79.257,79.257,0,0,1-8.385-.026l-9.829,14.4-3.126,13.73-22.53,56.589,23.473,1.634,16.591-56.22,7.583-15.447Z" transform="translate(-4036.597 -1282.458)" fill="#ffa57f"/>
        <path id="Trazado_141626" data-name="Trazado 141626" d="M4280.739,1619.065a25.384,25.384,0,0,1-8.519-2.067.448.448,0,1,1,.388-.807,25.374,25.374,0,0,0,8.568,2,.448.448,0,1,1-.034.895C4281.111,1619.087,4280.97,1619.082,4280.739,1619.065Z" transform="translate(-4230.896 -1456.41)" fill="#f18570"/>
        <g id="Grupo_82624" data-name="Grupo 82624" transform="translate(46.689 86.459)">
          <path id="Trazado_141627" data-name="Trazado 141627" d="M4322.285,1181.363l-3.781.083a3.446,3.446,0,0,1-3.521-3.37l-2.032-92.879a3.445,3.445,0,0,1,3.969-3.481l3.8.584a3.446,3.446,0,0,1,2.92,3.33l2.018,92.212A3.446,3.446,0,0,1,4322.285,1181.363Z" transform="translate(-4312.95 -1081.675)" fill="#985d52"/>
        </g>
        <g id="Grupo_82625" data-name="Grupo 82625" transform="translate(33.691 125.731)">
          <path id="Trazado_141628" data-name="Trazado 141628" d="M4218.145,1398.384a60.732,60.732,0,0,1,2.527-11.127c.918-2.583,1.633-6.364,2.235-7.955.9-2.377,2.477-3.781,7.5-5.807a51.017,51.017,0,0,0,8.555-4.2c1.554-.937,2.3-1.36,3.055-1.1,1.462.5,1.828,2.59.375,4.432a14.87,14.87,0,0,1-3.929,3.46,15.272,15.272,0,0,1-4.782,1.952s1.07,7.543-4.214,12.738A38.587,38.587,0,0,1,4218.145,1398.384Z" transform="translate(-4218.145 -1368.115)" fill="#ffa57f"/>
          <path id="Trazado_141629" data-name="Trazado 141629" d="M4372.342,1369.1a.577.577,0,0,0,.329.58c1.174.718,3.489-.434,2.73-1.335a2.3,2.3,0,0,0-.334-.148C4374.372,1367.955,4373.67,1368.3,4372.342,1369.1Z" transform="translate(-4351.197 -1368.119)" fill="#ffbda7"/>
        </g>
        <g id="Grupo_82630" data-name="Grupo 82630" transform="translate(49.307 133.774)">
          <g id="Grupo_82629" data-name="Grupo 82629" clip-path="url(#clip-path-9)">
            <path id="Trazado_141630" data-name="Trazado 141630" d="M4347.476,1447.294c-.329-1.185-1.322-1.753-2.967-1.612,2.7-1.389,4.565-2.779,4.017-4.754a2.365,2.365,0,0,0-2.462-1.74c2.626-1.369,4.538-2.8,4.038-4.682-.372-1.4-1.568-1.942-3.431-1.717,2.177-1.359,2.724-2.419,2.2-4.123-.819-2.658-3.559-2.538-8.993.515-5.368,3.016-8.371,5.882-7.752,7.719.365,1.084,1.557,1.453,3.723.936q-2.868,2.188-2.379,3.853c.3,1.016,1.167,1.552,2.952,1.321-2.729,1.808-3.481,3.25-3.079,4.616.342,1.164,1.057,1.824,3.144,1.39-2.848,1.8-3.635,3.218-3.242,4.557.5,1.712,1.861,2.264,7.709-.491C4344.815,1451.261,4348.162,1449.766,4347.476,1447.294Z" transform="translate(-4332.045 -1426.775)" fill="#ffa57f"/>
            <g id="Grupo_82626" data-name="Grupo 82626" transform="translate(0.093 8.334)">
              <path id="Trazado_141631" data-name="Trazado 141631" d="M4342.647,1610.66c.92,1.789-2.075,2.974-2.974,1.423C4338.807,1610.589,4341.743,1608.9,4342.647,1610.66Z" transform="translate(-4338.584 -1593.136)" fill="#ffbda7"/>
              <path id="Trazado_141632" data-name="Trazado 141632" d="M4344.438,1567.993c.92,1.789-2.075,2.974-2.973,1.423C4340.6,1567.922,4343.534,1566.237,4344.438,1567.993Z" transform="translate(-4340.13 -1556.319)" fill="#ffbda7"/>
              <path id="Trazado_141633" data-name="Trazado 141633" d="M4345.52,1524.512c.921,1.789-2.075,2.974-2.974,1.423C4341.68,1524.441,4344.616,1522.756,4345.52,1524.512Z" transform="translate(-4341.063 -1518.799)" fill="#ffbda7"/>
              <path id="Trazado_141634" data-name="Trazado 141634" d="M4335.857,1488.311c.921,1.789-2.075,2.974-2.974,1.423C4332.017,1488.24,4334.954,1486.555,4335.857,1488.311Z" transform="translate(-4332.725 -1487.561)" fill="#ffbda7"/>
            </g>
            <g id="Grupo_82627" data-name="Grupo 82627" transform="translate(1.225 4.783)">
              <path id="Trazado_141635" data-name="Trazado 141635" d="M4341.216,1469.632l-.234-.864a86.018,86.018,0,0,0,15.626-7.106l.474.759C4353.637,1464.571,4345,1468.605,4341.216,1469.632Z" transform="translate(-4340.982 -1461.662)" fill="#f18570"/>
              <path id="Trazado_141636" data-name="Trazado 141636" d="M4344.77,1516.492l-.192-.875a67.641,67.641,0,0,0,14.264-5.558l.438.781A68.83,68.83,0,0,1,4344.77,1516.492Z" transform="translate(-4344.085 -1503.425)" fill="#f18570"/>
              <path id="Trazado_141637" data-name="Trazado 141637" d="M4344.092,1557.756l-.192-.875a61.237,61.237,0,0,0,14.471-6.066l.472.761A61.262,61.262,0,0,1,4344.092,1557.756Z" transform="translate(-4343.5 -1538.592)" fill="#f18570"/>
            </g>
            <g id="Grupo_82628" data-name="Grupo 82628" transform="translate(5.152 6.342)">
              <rect id="Rectángulo_31017" data-name="Rectángulo 31017" width="0.298" height="1.874" transform="matrix(0.894, -0.448, 0.448, 0.894, 0, 0.449)" fill="#f18570"/>
              <path id="Trazado_141638" data-name="Trazado 141638" d="M4380.5,1474.252a2.6,2.6,0,0,0-.541-1.025l.227-.194a2.913,2.913,0,0,1,.6,1.142Z" transform="translate(-4378.541 -1473.033)" fill="#f18570"/>
              <path id="Trazado_141639" data-name="Trazado 141639" d="M4381.359,1516.092a5.049,5.049,0,0,1-.928-1.7l.285-.089a4.752,4.752,0,0,0,.873,1.6Z" transform="translate(-4378.949 -1508.641)" fill="#f18570"/>
              <rect id="Rectángulo_31018" data-name="Rectángulo 31018" width="0.298" height="1.279" transform="matrix(0.96, -0.279, 0.279, 0.96, 2.626, 5.818)" fill="#f18570"/>
              <path id="Trazado_141640" data-name="Trazado 141640" d="M4380.949,1558.336c-.127-.5-.237-1.011-.329-1.518l.294-.053c.09.5.2,1,.324,1.5Z" transform="translate(-4379.112 -1545.285)" fill="#f18570"/>
              <path id="Trazado_141641" data-name="Trazado 141641" d="M4386.655,1558.893a4.723,4.723,0,0,1-.163-.815l.3-.033a4.518,4.518,0,0,0,.153.764Z" transform="translate(-4384.179 -1546.39)" fill="#f18570"/>
              <path id="Trazado_141642" data-name="Trazado 141642" d="M4379.3,1602.074a7.259,7.259,0,0,0-.41-1.094l.27-.127a7.508,7.508,0,0,1,.426,1.14Z" transform="translate(-4377.624 -1583.329)" fill="#f18570"/>
              <path id="Trazado_141643" data-name="Trazado 141643" d="M4384.636,1600.158c-.161-.335-.306-.682-.433-1.032l.281-.1c.123.34.265.678.421,1Z" transform="translate(-4382.204 -1581.751)" fill="#f18570"/>
            </g>
          </g>
        </g>
        <path id="Trazado_141645" data-name="Trazado 141645" d="M4294.845,1451.218a.448.448,0,0,1-.262-.785c5.318-4.6,4.484-12.658,4.475-12.74a.448.448,0,1,1,.89-.1c.039.349.892,8.615-4.779,13.516A.445.445,0,0,1,4294.845,1451.218Z" transform="translate(-4250.279 -1301.994)" fill="#f18570"/>
        <path id="Trazado_141646" data-name="Trazado 141646" d="M4068.134,546.284l-88.707,3.317a3.92,3.92,0,0,1-4.053-3.786l-2.962-87.825a3.921,3.921,0,0,1,3.8-4.051l87.554-2.877a3.921,3.921,0,0,1,4.04,3.734l4.113,87.385A3.921,3.921,0,0,1,4068.134,546.284Z" transform="translate(-3972.41 -451.06)" fill="#fbece5"/>
        <path id="Trazado_141647" data-name="Trazado 141647" d="M4024.943,580.4a5.187,5.187,0,0,1-5.18-5l-2.2-72.008a5.172,5.172,0,0,1,5.028-5.338l74.764-3.572h.014a5.205,5.205,0,0,1,5.29,4.923v.017l2.458,72.739a5.172,5.172,0,0,1-5.018,5.406l-75.013,2.829Zm72.5-83.417-74.761,3.572h-.015a2.671,2.671,0,0,0-2.6,2.759l2.2,72.008A2.674,2.674,0,0,0,4025,577.9l75.02-2.829a2.671,2.671,0,0,0,2.6-2.8v-.017l-2.458-72.737A2.654,2.654,0,0,0,4097.443,496.984Z" transform="translate(-4011.37 -488.53)" fill="#ff7758"/>
      </g>
      <g id="Grupo_82636" data-name="Grupo 82636" transform="translate(0 168.898)">
        <g id="Grupo_82635" data-name="Grupo 82635" transform="translate(0 5.212)">
          <g id="Grupo_82634" data-name="Grupo 82634">
            <path id="Trazado_141648" data-name="Trazado 141648" d="M4014.928,1732.6c-.563,1.69-1.557,4.761-2.349,7.252-1.128,3.546-2.437,7.6-3.686,11.945-1.619,5.631-4.9,15.443-7.186,22.484-2.128,6.549-3.188,10.584-3.188,10.584l-30.6-5.649s2.5-4.994,5.731-12.508c2.67-6.218,5.94-13.706,8.983-20.712,2.4-5.535,4.907-11.3,6.715-15.4,1.459-3.306,2.368-5.458,3.15-7.268.917-2.122,1.393-2.758,2.816-2.107l18.864,7.564C4016.184,1729.84,4015.715,1730.241,4014.928,1732.6Z" transform="translate(-3967.922 -1720.982)" fill="#c3b5ec"/>
            <g id="Grupo_82633" data-name="Grupo 82633" clip-path="url(#clip-path-10)">
              <g id="Grupo_82632" data-name="Grupo 82632" transform="translate(15.965 -1.457)">
                <path id="Trazado_141649" data-name="Trazado 141649" d="M4116,1773.607a.469.469,0,0,1-.159-.028c-9.838-3.535-20.372-8.291-31.2-13.263a.471.471,0,0,1,.393-.855c10.809,4.963,21.323,9.71,31.125,13.232a.471.471,0,0,1-.159.914Z" transform="translate(-4084.364 -1752.691)" fill="#9c8cc9"/>
                <path id="Trazado_141650" data-name="Trazado 141650" d="M4271.255,1777.422a.461.461,0,0,1-.178-.035.471.471,0,0,1-.258-.614c1.248-3.053,2.686-6.887,3.75-10.007a.47.47,0,1,1,.89.3c-1.069,3.136-2.514,6.99-3.769,10.059A.47.47,0,0,1,4271.255,1777.422Z" transform="translate(-4245.226 -1758.757)" fill="#9c8cc9"/>
                <path id="Trazado_141651" data-name="Trazado 141651" d="M4248.318,1769.307a.508.508,0,0,1-.478-.678c1.154-3.239,2.367-6.507,3.6-9.714a.507.507,0,0,1,.947.365c-1.235,3.2-2.444,6.459-3.6,9.689A.508.508,0,0,1,4248.318,1769.307Z" transform="translate(-4225.402 -1751.978)" fill="#9c8cc9"/>
                <path id="Trazado_141652" data-name="Trazado 141652" d="M4223.457,1756.672a.47.47,0,0,1-.441-.634c.629-1.7,1.36-3.494,2.065-5.229.656-1.613,1.335-3.28,1.93-4.866a.471.471,0,0,1,.881.331c-.6,1.6-1.28,3.271-1.939,4.89-.7,1.728-1.431,3.516-2.055,5.2A.473.473,0,0,1,4223.457,1756.672Z" transform="translate(-4203.981 -1740.8)" fill="#9c8cc9"/>
                <path id="Trazado_141653" data-name="Trazado 141653" d="M4197.043,1746.024a.471.471,0,0,1-.436-.648c.444-1.091.867-2.165,1.275-3.2.778-1.983,1.583-4.033,2.593-6.323a.471.471,0,1,1,.861.379c-1,2.273-1.8,4.314-2.579,6.288-.409,1.042-.833,2.119-1.279,3.215A.471.471,0,0,1,4197.043,1746.024Z" transform="translate(-4181.188 -1732.111)" fill="#9c8cc9"/>
                <path id="Trazado_141654" data-name="Trazado 141654" d="M4170.368,1735.051a.471.471,0,0,1-.433-.653l4.019-9.566a.471.471,0,0,1,.869.365l-4.02,9.566A.472.472,0,0,1,4170.368,1735.051Z" transform="translate(-4158.17 -1722.598)" fill="#9c8cc9"/>
                <path id="Trazado_141655" data-name="Trazado 141655" d="M4143.474,1721.511a.471.471,0,0,1-.426-.669l4.751-10.213a.471.471,0,0,1,.854.4l-4.751,10.213A.472.472,0,0,1,4143.474,1721.511Z" transform="translate(-4134.964 -1710.356)" fill="#9c8cc9"/>
              </g>
            </g>
          </g>
        </g>
        <path id="Trazado_141657" data-name="Trazado 141657" d="M4194.73,1690.969a.69.69,0,0,1,.283.3,1.834,1.834,0,0,1-.216,1.112,3.843,3.843,0,0,1-.389.936,1.21,1.21,0,0,1-.39.37.9.9,0,0,1-.742-.076c-2.071-.808-3.658-1.529-5.534-2.316-1.75-.734-3.98-1.716-5.836-2.627-1.161-.57-2.564-1.211-3.8-1.905-.546-.306-1.3-.851-1.858-1.182-.632-.373-.629-.8-.519-1.025.325-.668.814-1.443,1.526-1.571a1.684,1.684,0,0,1,.808.1,15.032,15.032,0,0,1,3.973,1.887,12.509,12.509,0,0,0,2.648,1.546,12.925,12.925,0,0,1,2.039.886,39.164,39.164,0,0,0,5.2,2.222A13.1,13.1,0,0,1,4194.73,1690.969Z" transform="translate(-4147.188 -1682.968)" fill="#ff7758"/>
      </g>
      <path id="Trazado_141658" data-name="Trazado 141658" d="M4198.981,711.114s-10.635-6.174-18.191-13.393c-7.165-6.846-7.653-16.265-2.469-20.844s16.019-1.935,18.866,4.87c0,0,7.722-13.3,18.366-6.42,8.258,5.337,3.306,15.718-1.763,21.62C4209.127,702.376,4198.981,711.114,4198.981,711.114Z" transform="translate(-4146.486 -642.875)" fill="#ff7758"/>
    </g>
    <g id="_6" data-name="6" transform="translate(968.398 4551.221)">
      <g id="Grupo_82643" data-name="Grupo 82643" transform="translate(0 0)">
        <g id="Grupo_82638" data-name="Grupo 82638">
          <g id="Grupo_82637" data-name="Grupo 82637" transform="translate(60.085 89.75)">
            <path id="Trazado_141659" data-name="Trazado 141659" d="M5207.027,1058.591l-2.838-.072a3.916,3.916,0,0,1-3.816-4.015l2.338-91.84a3.917,3.917,0,0,1,4.694-3.739l2.827.573a3.916,3.916,0,0,1,3.136,3.938l-2.326,91.339A3.917,3.917,0,0,1,5207.027,1058.591Z" transform="translate(-5200.372 -958.846)" fill="#c07354"/>
          </g>
          <path id="Trazado_141660" data-name="Trazado 141660" d="M4832.628,435.393l60.225-65.213a3.92,3.92,0,0,0-.239-5.542l-64.774-59.381a3.921,3.921,0,0,0-5.546.247l-59.142,64.624a3.921,3.921,0,0,0,.208,5.5l63.692,59.971A3.921,3.921,0,0,0,4832.628,435.393Z" transform="translate(-4762.127 -304.226)" fill="#fbece5"/>
          <path id="Trazado_141661" data-name="Trazado 141661" d="M4877.042,487.787a5.127,5.127,0,0,1-3.535-1.4l-53.658-49.2a5.141,5.141,0,0,1-.3-7.22l.02-.022L4870.91,375.5a5.172,5.172,0,0,1,7.328-.344l53.252,48.51a5.185,5.185,0,0,1,.344,7.285l-50.956,55.141a5.133,5.133,0,0,1-3.625,1.692Q4877.148,487.787,4877.042,487.787Zm-55.483-52.424,53.657,49.2a2.67,2.67,0,0,0,3.812-.151l.009-.01,50.951-55.135a2.674,2.674,0,0,0-.185-3.751L4876.551,377a2.671,2.671,0,0,0-3.792.182l-.02.022L4821.4,431.65A2.655,2.655,0,0,0,4821.56,435.363Z" transform="translate(-4810.524 -364.258)" fill="#978cb7"/>
        </g>
        <path id="Trazado_141662" data-name="Trazado 141662" d="M4935.228,1321.27a13.131,13.131,0,0,1,.415-1.668c.876-2.607,2.972-4.758,5.885-7.819a30.632,30.632,0,0,1,8.762-5.888l-.2,7.893c5.163-.811,12.115-1.9,12.655-1.966,3.67-.448,5.412.523,5.587,2.925.153,2.122-.766,3.208-3.662,4.206,2.227.237,3.537,1.19,3.53,2.916a3.87,3.87,0,0,1-3.289,3.852,2.878,2.878,0,0,1,2.4,2.683c.144,1.743-1.273,3.463-4.209,4.063,1.951.276,2.953,1.2,3.02,2.669.136,3.059-4.156,3.9-9.135,4.984a46.439,46.439,0,0,1-8.082,1.116l-1.6.084-15.91,86.923-22.262-2.136Z" transform="translate(-4888.979 -1168.562)" fill="#ffa57f"/>
        <g id="Grupo_82642" data-name="Grupo 82642" transform="translate(20.155 137.332)">
          <g id="Grupo_82640" data-name="Grupo 82640">
            <g id="Grupo_82639" data-name="Grupo 82639" clip-path="url(#clip-path-11)">
              <path id="Trazado_141663" data-name="Trazado 141663" d="M5253.175,1401.1a.3.3,0,0,0,.07,0l10.011-1.4a.3.3,0,1,0-.083-.591l-10.011,1.4a.3.3,0,0,0,.013.593Z" transform="translate(-5205.773 -1386.32)" fill="#f18570"/>
              <path id="Trazado_141664" data-name="Trazado 141664" d="M5257.054,1450.519a.3.3,0,0,0,.071,0l10.011-1.4a.3.3,0,0,0-.083-.591l-10.01,1.4a.3.3,0,0,0,.012.593Z" transform="translate(-5209.121 -1428.966)" fill="#f18570"/>
              <path id="Trazado_141665" data-name="Trazado 141665" d="M5255.821,1497.6a.3.3,0,0,0,.07,0l10.011-1.4a.3.3,0,1,0-.083-.591l-10.011,1.4a.3.3,0,0,0,.013.593Z" transform="translate(-5208.057 -1469.594)" fill="#f18570"/>
              <path id="Trazado_141666" data-name="Trazado 141666" d="M5163.323,1562.849a.3.3,0,0,0,.042,0l10.1-.48a.3.3,0,1,0-.028-.6l-10.1.48a.3.3,0,0,0-.014.6Z" transform="translate(-5128.24 -1526.692)" fill="#f18570"/>
              <path id="Trazado_141667" data-name="Trazado 141667" d="M5190.429,1351.1a.3.3,0,0,0,.076,0l10.919-1.735a.3.3,0,1,0-.094-.59l-10.918,1.735a.3.3,0,0,0,.018.592Z" transform="translate(-5151.63 -1342.892)" fill="#f18570"/>
            </g>
          </g>
          <g id="Grupo_82641" data-name="Grupo 82641" transform="translate(41.121 10.422)">
            <path id="Trazado_141669" data-name="Trazado 141669" d="M5209.6,1384.284l.3-.013a6.366,6.366,0,0,0-.572-2.361l-.271.125A6.07,6.07,0,0,1,5209.6,1384.284Z" transform="translate(-5209.059 -1381.91)" fill="#f18570"/>
            <path id="Trazado_141670" data-name="Trazado 141670" d="M5213.5,1426.219a12.915,12.915,0,0,0,.1-2.379l-.3.015a12.755,12.755,0,0,1-.1,2.324Z" transform="translate(-5212.636 -1418.091)" fill="#f18570"/>
            <path id="Trazado_141671" data-name="Trazado 141671" d="M5215.155,1471.359l.3-.037a10.768,10.768,0,0,1-.044-2.219l-.3-.025A11.16,11.16,0,0,0,5215.155,1471.359Z" transform="translate(-5214.247 -1457.127)" fill="#f18570"/>
            <rect id="Rectángulo_31019" data-name="Rectángulo 31019" width="1.694" height="0.298" transform="translate(0.697 20.28) rotate(-89.552)" fill="#f18570"/>
          </g>
        </g>
      </g>
      <g id="Grupo_82648" data-name="Grupo 82648" transform="translate(19.347 183.875)">
        <g id="Grupo_82646" data-name="Grupo 82646" transform="translate(13.622)">
          <g id="Grupo_82645" data-name="Grupo 82645" clip-path="url(#clip-path-12)">
            <path id="Trazado_141672" data-name="Trazado 141672" d="M5002.6,1653.159l1.59-6.328a2.938,2.938,0,0,1,.442-1.081,1.264,1.264,0,0,1,1.182-.366c1.853.238,5.521,1.333,10.158,2.364,4.447.988,7.789,1.568,9.417,2.2a1.593,1.593,0,0,1,.968.9,2.511,2.511,0,0,1-.135,1.328l-1.36,6.314Z" transform="translate(-5002.595 -1645.367)" fill="#675d84"/>
            <g id="Grupo_82644" data-name="Grupo 82644" transform="translate(2.158 -2.282)">
              <path id="Trazado_141673" data-name="Trazado 141673" d="M5018.8,1640.991a.455.455,0,0,1-.085-.008.466.466,0,0,1-.373-.543c.705-3.805,1.563-7.632,2.548-11.374a.466.466,0,0,1,.9.238c-.98,3.72-1.833,7.523-2.534,11.306A.465.465,0,0,1,5018.8,1640.991Z" transform="translate(-5018.337 -1628.719)" fill="#cebeda"/>
              <path id="Trazado_141674" data-name="Trazado 141674" d="M5044.055,1647.5a.459.459,0,0,1-.081-.007.466.466,0,0,1-.378-.539c.623-3.536,1.369-7.1,2.219-10.586a.466.466,0,0,1,.906.22c-.846,3.469-1.588,7.01-2.207,10.527A.466.466,0,0,1,5044.055,1647.5Z" transform="translate(-5040.126 -1635.011)" fill="#cebeda"/>
              <path id="Trazado_141675" data-name="Trazado 141675" d="M5066.747,1648.96a.444.444,0,0,1-.094-.01.465.465,0,0,1-.362-.55c.84-4.093,1.817-8.215,2.905-12.251a.466.466,0,0,1,.9.242c-1.082,4.018-2.056,8.122-2.893,12.2A.466.466,0,0,1,5066.747,1648.96Z" transform="translate(-5059.708 -1634.833)" fill="#cebeda"/>
              <path id="Trazado_141676" data-name="Trazado 141676" d="M5095.691,1659.674a.466.466,0,0,1-.452-.58c.885-3.5,1.724-7.057,2.494-10.582a.466.466,0,0,1,.91.2c-.772,3.535-1.614,7.1-2.5,10.612A.466.466,0,0,1,5095.691,1659.674Z" transform="translate(-5084.683 -1645.482)" fill="#cebeda"/>
              <path id="Trazado_141677" data-name="Trazado 141677" d="M5119.9,1667.927a.467.467,0,0,1-.445-.6,75.126,75.126,0,0,0,2.242-9.253.466.466,0,1,1,.917.161,76.056,76.056,0,0,1-2.27,9.368A.466.466,0,0,1,5119.9,1667.927Z" transform="translate(-5105.572 -1653.714)" fill="#cebeda"/>
              <path id="Trazado_141678" data-name="Trazado 141678" d="M5144.529,1674.084a.466.466,0,0,1-.455-.568c.75-3.316,1.442-6.692,2.058-10.036a.466.466,0,0,1,.917.169c-.619,3.356-1.314,6.745-2.066,10.073A.466.466,0,0,1,5144.529,1674.084Z" transform="translate(-5126.825 -1658.384)" fill="#cebeda"/>
            </g>
          </g>
        </g>
        <g id="Grupo_82647" data-name="Grupo 82647" transform="translate(0 6.921)">
          <path id="Trazado_141680" data-name="Trazado 141680" d="M4916.989,1695.85a3.7,3.7,0,0,1,1.069.184c1.263.354,4.786,1.163,10.016,2.351,4.955,1.125,8.372,2.01,9.92,2.323a4.241,4.241,0,0,1,1.514.542,2.457,2.457,0,0,1,.767.758,4.152,4.152,0,0,1,.213,2.6c-.363,1.93-.777,4.2-1.335,7.477-.736,4.32-1.592,9.728-1.936,13.051-.356,3.464-1.762,9.932-2.6,14.832-1.09,6.377-1.61,10.9-1.61,10.9l-29.769-6.94s.986-4.937,2.795-11.987c1.469-5.725,3.761-13.34,4.267-16.85,1.455-6.357,2.975-12.45,3.921-16.174a6.083,6.083,0,0,1,1.241-2.506A2.293,2.293,0,0,1,4916.989,1695.85Z" transform="translate(-4903.24 -1695.85)" fill="#675d84"/>
        </g>
      </g>
      <g id="Grupo_82649" data-name="Grupo 82649" transform="translate(39.811 39.115)">
        <path id="Trazado_141681" data-name="Trazado 141681" d="M5060.879,727.726s-3.319.129-5.234.277c-2.891.224-3.31,2.271-3.094,5.873s.673,13.063.962,15.983.418,5.38,4.2,5.123c1.886-.128,4.119-.184,5.018-.255,1.881-.149,4.211-.771,4-4.912-.239-4.731-.841-14.7-1.121-18.531C5065.346,727.639,5063.245,727.625,5060.879,727.726Z" transform="translate(-5052.503 -708.756)" fill="#978cb7"/>
        <path id="Trazado_141682" data-name="Trazado 141682" d="M5170.056,634.558s7.8.094,16.135-.237c8.27-.328,11.683-.919,12.106-3.44.431-2.565-2.861-3.357-2.861-3.357s3.237-.69,3.232-3.7a2.51,2.51,0,0,0-2.093-2.776s3.065-1.26,2.815-3.9a3.155,3.155,0,0,0-3.011-3.095,3.854,3.854,0,0,0,2.6-4.3c-.545-3.121-3.729-3.2-7.549-2.86s-8.2.434-8.2.434,2.864-6.439,2.628-10.378-1.6-7.811-4.739-7.4-2.518,3.2-2.792,6.155-1.451,4.041-4.221,6.806-5.1,5.7-5.331,9.019C5168.521,615.187,5170.056,634.558,5170.056,634.558Z" transform="translate(-5152.812 -589.524)" fill="#978cb7"/>
      </g>
    </g>
    <g id="_7" data-name="7" transform="translate(1105 4581.082)">
      <g id="Grupo_82658" data-name="Grupo 82658">
        <path id="Trazado_141683" data-name="Trazado 141683" d="M6061.978,1618.4a28.33,28.33,0,0,1,10.462-2.65,79.311,79.311,0,0,0,8.358-.672l10.909,13.6,4.174,13.448,26.823,54.685-23.279,3.438-20.873-54.774-8.75-14.817Z" transform="translate(-6013.802 -1480.735)" fill="#ffa57f"/>
        <path id="Trazado_141684" data-name="Trazado 141684" d="M6180.5,1817.274a25.394,25.394,0,0,0,8.335-2.718.448.448,0,1,0-.449-.775,25.382,25.382,0,0,1-8.389,2.657.448.448,0,0,0,.1.889C6180.136,1817.325,6180.276,1817.308,6180.5,1817.274Z" transform="translate(-6115.302 -1652.142)" fill="#f18570"/>
        <g id="Grupo_82650" data-name="Grupo 82650" transform="translate(52.122 89.175)">
          <path id="Trazado_141685" data-name="Trazado 141685" d="M6099.482,1385.468l3.777-.209a3.446,3.446,0,0,0,3.25-3.63l-5.129-92.76a3.445,3.445,0,0,0-4.226-3.164l-3.74.875a3.445,3.445,0,0,0-2.655,3.545l5.092,92.094A3.446,3.446,0,0,0,6099.482,1385.468Z" transform="translate(-6090.754 -1285.612)" fill="#c07354"/>
        </g>
        <g id="Grupo_82651" data-name="Grupo 82651" transform="translate(53.522 128.874)">
          <path id="Trazado_141686" data-name="Trazado 141686" d="M6128.243,1603.548a60.669,60.669,0,0,0-3.376-10.9c-1.115-2.505-2.119-6.219-2.841-7.759-1.08-2.3-2.761-3.579-7.924-5.213a51.068,51.068,0,0,1-8.853-3.532c-1.622-.815-2.4-1.178-3.13-.862-1.419.616-1.623,2.724-.032,4.447a14.855,14.855,0,0,0,4.184,3.148,15.278,15.278,0,0,0,4.918,1.578s-.485,7.6,5.182,12.375A38.6,38.6,0,0,0,6128.243,1603.548Z" transform="translate(-6100.972 -1575.17)" fill="#ffa57f"/>
          <path id="Trazado_141687" data-name="Trazado 141687" d="M6109.327,1575.979a.577.577,0,0,1-.284.6c-1.115.806-3.511-.163-2.824-1.121a2.4,2.4,0,0,1,.322-.174C6107.215,1575,6107.941,1575.29,6109.327,1575.979Z" transform="translate(-6105.395 -1575.176)" fill="#ffbda7"/>
        </g>
        <g id="Grupo_82656" data-name="Grupo 82656" transform="translate(46.064 137.384)">
          <g id="Grupo_82655" data-name="Grupo 82655" clip-path="url(#clip-path-13)">
            <path id="Trazado_141688" data-name="Trazado 141688" d="M6050.218,1657.8c.237-1.207,1.183-1.85,2.834-1.836-2.8-1.177-4.766-2.419-4.372-4.431a2.366,2.366,0,0,1,2.321-1.925c-2.725-1.162-4.74-2.444-4.387-4.357.263-1.422,1.414-2.057,3.29-1.977-2.276-1.187-2.9-2.2-2.512-3.941.611-2.712,3.353-2.8,9.006-.179,5.584,2.594,8.8,5.22,8.324,7.1-.281,1.109-1.441,1.568-3.641,1.22q3.03,1.961,2.669,3.658c-.22,1.036-1.044,1.637-2.841,1.545,2.86,1.592,3.722,2.971,3.425,4.365-.251,1.187-.913,1.9-3.027,1.628,2.979,1.578,3.873,2.929,3.583,4.293-.37,1.746-1.681,2.4-7.724.1C6053.176,1661.547,6049.724,1660.314,6050.218,1657.8Z" transform="translate(-6046.574 -1637.238)" fill="#ffa57f"/>
            <g id="Grupo_82652" data-name="Grupo 82652" transform="translate(13.868 7.37)">
              <path id="Trazado_141689" data-name="Trazado 141689" d="M6157.349,1814.348c-.781,1.855,2.3,2.805,3.074,1.19C6161.171,1813.982,6158.114,1812.528,6157.349,1814.348Z" transform="translate(-6155.92 -1796.705)" fill="#ffbda7"/>
              <path id="Trazado_141690" data-name="Trazado 141690" d="M6152.277,1771.946c-.781,1.855,2.3,2.8,3.075,1.19C6156.1,1771.58,6153.042,1770.126,6152.277,1771.946Z" transform="translate(-6151.543 -1760.117)" fill="#ffbda7"/>
              <path id="Trazado_141691" data-name="Trazado 141691" d="M6147.848,1728.677c-.78,1.854,2.3,2.8,3.075,1.19C6151.671,1728.311,6148.613,1726.857,6147.848,1728.677Z" transform="translate(-6147.722 -1722.781)" fill="#ffbda7"/>
              <path id="Trazado_141692" data-name="Trazado 141692" d="M6154.692,1691.84c-.78,1.854,2.3,2.8,3.075,1.19C6158.516,1691.474,6155.458,1690.02,6154.692,1691.84Z" transform="translate(-6153.628 -1690.994)" fill="#ffbda7"/>
            </g>
            <g id="Grupo_82653" data-name="Grupo 82653" transform="translate(0.601 4.979)">
              <path id="Trazado_141693" data-name="Trazado 141693" d="M6067.331,1680.312l.167-.88a85.973,85.973,0,0,1-16.127-5.881l-.414.794C6054.557,1676.224,6063.478,1679.58,6067.331,1680.312Z" transform="translate(-6050.957 -1673.552)" fill="#f18570"/>
              <path id="Trazado_141694" data-name="Trazado 141694" d="M6076.185,1726.647l.125-.887a67.657,67.657,0,0,1-14.65-4.442l-.375.813A68.84,68.84,0,0,0,6076.185,1726.647Z" transform="translate(-6059.869 -1714.769)" fill="#f18570"/>
              <path id="Trazado_141695" data-name="Trazado 141695" d="M6078.515,1767.835l.125-.887a61.248,61.248,0,0,1-14.9-4.933l-.411.8A61.274,61.274,0,0,0,6078.515,1767.835Z" transform="translate(-6061.636 -1749.886)" fill="#f18570"/>
            </g>
            <g id="Grupo_82654" data-name="Grupo 82654" transform="translate(10.076 5.758)">
              <rect id="Rectángulo_31020" data-name="Rectángulo 31020" width="1.874" height="0.298" transform="translate(1.774 1.943) rotate(-67.808)" fill="#f18570"/>
              <path id="Trazado_141696" data-name="Trazado 141696" d="M6124.533,1680.478a2.628,2.628,0,0,1,.46-1.063l-.24-.177a2.9,2.9,0,0,0-.513,1.185Z" transform="translate(-6123.668 -1679.238)" fill="#f18570"/>
              <path id="Trazado_141697" data-name="Trazado 141697" d="M6125.056,1722.288a5.04,5.04,0,0,0,.795-1.771l-.292-.067a4.728,4.728,0,0,1-.747,1.666Z" transform="translate(-6124.162 -1714.8)" fill="#f18570"/>
              <rect id="Rectángulo_31021" data-name="Rectángulo 31021" width="1.279" height="0.298" transform="matrix(0.205, -0.979, 0.979, 0.205, 0, 7.067)" fill="#f18570"/>
              <path id="Trazado_141698" data-name="Trazado 141698" d="M6132.055,1764.379c.088-.509.159-1.026.211-1.539l-.3-.03c-.051.506-.121,1.017-.208,1.519Z" transform="translate(-6130.158 -1751.352)" fill="#f18570"/>
              <path id="Trazado_141699" data-name="Trazado 141699" d="M6127.113,1765.375a4.782,4.782,0,0,0,.1-.825l-.3-.01a4.581,4.581,0,0,1-.094.774Z" transform="translate(-6125.895 -1752.845)" fill="#f18570"/>
              <path id="Trazado_141700" data-name="Trazado 141700" d="M6136.4,1807.849a7.111,7.111,0,0,1,.323-1.123l-.279-.106a7.526,7.526,0,0,0-.337,1.169Z" transform="translate(-6133.91 -1789.156)" fill="#f18570"/>
              <path id="Trazado_141701" data-name="Trazado 141701" d="M6130.838,1806.356a11,11,0,0,0,.352-1.062l-.288-.08a10.547,10.547,0,0,1-.342,1.033Z" transform="translate(-6129.121 -1787.943)" fill="#f18570"/>
            </g>
          </g>
        </g>
        <path id="Trazado_141703" data-name="Trazado 141703" d="M6178.34,1653.257a.448.448,0,0,0,.2-.8c-5.656-4.172-5.446-12.276-5.442-12.357a.448.448,0,0,0-.9-.031c-.012.351-.225,8.658,5.807,13.108A.444.444,0,0,0,6178.34,1653.257Z" transform="translate(-6108.911 -1501.922)" fill="#f18570"/>
        <g id="Grupo_82657" data-name="Grupo 82657">
          <path id="Trazado_141704" data-name="Trazado 141704" d="M5810.537,712.346c-8.233,13.948-40.56,28.268-68.259,19.176-27.716-9.1-30.548-33.89-31.318-37.857-1.794-9.247,3.056-30.731,12.625-42.459s30.164-18.418,49.354-15.218C5808.881,641.981,5830.533,678.469,5810.537,712.346Z" transform="translate(-5710.592 -635.19)" fill="#fbece5"/>
          <path id="Trazado_141705" data-name="Trazado 141705" d="M5793.976,752.775a53.9,53.9,0,0,1-16.8-2.587c-10.134-3.326-17.814-9.341-22.831-17.876a46.355,46.355,0,0,1-5.562-15.845c-.048-.275-.088-.5-.123-.685-.838-4.32-.153-11.238,1.834-18.507,2.2-8.049,5.6-15.167,9.583-20.044,8.89-10.895,27.729-16.737,44.792-13.891,16.554,2.76,30.378,12.862,36.978,27.022a42.561,42.561,0,0,1,3.979,20.384,47.819,47.819,0,0,1-6.86,21.944h0c-3.869,6.554-13.215,12.937-24.393,16.659A65.433,65.433,0,0,1,5793.976,752.775Zm2.08-87.651a53.994,53.994,0,0,0-16.014,2.419c-7.649,2.4-14.05,6.4-18.025,11.269-8.427,10.326-12.36,28.966-10.9,36.494.038.193.081.439.131.734a43.335,43.335,0,0,0,5.254,15.005c4.7,8,11.917,13.637,21.454,16.767,10.82,3.552,23.544,3.255,35.829-.836,10.629-3.54,19.453-9.5,23.028-15.558h0a45.335,45.335,0,0,0,6.517-20.8,40.079,40.079,0,0,0-3.749-19.2c-6.252-13.412-19.382-22.987-35.123-25.612A51.2,51.2,0,0,0,5796.056,665.124Z" transform="translate(-5743.141 -658.862)" fill="#ff7758"/>
        </g>
      </g>
      <g id="Grupo_82660" data-name="Grupo 82660" transform="translate(71.192 175.22)">
        <path id="Trazado_141706" data-name="Trazado 141706" d="M6249.391,1914.625c.105.27,2.135,4.221,2.241,4.491a.92.92,0,0,1,.094.481c-.045.262-.3.409-.524.545-2,1.238-3.33,2.078-5.187,3.173-1.732,1.021-3.983,2.3-5.94,3.323-1.224.639-2.661,1.432-4.044,2.072-.61.282-1.3.608-1.943.891-.723.318-1.105.112-1.24-.08-.4-.572-3.293-6.074-2.973-6.692a1.773,1.773,0,0,1,.584-.586c1.279-.914,13.177-6.9,16.161-8.487.465-.248,1.088-.664,1.626-.52C6249,1913.438,6249.317,1914.437,6249.391,1914.625Z" transform="translate(-6229.849 -1913.205)" fill="#f9ded2"/>
        <g id="Grupo_82659" data-name="Grupo 82659" transform="translate(1.494 5.516)">
          <path id="Trazado_141707" data-name="Trazado 141707" d="M6279.625,1988.39s-11.323-23.03-12.375-25.2c-2.043-4.224-3.632-7.975-3.632-7.975s-.7-1.514-1.6-1.726a2.69,2.69,0,0,0-1.913.448c-2.379,1.236-6.982,3.521-8.766,4.519-2.681,1.5-6.907,3.259-9.624,4.726a1.784,1.784,0,0,0-.974,1.277,14.7,14.7,0,0,0,1.1,3.531s1.158,2.7,2.359,6.2c.835,2.428,2.776,7.806,3.6,10.038,1.676,4.536,2.889,8.442,2.889,8.442Z" transform="translate(-6240.746 -1953.44)" fill="#9d8995"/>
        </g>
        <path id="Trazado_141708" data-name="Trazado 141708" d="M6242.827,1992.257a1.571,1.571,0,0,0,.621.776.713.713,0,0,0,.632-.077.694.694,0,0,0,.441-.51,1.451,1.451,0,0,0-.185-.735,1.648,1.648,0,0,0-.382-.581.627.627,0,0,0-.68-.1A.854.854,0,0,0,6242.827,1992.257Z" transform="translate(-6240.951 -1980.312)" fill="#d8b69b"/>
      </g>
      <g id="Grupo_82661" data-name="Grupo 82661" transform="translate(30.269 32.276)">
        <path id="Trazado_141709" data-name="Trazado 141709" d="M5940.3,901.61s-3.319.107-5.24.094c-2.9-.019-3.464-2.031-3.5-5.639s-.253-13.078-.171-16.011.037-5.4,3.827-5.407c1.889-.005,4.122-.108,5.023-.1,1.886.015,4.254.471,4.339,4.617.1,4.736.2,14.724.194,18.564C5944.761,901.381,5942.666,901.544,5940.3,901.61Z" transform="translate(-5931.367 -874.006)" fill="#ff7758"/>
        <path id="Trazado_141710" data-name="Trazado 141710" d="M6047.425,871.58s7.771-.646,16.112-.906c8.271-.258,11.719.09,12.319,2.574.61,2.528-2.617,3.551-2.617,3.551s3.278.459,3.487,3.466a2.511,2.511,0,0,1-1.892,2.917s3.146,1.04,3.084,3.688a3.155,3.155,0,0,1-2.783,3.3,3.854,3.854,0,0,1,2.9,4.1c-.322,3.151-3.492,3.459-7.327,3.387s-8.207.148-8.207.148,3.313,6.22,3.355,10.166-1.043,7.9-4.2,7.713-2.739-3.015-3.222-5.942-1.733-3.928-4.692-6.49-5.487-5.321-5.956-8.619C6047.267,891.011,6047.425,871.58,6047.425,871.58Z" transform="translate(-6031.493 -870.602)" fill="#ff7758"/>
      </g>
    </g>
    <rect id="Rectángulo_31022" data-name="Rectángulo 31022" width="1030" height="46.734" transform="translate(285 4781.525)" fill="#ffba5b"/>
  </g>
</svg>
